<svg width="74" height="74" viewBox="0 0 74 74" fill="none" xmlns="http://www.w3.org/2000/svg">
<g clip-path="url(#clip0_70_1450)">
<path d="M64.8609 38.0988C65.3172 40.0554 67.1692 41.5563 69.3702 41.5563C71.9201 41.5563 74.0002 39.4791 74.0002 36.9329C74.0002 34.3868 71.9201 32.3096 69.3702 32.3096C67.1692 32.3096 65.438 33.8105 64.8609 35.7671H59.6538C59.533 34.2662 59.3049 32.7653 58.956 31.2643H65.5454C66.2432 31.2643 66.6995 30.8087 66.6995 30.1119V23.7598C68.6589 23.3042 70.162 21.4549 70.162 19.2571C70.162 16.7109 68.0818 14.6338 65.532 14.6338C62.9821 14.6338 60.9288 16.7377 60.9288 19.2839C60.9288 21.4817 62.4318 23.2104 64.3912 23.7866V28.9862H58.2581C55.9498 22.862 51.0916 18.0242 44.9585 15.7058V9.47441H50.1656C50.6219 11.4309 52.4739 12.9319 54.6749 12.9319C57.2247 12.9319 59.3049 10.8547 59.3049 8.30853C59.3049 5.76235 57.2247 3.68521 54.6749 3.68521C52.4739 3.68521 50.7427 5.18611 50.1656 7.14265H43.8044C43.1065 7.14265 42.6502 7.59828 42.6502 8.29513V14.875C41.1471 14.5266 39.644 14.2988 38.141 14.1781V9.09919C40.1003 8.64355 41.6034 6.79422 41.6034 4.59647C41.6034 2.05029 39.5233 -0.0268555 36.9734 -0.0268555C34.4235 -0.0268555 32.3433 2.05029 32.3433 4.59647C32.3433 6.79422 33.8464 8.52295 35.8058 9.09919V14.2988C34.3027 14.4194 32.7996 14.6472 31.2966 14.9956V8.29513C31.2966 7.59828 30.8403 7.14265 30.1424 7.14265H23.9019C23.4456 5.18611 21.5936 3.68521 19.3927 3.68521C16.8428 3.68521 14.7626 5.76235 14.7626 8.30853C14.7626 10.8547 16.8428 12.9319 19.3927 12.9319C21.5936 12.9319 23.3249 11.4309 23.9019 9.47441H28.9883V15.5986C22.8551 17.9036 17.8896 22.8754 15.5813 28.9862H9.24687V23.7866C11.2062 23.331 12.7093 21.4817 12.7093 19.2839C12.7093 16.7377 10.6292 14.6606 8.07929 14.6606C5.52942 14.6606 3.44926 16.7377 3.44926 19.2839C3.44926 21.4817 4.95234 23.2104 6.91172 23.7866V30.1387C6.91172 30.8355 7.36801 31.2911 8.06587 31.2911H14.8834C14.5345 32.792 14.3064 34.1724 14.1856 35.7939H9.09924C8.64295 33.8373 6.79094 32.3364 4.58999 32.3364C2.04012 32.3364 -0.0400391 34.4136 -0.0400391 36.9597C-0.0400391 39.5059 2.04012 41.5831 4.58999 41.5831C6.79094 41.5831 8.52217 40.0822 9.09924 38.1256H14.2258C14.3466 39.7471 14.5748 41.248 14.9237 42.6283H8.10613C7.40827 42.6283 6.95198 43.084 6.95198 43.7808V50.1329C4.9926 50.5885 3.48952 52.4378 3.48952 54.6356C3.48952 57.1818 5.56968 59.2589 8.11955 59.2589C10.6694 59.2589 12.7496 57.1818 12.7496 54.6356C12.7496 52.4378 11.2465 50.7091 9.28713 50.1329V44.9333H15.6484C17.9567 51.0575 22.8149 56.0159 29.0554 58.3209V64.6729H23.969C23.5127 62.7164 21.6607 61.2155 19.4598 61.2155C16.9099 61.2155 14.8297 63.2926 14.8297 65.8388C14.8297 68.385 16.9099 70.4621 19.4598 70.4621C21.6607 70.4621 23.392 68.9612 23.969 67.0047H30.2095C30.9074 67.0047 31.3637 66.549 31.3637 65.8522V59.0445C32.8667 59.3929 34.249 59.6207 35.8729 59.7413V64.9409C33.9135 65.3965 32.4104 67.2459 32.4104 69.4436C32.4104 71.9898 34.4906 74.067 37.0405 74.067C39.5904 74.067 41.6705 71.9898 41.6705 69.4436C41.6705 67.2459 40.1674 65.5172 38.2081 64.9409V59.7413C39.8319 59.6207 41.335 59.3929 42.7173 59.0445V65.8522C42.7173 66.549 43.1736 67.0047 43.8715 67.0047H50.2327C50.689 68.9612 52.541 70.4621 54.742 70.4621C57.2918 70.4621 59.372 68.385 59.372 65.8388C59.372 63.2926 57.2918 61.2155 54.742 61.2155C52.541 61.2155 50.8098 62.7164 50.2327 64.6729H45.0256V58.2136C51.1587 55.9087 56.0035 51.0575 58.3252 44.9333H64.4583V50.1329C62.4989 50.5885 60.9959 52.4378 60.9959 54.6356C60.9959 57.1818 63.076 59.2589 65.6259 59.2589C68.1758 59.2589 70.2559 57.1818 70.2559 54.6356C70.2559 52.4378 68.7528 50.7091 66.7935 50.1329V43.7808C66.7935 43.084 66.3372 42.6283 65.6393 42.6283H59.0499C59.3988 41.1274 59.627 39.6265 59.7478 38.1256L64.8609 38.0988ZM63.3579 19.3911C63.3579 18.118 64.4046 17.0861 65.6662 17.0861C66.9411 17.0861 67.9745 18.1314 67.9745 19.3911C67.9745 20.6508 66.9277 21.6961 65.6662 21.6961C64.4046 21.7095 63.3579 20.6642 63.3579 19.3911ZM54.5675 6.00357C55.8424 6.00357 56.8758 7.04884 56.8758 8.30853C56.8758 9.58162 55.829 10.6135 54.5675 10.6135C53.306 10.6135 52.2592 9.56822 52.2592 8.30853C52.2592 7.04884 53.306 6.00357 54.5675 6.00357ZM19.4195 10.6269C18.1446 10.6269 17.1112 9.58162 17.1112 8.32193C17.1112 7.04884 18.158 6.01697 19.4195 6.01697C20.681 6.01697 21.7412 7.04884 21.7412 8.30853C21.7412 9.58162 20.6945 10.6269 19.4195 10.6269ZM5.78441 19.3911C5.78441 18.118 6.8312 17.0861 8.09271 17.0861C9.36765 17.0861 10.401 18.1314 10.401 19.3911C10.401 20.6508 9.36765 21.7095 8.09271 21.7095C6.81778 21.7095 5.78441 20.6642 5.78441 19.3911ZM10.401 54.4882C10.401 55.7613 9.35423 56.7931 8.09271 56.7931C6.81778 56.7931 5.78441 55.7479 5.78441 54.4882C5.78441 53.2285 6.8312 52.1832 8.09271 52.1832C9.36765 52.1832 10.401 53.2285 10.401 54.4882ZM19.4195 68.1169C18.1446 68.1169 17.1112 67.0717 17.1112 65.812C17.1112 64.5389 18.158 63.507 19.4195 63.507C20.681 63.507 21.7278 64.5523 21.7278 65.812C21.7412 67.0851 20.6945 68.1169 19.4195 68.1169ZM54.5675 63.4936C55.8424 63.4936 56.8758 64.5389 56.8758 65.7986C56.8758 67.0717 55.829 68.1035 54.5675 68.1035C53.306 68.1035 52.2592 67.0583 52.2592 65.7986C52.2592 64.5389 53.306 63.4936 54.5675 63.4936ZM67.9879 54.4882C67.9879 55.7613 66.9411 56.7931 65.6796 56.7931C64.4046 56.7931 63.3713 55.7479 63.3713 54.4882C63.3713 53.2285 64.4181 52.1832 65.6796 52.1832C66.9411 52.1832 67.9879 53.2285 67.9879 54.4882ZM69.3702 34.6414C70.6451 34.6414 71.6785 35.6867 71.6785 36.9463C71.6785 38.206 70.6317 39.2513 69.3702 39.2513C68.0953 39.2513 67.0619 38.206 67.0619 36.9463C67.0619 35.6867 68.1087 34.6414 69.3702 34.6414ZM34.6919 4.62327C34.6919 3.35018 35.7387 2.31831 37.0002 2.31831C38.2617 2.31831 39.3085 3.36358 39.3085 4.62327C39.3085 5.89636 38.2617 6.92823 37.0002 6.92823C35.7387 6.92823 34.6919 5.88296 34.6919 4.62327ZM4.63025 39.2513C3.35532 39.2513 2.32195 38.206 2.32195 36.9463C2.32195 35.6867 3.36874 34.6414 4.63025 34.6414C5.90519 34.6414 6.93856 35.6867 6.93856 36.9463C6.93856 38.206 5.89177 39.2513 4.63025 39.2513ZM39.3085 69.2694C39.3085 70.5425 38.2617 71.5744 37.0002 71.5744C35.7387 71.5744 34.6919 70.5291 34.6919 69.2694C34.6919 67.9963 35.7387 66.9645 37.0002 66.9645C38.2617 66.9645 39.3085 67.9963 39.3085 69.2694ZM37.0002 57.3828C25.6734 57.3828 16.5341 48.1495 16.5341 36.8257C16.5341 25.8638 25.5526 16.3893 37.0002 16.3893C48.4478 16.3893 57.4663 25.7432 57.4663 36.8257C57.4663 48.2567 48.2197 57.3828 37.0002 57.3828Z" fill="url(#paint0_linear_70_1450)"/>
<path d="M35.9254 34.4237C36.3695 34.5286 36.4794 34.6858 36.8305 34.7297C37.2036 34.723 37.1498 34.6474 37.8007 34.4233C37.8434 34.4082 37.9021 34.3142 37.8293 34.2421C37.4251 33.8418 37.1458 34.1277 36.8925 34.1353C36.5564 34.139 36.2412 33.8482 35.9128 34.2262C35.8569 34.3029 35.8277 34.3783 35.9254 34.4237Z" fill="url(#paint1_linear_70_1450)"/>
<path d="M36.8547 23.4936C37.5932 23.9187 38.3765 24.4658 38.9728 25.0455L38.7386 25.2806C37.5619 25.1557 36.3226 25.3116 35.2071 25.3288C35.0827 25.2034 34.8321 25.015 35.0655 24.8575L36.8547 23.4936ZM57.6609 38.0914C57.6765 38.6219 57.7264 39.0774 57.5193 39.6203C55.3696 40.2309 53.9575 37.9578 51.8717 38.3006L52.1075 39.4788C54.0372 39.5422 55.2425 41.3903 57.2361 41.3108C56.9529 41.8758 57.3624 43.3642 56.1076 42.7692C54.8051 42.4567 53.8634 41.3108 52.4361 41.3108C52.2639 41.6266 52.3729 42.0638 52.3427 42.4374C53.8484 42.6733 54.9313 43.9443 56.4366 44.1789C56.295 44.6956 56.1547 45.2741 55.7308 45.5892C54.5061 45.2915 53.5496 44.1931 52.2458 44.2246L52.0137 45.3065C53.2527 45.3383 54.0532 46.433 55.1667 46.7616C55.1973 47.218 54.7889 47.6258 54.5536 48.0331C53.5651 47.7366 52.8113 46.8886 51.6818 46.9511C51.6662 46.5261 51.9188 46.0436 51.8234 45.5892C50.5549 45.966 49.7043 44.7888 48.7642 44.0827C48.7371 41.772 46.3013 40.2561 46.1727 38.0914C46.148 37.6598 46.2139 37.1991 46.4108 36.704C47.2113 34.8554 46.9599 32.4554 46.082 30.7319C45.8153 30.2783 45.3427 29.9203 44.9022 29.6536C45.5466 31.0175 46.3319 32.629 45.94 34.3055C45.8946 35.6001 45.1297 36.8434 45.121 38.0914C45.118 38.5364 45.2131 38.9813 45.4694 39.4307C46.4899 41.2663 48.326 43.0039 47.6356 45.306C47.4457 46.0131 46.8804 46.5599 46.7394 47.2796C47.9333 48.2671 49.0622 49.3799 50.6463 49.4425C51.2108 49.0825 50.8972 47.4859 52.0584 48.2223L53.7538 49.0693C53.6303 49.5226 53.2503 49.9288 52.9062 50.2409C52.2629 49.9282 51.6354 49.5534 50.8333 49.584C50.5968 49.8345 50.3933 50.1158 50.4113 50.4754C50.9758 50.5683 51.4935 50.8062 51.965 51.1358C51.7461 51.6067 51.3195 51.9017 50.9273 52.2623L49.6121 51.7927C49.3925 52.1065 48.9364 52.4363 49.0964 52.7807C49.3932 52.9076 49.7224 53.0792 49.9408 53.299C49.3603 53.9257 48.6245 54.3288 47.9165 54.7542C47.3067 52.7635 45.2973 51.3678 45.4698 49.0656L45.3764 48.9725C44.9041 49.5028 45.0619 50.3509 45.0924 51.0391C45.6576 52.4811 47.006 53.5948 47.2105 55.1761C46.9744 55.583 46.4421 55.6641 46.0338 55.8364C46.0812 52.9855 41.7512 50.8232 44.5279 47.9395C45.454 46.5274 47.0055 45.1798 46.4558 43.2358C45.8913 41.3587 43.8949 40.1957 43.9126 38.0914L43.9157 37.9273C44.3704 35.7329 45.7517 33.398 44.6217 31.0636C44.3068 30.1246 43.6031 29.0577 42.646 28.6652C44.0729 30.2963 44.6386 32.9577 43.8223 35.1525C43.4109 36.0255 42.8445 37.0656 42.7876 38.0918H42.7843C42.7539 38.6278 42.8635 39.1608 43.2098 39.6662C44.2932 41.4218 46.175 43.3503 45.0925 45.6382C43.8689 47.4707 41.7351 49.3348 42.9267 51.7485C43.7896 53.19 45.1244 54.6284 44.7643 56.4005L43.3522 56.8701C44.2937 53.5648 39.6803 51.6227 41.6115 48.3163C42.8039 46.5457 44.9364 44.8845 43.7292 42.5346C43.0075 41.0785 41.5163 40.2168 41.5634 38.3972L41.6148 38.0917C42.1007 35.5111 44.0649 33.0684 42.6915 30.3107C42.3305 29.4964 41.6093 28.6662 40.8087 28.1958L40.7604 28.2441C42.3616 29.7953 42.8487 32.3476 41.9854 34.3993C41.5826 35.6031 40.6986 36.8022 40.5189 38.0921C40.4334 38.7003 40.5055 39.3307 40.8574 39.9947C41.8771 41.6073 43.6653 43.318 42.5494 45.403C41.3743 47.1251 39.4125 48.8007 40.1961 51.0401C41.0592 52.9994 42.8616 54.8659 41.8884 57.2954L40.4313 57.624C41.5919 55.2564 39.8517 52.907 38.8322 50.8536C37.5921 47.9076 41.4967 46.497 41.5593 43.8035C41.5445 42.0651 39.694 41.078 39.3029 39.4798C38.5019 38.805 37.6718 39.7482 36.7142 39.5731C36.0074 39.7149 34.9216 38.6013 34.4997 39.8085C33.9971 41.5782 31.7078 42.8792 32.714 44.9783C33.6713 46.8436 35.9753 48.2077 35.2057 50.6216C34.5166 52.8765 32.2402 55.0234 33.652 57.624C33.0721 57.4364 31.989 57.7956 32.0047 56.8703C31.1108 53.7209 34.9228 51.8861 33.7454 48.7384C33.1975 46.8104 30.7009 45.7452 31.2506 43.4263C31.6569 41.5175 33.8017 40.183 33.5008 38.092C33.4764 37.9169 33.4333 37.7377 33.3716 37.551C32.5711 35.2946 30.9379 33.0377 31.9113 30.4042C32.1786 29.6521 32.7124 29.0098 33.1815 28.3375C31.6281 29.1677 30.8445 30.9231 30.8767 32.7091C30.809 34.6512 32.2454 36.3148 32.4498 38.092C32.5302 38.8092 32.4126 39.5436 31.9113 40.3227C30.8923 41.7037 29.5596 43.1597 30.1706 44.978C30.7516 46.8121 33.042 47.9231 32.9009 50.055C32.8853 52.5767 29.9513 54.1468 30.7829 56.967L29.3226 56.4939C28.7428 53.9878 31.4095 52.7056 31.4401 50.3868C31.8175 47.7203 28.4122 46.7309 28.6165 44.1316C28.6019 42.1567 30.3426 40.9059 31.1114 39.2446C31.2432 38.8404 31.2871 38.4584 31.2695 38.0921C31.1752 36.2554 29.518 34.8194 29.7931 32.7543C29.8856 31.2344 30.4033 29.9022 31.3922 28.7592C30.0279 29.3065 29.4643 30.875 29.0875 32.1914C28.4335 34.3023 29.9946 36.201 30.1512 38.0923C30.2206 38.9274 30.0162 39.7577 29.2293 40.6067C28.0991 41.9369 26.9528 43.6154 27.7689 45.4032C28.633 47.3759 31.3479 48.9114 30.1703 51.3718C29.5279 52.9234 27.9896 54.0978 28.0528 55.9305C27.6452 55.7581 27.2224 55.5862 26.876 55.2737C26.876 52.9394 30.2008 51.4814 28.6167 49.0214C28.4763 49.5068 28.4461 50.1664 28.3363 50.7148C27.7865 52.1413 26.6103 53.2833 26.1701 54.758C25.434 54.4743 24.6643 53.8782 24.0521 53.2516L24.9002 52.7332C24.8059 52.4192 24.5553 52.1532 24.3361 51.8868C23.7854 51.8095 23.4238 52.1704 22.9698 52.3118C22.5775 51.9664 22.199 51.6529 21.8863 51.2299C22.1678 50.4291 24.3675 51.0913 23.2531 49.7747C22.5008 49.3049 21.7457 49.976 21.0869 50.2892L20.1938 49.1627C20.9626 48.6931 21.7295 48.0334 22.6857 48.2226C22.9214 48.6464 22.9378 49.2697 23.3918 49.491C25.0081 49.4596 26.1533 48.2387 27.3923 47.2825C26.5287 45.9992 25.8258 44.2275 26.5929 42.6756C27.2076 41.1204 28.809 39.8106 28.8817 38.0913C28.898 37.7 28.837 37.2883 28.6656 36.8451C27.8188 34.6668 27.5199 31.7228 29.1363 29.7948C28.2574 30.0305 27.7393 31.1244 27.4407 31.9551C26.4691 34.0821 27.6979 36.0527 27.7404 38.0911C27.7462 38.4578 27.7164 38.8253 27.6274 39.1954C26.7956 40.8719 25.4478 42.3429 25.2289 44.272C24.2716 44.8819 23.4855 45.9485 22.1214 45.5886C22.0735 45.9486 22.1833 46.4974 22.3084 46.9052C21.2267 46.8598 20.489 47.6561 19.5782 48.0322C19.093 47.8767 18.9668 47.2503 18.7789 46.8119C19.8451 46.4523 20.6141 45.3849 21.8382 45.4018C21.9801 45.0081 21.7587 44.6474 21.6962 44.2717C20.1735 43.5968 17.7599 47.6083 17.557 44.1303C19.0785 44.0362 20.0508 42.6257 21.5577 42.4851L21.6027 41.3586C19.8926 41.186 18.7925 42.9418 17.0831 42.7687L16.7061 41.2653C18.6835 41.3887 19.8616 39.619 21.7447 39.5238C21.9949 39.1952 22.0251 38.7094 22.0733 38.2554C20.0178 37.9879 18.6073 40.2629 16.4257 39.572C16.4257 39.572 16.3505 38.6251 16.3098 38.0913H16.3127C16.2979 37.8825 16.2838 37.737 16.2838 37.737C18.2292 38.4909 19.9384 37.0954 21.6027 36.3751C22.0259 36.2486 22.686 36.4679 22.8758 35.9983C22.8593 35.6379 23.5176 35.2164 22.9696 34.9649C20.5366 34.6351 18.9203 37.5659 16.4254 36.2333L16.2383 35.8565C16.7573 28.775 20.7563 21.9285 27.3923 18.5594C30.0799 17.0255 33.4189 16.2436 36.7862 16.2159C40.8499 16.1822 44.9561 17.2468 48.0107 19.4062C50.977 21.2234 53.8145 24.2181 55.3543 27.2582C56.827 29.9218 57.5049 32.9106 57.7073 36.0925C55.1336 38.0347 53.407 34.2628 50.7862 35.107C50.9274 35.5152 51.0055 35.9375 51.3051 36.2821C53.6279 36.2658 55.2274 38.6947 57.6587 37.7375L57.6609 38.0914ZM28.0975 29.3699C26.4655 28.3041 24.3965 29.3077 22.8756 29.8881C22.7344 28.4616 22.1543 27.1619 20.9447 26.2218C20.8274 26.1635 20.6652 26.0408 20.5191 26.0318C20.4316 26.0263 20.3484 26.0615 20.2838 26.1732C20.832 29.5415 18.6396 31.8918 17.0859 34.4469C17.6033 34.8692 18.4344 34.8061 19.0619 34.682C20.7089 34.0242 22.2778 32.8793 24.239 33.2718C24.8189 32.2847 25.7934 31.3285 26.5923 30.5451C27.0805 30.1232 27.7511 29.8553 28.0975 29.3699ZM33.0877 31.4853C33.0564 31.6881 33.1034 32.0497 33.4165 31.91C33.9036 31.2363 34.7661 31.7693 35.2992 31.8167V31.6271C35.0067 31.1684 34.4049 30.9379 33.7938 30.9609C33.6527 30.9658 33.5094 30.9864 33.3715 31.0184C33.167 31.0637 33.0247 31.2506 33.0877 31.4853ZM40.7597 29.4667C40.3216 28.4949 39.3174 28.1017 38.4061 27.8667C37.9595 27.8118 37.4959 27.7746 37.0361 27.7702C36.9499 27.7694 36.8639 27.7683 36.7781 27.7702C35.492 27.7962 34.2631 28.1259 33.5124 29.1832C33.4046 29.4816 32.9309 29.9008 33.3708 30.1683C34.3593 30.1052 35.4874 29.9814 36.1463 30.8286C36.1463 31.5815 36.633 32.5831 35.8175 32.9436C35.1418 32.3187 34.3416 33.2095 33.6063 32.7081C33.2606 32.5041 33.0419 32.7422 32.9003 33.0398C32.6959 34.9823 33.7144 37.1261 35.534 38.2069C36.2715 38.4726 37.2629 38.7253 38.0325 38.3483C39.8838 37.4874 40.6506 35.5143 40.9953 33.6964C40.9491 33.3505 40.9656 32.6764 40.4796 32.66C39.9308 33.0067 39.1304 32.8019 38.5487 32.66C38.2049 32.7709 38.1891 33.2733 37.7977 33.3685L37.5592 33.1785C37.355 32.318 37.229 31.0954 38.03 30.5C38.925 30.1396 39.9762 29.9821 40.9018 30.2649C41.0746 29.9674 40.8079 29.7332 40.7597 29.4667ZM39.8151 31.0117C39.7529 31.0133 39.6924 31.0164 39.6312 31.0184C39.3024 31.2374 38.3444 31.0799 38.6902 31.8167C39.2868 31.3454 40.1184 31.6757 40.7145 31.91C40.935 31.8007 40.8872 31.5812 40.9017 31.3921C40.7103 31.0364 40.2529 31.003 39.8151 31.0117ZM46.6462 24.3867C45.4849 24.3252 44.5124 24.9836 43.4453 25.2815C43.3524 24.3746 44.0422 23.417 44.1996 22.5066C42.4743 22.6175 41.1077 23.6546 39.6804 24.4831C39.3501 23.686 39.0188 22.8848 38.6908 22.0847L40.5735 20.298L40.6217 20.0626L38.0787 19.9212C37.6406 19.1547 37.468 18.2314 36.9502 17.5262C36.5265 18.3253 36.2419 19.171 35.8187 19.9694L33.2786 20.1112V20.298L35.2064 22.0364C34.9707 22.93 34.7517 23.9009 34.1717 24.5763C33.0422 23.9007 31.9287 23.1652 30.6902 22.6961C30.3922 22.6 29.9674 22.4438 29.7007 22.6479C30.0924 23.5099 30.6408 24.4372 30.5486 25.3781C30.0306 25.2829 29.6234 24.9512 29.1367 24.8117C28.5546 24.6531 27.8639 24.3432 27.2992 24.5317C28.2408 25.8471 29.0093 27.2239 29.2752 28.8069C32.3988 27.3013 36.0415 26.4732 39.8227 27.1167C41.5952 27.3984 43.225 28.1194 44.8099 28.7134C44.8718 27.0534 45.9229 25.7195 46.6462 24.3867ZM52.0102 33.4133C53.6092 33.836 55.2134 35.576 56.9067 34.4471C55.432 32.0031 53.237 29.7462 53.8475 26.5501C53.9114 26.332 53.7702 26.1111 53.5671 26.0801C52.6104 26.4706 51.8695 27.4119 51.491 28.3372C51.3353 28.8844 51.243 29.4661 51.0237 29.9819C49.8777 29.3863 48.6547 28.8092 47.2584 28.9486C46.7549 29.0113 46.0331 29.0443 45.9401 29.5605C47.5247 30.4062 48.8278 31.8176 49.7988 33.3205C50.475 33.2104 51.3041 33.3044 52.0102 33.4133ZM35.2539 35.6221L35.2991 35.9053C35.9122 36.3133 36.1007 37.0046 36.9495 36.9418C37.7022 36.9864 38.2669 36.2821 38.642 35.7184C37.6234 35.578 36.3839 35.7953 35.2539 35.6221ZM36.1016 34.3537C36.1322 34.4792 36.0239 34.6672 36.1949 34.7306C36.697 34.6217 37.6066 34.9974 37.887 34.402C37.6912 34.183 37.3716 34.0835 37.0362 34.0835C36.701 34.0835 36.3531 34.1811 36.1016 34.3537Z" fill="url(#paint2_linear_70_1450)"/>
</g>
<defs>
<linearGradient id="paint0_linear_70_1450" x1="36.9801" y1="-0.0268555" x2="36.9801" y2="74.067" gradientUnits="userSpaceOnUse">
<stop stop-color="#00FFA3"/>
<stop offset="1" stop-color="white"/>
</linearGradient>
<linearGradient id="paint1_linear_70_1450" x1="36.8625" y1="34.0293" x2="36.8625" y2="34.7297" gradientUnits="userSpaceOnUse">
<stop stop-color="#2CFFA8"/>
<stop offset="1" stop-color="white"/>
</linearGradient>
<linearGradient id="paint2_linear_70_1450" x1="36.9728" y1="16.2151" x2="36.9728" y2="57.624" gradientUnits="userSpaceOnUse">
<stop stop-color="#2CFFA8"/>
<stop offset="1" stop-color="white"/>
</linearGradient>
<clipPath id="clip0_70_1450">
<rect width="74" height="74" fill="white"/>
</clipPath>
</defs>
</svg>
