<svg width="497" height="474" viewBox="0 0 497 474" fill="none" xmlns="http://www.w3.org/2000/svg">
<g filter="url(#filter0_b_70_1405)">
<mask id="path-1-inside-1_70_1405" fill="white">
<path d="M68.3038 314.897C64.405 316.976 59.5442 315.507 57.6195 311.53C40.0086 275.14 33.5444 234.286 39.1426 194.128C45.1095 151.325 64.4739 111.509 94.4604 80.3877C124.447 49.2663 163.516 28.4369 206.068 20.8849C245.991 13.7995 287.057 18.7424 324.075 34.99C328.121 36.7657 329.769 41.5685 327.837 45.5418L263.23 178.382C261.298 182.355 256.514 183.924 252.242 182.8C246.538 181.3 240.546 181.042 234.678 182.084C226.167 183.594 218.353 187.76 212.356 193.984C206.359 200.208 202.486 208.172 201.292 216.732C200.469 222.635 200.95 228.614 202.661 234.257C203.942 238.486 202.552 243.324 198.653 245.402L68.3038 314.897Z"/>
</mask>
<path d="M68.3038 314.897C64.405 316.976 59.5442 315.507 57.6195 311.53C40.0086 275.14 33.5444 234.286 39.1426 194.128C45.1095 151.325 64.4739 111.509 94.4604 80.3877C124.447 49.2663 163.516 28.4369 206.068 20.8849C245.991 13.7995 287.057 18.7424 324.075 34.99C328.121 36.7657 329.769 41.5685 327.837 45.5418L263.23 178.382C261.298 182.355 256.514 183.924 252.242 182.8C246.538 181.3 240.546 181.042 234.678 182.084C226.167 183.594 218.353 187.76 212.356 193.984C206.359 200.208 202.486 208.172 201.292 216.732C200.469 222.635 200.95 228.614 202.661 234.257C203.942 238.486 202.552 243.324 198.653 245.402L68.3038 314.897Z" fill="#046A38"/>
<path d="M68.3038 314.897C64.405 316.976 59.5442 315.507 57.6195 311.53C40.0086 275.14 33.5444 234.286 39.1426 194.128C45.1095 151.325 64.4739 111.509 94.4604 80.3877C124.447 49.2663 163.516 28.4369 206.068 20.8849C245.991 13.7995 287.057 18.7424 324.075 34.99C328.121 36.7657 329.769 41.5685 327.837 45.5418L263.23 178.382C261.298 182.355 256.514 183.924 252.242 182.8C246.538 181.3 240.546 181.042 234.678 182.084C226.167 183.594 218.353 187.76 212.356 193.984C206.359 200.208 202.486 208.172 201.292 216.732C200.469 222.635 200.95 228.614 202.661 234.257C203.942 238.486 202.552 243.324 198.653 245.402L68.3038 314.897Z" stroke="white" stroke-opacity="0.5" stroke-width="2" mask="url(#path-1-inside-1_70_1405)"/>
</g>
<g filter="url(#filter1_b_70_1405)">
<mask id="path-2-inside-2_70_1405" fill="white">
<path d="M405.698 65.5966C408.822 62.4724 413.9 62.462 416.9 65.7058C442.539 93.432 460.009 127.718 467.369 164.758C468.23 169.092 465.237 173.194 460.873 173.885L314.974 196.993C310.61 197.684 306.585 194.661 305.059 190.515C303.94 187.472 302.462 184.572 300.659 181.878C298.201 178.206 298.121 173.173 301.246 170.049L405.698 65.5966Z"/>
</mask>
<path d="M405.698 65.5966C408.822 62.4724 413.9 62.462 416.9 65.7058C442.539 93.432 460.009 127.718 467.369 164.758C468.23 169.092 465.237 173.194 460.873 173.885L314.974 196.993C310.61 197.684 306.585 194.661 305.059 190.515C303.94 187.472 302.462 184.572 300.659 181.878C298.201 178.206 298.121 173.173 301.246 170.049L405.698 65.5966Z" fill="#08E97D"/>
<path d="M405.698 65.5966C408.822 62.4724 413.9 62.462 416.9 65.7058C442.539 93.432 460.009 127.718 467.369 164.758C468.23 169.092 465.237 173.194 460.873 173.885L314.974 196.993C310.61 197.684 306.585 194.661 305.059 190.515C303.94 187.472 302.462 184.572 300.659 181.878C298.201 178.206 298.121 173.173 301.246 170.049L405.698 65.5966Z" stroke="white" stroke-opacity="0.5" stroke-width="2" mask="url(#path-2-inside-2_70_1405)"/>
</g>
<g filter="url(#filter2_b_70_1405)">
<mask id="path-3-inside-3_70_1405" fill="white">
<path d="M422.675 359.991C426.232 362.611 427.003 367.63 424.246 371.083C399.014 402.669 364.946 426.125 326.302 438.399C287.657 450.672 246.298 451.173 207.465 439.934C203.221 438.706 200.955 434.161 202.348 429.969L248.925 289.786C250.318 285.593 254.854 283.409 259.237 283.961C265.088 284.698 271.062 284.166 276.743 282.362C282.424 280.558 287.61 277.545 291.963 273.567C295.225 270.587 300.189 269.754 303.747 272.374L422.675 359.991Z"/>
</mask>
<path d="M422.675 359.991C426.232 362.611 427.003 367.63 424.246 371.083C399.014 402.669 364.946 426.125 326.302 438.399C287.657 450.672 246.298 451.173 207.465 439.934C203.221 438.706 200.955 434.161 202.348 429.969L248.925 289.786C250.318 285.593 254.854 283.409 259.237 283.961C265.088 284.698 271.062 284.166 276.743 282.362C282.424 280.558 287.61 277.545 291.963 273.567C295.225 270.587 300.189 269.754 303.747 272.374L422.675 359.991Z" fill="#47301A"/>
<path d="M422.675 359.991C426.232 362.611 427.003 367.63 424.246 371.083C399.014 402.669 364.946 426.125 326.302 438.399C287.657 450.672 246.298 451.173 207.465 439.934C203.221 438.706 200.955 434.161 202.348 429.969L248.925 289.786C250.318 285.593 254.854 283.409 259.237 283.961C265.088 284.698 271.062 284.166 276.743 282.362C282.424 280.558 287.61 277.545 291.963 273.567C295.225 270.587 300.189 269.754 303.747 272.374L422.675 359.991Z" stroke="white" stroke-opacity="0.5" stroke-width="2" mask="url(#path-3-inside-3_70_1405)"/>
</g>
<g filter="url(#filter3_b_70_1405)">
<mask id="path-4-inside-4_70_1405" fill="white">
<path d="M146.416 427.783C144.883 431.927 140.274 434.058 136.193 432.364C108.889 421.031 84.3335 403.903 64.2434 382.13C44.1533 360.357 29.0519 334.506 19.9473 306.38C18.5866 302.177 21.0809 297.753 25.3344 296.558L167.543 256.591C171.796 255.396 176.147 257.928 178.145 261.869C179.844 265.218 182.002 268.329 184.566 271.108C187.131 273.887 190.058 276.288 193.261 278.25C197.028 280.559 199.203 285.099 197.67 289.242L146.416 427.783Z"/>
</mask>
<path d="M146.416 427.783C144.883 431.927 140.274 434.058 136.193 432.364C108.889 421.031 84.3335 403.903 64.2434 382.13C44.1533 360.357 29.0519 334.506 19.9473 306.38C18.5866 302.177 21.0809 297.753 25.3344 296.558L167.543 256.591C171.796 255.396 176.147 257.928 178.145 261.869C179.844 265.218 182.002 268.329 184.566 271.108C187.131 273.887 190.058 276.288 193.261 278.25C197.028 280.559 199.203 285.099 197.67 289.242L146.416 427.783Z" fill="#2EF594" fill-opacity="0.45"/>
<path d="M146.416 427.783C144.883 431.927 140.274 434.058 136.193 432.364C108.889 421.031 84.3335 403.903 64.2434 382.13C44.1533 360.357 29.0519 334.506 19.9473 306.38C18.5866 302.177 21.0809 297.753 25.3344 296.558L167.543 256.591C171.796 255.396 176.147 257.928 178.145 261.869C179.844 265.218 182.002 268.329 184.566 271.108C187.131 273.887 190.058 276.288 193.261 278.25C197.028 280.559 199.203 285.099 197.67 289.242L146.416 427.783Z" stroke="white" stroke-opacity="0.5" stroke-width="2" mask="url(#path-4-inside-4_70_1405)"/>
</g>
<g filter="url(#filter4_b_70_1405)">
<mask id="path-5-inside-5_70_1405" fill="white">
<path d="M447.825 248.842C452.217 249.324 455.403 253.279 454.749 257.648C450.377 286.886 439.717 314.862 423.467 339.634C407.217 364.405 385.801 385.326 360.724 400.981C356.976 403.321 352.079 401.974 349.888 398.137L276.621 269.87C274.43 266.033 275.831 261.199 279.169 258.304C282.006 255.843 284.501 252.995 286.575 249.833C288.649 246.672 290.268 243.249 291.395 239.666C292.721 235.452 296.598 232.24 300.99 232.723L447.825 248.842Z"/>
</mask>
<path d="M447.825 248.842C452.217 249.324 455.403 253.279 454.749 257.648C450.377 286.886 439.717 314.862 423.467 339.634C407.217 364.405 385.801 385.326 360.724 400.981C356.976 403.321 352.079 401.974 349.888 398.137L276.621 269.87C274.43 266.033 275.831 261.199 279.169 258.304C282.006 255.843 284.501 252.995 286.575 249.833C288.649 246.672 290.268 243.249 291.395 239.666C292.721 235.452 296.598 232.24 300.99 232.723L447.825 248.842Z" fill="#8D6136" fill-opacity="0.38"/>
<path d="M447.825 248.842C452.217 249.324 455.403 253.279 454.749 257.648C450.377 286.886 439.717 314.862 423.467 339.634C407.217 364.405 385.801 385.326 360.724 400.981C356.976 403.321 352.079 401.974 349.888 398.137L276.621 269.87C274.43 266.033 275.831 261.199 279.169 258.304C282.006 255.843 284.501 252.995 286.575 249.833C288.649 246.672 290.268 243.249 291.395 239.666C292.721 235.452 296.598 232.24 300.99 232.723L447.825 248.842Z" stroke="white" stroke-opacity="0.5" stroke-width="2" mask="url(#path-5-inside-5_70_1405)"/>
</g>
<g filter="url(#filter5_b_70_1405)">
<rect x="34" y="56" width="113" height="65" rx="10" fill="#8D6136" fill-opacity="0.5"/>
<path d="M69.2812 90.2031H73.1875V92.6562H69.2812V99H66.0469V92.6562H55.2656V90.2969L66.2031 76.2812H69.2812V90.2031ZM66.0469 80.2812L58.2656 90.2031H66.0469V80.2812ZM85.5312 99.4844C83.6146 99.4844 81.9167 98.9688 80.4375 97.9375C78.9688 96.8958 77.8385 95.4792 77.0469 93.6875C76.2656 91.8958 75.875 89.8802 75.875 87.6406C75.875 85.401 76.2656 83.3854 77.0469 81.5938C77.8385 79.8021 78.9688 78.3906 80.4375 77.3594C81.9167 76.3177 83.6146 75.7969 85.5312 75.7969C87.4583 75.7969 89.1615 76.3177 90.6406 77.3594C92.1302 78.3906 93.2708 79.8021 94.0625 81.5938C94.8646 83.3854 95.2656 85.401 95.2656 87.6406C95.2656 89.8802 94.8646 91.8958 94.0625 93.6875C93.2708 95.4792 92.1302 96.8958 90.6406 97.9375C89.1615 98.9688 87.4583 99.4844 85.5312 99.4844ZM80.9375 94.1719C82.0521 95.8073 83.5833 96.625 85.5312 96.625C87.4792 96.625 89.0156 95.8073 90.1406 94.1719C91.276 92.5365 91.8438 90.3594 91.8438 87.6406C91.8438 84.9219 91.276 82.7448 90.1406 81.1094C89.0156 79.4635 87.4792 78.6406 85.5312 78.6406C83.5833 78.6406 82.0521 79.4635 80.9375 81.1094C79.8229 82.7448 79.2656 84.9219 79.2656 87.6406C79.2656 90.3594 79.8229 92.5365 80.9375 94.1719ZM102.172 99L118.516 75.7969H120.828L104.469 99H102.172ZM103.453 88.7031C101.807 88.7031 100.464 88.1094 99.4219 86.9219C98.3906 85.7344 97.875 84.2135 97.875 82.3594C97.875 80.5156 98.3906 79 99.4219 77.8125C100.464 76.625 101.797 76.0312 103.422 76.0312C105.068 76.0312 106.406 76.625 107.438 77.8125C108.469 78.9896 108.984 80.5052 108.984 82.3594C108.984 84.2135 108.469 85.7344 107.438 86.9219C106.406 88.1094 105.078 88.7031 103.453 88.7031ZM101.031 85.7188C101.625 86.5729 102.422 87 103.422 87C104.422 87 105.219 86.5729 105.812 85.7188C106.417 84.8646 106.719 83.7448 106.719 82.3594C106.719 80.974 106.417 79.8542 105.812 79C105.219 78.1458 104.422 77.7188 103.422 77.7188C102.422 77.7188 101.625 78.1458 101.031 79C100.448 79.8542 100.156 80.974 100.156 82.3594C100.156 83.7448 100.448 84.8646 101.031 85.7188ZM123.344 97.4844C122.312 98.6615 120.984 99.25 119.359 99.25C117.734 99.25 116.401 98.6562 115.359 97.4688C114.328 96.2812 113.812 94.7656 113.812 92.9219C113.812 91.0677 114.328 89.5469 115.359 88.3594C116.401 87.1719 117.734 86.5781 119.359 86.5781C120.984 86.5781 122.312 87.1719 123.344 88.3594C124.375 89.5469 124.891 91.0677 124.891 92.9219C124.891 94.776 124.375 96.2969 123.344 97.4844ZM116.953 96.2812C117.557 97.1354 118.359 97.5625 119.359 97.5625C120.359 97.5625 121.151 97.1354 121.734 96.2812C122.318 95.4271 122.609 94.3073 122.609 92.9219C122.609 91.5365 122.318 90.4167 121.734 89.5625C121.151 88.7083 120.359 88.2812 119.359 88.2812C118.359 88.2812 117.557 88.7083 116.953 89.5625C116.359 90.4167 116.062 91.5365 116.062 92.9219C116.062 94.3073 116.359 95.4271 116.953 96.2812Z" fill="#BBFBDB"/>
</g>
<g filter="url(#filter6_b_70_1405)">
<rect x="383" y="88" width="113" height="65" rx="10" fill="#8D6136" fill-opacity="0.5"/>
<path d="M408.266 110.578L413.297 108.281H415.406V131H412.172V111.734L408.266 113.5V110.578ZM431.422 131.484C429.505 131.484 427.807 130.969 426.328 129.938C424.859 128.896 423.729 127.479 422.938 125.688C422.156 123.896 421.766 121.88 421.766 119.641C421.766 117.401 422.156 115.385 422.938 113.594C423.729 111.802 424.859 110.391 426.328 109.359C427.807 108.318 429.505 107.797 431.422 107.797C433.349 107.797 435.052 108.318 436.531 109.359C438.021 110.391 439.161 111.802 439.953 113.594C440.755 115.385 441.156 117.401 441.156 119.641C441.156 121.88 440.755 123.896 439.953 125.688C439.161 127.479 438.021 128.896 436.531 129.938C435.052 130.969 433.349 131.484 431.422 131.484ZM426.828 126.172C427.943 127.807 429.474 128.625 431.422 128.625C433.37 128.625 434.906 127.807 436.031 126.172C437.167 124.536 437.734 122.359 437.734 119.641C437.734 116.922 437.167 114.745 436.031 113.109C434.906 111.464 433.37 110.641 431.422 110.641C429.474 110.641 427.943 111.464 426.828 113.109C425.714 114.745 425.156 116.922 425.156 119.641C425.156 122.359 425.714 124.536 426.828 126.172ZM448.062 131L464.406 107.797H466.719L450.359 131H448.062ZM449.344 120.703C447.698 120.703 446.354 120.109 445.312 118.922C444.281 117.734 443.766 116.214 443.766 114.359C443.766 112.516 444.281 111 445.312 109.812C446.354 108.625 447.688 108.031 449.312 108.031C450.958 108.031 452.297 108.625 453.328 109.812C454.359 110.99 454.875 112.505 454.875 114.359C454.875 116.214 454.359 117.734 453.328 118.922C452.297 120.109 450.969 120.703 449.344 120.703ZM446.922 117.719C447.516 118.573 448.312 119 449.312 119C450.312 119 451.109 118.573 451.703 117.719C452.307 116.865 452.609 115.745 452.609 114.359C452.609 112.974 452.307 111.854 451.703 111C451.109 110.146 450.312 109.719 449.312 109.719C448.312 109.719 447.516 110.146 446.922 111C446.339 111.854 446.047 112.974 446.047 114.359C446.047 115.745 446.339 116.865 446.922 117.719ZM469.234 129.484C468.203 130.661 466.875 131.25 465.25 131.25C463.625 131.25 462.292 130.656 461.25 129.469C460.219 128.281 459.703 126.766 459.703 124.922C459.703 123.068 460.219 121.547 461.25 120.359C462.292 119.172 463.625 118.578 465.25 118.578C466.875 118.578 468.203 119.172 469.234 120.359C470.266 121.547 470.781 123.068 470.781 124.922C470.781 126.776 470.266 128.297 469.234 129.484ZM462.844 128.281C463.448 129.135 464.25 129.562 465.25 129.562C466.25 129.562 467.042 129.135 467.625 128.281C468.208 127.427 468.5 126.307 468.5 124.922C468.5 123.536 468.208 122.417 467.625 121.562C467.042 120.708 466.25 120.281 465.25 120.281C464.25 120.281 463.448 120.708 462.844 121.562C462.25 122.417 461.953 123.536 461.953 124.922C461.953 126.307 462.25 127.427 462.844 128.281Z" fill="#BBFBDB"/>
</g>
<g filter="url(#filter7_b_70_1405)">
<rect x="384" y="265" width="113" height="65" rx="10" fill="#8D6136" fill-opacity="0.5"/>
<path d="M411.422 287.578L416.453 285.281H418.562V308H415.328V288.734L411.422 290.5V287.578ZM434.391 293.625C436.422 293.625 438.042 294.224 439.25 295.422C440.469 296.609 441.078 298.318 441.078 300.547C441.078 302.995 440.297 304.932 438.734 306.359C437.182 307.776 435.146 308.484 432.625 308.484C431.802 308.484 431 308.411 430.219 308.266C429.448 308.12 428.812 307.964 428.312 307.797C427.812 307.62 427.281 307.37 426.719 307.047C426.156 306.724 425.771 306.49 425.562 306.344C425.354 306.188 425.052 305.958 424.656 305.656L426.062 303.141C426.49 303.464 426.87 303.734 427.203 303.953C427.536 304.172 428 304.438 428.594 304.75C429.188 305.062 429.823 305.307 430.5 305.484C431.188 305.651 431.885 305.734 432.594 305.734C434.167 305.734 435.401 305.297 436.297 304.422C437.203 303.536 437.656 302.318 437.656 300.766C437.656 299.307 437.266 298.188 436.484 297.406C435.714 296.615 434.672 296.219 433.359 296.219C432.797 296.219 432.255 296.286 431.734 296.422C431.214 296.547 430.786 296.688 430.453 296.844C430.12 297 429.766 297.224 429.391 297.516C429.026 297.807 428.771 298.026 428.625 298.172C428.479 298.318 428.276 298.531 428.016 298.812L426.094 297.922L427.516 285.281H439.609V288.062H429.906L429.047 295.578C430.495 294.276 432.276 293.625 434.391 293.625ZM447.906 308L464.25 284.797H466.562L450.203 308H447.906ZM449.188 297.703C447.542 297.703 446.198 297.109 445.156 295.922C444.125 294.734 443.609 293.214 443.609 291.359C443.609 289.516 444.125 288 445.156 286.812C446.198 285.625 447.531 285.031 449.156 285.031C450.802 285.031 452.141 285.625 453.172 286.812C454.203 287.99 454.719 289.505 454.719 291.359C454.719 293.214 454.203 294.734 453.172 295.922C452.141 297.109 450.812 297.703 449.188 297.703ZM446.766 294.719C447.359 295.573 448.156 296 449.156 296C450.156 296 450.953 295.573 451.547 294.719C452.151 293.865 452.453 292.745 452.453 291.359C452.453 289.974 452.151 288.854 451.547 288C450.953 287.146 450.156 286.719 449.156 286.719C448.156 286.719 447.359 287.146 446.766 288C446.182 288.854 445.891 289.974 445.891 291.359C445.891 292.745 446.182 293.865 446.766 294.719ZM469.078 306.484C468.047 307.661 466.719 308.25 465.094 308.25C463.469 308.25 462.135 307.656 461.094 306.469C460.062 305.281 459.547 303.766 459.547 301.922C459.547 300.068 460.062 298.547 461.094 297.359C462.135 296.172 463.469 295.578 465.094 295.578C466.719 295.578 468.047 296.172 469.078 297.359C470.109 298.547 470.625 300.068 470.625 301.922C470.625 303.776 470.109 305.297 469.078 306.484ZM462.688 305.281C463.292 306.135 464.094 306.562 465.094 306.562C466.094 306.562 466.885 306.135 467.469 305.281C468.052 304.427 468.344 303.307 468.344 301.922C468.344 300.536 468.052 299.417 467.469 298.562C466.885 297.708 466.094 297.281 465.094 297.281C464.094 297.281 463.292 297.708 462.688 298.562C462.094 299.417 461.797 300.536 461.797 301.922C461.797 303.307 462.094 304.427 462.688 305.281Z" fill="#BBFBDB"/>
</g>
<g filter="url(#filter8_b_70_1405)">
<rect y="330" width="113" height="65" rx="10" fill="#8D6136" fill-opacity="0.5"/>
<path d="M27.4219 352.578L32.4531 350.281H34.5625V373H31.3281V353.734L27.4219 355.5V352.578ZM50.3906 358.625C52.4219 358.625 54.0417 359.224 55.25 360.422C56.4688 361.609 57.0781 363.318 57.0781 365.547C57.0781 367.995 56.2969 369.932 54.7344 371.359C53.1823 372.776 51.1458 373.484 48.625 373.484C47.8021 373.484 47 373.411 46.2188 373.266C45.4479 373.12 44.8125 372.964 44.3125 372.797C43.8125 372.62 43.2812 372.37 42.7188 372.047C42.1562 371.724 41.7708 371.49 41.5625 371.344C41.3542 371.188 41.0521 370.958 40.6562 370.656L42.0625 368.141C42.4896 368.464 42.8698 368.734 43.2031 368.953C43.5365 369.172 44 369.438 44.5938 369.75C45.1875 370.062 45.8229 370.307 46.5 370.484C47.1875 370.651 47.8854 370.734 48.5938 370.734C50.1667 370.734 51.401 370.297 52.2969 369.422C53.2031 368.536 53.6562 367.318 53.6562 365.766C53.6562 364.307 53.2656 363.188 52.4844 362.406C51.7135 361.615 50.6719 361.219 49.3594 361.219C48.7969 361.219 48.2552 361.286 47.7344 361.422C47.2135 361.547 46.7865 361.688 46.4531 361.844C46.1198 362 45.7656 362.224 45.3906 362.516C45.026 362.807 44.7708 363.026 44.625 363.172C44.4792 363.318 44.276 363.531 44.0156 363.812L42.0938 362.922L43.5156 350.281H55.6094V353.062H45.9062L45.0469 360.578C46.4948 359.276 48.276 358.625 50.3906 358.625ZM63.9062 373L80.25 349.797H82.5625L66.2031 373H63.9062ZM65.1875 362.703C63.5417 362.703 62.1979 362.109 61.1562 360.922C60.125 359.734 59.6094 358.214 59.6094 356.359C59.6094 354.516 60.125 353 61.1562 351.812C62.1979 350.625 63.5312 350.031 65.1562 350.031C66.8021 350.031 68.1406 350.625 69.1719 351.812C70.2031 352.99 70.7188 354.505 70.7188 356.359C70.7188 358.214 70.2031 359.734 69.1719 360.922C68.1406 362.109 66.8125 362.703 65.1875 362.703ZM62.7656 359.719C63.3594 360.573 64.1562 361 65.1562 361C66.1562 361 66.9531 360.573 67.5469 359.719C68.151 358.865 68.4531 357.745 68.4531 356.359C68.4531 354.974 68.151 353.854 67.5469 353C66.9531 352.146 66.1562 351.719 65.1562 351.719C64.1562 351.719 63.3594 352.146 62.7656 353C62.1823 353.854 61.8906 354.974 61.8906 356.359C61.8906 357.745 62.1823 358.865 62.7656 359.719ZM85.0781 371.484C84.0469 372.661 82.7188 373.25 81.0938 373.25C79.4688 373.25 78.1354 372.656 77.0938 371.469C76.0625 370.281 75.5469 368.766 75.5469 366.922C75.5469 365.068 76.0625 363.547 77.0938 362.359C78.1354 361.172 79.4688 360.578 81.0938 360.578C82.7188 360.578 84.0469 361.172 85.0781 362.359C86.1094 363.547 86.625 365.068 86.625 366.922C86.625 368.776 86.1094 370.297 85.0781 371.484ZM78.6875 370.281C79.2917 371.135 80.0938 371.562 81.0938 371.562C82.0938 371.562 82.8854 371.135 83.4688 370.281C84.0521 369.427 84.3438 368.307 84.3438 366.922C84.3438 365.536 84.0521 364.417 83.4688 363.562C82.8854 362.708 82.0938 362.281 81.0938 362.281C80.0938 362.281 79.2917 362.708 78.6875 363.562C78.0938 364.417 77.7969 365.536 77.7969 366.922C77.7969 368.307 78.0938 369.427 78.6875 370.281Z" fill="#BBFBDB"/>
</g>
<g filter="url(#filter9_b_70_1405)">
<rect x="185" y="409" width="113" height="65" rx="10" fill="#8D6136" fill-opacity="0.5"/>
<path d="M211.281 449.219H222.641V452H207.25V449.219C207.531 448.979 207.958 448.62 208.531 448.141C209.25 447.547 209.792 447.099 210.156 446.797C210.521 446.484 211.031 446.042 211.688 445.469C212.354 444.885 212.87 444.422 213.234 444.078C213.599 443.724 214.052 443.271 214.594 442.719C215.135 442.167 215.557 441.693 215.859 441.297C216.161 440.901 216.495 440.443 216.859 439.922C217.224 439.391 217.5 438.906 217.688 438.469C217.875 438.031 218.031 437.562 218.156 437.062C218.292 436.562 218.359 436.078 218.359 435.609C218.359 434.339 218.01 433.37 217.312 432.703C216.615 432.026 215.682 431.688 214.516 431.688C212.245 431.688 210.562 432.964 209.469 435.516L207 434.203C207.229 433.484 207.557 432.812 207.984 432.188C208.411 431.562 208.938 430.995 209.562 430.484C210.198 429.964 210.958 429.552 211.844 429.25C212.74 428.948 213.714 428.797 214.766 428.797C216.922 428.797 218.62 429.411 219.859 430.641C221.099 431.87 221.719 433.495 221.719 435.516C221.719 436.339 221.589 437.167 221.328 438C221.068 438.833 220.781 439.573 220.469 440.219C220.167 440.854 219.677 441.573 219 442.375C218.323 443.167 217.781 443.781 217.375 444.219C216.979 444.646 216.328 445.24 215.422 446C214.516 446.75 213.911 447.24 213.609 447.469C213.318 447.688 212.714 448.141 211.797 448.828C211.568 449.005 211.396 449.135 211.281 449.219ZM236.5 452.484C234.583 452.484 232.885 451.969 231.406 450.938C229.938 449.896 228.807 448.479 228.016 446.688C227.234 444.896 226.844 442.88 226.844 440.641C226.844 438.401 227.234 436.385 228.016 434.594C228.807 432.802 229.938 431.391 231.406 430.359C232.885 429.318 234.583 428.797 236.5 428.797C238.427 428.797 240.13 429.318 241.609 430.359C243.099 431.391 244.24 432.802 245.031 434.594C245.833 436.385 246.234 438.401 246.234 440.641C246.234 442.88 245.833 444.896 245.031 446.688C244.24 448.479 243.099 449.896 241.609 450.938C240.13 451.969 238.427 452.484 236.5 452.484ZM231.906 447.172C233.021 448.807 234.552 449.625 236.5 449.625C238.448 449.625 239.984 448.807 241.109 447.172C242.245 445.536 242.812 443.359 242.812 440.641C242.812 437.922 242.245 435.745 241.109 434.109C239.984 432.464 238.448 431.641 236.5 431.641C234.552 431.641 233.021 432.464 231.906 434.109C230.792 435.745 230.234 437.922 230.234 440.641C230.234 443.359 230.792 445.536 231.906 447.172ZM253.141 452L269.484 428.797H271.797L255.438 452H253.141ZM254.422 441.703C252.776 441.703 251.432 441.109 250.391 439.922C249.359 438.734 248.844 437.214 248.844 435.359C248.844 433.516 249.359 432 250.391 430.812C251.432 429.625 252.766 429.031 254.391 429.031C256.036 429.031 257.375 429.625 258.406 430.812C259.438 431.99 259.953 433.505 259.953 435.359C259.953 437.214 259.438 438.734 258.406 439.922C257.375 441.109 256.047 441.703 254.422 441.703ZM252 438.719C252.594 439.573 253.391 440 254.391 440C255.391 440 256.188 439.573 256.781 438.719C257.385 437.865 257.688 436.745 257.688 435.359C257.688 433.974 257.385 432.854 256.781 432C256.188 431.146 255.391 430.719 254.391 430.719C253.391 430.719 252.594 431.146 252 432C251.417 432.854 251.125 433.974 251.125 435.359C251.125 436.745 251.417 437.865 252 438.719ZM274.312 450.484C273.281 451.661 271.953 452.25 270.328 452.25C268.703 452.25 267.37 451.656 266.328 450.469C265.297 449.281 264.781 447.766 264.781 445.922C264.781 444.068 265.297 442.547 266.328 441.359C267.37 440.172 268.703 439.578 270.328 439.578C271.953 439.578 273.281 440.172 274.312 441.359C275.344 442.547 275.859 444.068 275.859 445.922C275.859 447.776 275.344 449.297 274.312 450.484ZM267.922 449.281C268.526 450.135 269.328 450.562 270.328 450.562C271.328 450.562 272.12 450.135 272.703 449.281C273.286 448.427 273.578 447.307 273.578 445.922C273.578 444.536 273.286 443.417 272.703 442.562C272.12 441.708 271.328 441.281 270.328 441.281C269.328 441.281 268.526 441.708 267.922 442.562C267.328 443.417 267.031 444.536 267.031 445.922C267.031 447.307 267.328 448.427 267.922 449.281Z" fill="#BBFBDB"/>
</g>
<mask id="path-16-inside-6_70_1405" fill="white">
<path d="M272 225.5C272 239.583 260.583 251 246.5 251C232.417 251 221 239.583 221 225.5C221 211.417 232.417 200 246.5 200C260.583 200 272 211.417 272 225.5ZM233.75 225.5C233.75 232.542 239.458 238.25 246.5 238.25C253.542 238.25 259.25 232.542 259.25 225.5C259.25 218.458 253.542 212.75 246.5 212.75C239.458 212.75 233.75 218.458 233.75 225.5Z"/>
</mask>
<path d="M272 225.5C272 239.583 260.583 251 246.5 251C232.417 251 221 239.583 221 225.5C221 211.417 232.417 200 246.5 200C260.583 200 272 211.417 272 225.5ZM233.75 225.5C233.75 232.542 239.458 238.25 246.5 238.25C253.542 238.25 259.25 232.542 259.25 225.5C259.25 218.458 253.542 212.75 246.5 212.75C239.458 212.75 233.75 218.458 233.75 225.5Z" fill="url(#paint0_linear_70_1405)" stroke="white" stroke-opacity="0.5" stroke-width="2" mask="url(#path-16-inside-6_70_1405)"/>
<defs>
<filter id="filter0_b_70_1405" x="17.1826" y="-2.26416" width="331.461" height="338.103" filterUnits="userSpaceOnUse" color-interpolation-filters="sRGB">
<feFlood flood-opacity="0" result="BackgroundImageFix"/>
<feGaussianBlur in="BackgroundImageFix" stdDeviation="10"/>
<feComposite in2="SourceAlpha" operator="in" result="effect1_backgroundBlur_70_1405"/>
<feBlend mode="normal" in="SourceGraphic" in2="effect1_backgroundBlur_70_1405" result="shape"/>
</filter>
<filter id="filter1_b_70_1405" x="278.854" y="43.2631" width="208.663" height="173.829" filterUnits="userSpaceOnUse" color-interpolation-filters="sRGB">
<feFlood flood-opacity="0" result="BackgroundImageFix"/>
<feGaussianBlur in="BackgroundImageFix" stdDeviation="10"/>
<feComposite in2="SourceAlpha" operator="in" result="effect1_backgroundBlur_70_1405"/>
<feBlend mode="normal" in="SourceGraphic" in2="effect1_backgroundBlur_70_1405" result="shape"/>
</filter>
<filter id="filter2_b_70_1405" x="181.938" y="250.803" width="263.972" height="217.197" filterUnits="userSpaceOnUse" color-interpolation-filters="sRGB">
<feFlood flood-opacity="0" result="BackgroundImageFix"/>
<feGaussianBlur in="BackgroundImageFix" stdDeviation="10"/>
<feComposite in2="SourceAlpha" operator="in" result="effect1_backgroundBlur_70_1405"/>
<feBlend mode="normal" in="SourceGraphic" in2="effect1_backgroundBlur_70_1405" result="shape"/>
</filter>
<filter id="filter3_b_70_1405" x="-0.425781" y="236.293" width="218.592" height="216.655" filterUnits="userSpaceOnUse" color-interpolation-filters="sRGB">
<feFlood flood-opacity="0" result="BackgroundImageFix"/>
<feGaussianBlur in="BackgroundImageFix" stdDeviation="10"/>
<feComposite in2="SourceAlpha" operator="in" result="effect1_backgroundBlur_70_1405"/>
<feBlend mode="normal" in="SourceGraphic" in2="effect1_backgroundBlur_70_1405" result="shape"/>
</filter>
<filter id="filter4_b_70_1405" x="255.565" y="212.674" width="219.269" height="209.462" filterUnits="userSpaceOnUse" color-interpolation-filters="sRGB">
<feFlood flood-opacity="0" result="BackgroundImageFix"/>
<feGaussianBlur in="BackgroundImageFix" stdDeviation="10"/>
<feComposite in2="SourceAlpha" operator="in" result="effect1_backgroundBlur_70_1405"/>
<feBlend mode="normal" in="SourceGraphic" in2="effect1_backgroundBlur_70_1405" result="shape"/>
</filter>
<filter id="filter5_b_70_1405" x="19" y="41" width="143" height="95" filterUnits="userSpaceOnUse" color-interpolation-filters="sRGB">
<feFlood flood-opacity="0" result="BackgroundImageFix"/>
<feGaussianBlur in="BackgroundImageFix" stdDeviation="7.5"/>
<feComposite in2="SourceAlpha" operator="in" result="effect1_backgroundBlur_70_1405"/>
<feBlend mode="normal" in="SourceGraphic" in2="effect1_backgroundBlur_70_1405" result="shape"/>
</filter>
<filter id="filter6_b_70_1405" x="368" y="73" width="143" height="95" filterUnits="userSpaceOnUse" color-interpolation-filters="sRGB">
<feFlood flood-opacity="0" result="BackgroundImageFix"/>
<feGaussianBlur in="BackgroundImageFix" stdDeviation="7.5"/>
<feComposite in2="SourceAlpha" operator="in" result="effect1_backgroundBlur_70_1405"/>
<feBlend mode="normal" in="SourceGraphic" in2="effect1_backgroundBlur_70_1405" result="shape"/>
</filter>
<filter id="filter7_b_70_1405" x="369" y="250" width="143" height="95" filterUnits="userSpaceOnUse" color-interpolation-filters="sRGB">
<feFlood flood-opacity="0" result="BackgroundImageFix"/>
<feGaussianBlur in="BackgroundImageFix" stdDeviation="7.5"/>
<feComposite in2="SourceAlpha" operator="in" result="effect1_backgroundBlur_70_1405"/>
<feBlend mode="normal" in="SourceGraphic" in2="effect1_backgroundBlur_70_1405" result="shape"/>
</filter>
<filter id="filter8_b_70_1405" x="-15" y="315" width="143" height="95" filterUnits="userSpaceOnUse" color-interpolation-filters="sRGB">
<feFlood flood-opacity="0" result="BackgroundImageFix"/>
<feGaussianBlur in="BackgroundImageFix" stdDeviation="7.5"/>
<feComposite in2="SourceAlpha" operator="in" result="effect1_backgroundBlur_70_1405"/>
<feBlend mode="normal" in="SourceGraphic" in2="effect1_backgroundBlur_70_1405" result="shape"/>
</filter>
<filter id="filter9_b_70_1405" x="170" y="394" width="143" height="95" filterUnits="userSpaceOnUse" color-interpolation-filters="sRGB">
<feFlood flood-opacity="0" result="BackgroundImageFix"/>
<feGaussianBlur in="BackgroundImageFix" stdDeviation="7.5"/>
<feComposite in2="SourceAlpha" operator="in" result="effect1_backgroundBlur_70_1405"/>
<feBlend mode="normal" in="SourceGraphic" in2="effect1_backgroundBlur_70_1405" result="shape"/>
</filter>
<linearGradient id="paint0_linear_70_1405" x1="246.5" y1="200" x2="246.5" y2="251" gradientUnits="userSpaceOnUse">
<stop stop-color="#00FFA3"/>
<stop offset="1" stop-color="#76BCFF"/>
</linearGradient>
</defs>
</svg>
