<svg width="367" height="367" viewBox="0 0 367 367" fill="none" xmlns="http://www.w3.org/2000/svg">
<g clip-path="url(#clip0_70_1165)">
<g filter="url(#filter0_d_70_1165)">
<path d="M321.675 188.95C323.938 198.653 333.123 206.097 344.038 206.097C356.684 206.097 367 195.795 367 183.168C367 170.54 356.684 160.238 344.038 160.238C333.123 160.238 324.537 167.682 321.675 177.386H295.85C295.251 169.942 294.12 162.498 292.389 155.054H325.069C328.53 155.054 330.793 152.795 330.793 149.339V117.836C340.51 115.576 347.965 106.405 347.965 95.5051C347.965 82.8774 337.648 72.5759 325.002 72.5759C312.356 72.5759 302.173 83.0103 302.173 95.638C302.173 106.538 309.628 115.111 319.345 117.969V143.756H288.928C277.48 113.383 253.386 89.3906 222.969 77.8928V46.9882H248.794C251.057 56.6916 260.242 64.1353 271.157 64.1353C283.803 64.1353 294.12 53.8337 294.12 41.2061C294.12 28.5784 283.803 18.2769 271.157 18.2769C260.242 18.2769 251.656 25.7206 248.794 35.4239H217.245C213.784 35.4239 211.521 37.6836 211.521 41.1396V73.7722C204.067 72.0442 196.612 70.9143 189.158 70.3162V45.1273C198.875 42.8676 206.33 33.6959 206.33 22.7963C206.33 10.1686 196.013 -0.132935 183.367 -0.132935C170.721 -0.132935 160.405 10.1686 160.405 22.7963C160.405 33.6959 167.859 42.2695 177.577 45.1273V70.9143C170.122 71.5125 162.668 72.6423 155.213 74.3703V41.1396C155.213 37.6836 152.95 35.4239 149.489 35.4239H118.54C116.277 25.7206 107.092 18.2769 96.1766 18.2769C83.5306 18.2769 73.2141 28.5784 73.2141 41.2061C73.2141 53.8337 83.5306 64.1353 96.1766 64.1353C107.092 64.1353 115.678 56.6916 118.54 46.9882H143.765V77.3611C113.348 88.7924 88.7221 113.45 77.2741 143.756H45.8588V117.969C55.5763 115.709 63.0307 106.538 63.0307 95.638C63.0307 83.0103 52.7143 72.7088 40.0683 72.7088C27.4223 72.7088 17.1058 83.0103 17.1058 95.638C17.1058 106.538 24.5603 115.111 34.2777 117.969V149.472C34.2777 152.928 36.5407 155.187 40.0017 155.187H73.8131C72.0826 162.631 70.9511 169.477 70.3521 177.518H45.1267C42.8637 167.815 33.6787 160.371 22.7632 160.371C10.1172 160.371 -0.199219 170.673 -0.199219 183.301C-0.199219 195.928 10.1172 206.23 22.7632 206.23C33.6787 206.23 42.2647 198.786 45.1267 189.083H70.5518C71.1508 197.125 72.2823 204.568 74.0128 211.414H40.2014C36.7404 211.414 34.4774 213.673 34.4774 217.129V248.632C24.76 250.892 17.3055 260.064 17.3055 270.963C17.3055 283.591 27.622 293.892 40.268 293.892C52.9139 293.892 63.2304 283.591 63.2304 270.963C63.2304 260.064 55.7759 251.49 46.0585 248.632V222.845H77.6069C89.0549 253.218 113.149 277.809 144.098 289.24V320.743H118.873C116.61 311.039 107.425 303.596 96.5093 303.596C83.8633 303.596 73.5469 313.897 73.5469 326.525C73.5469 339.153 83.8633 349.454 96.5093 349.454C107.425 349.454 116.011 342.01 118.873 332.307H149.822C153.283 332.307 155.546 330.047 155.546 326.591V292.829C163.001 294.557 169.856 295.687 177.91 296.285V322.072C168.192 324.332 160.738 333.503 160.738 344.403C160.738 357.031 171.054 367.332 183.7 367.332C196.346 367.332 206.663 357.031 206.663 344.403C206.663 333.503 199.208 324.93 189.491 322.072V296.285C197.544 295.687 204.999 294.557 211.854 292.829V326.591C211.854 330.047 214.117 332.307 217.578 332.307H249.126C251.389 342.01 260.574 349.454 271.49 349.454C284.136 349.454 294.452 339.153 294.452 326.525C294.452 313.897 284.136 303.596 271.49 303.596C260.574 303.596 251.988 311.039 249.126 320.743H223.302V288.708C253.719 277.277 277.746 253.218 289.261 222.845H319.678V248.632C309.96 250.892 302.506 260.064 302.506 270.963C302.506 283.591 312.822 293.892 325.468 293.892C338.114 293.892 348.431 283.591 348.431 270.963C348.431 260.064 340.976 251.49 331.259 248.632V217.129C331.259 213.673 328.996 211.414 325.535 211.414H292.855C294.586 203.97 295.717 196.526 296.316 189.083L321.675 188.95ZM314.22 96.1697C314.22 89.8558 319.412 84.7383 325.668 84.7383C331.991 84.7383 337.116 89.9223 337.116 96.1697C337.116 102.417 331.924 107.601 325.668 107.601C319.412 107.667 314.22 102.484 314.22 96.1697ZM270.625 29.7747C276.948 29.7747 282.073 34.9587 282.073 41.2061C282.073 47.5199 276.881 52.6374 270.625 52.6374C264.368 52.6374 259.177 47.4534 259.177 41.2061C259.177 34.9587 264.368 29.7747 270.625 29.7747ZM96.3097 52.7039C89.9867 52.7039 84.8617 47.5199 84.8617 41.2725C84.8617 34.9587 90.0532 29.8412 96.3097 29.8412C102.566 29.8412 107.824 34.9587 107.824 41.2061C107.824 47.5199 102.633 52.7039 96.3097 52.7039ZM28.6869 96.1697C28.6869 89.8558 33.8784 84.7383 40.1348 84.7383C46.4578 84.7383 51.5828 89.9223 51.5828 96.1697C51.5828 102.417 46.4578 107.667 40.1348 107.667C33.8118 107.667 28.6869 102.484 28.6869 96.1697ZM51.5828 270.232C51.5828 276.546 46.3913 281.664 40.1348 281.664C33.8118 281.664 28.6869 276.48 28.6869 270.232C28.6869 263.985 33.8784 258.801 40.1348 258.801C46.4578 258.801 51.5828 263.985 51.5828 270.232ZM96.3097 337.823C89.9867 337.823 84.8617 332.639 84.8617 326.392C84.8617 320.078 90.0532 314.961 96.3097 314.961C102.566 314.961 107.758 320.145 107.758 326.392C107.824 332.706 102.633 337.823 96.3097 337.823ZM270.625 314.894C276.948 314.894 282.073 320.078 282.073 326.326C282.073 332.639 276.881 337.757 270.625 337.757C264.368 337.757 259.177 332.573 259.177 326.326C259.177 320.078 264.368 314.894 270.625 314.894ZM337.183 270.232C337.183 276.546 331.991 281.664 325.735 281.664C319.412 281.664 314.287 276.48 314.287 270.232C314.287 263.985 319.478 258.801 325.735 258.801C331.991 258.801 337.183 263.985 337.183 270.232ZM344.038 171.803C350.361 171.803 355.486 176.987 355.486 183.234C355.486 189.482 350.294 194.666 344.038 194.666C337.715 194.666 332.59 189.482 332.59 183.234C332.59 176.987 337.782 171.803 344.038 171.803ZM172.053 22.9292C172.053 16.6153 177.244 11.4978 183.5 11.4978C189.757 11.4978 194.948 16.6818 194.948 22.9292C194.948 29.243 189.757 34.3605 183.5 34.3605C177.244 34.3605 172.053 29.1766 172.053 22.9292ZM22.9629 194.666C16.6399 194.666 11.515 189.482 11.515 183.234C11.515 176.987 16.7065 171.803 22.9629 171.803C29.2859 171.803 34.4109 176.987 34.4109 183.234C34.4109 189.482 29.2194 194.666 22.9629 194.666ZM194.948 343.539C194.948 349.853 189.757 354.97 183.5 354.97C177.244 354.97 172.053 349.786 172.053 343.539C172.053 337.225 177.244 332.108 183.5 332.108C189.757 332.108 194.948 337.225 194.948 343.539ZM183.5 284.588C127.326 284.588 81.9997 238.796 81.9997 182.636C81.9997 128.271 126.727 81.2823 183.5 81.2823C240.274 81.2823 285.001 127.672 285.001 182.636C285.001 239.328 239.143 284.588 183.5 284.588Z" fill="url(#paint0_linear_70_1165)"/>
</g>
<circle cx="182.83" cy="184.83" r="102.83" fill="#EAFDF4"/>
<g filter="url(#filter1_d_70_1165)">
<path d="M178.172 170.723C180.375 171.244 180.92 172.023 182.661 172.241C184.511 172.208 184.245 171.833 187.473 170.721C187.684 170.647 187.976 170.18 187.614 169.822C185.61 167.837 184.225 169.256 182.968 169.293C181.302 169.311 179.738 167.869 178.11 169.744C177.832 170.124 177.688 170.498 178.172 170.723Z" fill="url(#paint1_linear_70_1165)"/>
</g>
<g filter="url(#filter2_d_70_1165)">
<path d="M182.782 116.516C186.444 118.624 190.329 121.337 193.286 124.213L192.124 125.378C186.289 124.759 180.142 125.532 174.61 125.617C173.993 124.996 172.75 124.061 173.908 123.28L182.782 116.516ZM285.969 188.913C286.046 191.544 286.294 193.803 285.266 196.495C274.605 199.524 267.602 188.25 257.257 189.951L258.427 195.794C267.997 196.108 273.975 205.274 283.862 204.88C282.457 207.682 284.489 215.063 278.265 212.113C271.806 210.562 267.135 204.88 260.057 204.88C259.203 206.446 259.743 208.614 259.594 210.467C267.061 211.637 272.432 217.94 279.897 219.104C279.195 221.666 278.499 224.535 276.396 226.098C270.323 224.622 265.579 219.174 259.113 219.33L257.962 224.696C264.107 224.854 268.077 230.283 273.599 231.913C273.751 234.176 271.725 236.198 270.559 238.219C265.656 236.748 261.917 232.542 256.316 232.852C256.238 230.745 257.491 228.351 257.018 226.098C250.727 227.967 246.509 222.129 241.846 218.627C241.712 207.167 229.632 199.649 228.994 188.913C228.871 186.773 229.198 184.488 230.174 182.032C234.145 172.864 232.898 160.961 228.544 152.414C227.221 150.164 224.877 148.389 222.693 147.066C225.889 153.83 229.783 161.823 227.84 170.137C227.614 176.558 223.821 182.724 223.778 188.913C223.763 191.12 224.235 193.327 225.505 195.555C230.567 204.659 239.673 213.276 236.249 224.694C235.307 228.201 232.504 230.912 231.804 234.481C237.725 239.379 243.324 244.898 251.18 245.209C253.98 243.423 252.425 235.505 258.184 239.157L266.592 243.357C265.979 245.605 264.095 247.62 262.388 249.168C259.198 247.617 256.086 245.758 252.108 245.91C250.935 247.153 249.926 248.548 250.015 250.331C252.814 250.792 255.382 251.971 257.72 253.606C256.635 255.941 254.519 257.405 252.574 259.193L246.051 256.864C244.962 258.421 242.7 260.056 243.494 261.764C244.966 262.393 246.598 263.244 247.682 264.335C244.803 267.443 241.153 269.442 237.642 271.552C234.618 261.679 224.652 254.757 225.508 243.339L225.045 242.877C222.702 245.508 223.485 249.714 223.636 253.127C226.439 260.278 233.126 265.802 234.141 273.644C232.97 275.662 230.33 276.064 228.305 276.919C228.54 262.78 207.065 252.056 220.836 237.754C225.429 230.751 233.124 224.068 230.398 214.426C227.598 205.117 217.697 199.349 217.785 188.913L217.8 188.099C220.055 177.216 226.906 165.636 221.302 154.059C219.74 149.402 216.25 144.111 211.503 142.164C218.58 150.254 221.386 163.452 217.337 174.338C215.297 178.667 212.488 183.825 212.206 188.915H212.189C212.038 191.573 212.582 194.217 214.299 196.723C219.673 205.43 229.005 214.994 223.636 226.341C217.568 235.429 206.985 244.674 212.895 256.645C217.175 263.794 223.795 270.928 222.009 279.716L215.006 282.045C219.675 265.653 196.795 256.021 206.373 239.623C212.286 230.842 222.862 222.603 216.875 210.949C213.296 203.728 205.901 199.454 206.134 190.43L206.389 188.915C208.799 176.116 218.54 164.002 211.729 150.325C209.939 146.287 206.362 142.169 202.391 139.836L202.151 140.076C210.093 147.769 212.509 160.427 208.227 170.602C206.229 176.572 201.845 182.519 200.954 188.917C200.53 191.933 200.887 195.059 202.633 198.352C207.69 206.35 216.559 214.834 211.024 225.174C205.196 233.715 195.467 242.025 199.353 253.132C203.634 262.849 212.572 272.105 207.746 284.154L200.52 285.784C206.276 274.042 197.645 262.391 192.589 252.207C186.438 237.596 205.803 230.6 206.114 217.242C206.041 208.62 196.863 203.725 194.923 195.799C190.951 192.452 186.834 197.13 182.085 196.261C178.579 196.965 173.195 191.442 171.102 197.429C168.61 206.205 157.256 212.658 162.246 223.068C166.994 232.319 178.42 239.084 174.603 251.056C171.186 262.239 159.896 272.886 166.898 285.784C164.022 284.854 158.65 286.635 158.728 282.046C154.295 266.427 173.2 257.327 167.361 241.716C164.643 232.154 152.262 226.872 154.988 215.371C157.003 205.904 167.64 199.286 166.148 188.916C166.027 188.048 165.813 187.159 165.507 186.233C161.537 175.042 153.437 163.849 158.265 150.789C159.59 147.058 162.238 143.873 164.564 140.539C156.86 144.656 152.974 153.362 153.134 162.219C152.798 171.851 159.922 180.102 160.936 188.916C161.334 192.473 160.751 196.115 158.265 199.979C153.211 206.828 146.602 214.049 149.632 223.067C152.513 232.163 163.873 237.673 163.172 248.246C163.096 260.752 148.544 268.539 152.668 282.526L145.426 280.18C142.551 267.751 155.776 261.392 155.928 249.892C157.8 236.667 140.911 231.76 141.925 218.869C141.852 209.074 150.485 202.871 154.298 194.632C154.952 192.627 155.169 190.733 155.082 188.917C154.614 179.807 146.396 172.685 147.76 162.444C148.218 154.906 150.786 148.299 155.69 142.63C148.924 145.345 146.129 153.123 144.26 159.652C141.017 170.121 148.759 179.538 149.536 188.917C149.88 193.059 148.866 197.177 144.964 201.387C139.358 207.985 133.674 216.309 137.721 225.176C142.006 234.959 155.471 242.574 149.631 254.777C146.445 262.472 138.815 268.296 139.129 277.385C137.107 276.53 135.01 275.678 133.292 274.128C133.292 262.551 149.782 255.32 141.925 243.12C141.229 245.527 141.08 248.799 140.535 251.518C137.808 258.593 131.975 264.256 129.791 271.57C126.141 270.163 122.324 267.207 119.287 264.099L123.493 261.528C123.026 259.971 121.783 258.652 120.696 257.331C117.965 256.947 116.171 258.737 113.92 259.438C111.974 257.725 110.097 256.17 108.546 254.073C109.942 250.101 120.851 253.385 115.325 246.856C111.594 244.526 107.849 247.854 104.582 249.408L100.153 243.821C103.965 241.491 107.769 238.22 112.511 239.158C113.68 241.26 113.761 244.351 116.013 245.449C124.028 245.293 129.708 239.238 135.853 234.496C131.57 228.131 128.084 219.345 131.888 211.648C134.937 203.935 142.879 197.439 143.24 188.912C143.321 186.972 143.018 184.93 142.168 182.732C137.968 171.929 136.486 157.328 144.502 147.766C140.144 148.936 137.574 154.361 136.093 158.48C131.274 169.029 137.369 178.802 137.579 188.912C137.608 190.73 137.461 192.553 137.019 194.389C132.894 202.703 126.209 209.998 125.124 219.566C120.376 222.59 116.478 227.88 109.712 226.095C109.475 227.881 110.019 230.602 110.64 232.625C105.275 232.4 101.617 236.349 97.0994 238.214C94.6932 237.443 94.0672 234.336 93.1355 232.162C98.4228 230.379 102.237 225.085 108.308 225.169C109.011 223.216 107.913 221.427 107.603 219.564C100.052 216.217 88.0818 236.112 87.0752 218.863C94.6212 218.396 99.4434 211.401 106.917 210.704L107.14 205.116C98.6585 204.261 93.2026 212.968 84.725 212.11L82.8553 204.654C92.6619 205.266 98.5047 196.489 107.844 196.017C109.085 194.387 109.235 191.978 109.474 189.726C99.2797 188.4 92.2842 199.682 81.4648 196.256C81.4648 196.256 81.0919 191.56 80.8898 188.912H80.9045C80.831 187.877 80.7611 187.156 80.7611 187.156C90.4089 190.894 98.8859 183.974 107.14 180.401C109.239 179.774 112.512 180.861 113.454 178.532C113.372 176.745 116.636 174.655 113.919 173.407C101.852 171.772 93.8364 186.307 81.4634 179.698L80.5352 177.829C83.1092 142.709 102.942 108.754 135.853 92.0449C149.182 84.4375 165.742 80.5598 182.442 80.4222C202.596 80.2552 222.96 85.535 238.109 96.2447C252.821 105.257 266.893 120.109 274.53 135.186C281.833 148.396 285.195 163.219 286.199 179C273.435 188.632 264.872 169.925 251.874 174.112C252.574 176.136 252.962 178.231 254.448 179.94C265.967 179.859 273.9 191.905 285.958 187.158L285.969 188.913ZM139.35 145.659C131.257 140.373 120.996 145.35 113.452 148.229C112.752 141.154 109.875 134.709 103.877 130.046C103.295 129.757 102.49 129.149 101.766 129.104C101.332 129.077 100.919 129.251 100.599 129.805C103.318 146.51 92.4444 158.166 84.739 170.838C87.3047 172.933 91.4267 172.62 94.5386 172.004C102.707 168.742 110.488 163.064 120.214 165.01C123.09 160.115 127.923 155.373 131.886 151.487C134.307 149.395 137.633 148.067 139.35 145.659ZM164.099 156.15C163.944 157.156 164.177 158.949 165.73 158.257C168.146 154.915 172.423 157.559 175.067 157.794V156.854C173.616 154.579 170.632 153.436 167.601 153.55C166.901 153.574 166.191 153.676 165.507 153.835C164.492 154.06 163.787 154.987 164.099 156.15ZM202.148 146.139C199.975 141.32 194.995 139.369 190.476 138.204C188.261 137.932 185.961 137.747 183.681 137.726C183.254 137.721 182.827 137.716 182.402 137.726C176.023 137.854 169.929 139.49 166.205 144.733C165.671 146.213 163.321 148.292 165.503 149.619C170.406 149.306 176 148.692 179.268 152.894C179.268 156.627 181.682 161.595 177.638 163.383C174.286 160.284 170.318 164.701 166.671 162.215C164.957 161.203 163.872 162.384 163.17 163.86C162.156 173.494 167.207 184.126 176.232 189.486C179.889 190.803 184.806 192.057 188.623 190.187C197.804 185.918 201.607 176.132 203.317 167.116C203.087 165.401 203.169 162.057 200.759 161.976C198.037 163.696 194.068 162.68 191.183 161.976C189.478 162.526 189.399 165.018 187.458 165.49L186.275 164.548C185.263 160.28 184.638 154.217 188.61 151.264C193.049 149.476 198.262 148.695 202.853 150.098C203.71 148.623 202.387 147.461 202.148 146.139ZM197.464 153.802C197.155 153.809 196.855 153.825 196.551 153.835C194.921 154.921 190.169 154.14 191.885 157.794C194.843 155.457 198.967 157.095 201.924 158.257C203.017 157.714 202.78 156.626 202.852 155.688C201.903 153.924 199.635 153.758 197.464 153.802ZM231.342 120.945C225.582 120.64 220.76 123.905 215.467 125.383C215.006 120.885 218.428 116.136 219.208 111.621C210.651 112.171 203.874 117.314 196.796 121.423C195.157 117.47 193.514 113.497 191.887 109.529L201.225 100.667L201.464 99.5L188.852 98.7987C186.679 94.9971 185.823 90.418 183.255 86.9209C181.154 90.8839 179.742 95.0781 177.643 99.0376L165.046 99.741V100.667L174.607 109.289C173.438 113.721 172.352 118.536 169.475 121.886C163.873 118.535 158.351 114.887 152.209 112.56C150.731 112.084 148.624 111.309 147.301 112.322C149.244 116.597 151.964 121.195 151.507 125.862C148.937 125.39 146.918 123.745 144.504 123.053C141.617 122.266 138.192 120.729 135.391 121.664C140.061 128.188 143.873 135.016 145.191 142.867C160.682 135.4 178.748 131.293 197.501 134.484C206.292 135.881 214.375 139.457 222.235 142.403C222.542 134.171 227.755 127.555 231.342 120.945ZM257.944 165.712C265.875 167.809 273.831 176.438 282.229 170.839C274.915 158.718 264.029 147.525 267.056 131.675C267.373 130.593 266.673 129.497 265.666 129.344C260.921 131.28 257.247 135.948 255.37 140.537C254.597 143.251 254.14 146.136 253.052 148.695C247.368 145.74 241.303 142.878 234.378 143.57C231.881 143.881 228.301 144.044 227.84 146.604C235.699 150.799 242.161 157.798 246.977 165.252C250.331 164.706 254.443 165.172 257.944 165.712ZM174.843 176.667L175.066 178.071C178.107 180.094 179.042 183.523 183.252 183.211C186.985 183.433 189.785 179.94 191.645 177.144C186.594 176.448 180.447 177.526 174.843 176.667ZM179.046 170.376C179.198 170.998 178.661 171.931 179.509 172.245C182 171.705 186.51 173.568 187.901 170.616C186.93 169.529 185.345 169.036 183.682 169.036C182.019 169.036 180.294 169.52 179.046 170.376Z" fill="url(#paint2_linear_70_1165)"/>
</g>
</g>
<defs>
<filter id="filter0_d_70_1165" x="-4.19922" y="-0.132935" width="375.199" height="375.465" filterUnits="userSpaceOnUse" color-interpolation-filters="sRGB">
<feFlood flood-opacity="0" result="BackgroundImageFix"/>
<feColorMatrix in="SourceAlpha" type="matrix" values="0 0 0 0 0 0 0 0 0 0 0 0 0 0 0 0 0 0 127 0" result="hardAlpha"/>
<feOffset dy="4"/>
<feGaussianBlur stdDeviation="2"/>
<feComposite in2="hardAlpha" operator="out"/>
<feColorMatrix type="matrix" values="0 0 0 0 0 0 0 0 0 0 0 0 0 0 0 0 0 0 0.25 0"/>
<feBlend mode="normal" in2="BackgroundImageFix" result="effect1_dropShadow_70_1165"/>
<feBlend mode="normal" in="SourceGraphic" in2="effect1_dropShadow_70_1165" result="shape"/>
</filter>
<filter id="filter1_d_70_1165" x="173.854" y="168.767" width="17.9307" height="11.4734" filterUnits="userSpaceOnUse" color-interpolation-filters="sRGB">
<feFlood flood-opacity="0" result="BackgroundImageFix"/>
<feColorMatrix in="SourceAlpha" type="matrix" values="0 0 0 0 0 0 0 0 0 0 0 0 0 0 0 0 0 0 127 0" result="hardAlpha"/>
<feOffset dy="4"/>
<feGaussianBlur stdDeviation="2"/>
<feComposite in2="hardAlpha" operator="out"/>
<feColorMatrix type="matrix" values="0 0 0 0 0 0 0 0 0 0 0 0 0 0 0 0 0 0 0.25 0"/>
<feBlend mode="normal" in2="BackgroundImageFix" result="effect1_dropShadow_70_1165"/>
<feBlend mode="normal" in="SourceGraphic" in2="effect1_dropShadow_70_1165" result="shape"/>
</filter>
<filter id="filter2_d_70_1165" x="76.5352" y="80.4183" width="213.664" height="213.366" filterUnits="userSpaceOnUse" color-interpolation-filters="sRGB">
<feFlood flood-opacity="0" result="BackgroundImageFix"/>
<feColorMatrix in="SourceAlpha" type="matrix" values="0 0 0 0 0 0 0 0 0 0 0 0 0 0 0 0 0 0 127 0" result="hardAlpha"/>
<feOffset dy="4"/>
<feGaussianBlur stdDeviation="2"/>
<feComposite in2="hardAlpha" operator="out"/>
<feColorMatrix type="matrix" values="0 0 0 0 0 0 0 0 0 0 0 0 0 0 0 0 0 0 0.25 0"/>
<feBlend mode="normal" in2="BackgroundImageFix" result="effect1_dropShadow_70_1165"/>
<feBlend mode="normal" in="SourceGraphic" in2="effect1_dropShadow_70_1165" result="shape"/>
</filter>
<linearGradient id="paint0_linear_70_1165" x1="183.401" y1="-0.132935" x2="183.401" y2="367.332" gradientUnits="userSpaceOnUse">
<stop stop-color="#2EF694"/>
<stop offset="1" stop-color="#046A38"/>
</linearGradient>
<linearGradient id="paint1_linear_70_1165" x1="182.82" y1="168.767" x2="182.82" y2="172.241" gradientUnits="userSpaceOnUse">
<stop stop-color="#2EF694"/>
<stop offset="1" stop-color="#046A38"/>
</linearGradient>
<linearGradient id="paint2_linear_70_1165" x1="183.367" y1="80.4183" x2="183.367" y2="285.784" gradientUnits="userSpaceOnUse">
<stop stop-color="#2EF694"/>
<stop offset="1" stop-color="#046A38"/>
</linearGradient>
<clipPath id="clip0_70_1165">
<rect width="367" height="367" fill="white"/>
</clipPath>
</defs>
</svg>
