<svg width="89" height="71" viewBox="0 0 89 71" fill="none" xmlns="http://www.w3.org/2000/svg">
<rect x="21.5026" y="24.1279" width="45.9342" height="45.9342" rx="22.9671" fill="#F79400"/>
<rect x="21.5026" y="24.1279" width="45.9342" height="45.9342" rx="22.9671" stroke="#CDCCCC"/>
<path fill-rule="evenodd" clip-rule="evenodd" d="M46.5326 45.8442C46.5326 47.1939 46.5648 48.319 45.8839 49.5181C45.334 50.4935 44.4589 51.0922 43.4868 51.0922C42.1585 51.0922 41.381 50.0805 41.381 48.5807C41.381 45.6311 44.0272 45.0948 46.5326 45.0948V45.8442ZM50.0248 54.2885C49.795 54.4939 49.4641 54.5082 49.2058 54.3689C48.0549 53.4131 47.849 52.971 47.2205 52.061C45.3197 53.9976 43.973 54.5784 41.5107 54.5784C38.5945 54.5784 36.3272 52.7793 36.3272 49.1806C36.3272 46.369 37.8495 44.4575 40.0202 43.5201C41.8993 42.6952 44.5241 42.5456 46.5326 42.3204V41.8705C46.5326 41.0463 46.5968 40.0711 46.1112 39.359C45.6898 38.7217 44.8799 38.4595 44.1676 38.4595C42.8467 38.4595 41.672 39.1362 41.3839 40.5389C41.3235 40.8514 41.0961 41.1598 40.7817 41.176L37.4252 40.8123C37.142 40.7487 36.8265 40.521 36.9086 40.0884C37.6796 36.016 41.3574 34.7855 44.6532 34.7855C46.338 34.7855 48.5411 35.2354 49.8694 36.5099C51.5542 38.0846 51.3923 40.1838 51.3923 42.4706V47.866C51.3923 49.4889 52.066 50.2013 52.6992 51.0767C52.9206 51.3909 52.9706 51.7658 52.6885 51.9955C51.9809 52.5889 50.7234 53.6809 50.0318 54.2963L50.0248 54.2885ZM54.7708 55.2485C51.5548 56.6126 48.0597 57.2719 44.8806 57.2719C40.1666 57.2719 35.6035 55.9793 31.9138 53.8315C31.5907 53.6434 31.3514 53.9749 31.6199 54.2177C35.0401 57.3064 39.5597 59.162 44.5789 59.162C48.1603 59.162 52.3189 58.0354 55.188 55.9186C55.6623 55.5675 55.2559 55.0426 54.7708 55.2485ZM55.6272 57.8266C55.5224 58.0884 55.7474 58.1943 55.9843 57.9956C57.5233 56.7077 57.9208 54.0106 57.6054 53.6209C57.293 53.2347 54.6024 52.9019 52.9598 54.0547C52.7075 54.2332 52.7516 54.4772 53.0313 54.4439C53.9561 54.3326 56.0146 54.0857 56.3818 54.5559C56.7484 55.0259 55.9736 56.9613 55.6272 57.8266Z" fill="black"/>
<g filter="url(#filter0_d_508_3715)">
<path d="M22.9947 55.2289L23.606 54.4472C26.9584 50.1446 31.129 44.7916 29.418 37.6186L27.7876 30.7841L26.5815 31.0719C22.2268 32.1106 18.4895 30.9928 17.8881 28.4717L15.4759 29.0471C16.0773 31.5682 13.247 34.2527 8.89229 35.2915L7.68618 35.5792L9.31651 42.4137C11.0276 49.5867 17.1656 52.4806 22.0974 54.8059L22.9947 55.2289Z" fill="#D84025"/>
</g>
<g filter="url(#filter1_d_508_3715)">
<path d="M8.89226 35.2914C13.247 34.2527 16.0773 31.5681 15.4759 29.047L16.682 28.7593L22.9958 55.2274L22.9946 55.2288L22.0973 54.8058C17.1655 52.4805 11.0276 49.5867 9.31648 42.4136L7.68615 35.5791L8.89226 35.2914Z" fill="#A13023"/>
</g>
<g clip-path="url(#clip0_508_3715)">
<g filter="url(#filter2_d_508_3715)">
<path fill-rule="evenodd" clip-rule="evenodd" d="M54.4434 22.5884C54.7526 23.8439 55.0605 25.0985 55.3671 26.352C52.5429 27.9683 48.9769 28.8708 44.4975 28.8724V23.6889L54.4434 22.5884Z" fill="#535353"/>
<path fill-rule="evenodd" clip-rule="evenodd" d="M34.5597 22.5884C34.2464 23.8439 33.9357 25.0985 33.6278 26.352C36.4581 27.9683 40.016 28.8708 44.4974 28.8724V23.6889L34.5597 22.5884Z" fill="#676767"/>
<path fill-rule="evenodd" clip-rule="evenodd" d="M42.2742 9.0759C35.8216 3.36948 48.0228 3.91021 51.4613 1.01904C51.704 1.26047 51.8479 1.55073 51.8751 1.85375C51.9023 2.15677 51.8116 2.45917 51.6143 2.72338C53.1407 3.67161 55.8242 2.37786 57.2792 4.1953C55.6304 4.12403 54.6264 4.61829 54.0142 5.27988C58.5363 4.75618 56.767 7.94329 60.632 8.12302C57.7526 9.34239 50.9899 7.00126 46.8086 9.8506C44.921 9.79792 44.1618 9.13323 42.2742 9.0759Z" fill="#A23023"/>
<path fill-rule="evenodd" clip-rule="evenodd" d="M60.63 8.0703C57.7798 9.32968 51.0666 6.93003 46.9158 9.85058C46.1435 9.81775 45.3835 9.6841 44.6673 9.45514C50.0962 4.6606 54.9134 8.91676 60.632 8.0703H60.63Z" fill="#1A1A1A"/>
<path fill-rule="evenodd" clip-rule="evenodd" d="M42.6511 8.5912C43.3962 8.64925 44.1271 8.78319 44.8232 8.98926L44.8724 9.00146C44.6293 8.72999 44.3902 8.45851 44.1552 8.18703C42.0199 6.37056 46.5139 4.22161 49.2393 3.78084C50.2209 4.41531 51.7332 4.11485 52.5078 4.5602C51.8398 5.1001 51.4258 6.0335 50.7557 6.57341C58.4075 5.79863 54.9218 7.64102 58.594 7.99791C58.3468 7.87292 58.1223 7.72478 57.9259 7.55714C56.6964 6.5124 56.8788 5.37158 54.1984 5.67661L52.7066 5.84591C52.9702 5.57341 53.236 5.30142 53.5037 5.02995C54.108 4.39937 55.0175 3.96796 56.0407 3.82659C55.8008 3.72215 55.5366 3.6523 55.2619 3.6207C55.0001 3.5912 54.7358 3.5754 54.471 3.57342C53.2783 3.55206 52.141 3.62222 51.1922 3.05181L50.8397 2.83676C50.9094 2.7422 50.9811 2.64917 51.0447 2.55613C51.2033 2.34732 51.2699 2.10676 51.2352 1.86829C50.0057 2.56223 48.3049 3.02893 46.8479 3.41632C45.6942 3.72136 44.4831 4.02639 43.3888 4.40615C42.6162 4.67763 41.7494 5.05435 41.3396 5.56985C40.5957 6.5307 41.7453 7.77981 42.6511 8.5912Z" fill="#EF4123"/>
<path fill-rule="evenodd" clip-rule="evenodd" d="M43.7259 8.71744C44.1136 8.79334 44.496 8.88402 44.8715 8.98912L44.9205 9.0014C44.6782 8.72818 44.4399 8.45496 44.2058 8.18175C42.078 6.35365 46.5562 4.19094 49.2721 3.74734C50.2502 4.38587 51.7572 4.08349 52.5291 4.53169C51.8634 5.07505 51.4509 6.01443 50.7832 6.55779C58.4081 5.77805 54.9346 7.63224 58.594 7.99142C56.6887 7.61843 56.7235 6.27076 55.6412 5.94689C54.5589 5.62302 53.1295 6.369 52.039 6.04513C52.1534 5.42041 52.67 4.91235 53.4215 4.13721C52.378 3.66292 49.7458 4.08656 50.2931 2.71741C47.9509 4.65909 40.4055 3.85479 43.2685 8.55013L43.7259 8.71744Z" fill="#D03927"/>
<path d="M44.4125 12.7378C46.3354 12.7378 47.8942 11.7113 47.8942 10.445C47.8942 9.17875 46.3354 8.15222 44.4125 8.15222C42.4897 8.15222 40.9309 9.17875 40.9309 10.445C40.9309 11.7113 42.4897 12.7378 44.4125 12.7378Z" fill="#CDCCCC"/>
<path fill-rule="evenodd" clip-rule="evenodd" d="M44.4279 10.5299C48.7929 10.5299 52.5226 12.2605 54.0145 14.7017C54.8158 14.959 55.3671 15.4889 55.3671 16.0954C55.363 16.297 55.3022 16.4957 55.1885 16.6786C55.0748 16.8615 54.9108 17.0244 54.7072 17.1567C54.6334 20.7266 50.0594 23.6074 44.4279 23.6074C38.7964 23.6074 34.2388 20.7328 34.1527 17.172C33.94 17.0392 33.7679 16.8738 33.648 16.687C33.5282 16.5002 33.4634 16.2964 33.458 16.0893C33.458 15.4767 34.0277 14.936 34.8474 14.6833C36.3455 12.2483 40.069 10.5299 44.4279 10.5299Z" fill="#8B8A8A"/>
<path fill-rule="evenodd" clip-rule="evenodd" d="M42.7991 20.2107C46.6371 20.2107 49.7624 18.2312 49.7624 15.7949C49.7624 13.3586 46.631 11.3792 42.7991 11.3792C38.9672 11.3792 35.8357 13.3586 35.8357 15.7949C35.8357 18.2312 38.959 20.2107 42.7991 20.2107Z" fill="#989898"/>
<path fill-rule="evenodd" clip-rule="evenodd" d="M40.6761 15.2854C42.127 15.2854 43.3086 14.5219 43.3086 13.587C43.3086 12.6522 42.127 11.8887 40.6761 11.8887C39.2253 11.8887 38.0436 12.6506 38.0436 13.587C38.0436 14.5235 39.2376 15.2854 40.6761 15.2854Z" fill="#ACACAC"/>
<path fill-rule="evenodd" clip-rule="evenodd" d="M44.4974 14.2665H44.3978C43.0093 14.2611 41.6312 14.4487 40.3309 14.82L32.7787 16.9646V23.3547C36.083 26.2792 39.9364 28.5695 44.4974 30.0613V14.2665Z" fill="#CDCCCC"/>
<path fill-rule="evenodd" clip-rule="evenodd" d="M42.7991 15.2854C42.1973 15.3616 41.6069 15.484 41.0364 15.651L39.5886 16.0678V26.7622C40.6103 27.3513 41.6823 27.8861 42.7971 28.3629V15.2854H42.7991ZM38.9088 16.2638L36.6568 16.9125V24.8458C37.3687 25.37 38.1187 25.8771 38.9088 26.3593V16.2638ZM35.979 17.1069L34.477 17.5394V23.0865C34.9583 23.5096 35.459 23.9244 35.979 24.3309V17.1069Z" fill="#333333"/>
<path fill-rule="evenodd" clip-rule="evenodd" d="M44.4975 14.2664H44.5971C45.9821 14.262 47.3567 14.4496 48.6538 14.82L56.2162 16.963V23.3532C52.9099 26.2792 49.0565 28.5695 44.4975 30.0613V14.2664Z" fill="#B4B4B4"/>
<path fill-rule="evenodd" clip-rule="evenodd" d="M46.1958 15.2854C46.8099 15.3618 47.4126 15.4842 47.9949 15.651L49.4726 16.0678V26.7622C48.4295 27.351 47.3354 27.8857 46.1979 28.3629V15.2854H46.1958ZM50.1665 16.2638L52.4629 16.9125V24.8458C51.7384 25.37 50.9729 25.8771 50.1665 26.3593V16.2638ZM53.1567 17.1069L54.6877 17.5394V23.0865C54.1979 23.5096 53.6875 23.9244 53.1567 24.3309V17.1069Z" fill="#1A1A1A"/>
<path fill-rule="evenodd" clip-rule="evenodd" d="M43.534 8.66174C44.1859 8.66174 44.4984 8.96662 44.2332 9.34109C44.0652 9.54109 43.8242 9.70857 43.5333 9.82751C43.2424 9.94646 42.9113 10.0129 42.5716 10.0204C41.9218 10.0204 41.6092 9.71696 41.8745 9.34109C42.0426 9.14147 42.2833 8.97426 42.5738 8.85535C42.8642 8.73645 43.1948 8.6698 43.534 8.66174Z" fill="#E3E3E3"/>
</g>
</g>
<g clip-path="url(#clip1_508_3715)">
<g filter="url(#filter3_d_508_3715)">
<path fill-rule="evenodd" clip-rule="evenodd" d="M60.009 47.2835L60.145 47.3539C60.2992 47.4366 60.4708 47.4817 60.6458 47.4855C60.8207 47.4893 60.9941 47.4517 61.1518 47.3757C61.3116 47.3045 61.4523 47.1966 61.5626 47.0608C61.6728 46.925 61.7495 46.7651 61.7865 46.5942C62.0991 45.2279 62.7244 43.5585 63.6139 41.8343C64.5034 40.1101 65.5023 38.6345 66.4278 37.5887C66.5437 37.4584 66.6283 37.3033 66.6752 37.1353C66.722 36.9673 66.7298 36.7908 66.698 36.6193C66.6661 36.4478 66.5955 36.2859 66.4915 36.1459C66.3875 36.0058 66.2529 35.8914 66.0979 35.8114L65.9603 35.7411L66.5262 34.6469L69.1838 36.0162L71.8413 37.384L71.2754 38.4782L71.1394 38.4078C70.9837 38.3264 70.8114 38.2819 70.6357 38.2777C70.46 38.2736 70.2858 38.31 70.1265 38.3841C69.9671 38.4581 69.827 38.5679 69.7169 38.7049C69.6068 38.8418 69.5298 39.0023 69.4917 39.1738C69.1791 40.5384 68.5538 42.2095 67.6643 43.9321C66.7748 45.6547 65.7759 47.1319 64.8504 48.1776C64.7345 48.3081 64.6498 48.4633 64.603 48.6314C64.5562 48.7996 64.5484 48.9762 64.5802 49.1478C64.612 49.3194 64.6826 49.4814 64.7866 49.6216C64.8906 49.7618 65.0253 49.8763 65.1803 49.9565L65.3178 50.0269L64.7519 51.1211L62.0944 49.7533L59.4431 48.3793L60.009 47.2835Z" fill="#CA3927"/>
<path fill-rule="evenodd" clip-rule="evenodd" d="M66.7738 38.2339C67.2121 38.4626 66.6034 40.5412 65.4123 42.8736C64.2213 45.206 62.9001 46.9134 62.4695 46.6847C62.0389 46.456 62.6399 44.3774 63.8309 42.045C65.022 39.7126 66.3355 38.0052 66.7738 38.2339Z" fill="#F04B23"/>
<path fill-rule="evenodd" clip-rule="evenodd" d="M86.1076 3.39673L84.6833 11.4454L71.3964 37.1944L67.0858 34.9697L80.3728 9.22067L86.1076 3.39673Z" fill="#D1D2D2"/>
<path fill-rule="evenodd" clip-rule="evenodd" d="M81.808 7.74434L84.0702 6.27113L83.2748 11.0728L71.3318 37.1944L84.6771 11.4454L86.1076 3.39673L81.808 7.74434Z" fill="#E6E6E5"/>
<path fill-rule="evenodd" clip-rule="evenodd" d="M82.3712 10.6997L76.0933 23.5217L69.8138 36.3452L69.1284 35.9964L68.4445 35.6476L75.4079 23.1745L82.3712 10.6997Z" fill="#818181"/>
<path fill-rule="evenodd" clip-rule="evenodd" d="M65.7727 33.4234L73.3723 37.3669C73.763 37.0841 74.2371 36.9418 74.7181 36.9631C75.1991 36.9844 75.6589 37.168 76.0235 37.4842C76.388 37.8005 76.6361 38.231 76.7275 38.7064C76.819 39.1817 76.7486 39.6742 76.5277 40.1044C76.3069 40.5346 75.9483 40.8775 75.51 41.0777C75.0716 41.2779 74.579 41.3238 74.1115 41.208C73.644 41.0922 73.2289 40.8214 72.9332 40.4394C72.6375 40.0573 72.4783 39.5862 72.4813 39.1021L64.8817 35.1585C64.4905 35.4422 64.0157 35.585 63.5338 35.5639C63.052 35.5429 62.5913 35.3592 62.226 35.0425C61.8607 34.7258 61.6121 34.2946 61.5204 33.8185C61.4286 33.3423 61.4991 32.8489 61.7204 32.418C61.9417 31.987 62.3008 31.6436 62.74 31.4431C63.1792 31.2426 63.6727 31.1968 64.1409 31.3129C64.6092 31.4291 65.0249 31.7005 65.3209 32.0834C65.617 32.4663 65.7761 32.9384 65.7727 33.4234Z" fill="#333333"/>
</g>
</g>
<defs>
<filter id="filter0_d_508_3715" x="3.68619" y="28.4717" width="30.1288" height="34.7572" filterUnits="userSpaceOnUse" color-interpolation-filters="sRGB">
<feFlood flood-opacity="0" result="BackgroundImageFix"/>
<feColorMatrix in="SourceAlpha" type="matrix" values="0 0 0 0 0 0 0 0 0 0 0 0 0 0 0 0 0 0 127 0" result="hardAlpha"/>
<feOffset dy="4"/>
<feGaussianBlur stdDeviation="2"/>
<feComposite in2="hardAlpha" operator="out"/>
<feColorMatrix type="matrix" values="0 0 0 0 0 0 0 0 0 0 0 0 0 0 0 0 0 0 0.25 0"/>
<feBlend mode="normal" in2="BackgroundImageFix" result="effect1_dropShadow_508_3715"/>
<feBlend mode="normal" in="SourceGraphic" in2="effect1_dropShadow_508_3715" result="shape"/>
</filter>
<filter id="filter1_d_508_3715" x="3.68616" y="28.7593" width="23.3096" height="34.4696" filterUnits="userSpaceOnUse" color-interpolation-filters="sRGB">
<feFlood flood-opacity="0" result="BackgroundImageFix"/>
<feColorMatrix in="SourceAlpha" type="matrix" values="0 0 0 0 0 0 0 0 0 0 0 0 0 0 0 0 0 0 127 0" result="hardAlpha"/>
<feOffset dy="4"/>
<feGaussianBlur stdDeviation="2"/>
<feComposite in2="hardAlpha" operator="out"/>
<feColorMatrix type="matrix" values="0 0 0 0 0 0 0 0 0 0 0 0 0 0 0 0 0 0 0.25 0"/>
<feBlend mode="normal" in2="BackgroundImageFix" result="effect1_dropShadow_508_3715"/>
<feBlend mode="normal" in="SourceGraphic" in2="effect1_dropShadow_508_3715" result="shape"/>
</filter>
<filter id="filter2_d_508_3715" x="22.7787" y="-4.98096" width="47.8534" height="49.0422" filterUnits="userSpaceOnUse" color-interpolation-filters="sRGB">
<feFlood flood-opacity="0" result="BackgroundImageFix"/>
<feColorMatrix in="SourceAlpha" type="matrix" values="0 0 0 0 0 0 0 0 0 0 0 0 0 0 0 0 0 0 127 0" result="hardAlpha"/>
<feOffset dy="4"/>
<feGaussianBlur stdDeviation="5"/>
<feComposite in2="hardAlpha" operator="out"/>
<feColorMatrix type="matrix" values="0 0 0 0 0 0 0 0 0 0 0 0 0 0 0 0 0 0 0.5 0"/>
<feBlend mode="normal" in2="BackgroundImageFix" result="effect1_dropShadow_508_3715"/>
<feBlend mode="normal" in="SourceGraphic" in2="effect1_dropShadow_508_3715" result="shape"/>
</filter>
<filter id="filter3_d_508_3715" x="49.4431" y="-2.60327" width="46.6645" height="67.7244" filterUnits="userSpaceOnUse" color-interpolation-filters="sRGB">
<feFlood flood-opacity="0" result="BackgroundImageFix"/>
<feColorMatrix in="SourceAlpha" type="matrix" values="0 0 0 0 0 0 0 0 0 0 0 0 0 0 0 0 0 0 127 0" result="hardAlpha"/>
<feOffset dy="4"/>
<feGaussianBlur stdDeviation="5"/>
<feComposite in2="hardAlpha" operator="out"/>
<feColorMatrix type="matrix" values="0 0 0 0 0 0 0 0 0 0 0 0 0 0 0 0 0 0 0.5 0"/>
<feBlend mode="normal" in2="BackgroundImageFix" result="effect1_dropShadow_508_3715"/>
<feBlend mode="normal" in="SourceGraphic" in2="effect1_dropShadow_508_3715" result="shape"/>
</filter>
<clipPath id="clip0_508_3715">
<rect width="30.5708" height="31.8649" fill="white" transform="translate(31.9295)"/>
</clipPath>
<clipPath id="clip1_508_3715">
<rect width="28.8843" height="51.8684" fill="white" transform="translate(59.613)"/>
</clipPath>
</defs>
</svg>
