<svg width="89" height="71" viewBox="0 0 89 71" fill="none" xmlns="http://www.w3.org/2000/svg">
<rect x="21.5026" y="24.1279" width="45.9342" height="45.9342" rx="22.9671" fill="white"/>
<rect x="21.5026" y="24.1279" width="45.9342" height="45.9342" rx="22.9671" stroke="#CDCCCC"/>
<path d="M37.5328 50.8602C39.4147 52.317 41.777 53.1923 44.3398 53.1923C47.1445 53.1923 49.7013 52.1511 51.6527 50.4418C51.6763 50.4209 51.6647 50.4071 51.6413 50.4209C50.7657 51.0057 48.27 52.2822 44.34 52.2822C40.9245 52.2822 38.7661 51.5202 37.5472 50.8398C37.5239 50.8283 37.5153 50.8458 37.5328 50.8602ZM45.0934 51.4274C47.8251 51.4274 50.8269 50.6827 52.6222 49.2087C53.1135 48.8071 53.5815 48.2725 54.0006 47.5542C54.2419 47.1408 54.4778 46.6497 54.67 46.167C54.6786 46.1435 54.6641 46.132 54.6463 46.1585C52.9768 48.6154 48.1422 50.1479 43.1502 50.1479C39.6217 50.1479 35.8251 49.0195 34.3386 46.865C34.324 46.8451 34.3094 46.8536 34.3183 46.8765C35.703 49.8196 39.9038 51.4274 45.0934 51.4274ZM42.1087 46.5449C36.4273 46.5449 33.7484 43.8988 33.2624 42.0931C33.2564 42.0669 33.2392 42.0726 33.2392 42.0961C33.2392 42.704 33.3001 43.4886 33.4048 44.0093C33.4547 44.2627 33.661 44.6605 33.9634 44.9776C35.3392 46.4116 38.769 48.4209 44.7091 48.4209C52.8021 48.4209 54.6526 45.7251 55.0304 44.8385C55.3006 44.2045 55.4406 43.0587 55.4406 42.0962C55.4406 41.8633 55.4348 41.6772 55.426 41.4946C55.426 41.465 55.4088 41.4625 55.4029 41.4914C54.9985 43.6607 48.0839 46.5449 42.1087 46.5449ZM34.3094 37.3359C33.9838 37.9819 33.623 39.0719 33.5157 39.636C33.4687 39.8778 33.4887 39.9938 33.5735 40.1742C34.2544 41.619 37.6988 43.9307 45.7333 43.9307C50.6349 43.9307 54.4426 42.7264 55.0595 40.529C55.1731 40.1244 55.1792 39.6973 55.0332 39.1218C54.8702 38.4787 54.5648 37.7287 54.3064 37.2021C54.2978 37.185 54.2828 37.1875 54.2859 37.2078C54.3819 40.09 46.3442 41.9476 42.2888 41.9476C37.896 41.9476 34.2312 40.1974 34.2312 37.9875C34.2312 37.7751 34.2752 37.5627 34.33 37.3417C34.3355 37.3215 34.3182 37.3182 34.3094 37.3359ZM51.6707 33.7971C51.7173 33.8702 51.7406 33.9482 51.7406 34.0532C51.7406 35.2861 47.9673 37.4671 41.9607 37.4671C37.5472 37.4671 36.7209 35.8299 36.7209 34.7886C36.7209 34.4164 36.8637 34.0356 37.1781 33.6488C37.1952 33.6258 37.1807 33.617 37.1608 33.6341C36.5875 34.12 36.0607 34.6667 35.5985 35.2569C35.3777 35.5361 35.2406 35.7833 35.2406 35.9315C35.2406 38.0892 40.6511 39.6537 45.7101 39.6537C51.1005 39.6537 53.5063 37.894 53.5063 36.3476C53.5063 35.7949 53.2911 35.4722 52.7408 34.8467C52.3835 34.4398 52.0456 34.1085 51.6879 33.7823C51.6707 33.7681 51.6586 33.7797 51.6707 33.7971ZM50.0181 32.5645C48.3545 31.5673 46.4227 31 44.34 31C42.2427 31 40.2526 31.5871 38.5831 32.6107C38.0823 32.9189 37.8004 33.1659 37.8004 33.4834C37.8004 34.4194 39.9877 35.4257 43.8684 35.4257C47.7087 35.4257 50.6874 34.3234 50.6874 33.2624C50.6874 33.0091 50.466 32.8319 50.0181 32.5645Z" fill="#00A8E0"/>
<path d="M53.9609 63.6669C53.8164 63.6669 53.7169 63.5667 53.7169 63.4227V56.2677H51.2863C51.1418 56.2677 51.0421 56.1679 51.0421 56.0237V55.0368C51.0421 54.8922 51.1418 54.7923 51.2863 54.7923H57.7562C57.9005 54.7923 57.9999 54.8924 57.9999 55.0368V56.0237C57.9999 56.1678 57.9005 56.2677 57.7562 56.2677H55.3257V63.4226C55.3257 63.5667 55.2257 63.6669 55.0817 63.6669H53.9609ZM35.342 60.0947L34.0661 56.4343L32.7787 60.0947H35.342ZM38.1718 63.3778C38.2276 63.5224 38.1386 63.6669 37.9833 63.6669H36.8294C36.6628 63.6669 36.5628 63.5895 36.5072 63.4334L35.8527 61.5483H32.2686L31.6131 63.4334C31.558 63.5895 31.4577 63.6669 31.2916 63.6669H30.2044C30.06 63.6669 29.9599 63.5223 30.0155 63.3778L33.0228 55.0146C33.0784 54.8588 33.1782 54.7926 33.3444 54.7926H34.8314C34.998 54.7926 35.109 54.8588 35.1645 55.0146L38.1718 63.3778ZM46.7919 62.4686C47.5017 62.4686 47.9792 62.1253 48.3677 61.5371L46.5702 59.6067C45.8819 59.9952 45.4378 60.383 45.4378 61.1597C45.4379 61.9253 46.059 62.4686 46.7919 62.4686ZM47.2911 55.9681C46.7143 55.9681 46.3814 56.3345 46.3814 56.8225C46.3814 57.1996 46.5807 57.5324 47.0359 58.0207C47.8237 57.5655 48.1568 57.2884 48.1568 56.8004C48.1568 56.3452 47.8684 55.9681 47.2911 55.9681ZM52.2076 63.3562C52.3517 63.5117 52.2631 63.6669 52.085 63.6669H50.6757C50.4871 63.6669 50.3873 63.6223 50.2653 63.4779L49.4219 62.5465C48.856 63.3009 48.0675 63.8665 46.7583 63.8665C45.1382 63.8665 43.8617 62.8904 43.8617 61.2156C43.8617 59.9285 44.5501 59.2405 45.5934 58.6638C45.0825 58.0759 44.8499 57.4547 44.8499 56.9114C44.8499 55.5355 45.8153 54.5928 47.2687 54.5928C48.7558 54.5928 49.6659 55.4694 49.6659 56.767C49.6659 57.8763 48.8671 58.497 48.0234 58.9632L49.2665 60.3059L49.9655 59.0853C50.0542 58.9413 50.1541 58.8856 50.3314 58.8856H51.4076C51.5855 58.8856 51.6854 59.0079 51.5747 59.1964L50.3316 61.3259L52.2076 63.3562ZM41.1329 63.6669C41.2772 63.6669 41.3775 63.5667 41.3775 63.4227V56.2677H43.8074C43.9517 56.2677 44.0515 56.1679 44.0515 56.0237V55.0368C44.0515 54.8922 43.9517 54.7923 43.8074 54.7923H37.3376C37.1931 54.7923 37.0934 54.8924 37.0934 55.0368V56.0237C37.0934 56.1678 37.1931 56.2677 37.3376 56.2677H39.7675V63.4226C39.7675 63.5667 39.8677 63.6669 40.0118 63.6669H41.1329Z" fill="black"/>
<g filter="url(#filter0_d_508_4165)">
<path d="M22.9947 55.2289L23.606 54.4472C26.9584 50.1446 31.129 44.7916 29.418 37.6186L27.7876 30.7841L26.5815 31.0719C22.2268 32.1106 18.4895 30.9928 17.8881 28.4717L15.4759 29.0471C16.0773 31.5682 13.247 34.2527 8.89229 35.2915L7.68618 35.5792L9.31651 42.4137C11.0276 49.5867 17.1656 52.4806 22.0974 54.8059L22.9947 55.2289Z" fill="#D84025"/>
</g>
<g filter="url(#filter1_d_508_4165)">
<path d="M8.89226 35.2914C13.247 34.2527 16.0773 31.5681 15.4759 29.047L16.682 28.7593L22.9958 55.2274L22.9946 55.2288L22.0973 54.8058C17.1655 52.4805 11.0276 49.5867 9.31648 42.4136L7.68615 35.5791L8.89226 35.2914Z" fill="#A13023"/>
</g>
<g clip-path="url(#clip0_508_4165)">
<g filter="url(#filter2_d_508_4165)">
<path fill-rule="evenodd" clip-rule="evenodd" d="M54.4434 22.5884C54.7526 23.8439 55.0605 25.0985 55.3671 26.352C52.5429 27.9683 48.9769 28.8708 44.4975 28.8724V23.6889L54.4434 22.5884Z" fill="#535353"/>
<path fill-rule="evenodd" clip-rule="evenodd" d="M34.5597 22.5884C34.2464 23.8439 33.9357 25.0985 33.6278 26.352C36.4581 27.9683 40.016 28.8708 44.4974 28.8724V23.6889L34.5597 22.5884Z" fill="#676767"/>
<path fill-rule="evenodd" clip-rule="evenodd" d="M42.2742 9.0759C35.8216 3.36948 48.0228 3.91021 51.4613 1.01904C51.704 1.26047 51.8479 1.55073 51.8751 1.85375C51.9023 2.15677 51.8116 2.45917 51.6143 2.72338C53.1407 3.67161 55.8242 2.37786 57.2792 4.1953C55.6304 4.12403 54.6264 4.61829 54.0142 5.27988C58.5363 4.75618 56.767 7.94329 60.632 8.12302C57.7526 9.34239 50.9899 7.00126 46.8086 9.8506C44.921 9.79792 44.1618 9.13323 42.2742 9.0759Z" fill="#A23023"/>
<path fill-rule="evenodd" clip-rule="evenodd" d="M60.63 8.0703C57.7798 9.32968 51.0666 6.93003 46.9158 9.85058C46.1435 9.81775 45.3835 9.6841 44.6673 9.45514C50.0962 4.6606 54.9134 8.91676 60.632 8.0703H60.63Z" fill="#1A1A1A"/>
<path fill-rule="evenodd" clip-rule="evenodd" d="M42.6511 8.5912C43.3962 8.64925 44.1271 8.78319 44.8232 8.98926L44.8724 9.00146C44.6293 8.72999 44.3902 8.45851 44.1552 8.18703C42.0199 6.37056 46.5139 4.22161 49.2393 3.78084C50.2209 4.41531 51.7332 4.11485 52.5078 4.5602C51.8398 5.1001 51.4258 6.0335 50.7557 6.57341C58.4075 5.79863 54.9218 7.64102 58.594 7.99791C58.3468 7.87292 58.1223 7.72478 57.9259 7.55714C56.6964 6.5124 56.8788 5.37158 54.1984 5.67661L52.7066 5.84591C52.9702 5.57341 53.236 5.30142 53.5037 5.02995C54.108 4.39937 55.0175 3.96796 56.0407 3.82659C55.8008 3.72215 55.5366 3.6523 55.2619 3.6207C55.0001 3.5912 54.7358 3.5754 54.471 3.57342C53.2783 3.55206 52.141 3.62222 51.1922 3.05181L50.8397 2.83676C50.9094 2.7422 50.9811 2.64917 51.0447 2.55613C51.2033 2.34732 51.2699 2.10676 51.2352 1.86829C50.0057 2.56223 48.3049 3.02893 46.8479 3.41632C45.6942 3.72136 44.4831 4.02639 43.3888 4.40615C42.6162 4.67763 41.7494 5.05435 41.3396 5.56985C40.5957 6.5307 41.7453 7.77981 42.6511 8.5912Z" fill="#EF4123"/>
<path fill-rule="evenodd" clip-rule="evenodd" d="M43.7259 8.71744C44.1136 8.79334 44.496 8.88402 44.8715 8.98912L44.9205 9.0014C44.6782 8.72818 44.4399 8.45496 44.2058 8.18175C42.078 6.35365 46.5562 4.19094 49.2721 3.74734C50.2502 4.38587 51.7572 4.08349 52.5291 4.53169C51.8634 5.07505 51.4509 6.01443 50.7832 6.55779C58.4081 5.77805 54.9346 7.63224 58.594 7.99142C56.6887 7.61843 56.7235 6.27076 55.6412 5.94689C54.5589 5.62302 53.1295 6.369 52.039 6.04513C52.1534 5.42041 52.67 4.91235 53.4215 4.13721C52.378 3.66292 49.7458 4.08656 50.2931 2.71741C47.9509 4.65909 40.4055 3.85479 43.2685 8.55013L43.7259 8.71744Z" fill="#D03927"/>
<path d="M44.4125 12.7378C46.3354 12.7378 47.8942 11.7113 47.8942 10.445C47.8942 9.17875 46.3354 8.15222 44.4125 8.15222C42.4897 8.15222 40.9309 9.17875 40.9309 10.445C40.9309 11.7113 42.4897 12.7378 44.4125 12.7378Z" fill="#CDCCCC"/>
<path fill-rule="evenodd" clip-rule="evenodd" d="M44.4279 10.5299C48.7929 10.5299 52.5226 12.2605 54.0145 14.7017C54.8158 14.959 55.3671 15.4889 55.3671 16.0954C55.363 16.297 55.3022 16.4957 55.1885 16.6786C55.0748 16.8615 54.9108 17.0244 54.7072 17.1567C54.6334 20.7266 50.0594 23.6074 44.4279 23.6074C38.7964 23.6074 34.2388 20.7328 34.1527 17.172C33.94 17.0392 33.7679 16.8738 33.648 16.687C33.5282 16.5002 33.4634 16.2964 33.458 16.0893C33.458 15.4767 34.0277 14.936 34.8474 14.6833C36.3455 12.2483 40.069 10.5299 44.4279 10.5299Z" fill="#8B8A8A"/>
<path fill-rule="evenodd" clip-rule="evenodd" d="M42.7991 20.2107C46.6371 20.2107 49.7624 18.2312 49.7624 15.7949C49.7624 13.3586 46.631 11.3792 42.7991 11.3792C38.9672 11.3792 35.8357 13.3586 35.8357 15.7949C35.8357 18.2312 38.959 20.2107 42.7991 20.2107Z" fill="#989898"/>
<path fill-rule="evenodd" clip-rule="evenodd" d="M40.6761 15.2854C42.127 15.2854 43.3086 14.5219 43.3086 13.587C43.3086 12.6522 42.127 11.8887 40.6761 11.8887C39.2253 11.8887 38.0436 12.6506 38.0436 13.587C38.0436 14.5235 39.2376 15.2854 40.6761 15.2854Z" fill="#ACACAC"/>
<path fill-rule="evenodd" clip-rule="evenodd" d="M44.4974 14.2665H44.3978C43.0093 14.2611 41.6312 14.4487 40.3309 14.82L32.7787 16.9646V23.3547C36.083 26.2792 39.9364 28.5695 44.4974 30.0613V14.2665Z" fill="#CDCCCC"/>
<path fill-rule="evenodd" clip-rule="evenodd" d="M42.7991 15.2854C42.1973 15.3616 41.6069 15.484 41.0364 15.651L39.5886 16.0678V26.7622C40.6103 27.3513 41.6823 27.8861 42.7971 28.3629V15.2854H42.7991ZM38.9088 16.2638L36.6568 16.9125V24.8458C37.3687 25.37 38.1187 25.8771 38.9088 26.3593V16.2638ZM35.979 17.1069L34.477 17.5394V23.0865C34.9583 23.5096 35.459 23.9244 35.979 24.3309V17.1069Z" fill="#333333"/>
<path fill-rule="evenodd" clip-rule="evenodd" d="M44.4975 14.2664H44.5971C45.9821 14.262 47.3567 14.4496 48.6538 14.82L56.2162 16.963V23.3532C52.9099 26.2792 49.0565 28.5695 44.4975 30.0613V14.2664Z" fill="#B4B4B4"/>
<path fill-rule="evenodd" clip-rule="evenodd" d="M46.1958 15.2854C46.8099 15.3618 47.4126 15.4842 47.9949 15.651L49.4726 16.0678V26.7622C48.4295 27.351 47.3354 27.8857 46.1979 28.3629V15.2854H46.1958ZM50.1665 16.2638L52.4629 16.9125V24.8458C51.7384 25.37 50.9729 25.8771 50.1665 26.3593V16.2638ZM53.1567 17.1069L54.6877 17.5394V23.0865C54.1979 23.5096 53.6875 23.9244 53.1567 24.3309V17.1069Z" fill="#1A1A1A"/>
<path fill-rule="evenodd" clip-rule="evenodd" d="M43.534 8.66174C44.1859 8.66174 44.4984 8.96662 44.2332 9.34109C44.0652 9.54109 43.8242 9.70857 43.5333 9.82751C43.2424 9.94646 42.9113 10.0129 42.5716 10.0204C41.9218 10.0204 41.6092 9.71696 41.8745 9.34109C42.0426 9.14147 42.2833 8.97426 42.5738 8.85535C42.8642 8.73645 43.1948 8.6698 43.534 8.66174Z" fill="#E3E3E3"/>
</g>
</g>
<g clip-path="url(#clip1_508_4165)">
<g filter="url(#filter3_d_508_4165)">
<path fill-rule="evenodd" clip-rule="evenodd" d="M60.009 47.2835L60.145 47.3539C60.2992 47.4366 60.4708 47.4817 60.6458 47.4855C60.8207 47.4893 60.9941 47.4517 61.1518 47.3757C61.3116 47.3045 61.4523 47.1966 61.5626 47.0608C61.6728 46.925 61.7495 46.7651 61.7865 46.5942C62.0991 45.2279 62.7244 43.5585 63.6139 41.8343C64.5034 40.1101 65.5023 38.6345 66.4278 37.5887C66.5437 37.4584 66.6283 37.3033 66.6752 37.1353C66.722 36.9673 66.7298 36.7908 66.698 36.6193C66.6661 36.4478 66.5955 36.2859 66.4915 36.1459C66.3875 36.0058 66.2529 35.8914 66.0979 35.8114L65.9603 35.7411L66.5262 34.6469L69.1838 36.0162L71.8413 37.384L71.2754 38.4782L71.1394 38.4078C70.9837 38.3264 70.8114 38.2819 70.6357 38.2777C70.46 38.2736 70.2858 38.31 70.1265 38.3841C69.9671 38.4581 69.827 38.5679 69.7169 38.7049C69.6068 38.8418 69.5298 39.0023 69.4917 39.1738C69.1791 40.5384 68.5538 42.2095 67.6643 43.9321C66.7748 45.6547 65.7759 47.1319 64.8504 48.1776C64.7345 48.3081 64.6498 48.4633 64.603 48.6314C64.5562 48.7996 64.5484 48.9762 64.5802 49.1478C64.612 49.3194 64.6826 49.4814 64.7866 49.6216C64.8906 49.7618 65.0253 49.8763 65.1803 49.9565L65.3178 50.0269L64.7519 51.1211L62.0944 49.7533L59.4431 48.3793L60.009 47.2835Z" fill="#CA3927"/>
<path fill-rule="evenodd" clip-rule="evenodd" d="M66.7738 38.2339C67.2121 38.4626 66.6034 40.5412 65.4123 42.8736C64.2213 45.206 62.9001 46.9134 62.4695 46.6847C62.0389 46.456 62.6399 44.3774 63.8309 42.045C65.022 39.7126 66.3355 38.0052 66.7738 38.2339Z" fill="#F04B23"/>
<path fill-rule="evenodd" clip-rule="evenodd" d="M86.1076 3.39673L84.6833 11.4454L71.3964 37.1944L67.0858 34.9697L80.3728 9.22067L86.1076 3.39673Z" fill="#D1D2D2"/>
<path fill-rule="evenodd" clip-rule="evenodd" d="M81.808 7.74434L84.0702 6.27113L83.2748 11.0728L71.3318 37.1944L84.6771 11.4454L86.1076 3.39673L81.808 7.74434Z" fill="#E6E6E5"/>
<path fill-rule="evenodd" clip-rule="evenodd" d="M82.3712 10.6997L76.0933 23.5217L69.8138 36.3452L69.1284 35.9964L68.4445 35.6476L75.4079 23.1745L82.3712 10.6997Z" fill="#818181"/>
<path fill-rule="evenodd" clip-rule="evenodd" d="M65.7727 33.4234L73.3723 37.3669C73.763 37.0841 74.2371 36.9418 74.7181 36.9631C75.1991 36.9844 75.6589 37.168 76.0235 37.4842C76.388 37.8005 76.6361 38.231 76.7275 38.7064C76.819 39.1817 76.7486 39.6742 76.5277 40.1044C76.3069 40.5346 75.9483 40.8775 75.51 41.0777C75.0716 41.2779 74.579 41.3238 74.1115 41.208C73.644 41.0922 73.2289 40.8214 72.9332 40.4394C72.6375 40.0573 72.4783 39.5862 72.4813 39.1021L64.8817 35.1585C64.4905 35.4422 64.0157 35.585 63.5338 35.5639C63.052 35.5429 62.5913 35.3592 62.226 35.0425C61.8607 34.7258 61.6121 34.2946 61.5204 33.8185C61.4286 33.3423 61.4991 32.8489 61.7204 32.418C61.9417 31.987 62.3008 31.6436 62.74 31.4431C63.1792 31.2426 63.6727 31.1968 64.1409 31.3129C64.6092 31.4291 65.0249 31.7005 65.3209 32.0834C65.617 32.4663 65.7761 32.9384 65.7727 33.4234Z" fill="#333333"/>
</g>
</g>
<defs>
<filter id="filter0_d_508_4165" x="3.68619" y="28.4717" width="30.1288" height="34.7572" filterUnits="userSpaceOnUse" color-interpolation-filters="sRGB">
<feFlood flood-opacity="0" result="BackgroundImageFix"/>
<feColorMatrix in="SourceAlpha" type="matrix" values="0 0 0 0 0 0 0 0 0 0 0 0 0 0 0 0 0 0 127 0" result="hardAlpha"/>
<feOffset dy="4"/>
<feGaussianBlur stdDeviation="2"/>
<feComposite in2="hardAlpha" operator="out"/>
<feColorMatrix type="matrix" values="0 0 0 0 0 0 0 0 0 0 0 0 0 0 0 0 0 0 0.25 0"/>
<feBlend mode="normal" in2="BackgroundImageFix" result="effect1_dropShadow_508_4165"/>
<feBlend mode="normal" in="SourceGraphic" in2="effect1_dropShadow_508_4165" result="shape"/>
</filter>
<filter id="filter1_d_508_4165" x="3.68616" y="28.7593" width="23.3096" height="34.4696" filterUnits="userSpaceOnUse" color-interpolation-filters="sRGB">
<feFlood flood-opacity="0" result="BackgroundImageFix"/>
<feColorMatrix in="SourceAlpha" type="matrix" values="0 0 0 0 0 0 0 0 0 0 0 0 0 0 0 0 0 0 127 0" result="hardAlpha"/>
<feOffset dy="4"/>
<feGaussianBlur stdDeviation="2"/>
<feComposite in2="hardAlpha" operator="out"/>
<feColorMatrix type="matrix" values="0 0 0 0 0 0 0 0 0 0 0 0 0 0 0 0 0 0 0.25 0"/>
<feBlend mode="normal" in2="BackgroundImageFix" result="effect1_dropShadow_508_4165"/>
<feBlend mode="normal" in="SourceGraphic" in2="effect1_dropShadow_508_4165" result="shape"/>
</filter>
<filter id="filter2_d_508_4165" x="22.7787" y="-4.98096" width="47.8534" height="49.0422" filterUnits="userSpaceOnUse" color-interpolation-filters="sRGB">
<feFlood flood-opacity="0" result="BackgroundImageFix"/>
<feColorMatrix in="SourceAlpha" type="matrix" values="0 0 0 0 0 0 0 0 0 0 0 0 0 0 0 0 0 0 127 0" result="hardAlpha"/>
<feOffset dy="4"/>
<feGaussianBlur stdDeviation="5"/>
<feComposite in2="hardAlpha" operator="out"/>
<feColorMatrix type="matrix" values="0 0 0 0 0 0 0 0 0 0 0 0 0 0 0 0 0 0 0.5 0"/>
<feBlend mode="normal" in2="BackgroundImageFix" result="effect1_dropShadow_508_4165"/>
<feBlend mode="normal" in="SourceGraphic" in2="effect1_dropShadow_508_4165" result="shape"/>
</filter>
<filter id="filter3_d_508_4165" x="49.4431" y="-2.60327" width="46.6645" height="67.7244" filterUnits="userSpaceOnUse" color-interpolation-filters="sRGB">
<feFlood flood-opacity="0" result="BackgroundImageFix"/>
<feColorMatrix in="SourceAlpha" type="matrix" values="0 0 0 0 0 0 0 0 0 0 0 0 0 0 0 0 0 0 127 0" result="hardAlpha"/>
<feOffset dy="4"/>
<feGaussianBlur stdDeviation="5"/>
<feComposite in2="hardAlpha" operator="out"/>
<feColorMatrix type="matrix" values="0 0 0 0 0 0 0 0 0 0 0 0 0 0 0 0 0 0 0.5 0"/>
<feBlend mode="normal" in2="BackgroundImageFix" result="effect1_dropShadow_508_4165"/>
<feBlend mode="normal" in="SourceGraphic" in2="effect1_dropShadow_508_4165" result="shape"/>
</filter>
<clipPath id="clip0_508_4165">
<rect width="30.5708" height="31.8649" fill="white" transform="translate(31.9295)"/>
</clipPath>
<clipPath id="clip1_508_4165">
<rect width="28.8843" height="51.8684" fill="white" transform="translate(59.613)"/>
</clipPath>
</defs>
</svg>
