<svg width="90" height="71" viewBox="0 0 90 71" fill="none" xmlns="http://www.w3.org/2000/svg">
<rect x="21.5801" y="24.1279" width="45.9342" height="45.9342" rx="22.9671" fill="#F5EBDC"/>
<rect x="21.5801" y="24.1279" width="45.9342" height="45.9342" rx="22.9671" stroke="#CDCCCC"/>
<g clip-path="url(#clip0_508_4810)">
<path d="M44.9999 63.1492C38.8222 63.1492 35.4051 62.6401 33.1805 61.3806C31.5454 60.4559 30.5271 59.0627 30.5271 57.7494V40.3171C30.5271 38.3606 31.9608 36.123 34.2525 34.4881C36.1558 33.1347 39.5726 31.527 44.9999 31.527C54.4476 31.527 59.4731 36.6321 59.4731 40.3171V57.7355C59.4731 59.0621 58.4545 60.4556 56.8061 61.3802C54.5951 62.6401 51.1779 63.1492 44.9999 63.1492Z" fill="#F5EBDC"/>
<path d="M56.0455 60.0038C53.8902 61.2203 50.1923 61.5681 45.0774 61.5681C39.9625 61.5681 36.2646 61.2203 34.1096 60.0038C32.8155 59.2752 32.161 58.2819 32.161 57.5697C32.161 57.1644 32.3767 56.9322 32.857 56.9322H57.2974C57.778 56.9322 57.9937 57.1643 57.9937 57.5697C57.994 58.2819 57.3391 59.2751 56.0458 60.0038H56.0455ZM57.2975 41.1294H32.857C32.3764 41.1294 32.161 40.8812 32.161 40.4344C32.161 37.7851 36.1486 33.1082 45.0774 33.1082C53.9237 33.1082 57.9941 37.7851 57.9941 40.4344C57.9941 40.8812 57.7784 41.1294 57.2975 41.1294Z" fill="#FF8732"/>
<path d="M37.367 52.0568C37.2923 51.9411 37.2844 51.8664 37.2844 51.8335C37.2844 51.7425 37.3341 51.6764 37.4334 51.5853C37.6655 51.3697 38.2379 50.8318 38.5528 50.3435C38.7931 49.971 38.8924 49.6316 38.8924 49.3505C38.8924 48.6303 38.2378 48.067 37.5244 48.067C37.0684 48.067 36.6374 48.3238 36.3474 48.7956C35.9578 49.4245 35.4933 50.1531 35.1952 50.4431C35.1205 50.5177 35.0791 50.5342 35.0212 50.5342C34.9216 50.5342 34.8802 50.4678 34.8802 50.3603V49.5327C34.8802 48.7216 34.3995 48.0673 33.5289 48.0673C32.6501 48.0673 32.1773 48.7212 32.1773 49.5327V54.6321C32.1773 55.4432 32.6498 56.0978 33.5289 56.0978C34.3995 56.0978 34.8802 55.4438 34.8802 54.6321V53.457C34.8802 53.3574 34.9216 53.2831 35.0212 53.2831C35.154 53.2831 35.1872 53.4157 35.2205 53.4818C35.4111 53.9372 35.966 54.9054 36.4805 55.4768C36.8286 55.8576 37.2597 56.0979 37.7158 56.0979C38.4867 56.0979 39.1337 55.4272 39.1337 54.7068C39.1337 54.26 38.9427 53.9288 38.5781 53.5317C38.1136 53.0258 37.5662 52.3633 37.367 52.0572V52.0568ZM47.7058 47.5949C49.0073 47.5949 49.8283 46.767 49.8283 45.5584C49.8283 44.7888 49.3634 44.2588 48.4353 44.2588H48.1703C47.6808 44.2588 47.2994 44.4909 47.2994 45.0123C47.2994 45.4759 47.7058 45.6995 48.0125 45.6995C48.17 45.6995 48.2699 45.7491 48.2699 45.8652C48.2699 46.0138 48.096 46.1134 47.8967 46.1134C47.2747 46.1134 46.852 45.6744 46.852 44.8549C46.852 43.9445 47.4326 43.6137 47.8801 43.6137C48.4271 43.6137 48.5185 43.8951 48.8999 43.8951C49.3394 43.8951 49.6379 43.5308 49.6379 43.1501C49.6379 42.8687 49.5134 42.6536 49.3227 42.5044C48.9746 42.2476 48.4856 42.0576 47.7561 42.0576C46.4707 42.0576 45.2191 42.9019 45.2191 44.8555C45.2184 46.7256 46.4704 47.5949 47.7058 47.5949ZM33.1305 47.5453H34.2999C35.4026 47.5453 36.0739 46.8085 36.0739 45.8895C36.0739 45.1527 35.6344 44.8134 35.5351 44.7306C35.494 44.6974 35.4526 44.6645 35.4526 44.6313C35.4526 44.5902 35.4772 44.5734 35.519 44.5238C35.6761 44.3416 35.8337 44.052 35.8337 43.6295C35.8337 42.6366 35.162 42.1063 34.1175 42.1063H33.1309C32.476 42.1063 32.161 42.4876 32.161 43.0005V46.651C32.161 47.1645 32.476 47.5453 33.1305 47.5453ZM33.6201 43.5305C33.6201 43.423 33.6865 43.3398 33.8272 43.3398H33.935C34.2914 43.3398 34.3995 43.5881 34.3995 43.8037C34.3995 44.0023 34.292 44.2838 33.935 44.2838H33.8275C33.6865 44.2838 33.62 44.2012 33.62 44.0934L33.6201 43.5305ZM33.6201 45.4677C33.6201 45.3602 33.6865 45.277 33.8272 45.277H33.9765C34.3746 45.277 34.4903 45.5417 34.4903 45.782C34.4903 45.9977 34.3743 46.3038 33.9765 46.3038H33.8275C33.6865 46.3038 33.6201 46.2209 33.6201 46.1131V45.4677ZM54.7775 47.5864C55.3081 47.5864 55.5981 47.1889 55.5981 46.6924V45.8149C55.5981 45.7073 55.648 45.6577 55.731 45.6577C55.8302 45.6577 55.8631 45.7156 55.8795 45.8149C55.9545 46.2371 56.1533 46.8082 56.3769 47.0981C56.6591 47.471 56.924 47.5871 57.1896 47.5871C57.6203 47.5871 57.9938 47.2474 57.9938 46.8249C57.9938 46.5435 57.8778 46.3364 57.7285 46.1463C57.4464 45.7906 57.2726 45.5589 57.1651 45.2691C57.14 45.2027 57.1565 45.1445 57.2315 45.0869C57.4886 44.8883 57.7871 44.4494 57.7871 43.7543C57.7871 42.7029 56.9163 42.1068 55.8632 42.1068H54.9268C54.2718 42.1068 53.957 42.4872 53.957 43.0008V46.693C53.957 47.1895 54.2469 47.5863 54.7779 47.5863L54.7775 47.5864ZM55.507 43.6716C55.507 43.564 55.5734 43.4806 55.7142 43.4806H55.8302C56.1787 43.4806 56.2862 43.7291 56.2862 43.9445C56.2862 44.1516 56.1787 44.4245 55.8302 44.4245H55.7142C55.5731 44.4245 55.507 44.3423 55.507 44.2341V43.6712V43.6716ZM41.1477 48.0667C40.2193 48.0667 39.7133 48.7618 39.7133 49.6311V54.5322C39.7133 55.4018 40.2193 56.0968 41.1477 56.0968C42.0761 56.0968 42.5818 55.4015 42.5818 54.5322V49.6311C42.5818 48.7624 42.0765 48.0667 41.1477 48.0667ZM55.8881 51.2539H55.482C54.7525 51.2539 54.1887 51.5932 54.1887 52.3379C54.1887 53.0168 54.8022 53.3397 55.2581 53.3397C55.482 53.3397 55.6395 53.4061 55.6395 53.5797C55.6395 53.7948 55.3742 53.9355 55.0924 53.9355C54.1554 53.9355 53.517 53.298 53.517 52.114C53.517 50.7979 54.3876 50.3179 55.0589 50.3179C55.8798 50.3179 56.0123 50.7321 56.5843 50.7321C57.2473 50.7321 57.6951 50.1939 57.6951 49.6475C57.6951 49.2421 57.5127 48.9274 57.2227 48.7121C56.7167 48.3393 55.9544 48.066 54.8763 48.066C52.9448 48.066 51.0627 49.2828 51.0627 52.114C51.0627 54.8208 52.9442 56.0877 54.8017 56.0877C56.7496 56.0877 57.985 54.8874 57.985 53.1323C57.9855 52.0236 57.2896 51.2539 55.8881 51.2539ZM52.7543 47.5453C53.2192 47.5453 53.5838 47.2721 53.5838 46.7753C53.5838 46.2867 53.2188 46.0135 52.7546 46.0135H52.0084C51.8677 46.0135 51.8012 45.931 51.8012 45.8232V45.6657C51.8012 45.5582 51.8677 45.4753 52.0087 45.4753H52.5808C52.9789 45.4753 53.2939 45.2353 53.2939 44.8128C53.2939 44.391 52.9789 44.1507 52.5808 44.1507H52.0085C51.8677 44.1507 51.8013 44.0678 51.8013 43.96V43.8275C51.8013 43.72 51.8677 43.6371 52.0088 43.6371H52.7547C53.219 43.6371 53.5839 43.3639 53.5839 42.8675C53.5839 42.3786 53.2189 42.1054 52.7547 42.1054H51.1879C50.5334 42.1054 50.2181 42.4861 50.2181 42.9996V46.6501C50.2181 47.1633 50.5331 47.5444 51.1879 47.5444H52.7547V47.5454H52.7544M38.5114 47.5864C39.8544 47.5864 40.5674 46.7832 40.5674 45.7738V42.9838C40.5674 42.4873 40.2775 42.0895 39.7466 42.0895C39.216 42.0895 38.926 42.4873 38.926 42.9838V45.6824C38.926 45.8807 38.8099 46.1125 38.5114 46.1125C38.2129 46.1125 38.113 45.8807 38.113 45.6824V42.9838C38.113 42.4873 37.8148 42.0895 37.2839 42.0895C36.7533 42.0895 36.4633 42.4873 36.4633 42.9838V45.7735C36.4637 46.7835 37.1685 47.5861 38.5115 47.5861L38.5114 47.5864ZM44.3314 47.5864C44.7625 47.5864 45.136 47.2471 45.136 46.8246C45.136 46.5432 45.0199 46.336 44.8706 46.146C44.6303 45.8313 44.4146 45.5581 44.3071 45.2688C44.2822 45.2024 44.2986 45.1442 44.3736 45.0863C44.6307 44.8881 44.9292 44.4491 44.9292 43.7538C44.9292 42.7023 44.0583 42.1063 43.0053 42.1063H42.068C41.4134 42.1063 41.0982 42.487 41.0982 43.0005V46.6927C41.0982 47.1892 41.3885 47.5871 41.9191 47.5871C42.4497 47.5871 42.74 47.1892 42.74 46.6927V45.8155C42.74 45.708 42.7896 45.6581 42.8725 45.6581C42.9721 45.6581 43.005 45.7159 43.0214 45.8155C43.0961 46.2374 43.2949 46.8085 43.5188 47.0988C43.8008 47.4706 44.0658 47.5864 44.3314 47.5864ZM42.9717 44.4242H42.8553C42.7143 44.4242 42.6482 44.3416 42.6482 44.2338V43.6712C42.6482 43.5637 42.7146 43.4806 42.8553 43.4806H42.9714C43.3198 43.4806 43.4274 43.7291 43.4274 43.9445C43.4274 44.1509 43.3198 44.4242 42.9714 44.4242H42.9717ZM49.0982 48.0667C48.2444 48.0667 47.7801 48.7039 47.7801 49.5071V51.295C47.7801 51.4436 47.7302 51.5104 47.6391 51.5104C47.5727 51.5104 47.5231 51.4693 47.4652 51.3532L46.3129 49.1185C45.8733 48.2656 45.4173 48.0671 44.8953 48.0671C44.0247 48.0671 43.5437 48.7207 43.5437 49.5407V54.6568C43.5437 55.46 44.0079 56.0973 44.8617 56.0973C45.7158 56.0973 46.1797 55.4597 46.1797 54.6568V52.8689C46.1797 52.7203 46.2297 52.6532 46.3208 52.6532C46.3872 52.6532 46.4372 52.6946 46.4948 52.8107L47.647 55.0457C48.0866 55.8986 48.5591 56.0972 49.065 56.0972C49.9356 56.0972 50.4165 55.4432 50.4165 54.6236V49.5074C50.4165 48.7042 49.9522 48.067 49.0982 48.067V48.0667Z" fill="#D62300"/>
</g>
<g clip-path="url(#clip1_508_4810)">
<g filter="url(#filter0_d_508_4810)">
<path d="M66.9177 55.4018L66.304 54.6172C62.9389 50.2981 58.7524 44.9249 60.47 37.7246L62.1065 30.8641L63.3172 31.1529C67.6885 32.1956 71.44 31.0735 72.0437 28.5428L74.4651 29.1204C73.8614 31.6511 76.7025 34.3459 81.0738 35.3886L82.2844 35.6774L80.6479 42.5379C78.9303 49.7382 72.769 52.6431 67.8184 54.9772L66.9177 55.4018Z" fill="#7AB9E8"/>
</g>
<g filter="url(#filter1_d_508_4810)">
<path d="M81.0738 35.3886C76.7025 34.3459 73.8614 31.6511 74.4651 29.1204L73.2544 28.8316L66.9166 55.4004L66.9178 55.4019L67.8185 54.9772C72.7691 52.6431 78.9304 49.7383 80.648 42.5379L82.2845 35.6774L81.0738 35.3886Z" fill="#579ADF"/>
</g>
</g>
<g clip-path="url(#clip2_508_4810)">
<g filter="url(#filter2_d_508_4810)">
<path fill-rule="evenodd" clip-rule="evenodd" d="M35.1479 22.6743C34.8375 23.9347 34.5284 25.194 34.2207 26.4523C37.0557 28.0747 40.6352 28.9807 45.1317 28.9822V23.779L35.1479 22.6743Z" fill="#535353"/>
<path fill-rule="evenodd" clip-rule="evenodd" d="M55.1073 22.6743C55.4218 23.9347 55.7336 25.194 56.0427 26.4523C53.2016 28.0747 49.6302 28.9807 45.1317 28.9822V23.779L55.1073 22.6743Z" fill="#676767"/>
<path fill-rule="evenodd" clip-rule="evenodd" d="M47.3634 9.1104C53.8405 3.38226 41.593 3.92506 38.1414 1.02289C37.8977 1.26523 37.7533 1.5566 37.726 1.86077C37.6986 2.16494 37.7897 2.4685 37.9877 2.73371C36.4555 3.68554 33.7618 2.38688 32.3013 4.21123C33.9564 4.13969 34.9643 4.63583 35.5788 5.29994C31.0395 4.77425 32.8155 7.97348 28.9357 8.15389C31.8261 9.37791 38.6146 7.02786 42.8118 9.88804C44.7066 9.83516 45.4686 9.16794 47.3634 9.1104Z" fill="#1B2241"/>
<path fill-rule="evenodd" clip-rule="evenodd" d="M28.9378 8.10096C31.7988 9.36513 38.5376 6.95635 42.7041 9.88802C43.4794 9.85506 44.2422 9.7209 44.9612 9.49107C39.5116 4.67829 34.6761 8.95065 28.9357 8.10096H28.9378Z" fill="#1A1A1A"/>
<path fill-rule="evenodd" clip-rule="evenodd" d="M46.9851 8.62379C46.2371 8.68206 45.5035 8.81651 44.8047 9.02337L44.7553 9.03562C44.9994 8.76311 45.2394 8.4906 45.4752 8.21809C47.6186 6.39471 43.1076 4.23758 40.3718 3.79513C39.3865 4.43201 37.8684 4.13041 37.0909 4.57746C37.7615 5.11942 38.177 6.05637 38.8496 6.59833C31.1687 5.8206 34.6677 7.67 30.9815 8.02825C31.2296 7.90278 31.455 7.75408 31.6521 7.5858C32.8863 6.53709 32.7033 5.39193 35.3938 5.69812L36.8913 5.86806C36.6267 5.59453 36.3599 5.3215 36.0912 5.04899C35.4846 4.41602 34.5716 3.98297 33.5446 3.84106C33.7854 3.73622 34.0506 3.6661 34.3262 3.63438C34.5891 3.60477 34.8544 3.58891 35.1203 3.58692C36.3174 3.56549 37.4591 3.63591 38.4115 3.06333L38.7653 2.84747C38.6953 2.75255 38.6233 2.65916 38.5596 2.56577C38.4004 2.35617 38.3335 2.11469 38.3683 1.87531C39.6025 2.57189 41.3098 3.04037 42.7723 3.42923C43.9304 3.73543 45.1461 4.04162 46.2446 4.42283C47.0201 4.69534 47.8902 5.07349 48.3016 5.59095C49.0483 6.55546 47.8943 7.80932 46.9851 8.62379Z" fill="#4386BB"/>
<path fill-rule="evenodd" clip-rule="evenodd" d="M45.9062 8.75058C45.517 8.82677 45.1332 8.9178 44.7563 9.02329L44.7071 9.03562C44.9503 8.76136 45.1894 8.48711 45.4245 8.21285C47.5604 6.3778 43.0652 4.20686 40.3389 3.76158C39.3571 4.40254 37.8443 4.099 37.0695 4.54891C37.7377 5.09434 38.1518 6.03729 38.8221 6.58272C31.1681 5.80001 34.6548 7.66126 30.9816 8.02179C32.894 7.64739 32.8592 6.2946 33.9456 5.96949C35.032 5.64439 36.4668 6.3932 37.5614 6.0681C37.4466 5.44101 36.928 4.93102 36.1737 4.15293C37.2212 3.67683 39.8634 4.10209 39.314 2.72772C41.6651 4.67679 49.2392 3.86943 46.3653 8.58263L45.9062 8.75058Z" fill="#283A84"/>
<path d="M45.2169 12.7863C43.2867 12.7863 41.722 11.7559 41.722 10.4848C41.722 9.21366 43.2867 8.18323 45.2169 8.18323C47.1471 8.18323 48.7119 9.21366 48.7119 10.4848C48.7119 11.7559 47.1471 12.7863 45.2169 12.7863Z" fill="#CDCCCC"/>
<path fill-rule="evenodd" clip-rule="evenodd" d="M45.2015 10.5699C40.8199 10.5699 37.076 12.3071 35.5784 14.7576C34.7741 15.0159 34.2207 15.5478 34.2207 16.1566C34.2248 16.359 34.2859 16.5585 34.4 16.742C34.5141 16.9256 34.6788 17.0891 34.8831 17.222C34.9572 20.8055 39.5486 23.6972 45.2015 23.6972C50.8544 23.6972 55.4294 20.8116 55.5158 17.2373C55.7293 17.104 55.9021 16.938 56.0224 16.7505C56.1427 16.563 56.2078 16.3584 56.2131 16.1504C56.2131 15.5355 55.6413 14.9928 54.8184 14.7392C53.3147 12.2948 49.577 10.5699 45.2015 10.5699Z" fill="#8B8A8A"/>
<path fill-rule="evenodd" clip-rule="evenodd" d="M46.8365 20.2875C42.9839 20.2875 39.8467 18.3005 39.8467 15.8549C39.8467 13.4094 42.9901 11.4224 46.8365 11.4224C50.683 11.4224 53.8264 13.4094 53.8264 15.8549C53.8264 18.3005 50.6912 20.2875 46.8365 20.2875Z" fill="#989898"/>
<path fill-rule="evenodd" clip-rule="evenodd" d="M48.9676 15.3435C47.5112 15.3435 46.3251 14.5771 46.3251 13.6387C46.3251 12.7002 47.5112 11.9338 48.9676 11.9338C50.4239 11.9338 51.6101 12.6987 51.6101 13.6387C51.6101 14.5787 50.4116 15.3435 48.9676 15.3435Z" fill="#ACACAC"/>
<path fill-rule="evenodd" clip-rule="evenodd" d="M45.1317 14.3207H45.2317C46.6255 14.3154 48.0088 14.5037 49.3141 14.8764L56.8951 17.0291V23.4436C53.5781 26.3792 49.7101 28.6782 45.1317 30.1756V14.3207Z" fill="#CDCCCC"/>
<path fill-rule="evenodd" clip-rule="evenodd" d="M46.8365 15.3435C47.4406 15.4199 48.0333 15.5429 48.6059 15.7105L50.0592 16.1289V26.864C49.0336 27.4553 47.9576 27.9921 46.8385 28.4707V15.3435H46.8365ZM50.7416 16.3257L53.0022 16.9768V24.9403C52.2876 25.4665 51.5347 25.9755 50.7416 26.4596V16.3257ZM53.6825 17.172L55.1902 17.6061V23.1743C54.7071 23.599 54.2046 24.0154 53.6825 24.4234V17.172Z" fill="#333333"/>
<path fill-rule="evenodd" clip-rule="evenodd" d="M45.1317 14.3207H45.0317C43.6414 14.3163 42.2615 14.5046 40.9595 14.8764L33.3683 17.0275V23.442C36.6873 26.3792 40.5553 28.6782 45.1317 30.1756V14.3207Z" fill="#B4B4B4"/>
<path fill-rule="evenodd" clip-rule="evenodd" d="M43.4269 15.3435C42.8104 15.4202 42.2055 15.5431 41.6209 15.7105L40.1376 16.1289V26.864C41.1847 27.455 42.2829 27.9918 43.4248 28.4707V15.3435H43.4269ZM39.4411 16.3257L37.1359 16.9768V24.9403C37.8632 25.4665 38.6316 25.9755 39.4411 26.4596V16.3257ZM36.4395 17.172L34.9027 17.6061V23.1743C35.3944 23.599 35.9066 24.0154 36.4395 24.4234V17.172Z" fill="#1A1A1A"/>
<path fill-rule="evenodd" clip-rule="evenodd" d="M46.0988 8.69464C45.4445 8.69464 45.1307 9.00067 45.397 9.37658C45.5656 9.57734 45.8075 9.74545 46.0995 9.86485C46.3915 9.98424 46.7239 10.0509 47.0648 10.0585C47.7171 10.0585 48.0309 9.75388 47.7646 9.37658C47.5959 9.17619 47.3542 9.00834 47.0627 8.88899C46.7711 8.76963 46.4393 8.70273 46.0988 8.69464Z" fill="#E3E3E3"/>
</g>
</g>
<g clip-path="url(#clip3_508_4810)">
<g filter="url(#filter3_d_508_4810)">
<path fill-rule="evenodd" clip-rule="evenodd" d="M29.573 47.4634L29.4365 47.534C29.2817 47.6171 29.1095 47.6624 28.9338 47.6662C28.7582 47.67 28.5842 47.6323 28.4259 47.556C28.2655 47.4845 28.1243 47.3762 28.0136 47.2399C27.9029 47.1036 27.8259 46.9431 27.7888 46.7714C27.475 45.4 26.8473 43.7242 25.9544 41.9935C25.0616 40.2628 24.0588 38.7815 23.1299 37.7318C23.0135 37.601 22.9285 37.4453 22.8815 37.2766C22.8345 37.108 22.8267 36.9308 22.8586 36.7587C22.8906 36.5865 22.9614 36.424 23.0658 36.2834C23.1702 36.1428 23.3054 36.028 23.461 35.9477L23.5991 35.8771L23.031 34.7787L20.3634 36.1532L17.6957 37.5262L18.2638 38.6246L18.4003 38.554C18.5566 38.4722 18.7296 38.4275 18.9059 38.4234C19.0822 38.4192 19.2572 38.4558 19.4171 38.5301C19.577 38.6045 19.7177 38.7147 19.8282 38.8521C19.9387 38.9896 20.016 39.1507 20.0542 39.3228C20.3681 40.6927 20.9958 42.3701 21.8886 44.0992C22.7815 45.8284 23.7842 47.3112 24.7132 48.361C24.8296 48.4919 24.9145 48.6477 24.9615 48.8165C25.0086 48.9852 25.0164 49.1625 24.9845 49.3348C24.9525 49.507 24.8816 49.6697 24.7772 49.8104C24.6729 49.9511 24.5377 50.0661 24.3821 50.1466L24.244 50.2172L24.812 51.3156L27.4797 49.9426L30.141 48.5634L29.573 47.4634Z" fill="#4592CF"/>
<path fill-rule="evenodd" clip-rule="evenodd" d="M22.7825 38.3794C22.3425 38.609 22.9535 40.6955 24.1491 43.0368C25.3448 45.3781 26.671 47.092 27.1032 46.8624C27.5354 46.6328 26.9322 44.5463 25.7366 42.205C24.5409 39.8638 23.2225 38.1499 22.7825 38.3794Z" fill="#283A84"/>
<path fill-rule="evenodd" clip-rule="evenodd" d="M3.3751 3.40967L4.80485 11.4889L18.1423 37.3359L22.4693 35.1028L9.13179 9.25577L3.3751 3.40967Z" fill="#D1D2D2"/>
<path fill-rule="evenodd" clip-rule="evenodd" d="M7.69107 7.77382L5.42025 6.295L6.21875 11.1149L18.2072 37.3359L4.81113 11.4889L3.3751 3.40967L7.69107 7.77382Z" fill="#E6E6E5"/>
<path fill-rule="evenodd" clip-rule="evenodd" d="M7.12574 10.7405L13.4275 23.6112L19.7309 36.4835L20.4189 36.1334L21.1054 35.7833L14.1156 23.2627L7.12574 10.7405Z" fill="#818181"/>
<path fill-rule="evenodd" clip-rule="evenodd" d="M23.7874 33.5505L16.1589 37.5091C15.7667 37.2252 15.2908 37.0824 14.808 37.1037C14.3251 37.1251 13.8635 37.3094 13.4976 37.6268C13.1317 37.9443 12.8827 38.3765 12.7909 38.8536C12.6991 39.3308 12.7697 39.8251 12.9914 40.257C13.2132 40.6888 13.5731 41.033 14.0131 41.234C14.4531 41.4349 14.9476 41.481 15.4169 41.3648C15.8861 41.2485 16.3028 40.9768 16.5997 40.5932C16.8965 40.2097 17.0563 39.7368 17.0532 39.2508L24.6817 35.2923C25.0745 35.577 25.5511 35.7203 26.0348 35.6992C26.5185 35.6781 26.9809 35.4937 27.3476 35.1758C27.7143 34.8579 27.9638 34.4251 28.0559 33.9471C28.148 33.4691 28.0773 32.9739 27.8552 32.5413C27.633 32.1087 27.2725 31.764 26.8316 31.5627C26.3908 31.3615 25.8954 31.3155 25.4254 31.4321C24.9553 31.5487 24.5381 31.8212 24.2409 32.2055C23.9437 32.5899 23.784 33.0637 23.7874 33.5505Z" fill="#333333"/>
</g>
</g>
<defs>
<filter id="filter0_d_508_4810" x="52.0714" y="28.5428" width="30.213" height="34.8591" filterUnits="userSpaceOnUse" color-interpolation-filters="sRGB">
<feFlood flood-opacity="0" result="BackgroundImageFix"/>
<feColorMatrix in="SourceAlpha" type="matrix" values="0 0 0 0 0 0 0 0 0 0 0 0 0 0 0 0 0 0 127 0" result="hardAlpha"/>
<feOffset dx="-4" dy="4"/>
<feGaussianBlur stdDeviation="2"/>
<feComposite in2="hardAlpha" operator="out"/>
<feColorMatrix type="matrix" values="0 0 0 0 0 0 0 0 0 0 0 0 0 0 0 0 0 0 0.25 0"/>
<feBlend mode="normal" in2="BackgroundImageFix" result="effect1_dropShadow_508_4810"/>
<feBlend mode="normal" in="SourceGraphic" in2="effect1_dropShadow_508_4810" result="shape"/>
</filter>
<filter id="filter1_d_508_4810" x="58.9166" y="28.8316" width="23.3679" height="34.5703" filterUnits="userSpaceOnUse" color-interpolation-filters="sRGB">
<feFlood flood-opacity="0" result="BackgroundImageFix"/>
<feColorMatrix in="SourceAlpha" type="matrix" values="0 0 0 0 0 0 0 0 0 0 0 0 0 0 0 0 0 0 127 0" result="hardAlpha"/>
<feOffset dx="-4" dy="4"/>
<feGaussianBlur stdDeviation="2"/>
<feComposite in2="hardAlpha" operator="out"/>
<feColorMatrix type="matrix" values="0 0 0 0 0 0 0 0 0 0 0 0 0 0 0 0 0 0 0.25 0"/>
<feBlend mode="normal" in2="BackgroundImageFix" result="effect1_dropShadow_508_4810"/>
<feBlend mode="normal" in="SourceGraphic" in2="effect1_dropShadow_508_4810" result="shape"/>
</filter>
<filter id="filter2_d_508_4810" x="18.9357" y="-4.97711" width="47.9593" height="49.1527" filterUnits="userSpaceOnUse" color-interpolation-filters="sRGB">
<feFlood flood-opacity="0" result="BackgroundImageFix"/>
<feColorMatrix in="SourceAlpha" type="matrix" values="0 0 0 0 0 0 0 0 0 0 0 0 0 0 0 0 0 0 127 0" result="hardAlpha"/>
<feOffset dy="4"/>
<feGaussianBlur stdDeviation="5"/>
<feComposite in2="hardAlpha" operator="out"/>
<feColorMatrix type="matrix" values="0 0 0 0 0 0 0 0 0 0 0 0 0 0 0 0 0 0 0.5 0"/>
<feBlend mode="normal" in2="BackgroundImageFix" result="effect1_dropShadow_508_4810"/>
<feBlend mode="normal" in="SourceGraphic" in2="effect1_dropShadow_508_4810" result="shape"/>
</filter>
<filter id="filter3_d_508_4810" x="-6.6249" y="-2.59033" width="46.7659" height="67.9059" filterUnits="userSpaceOnUse" color-interpolation-filters="sRGB">
<feFlood flood-opacity="0" result="BackgroundImageFix"/>
<feColorMatrix in="SourceAlpha" type="matrix" values="0 0 0 0 0 0 0 0 0 0 0 0 0 0 0 0 0 0 127 0" result="hardAlpha"/>
<feOffset dy="4"/>
<feGaussianBlur stdDeviation="5"/>
<feComposite in2="hardAlpha" operator="out"/>
<feColorMatrix type="matrix" values="0 0 0 0 0 0 0 0 0 0 0 0 0 0 0 0 0 0 0.5 0"/>
<feBlend mode="normal" in2="BackgroundImageFix" result="effect1_dropShadow_508_4810"/>
<feBlend mode="normal" in="SourceGraphic" in2="effect1_dropShadow_508_4810" result="shape"/>
</filter>
<clipPath id="clip0_508_4810">
<rect width="30" height="32.6762" fill="white" transform="translate(30.0001 31)"/>
</clipPath>
<clipPath id="clip1_508_4810">
<rect width="35.8257" height="35.8257" fill="white" transform="translate(55.152 19.739) rotate(13.4168)"/>
</clipPath>
<clipPath id="clip2_508_4810">
<rect width="30.6871" height="31.9862" fill="white" transform="matrix(-1 0 0 1 57.7475 0)"/>
</clipPath>
<clipPath id="clip3_508_4810">
<rect width="28.9942" height="52.0657" fill="white" transform="matrix(-1 0 0 1 29.9706 0)"/>
</clipPath>
</defs>
</svg>
