<svg width="89" height="71" viewBox="0 0 89 71" fill="none" xmlns="http://www.w3.org/2000/svg">
<rect x="21.5026" y="24.1279" width="45.9342" height="45.9342" rx="22.9671" fill="#E61D2B"/>
<rect x="21.5026" y="24.1279" width="45.9342" height="45.9342" rx="22.9671" stroke="#CDCCCC"/>
<g clip-path="url(#clip0_508_4682)">
<path d="M50.8182 42.8187C50.8182 42.8187 50.1808 43.0724 49.4396 43.8894C48.6983 44.7064 48.2666 45.6251 48.5861 45.8695C48.7088 45.9623 48.9918 45.98 49.5053 45.5157C49.9793 45.1042 50.3513 44.5884 50.5921 44.0088C50.9238 43.2001 50.8182 42.8286 50.8182 42.8198M54.875 44.2885C54.0513 43.8662 53.4494 43.3488 52.8231 43.0288C52.2255 42.722 51.8391 42.5937 51.356 42.6584C51.2886 42.6704 51.2221 42.687 51.157 42.7081C51.157 42.7081 51.4058 43.5578 50.4158 44.985C49.413 46.4322 48.5032 46.4222 48.2445 46.0248C47.9736 45.6052 48.3235 44.7501 48.9078 43.9889C49.5197 43.1929 50.5943 42.5329 50.5943 42.5329C50.5943 42.5329 50.2516 42.3234 49.4103 42.8005C48.5894 43.2637 47.1765 44.3692 45.8653 46.2337C44.5541 48.0982 44.2943 49.1242 44.1064 49.9318C43.9185 50.7394 44.0893 51.6045 44.9848 51.6045C45.8802 51.6045 46.9228 50.2386 47.2169 49.7637C47.7635 48.8793 48.1201 47.5228 47.3761 47.7091C47.0096 47.8008 46.7127 48.2066 46.5253 48.5974C46.407 48.8484 46.3166 49.1116 46.2556 49.3823C45.9956 49.4895 45.7514 49.6316 45.5298 49.8047C45.2832 49.9873 45.0528 50.1907 44.841 50.4127C44.841 50.4127 44.8444 49.7671 45.359 48.7223C45.8736 47.6776 46.8183 47.2005 47.3534 47.1558C47.8354 47.1171 48.4628 47.5261 47.931 49.0352C47.3993 50.5443 45.8305 52.3789 44.1827 52.4016C42.662 52.4226 41.667 50.4818 43.7836 47.095C46.1262 43.3532 48.8741 42.2051 49.7662 42.0774C50.6584 41.9497 50.9486 42.3433 50.9486 42.3433C51.4857 42.123 52.0657 42.0273 52.6451 42.0636C53.7346 42.1371 54.577 42.9082 55.6892 43.45C55.4001 43.7264 55.1243 44.0166 54.8755 44.2885M59.7698 43.0288C59.0147 43.513 57.97 43.9519 56.9661 43.8579C56.7118 44.1205 56.4399 44.4245 56.1674 44.7562C57.9081 45.1005 59.4332 44.0221 60.2441 43.1039C60.5397 42.7738 60.7937 42.4087 61.0003 42.0166C60.6311 42.4012 60.2179 42.7409 59.7692 43.0288M57.4515 47.933C57.4646 47.91 57.4754 47.8857 57.4835 47.8605C57.4784 47.8207 57.4597 47.7838 57.4306 47.756C57.4015 47.7283 57.3638 47.7113 57.3238 47.708C57.1579 47.7002 56.9319 47.7318 56.3387 48.3884C55.8467 48.9308 55.4232 49.5315 55.0778 50.1772C54.7384 50.7974 54.6008 51.2596 54.7959 51.379C54.8593 51.4118 54.9328 51.4193 55.0016 51.4C55.1337 51.3684 55.2835 51.2446 55.5112 50.981C55.6179 50.8571 55.7362 50.6819 55.8777 50.4879C56.2702 49.9539 57.2563 48.2729 57.4515 47.933ZM51.2902 48.6471C51.3892 48.3884 51.5152 47.8804 51.2532 47.6809C50.9718 47.4692 50.2543 47.9661 50.2505 48.4758C50.2455 48.9976 50.7557 49.2336 50.8779 49.2668C50.9475 49.2856 50.9718 49.2828 51.0056 49.227C51.1138 49.0405 51.2089 48.8468 51.2902 48.6471ZM50.7474 49.5963C50.5696 49.5142 50.4038 49.4084 50.2543 49.2817C50.1045 49.1561 49.9793 49.0037 49.8851 48.8323C49.8751 48.8157 49.8652 48.8285 49.8541 48.8434C49.8431 48.8583 49.7989 48.8987 49.4163 49.4592C49.0338 50.0197 48.4462 51.1811 48.978 51.379C49.3185 51.5055 49.8851 50.9091 50.1941 50.5139C50.4046 50.238 50.5954 49.9476 50.7651 49.6449C50.7811 49.6112 50.7651 49.6034 50.748 49.5963M56.7798 50.9378C56.6356 51.1689 56.4708 51.6122 56.9457 51.3364C57.5266 51.0009 58.3541 49.7455 58.3541 49.7455H58.7295C58.388 50.2706 58.0077 50.7695 57.5919 51.238C57.0032 51.8903 56.2851 52.4828 55.7793 52.4242C55.1884 52.3552 55.3736 51.5796 55.3736 51.5796C55.3736 51.5796 54.5284 52.4795 53.9436 52.4149C53.1536 52.3275 53.3947 51.3513 53.3947 51.3513C53.3947 51.3513 52.5014 52.4475 51.8928 52.4137C50.9387 52.3585 51.1786 51.1976 51.4439 50.3801C51.586 49.9428 51.7175 49.5996 51.7175 49.5996C51.7175 49.5996 51.623 49.6244 51.4196 49.6549C51.3135 49.6698 51.12 49.6808 51.12 49.6808C51.12 49.6808 50.7225 50.3817 50.4047 50.803C50.0869 51.2242 48.7359 52.6763 47.941 52.3856C47.2058 52.1169 47.449 50.9915 47.8769 50.0971C48.5015 48.7931 50.2582 46.9197 51.2714 47.1674C52.3217 47.4222 51.2952 49.3387 51.2952 49.3387C51.2952 49.3387 51.2952 49.3459 51.3063 49.3508C51.3273 49.3586 51.382 49.3646 51.5086 49.3398C51.6398 49.313 51.7683 49.2747 51.8928 49.2253C51.8928 49.2253 52.9486 47.0143 54.1149 45.5676C55.2813 44.121 57.6079 41.6297 58.5211 42.2322C58.7422 42.3804 58.6427 42.8906 58.342 43.5097C58.2065 43.5537 58.0689 43.5906 57.9296 43.6202C58.1308 43.2548 58.264 42.9469 58.3038 42.7319C58.4415 41.9846 56.6964 43.5611 55.4493 45.2548C54.6982 46.2758 54.0308 47.356 53.4538 48.4846C53.6791 48.3472 53.8941 48.1937 54.0972 48.0253C54.6535 47.564 55.1821 47.0705 55.6804 46.5472C56.1602 46.056 56.6102 45.5365 57.028 44.9917C57.1608 44.9852 57.2931 44.9716 57.4244 44.9507C56.9688 45.5691 56.472 46.156 55.9374 46.7075C55.4399 47.2105 54.9015 47.7517 54.4339 48.1447C54.0162 48.4999 53.5756 48.8273 53.115 49.1247C53.115 49.1247 52.0243 51.3242 52.6175 51.4652C52.9663 51.5492 53.655 50.4884 53.655 50.4884C53.655 50.4884 54.5538 49.117 55.0955 48.4984C55.8346 47.6582 56.4708 47.1718 57.1065 47.1629C57.4769 47.1563 57.6952 47.5499 57.6952 47.5499L57.8694 47.2801H58.9417C58.9417 47.2801 56.939 50.6786 56.7787 50.9345M59.7692 43.0288C59.0142 43.513 57.9694 43.9519 56.9656 43.8579C56.7113 44.1205 56.4393 44.4245 56.1668 44.7562C57.9075 45.1005 59.4326 44.0221 60.2435 43.1039C60.5393 42.7739 60.7935 42.4087 61.0003 42.0166C60.6311 42.4012 60.2179 42.7409 59.7692 43.0288ZM44.7089 44.6959H43.6891L43.1125 45.6273H44.1324L44.7089 44.6959ZM39.8799 47.9214C40.3138 47.3266 41.5111 45.2421 41.5111 45.2421C41.5061 45.2022 41.4875 45.1654 41.4585 45.1376C41.4296 45.1098 41.3919 45.0928 41.3519 45.0895C41.1861 45.0818 40.9097 45.1376 40.3608 45.8247C39.8119 46.5118 39.3857 47.0585 39.0751 47.6273C38.7345 48.248 38.5858 48.6858 38.7815 48.8047C38.845 48.8365 38.918 48.844 38.9866 48.8257C39.1137 48.7936 39.2801 48.6659 39.5084 48.4034C39.6157 48.2807 39.7373 48.1154 39.8799 47.9214ZM34.4074 45.1022C34.1255 44.8894 33.4086 45.3874 33.4047 45.896C33.4003 46.4184 34.0498 46.5781 34.1338 46.582C34.1585 46.584 34.1833 46.5789 34.2051 46.5671C34.2201 46.5583 34.2321 46.5452 34.2394 46.5295C34.3158 46.3794 34.3844 46.2255 34.445 46.0685C34.544 45.8098 34.6694 45.3018 34.4074 45.1022ZM33.9823 46.9004C33.788 46.8397 33.6022 46.7542 33.4296 46.6461C33.2623 46.5371 33.1263 46.3864 33.0349 46.2089C33.0249 46.1923 33.0139 46.205 33.0039 46.2199C32.994 46.2348 32.9365 46.3067 32.5529 46.8694C32.1693 47.4321 31.601 48.583 32.1333 48.7809C32.4727 48.9097 33.046 48.3083 33.3572 47.9147C33.5901 47.6054 33.8052 47.2832 34.0017 46.9496C34.0144 46.9159 34.0017 46.9081 33.9829 46.902M42.3121 47.247H42.6858C42.6858 47.247 40.8135 49.9556 39.7561 49.8295C39.1657 49.7604 39.3409 49.0319 39.3409 49.0319C39.3409 49.0319 38.5118 50.0025 37.7501 49.8058C37.0591 49.6283 37.5052 48.4791 37.5052 48.4791C37.4267 48.5106 35.9314 50.196 34.8806 49.7919C33.7811 49.3674 34.3522 47.9562 34.5611 47.5316C34.7385 47.174 34.9348 46.8258 34.9348 46.8258C34.9348 46.8258 34.7662 46.8733 34.6584 46.8976C34.5506 46.9219 34.3947 46.9529 34.3947 46.9529C34.3947 46.9529 33.8746 47.7981 33.5567 48.2199C33.2389 48.6416 31.8879 50.091 31.0919 49.8024C30.2959 49.5139 30.4932 48.4001 30.9404 47.5156C31.6657 46.0812 33.3865 44.3184 34.4229 44.5859C35.4699 44.8529 34.6031 46.551 34.6031 46.551C34.6031 46.551 34.8115 46.5781 35.3107 46.2376C36.0293 45.7473 36.9778 44.4284 38.0049 44.5832C38.4891 44.6561 38.9402 45.1509 38.3233 46.0906C38.1265 46.3924 37.7965 46.6621 37.5439 46.3951C37.3863 46.2293 37.524 45.9269 37.6892 45.7202C37.7536 45.6359 37.8376 45.5688 37.934 45.5246C38.0304 45.4805 38.1362 45.4607 38.242 45.467C38.242 45.467 38.4117 45.0801 37.98 45.0856C37.6307 45.0923 36.7462 45.9065 36.2471 46.729C35.7894 47.4841 35.0956 48.7704 35.7921 49.0507C36.4306 49.3083 37.6456 47.8661 38.2083 47.1104C38.771 46.3548 40.0535 44.6423 41.1292 44.5738C41.4995 44.5494 41.7201 44.8872 41.7201 44.8872L41.8444 44.6904H42.9201C42.9201 44.6904 40.8942 48.0712 40.7361 48.3271C40.6118 48.5272 40.4465 48.9772 40.902 48.7251C41.3575 48.473 42.3121 47.247 42.3121 47.247ZM41.7267 52.6642C40.9347 52.1159 39.9863 51.8391 39.0236 51.8753C38.7631 51.8824 38.5079 51.9509 38.2787 52.075C38.0496 52.1992 37.8529 52.3757 37.7047 52.5901C37.2946 51.8742 36.4837 51.4348 35.23 51.4447C33.204 51.4679 31.1947 52.4021 29.6027 52.401C28.0771 52.401 26.9643 51.442 27.0003 49.7389C27.0672 46.75 29.5928 44.0586 31.4777 42.8474C32.5645 42.1515 33.4732 41.9448 34.0675 42.0117C34.5009 42.0597 35.0221 42.5606 34.6932 43.2985C34.2101 44.377 33.5429 44.2885 33.5678 43.7728C33.5816 43.4373 33.8049 43.2261 33.973 43.1095C34.0796 43.0359 34.2681 43.0149 34.3665 43.0127C34.4622 42.932 34.5324 42.3417 33.7585 42.5357C32.9846 42.7297 32.0449 43.4925 31.1527 44.4781C30.2605 45.4637 28.8714 47.3266 28.5281 49.2828C28.3678 50.1899 28.4729 51.8444 30.6237 51.8256C32.4478 51.8107 35.1365 50.6095 37.6074 50.6344C38.5665 50.6438 39.4012 50.9025 40.0518 51.3038C40.6908 51.6973 41.457 52.2722 41.7289 52.6647" fill="white"/>
</g>
<g filter="url(#filter0_d_508_4682)">
<path d="M22.9949 55.2288L23.6062 54.4472C26.9586 50.1445 31.1292 44.7916 29.4182 37.6186L27.7878 30.7841L26.5817 31.0718C22.227 32.1106 18.4897 30.9927 17.8883 28.4716L15.4761 29.047C16.0775 31.5681 13.2472 34.2527 8.89247 35.2914L7.68637 35.5792L9.31669 42.4136C11.0278 49.5866 17.1657 52.4805 22.0976 54.8059L22.9949 55.2288Z" fill="#D84025"/>
</g>
<g filter="url(#filter1_d_508_4682)">
<path d="M8.89243 35.2915C13.2471 34.2527 16.0775 31.5682 15.4761 29.047L16.6822 28.7593L22.996 55.2274L22.9948 55.2289L22.0975 54.8059C17.1657 52.4806 11.0277 49.5868 9.31664 42.4137L7.68632 35.5792L8.89243 35.2915Z" fill="#A13023"/>
</g>
<g clip-path="url(#clip1_508_4682)">
<g filter="url(#filter2_d_508_4682)">
<path fill-rule="evenodd" clip-rule="evenodd" d="M54.4434 22.5884C54.7526 23.844 55.0605 25.0986 55.367 26.3521C52.5429 27.9684 48.9769 28.8709 44.4974 28.8724V23.689L54.4434 22.5884Z" fill="#535353"/>
<path fill-rule="evenodd" clip-rule="evenodd" d="M34.5597 22.5884C34.2464 23.844 33.9357 25.0986 33.6278 26.3521C36.4581 27.9684 40.016 28.8709 44.4974 28.8724V23.689L34.5597 22.5884Z" fill="#676767"/>
<path fill-rule="evenodd" clip-rule="evenodd" d="M42.2742 9.0759C35.8217 3.36948 48.0228 3.91021 51.4613 1.01904C51.704 1.26047 51.8479 1.55073 51.8751 1.85375C51.9023 2.15677 51.8117 2.45917 51.6143 2.72338C53.1408 3.67161 55.8242 2.37786 57.2792 4.1953C55.6304 4.12403 54.6264 4.61829 54.0142 5.27988C58.5363 4.75618 56.767 7.94329 60.632 8.12302C57.7527 9.34239 50.9899 7.00126 46.8086 9.8506C44.921 9.79792 44.1618 9.13323 42.2742 9.0759Z" fill="#A23023"/>
<path fill-rule="evenodd" clip-rule="evenodd" d="M60.63 8.0703C57.7798 9.32968 51.0666 6.93003 46.9159 9.85058C46.1435 9.81775 45.3835 9.6841 44.6673 9.45514C50.0962 4.6606 54.9134 8.91676 60.632 8.0703H60.63Z" fill="#1A1A1A"/>
<path fill-rule="evenodd" clip-rule="evenodd" d="M42.6511 8.59114C43.3962 8.64919 44.1271 8.78313 44.8233 8.9892L44.8724 9.0014C44.6293 8.72992 44.3902 8.45845 44.1552 8.18697C42.0199 6.3705 46.5139 4.22155 49.2393 3.78078C50.2209 4.41524 51.7332 4.11479 52.5078 4.56013C51.8398 5.10004 51.4258 6.03344 50.7557 6.57335C58.4075 5.79857 54.9218 7.64096 58.594 7.99785C58.3468 7.87286 58.1223 7.72472 57.9259 7.55708C56.6964 6.51234 56.8788 5.37152 54.1984 5.67655L52.7066 5.84585C52.9703 5.57335 53.236 5.30136 53.5037 5.02988C54.108 4.39931 55.0175 3.9679 56.0407 3.82653C55.8008 3.72209 55.5366 3.65224 55.262 3.62064C55.0001 3.59114 54.7358 3.57534 54.471 3.57336C53.2783 3.552 52.141 3.62216 51.1922 3.05175L50.8398 2.8367C50.9094 2.74214 50.9811 2.64911 51.0447 2.55607C51.2033 2.34726 51.2699 2.1067 51.2353 1.86823C50.0057 2.56217 48.3049 3.02887 46.8479 3.41626C45.6942 3.7213 44.4831 4.02633 43.3888 4.40609C42.6163 4.67757 41.7494 5.05429 41.3396 5.56979C40.5957 6.53064 41.7453 7.77975 42.6511 8.59114Z" fill="#EF4123"/>
<path fill-rule="evenodd" clip-rule="evenodd" d="M43.7259 8.71744C44.1136 8.79334 44.496 8.88402 44.8715 8.98912L44.9205 9.0014C44.6782 8.72818 44.4399 8.45496 44.2058 8.18175C42.078 6.35365 46.5562 4.19094 49.2721 3.74734C50.2502 4.38587 51.7572 4.08349 52.5291 4.53169C51.8634 5.07506 51.4509 6.01443 50.7832 6.55779C58.4081 5.77805 54.9346 7.63224 58.594 7.99142C56.6888 7.61843 56.7235 6.27076 55.6412 5.94689C54.5589 5.62302 53.1295 6.369 52.039 6.04513C52.1534 5.42041 52.67 4.91235 53.4215 4.13721C52.378 3.66292 49.7458 4.08656 50.2931 2.71741C47.9509 4.65909 40.4055 3.85479 43.2685 8.55013L43.7259 8.71744Z" fill="#D03927"/>
<path d="M44.4125 12.7378C46.3354 12.7378 47.8942 11.7113 47.8942 10.445C47.8942 9.17875 46.3354 8.15222 44.4125 8.15222C42.4896 8.15222 40.9308 9.17875 40.9308 10.445C40.9308 11.7113 42.4896 12.7378 44.4125 12.7378Z" fill="#CDCCCC"/>
<path fill-rule="evenodd" clip-rule="evenodd" d="M44.4279 10.53C48.7929 10.53 52.5226 12.2606 54.0145 14.7018C54.8158 14.9591 55.3671 15.489 55.3671 16.0954C55.363 16.2971 55.3022 16.4958 55.1885 16.6787C55.0748 16.8615 54.9108 17.0244 54.7072 17.1568C54.6334 20.7267 50.0594 23.6075 44.4279 23.6075C38.7964 23.6075 34.2388 20.7328 34.1527 17.1721C33.94 17.0393 33.7679 16.8739 33.648 16.6871C33.5282 16.5003 33.4634 16.2964 33.458 16.0893C33.458 15.4767 34.0277 14.9361 34.8474 14.6834C36.3455 12.2483 40.069 10.53 44.4279 10.53Z" fill="#8B8A8A"/>
<path fill-rule="evenodd" clip-rule="evenodd" d="M42.7991 20.2107C46.6371 20.2107 49.7624 18.2312 49.7624 15.7949C49.7624 13.3586 46.6309 11.3792 42.7991 11.3792C38.9672 11.3792 35.8357 13.3586 35.8357 15.7949C35.8357 18.2312 38.959 20.2107 42.7991 20.2107Z" fill="#989898"/>
<path fill-rule="evenodd" clip-rule="evenodd" d="M40.6761 15.2854C42.1269 15.2854 43.3086 14.5219 43.3086 13.587C43.3086 12.6522 42.1269 11.8887 40.6761 11.8887C39.2252 11.8887 38.0436 12.6506 38.0436 13.587C38.0436 14.5235 39.2376 15.2854 40.6761 15.2854Z" fill="#ACACAC"/>
<path fill-rule="evenodd" clip-rule="evenodd" d="M44.4974 14.2665H44.3978C43.0093 14.2611 41.6312 14.4487 40.3309 14.82L32.7787 16.9646V23.3547C36.083 26.2792 39.9364 28.5695 44.4974 30.0613V14.2665Z" fill="#CDCCCC"/>
<path fill-rule="evenodd" clip-rule="evenodd" d="M42.7991 15.2854C42.1973 15.3616 41.6068 15.484 41.0364 15.651L39.5886 16.0678V26.7622C40.6103 27.3513 41.6823 27.8861 42.7971 28.3629V15.2854H42.7991ZM38.9088 16.2638L36.6568 16.9125V24.8458C37.3687 25.37 38.1187 25.8771 38.9088 26.3593V16.2638ZM35.979 17.1069L34.477 17.5394V23.0865C34.9583 23.5096 35.459 23.9244 35.979 24.3309V17.1069Z" fill="#333333"/>
<path fill-rule="evenodd" clip-rule="evenodd" d="M44.4974 14.2664H44.5971C45.9821 14.262 47.3567 14.4496 48.6538 14.82L56.2162 16.963V23.3532C52.9098 26.2792 49.0564 28.5695 44.4974 30.0613V14.2664Z" fill="#B4B4B4"/>
<path fill-rule="evenodd" clip-rule="evenodd" d="M46.1958 15.2854C46.8099 15.3618 47.4126 15.4842 47.9949 15.651L49.4726 16.0678V26.7622C48.4295 27.351 47.3354 27.8857 46.1979 28.3629V15.2854H46.1958ZM50.1665 16.2638L52.4629 16.9125V24.8458C51.7384 25.37 50.9729 25.8771 50.1665 26.3593V16.2638ZM53.1568 17.1069L54.6877 17.5394V23.0865C54.1979 23.5096 53.6875 23.9244 53.1568 24.3309V17.1069Z" fill="#1A1A1A"/>
<path fill-rule="evenodd" clip-rule="evenodd" d="M43.534 8.66174C44.1859 8.66174 44.4984 8.96662 44.2332 9.34109C44.0652 9.54109 43.8242 9.70857 43.5333 9.82751C43.2424 9.94646 42.9113 10.0129 42.5716 10.0204C41.9218 10.0204 41.6093 9.71696 41.8745 9.34109C42.0426 9.14147 42.2834 8.97426 42.5738 8.85535C42.8643 8.73645 43.1948 8.6698 43.534 8.66174Z" fill="#E3E3E3"/>
</g>
</g>
<g clip-path="url(#clip2_508_4682)">
<g filter="url(#filter3_d_508_4682)">
<path fill-rule="evenodd" clip-rule="evenodd" d="M60.009 47.2835L60.145 47.3539C60.2992 47.4366 60.4708 47.4817 60.6458 47.4855C60.8207 47.4893 60.9941 47.4517 61.1518 47.3757C61.3116 47.3045 61.4523 47.1966 61.5626 47.0608C61.6728 46.925 61.7495 46.7651 61.7865 46.5942C62.0991 45.2279 62.7244 43.5585 63.6139 41.8343C64.5034 40.1101 65.5023 38.6345 66.4278 37.5887C66.5437 37.4584 66.6283 37.3033 66.6752 37.1353C66.722 36.9673 66.7298 36.7908 66.698 36.6193C66.6661 36.4478 66.5955 36.2859 66.4915 36.1459C66.3875 36.0058 66.2529 35.8914 66.0979 35.8114L65.9603 35.7411L66.5262 34.6469L69.1838 36.0162L71.8413 37.384L71.2754 38.4782L71.1394 38.4078C70.9837 38.3264 70.8114 38.2819 70.6357 38.2777C70.46 38.2736 70.2858 38.31 70.1265 38.3841C69.9671 38.4581 69.827 38.5679 69.7169 38.7049C69.6068 38.8418 69.5298 39.0023 69.4917 39.1738C69.1791 40.5384 68.5538 42.2095 67.6643 43.9321C66.7748 45.6547 65.7759 47.1319 64.8504 48.1776C64.7345 48.3081 64.6498 48.4633 64.603 48.6314C64.5562 48.7996 64.5484 48.9762 64.5802 49.1478C64.612 49.3194 64.6826 49.4814 64.7866 49.6216C64.8906 49.7618 65.0253 49.8763 65.1803 49.9565L65.3178 50.0269L64.7519 51.1211L62.0944 49.7533L59.4431 48.3793L60.009 47.2835Z" fill="#CA3927"/>
<path fill-rule="evenodd" clip-rule="evenodd" d="M66.7738 38.234C67.2121 38.4627 66.6034 40.5413 65.4123 42.8737C64.2213 45.2061 62.9001 46.9135 62.4695 46.6848C62.0389 46.4561 62.6399 44.3775 63.8309 42.0451C65.022 39.7127 66.3355 38.0053 66.7738 38.234Z" fill="#F04B23"/>
<path fill-rule="evenodd" clip-rule="evenodd" d="M86.1077 3.39673L84.6833 11.4454L71.3964 37.1944L67.0858 34.9697L80.3728 9.22068L86.1077 3.39673Z" fill="#D1D2D2"/>
<path fill-rule="evenodd" clip-rule="evenodd" d="M81.808 7.74434L84.0703 6.27113L83.2748 11.0728L71.3318 37.1944L84.6771 11.4454L86.1077 3.39673L81.808 7.74434Z" fill="#E6E6E5"/>
<path fill-rule="evenodd" clip-rule="evenodd" d="M82.3712 10.6998L76.0933 23.5217L69.8138 36.3452L69.1284 35.9965L68.4445 35.6477L75.4079 23.1745L82.3712 10.6998Z" fill="#818181"/>
<path fill-rule="evenodd" clip-rule="evenodd" d="M65.7727 33.4234L73.3723 37.3669C73.7631 37.0841 74.2371 36.9418 74.7181 36.9631C75.1991 36.9844 75.659 37.168 76.0235 37.4842C76.3881 37.8005 76.6361 38.231 76.7275 38.7064C76.819 39.1817 76.7486 39.6742 76.5278 40.1044C76.3069 40.5346 75.9483 40.8775 75.51 41.0777C75.0716 41.2779 74.579 41.3238 74.1115 41.208C73.644 41.0922 73.2289 40.8214 72.9332 40.4394C72.6375 40.0573 72.4783 39.5862 72.4814 39.1021L64.8818 35.1585C64.4905 35.4422 64.0157 35.585 63.5338 35.5639C63.052 35.5429 62.5913 35.3592 62.226 35.0425C61.8607 34.7258 61.6121 34.2946 61.5204 33.8185C61.4286 33.3423 61.4991 32.8489 61.7204 32.418C61.9417 31.987 62.3009 31.6436 62.74 31.4431C63.1792 31.2426 63.6727 31.1968 64.1409 31.3129C64.6092 31.4291 65.0249 31.7005 65.3209 32.0834C65.617 32.4663 65.7761 32.9384 65.7727 33.4234Z" fill="#333333"/>
</g>
</g>
<defs>
<filter id="filter0_d_508_4682" x="3.68637" y="28.4716" width="30.1288" height="34.7572" filterUnits="userSpaceOnUse" color-interpolation-filters="sRGB">
<feFlood flood-opacity="0" result="BackgroundImageFix"/>
<feColorMatrix in="SourceAlpha" type="matrix" values="0 0 0 0 0 0 0 0 0 0 0 0 0 0 0 0 0 0 127 0" result="hardAlpha"/>
<feOffset dy="4"/>
<feGaussianBlur stdDeviation="2"/>
<feComposite in2="hardAlpha" operator="out"/>
<feColorMatrix type="matrix" values="0 0 0 0 0 0 0 0 0 0 0 0 0 0 0 0 0 0 0.25 0"/>
<feBlend mode="normal" in2="BackgroundImageFix" result="effect1_dropShadow_508_4682"/>
<feBlend mode="normal" in="SourceGraphic" in2="effect1_dropShadow_508_4682" result="shape"/>
</filter>
<filter id="filter1_d_508_4682" x="3.68631" y="28.7593" width="23.3096" height="34.4695" filterUnits="userSpaceOnUse" color-interpolation-filters="sRGB">
<feFlood flood-opacity="0" result="BackgroundImageFix"/>
<feColorMatrix in="SourceAlpha" type="matrix" values="0 0 0 0 0 0 0 0 0 0 0 0 0 0 0 0 0 0 127 0" result="hardAlpha"/>
<feOffset dy="4"/>
<feGaussianBlur stdDeviation="2"/>
<feComposite in2="hardAlpha" operator="out"/>
<feColorMatrix type="matrix" values="0 0 0 0 0 0 0 0 0 0 0 0 0 0 0 0 0 0 0.25 0"/>
<feBlend mode="normal" in2="BackgroundImageFix" result="effect1_dropShadow_508_4682"/>
<feBlend mode="normal" in="SourceGraphic" in2="effect1_dropShadow_508_4682" result="shape"/>
</filter>
<filter id="filter2_d_508_4682" x="22.7787" y="-4.98096" width="47.8534" height="49.0422" filterUnits="userSpaceOnUse" color-interpolation-filters="sRGB">
<feFlood flood-opacity="0" result="BackgroundImageFix"/>
<feColorMatrix in="SourceAlpha" type="matrix" values="0 0 0 0 0 0 0 0 0 0 0 0 0 0 0 0 0 0 127 0" result="hardAlpha"/>
<feOffset dy="4"/>
<feGaussianBlur stdDeviation="5"/>
<feComposite in2="hardAlpha" operator="out"/>
<feColorMatrix type="matrix" values="0 0 0 0 0 0 0 0 0 0 0 0 0 0 0 0 0 0 0.5 0"/>
<feBlend mode="normal" in2="BackgroundImageFix" result="effect1_dropShadow_508_4682"/>
<feBlend mode="normal" in="SourceGraphic" in2="effect1_dropShadow_508_4682" result="shape"/>
</filter>
<filter id="filter3_d_508_4682" x="49.4431" y="-2.60327" width="46.6645" height="67.7244" filterUnits="userSpaceOnUse" color-interpolation-filters="sRGB">
<feFlood flood-opacity="0" result="BackgroundImageFix"/>
<feColorMatrix in="SourceAlpha" type="matrix" values="0 0 0 0 0 0 0 0 0 0 0 0 0 0 0 0 0 0 127 0" result="hardAlpha"/>
<feOffset dy="4"/>
<feGaussianBlur stdDeviation="5"/>
<feComposite in2="hardAlpha" operator="out"/>
<feColorMatrix type="matrix" values="0 0 0 0 0 0 0 0 0 0 0 0 0 0 0 0 0 0 0.5 0"/>
<feBlend mode="normal" in2="BackgroundImageFix" result="effect1_dropShadow_508_4682"/>
<feBlend mode="normal" in="SourceGraphic" in2="effect1_dropShadow_508_4682" result="shape"/>
</filter>
<clipPath id="clip0_508_4682">
<rect width="34" height="10.6652" fill="white" transform="translate(27.0002 42)"/>
</clipPath>
<clipPath id="clip1_508_4682">
<rect width="30.5708" height="31.8649" fill="white" transform="translate(31.9295)"/>
</clipPath>
<clipPath id="clip2_508_4682">
<rect width="28.8843" height="51.8684" fill="white" transform="translate(59.613)"/>
</clipPath>
</defs>
</svg>
