<svg width="90" height="71" viewBox="0 0 90 71" fill="none" xmlns="http://www.w3.org/2000/svg">
<rect x="21.7333" y="24.2155" width="45.9369" height="45.9369" rx="22.9685" fill="black"/>
<rect x="21.7333" y="24.2155" width="45.9369" height="45.9369" rx="22.9685" stroke="#CDCCCC"/>
<path d="M56.7282 47.7706C56.1249 47.9098 54.5315 47.9872 54.5315 47.9872L54.3355 48.6163C54.3355 48.6163 55.1245 48.5492 55.702 48.606C55.702 48.606 55.8877 48.5905 55.9083 48.8122C55.9186 49.0391 55.8928 49.2763 55.8928 49.2763C55.8928 49.2763 55.8773 49.4155 55.6865 49.4516C55.4648 49.4877 53.9694 49.5548 53.9694 49.5548L53.7271 50.3695C53.7271 50.3695 53.6394 50.5551 53.8405 50.5036C54.0262 50.452 55.5937 50.1529 55.8 50.1942C56.0166 50.2457 56.2641 50.5448 56.1919 50.8129C56.1094 51.1378 54.5418 52.1382 53.593 52.0711C53.593 52.0711 53.0928 52.1021 52.6752 51.4266C52.273 50.782 52.8144 49.5702 52.8144 49.5702C52.8144 49.5702 52.572 49.003 52.7525 48.7968C52.7525 48.7968 52.8556 48.7091 53.165 48.6833L53.5518 47.8892C53.5518 47.8892 53.1135 47.915 52.8556 47.5953C52.6184 47.2859 52.5978 47.1518 52.7834 47.0693C52.9794 46.9662 54.7945 46.6413 56.0423 46.6826C56.0423 46.6826 56.4806 46.631 56.8674 47.389C56.8674 47.389 57.0427 47.6984 56.7333 47.7706M52.0254 50.8233C51.8707 51.1997 51.4428 51.5967 50.9271 51.3544C50.4011 51.1069 49.571 49.4155 49.571 49.4155C49.571 49.4155 49.2616 48.7864 49.1997 48.8071C49.1997 48.8071 49.1327 48.6833 49.0966 49.3743C49.045 50.0601 49.1069 51.3956 48.8233 51.607C48.5654 51.8133 48.256 51.7256 48.0807 51.4833C47.9363 51.2409 47.8745 50.6583 47.957 49.6424C48.0498 48.6266 48.2818 47.5437 48.5757 47.2086C48.8851 46.8682 49.1327 47.1157 49.2255 47.2086C49.2255 47.2086 49.6225 47.5695 50.2929 48.6369L50.4063 48.8329C50.4063 48.8329 51.0148 49.8487 51.0766 49.8435C51.0766 49.8435 51.1282 49.8951 51.1695 49.8538C51.2313 49.8384 51.2107 49.5084 51.2107 49.5084C51.2107 49.5084 51.0973 48.41 50.5301 46.5537C50.5301 46.5537 50.4476 46.3165 50.5043 46.0896C50.5558 45.8833 50.7776 45.9865 50.7776 45.9865C50.7776 45.9865 51.6335 46.399 52.0512 47.7912C52.4637 49.1835 52.1853 50.4468 52.0306 50.8233M47.8281 47.2498C47.7456 47.3942 47.7095 47.5953 47.3537 47.652C47.3537 47.652 43.8988 47.8944 43.7286 48.1367C43.7286 48.1367 43.6152 48.2811 43.8008 48.3172C43.9968 48.3585 44.7806 48.4616 45.1518 48.4822C45.554 48.4822 46.905 48.4925 47.4001 49.101C47.4001 49.101 47.6837 49.3898 47.6734 50.0446C47.663 50.715 47.5445 50.9522 47.2815 51.1945C47.0082 51.4214 44.6671 52.4733 43.1563 50.8645C43.1563 50.8645 42.4653 50.091 43.3986 49.5032C43.3986 49.5032 44.069 49.0907 45.7861 49.5702C45.7861 49.5702 46.3017 49.7559 46.2811 49.9467C46.2502 50.1529 45.8531 50.3592 45.2756 50.3489C44.7187 50.3334 44.3062 50.0653 44.3887 50.1117C44.466 50.1374 43.7854 49.7816 43.574 50.024C43.3677 50.2509 43.4193 50.385 43.6255 50.5242C44.1412 50.8233 46.1677 50.715 46.771 50.0395C46.771 50.0395 47.0133 49.7662 46.6472 49.5444C46.2863 49.3382 45.2343 49.2093 44.827 49.1938C44.4402 49.1732 42.9913 49.1938 42.7747 48.8174C42.7747 48.8174 42.5684 48.5492 42.7953 47.817C43.0325 47.0436 44.7187 46.7445 45.4509 46.6826C45.4509 46.6826 47.4619 46.6001 47.8384 47.0126C47.8384 47.0126 47.8899 47.1054 47.8281 47.2447M42.125 51.7824C41.8826 51.9628 41.367 51.8855 41.2174 51.6792C41.0731 51.4988 41.0215 50.7872 41.0473 49.6682C41.0834 48.5235 41.0988 47.1209 41.3567 46.894C41.6145 46.6723 41.7692 46.8682 41.8723 47.0178C41.9754 47.1725 42.1095 47.3426 42.1301 47.6984C42.1611 48.0594 42.2487 49.9157 42.2487 49.9157C42.2487 49.9157 42.3622 51.607 42.1301 51.7824M42.6406 45.7493C41.929 45.9916 41.4443 45.9143 41.0318 45.7338C40.8513 46.0587 40.743 46.1566 40.609 46.1773C40.4027 46.1979 40.2222 45.8679 40.1965 45.7647C40.1552 45.6874 40.0572 45.5482 40.1758 45.2336C39.7736 44.8727 39.7427 44.388 39.8149 44.0631C39.9077 43.6815 40.5883 42.248 42.6509 42.0779C42.6509 42.0779 43.6616 42.0057 43.8369 42.5419H43.8679C43.8679 42.5419 44.8476 42.5419 44.827 43.4185C44.827 44.2951 43.7441 45.3883 42.6406 45.7647M43.5585 43.2535C42.9088 43.3567 41.9084 44.223 41.4289 44.9397C42.1662 45.0738 43.4554 45.0222 44.0329 43.8568C44.0329 43.8568 44.3062 43.1246 43.5585 43.2535ZM40.7069 43.8207C40.5007 44.1559 40.4904 44.357 40.5883 44.4911C40.8307 44.1301 41.2587 43.5629 41.9033 43.1195C41.4082 43.171 40.9906 43.3773 40.7069 43.8207ZM58.2751 51.7463C57.8007 52.9116 57.3985 54.0925 57.1665 55.8611C57.1665 55.8611 57.1149 56.2066 56.8313 56.0932C56.5477 55.9901 56.0836 55.526 55.9805 54.8711C55.8773 54.0151 56.2589 52.5713 57.0375 50.9109C56.8107 50.55 56.6508 50.0137 56.7797 49.2608C56.7797 49.2608 56.986 47.8686 58.3782 46.6104C58.3782 46.6104 58.5432 46.4712 58.6361 46.5176C58.7495 46.5692 58.7031 47.0126 58.6103 47.2395C58.5278 47.4561 57.909 48.5286 57.909 48.5286C57.909 48.5286 57.5223 49.2608 57.6305 49.8332C58.3628 48.7091 60.0283 46.4299 61.0596 47.1518C61.7145 47.6159 61.7145 49.1113 61.2246 49.9776C60.8379 50.6634 59.7447 52.0814 58.2854 51.7514M60.4305 48.245C60.0489 48.6575 59.3683 49.4413 58.832 50.5036C59.3992 50.4417 59.951 50.1271 60.1211 49.9673C60.3944 49.7249 61.0235 49.0701 60.9255 48.2038C60.9255 48.2038 60.8637 47.75 60.4305 48.245ZM37.3294 52.3547C35.504 52.9116 33.7818 52.6538 32.8433 52.4063C32.8175 52.7879 32.7763 52.9477 32.7144 53.0096C32.6422 53.0921 32.044 53.4324 31.714 52.9477C31.5696 52.7157 31.4975 52.298 31.4562 51.9164C29.342 50.9573 28.3623 49.5444 28.3314 49.4929C28.2798 49.4413 27.8003 48.9411 28.2798 48.3224C28.7284 47.7655 30.2135 47.2034 31.5439 46.9817C31.5954 45.8472 31.7192 44.9706 31.879 44.5839C32.0698 44.1198 32.3122 44.5323 32.5288 44.8417C32.7041 45.0738 32.8124 46.069 32.8227 46.8631C33.689 46.8218 34.2149 46.8837 35.1792 47.0693C36.4477 47.2859 37.2933 47.9356 37.2263 48.6678C37.1644 49.3898 36.5044 49.6888 36.2466 49.7095C35.9888 49.7301 35.5762 49.5393 35.5762 49.5393C35.2875 49.4052 35.5505 49.2815 35.8856 49.1371C36.2569 48.9566 36.1744 48.7761 36.1744 48.7761C36.0403 48.3636 34.3954 48.0903 32.7608 48.0903C32.7608 48.9927 32.7969 50.4881 32.8227 51.3595C33.9674 51.5761 34.8234 51.5297 34.8234 51.5297C34.8234 51.5297 39.0001 51.4111 39.1187 48.7452C39.2477 46.0741 34.942 43.5165 31.7707 42.7121C28.6047 41.8819 26.8102 42.4697 26.6555 42.5471C26.4853 42.6296 26.64 42.6605 26.64 42.6605C26.64 42.6605 26.8102 42.6863 27.1196 42.7894C27.429 42.8926 27.1815 43.0473 27.1815 43.0473C26.64 43.2329 26.0367 43.1246 25.9181 42.8771C25.7995 42.6348 25.9955 42.413 26.2275 42.0882C26.4441 41.753 26.6916 41.7633 26.6916 41.7633C30.6105 40.3968 35.3958 42.8462 35.3958 42.8462C39.8716 45.1047 40.6348 47.7603 40.5523 48.7916C40.4801 49.8074 40.0882 51.5245 37.3294 52.3599M28.7181 48.6678C28.2746 48.8741 28.584 49.2041 28.584 49.2041C29.4194 50.0962 30.4404 50.6583 31.4201 51.0089C31.5336 49.4619 31.5232 48.9102 31.5232 48.1316C30.0072 48.2347 29.1306 48.4822 28.7181 48.6678Z" fill="white"/>
<g clip-path="url(#clip0_508_3015)">
<g filter="url(#filter0_d_508_3015)">
<path d="M66.9177 55.4018L66.304 54.6172C62.9389 50.2981 58.7524 44.9249 60.47 37.7246L62.1065 30.8641L63.3172 31.1529C67.6885 32.1956 71.44 31.0735 72.0437 28.5428L74.4651 29.1204C73.8614 31.6511 76.7025 34.3459 81.0737 35.3886L82.2844 35.6774L80.6479 42.5379C78.9303 49.7382 72.769 52.6431 67.8184 54.9772L66.9177 55.4018Z" fill="#7AB9E8"/>
</g>
<g filter="url(#filter1_d_508_3015)">
<path d="M81.0738 35.3887C76.7025 34.3459 73.8614 31.6512 74.4651 29.1205L73.2544 28.8317L66.9166 55.4004L66.9178 55.4019L67.8185 54.9773C72.769 52.6431 78.9304 49.7383 80.648 42.538L82.2845 35.6775L81.0738 35.3887Z" fill="#579ADF"/>
</g>
</g>
<g clip-path="url(#clip1_508_3015)">
<g filter="url(#filter2_d_508_3015)">
<path fill-rule="evenodd" clip-rule="evenodd" d="M35.148 22.6743C34.8375 23.9347 34.5285 25.194 34.2208 26.4523C37.0557 28.0747 40.6352 28.9807 45.1317 28.9822V23.779L35.148 22.6743Z" fill="#535353"/>
<path fill-rule="evenodd" clip-rule="evenodd" d="M55.1073 22.6743C55.4218 23.9347 55.7336 25.194 56.0427 26.4523C53.2016 28.0747 49.6302 28.9807 45.1317 28.9822V23.779L55.1073 22.6743Z" fill="#676767"/>
<path fill-rule="evenodd" clip-rule="evenodd" d="M47.3634 9.11046C53.8405 3.38232 41.593 3.92512 38.1414 1.02295C37.8978 1.26529 37.7533 1.55666 37.726 1.86083C37.6987 2.165 37.7897 2.46856 37.9878 2.73377C36.4555 3.68561 33.7619 2.38694 32.3013 4.21129C33.9565 4.13975 34.9643 4.63589 35.5788 5.3C31.0395 4.77431 32.8155 7.97354 28.9358 8.15395C31.8261 9.37797 38.6146 7.02792 42.8118 9.8881C44.7066 9.83522 45.4686 9.168 47.3634 9.11046Z" fill="#1B2241"/>
<path fill-rule="evenodd" clip-rule="evenodd" d="M28.9378 8.10108C31.7988 9.36525 38.5376 6.95647 42.7041 9.88814C43.4794 9.85518 44.2423 9.72102 44.9612 9.49119C39.5116 4.67842 34.6762 8.95077 28.9358 8.10108H28.9378Z" fill="#1A1A1A"/>
<path fill-rule="evenodd" clip-rule="evenodd" d="M46.9851 8.62385C46.2371 8.68213 45.5035 8.81658 44.8047 9.02344L44.7553 9.03568C44.9994 8.76317 45.2394 8.49066 45.4753 8.21815C47.6187 6.39477 43.1076 4.23764 40.3718 3.79519C39.3865 4.43208 37.8684 4.13048 37.0909 4.57752C37.7615 5.11948 38.177 6.05643 38.8496 6.59839C31.1687 5.82066 34.6677 7.67006 30.9816 8.02831C31.2297 7.90284 31.455 7.75414 31.6521 7.58586C32.8863 6.53715 32.7033 5.39199 35.3938 5.69818L36.8913 5.86812C36.6267 5.59459 36.36 5.32156 36.0912 5.04905C35.4846 4.41608 34.5717 3.98303 33.5446 3.84112C33.7854 3.73628 34.0506 3.66616 34.3263 3.63444C34.5891 3.60483 34.8544 3.58897 35.1203 3.58698C36.3174 3.56555 37.4591 3.63597 38.4115 3.06339L38.7653 2.84753C38.6953 2.75261 38.6234 2.65922 38.5596 2.56583C38.4004 2.35623 38.3335 2.11475 38.3683 1.87537C39.6025 2.57195 41.3098 3.04043 42.7723 3.42929C43.9304 3.73549 45.1461 4.04168 46.2446 4.42289C47.0201 4.6954 47.8902 5.07355 48.3016 5.59101C49.0483 6.55552 47.8943 7.80938 46.9851 8.62385Z" fill="#4386BB"/>
<path fill-rule="evenodd" clip-rule="evenodd" d="M45.9062 8.75064C45.517 8.82683 45.1332 8.91786 44.7563 9.02335L44.7071 9.03568C44.9503 8.76142 45.1894 8.48717 45.4245 8.21291C47.5604 6.37786 43.0652 4.20692 40.3389 3.76164C39.3571 4.4026 37.8443 4.09907 37.0695 4.54897C37.7377 5.0944 38.1518 6.03735 38.8221 6.58278C31.1681 5.80007 34.6548 7.66132 30.9816 8.02186C32.894 7.64745 32.8592 6.29466 33.9456 5.96956C35.032 5.64445 36.4668 6.39327 37.5614 6.06816C37.4466 5.44107 36.928 4.93108 36.1737 4.15299C37.2212 3.6769 39.8634 4.10215 39.314 2.72778C41.6651 4.67685 49.2392 3.86949 46.3654 8.5827L45.9062 8.75064Z" fill="#283A84"/>
<path d="M45.2169 12.7863C43.2867 12.7863 41.722 11.7559 41.722 10.4848C41.722 9.21366 43.2867 8.18323 45.2169 8.18323C47.1471 8.18323 48.7119 9.21366 48.7119 10.4848C48.7119 11.7559 47.1471 12.7863 45.2169 12.7863Z" fill="#CDCCCC"/>
<path fill-rule="evenodd" clip-rule="evenodd" d="M45.2015 10.5701C40.8199 10.5701 37.076 12.3072 35.5784 14.7577C34.7741 15.016 34.2207 15.5479 34.2207 16.1567C34.2248 16.3591 34.2859 16.5586 34.4 16.7422C34.5141 16.9257 34.6787 17.0893 34.8831 17.2221C34.9572 20.8056 39.5486 23.6973 45.2015 23.6973C50.8544 23.6973 55.4294 20.8117 55.5158 17.2375C55.7293 17.1041 55.9021 16.9381 56.0224 16.7506C56.1427 16.5631 56.2078 16.3585 56.2131 16.1506C56.2131 15.5356 55.6413 14.993 54.8184 14.7393C53.3147 12.295 49.5769 10.5701 45.2015 10.5701Z" fill="#8B8A8A"/>
<path fill-rule="evenodd" clip-rule="evenodd" d="M46.8366 20.2876C42.9839 20.2876 39.8467 18.3006 39.8467 15.8551C39.8467 13.4095 42.9901 11.4225 46.8366 11.4225C50.683 11.4225 53.8264 13.4095 53.8264 15.8551C53.8264 18.3006 50.6912 20.2876 46.8366 20.2876Z" fill="#989898"/>
<path fill-rule="evenodd" clip-rule="evenodd" d="M48.9676 15.3436C47.5112 15.3436 46.3251 14.5772 46.3251 13.6388C46.3251 12.7004 47.5112 11.934 48.9676 11.934C50.4239 11.934 51.6101 12.6988 51.6101 13.6388C51.6101 14.5788 50.4116 15.3436 48.9676 15.3436Z" fill="#ACACAC"/>
<path fill-rule="evenodd" clip-rule="evenodd" d="M45.1317 14.3208H45.2317C46.6255 14.3154 48.0089 14.5037 49.3141 14.8765L56.8951 17.0292V23.4436C53.5781 26.3793 49.7101 28.6783 45.1317 30.1757V14.3208Z" fill="#CDCCCC"/>
<path fill-rule="evenodd" clip-rule="evenodd" d="M46.8365 15.3436C47.4406 15.4201 48.0333 15.543 48.6059 15.7106L50.0593 16.129V26.8641C49.0336 27.4554 47.9576 27.9922 46.8386 28.4709V15.3436H46.8365ZM50.7416 16.3258L53.0022 16.9769V24.9404C52.2876 25.4666 51.5347 25.9756 50.7416 26.4597V16.3258ZM53.6826 17.1721L55.1902 17.6062V23.1744C54.7071 23.5991 54.2046 24.0155 53.6826 24.4236V17.1721Z" fill="#333333"/>
<path fill-rule="evenodd" clip-rule="evenodd" d="M45.1317 14.3208H45.0317C43.6414 14.3163 42.2616 14.5046 40.9595 14.8764L33.3683 17.0276V23.4421C36.6873 26.3793 40.5554 28.6783 45.1317 30.1757V14.3208Z" fill="#B4B4B4"/>
<path fill-rule="evenodd" clip-rule="evenodd" d="M43.4269 15.3436C42.8104 15.4203 42.2055 15.5432 41.621 15.7106L40.1376 16.129V26.8641C41.1847 27.4551 42.283 27.9919 43.4248 28.4709V15.3436H43.4269ZM39.4411 16.3258L37.136 16.9769V24.9404C37.8633 25.4666 38.6316 25.9756 39.4411 26.4597V16.3258ZM36.4395 17.1721L34.9027 17.6062V23.1744C35.3944 23.5991 35.9067 24.0155 36.4395 24.4236V17.1721Z" fill="#1A1A1A"/>
<path fill-rule="evenodd" clip-rule="evenodd" d="M46.0988 8.6947C45.4445 8.6947 45.1307 9.00073 45.397 9.37664C45.5656 9.5774 45.8075 9.74551 46.0995 9.86491C46.3915 9.9843 46.7239 10.051 47.0648 10.0586C47.7171 10.0586 48.0309 9.75394 47.7646 9.37664C47.5959 9.17625 47.3542 9.00841 47.0627 8.88905C46.7711 8.76969 46.4393 8.70279 46.0988 8.6947Z" fill="#E3E3E3"/>
</g>
</g>
<g clip-path="url(#clip2_508_3015)">
<g filter="url(#filter3_d_508_3015)">
<path fill-rule="evenodd" clip-rule="evenodd" d="M29.5728 47.4634L29.4363 47.534C29.2815 47.6171 29.1093 47.6624 28.9337 47.6662C28.758 47.67 28.584 47.6323 28.4257 47.556C28.2654 47.4845 28.1241 47.3762 28.0134 47.2399C27.9027 47.1036 27.8257 46.9431 27.7886 46.7714C27.4748 45.4 26.8471 43.7242 25.9542 41.9935C25.0614 40.2628 24.0587 38.7815 23.1297 37.7318C23.0133 37.601 22.9284 37.4453 22.8813 37.2766C22.8343 37.108 22.8265 36.9308 22.8584 36.7587C22.8904 36.5865 22.9613 36.424 23.0657 36.2834C23.1701 36.1428 23.3052 36.028 23.4608 35.9477L23.5989 35.8771L23.0308 34.7787L20.3632 36.1532L17.6956 37.5262L18.2636 38.6246L18.4001 38.554C18.5564 38.4722 18.7294 38.4275 18.9057 38.4234C19.0821 38.4192 19.257 38.4558 19.4169 38.5301C19.5769 38.6045 19.7175 38.7147 19.828 38.8521C19.9385 38.9896 20.0159 39.1507 20.0541 39.3228C20.3679 40.6927 20.9956 42.3701 21.8885 44.0992C22.7813 45.8284 23.784 47.3112 24.713 48.361C24.8294 48.4919 24.9144 48.6477 24.9614 48.8165C25.0084 48.9852 25.0162 49.1625 24.9843 49.3348C24.9523 49.507 24.8815 49.6697 24.7771 49.8104C24.6727 49.9511 24.5375 50.0661 24.3819 50.1466L24.2438 50.2172L24.8119 51.3156L27.4795 49.9426L30.1409 48.5634L29.5728 47.4634Z" fill="#4592CF"/>
<path fill-rule="evenodd" clip-rule="evenodd" d="M22.7824 38.3795C22.3424 38.6091 22.9534 40.6956 24.149 43.0369C25.3446 45.3781 26.6708 47.092 27.103 46.8625C27.5353 46.6329 26.932 44.5463 25.7364 42.2051C24.5408 39.8638 23.2224 38.1499 22.7824 38.3795Z" fill="#283A84"/>
<path fill-rule="evenodd" clip-rule="evenodd" d="M3.37494 3.40967L4.80469 11.4889L18.1422 37.3359L22.4691 35.1028L9.13163 9.25577L3.37494 3.40967Z" fill="#D1D2D2"/>
<path fill-rule="evenodd" clip-rule="evenodd" d="M7.69091 7.77382L5.4201 6.295L6.21859 11.1149L18.207 37.3359L4.81097 11.4889L3.37495 3.40967L7.69091 7.77382Z" fill="#E6E6E5"/>
<path fill-rule="evenodd" clip-rule="evenodd" d="M7.12556 10.7405L13.4273 23.6112L19.7307 36.4835L20.4188 36.1334L21.1052 35.7833L14.1154 23.2627L7.12556 10.7405Z" fill="#818181"/>
<path fill-rule="evenodd" clip-rule="evenodd" d="M23.7873 33.5505L16.1588 37.5091C15.7665 37.2252 15.2906 37.0824 14.8078 37.1037C14.325 37.1251 13.8634 37.3094 13.4975 37.6268C13.1315 37.9443 12.8826 38.3765 12.7907 38.8536C12.6989 39.3308 12.7696 39.8251 12.9913 40.257C13.213 40.6888 13.5729 41.033 14.013 41.234C14.453 41.4349 14.9475 41.481 15.4167 41.3648C15.886 41.2485 16.3027 40.9768 16.5995 40.5932C16.8964 40.2097 17.0562 39.7368 17.0531 39.2508L24.6816 35.2923C25.0743 35.577 25.551 35.7203 26.0346 35.6992C26.5183 35.6781 26.9808 35.4937 27.3475 35.1758C27.7142 34.8579 27.9637 34.4251 28.0558 33.9471C28.1479 33.4691 28.0771 32.9739 27.855 32.5413C27.6329 32.1087 27.2723 31.764 26.8315 31.5627C26.3907 31.3615 25.8953 31.3155 25.4252 31.4321C24.9552 31.5487 24.5379 31.8212 24.2408 32.2055C23.9436 32.5899 23.7838 33.0637 23.7873 33.5505Z" fill="#333333"/>
</g>
</g>
<defs>
<filter id="filter0_d_508_3015" x="52.0714" y="28.5428" width="30.213" height="34.859" filterUnits="userSpaceOnUse" color-interpolation-filters="sRGB">
<feFlood flood-opacity="0" result="BackgroundImageFix"/>
<feColorMatrix in="SourceAlpha" type="matrix" values="0 0 0 0 0 0 0 0 0 0 0 0 0 0 0 0 0 0 127 0" result="hardAlpha"/>
<feOffset dx="-4" dy="4"/>
<feGaussianBlur stdDeviation="2"/>
<feComposite in2="hardAlpha" operator="out"/>
<feColorMatrix type="matrix" values="0 0 0 0 0 0 0 0 0 0 0 0 0 0 0 0 0 0 0.25 0"/>
<feBlend mode="normal" in2="BackgroundImageFix" result="effect1_dropShadow_508_3015"/>
<feBlend mode="normal" in="SourceGraphic" in2="effect1_dropShadow_508_3015" result="shape"/>
</filter>
<filter id="filter1_d_508_3015" x="58.9166" y="28.8317" width="23.3679" height="34.5703" filterUnits="userSpaceOnUse" color-interpolation-filters="sRGB">
<feFlood flood-opacity="0" result="BackgroundImageFix"/>
<feColorMatrix in="SourceAlpha" type="matrix" values="0 0 0 0 0 0 0 0 0 0 0 0 0 0 0 0 0 0 127 0" result="hardAlpha"/>
<feOffset dx="-4" dy="4"/>
<feGaussianBlur stdDeviation="2"/>
<feComposite in2="hardAlpha" operator="out"/>
<feColorMatrix type="matrix" values="0 0 0 0 0 0 0 0 0 0 0 0 0 0 0 0 0 0 0.25 0"/>
<feBlend mode="normal" in2="BackgroundImageFix" result="effect1_dropShadow_508_3015"/>
<feBlend mode="normal" in="SourceGraphic" in2="effect1_dropShadow_508_3015" result="shape"/>
</filter>
<filter id="filter2_d_508_3015" x="18.9358" y="-4.97705" width="47.9593" height="49.1527" filterUnits="userSpaceOnUse" color-interpolation-filters="sRGB">
<feFlood flood-opacity="0" result="BackgroundImageFix"/>
<feColorMatrix in="SourceAlpha" type="matrix" values="0 0 0 0 0 0 0 0 0 0 0 0 0 0 0 0 0 0 127 0" result="hardAlpha"/>
<feOffset dy="4"/>
<feGaussianBlur stdDeviation="5"/>
<feComposite in2="hardAlpha" operator="out"/>
<feColorMatrix type="matrix" values="0 0 0 0 0 0 0 0 0 0 0 0 0 0 0 0 0 0 0.5 0"/>
<feBlend mode="normal" in2="BackgroundImageFix" result="effect1_dropShadow_508_3015"/>
<feBlend mode="normal" in="SourceGraphic" in2="effect1_dropShadow_508_3015" result="shape"/>
</filter>
<filter id="filter3_d_508_3015" x="-6.62506" y="-2.59033" width="46.7659" height="67.9059" filterUnits="userSpaceOnUse" color-interpolation-filters="sRGB">
<feFlood flood-opacity="0" result="BackgroundImageFix"/>
<feColorMatrix in="SourceAlpha" type="matrix" values="0 0 0 0 0 0 0 0 0 0 0 0 0 0 0 0 0 0 127 0" result="hardAlpha"/>
<feOffset dy="4"/>
<feGaussianBlur stdDeviation="5"/>
<feComposite in2="hardAlpha" operator="out"/>
<feColorMatrix type="matrix" values="0 0 0 0 0 0 0 0 0 0 0 0 0 0 0 0 0 0 0.5 0"/>
<feBlend mode="normal" in2="BackgroundImageFix" result="effect1_dropShadow_508_3015"/>
<feBlend mode="normal" in="SourceGraphic" in2="effect1_dropShadow_508_3015" result="shape"/>
</filter>
<clipPath id="clip0_508_3015">
<rect width="35.8257" height="35.8257" fill="white" transform="translate(55.152 19.739) rotate(13.4168)"/>
</clipPath>
<clipPath id="clip1_508_3015">
<rect width="30.6871" height="31.9862" fill="white" transform="matrix(-1 0 0 1 57.7475 0)"/>
</clipPath>
<clipPath id="clip2_508_3015">
<rect width="28.9942" height="52.0657" fill="white" transform="matrix(-1 0 0 1 29.9704 0)"/>
</clipPath>
</defs>
</svg>
