<svg width="90" height="71" viewBox="0 0 90 71" fill="none" xmlns="http://www.w3.org/2000/svg">
<rect x="21.5801" y="24.1279" width="45.9342" height="45.9342" rx="22.9671" fill="#FE000C"/>
<rect x="21.5801" y="24.1279" width="45.9342" height="45.9342" rx="22.9671" stroke="#CDCCCC"/>
<g clip-path="url(#clip0_508_5040)">
<path fill-rule="evenodd" clip-rule="evenodd" d="M30.0176 52.9133H35.2224L39.9012 46.8983L42.8182 49.8542L36.1429 58.2143H41.3661L45.6403 52.6739L53.6858 60.8644H59.9908L48.4275 49.2326L57.5345 37.7241H52.3085L45.5786 46.3687L42.6662 43.4396L50.1523 34.0083H44.9402L39.8275 40.5896L37.0514 37.7241H30.8321L37.0955 44.0504L30.0176 52.9133Z" fill="white"/>
</g>
<g clip-path="url(#clip1_508_5040)">
<g filter="url(#filter0_d_508_5040)">
<path d="M66.9177 55.4018L66.3041 54.6172C62.9389 50.2981 58.7524 44.9249 60.47 37.7246L62.1065 30.8641L63.3172 31.1529C67.6885 32.1956 71.4401 31.0735 72.0438 28.5428L74.4651 29.1204C73.8614 31.6511 76.7025 34.3459 81.0738 35.3886L82.2845 35.6774L80.6479 42.5379C78.9304 49.7382 72.769 52.6431 67.8185 54.9772L66.9177 55.4018Z" fill="#7AB9E8"/>
</g>
<g filter="url(#filter1_d_508_5040)">
<path d="M81.0738 35.3886C76.7026 34.3459 73.8615 31.6511 74.4652 29.1204L73.2545 28.8316L66.9166 55.4004L66.9178 55.4019L67.8185 54.9772C72.7691 52.6431 78.9304 49.7383 80.648 42.5379L82.2845 35.6774L81.0738 35.3886Z" fill="#579ADF"/>
</g>
</g>
<g clip-path="url(#clip2_508_5040)">
<g filter="url(#filter2_d_508_5040)">
<path fill-rule="evenodd" clip-rule="evenodd" d="M35.148 22.6743C34.8375 23.9347 34.5285 25.194 34.2208 26.4523C37.0557 28.0747 40.6352 28.9807 45.1317 28.9822V23.779L35.148 22.6743Z" fill="#535353"/>
<path fill-rule="evenodd" clip-rule="evenodd" d="M55.1073 22.6743C55.4218 23.9347 55.7336 25.194 56.0427 26.4523C53.2016 28.0747 49.6302 28.9807 45.1317 28.9822V23.779L55.1073 22.6743Z" fill="#676767"/>
<path fill-rule="evenodd" clip-rule="evenodd" d="M47.3634 9.1104C53.8405 3.38226 41.593 3.92506 38.1414 1.02289C37.8978 1.26523 37.7533 1.5566 37.726 1.86077C37.6987 2.16494 37.7897 2.4685 37.9878 2.73371C36.4555 3.68554 33.7619 2.38688 32.3013 4.21123C33.9565 4.13969 34.9643 4.63583 35.5788 5.29994C31.0395 4.77425 32.8155 7.97348 28.9358 8.15389C31.8261 9.37791 38.6146 7.02786 42.8118 9.88804C44.7066 9.83516 45.4686 9.16794 47.3634 9.1104Z" fill="#1B2241"/>
<path fill-rule="evenodd" clip-rule="evenodd" d="M28.9378 8.10096C31.7988 9.36513 38.5376 6.95635 42.7041 9.88802C43.4794 9.85506 44.2423 9.7209 44.9612 9.49107C39.5116 4.67829 34.6762 8.95065 28.9358 8.10096H28.9378Z" fill="#1A1A1A"/>
<path fill-rule="evenodd" clip-rule="evenodd" d="M46.9851 8.62379C46.2371 8.68206 45.5035 8.81651 44.8047 9.02337L44.7553 9.03562C44.9994 8.76311 45.2394 8.4906 45.4753 8.21809C47.6187 6.39471 43.1076 4.23758 40.3718 3.79513C39.3865 4.43201 37.8684 4.13041 37.0909 4.57746C37.7615 5.11942 38.177 6.05637 38.8496 6.59833C31.1687 5.8206 34.6677 7.67 30.9816 8.02825C31.2297 7.90278 31.455 7.75408 31.6521 7.5858C32.8863 6.53709 32.7033 5.39193 35.3938 5.69812L36.8913 5.86806C36.6267 5.59453 36.36 5.3215 36.0912 5.04899C35.4846 4.41602 34.5717 3.98297 33.5446 3.84106C33.7854 3.73622 34.0506 3.6661 34.3263 3.63438C34.5891 3.60477 34.8544 3.58891 35.1203 3.58692C36.3174 3.56549 37.4591 3.63591 38.4115 3.06333L38.7653 2.84747C38.6953 2.75255 38.6234 2.65916 38.5596 2.56577C38.4004 2.35617 38.3335 2.11469 38.3683 1.87531C39.6025 2.57189 41.3098 3.04037 42.7723 3.42923C43.9304 3.73543 45.1461 4.04162 46.2446 4.42283C47.0201 4.69534 47.8902 5.07349 48.3016 5.59095C49.0483 6.55546 47.8943 7.80932 46.9851 8.62379Z" fill="#4386BB"/>
<path fill-rule="evenodd" clip-rule="evenodd" d="M45.9062 8.75058C45.517 8.82677 45.1332 8.9178 44.7563 9.02329L44.7071 9.03562C44.9503 8.76136 45.1894 8.48711 45.4245 8.21285C47.5604 6.3778 43.0652 4.20686 40.3389 3.76158C39.3571 4.40254 37.8443 4.099 37.0695 4.54891C37.7377 5.09434 38.1518 6.03729 38.8221 6.58272C31.1681 5.80001 34.6548 7.66126 30.9816 8.02179C32.894 7.64739 32.8592 6.2946 33.9456 5.96949C35.032 5.64439 36.4668 6.3932 37.5614 6.0681C37.4466 5.44101 36.928 4.93102 36.1737 4.15293C37.2212 3.67683 39.8634 4.10209 39.314 2.72772C41.6651 4.67679 49.2392 3.86943 46.3654 8.58263L45.9062 8.75058Z" fill="#283A84"/>
<path d="M45.2169 12.7863C43.2867 12.7863 41.722 11.7559 41.722 10.4848C41.722 9.21366 43.2867 8.18323 45.2169 8.18323C47.1471 8.18323 48.7119 9.21366 48.7119 10.4848C48.7119 11.7559 47.1471 12.7863 45.2169 12.7863Z" fill="#CDCCCC"/>
<path fill-rule="evenodd" clip-rule="evenodd" d="M45.2015 10.5699C40.8199 10.5699 37.076 12.3071 35.5784 14.7576C34.7741 15.0159 34.2207 15.5478 34.2207 16.1566C34.2248 16.359 34.2859 16.5585 34.4 16.742C34.5141 16.9256 34.6787 17.0891 34.8831 17.222C34.9572 20.8055 39.5486 23.6972 45.2015 23.6972C50.8544 23.6972 55.4294 20.8116 55.5158 17.2373C55.7293 17.104 55.9021 16.938 56.0224 16.7505C56.1427 16.563 56.2078 16.3584 56.2131 16.1504C56.2131 15.5355 55.6413 14.9928 54.8184 14.7392C53.3147 12.2948 49.5769 10.5699 45.2015 10.5699Z" fill="#8B8A8A"/>
<path fill-rule="evenodd" clip-rule="evenodd" d="M46.8365 20.2875C42.9839 20.2875 39.8467 18.3005 39.8467 15.8549C39.8467 13.4094 42.9901 11.4224 46.8365 11.4224C50.683 11.4224 53.8264 13.4094 53.8264 15.8549C53.8264 18.3005 50.6912 20.2875 46.8365 20.2875Z" fill="#989898"/>
<path fill-rule="evenodd" clip-rule="evenodd" d="M48.9676 15.3435C47.5112 15.3435 46.3251 14.5771 46.3251 13.6387C46.3251 12.7002 47.5112 11.9338 48.9676 11.9338C50.424 11.9338 51.6101 12.6987 51.6101 13.6387C51.6101 14.5787 50.4116 15.3435 48.9676 15.3435Z" fill="#ACACAC"/>
<path fill-rule="evenodd" clip-rule="evenodd" d="M45.1317 14.3207H45.2317C46.6255 14.3154 48.0089 14.5037 49.3141 14.8764L56.8951 17.0291V23.4436C53.5781 26.3792 49.7101 28.6782 45.1317 30.1756V14.3207Z" fill="#CDCCCC"/>
<path fill-rule="evenodd" clip-rule="evenodd" d="M46.8365 15.3435C47.4406 15.4199 48.0333 15.5429 48.6059 15.7105L50.0593 16.1289V26.864C49.0336 27.4553 47.9576 27.9921 46.8386 28.4707V15.3435H46.8365ZM50.7416 16.3257L53.0022 16.9768V24.9403C52.2876 25.4665 51.5347 25.9755 50.7416 26.4596V16.3257ZM53.6826 17.172L55.1902 17.6061V23.1743C54.7071 23.599 54.2046 24.0154 53.6826 24.4234V17.172Z" fill="#333333"/>
<path fill-rule="evenodd" clip-rule="evenodd" d="M45.1317 14.3207H45.0317C43.6414 14.3163 42.2616 14.5046 40.9595 14.8764L33.3683 17.0275V23.442C36.6873 26.3792 40.5554 28.6782 45.1317 30.1756V14.3207Z" fill="#B4B4B4"/>
<path fill-rule="evenodd" clip-rule="evenodd" d="M43.4269 15.3435C42.8104 15.4202 42.2055 15.5431 41.621 15.7105L40.1376 16.1289V26.864C41.1847 27.455 42.283 27.9918 43.4248 28.4707V15.3435H43.4269ZM39.4411 16.3257L37.136 16.9768V24.9403C37.8633 25.4665 38.6316 25.9755 39.4411 26.4596V16.3257ZM36.4395 17.172L34.9027 17.6061V23.1743C35.3944 23.599 35.9067 24.0154 36.4395 24.4234V17.172Z" fill="#1A1A1A"/>
<path fill-rule="evenodd" clip-rule="evenodd" d="M46.0988 8.69464C45.4445 8.69464 45.1307 9.00067 45.397 9.37658C45.5656 9.57734 45.8075 9.74545 46.0995 9.86485C46.3915 9.98424 46.7239 10.0509 47.0648 10.0585C47.7171 10.0585 48.0309 9.75388 47.7646 9.37658C47.5959 9.17619 47.3542 9.00834 47.0627 8.88899C46.7711 8.76963 46.4393 8.70273 46.0988 8.69464Z" fill="#E3E3E3"/>
</g>
</g>
<g clip-path="url(#clip3_508_5040)">
<g filter="url(#filter3_d_508_5040)">
<path fill-rule="evenodd" clip-rule="evenodd" d="M29.573 47.4634L29.4365 47.534C29.2817 47.6171 29.1094 47.6624 28.9338 47.6662C28.7582 47.67 28.5841 47.6323 28.4259 47.556C28.2655 47.4845 28.1242 47.3762 28.0136 47.2399C27.9029 47.1036 27.8259 46.9431 27.7888 46.7714C27.475 45.4 26.8473 43.7242 25.9544 41.9935C25.0615 40.2628 24.0588 38.7815 23.1298 37.7318C23.0135 37.601 22.9285 37.4453 22.8815 37.2766C22.8345 37.108 22.8266 36.9308 22.8586 36.7587C22.8905 36.5865 22.9614 36.424 23.0658 36.2834C23.1702 36.1428 23.3054 36.028 23.4609 35.9477L23.599 35.8771L23.031 34.7787L20.3633 36.1532L17.6957 37.5262L18.2638 38.6246L18.4003 38.554C18.5566 38.4722 18.7296 38.4275 18.9059 38.4234C19.0822 38.4192 19.2571 38.4558 19.4171 38.5301C19.577 38.6045 19.7177 38.7147 19.8282 38.8521C19.9387 38.9896 20.016 39.1507 20.0542 39.3228C20.3681 40.6927 20.9957 42.3701 21.8886 44.0992C22.7815 45.8284 23.7842 47.3112 24.7132 48.361C24.8296 48.4919 24.9145 48.6477 24.9615 48.8165C25.0085 48.9852 25.0164 49.1625 24.9844 49.3348C24.9525 49.507 24.8816 49.6697 24.7772 49.8104C24.6728 49.9511 24.5377 50.0661 24.3821 50.1466L24.244 50.2172L24.812 51.3156L27.4797 49.9426L30.141 48.5634L29.573 47.4634Z" fill="#4592CF"/>
<path fill-rule="evenodd" clip-rule="evenodd" d="M22.7825 38.3794C22.3425 38.609 22.9535 40.6955 24.1491 43.0368C25.3447 45.3781 26.6709 47.092 27.1032 46.8624C27.5354 46.6328 26.9321 44.5463 25.7365 42.205C24.5409 39.8638 23.2225 38.1499 22.7825 38.3794Z" fill="#283A84"/>
<path fill-rule="evenodd" clip-rule="evenodd" d="M3.37509 3.40967L4.80484 11.4889L18.1423 37.3359L22.4693 35.1028L9.13179 9.25577L3.37509 3.40967Z" fill="#D1D2D2"/>
<path fill-rule="evenodd" clip-rule="evenodd" d="M7.69103 7.77382L5.42022 6.295L6.21871 11.1149L18.2072 37.3359L4.8111 11.4889L3.37507 3.40967L7.69103 7.77382Z" fill="#E6E6E5"/>
<path fill-rule="evenodd" clip-rule="evenodd" d="M7.12571 10.7405L13.4275 23.6112L19.7309 36.4835L20.4189 36.1334L21.1054 35.7833L14.1155 23.2627L7.12571 10.7405Z" fill="#818181"/>
<path fill-rule="evenodd" clip-rule="evenodd" d="M23.7874 33.5505L16.1589 37.5091C15.7666 37.2252 15.2907 37.0824 14.8079 37.1037C14.3251 37.1251 13.8635 37.3094 13.4976 37.6268C13.1316 37.9443 12.8827 38.3765 12.7909 38.8536C12.699 39.3308 12.7697 39.8251 12.9914 40.257C13.2132 40.6888 13.573 41.033 14.0131 41.234C14.4531 41.4349 14.9476 41.481 15.4169 41.3648C15.8861 41.2485 16.3028 40.9768 16.5996 40.5932C16.8965 40.2097 17.0563 39.7368 17.0532 39.2508L24.6817 35.2923C25.0744 35.577 25.5511 35.7203 26.0348 35.6992C26.5184 35.6781 26.9809 35.4937 27.3476 35.1758C27.7143 34.8579 27.9638 34.4251 28.0559 33.9471C28.148 33.4691 28.0772 32.9739 27.8551 32.5413C27.633 32.1087 27.2724 31.764 26.8316 31.5627C26.3908 31.3615 25.8954 31.3155 25.4254 31.4321C24.9553 31.5487 24.5381 31.8212 24.2409 32.2055C23.9437 32.5899 23.784 33.0637 23.7874 33.5505Z" fill="#333333"/>
</g>
</g>
<defs>
<filter id="filter0_d_508_5040" x="52.0715" y="28.5428" width="30.213" height="34.8591" filterUnits="userSpaceOnUse" color-interpolation-filters="sRGB">
<feFlood flood-opacity="0" result="BackgroundImageFix"/>
<feColorMatrix in="SourceAlpha" type="matrix" values="0 0 0 0 0 0 0 0 0 0 0 0 0 0 0 0 0 0 127 0" result="hardAlpha"/>
<feOffset dx="-4" dy="4"/>
<feGaussianBlur stdDeviation="2"/>
<feComposite in2="hardAlpha" operator="out"/>
<feColorMatrix type="matrix" values="0 0 0 0 0 0 0 0 0 0 0 0 0 0 0 0 0 0 0.25 0"/>
<feBlend mode="normal" in2="BackgroundImageFix" result="effect1_dropShadow_508_5040"/>
<feBlend mode="normal" in="SourceGraphic" in2="effect1_dropShadow_508_5040" result="shape"/>
</filter>
<filter id="filter1_d_508_5040" x="58.9166" y="28.8316" width="23.3679" height="34.5703" filterUnits="userSpaceOnUse" color-interpolation-filters="sRGB">
<feFlood flood-opacity="0" result="BackgroundImageFix"/>
<feColorMatrix in="SourceAlpha" type="matrix" values="0 0 0 0 0 0 0 0 0 0 0 0 0 0 0 0 0 0 127 0" result="hardAlpha"/>
<feOffset dx="-4" dy="4"/>
<feGaussianBlur stdDeviation="2"/>
<feComposite in2="hardAlpha" operator="out"/>
<feColorMatrix type="matrix" values="0 0 0 0 0 0 0 0 0 0 0 0 0 0 0 0 0 0 0.25 0"/>
<feBlend mode="normal" in2="BackgroundImageFix" result="effect1_dropShadow_508_5040"/>
<feBlend mode="normal" in="SourceGraphic" in2="effect1_dropShadow_508_5040" result="shape"/>
</filter>
<filter id="filter2_d_508_5040" x="18.9358" y="-4.97711" width="47.9593" height="49.1527" filterUnits="userSpaceOnUse" color-interpolation-filters="sRGB">
<feFlood flood-opacity="0" result="BackgroundImageFix"/>
<feColorMatrix in="SourceAlpha" type="matrix" values="0 0 0 0 0 0 0 0 0 0 0 0 0 0 0 0 0 0 127 0" result="hardAlpha"/>
<feOffset dy="4"/>
<feGaussianBlur stdDeviation="5"/>
<feComposite in2="hardAlpha" operator="out"/>
<feColorMatrix type="matrix" values="0 0 0 0 0 0 0 0 0 0 0 0 0 0 0 0 0 0 0.5 0"/>
<feBlend mode="normal" in2="BackgroundImageFix" result="effect1_dropShadow_508_5040"/>
<feBlend mode="normal" in="SourceGraphic" in2="effect1_dropShadow_508_5040" result="shape"/>
</filter>
<filter id="filter3_d_508_5040" x="-6.62494" y="-2.59033" width="46.766" height="67.9059" filterUnits="userSpaceOnUse" color-interpolation-filters="sRGB">
<feFlood flood-opacity="0" result="BackgroundImageFix"/>
<feColorMatrix in="SourceAlpha" type="matrix" values="0 0 0 0 0 0 0 0 0 0 0 0 0 0 0 0 0 0 127 0" result="hardAlpha"/>
<feOffset dy="4"/>
<feGaussianBlur stdDeviation="5"/>
<feComposite in2="hardAlpha" operator="out"/>
<feColorMatrix type="matrix" values="0 0 0 0 0 0 0 0 0 0 0 0 0 0 0 0 0 0 0.5 0"/>
<feBlend mode="normal" in2="BackgroundImageFix" result="effect1_dropShadow_508_5040"/>
<feBlend mode="normal" in="SourceGraphic" in2="effect1_dropShadow_508_5040" result="shape"/>
</filter>
<clipPath id="clip0_508_5040">
<rect width="30" height="26.8781" fill="white" transform="translate(30.0001 34)"/>
</clipPath>
<clipPath id="clip1_508_5040">
<rect width="35.8257" height="35.8257" fill="white" transform="translate(55.152 19.739) rotate(13.4168)"/>
</clipPath>
<clipPath id="clip2_508_5040">
<rect width="30.6871" height="31.9862" fill="white" transform="matrix(-1 0 0 1 57.7475 0)"/>
</clipPath>
<clipPath id="clip3_508_5040">
<rect width="28.9942" height="52.0657" fill="white" transform="matrix(-1 0 0 1 29.9706 0)"/>
</clipPath>
</defs>
</svg>
