<svg width="89" height="71" viewBox="0 0 89 71" fill="none" xmlns="http://www.w3.org/2000/svg">
<rect x="21.5026" y="24.1279" width="45.9342" height="45.9342" rx="22.9671" fill="#1773EA"/>
<rect x="21.5026" y="24.1279" width="45.9342" height="45.9342" rx="22.9671" stroke="#CDCCCC"/>
<path fill-rule="evenodd" clip-rule="evenodd" d="M40.7541 46.4106V57.753C40.7541 57.9486 40.8518 58.0463 41.0474 58.0463H45.5453C45.7408 58.0463 45.8386 57.9486 45.8386 57.753V46.215H49.1631C49.3587 46.215 49.4564 46.1172 49.4564 45.9217L49.7498 42.4016C49.7498 42.206 49.652 42.1083 49.4564 42.1083H45.8386V39.6638C45.8386 39.0771 46.3275 38.5882 47.012 38.5882H49.5542C49.8476 38.5882 49.9453 38.4904 49.9453 38.2948V34.8726C49.9453 34.677 49.8476 34.5792 49.652 34.5792H45.3497C42.8074 34.5792 40.7541 36.437 40.7541 38.7837V42.1083H38.5051C38.3096 42.1083 38.2118 42.206 38.2118 42.4016V45.9217C38.2118 46.1172 38.3096 46.215 38.5051 46.215H40.7541V46.4106Z" fill="white"/>
<g filter="url(#filter0_d_508_3549)">
<path d="M22.9949 55.2289L23.6062 54.4472C26.9586 50.1446 31.1292 44.7916 29.4182 37.6186L27.7878 30.7841L26.5817 31.0719C22.227 32.1106 18.4897 30.9928 17.8883 28.4717L15.4761 29.0471C16.0775 31.5682 13.2472 34.2527 8.89247 35.2915L7.68637 35.5792L9.31669 42.4137C11.0278 49.5867 17.1657 52.4806 22.0976 54.8059L22.9949 55.2289Z" fill="#D84025"/>
</g>
<g filter="url(#filter1_d_508_3549)">
<path d="M8.8924 35.2914C13.2471 34.2527 16.0774 31.5681 15.476 29.047L16.6821 28.7593L22.9959 55.2274L22.9947 55.2288L22.0975 54.8058C17.1657 52.4805 11.0277 49.5867 9.31661 42.4136L7.68629 35.5791L8.8924 35.2914Z" fill="#A13023"/>
</g>
<g clip-path="url(#clip0_508_3549)">
<g filter="url(#filter2_d_508_3549)">
<path fill-rule="evenodd" clip-rule="evenodd" d="M54.4434 22.5884C54.7526 23.8439 55.0605 25.0985 55.367 26.352C52.5429 27.9683 48.9769 28.8708 44.4974 28.8724V23.6889L54.4434 22.5884Z" fill="#535353"/>
<path fill-rule="evenodd" clip-rule="evenodd" d="M34.5597 22.5884C34.2463 23.8439 33.9357 25.0985 33.6278 26.352C36.4581 27.9683 40.0159 28.8708 44.4974 28.8724V23.6889L34.5597 22.5884Z" fill="#676767"/>
<path fill-rule="evenodd" clip-rule="evenodd" d="M42.2742 9.0759C35.8216 3.36948 48.0227 3.91021 51.4613 1.01904C51.704 1.26047 51.8479 1.55073 51.8751 1.85375C51.9023 2.15677 51.8116 2.45917 51.6143 2.72338C53.1407 3.67161 55.8242 2.37786 57.2792 4.1953C55.6303 4.12403 54.6263 4.61829 54.0141 5.27988C58.5362 4.75618 56.767 7.94329 60.632 8.12302C57.7526 9.34239 50.9899 7.00126 46.8085 9.8506C44.9209 9.79792 44.1618 9.13323 42.2742 9.0759Z" fill="#A23023"/>
<path fill-rule="evenodd" clip-rule="evenodd" d="M60.6299 8.0703C57.7798 9.32968 51.0665 6.93003 46.9158 9.85058C46.1434 9.81775 45.3835 9.6841 44.6672 9.45514C50.0962 4.6606 54.9134 8.91676 60.632 8.0703H60.6299Z" fill="#1A1A1A"/>
<path fill-rule="evenodd" clip-rule="evenodd" d="M42.651 8.5912C43.3962 8.64925 44.127 8.78319 44.8232 8.98926L44.8724 9.00146C44.6292 8.72999 44.3901 8.45851 44.1552 8.18703C42.0199 6.37056 46.5138 4.22161 49.2393 3.78084C50.2208 4.41531 51.7331 4.11485 52.5078 4.5602C51.8397 5.1001 51.4258 6.0335 50.7557 6.57341C58.4074 5.79863 54.9217 7.64102 58.5939 7.99791C58.3468 7.87292 58.1222 7.72478 57.9259 7.55714C56.6963 6.5124 56.8787 5.37158 54.1984 5.67661L52.7065 5.84591C52.9702 5.57341 53.2359 5.30142 53.5037 5.02995C54.1079 4.39937 55.0174 3.96796 56.0406 3.82659C55.8007 3.72215 55.5365 3.6523 55.2619 3.6207C55 3.5912 54.7357 3.5754 54.4709 3.57342C53.2783 3.55206 52.1409 3.62222 51.1922 3.05181L50.8397 2.83676C50.9094 2.7422 50.9811 2.64917 51.0446 2.55613C51.2032 2.34732 51.2699 2.10676 51.2352 1.86829C50.0057 2.56223 48.3048 3.02893 46.8478 3.41632C45.6941 3.72136 44.483 4.02639 43.3887 4.40615C42.6162 4.67763 41.7494 5.05435 41.3395 5.56985C40.5957 6.5307 41.7453 7.77981 42.651 8.5912Z" fill="#EF4123"/>
<path fill-rule="evenodd" clip-rule="evenodd" d="M43.7259 8.71744C44.1136 8.79334 44.496 8.88402 44.8714 8.98912L44.9205 9.0014C44.6781 8.72818 44.4399 8.45496 44.2057 8.18175C42.0779 6.35365 46.5561 4.19094 49.272 3.74734C50.2502 4.38587 51.7572 4.08349 52.5291 4.53169C51.8634 5.07505 51.4509 6.01443 50.7831 6.55779C58.4081 5.77805 54.9346 7.63224 58.5939 7.99142C56.6887 7.61843 56.7234 6.27076 55.6412 5.94689C54.5589 5.62302 53.1294 6.369 52.039 6.04513C52.1534 5.42041 52.67 4.91235 53.4215 4.13721C52.378 3.66292 49.7458 4.08656 50.2931 2.71741C47.9508 4.65909 40.4055 3.85479 43.2684 8.55013L43.7259 8.71744Z" fill="#D03927"/>
<path d="M44.4125 12.7378C46.3354 12.7378 47.8942 11.7113 47.8942 10.445C47.8942 9.17875 46.3354 8.15222 44.4125 8.15222C42.4896 8.15222 40.9308 9.17875 40.9308 10.445C40.9308 11.7113 42.4896 12.7378 44.4125 12.7378Z" fill="#CDCCCC"/>
<path fill-rule="evenodd" clip-rule="evenodd" d="M44.4278 10.5299C48.7928 10.5299 52.5226 12.2605 54.0145 14.7017C54.8157 14.959 55.367 15.4889 55.367 16.0954C55.363 16.297 55.3021 16.4957 55.1884 16.6786C55.0747 16.8615 54.9107 17.0244 54.7071 17.1567C54.6334 20.7266 50.0593 23.6074 44.4278 23.6074C38.7964 23.6074 34.2387 20.7328 34.1527 17.172C33.9399 17.0392 33.7678 16.8738 33.6479 16.687C33.5281 16.5002 33.4633 16.2964 33.4579 16.0893C33.4579 15.4767 34.0277 14.936 34.8474 14.6833C36.3454 12.2483 40.069 10.5299 44.4278 10.5299Z" fill="#8B8A8A"/>
<path fill-rule="evenodd" clip-rule="evenodd" d="M42.799 20.2107C46.6371 20.2107 49.7624 18.2312 49.7624 15.7949C49.7624 13.3586 46.6309 11.3792 42.799 11.3792C38.9671 11.3792 35.8357 13.3586 35.8357 15.7949C35.8357 18.2312 38.959 20.2107 42.799 20.2107Z" fill="#989898"/>
<path fill-rule="evenodd" clip-rule="evenodd" d="M40.6761 15.2854C42.1269 15.2854 43.3085 14.5219 43.3085 13.587C43.3085 12.6522 42.1269 11.8887 40.6761 11.8887C39.2252 11.8887 38.0436 12.6506 38.0436 13.587C38.0436 14.5235 39.2375 15.2854 40.6761 15.2854Z" fill="#ACACAC"/>
<path fill-rule="evenodd" clip-rule="evenodd" d="M44.4974 14.2665H44.3978C43.0093 14.2611 41.6312 14.4487 40.3309 14.82L32.7786 16.9646V23.3547C36.083 26.2792 39.9364 28.5695 44.4974 30.0613V14.2665Z" fill="#CDCCCC"/>
<path fill-rule="evenodd" clip-rule="evenodd" d="M42.799 15.2854C42.1973 15.3616 41.6068 15.484 41.0364 15.651L39.5885 16.0678V26.7622C40.6103 27.3513 41.6822 27.8861 42.797 28.3629V15.2854H42.799ZM38.9087 16.2638L36.6568 16.9125V24.8458C37.3686 25.37 38.1186 25.8771 38.9087 26.3593V16.2638ZM35.979 17.1069L34.477 17.5394V23.0865C34.9583 23.5096 35.4589 23.9244 35.979 24.3309V17.1069Z" fill="#333333"/>
<path fill-rule="evenodd" clip-rule="evenodd" d="M44.4974 14.2664H44.5971C45.9821 14.262 47.3567 14.4496 48.6538 14.82L56.2162 16.963V23.3532C52.9098 26.2792 49.0564 28.5695 44.4974 30.0613V14.2664Z" fill="#B4B4B4"/>
<path fill-rule="evenodd" clip-rule="evenodd" d="M46.1958 15.2854C46.8099 15.3618 47.4126 15.4842 47.9949 15.651L49.4726 16.0678V26.7622C48.4294 27.351 47.3354 27.8857 46.1978 28.3629V15.2854H46.1958ZM50.1665 16.2638L52.4629 16.9125V24.8458C51.7383 25.37 50.9729 25.8771 50.1665 26.3593V16.2638ZM53.1567 17.1069L54.6877 17.5394V23.0865C54.1978 23.5096 53.6875 23.9244 53.1567 24.3309V17.1069Z" fill="#1A1A1A"/>
<path fill-rule="evenodd" clip-rule="evenodd" d="M43.534 8.66174C44.1859 8.66174 44.4984 8.96662 44.2331 9.34109C44.0652 9.54109 43.8242 9.70857 43.5333 9.82751C43.2424 9.94646 42.9113 10.0129 42.5716 10.0204C41.9218 10.0204 41.6092 9.71696 41.8745 9.34109C42.0426 9.14147 42.2833 8.97426 42.5738 8.85535C42.8642 8.73645 43.1948 8.6698 43.534 8.66174Z" fill="#E3E3E3"/>
</g>
</g>
<g clip-path="url(#clip1_508_3549)">
<g filter="url(#filter3_d_508_3549)">
<path fill-rule="evenodd" clip-rule="evenodd" d="M60.009 47.2835L60.145 47.3539C60.2992 47.4366 60.4708 47.4817 60.6458 47.4855C60.8207 47.4893 60.9941 47.4517 61.1517 47.3757C61.3115 47.3045 61.4523 47.1966 61.5625 47.0608C61.6728 46.925 61.7495 46.7651 61.7864 46.5942C62.0991 45.2279 62.7244 43.5585 63.6139 41.8343C64.5034 40.1101 65.5023 38.6345 66.4277 37.5887C66.5437 37.4584 66.6283 37.3033 66.6751 37.1353C66.722 36.9673 66.7298 36.7908 66.6979 36.6193C66.6661 36.4478 66.5955 36.2859 66.4915 36.1459C66.3875 36.0058 66.2529 35.8914 66.0979 35.8114L65.9603 35.7411L66.5262 34.6469L69.1837 36.0162L71.8413 37.384L71.2754 38.4782L71.1394 38.4078C70.9837 38.3264 70.8113 38.2819 70.6357 38.2777C70.46 38.2736 70.2858 38.31 70.1264 38.3841C69.9671 38.4581 69.827 38.5679 69.7169 38.7049C69.6068 38.8418 69.5298 39.0023 69.4917 39.1738C69.179 40.5384 68.5537 42.2095 67.6643 43.9321C66.7748 45.6547 65.7758 47.1319 64.8504 48.1776C64.7344 48.3081 64.6498 48.4633 64.603 48.6314C64.5561 48.7996 64.5483 48.9762 64.5802 49.1478C64.612 49.3194 64.6826 49.4814 64.7866 49.6216C64.8906 49.7618 65.0252 49.8763 65.1802 49.9565L65.3178 50.0269L64.7519 51.1211L62.0944 49.7533L59.4431 48.3793L60.009 47.2835Z" fill="#CA3927"/>
<path fill-rule="evenodd" clip-rule="evenodd" d="M66.7738 38.2339C67.2121 38.4626 66.6034 40.5412 65.4123 42.8736C64.2213 45.206 62.9001 46.9134 62.4695 46.6847C62.0389 46.456 62.6399 44.3774 63.8309 42.045C65.022 39.7126 66.3355 38.0052 66.7738 38.2339Z" fill="#F04B23"/>
<path fill-rule="evenodd" clip-rule="evenodd" d="M86.1076 3.39673L84.6833 11.4454L71.3964 37.1944L67.0858 34.9697L80.3727 9.22067L86.1076 3.39673Z" fill="#D1D2D2"/>
<path fill-rule="evenodd" clip-rule="evenodd" d="M81.808 7.74434L84.0702 6.27113L83.2747 11.0728L71.3317 37.1944L84.677 11.4454L86.1076 3.39673L81.808 7.74434Z" fill="#E6E6E5"/>
<path fill-rule="evenodd" clip-rule="evenodd" d="M82.3712 10.6997L76.0933 23.5217L69.8138 36.3452L69.1284 35.9964L68.4445 35.6476L75.4079 23.1745L82.3712 10.6997Z" fill="#818181"/>
<path fill-rule="evenodd" clip-rule="evenodd" d="M65.7726 33.4234L73.3722 37.3669C73.763 37.0841 74.2371 36.9418 74.7181 36.9631C75.1991 36.9844 75.6589 37.168 76.0234 37.4842C76.388 37.8005 76.636 38.231 76.7275 38.7064C76.819 39.1817 76.7486 39.6742 76.5277 40.1044C76.3068 40.5346 75.9483 40.8775 75.5099 41.0777C75.0716 41.2779 74.5789 41.3238 74.1114 41.208C73.644 41.0922 73.2289 40.8214 72.9331 40.4394C72.6374 40.0573 72.4782 39.5862 72.4813 39.1021L64.8817 35.1585C64.4905 35.4422 64.0156 35.585 63.5338 35.5639C63.0519 35.5429 62.5912 35.3592 62.2259 35.0425C61.8606 34.7258 61.612 34.2946 61.5203 33.8185C61.4286 33.3423 61.499 32.8489 61.7203 32.418C61.9416 31.987 62.3008 31.6436 62.74 31.4431C63.1791 31.2426 63.6726 31.1968 64.1409 31.3129C64.6091 31.4291 65.0248 31.7005 65.3209 32.0834C65.6169 32.4663 65.7761 32.9384 65.7726 33.4234Z" fill="#333333"/>
</g>
</g>
<defs>
<filter id="filter0_d_508_3549" x="3.68634" y="28.4717" width="30.1288" height="34.7572" filterUnits="userSpaceOnUse" color-interpolation-filters="sRGB">
<feFlood flood-opacity="0" result="BackgroundImageFix"/>
<feColorMatrix in="SourceAlpha" type="matrix" values="0 0 0 0 0 0 0 0 0 0 0 0 0 0 0 0 0 0 127 0" result="hardAlpha"/>
<feOffset dy="4"/>
<feGaussianBlur stdDeviation="2"/>
<feComposite in2="hardAlpha" operator="out"/>
<feColorMatrix type="matrix" values="0 0 0 0 0 0 0 0 0 0 0 0 0 0 0 0 0 0 0.25 0"/>
<feBlend mode="normal" in2="BackgroundImageFix" result="effect1_dropShadow_508_3549"/>
<feBlend mode="normal" in="SourceGraphic" in2="effect1_dropShadow_508_3549" result="shape"/>
</filter>
<filter id="filter1_d_508_3549" x="3.68628" y="28.7593" width="23.3096" height="34.4696" filterUnits="userSpaceOnUse" color-interpolation-filters="sRGB">
<feFlood flood-opacity="0" result="BackgroundImageFix"/>
<feColorMatrix in="SourceAlpha" type="matrix" values="0 0 0 0 0 0 0 0 0 0 0 0 0 0 0 0 0 0 127 0" result="hardAlpha"/>
<feOffset dy="4"/>
<feGaussianBlur stdDeviation="2"/>
<feComposite in2="hardAlpha" operator="out"/>
<feColorMatrix type="matrix" values="0 0 0 0 0 0 0 0 0 0 0 0 0 0 0 0 0 0 0.25 0"/>
<feBlend mode="normal" in2="BackgroundImageFix" result="effect1_dropShadow_508_3549"/>
<feBlend mode="normal" in="SourceGraphic" in2="effect1_dropShadow_508_3549" result="shape"/>
</filter>
<filter id="filter2_d_508_3549" x="22.7786" y="-4.98096" width="47.8534" height="49.0422" filterUnits="userSpaceOnUse" color-interpolation-filters="sRGB">
<feFlood flood-opacity="0" result="BackgroundImageFix"/>
<feColorMatrix in="SourceAlpha" type="matrix" values="0 0 0 0 0 0 0 0 0 0 0 0 0 0 0 0 0 0 127 0" result="hardAlpha"/>
<feOffset dy="4"/>
<feGaussianBlur stdDeviation="5"/>
<feComposite in2="hardAlpha" operator="out"/>
<feColorMatrix type="matrix" values="0 0 0 0 0 0 0 0 0 0 0 0 0 0 0 0 0 0 0.5 0"/>
<feBlend mode="normal" in2="BackgroundImageFix" result="effect1_dropShadow_508_3549"/>
<feBlend mode="normal" in="SourceGraphic" in2="effect1_dropShadow_508_3549" result="shape"/>
</filter>
<filter id="filter3_d_508_3549" x="49.4431" y="-2.60327" width="46.6645" height="67.7244" filterUnits="userSpaceOnUse" color-interpolation-filters="sRGB">
<feFlood flood-opacity="0" result="BackgroundImageFix"/>
<feColorMatrix in="SourceAlpha" type="matrix" values="0 0 0 0 0 0 0 0 0 0 0 0 0 0 0 0 0 0 127 0" result="hardAlpha"/>
<feOffset dy="4"/>
<feGaussianBlur stdDeviation="5"/>
<feComposite in2="hardAlpha" operator="out"/>
<feColorMatrix type="matrix" values="0 0 0 0 0 0 0 0 0 0 0 0 0 0 0 0 0 0 0.5 0"/>
<feBlend mode="normal" in2="BackgroundImageFix" result="effect1_dropShadow_508_3549"/>
<feBlend mode="normal" in="SourceGraphic" in2="effect1_dropShadow_508_3549" result="shape"/>
</filter>
<clipPath id="clip0_508_3549">
<rect width="30.5708" height="31.8649" fill="white" transform="translate(31.9294)"/>
</clipPath>
<clipPath id="clip1_508_3549">
<rect width="28.8843" height="51.8684" fill="white" transform="translate(59.613)"/>
</clipPath>
</defs>
</svg>
