<svg width="89" height="71" viewBox="0 0 89 71" fill="none" xmlns="http://www.w3.org/2000/svg">
<rect x="21.5026" y="24.1279" width="45.9342" height="45.9342" rx="22.9671" fill="#00095B"/>
<rect x="21.5026" y="24.1279" width="45.9342" height="45.9342" rx="22.9671" stroke="#CDCCCC"/>
<path d="M37.6399 41.0001C37.297 41.0012 36.9524 41.0145 36.6054 41.0429C34.3009 41.2349 32.1074 42.5197 32.1034 44.4702C32.101 45.4593 32.8111 46.2608 33.9115 46.2255C35.2045 46.1821 36.266 45.1564 36.8217 43.8632C37.0326 43.3725 36.6421 43.1687 36.4563 43.4512C36.1327 43.9447 35.6819 44.3417 35.1515 44.6004C34.5431 44.8954 33.8928 44.8158 33.6956 44.3267C33.4184 43.6365 33.9946 42.6039 35.3094 42.1179C37.2086 41.4218 39.1956 41.8823 41.1077 42.238C41.135 42.238 41.2368 42.2939 41.1468 42.3403C40.8044 42.5252 40.4673 42.6755 39.9421 43.123C39.5656 43.4422 39.0726 43.8673 38.6914 44.3303C38.3129 44.7866 38.0447 45.1937 37.6898 45.6449C37.6403 45.7101 37.5794 45.7071 37.5801 45.7071C36.715 45.8518 35.8681 45.9487 35.0927 46.4826C34.9323 46.5922 34.8627 46.7867 34.9599 46.9355C35.0473 47.0675 35.2472 47.0815 35.386 46.9816C35.8678 46.6247 36.3638 46.4568 36.9325 46.4412C36.9574 46.4427 36.9693 46.4467 36.9763 46.4619C36.9807 46.4704 36.978 46.4884 36.9678 46.5017C36.1158 47.672 35.9024 47.9365 35.2614 48.6621C34.9336 49.035 34.6111 49.3498 34.2509 49.6774C32.7956 51.0161 31.2303 50.993 30.6687 50.1536C30.3331 49.6499 30.3773 49.1211 30.5973 48.6824C30.868 48.1451 31.4151 47.7513 31.8701 47.5213C32.0391 47.436 32.0877 47.2221 31.9185 47.0272C31.811 46.9002 31.5503 46.8776 31.3562 46.9129C30.7601 47.0219 30.0557 47.4681 29.6396 48.005C29.1705 48.6075 28.9362 49.339 29.0149 50.1599C29.1561 51.6412 30.3879 52.4968 31.7864 52.487C32.8991 52.4784 33.9473 52.1445 35.2085 50.8769C36.3842 49.6946 37.4552 47.9285 38.4582 46.2908C38.4897 46.2385 38.512 46.2105 38.6644 46.1917C39.2935 46.1138 40.2224 46.0251 40.8177 45.9909C40.95 45.9837 40.9769 45.9852 41.03 46.0506C41.1851 46.2444 41.418 46.4088 41.6046 46.5089C41.6956 46.5578 41.7389 46.5823 41.8104 46.5834C41.8985 46.5853 41.9671 46.5383 42.0115 46.4887C42.0746 46.42 42.0921 46.3302 42.0579 46.2724C42.0223 46.2118 41.6071 45.9839 41.5948 45.8918C41.5857 45.8343 41.6492 45.8205 41.6492 45.8205C41.9544 45.7257 42.272 45.5306 42.4644 45.1656C42.6534 44.8063 42.684 44.3268 42.3381 44.0603C42.0346 43.8261 41.576 43.8631 41.2101 44.1882C40.8521 44.5039 40.7337 44.9632 40.782 45.3657C40.7907 45.4354 40.7871 45.4589 40.691 45.4669C40.1408 45.5105 39.6107 45.5256 39.021 45.5565C38.9816 45.5594 38.9691 45.5336 38.992 45.5065C39.671 44.3386 40.6847 43.5069 41.8059 42.6879C41.8803 42.6327 41.8576 42.5278 41.8545 42.4402C43.879 42.8757 45.8355 43.6862 47.9358 43.669C48.8043 43.662 49.6358 43.5312 50.4306 43.0994C51.1296 42.722 51.4132 42.3728 51.4341 42.0099C51.4504 41.7591 51.2742 41.6005 51.0234 41.6545C48.9013 42.1372 46.8768 42.1319 44.7655 41.879C42.3541 41.5892 40.0402 40.9926 37.6399 41.0001ZM41.8759 44.3848C41.9255 44.3874 41.9719 44.4039 42.0094 44.4357C42.1213 44.5303 42.0684 44.7664 41.9554 44.9298C41.8319 45.1101 41.6226 45.2657 41.4317 45.3037C41.3934 45.3107 41.3602 45.2944 41.3445 45.2104C41.3134 44.988 41.3864 44.6902 41.6265 44.4803C41.7016 44.4145 41.7932 44.3804 41.8759 44.3848ZM58.9115 44.4274C58.5256 44.4274 58.0196 44.4281 57.6175 44.4281C57.5218 44.4281 57.4723 44.4396 57.427 44.5278C57.2787 44.8093 55.4703 47.4927 55.1336 48.0139C55.0771 48.0932 55.0077 48.0821 54.9998 47.9917C54.9656 47.6822 54.6958 47.3266 54.2705 47.1563C53.9463 47.0261 53.6293 47.0026 53.3 47.0458C52.7053 47.1249 52.1754 47.4358 51.7094 47.786C51.0074 48.3148 50.4017 48.9993 49.6196 49.5055C49.1927 49.781 48.6082 50.0213 48.217 49.663C47.8631 49.338 47.9029 48.6161 48.4445 48.0579C48.5016 47.9993 48.5701 48.0482 48.5593 48.1007C48.5081 48.3532 48.571 48.6043 48.7646 48.7804C49.0009 48.9899 49.339 49.0138 49.6284 48.8739C49.97 48.7065 50.1706 48.3828 50.2294 48.0154C50.3199 47.4456 49.8768 46.9431 49.3228 46.9029C48.8725 46.8716 48.4408 47.0267 48.0203 47.3706C47.8093 47.5437 47.6892 47.6719 47.507 47.9286C47.4625 47.9919 47.3942 47.9983 47.3965 47.9049C47.4176 47.1755 47.1126 46.7651 46.5035 46.7516C46.031 46.7406 45.5258 46.9942 45.1322 47.3052C44.7007 47.6483 44.3234 48.103 43.919 48.5303C43.8688 48.583 43.8248 48.5806 43.8108 48.4784C43.7985 47.9951 43.6757 47.527 43.4497 47.1946C43.3699 47.079 43.2017 47.0217 43.0603 47.0998C42.9951 47.1353 42.7678 47.2386 42.6027 47.3704C42.5206 47.4373 42.4889 47.5342 42.5249 47.6584C42.7429 48.3801 42.6949 49.2011 42.3992 49.8946C42.1275 50.5294 41.5995 51.1024 40.9791 51.2961C40.5704 51.4245 40.1453 51.3617 39.8823 51.0028C39.5212 50.5076 39.6672 49.6465 40.2053 48.9311C40.6806 48.3017 41.3675 47.9016 42.0532 47.644C42.134 47.6132 42.1504 47.5621 42.1277 47.4942C42.0903 47.3824 42.0311 47.2306 42.0066 47.161C41.9438 46.9955 41.7677 46.9684 41.5529 46.9917C41.0548 47.0492 40.6057 47.2181 40.1618 47.4534C38.9996 48.0696 38.4172 49.2621 38.1616 49.9003C38.0388 50.2065 37.9336 50.398 37.7976 50.5675C37.6145 50.7956 37.3845 51.003 36.964 51.3687C36.9261 51.4023 36.8977 51.4722 36.9295 51.537C36.9725 51.6252 37.1911 51.9308 37.2529 51.9581C37.3214 51.9915 37.4007 51.9449 37.4326 51.9222C37.7268 51.7248 38.0789 51.4118 38.2513 51.1994C38.3116 51.1268 38.3738 51.1574 38.4059 51.2677C38.5666 51.8357 38.9877 52.2994 39.5699 52.4934C40.6354 52.8492 41.7407 52.3342 42.5749 51.4376C43.105 50.8679 43.2964 50.5013 43.4996 50.2522C43.8439 49.8296 44.5234 48.8843 45.3324 48.2774C45.6291 48.0537 45.9804 47.8831 46.1571 47.9963C46.2988 48.0873 46.3445 48.2986 46.117 48.7081C45.2923 50.1997 44.078 51.9521 43.8555 52.3774C43.8149 52.4511 43.8503 52.5089 43.9282 52.5089C44.36 52.507 44.7881 52.5079 45.18 52.5079C45.245 52.5049 45.2744 52.4756 45.307 52.4299C45.9401 51.4487 46.536 50.5144 47.1745 49.5488C47.2105 49.492 47.2433 49.5361 47.2447 49.5609C47.2579 49.7848 47.3134 50.0914 47.4477 50.2928C47.6892 50.6647 48.0313 50.8245 48.4108 50.827C48.7127 50.8304 48.8653 50.785 49.1908 50.6646C49.4186 50.5799 49.6341 50.4654 49.8316 50.324C49.927 50.2586 49.9436 50.3683 49.9412 50.3851C49.7948 51.1642 49.9757 52.087 50.7576 52.4698C51.6934 52.9268 52.7214 52.2846 53.3129 51.7051C53.3708 51.6491 53.4332 51.655 53.439 51.7752C53.4516 51.9966 53.5524 52.2593 53.7375 52.4432C54.2331 52.9357 55.2334 52.7406 56.2373 51.971C56.8819 51.4787 57.5562 50.7827 58.1654 50.0458C58.1879 50.0173 58.2048 49.9712 58.1612 49.925C58.0683 49.8288 57.9341 49.7188 57.8422 49.6341C57.8003 49.5988 57.7386 49.6089 57.7031 49.6357C57.0788 50.2236 56.5169 50.8942 55.7043 51.4488C55.4303 51.638 54.9939 51.7908 54.7976 51.528C54.7212 51.426 54.73 51.2847 54.8053 51.0995C55.0425 50.5144 58.7924 44.8611 58.9869 44.5282L58.9873 44.5278C59.0206 44.4698 58.9854 44.4274 58.9115 44.4274ZM53.657 47.9617C53.7552 47.9608 53.8471 47.9795 53.9309 48.0194C54.3927 48.2376 54.2452 48.7671 54.0387 49.1829C54.0317 49.1959 54.0274 49.2102 54.0259 49.2249C54.0245 49.2397 54.026 49.2545 54.0304 49.2687C54.038 49.3119 54.0948 49.3538 54.1507 49.3737C54.1702 49.3809 54.1813 49.3949 54.1592 49.4404C53.9995 49.7788 53.8531 49.9739 53.6531 50.2678C53.4696 50.5395 53.2625 50.7513 53.0115 50.9553C52.6333 51.2653 52.1081 51.6025 51.674 51.3758C51.481 51.2764 51.3977 51.0093 51.4015 50.7929C51.4115 50.1843 51.684 49.5598 52.1887 48.9459C52.6887 48.3365 53.2316 47.9654 53.657 47.9617Z" fill="white"/>
<g filter="url(#filter0_d_508_4502)">
<path d="M22.9947 55.2289L23.606 54.4472C26.9584 50.1446 31.129 44.7916 29.418 37.6186L27.7876 30.7841L26.5815 31.0719C22.2268 32.1106 18.4895 30.9928 17.8881 28.4717L15.4759 29.0471C16.0773 31.5682 13.247 34.2527 8.89229 35.2915L7.68618 35.5792L9.31651 42.4137C11.0276 49.5867 17.1656 52.4806 22.0974 54.8059L22.9947 55.2289Z" fill="#D84025"/>
</g>
<g filter="url(#filter1_d_508_4502)">
<path d="M8.89224 35.2914C13.2469 34.2527 16.0773 31.5681 15.4759 29.047L16.682 28.7593L22.9958 55.2274L22.9946 55.2288L22.0973 54.8058C17.1655 52.4805 11.0275 49.5867 9.31646 42.4136L7.68614 35.5791L8.89224 35.2914Z" fill="#A13023"/>
</g>
<g clip-path="url(#clip0_508_4502)">
<g filter="url(#filter2_d_508_4502)">
<path fill-rule="evenodd" clip-rule="evenodd" d="M54.4434 22.5884C54.7526 23.8439 55.0605 25.0985 55.367 26.352C52.5429 27.9683 48.9769 28.8708 44.4974 28.8724V23.6889L54.4434 22.5884Z" fill="#535353"/>
<path fill-rule="evenodd" clip-rule="evenodd" d="M34.5597 22.5884C34.2464 23.8439 33.9357 25.0985 33.6278 26.352C36.4581 27.9683 40.016 28.8708 44.4974 28.8724V23.6889L34.5597 22.5884Z" fill="#676767"/>
<path fill-rule="evenodd" clip-rule="evenodd" d="M42.2742 9.0759C35.8217 3.36948 48.0228 3.91021 51.4613 1.01904C51.704 1.26047 51.8479 1.55073 51.8751 1.85375C51.9023 2.15677 51.8117 2.45917 51.6143 2.72338C53.1408 3.67161 55.8242 2.37786 57.2792 4.1953C55.6304 4.12403 54.6264 4.61829 54.0142 5.27988C58.5363 4.75618 56.767 7.94329 60.632 8.12302C57.7527 9.34239 50.9899 7.00126 46.8086 9.8506C44.921 9.79792 44.1618 9.13323 42.2742 9.0759Z" fill="#A23023"/>
<path fill-rule="evenodd" clip-rule="evenodd" d="M60.63 8.0703C57.7798 9.32968 51.0666 6.93003 46.9159 9.85058C46.1435 9.81775 45.3835 9.6841 44.6673 9.45514C50.0962 4.6606 54.9134 8.91676 60.632 8.0703H60.63Z" fill="#1A1A1A"/>
<path fill-rule="evenodd" clip-rule="evenodd" d="M42.6511 8.5912C43.3962 8.64925 44.1271 8.78319 44.8233 8.98926L44.8724 9.00146C44.6293 8.72999 44.3902 8.45851 44.1552 8.18703C42.0199 6.37056 46.5139 4.22161 49.2393 3.78084C50.2209 4.41531 51.7332 4.11485 52.5078 4.5602C51.8398 5.1001 51.4258 6.0335 50.7557 6.57341C58.4075 5.79863 54.9218 7.64102 58.594 7.99791C58.3468 7.87292 58.1223 7.72478 57.9259 7.55714C56.6964 6.5124 56.8788 5.37158 54.1984 5.67661L52.7066 5.84591C52.9703 5.57341 53.236 5.30142 53.5037 5.02995C54.108 4.39937 55.0175 3.96796 56.0407 3.82659C55.8008 3.72215 55.5366 3.6523 55.262 3.6207C55.0001 3.5912 54.7358 3.5754 54.471 3.57342C53.2783 3.55206 52.141 3.62222 51.1922 3.05181L50.8398 2.83676C50.9094 2.7422 50.9811 2.64917 51.0447 2.55613C51.2033 2.34732 51.2699 2.10676 51.2353 1.86829C50.0057 2.56223 48.3049 3.02893 46.8479 3.41632C45.6942 3.72136 44.4831 4.02639 43.3888 4.40615C42.6163 4.67763 41.7494 5.05435 41.3396 5.56985C40.5957 6.5307 41.7453 7.77981 42.6511 8.5912Z" fill="#EF4123"/>
<path fill-rule="evenodd" clip-rule="evenodd" d="M43.7259 8.71744C44.1136 8.79334 44.496 8.88402 44.8715 8.98912L44.9205 9.0014C44.6782 8.72818 44.4399 8.45496 44.2058 8.18175C42.078 6.35365 46.5562 4.19094 49.2721 3.74734C50.2502 4.38587 51.7572 4.08349 52.5291 4.53169C51.8634 5.07505 51.4509 6.01443 50.7832 6.55779C58.4081 5.77805 54.9346 7.63224 58.594 7.99142C56.6888 7.61843 56.7235 6.27076 55.6412 5.94689C54.5589 5.62302 53.1295 6.369 52.039 6.04513C52.1534 5.42041 52.67 4.91235 53.4215 4.13721C52.378 3.66292 49.7458 4.08656 50.2931 2.71741C47.9509 4.65909 40.4055 3.85479 43.2685 8.55013L43.7259 8.71744Z" fill="#D03927"/>
<path d="M44.4125 12.7378C46.3354 12.7378 47.8942 11.7113 47.8942 10.445C47.8942 9.17875 46.3354 8.15222 44.4125 8.15222C42.4896 8.15222 40.9308 9.17875 40.9308 10.445C40.9308 11.7113 42.4896 12.7378 44.4125 12.7378Z" fill="#CDCCCC"/>
<path fill-rule="evenodd" clip-rule="evenodd" d="M44.4279 10.5299C48.7929 10.5299 52.5226 12.2605 54.0145 14.7017C54.8158 14.959 55.3671 15.4889 55.3671 16.0954C55.363 16.297 55.3022 16.4957 55.1885 16.6786C55.0748 16.8615 54.9108 17.0244 54.7072 17.1567C54.6334 20.7266 50.0594 23.6074 44.4279 23.6074C38.7964 23.6074 34.2388 20.7328 34.1527 17.172C33.94 17.0392 33.7679 16.8738 33.648 16.687C33.5282 16.5002 33.4634 16.2964 33.458 16.0893C33.458 15.4767 34.0277 14.936 34.8474 14.6833C36.3455 12.2483 40.069 10.5299 44.4279 10.5299Z" fill="#8B8A8A"/>
<path fill-rule="evenodd" clip-rule="evenodd" d="M42.7991 20.2107C46.6371 20.2107 49.7624 18.2312 49.7624 15.7949C49.7624 13.3586 46.6309 11.3792 42.7991 11.3792C38.9672 11.3792 35.8357 13.3586 35.8357 15.7949C35.8357 18.2312 38.959 20.2107 42.7991 20.2107Z" fill="#989898"/>
<path fill-rule="evenodd" clip-rule="evenodd" d="M40.6761 15.2854C42.1269 15.2854 43.3086 14.5219 43.3086 13.587C43.3086 12.6522 42.1269 11.8887 40.6761 11.8887C39.2252 11.8887 38.0436 12.6506 38.0436 13.587C38.0436 14.5235 39.2376 15.2854 40.6761 15.2854Z" fill="#ACACAC"/>
<path fill-rule="evenodd" clip-rule="evenodd" d="M44.4974 14.2665H44.3978C43.0093 14.2611 41.6312 14.4487 40.3309 14.82L32.7787 16.9646V23.3547C36.083 26.2792 39.9364 28.5695 44.4974 30.0613V14.2665Z" fill="#CDCCCC"/>
<path fill-rule="evenodd" clip-rule="evenodd" d="M42.7991 15.2854C42.1973 15.3616 41.6068 15.484 41.0364 15.651L39.5886 16.0678V26.7622C40.6103 27.3513 41.6823 27.8861 42.7971 28.3629V15.2854H42.7991ZM38.9088 16.2638L36.6568 16.9125V24.8458C37.3687 25.37 38.1187 25.8771 38.9088 26.3593V16.2638ZM35.979 17.1069L34.477 17.5394V23.0865C34.9583 23.5096 35.459 23.9244 35.979 24.3309V17.1069Z" fill="#333333"/>
<path fill-rule="evenodd" clip-rule="evenodd" d="M44.4974 14.2664H44.5971C45.9821 14.262 47.3567 14.4496 48.6538 14.82L56.2162 16.963V23.3532C52.9098 26.2792 49.0564 28.5695 44.4974 30.0613V14.2664Z" fill="#B4B4B4"/>
<path fill-rule="evenodd" clip-rule="evenodd" d="M46.1958 15.2854C46.8099 15.3618 47.4126 15.4842 47.9949 15.651L49.4726 16.0678V26.7622C48.4295 27.351 47.3354 27.8857 46.1979 28.3629V15.2854H46.1958ZM50.1665 16.2638L52.4629 16.9125V24.8458C51.7384 25.37 50.9729 25.8771 50.1665 26.3593V16.2638ZM53.1568 17.1069L54.6877 17.5394V23.0865C54.1979 23.5096 53.6875 23.9244 53.1568 24.3309V17.1069Z" fill="#1A1A1A"/>
<path fill-rule="evenodd" clip-rule="evenodd" d="M43.534 8.66174C44.1859 8.66174 44.4984 8.96662 44.2332 9.34109C44.0652 9.54109 43.8242 9.70857 43.5333 9.82751C43.2424 9.94646 42.9113 10.0129 42.5716 10.0204C41.9218 10.0204 41.6093 9.71696 41.8745 9.34109C42.0426 9.14147 42.2834 8.97426 42.5738 8.85535C42.8643 8.73645 43.1948 8.6698 43.534 8.66174Z" fill="#E3E3E3"/>
</g>
</g>
<g clip-path="url(#clip1_508_4502)">
<g filter="url(#filter3_d_508_4502)">
<path fill-rule="evenodd" clip-rule="evenodd" d="M60.009 47.2835L60.145 47.3539C60.2992 47.4366 60.4708 47.4817 60.6458 47.4855C60.8207 47.4893 60.9941 47.4517 61.1518 47.3757C61.3116 47.3045 61.4523 47.1966 61.5626 47.0608C61.6728 46.925 61.7495 46.7651 61.7865 46.5942C62.0991 45.2279 62.7244 43.5585 63.6139 41.8343C64.5034 40.1101 65.5023 38.6345 66.4278 37.5887C66.5437 37.4584 66.6283 37.3033 66.6752 37.1353C66.722 36.9673 66.7298 36.7908 66.698 36.6193C66.6661 36.4478 66.5955 36.2859 66.4915 36.1459C66.3875 36.0058 66.2529 35.8914 66.0979 35.8114L65.9603 35.7411L66.5262 34.6469L69.1838 36.0162L71.8413 37.384L71.2754 38.4782L71.1394 38.4078C70.9837 38.3264 70.8114 38.2819 70.6357 38.2777C70.46 38.2736 70.2858 38.31 70.1265 38.3841C69.9671 38.4581 69.827 38.5679 69.7169 38.7049C69.6068 38.8418 69.5298 39.0023 69.4917 39.1738C69.1791 40.5384 68.5538 42.2095 67.6643 43.9321C66.7748 45.6547 65.7759 47.1319 64.8504 48.1776C64.7345 48.3081 64.6498 48.4633 64.603 48.6314C64.5562 48.7996 64.5484 48.9762 64.5802 49.1478C64.612 49.3194 64.6826 49.4814 64.7866 49.6216C64.8906 49.7618 65.0253 49.8763 65.1803 49.9565L65.3178 50.0269L64.7519 51.1211L62.0944 49.7533L59.4431 48.3793L60.009 47.2835Z" fill="#CA3927"/>
<path fill-rule="evenodd" clip-rule="evenodd" d="M66.7738 38.2339C67.2121 38.4626 66.6034 40.5412 65.4123 42.8736C64.2213 45.206 62.9001 46.9134 62.4695 46.6847C62.0389 46.456 62.6399 44.3774 63.8309 42.045C65.022 39.7126 66.3355 38.0052 66.7738 38.2339Z" fill="#F04B23"/>
<path fill-rule="evenodd" clip-rule="evenodd" d="M86.1077 3.39673L84.6833 11.4454L71.3964 37.1944L67.0858 34.9697L80.3728 9.22067L86.1077 3.39673Z" fill="#D1D2D2"/>
<path fill-rule="evenodd" clip-rule="evenodd" d="M81.808 7.74434L84.0703 6.27113L83.2748 11.0728L71.3318 37.1944L84.6771 11.4454L86.1077 3.39673L81.808 7.74434Z" fill="#E6E6E5"/>
<path fill-rule="evenodd" clip-rule="evenodd" d="M82.3712 10.6997L76.0933 23.5217L69.8138 36.3452L69.1284 35.9964L68.4445 35.6476L75.4079 23.1745L82.3712 10.6997Z" fill="#818181"/>
<path fill-rule="evenodd" clip-rule="evenodd" d="M65.7727 33.4234L73.3723 37.3669C73.7631 37.0841 74.2371 36.9418 74.7181 36.9631C75.1991 36.9844 75.659 37.168 76.0235 37.4842C76.3881 37.8005 76.6361 38.231 76.7275 38.7064C76.819 39.1817 76.7486 39.6742 76.5278 40.1044C76.3069 40.5346 75.9483 40.8775 75.51 41.0777C75.0716 41.2779 74.579 41.3238 74.1115 41.208C73.644 41.0922 73.2289 40.8214 72.9332 40.4394C72.6375 40.0573 72.4783 39.5862 72.4814 39.1021L64.8818 35.1585C64.4905 35.4422 64.0157 35.585 63.5338 35.5639C63.052 35.5429 62.5913 35.3592 62.226 35.0425C61.8607 34.7258 61.6121 34.2946 61.5204 33.8185C61.4286 33.3423 61.4991 32.8489 61.7204 32.418C61.9417 31.987 62.3009 31.6436 62.74 31.4431C63.1792 31.2426 63.6727 31.1968 64.1409 31.3129C64.6092 31.4291 65.0249 31.7005 65.3209 32.0834C65.617 32.4663 65.7761 32.9384 65.7727 33.4234Z" fill="#333333"/>
</g>
</g>
<defs>
<filter id="filter0_d_508_4502" x="3.68619" y="28.4717" width="30.1288" height="34.7572" filterUnits="userSpaceOnUse" color-interpolation-filters="sRGB">
<feFlood flood-opacity="0" result="BackgroundImageFix"/>
<feColorMatrix in="SourceAlpha" type="matrix" values="0 0 0 0 0 0 0 0 0 0 0 0 0 0 0 0 0 0 127 0" result="hardAlpha"/>
<feOffset dy="4"/>
<feGaussianBlur stdDeviation="2"/>
<feComposite in2="hardAlpha" operator="out"/>
<feColorMatrix type="matrix" values="0 0 0 0 0 0 0 0 0 0 0 0 0 0 0 0 0 0 0.25 0"/>
<feBlend mode="normal" in2="BackgroundImageFix" result="effect1_dropShadow_508_4502"/>
<feBlend mode="normal" in="SourceGraphic" in2="effect1_dropShadow_508_4502" result="shape"/>
</filter>
<filter id="filter1_d_508_4502" x="3.68613" y="28.7593" width="23.3096" height="34.4696" filterUnits="userSpaceOnUse" color-interpolation-filters="sRGB">
<feFlood flood-opacity="0" result="BackgroundImageFix"/>
<feColorMatrix in="SourceAlpha" type="matrix" values="0 0 0 0 0 0 0 0 0 0 0 0 0 0 0 0 0 0 127 0" result="hardAlpha"/>
<feOffset dy="4"/>
<feGaussianBlur stdDeviation="2"/>
<feComposite in2="hardAlpha" operator="out"/>
<feColorMatrix type="matrix" values="0 0 0 0 0 0 0 0 0 0 0 0 0 0 0 0 0 0 0.25 0"/>
<feBlend mode="normal" in2="BackgroundImageFix" result="effect1_dropShadow_508_4502"/>
<feBlend mode="normal" in="SourceGraphic" in2="effect1_dropShadow_508_4502" result="shape"/>
</filter>
<filter id="filter2_d_508_4502" x="22.7787" y="-4.98096" width="47.8534" height="49.0422" filterUnits="userSpaceOnUse" color-interpolation-filters="sRGB">
<feFlood flood-opacity="0" result="BackgroundImageFix"/>
<feColorMatrix in="SourceAlpha" type="matrix" values="0 0 0 0 0 0 0 0 0 0 0 0 0 0 0 0 0 0 127 0" result="hardAlpha"/>
<feOffset dy="4"/>
<feGaussianBlur stdDeviation="5"/>
<feComposite in2="hardAlpha" operator="out"/>
<feColorMatrix type="matrix" values="0 0 0 0 0 0 0 0 0 0 0 0 0 0 0 0 0 0 0.5 0"/>
<feBlend mode="normal" in2="BackgroundImageFix" result="effect1_dropShadow_508_4502"/>
<feBlend mode="normal" in="SourceGraphic" in2="effect1_dropShadow_508_4502" result="shape"/>
</filter>
<filter id="filter3_d_508_4502" x="49.4431" y="-2.60327" width="46.6645" height="67.7244" filterUnits="userSpaceOnUse" color-interpolation-filters="sRGB">
<feFlood flood-opacity="0" result="BackgroundImageFix"/>
<feColorMatrix in="SourceAlpha" type="matrix" values="0 0 0 0 0 0 0 0 0 0 0 0 0 0 0 0 0 0 127 0" result="hardAlpha"/>
<feOffset dy="4"/>
<feGaussianBlur stdDeviation="5"/>
<feComposite in2="hardAlpha" operator="out"/>
<feColorMatrix type="matrix" values="0 0 0 0 0 0 0 0 0 0 0 0 0 0 0 0 0 0 0.5 0"/>
<feBlend mode="normal" in2="BackgroundImageFix" result="effect1_dropShadow_508_4502"/>
<feBlend mode="normal" in="SourceGraphic" in2="effect1_dropShadow_508_4502" result="shape"/>
</filter>
<clipPath id="clip0_508_4502">
<rect width="30.5708" height="31.8649" fill="white" transform="translate(31.9295)"/>
</clipPath>
<clipPath id="clip1_508_4502">
<rect width="28.8843" height="51.8684" fill="white" transform="translate(59.613)"/>
</clipPath>
</defs>
</svg>
