<svg width="90" height="71" viewBox="0 0 90 71" fill="none" xmlns="http://www.w3.org/2000/svg">
<rect x="21.5801" y="24.1279" width="45.9342" height="45.9342" rx="22.9671" fill="#0065AF"/>
<rect x="21.5801" y="24.1279" width="45.9342" height="45.9342" rx="22.9671" stroke="#CDCCCC"/>
<path d="M37.9528 45.3107V50.6136H36.2422V43.9422H39.749C41.203 43.9422 41.7162 44.9685 41.7162 45.9094V50.6136H40.0911V45.9094C40.0911 45.5673 39.8345 45.3107 39.3213 45.3107H37.9528ZM49.3285 45.2251C48.3876 45.2251 48.0455 45.8239 48.0455 46.6792H50.697C50.6115 45.9094 50.3549 45.2251 49.3285 45.2251ZM48.0455 47.7911C48.0455 48.6464 48.6442 49.2451 49.5851 49.2451C50.3549 49.2451 50.697 49.0741 51.1247 48.6464L52.151 49.6728C51.4668 50.2715 50.7825 50.6992 49.5851 50.6992C47.96 50.6992 46.4204 49.8438 46.4204 47.2779C46.4204 45.0541 47.1047 43.8566 49.4995 43.8566C51.8944 43.8566 52.3221 45.5673 52.3221 47.7911H48.0455ZM44.9664 50.6136C43.5979 50.6136 42.9992 49.6728 42.9992 48.6464V42.146H44.7098V43.9422H45.9928V45.3107H44.7098V48.5609C44.7098 48.9885 44.8808 49.1596 45.3085 49.1596H45.9928V50.6136H44.9664ZM34.7881 43.0013H33.0775V41.3762H34.7881V43.0013ZM34.7881 50.6992C33.5051 50.5281 33.0775 49.7583 33.0775 48.903V43.9422H34.7881V50.6992ZM55.0591 50.5281C53.7761 50.4426 53.3485 49.6728 53.3485 48.7319V41.2052H55.0591V50.5281ZM60.9608 42.2315C59.4212 34.7048 44.8808 34.2771 35.4724 40.0077V40.6064C44.8808 35.8167 58.1382 35.8167 59.4212 42.7447C59.7633 45.0541 58.4804 47.449 56.171 48.8175V50.6136C58.9936 49.5872 61.8161 46.2515 60.9608 42.2315ZM43.8545 55.4034C37.4396 56.0021 30.5971 55.0613 29.6562 50.0149C29.2286 47.5345 30.3405 44.883 31.88 43.1724V42.3171C29.143 44.7119 27.689 47.7056 28.5443 51.2979C29.5707 55.831 35.3868 58.4825 44.2821 57.6272C47.7889 57.2851 52.4076 56.0876 55.5723 54.377V51.8966C52.6642 53.6072 47.8745 55.0613 43.8545 55.4034Z" fill="white"/>
<g clip-path="url(#clip0_508_3493)">
<g filter="url(#filter0_d_508_3493)">
<path d="M66.9177 55.4018L66.3041 54.6172C62.9389 50.2981 58.7524 44.9249 60.47 37.7246L62.1065 30.8641L63.3172 31.1529C67.6885 32.1956 71.4401 31.0735 72.0438 28.5428L74.4651 29.1204C73.8614 31.6511 76.7025 34.3459 81.0738 35.3886L82.2845 35.6774L80.6479 42.5379C78.9304 49.7382 72.769 52.6431 67.8185 54.9772L66.9177 55.4018Z" fill="#7AB9E8"/>
</g>
<g filter="url(#filter1_d_508_3493)">
<path d="M81.0738 35.3887C76.7026 34.3459 73.8615 31.6512 74.4652 29.1205L73.2545 28.8317L66.9166 55.4004L66.9178 55.4019L67.8185 54.9773C72.7691 52.6431 78.9304 49.7383 80.648 42.538L82.2845 35.6775L81.0738 35.3887Z" fill="#579ADF"/>
</g>
</g>
<g clip-path="url(#clip1_508_3493)">
<g filter="url(#filter2_d_508_3493)">
<path fill-rule="evenodd" clip-rule="evenodd" d="M35.148 22.6743C34.8375 23.9347 34.5285 25.194 34.2208 26.4523C37.0557 28.0747 40.6352 28.9807 45.1317 28.9822V23.779L35.148 22.6743Z" fill="#535353"/>
<path fill-rule="evenodd" clip-rule="evenodd" d="M55.1073 22.6743C55.4218 23.9347 55.7336 25.194 56.0427 26.4523C53.2016 28.0747 49.6302 28.9807 45.1317 28.9822V23.779L55.1073 22.6743Z" fill="#676767"/>
<path fill-rule="evenodd" clip-rule="evenodd" d="M47.3634 9.11046C53.8405 3.38232 41.593 3.92512 38.1414 1.02295C37.8978 1.26529 37.7533 1.55666 37.726 1.86083C37.6987 2.165 37.7897 2.46856 37.9878 2.73377C36.4555 3.68561 33.7619 2.38694 32.3013 4.21129C33.9565 4.13975 34.9643 4.63589 35.5788 5.3C31.0395 4.77431 32.8155 7.97354 28.9358 8.15395C31.8261 9.37797 38.6146 7.02792 42.8118 9.8881C44.7066 9.83522 45.4686 9.168 47.3634 9.11046Z" fill="#1B2241"/>
<path fill-rule="evenodd" clip-rule="evenodd" d="M28.9378 8.10108C31.7988 9.36525 38.5376 6.95647 42.7041 9.88814C43.4794 9.85518 44.2423 9.72102 44.9612 9.49119C39.5116 4.67842 34.6762 8.95077 28.9358 8.10108H28.9378Z" fill="#1A1A1A"/>
<path fill-rule="evenodd" clip-rule="evenodd" d="M46.9851 8.62385C46.2371 8.68213 45.5035 8.81658 44.8047 9.02344L44.7553 9.03568C44.9994 8.76317 45.2394 8.49066 45.4753 8.21815C47.6187 6.39477 43.1076 4.23764 40.3718 3.79519C39.3865 4.43208 37.8684 4.13048 37.0909 4.57752C37.7615 5.11948 38.177 6.05643 38.8496 6.59839C31.1687 5.82066 34.6677 7.67006 30.9816 8.02831C31.2297 7.90284 31.455 7.75414 31.6521 7.58586C32.8863 6.53715 32.7033 5.39199 35.3938 5.69818L36.8913 5.86812C36.6267 5.59459 36.36 5.32156 36.0912 5.04905C35.4846 4.41608 34.5717 3.98303 33.5446 3.84112C33.7854 3.73628 34.0506 3.66616 34.3263 3.63444C34.5891 3.60483 34.8544 3.58897 35.1203 3.58698C36.3174 3.56555 37.4591 3.63597 38.4115 3.06339L38.7653 2.84753C38.6953 2.75261 38.6234 2.65922 38.5596 2.56583C38.4004 2.35623 38.3335 2.11475 38.3683 1.87537C39.6025 2.57195 41.3098 3.04043 42.7723 3.42929C43.9304 3.73549 45.1461 4.04168 46.2446 4.42289C47.0201 4.6954 47.8902 5.07355 48.3016 5.59101C49.0483 6.55552 47.8943 7.80938 46.9851 8.62385Z" fill="#4386BB"/>
<path fill-rule="evenodd" clip-rule="evenodd" d="M45.9062 8.75064C45.517 8.82683 45.1332 8.91786 44.7563 9.02335L44.7071 9.03568C44.9503 8.76142 45.1894 8.48717 45.4245 8.21291C47.5604 6.37786 43.0652 4.20692 40.3389 3.76164C39.3571 4.4026 37.8443 4.09907 37.0695 4.54897C37.7377 5.0944 38.1518 6.03735 38.8221 6.58278C31.1681 5.80007 34.6548 7.66132 30.9816 8.02186C32.894 7.64745 32.8592 6.29466 33.9456 5.96956C35.032 5.64445 36.4668 6.39327 37.5614 6.06816C37.4466 5.44107 36.928 4.93108 36.1737 4.15299C37.2212 3.6769 39.8634 4.10215 39.314 2.72778C41.6651 4.67685 49.2392 3.86949 46.3654 8.5827L45.9062 8.75064Z" fill="#283A84"/>
<path d="M45.2169 12.7863C43.2867 12.7863 41.722 11.7559 41.722 10.4848C41.722 9.21366 43.2867 8.18323 45.2169 8.18323C47.1471 8.18323 48.7119 9.21366 48.7119 10.4848C48.7119 11.7559 47.1471 12.7863 45.2169 12.7863Z" fill="#CDCCCC"/>
<path fill-rule="evenodd" clip-rule="evenodd" d="M45.2015 10.5701C40.8199 10.5701 37.076 12.3072 35.5784 14.7577C34.7741 15.016 34.2207 15.5479 34.2207 16.1567C34.2248 16.3591 34.2859 16.5586 34.4 16.7422C34.5141 16.9257 34.6787 17.0893 34.8831 17.2221C34.9572 20.8056 39.5486 23.6973 45.2015 23.6973C50.8544 23.6973 55.4294 20.8117 55.5158 17.2375C55.7293 17.1041 55.9021 16.9381 56.0224 16.7506C56.1427 16.5631 56.2078 16.3585 56.2131 16.1506C56.2131 15.5356 55.6413 14.993 54.8184 14.7393C53.3147 12.295 49.5769 10.5701 45.2015 10.5701Z" fill="#8B8A8A"/>
<path fill-rule="evenodd" clip-rule="evenodd" d="M46.8365 20.2876C42.9839 20.2876 39.8467 18.3006 39.8467 15.8551C39.8467 13.4095 42.9901 11.4225 46.8365 11.4225C50.683 11.4225 53.8264 13.4095 53.8264 15.8551C53.8264 18.3006 50.6912 20.2876 46.8365 20.2876Z" fill="#989898"/>
<path fill-rule="evenodd" clip-rule="evenodd" d="M48.9676 15.3436C47.5112 15.3436 46.3251 14.5772 46.3251 13.6388C46.3251 12.7004 47.5112 11.934 48.9676 11.934C50.424 11.934 51.6101 12.6988 51.6101 13.6388C51.6101 14.5788 50.4116 15.3436 48.9676 15.3436Z" fill="#ACACAC"/>
<path fill-rule="evenodd" clip-rule="evenodd" d="M45.1317 14.3208H45.2317C46.6255 14.3154 48.0089 14.5037 49.3141 14.8765L56.8951 17.0292V23.4436C53.5781 26.3793 49.7101 28.6783 45.1317 30.1757V14.3208Z" fill="#CDCCCC"/>
<path fill-rule="evenodd" clip-rule="evenodd" d="M46.8365 15.3436C47.4406 15.4201 48.0333 15.543 48.6059 15.7106L50.0593 16.129V26.8641C49.0336 27.4554 47.9576 27.9922 46.8386 28.4709V15.3436H46.8365ZM50.7416 16.3258L53.0022 16.9769V24.9404C52.2876 25.4666 51.5347 25.9756 50.7416 26.4597V16.3258ZM53.6826 17.1721L55.1902 17.6062V23.1744C54.7071 23.5991 54.2046 24.0155 53.6826 24.4236V17.1721Z" fill="#333333"/>
<path fill-rule="evenodd" clip-rule="evenodd" d="M45.1317 14.3208H45.0317C43.6414 14.3163 42.2616 14.5046 40.9595 14.8764L33.3683 17.0276V23.4421C36.6873 26.3793 40.5554 28.6783 45.1317 30.1757V14.3208Z" fill="#B4B4B4"/>
<path fill-rule="evenodd" clip-rule="evenodd" d="M43.4269 15.3436C42.8104 15.4203 42.2055 15.5432 41.621 15.7106L40.1376 16.129V26.8641C41.1847 27.4551 42.283 27.9919 43.4248 28.4709V15.3436H43.4269ZM39.4411 16.3258L37.136 16.9769V24.9404C37.8633 25.4666 38.6316 25.9756 39.4411 26.4597V16.3258ZM36.4395 17.1721L34.9027 17.6062V23.1744C35.3944 23.5991 35.9067 24.0155 36.4395 24.4236V17.1721Z" fill="#1A1A1A"/>
<path fill-rule="evenodd" clip-rule="evenodd" d="M46.0988 8.6947C45.4445 8.6947 45.1307 9.00073 45.397 9.37664C45.5656 9.5774 45.8075 9.74551 46.0995 9.86491C46.3915 9.9843 46.7239 10.051 47.0648 10.0586C47.7171 10.0586 48.0309 9.75394 47.7646 9.37664C47.5959 9.17625 47.3542 9.00841 47.0627 8.88905C46.7711 8.76969 46.4393 8.70279 46.0988 8.6947Z" fill="#E3E3E3"/>
</g>
</g>
<g clip-path="url(#clip2_508_3493)">
<g filter="url(#filter3_d_508_3493)">
<path fill-rule="evenodd" clip-rule="evenodd" d="M29.573 47.4634L29.4365 47.534C29.2817 47.6171 29.1094 47.6624 28.9338 47.6662C28.7582 47.67 28.5841 47.6323 28.4259 47.556C28.2655 47.4845 28.1242 47.3762 28.0136 47.2399C27.9029 47.1036 27.8259 46.9431 27.7888 46.7714C27.475 45.4 26.8473 43.7242 25.9544 41.9935C25.0615 40.2628 24.0588 38.7815 23.1298 37.7318C23.0135 37.601 22.9285 37.4453 22.8815 37.2766C22.8345 37.108 22.8266 36.9308 22.8586 36.7587C22.8905 36.5865 22.9614 36.424 23.0658 36.2834C23.1702 36.1428 23.3054 36.028 23.4609 35.9477L23.599 35.8771L23.031 34.7787L20.3633 36.1532L17.6957 37.5262L18.2638 38.6246L18.4003 38.554C18.5566 38.4722 18.7296 38.4275 18.9059 38.4234C19.0822 38.4192 19.2571 38.4558 19.4171 38.5301C19.577 38.6045 19.7177 38.7147 19.8282 38.8521C19.9387 38.9896 20.016 39.1507 20.0542 39.3228C20.3681 40.6927 20.9957 42.3701 21.8886 44.0992C22.7815 45.8284 23.7842 47.3112 24.7132 48.361C24.8296 48.4919 24.9145 48.6477 24.9615 48.8165C25.0085 48.9852 25.0164 49.1625 24.9844 49.3348C24.9525 49.507 24.8816 49.6697 24.7772 49.8104C24.6728 49.9511 24.5377 50.0661 24.3821 50.1466L24.244 50.2172L24.812 51.3156L27.4797 49.9426L30.141 48.5634L29.573 47.4634Z" fill="#4592CF"/>
<path fill-rule="evenodd" clip-rule="evenodd" d="M22.7825 38.3795C22.3425 38.6091 22.9535 40.6956 24.1491 43.0369C25.3447 45.3781 26.6709 47.092 27.1032 46.8625C27.5354 46.6329 26.9321 44.5463 25.7365 42.2051C24.5409 39.8638 23.2225 38.1499 22.7825 38.3795Z" fill="#283A84"/>
<path fill-rule="evenodd" clip-rule="evenodd" d="M3.37509 3.40967L4.80484 11.4889L18.1423 37.3359L22.4693 35.1028L9.13179 9.25577L3.37509 3.40967Z" fill="#D1D2D2"/>
<path fill-rule="evenodd" clip-rule="evenodd" d="M7.69103 7.77382L5.42022 6.295L6.21871 11.1149L18.2072 37.3359L4.8111 11.4889L3.37507 3.40967L7.69103 7.77382Z" fill="#E6E6E5"/>
<path fill-rule="evenodd" clip-rule="evenodd" d="M7.12571 10.7405L13.4275 23.6112L19.7309 36.4835L20.4189 36.1334L21.1054 35.7833L14.1155 23.2627L7.12571 10.7405Z" fill="#818181"/>
<path fill-rule="evenodd" clip-rule="evenodd" d="M23.7874 33.5505L16.1589 37.5091C15.7666 37.2252 15.2907 37.0824 14.8079 37.1037C14.3251 37.1251 13.8635 37.3094 13.4976 37.6268C13.1316 37.9443 12.8827 38.3765 12.7909 38.8536C12.699 39.3308 12.7697 39.8251 12.9914 40.257C13.2132 40.6888 13.573 41.033 14.0131 41.234C14.4531 41.4349 14.9476 41.481 15.4169 41.3648C15.8861 41.2485 16.3028 40.9768 16.5996 40.5932C16.8965 40.2097 17.0563 39.7368 17.0532 39.2508L24.6817 35.2923C25.0744 35.577 25.5511 35.7203 26.0348 35.6992C26.5184 35.6781 26.9809 35.4937 27.3476 35.1758C27.7143 34.8579 27.9638 34.4251 28.0559 33.9471C28.148 33.4691 28.0772 32.9739 27.8551 32.5413C27.633 32.1087 27.2724 31.764 26.8316 31.5627C26.3908 31.3615 25.8954 31.3155 25.4254 31.4321C24.9553 31.5487 24.5381 31.8212 24.2409 32.2055C23.9437 32.5899 23.784 33.0637 23.7874 33.5505Z" fill="#333333"/>
</g>
</g>
<defs>
<filter id="filter0_d_508_3493" x="52.0715" y="28.5428" width="30.213" height="34.859" filterUnits="userSpaceOnUse" color-interpolation-filters="sRGB">
<feFlood flood-opacity="0" result="BackgroundImageFix"/>
<feColorMatrix in="SourceAlpha" type="matrix" values="0 0 0 0 0 0 0 0 0 0 0 0 0 0 0 0 0 0 127 0" result="hardAlpha"/>
<feOffset dx="-4" dy="4"/>
<feGaussianBlur stdDeviation="2"/>
<feComposite in2="hardAlpha" operator="out"/>
<feColorMatrix type="matrix" values="0 0 0 0 0 0 0 0 0 0 0 0 0 0 0 0 0 0 0.25 0"/>
<feBlend mode="normal" in2="BackgroundImageFix" result="effect1_dropShadow_508_3493"/>
<feBlend mode="normal" in="SourceGraphic" in2="effect1_dropShadow_508_3493" result="shape"/>
</filter>
<filter id="filter1_d_508_3493" x="58.9166" y="28.8317" width="23.3679" height="34.5703" filterUnits="userSpaceOnUse" color-interpolation-filters="sRGB">
<feFlood flood-opacity="0" result="BackgroundImageFix"/>
<feColorMatrix in="SourceAlpha" type="matrix" values="0 0 0 0 0 0 0 0 0 0 0 0 0 0 0 0 0 0 127 0" result="hardAlpha"/>
<feOffset dx="-4" dy="4"/>
<feGaussianBlur stdDeviation="2"/>
<feComposite in2="hardAlpha" operator="out"/>
<feColorMatrix type="matrix" values="0 0 0 0 0 0 0 0 0 0 0 0 0 0 0 0 0 0 0.25 0"/>
<feBlend mode="normal" in2="BackgroundImageFix" result="effect1_dropShadow_508_3493"/>
<feBlend mode="normal" in="SourceGraphic" in2="effect1_dropShadow_508_3493" result="shape"/>
</filter>
<filter id="filter2_d_508_3493" x="18.9358" y="-4.97705" width="47.9593" height="49.1527" filterUnits="userSpaceOnUse" color-interpolation-filters="sRGB">
<feFlood flood-opacity="0" result="BackgroundImageFix"/>
<feColorMatrix in="SourceAlpha" type="matrix" values="0 0 0 0 0 0 0 0 0 0 0 0 0 0 0 0 0 0 127 0" result="hardAlpha"/>
<feOffset dy="4"/>
<feGaussianBlur stdDeviation="5"/>
<feComposite in2="hardAlpha" operator="out"/>
<feColorMatrix type="matrix" values="0 0 0 0 0 0 0 0 0 0 0 0 0 0 0 0 0 0 0.5 0"/>
<feBlend mode="normal" in2="BackgroundImageFix" result="effect1_dropShadow_508_3493"/>
<feBlend mode="normal" in="SourceGraphic" in2="effect1_dropShadow_508_3493" result="shape"/>
</filter>
<filter id="filter3_d_508_3493" x="-6.62494" y="-2.59033" width="46.766" height="67.9059" filterUnits="userSpaceOnUse" color-interpolation-filters="sRGB">
<feFlood flood-opacity="0" result="BackgroundImageFix"/>
<feColorMatrix in="SourceAlpha" type="matrix" values="0 0 0 0 0 0 0 0 0 0 0 0 0 0 0 0 0 0 127 0" result="hardAlpha"/>
<feOffset dy="4"/>
<feGaussianBlur stdDeviation="5"/>
<feComposite in2="hardAlpha" operator="out"/>
<feColorMatrix type="matrix" values="0 0 0 0 0 0 0 0 0 0 0 0 0 0 0 0 0 0 0.5 0"/>
<feBlend mode="normal" in2="BackgroundImageFix" result="effect1_dropShadow_508_3493"/>
<feBlend mode="normal" in="SourceGraphic" in2="effect1_dropShadow_508_3493" result="shape"/>
</filter>
<clipPath id="clip0_508_3493">
<rect width="35.8257" height="35.8257" fill="white" transform="translate(55.152 19.739) rotate(13.4168)"/>
</clipPath>
<clipPath id="clip1_508_3493">
<rect width="30.6871" height="31.9862" fill="white" transform="matrix(-1 0 0 1 57.7475 0)"/>
</clipPath>
<clipPath id="clip2_508_3493">
<rect width="28.9942" height="52.0657" fill="white" transform="matrix(-1 0 0 1 29.9706 0)"/>
</clipPath>
</defs>
</svg>
