<svg width="90" height="71" viewBox="0 0 90 71" fill="none" xmlns="http://www.w3.org/2000/svg">
<rect x="21.58" y="24.1279" width="45.9342" height="45.9342" rx="22.9671" fill="white"/>
<rect x="21.58" y="24.1279" width="45.9342" height="45.9342" rx="22.9671" stroke="#CDCCCC"/>
<path fill-rule="evenodd" clip-rule="evenodd" d="M56.9999 43.5199H49.915V60.0038L56.9999 52.9201V43.5199ZM40.5173 35.0013V42.0924H56.9999L49.915 35.0013H40.5173ZM48.4863 60.0038V52.9201H31.9999L39.0898 60.0038H48.4863ZM32.0049 51.4926H39.0898V35L32.0049 42.0862V51.4926Z" fill="#28539C"/>
<g clip-path="url(#clip0_508_4113)">
<g filter="url(#filter0_d_508_4113)">
<path d="M66.9177 55.4018L66.304 54.6172C62.9389 50.2981 58.7524 44.9249 60.4699 37.7246L62.1065 30.8641L63.3172 31.1529C67.6884 32.1956 71.44 31.0735 72.0437 28.5428L74.465 29.1204C73.8614 31.6511 76.7024 34.3459 81.0737 35.3886L82.2844 35.6774L80.6479 42.5379C78.9303 49.7382 72.769 52.6431 67.8184 54.9772L66.9177 55.4018Z" fill="#7AB9E8"/>
</g>
<g filter="url(#filter1_d_508_4113)">
<path d="M81.0738 35.3887C76.7025 34.3459 73.8614 31.6512 74.4651 29.1205L73.2544 28.8317L66.9166 55.4004L66.9178 55.4019L67.8185 54.9773C72.769 52.6431 78.9303 49.7383 80.6479 42.538L82.2845 35.6775L81.0738 35.3887Z" fill="#579ADF"/>
</g>
</g>
<g clip-path="url(#clip1_508_4113)">
<g filter="url(#filter2_d_508_4113)">
<path fill-rule="evenodd" clip-rule="evenodd" d="M35.1478 22.6744C34.8374 23.9348 34.5283 25.1941 34.2206 26.4524C37.0556 28.0748 40.6351 28.9808 45.1316 28.9823V23.7792L35.1478 22.6744Z" fill="#535353"/>
<path fill-rule="evenodd" clip-rule="evenodd" d="M55.1072 22.6744C55.4217 23.9348 55.7335 25.1941 56.0426 26.4524C53.2015 28.0748 49.6301 28.9808 45.1316 28.9823V23.7792L55.1072 22.6744Z" fill="#676767"/>
<path fill-rule="evenodd" clip-rule="evenodd" d="M47.3633 9.11046C53.8404 3.38232 41.5929 3.92512 38.1413 1.02295C37.8976 1.26529 37.7532 1.55666 37.7259 1.86083C37.6985 2.165 37.7896 2.46856 37.9876 2.73377C36.4554 3.68561 33.7617 2.38694 32.3012 4.21129C33.9563 4.13975 34.9642 4.63589 35.5787 5.3C31.0394 4.77431 32.8154 7.97354 28.9356 8.15395C31.826 9.37797 38.6145 7.02792 42.8117 9.8881C44.7065 9.83522 45.4685 9.168 47.3633 9.11046Z" fill="#1B2241"/>
<path fill-rule="evenodd" clip-rule="evenodd" d="M28.9377 8.10108C31.7987 9.36525 38.5375 6.95647 42.704 9.88814C43.4793 9.85518 44.2422 9.72102 44.9611 9.49119C39.5115 4.67842 34.676 8.95077 28.9357 8.10108H28.9377Z" fill="#1A1A1A"/>
<path fill-rule="evenodd" clip-rule="evenodd" d="M46.985 8.62385C46.237 8.68213 45.5034 8.81658 44.8046 9.02344L44.7552 9.03568C44.9993 8.76317 45.2393 8.49066 45.4751 8.21815C47.6186 6.39477 43.1075 4.23764 40.3717 3.79519C39.3864 4.43208 37.8683 4.13048 37.0908 4.57752C37.7614 5.11948 38.1769 6.05643 38.8495 6.59839C31.1686 5.82066 34.6676 7.67006 30.9815 8.02831C31.2295 7.90284 31.4549 7.75414 31.652 7.58586C32.8862 6.53715 32.7032 5.39199 35.3937 5.69818L36.8912 5.86812C36.6266 5.59459 36.3598 5.32157 36.0911 5.04905C35.4845 4.41608 34.5715 3.98303 33.5445 3.84112C33.7853 3.73628 34.0505 3.66616 34.3262 3.63444C34.589 3.60483 34.8543 3.58897 35.1202 3.58698C36.3173 3.56555 37.459 3.63597 38.4114 3.06339L38.7652 2.84753C38.6952 2.75261 38.6232 2.65922 38.5595 2.56583C38.4003 2.35623 38.3334 2.11475 38.3682 1.87537C39.6024 2.57195 41.3097 3.04043 42.7722 3.42929C43.9303 3.73549 45.146 4.04168 46.2445 4.42289C47.02 4.6954 47.8901 5.07355 48.3015 5.59102C49.0482 6.55552 47.8942 7.80938 46.985 8.62385Z" fill="#4386BB"/>
<path fill-rule="evenodd" clip-rule="evenodd" d="M45.9061 8.75064C45.5169 8.82683 45.1331 8.91786 44.7562 9.02336L44.707 9.03568C44.9502 8.76142 45.1894 8.48717 45.4244 8.21291C47.5603 6.37786 43.0651 4.20692 40.3388 3.76164C39.357 4.4026 37.8442 4.09907 37.0694 4.54897C37.7376 5.0944 38.1517 6.03735 38.822 6.58278C31.168 5.80007 34.6547 7.66132 30.9815 8.02186C32.8939 7.64745 32.8591 6.29466 33.9455 5.96956C35.0319 5.64445 36.4667 6.39327 37.5613 6.06817C37.4466 5.44107 36.928 4.93108 36.1736 4.15299C37.2211 3.6769 39.8633 4.10215 39.3139 2.72778C41.6651 4.67685 49.2391 3.86949 46.3653 8.5827L45.9061 8.75064Z" fill="#283A84"/>
<path d="M45.2168 12.7863C43.2867 12.7863 41.7219 11.7559 41.7219 10.4848C41.7219 9.21366 43.2867 8.18323 45.2168 8.18323C47.147 8.18323 48.7118 9.21366 48.7118 10.4848C48.7118 11.7559 47.147 12.7863 45.2168 12.7863Z" fill="#CDCCCC"/>
<path fill-rule="evenodd" clip-rule="evenodd" d="M45.2014 10.5701C40.8198 10.5701 37.0759 12.3072 35.5783 14.7578C34.774 15.016 34.2206 15.5479 34.2206 16.1567C34.2247 16.3591 34.2858 16.5586 34.3999 16.7422C34.514 16.9257 34.6787 17.0893 34.883 17.2221C34.9571 20.8056 39.5485 23.6973 45.2014 23.6973C50.8543 23.6973 55.4293 20.8117 55.5157 17.2375C55.7292 17.1041 55.902 16.9381 56.0223 16.7506C56.1426 16.5631 56.2077 16.3585 56.213 16.1506C56.213 15.5356 55.6412 14.993 54.8183 14.7393C53.3146 12.295 49.5769 10.5701 45.2014 10.5701Z" fill="#8B8A8A"/>
<path fill-rule="evenodd" clip-rule="evenodd" d="M46.8364 20.2876C42.9838 20.2876 39.8466 18.3006 39.8466 15.8551C39.8466 13.4095 42.99 11.4225 46.8364 11.4225C50.6829 11.4225 53.8263 13.4095 53.8263 15.8551C53.8263 18.3006 50.6911 20.2876 46.8364 20.2876Z" fill="#989898"/>
<path fill-rule="evenodd" clip-rule="evenodd" d="M48.9675 15.3436C47.5111 15.3436 46.325 14.5772 46.325 13.6388C46.325 12.7004 47.5111 11.934 48.9675 11.934C50.4239 11.934 51.61 12.6988 51.61 13.6388C51.61 14.5788 50.4115 15.3436 48.9675 15.3436Z" fill="#ACACAC"/>
<path fill-rule="evenodd" clip-rule="evenodd" d="M45.1316 14.3208H45.2316C46.6254 14.3154 48.0087 14.5037 49.314 14.8765L56.895 17.0292V23.4436C53.578 26.3793 49.71 28.6783 45.1316 30.1757V14.3208Z" fill="#CDCCCC"/>
<path fill-rule="evenodd" clip-rule="evenodd" d="M46.8364 15.3436C47.4405 15.4201 48.0332 15.543 48.6058 15.7106L50.0592 16.129V26.8641C49.0335 27.4554 47.9575 27.9922 46.8385 28.4709V15.3436H46.8364ZM50.7415 16.3258L53.0021 16.9769V24.9404C52.2875 25.4666 51.5346 25.9756 50.7415 26.4597V16.3258ZM53.6824 17.1721L55.1901 17.6062V23.1744C54.707 23.5991 54.2045 24.0155 53.6824 24.4236V17.1721Z" fill="#333333"/>
<path fill-rule="evenodd" clip-rule="evenodd" d="M45.1316 14.3208H45.0316C43.6412 14.3163 42.2614 14.5046 40.9594 14.8764L33.3682 17.0276V23.4421C36.6872 26.3793 40.5552 28.6783 45.1316 30.1757V14.3208Z" fill="#B4B4B4"/>
<path fill-rule="evenodd" clip-rule="evenodd" d="M43.4268 15.3436C42.8103 15.4203 42.2054 15.5432 41.6208 15.7106L40.1375 16.129V26.8641C41.1846 27.4551 42.2828 27.9919 43.4247 28.4709V15.3436H43.4268ZM39.441 16.3258L37.1358 16.9769V24.9404C37.8631 25.4666 38.6315 25.9756 39.441 26.4597V16.3258ZM36.4394 17.1721L34.9026 17.6062V23.1744C35.3943 23.5991 35.9065 24.0155 36.4394 24.4236V17.1721Z" fill="#1A1A1A"/>
<path fill-rule="evenodd" clip-rule="evenodd" d="M46.0987 8.6947C45.4444 8.6947 45.1306 9.00073 45.3969 9.37664C45.5655 9.5774 45.8074 9.74551 46.0994 9.86491C46.3914 9.9843 46.7238 10.051 47.0648 10.0586C47.717 10.0586 48.0308 9.75394 47.7645 9.37664C47.5958 9.17625 47.3541 9.00841 47.0626 8.88905C46.771 8.76969 46.4392 8.70279 46.0987 8.6947Z" fill="#E3E3E3"/>
</g>
</g>
<g clip-path="url(#clip2_508_4113)">
<g filter="url(#filter3_d_508_4113)">
<path fill-rule="evenodd" clip-rule="evenodd" d="M29.5728 47.4634L29.4363 47.534C29.2815 47.6171 29.1093 47.6624 28.9337 47.6662C28.758 47.67 28.584 47.6323 28.4257 47.556C28.2654 47.4845 28.1241 47.3762 28.0134 47.2399C27.9027 47.1036 27.8257 46.9431 27.7886 46.7714C27.4748 45.4 26.8471 43.7242 25.9542 41.9935C25.0614 40.2628 24.0587 38.7815 23.1297 37.7318C23.0133 37.601 22.9284 37.4453 22.8813 37.2766C22.8343 37.108 22.8265 36.9308 22.8584 36.7587C22.8904 36.5865 22.9613 36.424 23.0657 36.2834C23.1701 36.1428 23.3052 36.028 23.4608 35.9477L23.5989 35.8771L23.0308 34.7787L20.3632 36.1532L17.6956 37.5262L18.2636 38.6246L18.4001 38.554C18.5564 38.4722 18.7294 38.4275 18.9057 38.4234C19.0821 38.4193 19.257 38.4558 19.4169 38.5301C19.5769 38.6045 19.7175 38.7147 19.828 38.8521C19.9385 38.9896 20.0159 39.1507 20.0541 39.3228C20.3679 40.6927 20.9956 42.3701 21.8885 44.0992C22.7813 45.8284 23.784 47.3112 24.713 48.361C24.8294 48.4919 24.9144 48.6477 24.9614 48.8165C25.0084 48.9852 25.0162 49.1625 24.9843 49.3348C24.9523 49.507 24.8815 49.6697 24.7771 49.8104C24.6727 49.9511 24.5375 50.0661 24.3819 50.1466L24.2438 50.2172L24.8119 51.3156L27.4795 49.9426L30.1409 48.5634L29.5728 47.4634Z" fill="#4592CF"/>
<path fill-rule="evenodd" clip-rule="evenodd" d="M22.7823 38.3795C22.3423 38.6091 22.9534 40.6956 24.149 43.0369C25.3446 45.3781 26.6708 47.092 27.103 46.8625C27.5352 46.6329 26.932 44.5463 25.7364 42.2051C24.5408 39.8638 23.2223 38.1499 22.7823 38.3795Z" fill="#283A84"/>
<path fill-rule="evenodd" clip-rule="evenodd" d="M3.37494 3.40967L4.80469 11.4889L18.1422 37.3359L22.4691 35.1028L9.13163 9.25577L3.37494 3.40967Z" fill="#D1D2D2"/>
<path fill-rule="evenodd" clip-rule="evenodd" d="M7.69088 7.77382L5.42007 6.295L6.21856 11.1149L18.207 37.3359L4.81094 11.4889L3.37492 3.40967L7.69088 7.77382Z" fill="#E6E6E5"/>
<path fill-rule="evenodd" clip-rule="evenodd" d="M7.12556 10.7405L13.4273 23.6112L19.7307 36.4835L20.4188 36.1334L21.1052 35.7833L14.1154 23.2627L7.12556 10.7405Z" fill="#818181"/>
<path fill-rule="evenodd" clip-rule="evenodd" d="M23.7872 33.5505L16.1587 37.5091C15.7665 37.2252 15.2906 37.0824 14.8078 37.1037C14.325 37.1251 13.8634 37.3094 13.4974 37.6268C13.1315 37.9443 12.8825 38.3765 12.7907 38.8536C12.6989 39.3308 12.7695 39.8251 12.9913 40.257C13.213 40.6888 13.5729 41.033 14.0129 41.234C14.4529 41.4349 14.9475 41.481 15.4167 41.3648C15.886 41.2485 16.3026 40.9768 16.5995 40.5932C16.8964 40.2097 17.0561 39.7368 17.0531 39.2508L24.6816 35.2923C25.0743 35.577 25.5509 35.7203 26.0346 35.6992C26.5183 35.6781 26.9808 35.4937 27.3475 35.1758C27.7142 34.8579 27.9637 34.4251 28.0557 33.9471C28.1478 33.4691 28.0771 32.9739 27.855 32.5413C27.6329 32.1087 27.2723 31.764 26.8315 31.5627C26.3906 31.3615 25.8952 31.3155 25.4252 31.4321C24.9552 31.5487 24.5379 31.8212 24.2407 32.2055C23.9436 32.5899 23.7838 33.0637 23.7872 33.5505Z" fill="#333333"/>
</g>
</g>
<defs>
<filter id="filter0_d_508_4113" x="52.0714" y="28.5428" width="30.213" height="34.859" filterUnits="userSpaceOnUse" color-interpolation-filters="sRGB">
<feFlood flood-opacity="0" result="BackgroundImageFix"/>
<feColorMatrix in="SourceAlpha" type="matrix" values="0 0 0 0 0 0 0 0 0 0 0 0 0 0 0 0 0 0 127 0" result="hardAlpha"/>
<feOffset dx="-4" dy="4"/>
<feGaussianBlur stdDeviation="2"/>
<feComposite in2="hardAlpha" operator="out"/>
<feColorMatrix type="matrix" values="0 0 0 0 0 0 0 0 0 0 0 0 0 0 0 0 0 0 0.25 0"/>
<feBlend mode="normal" in2="BackgroundImageFix" result="effect1_dropShadow_508_4113"/>
<feBlend mode="normal" in="SourceGraphic" in2="effect1_dropShadow_508_4113" result="shape"/>
</filter>
<filter id="filter1_d_508_4113" x="58.9166" y="28.8317" width="23.3679" height="34.5703" filterUnits="userSpaceOnUse" color-interpolation-filters="sRGB">
<feFlood flood-opacity="0" result="BackgroundImageFix"/>
<feColorMatrix in="SourceAlpha" type="matrix" values="0 0 0 0 0 0 0 0 0 0 0 0 0 0 0 0 0 0 127 0" result="hardAlpha"/>
<feOffset dx="-4" dy="4"/>
<feGaussianBlur stdDeviation="2"/>
<feComposite in2="hardAlpha" operator="out"/>
<feColorMatrix type="matrix" values="0 0 0 0 0 0 0 0 0 0 0 0 0 0 0 0 0 0 0.25 0"/>
<feBlend mode="normal" in2="BackgroundImageFix" result="effect1_dropShadow_508_4113"/>
<feBlend mode="normal" in="SourceGraphic" in2="effect1_dropShadow_508_4113" result="shape"/>
</filter>
<filter id="filter2_d_508_4113" x="18.9356" y="-4.97705" width="47.9593" height="49.1527" filterUnits="userSpaceOnUse" color-interpolation-filters="sRGB">
<feFlood flood-opacity="0" result="BackgroundImageFix"/>
<feColorMatrix in="SourceAlpha" type="matrix" values="0 0 0 0 0 0 0 0 0 0 0 0 0 0 0 0 0 0 127 0" result="hardAlpha"/>
<feOffset dy="4"/>
<feGaussianBlur stdDeviation="5"/>
<feComposite in2="hardAlpha" operator="out"/>
<feColorMatrix type="matrix" values="0 0 0 0 0 0 0 0 0 0 0 0 0 0 0 0 0 0 0.5 0"/>
<feBlend mode="normal" in2="BackgroundImageFix" result="effect1_dropShadow_508_4113"/>
<feBlend mode="normal" in="SourceGraphic" in2="effect1_dropShadow_508_4113" result="shape"/>
</filter>
<filter id="filter3_d_508_4113" x="-6.62509" y="-2.59033" width="46.766" height="67.9059" filterUnits="userSpaceOnUse" color-interpolation-filters="sRGB">
<feFlood flood-opacity="0" result="BackgroundImageFix"/>
<feColorMatrix in="SourceAlpha" type="matrix" values="0 0 0 0 0 0 0 0 0 0 0 0 0 0 0 0 0 0 127 0" result="hardAlpha"/>
<feOffset dy="4"/>
<feGaussianBlur stdDeviation="5"/>
<feComposite in2="hardAlpha" operator="out"/>
<feColorMatrix type="matrix" values="0 0 0 0 0 0 0 0 0 0 0 0 0 0 0 0 0 0 0.5 0"/>
<feBlend mode="normal" in2="BackgroundImageFix" result="effect1_dropShadow_508_4113"/>
<feBlend mode="normal" in="SourceGraphic" in2="effect1_dropShadow_508_4113" result="shape"/>
</filter>
<clipPath id="clip0_508_4113">
<rect width="35.8257" height="35.8257" fill="white" transform="translate(55.1519 19.739) rotate(13.4168)"/>
</clipPath>
<clipPath id="clip1_508_4113">
<rect width="30.6871" height="31.9862" fill="white" transform="matrix(-1 0 0 1 57.7474 0)"/>
</clipPath>
<clipPath id="clip2_508_4113">
<rect width="28.9942" height="52.0657" fill="white" transform="matrix(-1 0 0 1 29.9704 0)"/>
</clipPath>
</defs>
</svg>
