<svg width="90" height="71" viewBox="0 0 90 71" fill="none" xmlns="http://www.w3.org/2000/svg">
<rect x="21.58" y="24.1279" width="45.9342" height="45.9342" rx="22.9671" fill="white"/>
<rect x="21.58" y="24.1279" width="45.9342" height="45.9342" rx="22.9671" stroke="#CDCCCC"/>
<path fill-rule="evenodd" clip-rule="evenodd" d="M58.5317 53.8264C58.9281 45.5347 51.7776 36.1971 42.0293 35.0429L42.0459 34.9296C51.6562 34.9296 59.0236 43.8265 59.0236 50.8453C59.0144 52.3064 58.899 53.2117 58.6932 53.8689L58.5317 53.8264ZM57.9494 54.8804C57.31 55.6616 56.5059 56.4482 55.5637 57.195C53.8305 47.2266 46.5054 38.51 41.3265 35.9658L41.2156 36.0431C46.4239 40.3175 52.6359 48.6193 55.0516 57.5861C53.8194 58.4912 52.4883 59.2535 51.084 59.8582C46.1693 54.2535 41.5873 43.4443 40.1108 36.5852L39.9606 36.6304C39.9939 43.2885 44.721 54.5913 50.4857 60.1065C49.1635 60.6297 47.789 61.0095 46.3858 61.2393C40.8599 59.0501 36.9266 52.0388 36.9266 44.8564C36.9266 40.1676 38.3561 37.2672 38.6327 36.6736L38.5149 36.6269C38.1804 37.133 36.0861 40.032 36.0861 45.094C36.0861 53.2126 40.0899 59.418 45.4056 61.3722C43.5047 61.5813 41.5828 61.4911 39.7099 61.1049L39.6703 61.2286C40.2389 61.4379 42.1681 62.2477 45.1112 62.2477C51.7678 62.2477 56.2676 58.1119 58.0791 54.9681L57.9494 54.8804Z" fill="#28458E"/>
<path fill-rule="evenodd" clip-rule="evenodd" d="M44.4456 32C39.3994 32 33.4824 35.6419 33.4824 38.9709C33.4824 40.2587 34.6604 41.3465 37.0984 41.3465C42.7582 41.3465 48.0164 37.4581 48.0164 34.4345C48.0164 32.8434 46.4884 32 44.4456 32ZM46.4601 34.3405C46.4601 36.8892 41.5659 40.0047 37.4747 40.0047C35.6671 40.0047 34.6904 39.2933 34.6904 38.1195C34.6904 35.5342 39.6403 32.4717 43.4779 32.4717C45.9799 32.4717 46.4601 33.7448 46.4601 34.3405Z" fill="#0096D6"/>
<path fill-rule="evenodd" clip-rule="evenodd" d="M31.472 40.5123C31.3302 40.7577 30.7621 41.8699 30.7621 43.0095C30.7621 45.1231 32.8977 47.0853 36.8257 47.0853C44.3822 47.0853 53.1126 41.5232 53.1126 36.3601C53.1126 34.0425 50.9187 32.7824 49.3954 32.5219L49.3669 32.6123C49.8406 32.7622 51.5762 33.569 51.5762 35.6336C51.5762 39.7474 43.868 45.3527 36.1899 45.3527C33.2505 45.3527 31.3986 43.9017 31.3986 41.7881C31.3986 41.1196 31.5378 40.6792 31.5746 40.5516L31.472 40.5123Z" fill="#EB7B30"/>
<path fill-rule="evenodd" clip-rule="evenodd" d="M56.2281 36.7462C56.4354 36.9035 57.68 37.9408 57.68 39.9024C57.68 46.5908 47.2004 53.1677 37.9356 53.1677C32.4106 53.1677 29.892 50.4397 30.0035 48.0174H30.1025C30.319 49.2754 32.1129 51.5264 36.9485 51.5264C46.2249 51.5264 56.5823 44.7211 56.5823 38.7586C56.5823 37.7359 56.3045 37.0986 56.1475 36.8152L56.2281 36.7462Z" fill="#00984A"/>
<path fill-rule="evenodd" clip-rule="evenodd" d="M59.7308 42.9902C59.7742 43.1327 59.9999 43.773 59.9999 44.7758C59.9999 52.216 49.3945 58.5856 40.1708 58.5856C35.4235 58.5856 32.9444 56.2796 32.421 55.3431L32.5055 55.2807C33.819 56.4295 36.4064 57.3024 39.4258 57.3024C47.5721 57.3024 59.7275 51.1047 59.619 43.0173L59.7308 42.9902Z" fill="#DF002C"/>
<g clip-path="url(#clip0_508_4719)">
<g filter="url(#filter0_d_508_4719)">
<path d="M66.9177 55.4018L66.304 54.6172C62.9389 50.2981 58.7524 44.9249 60.4699 37.7246L62.1065 30.8641L63.3172 31.1529C67.6884 32.1956 71.44 31.0735 72.0437 28.5428L74.465 29.1204C73.8614 31.6511 76.7024 34.3459 81.0737 35.3886L82.2844 35.6774L80.6479 42.5379C78.9303 49.7382 72.769 52.6431 67.8184 54.9772L66.9177 55.4018Z" fill="#7AB9E8"/>
</g>
<g filter="url(#filter1_d_508_4719)">
<path d="M81.0738 35.3886C76.7025 34.3459 73.8614 31.6511 74.4651 29.1204L73.2544 28.8316L66.9166 55.4004L66.9178 55.4019L67.8185 54.9772C72.769 52.6431 78.9303 49.7383 80.6479 42.5379L82.2845 35.6774L81.0738 35.3886Z" fill="#579ADF"/>
</g>
</g>
<g clip-path="url(#clip1_508_4719)">
<g filter="url(#filter2_d_508_4719)">
<path fill-rule="evenodd" clip-rule="evenodd" d="M35.1478 22.6743C34.8374 23.9347 34.5283 25.194 34.2206 26.4523C37.0556 28.0747 40.6351 28.9807 45.1316 28.9822V23.779L35.1478 22.6743Z" fill="#535353"/>
<path fill-rule="evenodd" clip-rule="evenodd" d="M55.1072 22.6743C55.4217 23.9347 55.7335 25.194 56.0426 26.4523C53.2015 28.0747 49.6301 28.9807 45.1316 28.9822V23.779L55.1072 22.6743Z" fill="#676767"/>
<path fill-rule="evenodd" clip-rule="evenodd" d="M47.3633 9.1104C53.8404 3.38226 41.5929 3.92506 38.1413 1.02289C37.8976 1.26523 37.7532 1.5566 37.7259 1.86077C37.6985 2.16494 37.7896 2.4685 37.9876 2.73371C36.4554 3.68554 33.7617 2.38688 32.3012 4.21123C33.9563 4.13969 34.9642 4.63583 35.5787 5.29994C31.0394 4.77425 32.8154 7.97348 28.9356 8.15389C31.826 9.37791 38.6145 7.02786 42.8117 9.88804C44.7065 9.83516 45.4685 9.16794 47.3633 9.1104Z" fill="#1B2241"/>
<path fill-rule="evenodd" clip-rule="evenodd" d="M28.9377 8.10096C31.7987 9.36513 38.5375 6.95635 42.704 9.88802C43.4793 9.85506 44.2422 9.7209 44.9611 9.49107C39.5115 4.67829 34.676 8.95065 28.9357 8.10096H28.9377Z" fill="#1A1A1A"/>
<path fill-rule="evenodd" clip-rule="evenodd" d="M46.985 8.62379C46.237 8.68207 45.5034 8.81652 44.8046 9.02337L44.7552 9.03562C44.9993 8.76311 45.2393 8.4906 45.4751 8.21809C47.6186 6.39471 43.1075 4.23758 40.3717 3.79513C39.3864 4.43201 37.8683 4.13041 37.0908 4.57746C37.7614 5.11942 38.1769 6.05637 38.8495 6.59833C31.1686 5.8206 34.6676 7.67 30.9815 8.02825C31.2295 7.90278 31.4549 7.75408 31.652 7.5858C32.8862 6.53709 32.7032 5.39193 35.3937 5.69812L36.8912 5.86806C36.6266 5.59453 36.3598 5.3215 36.0911 5.04899C35.4845 4.41602 34.5715 3.98297 33.5445 3.84106C33.7853 3.73622 34.0505 3.6661 34.3262 3.63438C34.589 3.60477 34.8543 3.58891 35.1202 3.58692C36.3173 3.56549 37.459 3.63591 38.4114 3.06333L38.7652 2.84747C38.6952 2.75255 38.6232 2.65916 38.5595 2.56577C38.4003 2.35617 38.3334 2.11469 38.3682 1.87531C39.6024 2.57189 41.3097 3.04037 42.7722 3.42923C43.9303 3.73543 45.146 4.04162 46.2445 4.42283C47.02 4.69534 47.8901 5.07349 48.3015 5.59095C49.0482 6.55546 47.8942 7.80932 46.985 8.62379Z" fill="#4386BB"/>
<path fill-rule="evenodd" clip-rule="evenodd" d="M45.9061 8.75058C45.5169 8.82677 45.1331 8.9178 44.7562 9.02329L44.707 9.03562C44.9502 8.76136 45.1894 8.48711 45.4244 8.21285C47.5603 6.3778 43.0651 4.20686 40.3388 3.76158C39.357 4.40254 37.8442 4.099 37.0694 4.54891C37.7376 5.09434 38.1517 6.03729 38.822 6.58272C31.168 5.80001 34.6547 7.66126 30.9815 8.0218C32.8939 7.64739 32.8591 6.2946 33.9455 5.9695C35.0319 5.64439 36.4667 6.39321 37.5613 6.0681C37.4466 5.44101 36.928 4.93102 36.1736 4.15293C37.2211 3.67683 39.8633 4.10209 39.3139 2.72772C41.6651 4.67679 49.2391 3.86943 46.3653 8.58263L45.9061 8.75058Z" fill="#283A84"/>
<path d="M45.2168 12.7863C43.2867 12.7863 41.7219 11.7559 41.7219 10.4848C41.7219 9.21366 43.2867 8.18323 45.2168 8.18323C47.147 8.18323 48.7118 9.21366 48.7118 10.4848C48.7118 11.7559 47.147 12.7863 45.2168 12.7863Z" fill="#CDCCCC"/>
<path fill-rule="evenodd" clip-rule="evenodd" d="M45.2014 10.5699C40.8198 10.5699 37.0759 12.3071 35.5783 14.7576C34.774 15.0159 34.2206 15.5478 34.2206 16.1566C34.2247 16.359 34.2858 16.5585 34.3999 16.742C34.514 16.9256 34.6787 17.0891 34.883 17.222C34.9571 20.8055 39.5485 23.6972 45.2014 23.6972C50.8543 23.6972 55.4293 20.8116 55.5157 17.2373C55.7292 17.104 55.902 16.938 56.0223 16.7505C56.1426 16.563 56.2077 16.3584 56.213 16.1504C56.213 15.5355 55.6412 14.9928 54.8183 14.7392C53.3146 12.2948 49.5769 10.5699 45.2014 10.5699Z" fill="#8B8A8A"/>
<path fill-rule="evenodd" clip-rule="evenodd" d="M46.8364 20.2876C42.9838 20.2876 39.8466 18.3006 39.8466 15.855C39.8466 13.4094 42.99 11.4224 46.8364 11.4224C50.6829 11.4224 53.8263 13.4094 53.8263 15.855C53.8263 18.3006 50.6911 20.2876 46.8364 20.2876Z" fill="#989898"/>
<path fill-rule="evenodd" clip-rule="evenodd" d="M48.9675 15.3435C47.5111 15.3435 46.325 14.5771 46.325 13.6387C46.325 12.7002 47.5111 11.9338 48.9675 11.9338C50.4239 11.9338 51.61 12.6987 51.61 13.6387C51.61 14.5787 50.4115 15.3435 48.9675 15.3435Z" fill="#ACACAC"/>
<path fill-rule="evenodd" clip-rule="evenodd" d="M45.1316 14.3207H45.2316C46.6254 14.3154 48.0087 14.5037 49.314 14.8764L56.895 17.0291V23.4436C53.578 26.3792 49.71 28.6782 45.1316 30.1756V14.3207Z" fill="#CDCCCC"/>
<path fill-rule="evenodd" clip-rule="evenodd" d="M46.8364 15.3435C47.4405 15.4199 48.0332 15.5429 48.6058 15.7105L50.0592 16.1289V26.864C49.0335 27.4553 47.9575 27.9921 46.8385 28.4708V15.3435H46.8364ZM50.7415 16.3257L53.0021 16.9768V24.9403C52.2875 25.4665 51.5346 25.9755 50.7415 26.4596V16.3257ZM53.6824 17.172L55.1901 17.6061V23.1743C54.707 23.599 54.2045 24.0154 53.6824 24.4234V17.172Z" fill="#333333"/>
<path fill-rule="evenodd" clip-rule="evenodd" d="M45.1316 14.3207H45.0316C43.6412 14.3163 42.2614 14.5046 40.9594 14.8764L33.3682 17.0275V23.442C36.6872 26.3792 40.5552 28.6782 45.1316 30.1756V14.3207Z" fill="#B4B4B4"/>
<path fill-rule="evenodd" clip-rule="evenodd" d="M43.4268 15.3435C42.8103 15.4202 42.2054 15.5431 41.6208 15.7105L40.1375 16.1289V26.864C41.1846 27.455 42.2828 27.9918 43.4247 28.4708V15.3435H43.4268ZM39.441 16.3257L37.1358 16.9768V24.9403C37.8631 25.4665 38.6315 25.9755 39.441 26.4596V16.3257ZM36.4394 17.172L34.9026 17.6061V23.1743C35.3943 23.599 35.9065 24.0154 36.4394 24.4234V17.172Z" fill="#1A1A1A"/>
<path fill-rule="evenodd" clip-rule="evenodd" d="M46.0987 8.69464C45.4444 8.69464 45.1306 9.00067 45.3969 9.37658C45.5655 9.57734 45.8074 9.74545 46.0994 9.86485C46.3914 9.98424 46.7238 10.0509 47.0648 10.0585C47.717 10.0585 48.0308 9.75388 47.7645 9.37658C47.5958 9.17619 47.3541 9.00834 47.0626 8.88899C46.771 8.76963 46.4392 8.70273 46.0987 8.69464Z" fill="#E3E3E3"/>
</g>
</g>
<g clip-path="url(#clip2_508_4719)">
<g filter="url(#filter3_d_508_4719)">
<path fill-rule="evenodd" clip-rule="evenodd" d="M29.5728 47.4634L29.4363 47.534C29.2815 47.6171 29.1093 47.6624 28.9337 47.6662C28.758 47.67 28.584 47.6323 28.4257 47.556C28.2654 47.4845 28.1241 47.3762 28.0134 47.2399C27.9027 47.1036 27.8257 46.9431 27.7886 46.7714C27.4748 45.4 26.8471 43.7242 25.9542 41.9935C25.0614 40.2628 24.0587 38.7815 23.1297 37.7318C23.0133 37.601 22.9284 37.4453 22.8813 37.2766C22.8343 37.108 22.8265 36.9308 22.8584 36.7587C22.8904 36.5865 22.9613 36.424 23.0657 36.2834C23.1701 36.1428 23.3052 36.028 23.4608 35.9477L23.5989 35.8771L23.0308 34.7787L20.3632 36.1532L17.6956 37.5262L18.2636 38.6246L18.4001 38.554C18.5564 38.4722 18.7294 38.4275 18.9057 38.4234C19.0821 38.4193 19.257 38.4558 19.4169 38.5301C19.5769 38.6045 19.7175 38.7147 19.828 38.8521C19.9385 38.9896 20.0159 39.1507 20.0541 39.3228C20.3679 40.6927 20.9956 42.3701 21.8885 44.0992C22.7813 45.8284 23.784 47.3112 24.713 48.361C24.8294 48.4919 24.9144 48.6477 24.9614 48.8165C25.0084 48.9852 25.0162 49.1625 24.9843 49.3348C24.9523 49.507 24.8815 49.6697 24.7771 49.8104C24.6727 49.9511 24.5375 50.0661 24.3819 50.1466L24.2438 50.2172L24.8119 51.3156L27.4795 49.9426L30.1409 48.5634L29.5728 47.4634Z" fill="#4592CF"/>
<path fill-rule="evenodd" clip-rule="evenodd" d="M22.7823 38.3794C22.3423 38.609 22.9534 40.6955 24.149 43.0368C25.3446 45.3781 26.6708 47.092 27.103 46.8624C27.5352 46.6328 26.932 44.5463 25.7364 42.205C24.5408 39.8638 23.2223 38.1499 22.7823 38.3794Z" fill="#283A84"/>
<path fill-rule="evenodd" clip-rule="evenodd" d="M3.37494 3.40967L4.80469 11.4889L18.1422 37.3359L22.4691 35.1028L9.13163 9.25577L3.37494 3.40967Z" fill="#D1D2D2"/>
<path fill-rule="evenodd" clip-rule="evenodd" d="M7.69088 7.77382L5.42007 6.295L6.21856 11.1149L18.207 37.3359L4.81094 11.4889L3.37492 3.40967L7.69088 7.77382Z" fill="#E6E6E5"/>
<path fill-rule="evenodd" clip-rule="evenodd" d="M7.12556 10.7405L13.4273 23.6112L19.7307 36.4835L20.4188 36.1334L21.1052 35.7833L14.1154 23.2627L7.12556 10.7405Z" fill="#818181"/>
<path fill-rule="evenodd" clip-rule="evenodd" d="M23.7872 33.5505L16.1587 37.5091C15.7665 37.2252 15.2906 37.0824 14.8078 37.1037C14.325 37.1251 13.8634 37.3094 13.4974 37.6268C13.1315 37.9443 12.8825 38.3765 12.7907 38.8536C12.6989 39.3308 12.7695 39.8251 12.9913 40.257C13.213 40.6888 13.5729 41.033 14.0129 41.234C14.4529 41.4349 14.9475 41.481 15.4167 41.3648C15.886 41.2485 16.3026 40.9768 16.5995 40.5932C16.8964 40.2097 17.0561 39.7368 17.0531 39.2508L24.6816 35.2923C25.0743 35.577 25.5509 35.7203 26.0346 35.6992C26.5183 35.6781 26.9808 35.4937 27.3475 35.1758C27.7142 34.8579 27.9637 34.4251 28.0557 33.9471C28.1478 33.4691 28.0771 32.9739 27.855 32.5413C27.6329 32.1087 27.2723 31.764 26.8315 31.5627C26.3906 31.3615 25.8952 31.3155 25.4252 31.4321C24.9552 31.5487 24.5379 31.8212 24.2407 32.2055C23.9436 32.5899 23.7838 33.0637 23.7872 33.5505Z" fill="#333333"/>
</g>
</g>
<defs>
<filter id="filter0_d_508_4719" x="52.0714" y="28.5428" width="30.213" height="34.8591" filterUnits="userSpaceOnUse" color-interpolation-filters="sRGB">
<feFlood flood-opacity="0" result="BackgroundImageFix"/>
<feColorMatrix in="SourceAlpha" type="matrix" values="0 0 0 0 0 0 0 0 0 0 0 0 0 0 0 0 0 0 127 0" result="hardAlpha"/>
<feOffset dx="-4" dy="4"/>
<feGaussianBlur stdDeviation="2"/>
<feComposite in2="hardAlpha" operator="out"/>
<feColorMatrix type="matrix" values="0 0 0 0 0 0 0 0 0 0 0 0 0 0 0 0 0 0 0.25 0"/>
<feBlend mode="normal" in2="BackgroundImageFix" result="effect1_dropShadow_508_4719"/>
<feBlend mode="normal" in="SourceGraphic" in2="effect1_dropShadow_508_4719" result="shape"/>
</filter>
<filter id="filter1_d_508_4719" x="58.9166" y="28.8316" width="23.3679" height="34.5703" filterUnits="userSpaceOnUse" color-interpolation-filters="sRGB">
<feFlood flood-opacity="0" result="BackgroundImageFix"/>
<feColorMatrix in="SourceAlpha" type="matrix" values="0 0 0 0 0 0 0 0 0 0 0 0 0 0 0 0 0 0 127 0" result="hardAlpha"/>
<feOffset dx="-4" dy="4"/>
<feGaussianBlur stdDeviation="2"/>
<feComposite in2="hardAlpha" operator="out"/>
<feColorMatrix type="matrix" values="0 0 0 0 0 0 0 0 0 0 0 0 0 0 0 0 0 0 0.25 0"/>
<feBlend mode="normal" in2="BackgroundImageFix" result="effect1_dropShadow_508_4719"/>
<feBlend mode="normal" in="SourceGraphic" in2="effect1_dropShadow_508_4719" result="shape"/>
</filter>
<filter id="filter2_d_508_4719" x="18.9356" y="-4.97711" width="47.9593" height="49.1527" filterUnits="userSpaceOnUse" color-interpolation-filters="sRGB">
<feFlood flood-opacity="0" result="BackgroundImageFix"/>
<feColorMatrix in="SourceAlpha" type="matrix" values="0 0 0 0 0 0 0 0 0 0 0 0 0 0 0 0 0 0 127 0" result="hardAlpha"/>
<feOffset dy="4"/>
<feGaussianBlur stdDeviation="5"/>
<feComposite in2="hardAlpha" operator="out"/>
<feColorMatrix type="matrix" values="0 0 0 0 0 0 0 0 0 0 0 0 0 0 0 0 0 0 0.5 0"/>
<feBlend mode="normal" in2="BackgroundImageFix" result="effect1_dropShadow_508_4719"/>
<feBlend mode="normal" in="SourceGraphic" in2="effect1_dropShadow_508_4719" result="shape"/>
</filter>
<filter id="filter3_d_508_4719" x="-6.62509" y="-2.59033" width="46.766" height="67.9059" filterUnits="userSpaceOnUse" color-interpolation-filters="sRGB">
<feFlood flood-opacity="0" result="BackgroundImageFix"/>
<feColorMatrix in="SourceAlpha" type="matrix" values="0 0 0 0 0 0 0 0 0 0 0 0 0 0 0 0 0 0 127 0" result="hardAlpha"/>
<feOffset dy="4"/>
<feGaussianBlur stdDeviation="5"/>
<feComposite in2="hardAlpha" operator="out"/>
<feColorMatrix type="matrix" values="0 0 0 0 0 0 0 0 0 0 0 0 0 0 0 0 0 0 0.5 0"/>
<feBlend mode="normal" in2="BackgroundImageFix" result="effect1_dropShadow_508_4719"/>
<feBlend mode="normal" in="SourceGraphic" in2="effect1_dropShadow_508_4719" result="shape"/>
</filter>
<clipPath id="clip0_508_4719">
<rect width="35.8257" height="35.8257" fill="white" transform="translate(55.1519 19.739) rotate(13.4168)"/>
</clipPath>
<clipPath id="clip1_508_4719">
<rect width="30.6871" height="31.9862" fill="white" transform="matrix(-1 0 0 1 57.7474 0)"/>
</clipPath>
<clipPath id="clip2_508_4719">
<rect width="28.9942" height="52.0657" fill="white" transform="matrix(-1 0 0 1 29.9704 0)"/>
</clipPath>
</defs>
</svg>
