<svg width="95" height="84" viewBox="0 0 95 84" fill="none" xmlns="http://www.w3.org/2000/svg">
<g filter="url(#filter0_d_595_5167)">
<path d="M32.5109 49.2255L28 27H67.5953L63.4186 49.2255L47.2965 56.4383L32.5109 49.2255Z" fill="url(#paint0_radial_595_5167)"/>
<path d="M31.5308 49.4244L31.629 49.9079L32.0724 50.1242L46.858 57.337L47.2781 57.542L47.7048 57.3511L63.827 50.1383L64.3047 49.9245L64.4014 49.4102L68.5781 27.1847L68.8008 26H67.5953H28H26.7767L27.02 27.1989L31.5308 49.4244Z" stroke="url(#paint1_linear_595_5167)" stroke-width="2"/>
</g>
<path d="M34.0759 48.1959L34.1745 48.6798L34.6186 48.8957L47.0257 54.9275L47.4446 55.1312L47.8701 54.9415L61.3987 48.9097L61.8771 48.6964L61.9741 48.1817L65.479 29.5955L65.7025 28.4102H64.4963H31.2706H30.0464L30.2907 29.6097L34.0759 48.1959Z" fill="url(#paint2_radial_595_5167)" stroke="url(#paint3_linear_595_5167)" stroke-width="2"/>
<g filter="url(#filter1_d_595_5167)">
<path d="M54.5077 37.3431C54.9443 37.4907 55.39 37.638 55.8447 37.7857C56.299 37.9334 56.7035 38.0751 57.0575 38.2109C57.9135 38.5414 58.5642 38.9976 59.0098 39.5788C59.4555 40.16 59.6783 40.8816 59.6783 41.7435C59.6783 42.2864 59.5514 42.8119 59.2975 43.3196C59.0437 43.827 58.7012 44.2491 58.2706 44.5855C57.7981 44.9574 57.2524 45.2437 56.6327 45.4442C56.0127 45.6448 55.2899 45.7455 54.4635 45.7455C53.696 45.7455 52.9804 45.6497 52.3165 45.4582C51.6522 45.2666 51.0901 45.041 50.6298 44.7815L50.0189 45.4007H49.2664L49.1513 40.8645H49.9125C50.0837 41.296 50.302 41.7508 50.5678 42.2293C50.8335 42.7078 51.1403 43.1361 51.4887 43.5143C51.8485 43.9102 52.2513 44.232 52.6969 44.4803C53.1426 44.7283 53.6635 44.8522 54.2598 44.8522C55.0625 44.8522 55.6776 44.6565 56.1058 44.264C56.5337 43.8716 56.7478 43.3774 56.7478 42.7816C56.7478 42.292 56.5661 41.8803 56.2031 41.5471C55.8401 41.2138 55.278 40.9258 54.5165 40.6831C54.0206 40.5232 53.5648 40.3752 53.1485 40.2391C52.7325 40.1029 52.3413 39.9636 51.9755 39.8215C51.1313 39.4851 50.5043 39.0042 50.0942 38.3784C49.6838 37.753 49.4787 37.0537 49.4787 36.2803C49.4787 35.7903 49.5851 35.3198 49.7975 34.8681C50.0098 34.4168 50.3198 34.0108 50.7271 33.651C51.1166 33.3146 51.6153 33.0402 52.2234 32.8274C52.8312 32.615 53.4923 32.5088 54.2068 32.5088C54.9032 32.5088 55.5552 32.6059 56.1634 32.8006C56.7712 32.9953 57.2492 33.1896 57.5976 33.3843L58.1377 32.8535H58.908L58.9788 37.1331H58.2176C58.0404 36.6724 57.8323 36.2012 57.5931 35.7196C57.3542 35.238 57.1017 34.8378 56.8364 34.5185C56.547 34.1758 56.2136 33.9028 55.8356 33.6987C55.458 33.495 55.0151 33.393 54.5077 33.393C53.8703 33.393 53.3493 33.5734 52.9449 33.9334C52.5407 34.2935 52.3385 34.7393 52.3385 35.2707C52.3385 35.7725 52.5142 36.1827 52.8654 36.5017C53.2165 36.8207 53.764 37.1011 54.5077 37.3431ZM47.8409 33.9146C47.587 34.0623 47.3907 34.2197 47.2519 34.3879C47.1132 34.5558 46.9761 34.7873 46.8405 35.082C46.6574 35.4887 46.4004 36.0824 46.0702 36.8636C45.7393 37.6447 45.3616 38.5334 44.9369 39.5293C44.5589 40.4254 44.1502 41.4071 43.7105 42.4737C43.2708 43.5408 42.8503 44.5635 42.4489 45.5421H40.6691C39.8427 43.5202 39.0016 41.4659 38.1459 39.3793C37.2898 37.2922 36.688 35.8422 36.3396 35.0287C36.204 34.7341 36.0725 34.5115 35.9456 34.3611C35.8187 34.211 35.6168 34.0564 35.3392 33.8969C35.1384 33.7851 34.9616 33.7071 34.8081 33.6629C34.6547 33.6186 34.4511 33.5786 34.1972 33.5434V32.8535H41.0056V33.5257C40.3685 33.6023 39.9365 33.6834 39.7095 33.7687C39.4821 33.8544 39.3688 33.962 39.3688 34.0915C39.3688 34.1567 39.3789 34.2256 39.3998 34.2995C39.4204 34.3733 39.4515 34.4718 39.493 34.5955C39.6816 35.1136 40.0237 35.9602 40.5195 37.1352C41.015 38.3098 41.7498 40.1015 42.7233 42.51C43.3193 41.0439 43.8151 39.8045 44.2102 38.7918C44.6056 37.7791 44.9536 36.8841 45.2549 36.1068C45.4024 35.73 45.5248 35.378 45.6221 35.051C45.7197 34.724 45.7682 34.4778 45.7682 34.3127C45.7682 34.1239 45.6326 33.9665 45.3613 33.8394C45.0896 33.713 44.5882 33.62 43.8566 33.5612V32.8535H48.9477V33.5612C48.7528 33.5786 48.5669 33.6141 48.3898 33.667C48.2126 33.7203 48.0295 33.8029 47.8409 33.9146Z" fill="url(#paint4_linear_595_5167)"/>
<path d="M52.3165 45.4582C52.9804 45.6497 53.696 45.7455 54.4635 45.7455C55.2899 45.7455 56.0127 45.6448 56.6327 45.4442C57.2524 45.2437 57.7981 44.9574 58.2706 44.5855L52.3165 45.4582ZM52.3165 45.4582C51.6522 45.2666 51.0901 45.041 50.6298 44.7815L52.3165 45.4582ZM56.4787 44.9685C57.0467 44.7847 57.5389 44.5251 57.9613 44.1926L57.9628 44.1914C58.3327 43.9025 58.6284 43.5395 58.8504 43.0959C59.0711 42.6544 59.1783 42.2052 59.1783 41.7435C59.1783 40.9714 58.9804 40.3622 58.6131 39.883C58.2359 39.3912 57.6694 38.9832 56.8781 38.6776C56.5342 38.5457 56.1383 38.4069 55.6902 38.2613L56.4787 44.9685ZM56.4787 44.9685C56.171 45.0681 55.83 45.142 55.4542 45.1883C55.8299 45.0717 56.1631 44.8898 56.4437 44.6326L56.4438 44.6325C56.9779 44.1426 57.2478 43.5135 57.2478 42.7816C57.2478 42.1508 57.0066 41.606 56.5413 41.1788C56.1018 40.7752 55.4615 40.4596 54.669 40.2069C54.1741 40.0474 53.7194 39.8997 53.304 39.7639L56.4787 44.9685ZM52.1586 39.3563C51.39 39.0496 50.8547 38.6268 50.5124 38.1044L50.5122 38.1041C50.1572 37.5631 49.9787 36.9598 49.9787 36.2803C49.9787 35.8654 50.0682 35.4674 50.2499 35.0809C50.4305 34.6972 50.6964 34.3457 51.056 34.0276C51.3874 33.742 51.8264 33.4961 52.3884 33.2994C52.735 33.1783 53.1037 33.0943 53.4955 33.0488C53.17 33.1585 52.8736 33.3274 52.6124 33.56L52.6122 33.5601C52.104 34.013 51.8385 34.5935 51.8385 35.2707C51.8385 35.9045 52.0672 36.4522 52.5292 36.8718C52.9554 37.2591 53.5788 37.5664 54.3503 37.8177C54.7881 37.9657 55.2348 38.1134 55.6901 38.2612L52.1586 39.3563ZM52.1586 39.3563C52.5145 39.4945 52.8964 39.6305 53.3039 39.7638L52.1586 39.3563ZM58.041 35.4974C57.7895 34.9903 57.517 34.5552 57.2209 34.1989L57.2209 34.1989L57.2184 34.1959C56.931 33.8557 56.6024 33.5728 56.2326 33.3498L57.5931 35.7196M58.041 35.4974L57.5931 35.7196M58.041 35.4974C58.041 35.4973 58.0409 35.4973 58.0409 35.4972L57.5931 35.7196M58.041 35.4974C58.1952 35.8079 58.3372 36.1149 58.4669 36.4184M57.5931 35.7196C57.8323 36.2012 58.0404 36.6724 58.2176 37.1331M58.4669 36.4184L58.4705 36.6331H58.2176V37.1331M58.4669 36.4184C58.4976 36.4902 58.5276 36.5617 58.5569 36.6331H58.9705M58.4669 36.4184L58.4162 33.3535M58.2176 37.1331L58.4771 37.0333M58.2176 37.1331L58.4771 37.0333M58.4771 37.0333L58.4787 37.1331L58.4771 37.0333ZM58.9705 36.6331L58.9788 37.1331L58.9705 36.6331ZM58.9705 36.6331L58.4162 33.3535M58.4162 33.3535H58.908V32.8535L58.4081 32.8618L58.4126 33.1333L58.1377 32.8535V33.3535H58.3423L58.415 33.282L58.4162 33.3535ZM42.665 43.6998L42.2598 42.6973C41.2864 40.2894 40.5529 38.5006 40.0589 37.3296C40.0589 37.3296 40.0589 37.3295 40.0588 37.3295L40.5195 37.1352L42.665 43.6998ZM42.665 43.6998C42.4774 44.156 42.2936 44.6034 42.1136 45.0421H41.0049C40.2193 43.1204 39.4205 41.1695 38.6085 39.1895L38.6085 39.1895C37.7525 37.1027 37.1493 35.6493 36.7993 34.8318L36.7994 34.8318L36.7938 34.8196C36.6497 34.5066 36.4962 34.2383 36.3278 34.0387L36.3274 34.0382C36.1469 33.8248 35.8888 33.636 35.5883 33.4634L35.5883 33.4633L35.5824 33.46C35.5138 33.4219 35.4461 33.3863 35.3791 33.3535H39.4088C39.169 33.4673 38.8688 33.6871 38.8688 34.0915C38.8688 34.2085 38.887 34.3231 38.9185 34.4346L42.665 43.6998ZM52.4538 44.9172C52.538 44.9641 52.6241 45.007 52.7121 45.0461C52.6254 45.0249 52.5397 45.0022 52.4551 44.9778L52.455 44.9777C51.8174 44.7939 51.2934 44.5816 50.8753 44.346L50.5424 44.1583L50.2739 44.4304L49.8098 44.9007H49.7539L49.6693 41.5654C49.8046 41.8598 49.9585 42.162 50.1306 42.472C50.414 42.9823 50.7434 43.4429 51.1198 43.8519C51.5142 44.2855 51.9589 44.6415 52.4536 44.9171L52.4538 44.9172ZM46.3863 34.8728L46.3863 34.8728L45.6221 35.051L46.1012 35.194C46.1012 35.1939 46.1013 35.1937 46.1013 35.1935C46.2015 34.8581 46.2682 34.554 46.2682 34.3127C46.2682 33.8294 45.9059 33.5425 45.5734 33.3867L45.5722 33.3861C45.5482 33.3749 45.5233 33.3641 45.4973 33.3535H47.828C47.7476 33.3929 47.6675 33.4363 47.5877 33.4835C47.3006 33.6507 47.0532 33.8432 46.8663 34.0697C46.6899 34.2831 46.5318 34.5567 46.3863 34.8728ZM45.1758 37.6914C45.372 37.1875 45.5536 36.7198 45.7208 36.2884L46.0702 36.8636L45.6098 36.6685C45.6097 36.6686 45.6097 36.6687 45.6096 36.6689C45.473 36.9913 45.3284 37.3322 45.1758 37.6914Z" stroke="url(#paint5_linear_595_5167)"/>
</g>
<defs>
<filter id="filter0_d_595_5167" x="0.553284" y="0" width="94.4529" height="83.6456" filterUnits="userSpaceOnUse" color-interpolation-filters="sRGB">
<feFlood flood-opacity="0" result="BackgroundImageFix"/>
<feColorMatrix in="SourceAlpha" type="matrix" values="0 0 0 0 0 0 0 0 0 0 0 0 0 0 0 0 0 0 127 0" result="hardAlpha"/>
<feOffset/>
<feGaussianBlur stdDeviation="12.5"/>
<feComposite in2="hardAlpha" operator="out"/>
<feColorMatrix type="matrix" values="0 0 0 0 0.979167 0 0 0 0 0.792375 0 0 0 0 0.350868 0 0 0 1 0"/>
<feBlend mode="normal" in2="BackgroundImageFix" result="effect1_dropShadow_595_5167"/>
<feBlend mode="normal" in="SourceGraphic" in2="effect1_dropShadow_595_5167" result="shape"/>
</filter>
<filter id="filter1_d_595_5167" x="32.1972" y="32.5088" width="29.4811" height="19.2367" filterUnits="userSpaceOnUse" color-interpolation-filters="sRGB">
<feFlood flood-opacity="0" result="BackgroundImageFix"/>
<feColorMatrix in="SourceAlpha" type="matrix" values="0 0 0 0 0 0 0 0 0 0 0 0 0 0 0 0 0 0 127 0" result="hardAlpha"/>
<feOffset dy="4"/>
<feGaussianBlur stdDeviation="1"/>
<feComposite in2="hardAlpha" operator="out"/>
<feColorMatrix type="matrix" values="0 0 0 0 0 0 0 0 0 0 0 0 0 0 0 0 0 0 0.5 0"/>
<feBlend mode="normal" in2="BackgroundImageFix" result="effect1_dropShadow_595_5167"/>
<feBlend mode="normal" in="SourceGraphic" in2="effect1_dropShadow_595_5167" result="shape"/>
</filter>
<radialGradient id="paint0_radial_595_5167" cx="0" cy="0" r="1" gradientUnits="userSpaceOnUse" gradientTransform="translate(30.238 35.0912) rotate(9.60304) scale(34.5709 46.5041)">
<stop offset="0.102161" stop-color="#B37D16"/>
<stop offset="0.80694" stop-color="#F8F497"/>
<stop offset="1" stop-color="#C4963D"/>
</radialGradient>
<linearGradient id="paint1_linear_595_5167" x1="28" y1="27" x2="58.8155" y2="50.9294" gradientUnits="userSpaceOnUse">
<stop stop-color="#F8F497"/>
<stop offset="1" stop-color="#B7851F"/>
</linearGradient>
<radialGradient id="paint2_radial_595_5167" cx="0" cy="0" r="1" gradientUnits="userSpaceOnUse" gradientTransform="translate(49.6911 29.4102) rotate(95.6824) scale(17.3869 23.4688)">
<stop stop-color="#AF4190"/>
<stop offset="0.472281" stop-color="#610547"/>
<stop offset="1" stop-color="#220119"/>
</radialGradient>
<linearGradient id="paint3_linear_595_5167" x1="34.4555" y1="29.4102" x2="60.1064" y2="48.261" gradientUnits="userSpaceOnUse">
<stop stop-color="#F2E586"/>
<stop offset="0.54684" stop-color="#B37D16"/>
<stop offset="0.990875" stop-color="#F7F395"/>
</linearGradient>
<linearGradient id="paint4_linear_595_5167" x1="34.1972" y1="47.4001" x2="34.1972" y2="32.5088" gradientUnits="userSpaceOnUse">
<stop offset="0.276042" stop-color="#B37D16"/>
<stop offset="0.67" stop-color="#F8F497"/>
<stop offset="1" stop-color="#DDB149"/>
</linearGradient>
<linearGradient id="paint5_linear_595_5167" x1="46.9378" y1="32.5088" x2="46.9366" y2="46.9697" gradientUnits="userSpaceOnUse">
<stop stop-color="#DDB149"/>
<stop offset="1" stop-color="#F8F497"/>
</linearGradient>
</defs>
</svg>
