<svg width="20" height="20" viewBox="0 0 20 20" fill="none" xmlns="http://www.w3.org/2000/svg">
<path d="M17.5 16.6665C17.5 17.1085 17.3244 17.5325 17.0118 17.845C16.6993 18.1576 16.2754 18.3332 15.8333 18.3332H4.16667C3.72464 18.3332 3.30072 18.1576 2.98816 17.845C2.67559 17.5325 2.5 17.1085 2.5 16.6665C2.5 15.3404 3.02678 14.0687 3.96447 13.131C4.90215 12.1933 6.17392 11.6665 7.5 11.6665H12.5C13.8261 11.6665 15.0979 12.1933 16.0355 13.131C16.9732 14.0687 17.5 15.3404 17.5 16.6665ZM10 9.99984C10.8241 9.99984 11.6297 9.75547 12.3149 9.29763C13.0001 8.83979 13.5341 8.18905 13.8495 7.42769C14.1649 6.66633 14.2474 5.82855 14.0866 5.0203C13.9258 4.21204 13.529 3.46961 12.9463 2.88689C12.3636 2.30418 11.6211 1.90734 10.8129 1.74657C10.0046 1.5858 9.16684 1.66831 8.40549 1.98367C7.64413 2.29904 6.99338 2.83309 6.53554 3.5183C6.0777 4.2035 5.83333 5.00908 5.83333 5.83317C5.83333 6.93824 6.27232 7.99805 7.05372 8.77945C7.83512 9.56085 8.89493 9.99984 10 9.99984Z" fill="white"/>
</svg>
