<svg width="80" height="74" viewBox="0 0 80 74" fill="none" xmlns="http://www.w3.org/2000/svg">
<path d="M79.9023 22.3573C79.7892 22.0485 76.9813 14.7981 64.003 14.7981C62.4825 14.7981 61.0972 14.9095 59.8363 15.1048L71.1275 3.81356C71.5656 3.37543 71.7178 2.72715 71.5208 2.1395C71.5 2.07793 71.4869 2.04418 71.4869 2.04418C71.3336 1.652 71.0291 1.3195 70.6469 1.14247C70.3488 1.00403 63.2363 -2.13721 54.0593 7.0398C52.2085 8.89058 50.7518 10.817 49.696 12.7978C48.7052 11.0148 47.2755 9.07823 45.2366 7.03933C36.6429 -1.55393 29.1082 0.972155 28.7918 1.08387C28.3171 1.25137 27.946 1.62965 27.7865 2.10715L27.7715 2.15278C27.5809 2.73715 27.7345 3.37918 28.1692 3.81371L39.4318 15.0762C38.176 14.8992 36.7938 14.7982 35.2698 14.7982C23.1167 14.7982 19.5751 21.9123 19.4304 22.2152C19.2151 22.6657 19.2192 23.193 19.439 23.6413L19.4668 23.6965C19.7461 24.2424 20.3075 24.5857 20.9203 24.5857H38.571C37.9257 25.6309 37.5521 26.8613 37.5521 28.1774C37.5521 31.5371 39.9815 34.338 43.1755 34.921C42.9177 35.6413 42.7763 36.4166 42.7763 37.2246C42.7763 39.554 43.9449 41.6147 45.7255 42.8543V66.4551C44.8187 65.7567 43.7329 65.28 42.5484 65.1105C40.9384 60.7986 36.8065 57.8806 32.1126 57.8806C27.649 57.8806 23.6742 60.5161 21.9115 64.5391C18.9621 65.078 16.6532 67.327 16.0134 70.2214H13.2304C12.3289 70.2214 11.5979 70.9523 11.5979 71.8539C11.5979 72.7554 12.329 73.4864 13.2304 73.4864H66.2686C67.1703 73.4864 67.9011 72.7553 67.9011 71.8539C67.9011 70.952 67.1702 70.2212 66.2686 70.2212H54.5416V42.0055C55.746 40.7694 56.49 39.0827 56.49 37.2246C56.49 36.4166 56.3486 35.6413 56.0908 34.921C59.2849 34.3382 61.7143 31.5369 61.7143 28.1774C61.7143 26.8613 61.3407 25.631 60.6953 24.5857H78.3533C78.9734 24.5857 79.5402 24.2343 79.8158 23.6788C79.8422 23.6252 79.8559 23.5946 79.8559 23.5946C80.0284 23.207 80.0484 22.7554 79.9023 22.3573ZM19.4292 70.2212C20.0418 68.767 21.4518 67.7392 23.1337 67.6831C23.8184 67.6603 24.4162 67.2123 24.6303 66.5614C25.695 63.322 28.7021 61.1456 32.1129 61.1456C35.7235 61.1456 38.8634 63.5864 39.7485 67.0816C39.9391 67.8339 40.6357 68.3456 41.4076 68.3116C41.4641 68.3087 41.5205 68.3065 41.5777 68.3065C42.9454 68.3065 44.1337 69.085 44.7255 70.2214H19.4292V70.2212ZM56.3682 9.3487C60.6791 5.03777 64.2521 3.93027 66.5421 3.78121L52.6816 17.6417C52.3069 17.8743 51.9596 18.1117 51.6383 18.3501C51.5849 17.9707 51.5122 17.5742 51.4168 17.162C52.1885 14.4926 53.851 11.8657 56.3682 9.3487ZM32.9285 3.95512C35.3251 4.18902 38.9202 5.34027 42.928 9.34808C46.0638 12.4839 47.5038 15.2285 48.1137 17.3737C48.1316 17.496 48.1647 17.6145 48.209 17.7281C48.3005 18.0943 48.3677 18.441 48.4154 18.7681C47.8105 18.2509 47.084 17.7293 46.2152 17.2415L32.9285 3.95512ZM24.3856 21.3204C26.2454 19.791 29.6012 18.0631 35.2698 18.0631C39.4713 18.0631 42.3487 18.8909 44.2965 19.9013C44.3985 19.9721 44.5063 20.0307 44.6187 20.0754C45.3454 20.4809 45.9321 20.909 46.4005 21.3204H24.3856ZM44.4091 31.7688C42.4287 31.7688 40.8174 30.1576 40.8174 28.1771C40.8174 26.1966 42.4287 24.5854 44.4091 24.5854C46.3896 24.5854 48.0008 26.1966 48.0008 28.1771C48.0008 30.1576 46.3896 31.7688 44.4091 31.7688ZM51.2765 70.2209H48.9908V44.0502C49.2024 44.0699 49.4165 44.0813 49.6332 44.0813C50.1997 44.0813 50.7497 44.011 51.2763 43.8808V70.2209H51.2765ZM49.6333 40.816C47.6529 40.816 46.0416 39.2047 46.0416 37.2243C46.0416 35.2438 47.6529 33.6326 49.6333 33.6326C51.6138 33.6326 53.2251 35.2438 53.2251 37.2243C53.2249 39.2049 51.6138 40.816 49.6333 40.816ZM54.8575 31.7688C52.8771 31.7688 51.2658 30.1576 51.2658 28.1771C51.2658 26.1966 52.8771 24.5854 54.8575 24.5854C56.8379 24.5854 58.4493 26.1968 58.4493 28.1771C58.4491 30.1577 56.838 31.7688 54.8575 31.7688ZM53.1188 21.3204C53.4808 21.0227 53.9004 20.7176 54.3816 20.4191C54.4813 20.3724 54.5772 20.3151 54.6679 20.2471C56.663 19.0818 59.6508 18.0631 64.003 18.0631C70.0997 18.0631 73.4091 19.8063 75.1339 21.3204H53.1188Z" fill="#83ECFF"/>
<path d="M7.67983 70.2212H1.6325C0.730936 70.2212 0 70.952 0 71.8537C0 72.7552 0.730936 73.4862 1.6325 73.4862H7.67967C8.58123 73.4862 9.31217 72.7551 9.31217 71.8537C9.31233 70.952 8.58123 70.2212 7.67983 70.2212Z" fill="#83ECFF"/>
<path d="M78.3631 70.2212H71.8192C70.9177 70.2212 70.1867 70.9521 70.1867 71.8537C70.1867 72.7552 70.9178 73.4862 71.8192 73.4862H78.3631C79.2647 73.4862 79.9956 72.7551 79.9956 71.8537C79.9958 70.952 79.2647 70.2212 78.3631 70.2212Z" fill="#83ECFF"/>
</svg>
