<svg width="80" height="48" viewBox="0 0 80 48" fill="none" xmlns="http://www.w3.org/2000/svg">
<path d="M78.9819 29.5225C78.3239 28.8941 77.4555 28.5599 76.5523 28.6076L50.3226 29.7496V28.516C50.3226 28.0308 50.2774 27.556 50.2116 27.0876L59.5148 25.925L59.1948 23.365L49.5355 24.5728C49.3871 24.2141 49.2181 23.867 49.0323 23.5302V23.3547H48.9264C47.7742 21.3702 45.9845 19.805 43.8361 18.9405L42.4916 0.128906H37.5097L36.1665 18.9405C34.0168 19.805 32.2271 21.3702 31.0761 23.3547H30.9677V23.5302C30.7806 23.867 30.6129 24.2141 30.4645 24.5728L20.8052 23.365L20.4852 25.925L29.7884 27.0876C29.7226 27.556 29.6774 28.0308 29.6774 28.516V29.7496L3.44645 28.6076C2.52 28.5741 1.67484 28.8954 1.01806 29.5225C0.36129 30.1534 0 30.9999 0 31.9096C0 33.565 1.23742 34.9728 2.87613 35.1844L10.4516 36.1728C10.3716 36.6192 10.3226 37.0786 10.3226 37.5483C10.3226 41.8179 13.7948 45.2902 18.0645 45.2902C22.1239 45.2902 25.4555 42.1496 25.7755 38.1715L29.9716 38.7186C30.4 39.5521 31.2594 40.1289 32.2581 40.1289H38.7097V42.7095H36.129V47.8708H38.7097V45.2902H41.2903V47.8708H43.871V42.7095H41.2903V40.1289H47.7419C48.7406 40.1289 49.6 39.5521 50.0284 38.7186L54.2245 38.1715C54.5445 42.1496 57.8761 45.2902 61.9355 45.2902C66.2052 45.2902 69.6774 41.8179 69.6774 37.5483C69.6774 37.0786 69.6284 36.6205 69.5484 36.1728L77.1226 35.1857C78.7626 34.9728 80 33.565 80 31.9096C80 30.9999 79.6387 30.1534 78.9819 29.5225ZM11.3626 33.6902L3.20774 32.6257C2.85032 32.5792 2.58065 32.2708 2.58065 31.9096C2.58065 31.6412 2.72 31.4657 2.80387 31.387C2.88645 31.3057 3.0929 31.2037 3.33419 31.187L13.1045 31.6115C12.4077 32.1934 11.8194 32.8992 11.3626 33.6902ZM18.0645 42.7095C15.2181 42.7095 12.9032 40.3947 12.9032 37.5483C12.9032 34.7018 15.2181 32.387 18.0645 32.387C20.911 32.387 23.2258 34.7018 23.2258 37.5483C23.2258 40.3947 20.911 42.7095 18.0645 42.7095ZM29.6774 36.0786L25.5329 35.5379C25.1729 34.205 24.4735 33.0115 23.5226 32.0644L29.6774 32.3315V36.0786ZM47.7419 28.516H41.2903V25.9354H47.2903C47.5781 26.7444 47.7419 27.6102 47.7419 28.516ZM39.911 2.70955H40.0903L41.2013 18.2696C40.8064 18.2231 40.4065 18.1934 40 18.1934C39.5935 18.1934 39.1935 18.2231 38.7987 18.2696L39.911 2.70955ZM40 20.7741C42.2852 20.7741 44.3355 21.7754 45.7548 23.3547H34.2452C35.6645 21.7754 37.7148 20.7741 40 20.7741ZM32.7097 25.9354H38.7097V28.516H32.2581C32.2581 27.6102 32.4232 26.7444 32.7097 25.9354ZM32.2581 37.5483V31.0966H47.7432L47.7445 37.5483H32.2581ZM54.4671 35.5379L50.3226 36.0786V32.3315L56.4774 32.0631C55.5252 33.0115 54.8271 34.205 54.4671 35.5379ZM61.9355 42.7095C59.089 42.7095 56.7742 40.3947 56.7742 37.5483C56.7742 34.7018 59.089 32.387 61.9355 32.387C64.7819 32.387 67.0968 34.7018 67.0968 37.5483C67.0968 40.3947 64.7819 42.7095 61.9355 42.7095ZM76.791 32.627L68.6374 33.6902C68.1806 32.8992 67.5923 32.1947 66.8955 31.6115L76.6645 31.187C76.9148 31.1831 77.1135 31.307 77.1961 31.387C77.28 31.4657 77.4193 31.6412 77.4193 31.9096C77.4193 32.2708 77.1497 32.5792 76.791 32.627Z" fill="#83ECFF"/>
<path d="M61.9355 33.6772C59.8013 33.6772 58.0645 35.414 58.0645 37.5482C58.0645 39.6824 59.8013 41.4192 61.9355 41.4192C64.0697 41.4192 65.8064 39.6824 65.8064 37.5482C65.8064 35.414 64.0697 33.6772 61.9355 33.6772ZM61.9355 38.8385C61.2232 38.8385 60.6452 38.2605 60.6452 37.5482C60.6452 36.836 61.2232 36.2579 61.9355 36.2579C62.6477 36.2579 63.2258 36.836 63.2258 37.5482C63.2258 38.2605 62.6477 38.8385 61.9355 38.8385Z" fill="#83ECFF"/>
<path d="M18.0645 33.6772C15.9303 33.6772 14.1935 35.414 14.1935 37.5482C14.1935 39.6824 15.9303 41.4192 18.0645 41.4192C20.1987 41.4192 21.9355 39.6824 21.9355 37.5482C21.9355 35.414 20.1987 33.6772 18.0645 33.6772ZM18.0645 38.8385C17.3523 38.8385 16.7742 38.2605 16.7742 37.5482C16.7742 36.836 17.3523 36.2579 18.0645 36.2579C18.7768 36.2579 19.3548 36.836 19.3548 37.5482C19.3548 38.2605 18.7768 38.8385 18.0645 38.8385Z" fill="#83ECFF"/>
</svg>
