<svg width="50" height="80" viewBox="0 0 50 80" fill="none" xmlns="http://www.w3.org/2000/svg">
<path d="M11.8372 32.3555C11.1349 32.3555 10.5655 32.9248 10.5655 33.6272V62.0349C10.5655 62.7373 11.1349 63.3066 11.8372 63.3066C12.5396 63.3066 13.1089 62.7373 13.1089 62.0349V33.6272C13.1089 32.9248 12.5396 32.3555 11.8372 32.3555Z" fill="#83ECFF"/>
<path d="M24.9999 18.2388C22.8201 18.2388 20.7511 18.6083 19.1743 19.2794C16.5808 20.383 16.1935 21.9066 16.1935 22.7166C16.1935 25.6563 20.6236 27.1944 24.9999 27.1944C27.1794 27.1944 29.2484 26.8247 30.8252 26.1538C33.4185 25.0502 33.8059 23.5266 33.8059 22.7166C33.806 19.7769 29.376 18.2388 24.9999 18.2388ZM24.9999 24.651C20.8904 24.651 18.7369 23.2136 18.7369 22.7166C18.7369 22.2196 20.8904 20.7822 24.9999 20.7822C29.1091 20.7822 31.2626 22.2194 31.2626 22.7166C31.2626 23.2138 29.1093 24.651 24.9999 24.651Z" fill="#83ECFF"/>
<path d="M42.739 8.70283H32.8532V6.44439C34.2376 6.29314 35.3185 5.11767 35.3185 3.69391V2.76782C35.3187 1.24172 34.0769 0 32.5507 0H17.4488C15.9227 0 14.681 1.24172 14.681 2.76797V3.69407C14.681 5.11813 15.7622 6.29345 17.1466 6.44454V8.70283H7.2608C3.61313 8.70283 0.64563 11.6703 0.64563 15.318V69.4433C0.64563 72.7219 3.04391 75.4497 6.17783 75.9683L7.88096 79.3064C8.09814 79.7322 8.5358 80.0002 9.01377 80.0002H11.3489C11.8269 80.0002 12.2646 79.732 12.4817 79.3062L14.1389 76.0583H35.8609L37.5179 79.3062C37.7351 79.732 38.1726 80.0002 38.6507 80.0002H40.9859C41.4638 80.0002 41.9013 79.732 42.1187 79.3062L43.8217 75.9683C46.9557 75.4497 49.3542 72.7219 49.3542 69.4431V15.318C49.3543 11.6705 46.3865 8.70283 42.739 8.70283ZM17.4489 2.54344H32.5509C32.6704 2.54344 32.7752 2.64844 32.7752 2.76797V3.69407C32.7752 3.8136 32.6704 3.91844 32.5509 3.91844H31.7288C31.3254 3.91844 30.9533 4.10907 30.7165 4.42016C30.4104 4.20798 30.058 4.09407 29.6849 4.09407C29.2533 4.09407 28.8499 4.24626 28.5138 4.52641C28.1776 4.24641 27.774 4.09407 27.3427 4.09407C26.9115 4.09407 26.508 4.2461 26.1716 4.52657C25.8354 4.24641 25.4318 4.09407 25.0002 4.09407C24.5688 4.09407 24.1655 4.24626 23.8291 4.52657C23.4929 4.24641 23.0893 4.09407 22.6577 4.09407C22.2263 4.09407 21.8227 4.24626 21.4866 4.52657C21.1504 4.24641 20.7466 4.09407 20.3152 4.09407C19.9422 4.09407 19.59 4.20798 19.2838 4.42032C19.0471 4.10923 18.6749 3.9186 18.2714 3.9186H17.4493C17.3297 3.9186 17.2249 3.81376 17.2249 3.69423V2.76797C17.2249 2.64844 17.3294 2.54344 17.4489 2.54344ZM30.3101 7.3872V8.70283H19.6904V7.3872C19.915 7.31486 20.1258 7.19954 20.315 7.04204C20.6513 7.32205 21.0549 7.47439 21.4865 7.47439C21.9177 7.47439 22.321 7.32236 22.6575 7.04189C22.9938 7.32205 23.3976 7.47439 23.829 7.47439C24.2602 7.47439 24.6636 7.3222 25.0001 7.04189C25.3363 7.32205 25.7399 7.47439 26.1715 7.47439C26.6029 7.47439 27.0065 7.3222 27.3426 7.04189C27.6788 7.32205 28.0824 7.47439 28.514 7.47439C28.9451 7.47439 29.3483 7.32236 29.6849 7.04189C29.874 7.19923 30.0849 7.31486 30.3101 7.3872ZM10.5703 77.4567H9.79283L9.07924 76.0583H11.2836L10.5703 77.4567ZM40.2071 77.4567H39.4296L38.7163 76.0583H40.9206L40.2071 77.4567ZM42.739 73.5148H7.26096C5.45986 73.5148 3.92923 72.3389 3.39376 70.7148H46.6063C46.0709 72.339 44.5401 73.5148 42.739 73.5148ZM46.8109 68.1715H3.18923V15.318C3.18923 13.0728 5.01579 11.2463 7.26096 11.2463H42.7388C44.984 11.2463 46.8107 13.0728 46.8107 15.318L46.8109 68.1715Z" fill="#83ECFF"/>
<path d="M38.1624 32.3555C37.4599 32.3555 36.8907 32.9248 36.8907 33.6272V62.0349C36.8907 62.7373 37.4599 63.3066 38.1624 63.3066C38.8649 63.3066 39.4341 62.7373 39.4341 62.0349V33.6272C39.4341 32.9248 38.8649 32.3555 38.1624 32.3555Z" fill="#83ECFF"/>
<path d="M18.4186 32.3555C17.7163 32.3555 17.1469 32.9248 17.1469 33.6272V62.0349C17.1469 62.7373 17.7163 63.3066 18.4186 63.3066C19.121 63.3066 19.6904 62.7373 19.6904 62.0349V33.6272C19.6904 32.9248 19.1208 32.3555 18.4186 32.3555Z" fill="#83ECFF"/>
<path d="M24.9997 32.3555C24.2974 32.3555 23.728 32.9248 23.728 33.6272V62.0349C23.728 62.7373 24.2974 63.3066 24.9997 63.3066C25.7023 63.3066 26.2715 62.7373 26.2715 62.0349V33.6272C26.2715 32.9248 25.7023 32.3555 24.9997 32.3555Z" fill="#83ECFF"/>
<path d="M31.5812 32.3555C30.8787 32.3555 30.3094 32.9248 30.3094 33.6272V62.0349C30.3094 62.7373 30.8787 63.3066 31.5812 63.3066C32.2837 63.3066 32.8529 62.7373 32.8529 62.0349V33.6272C32.8529 32.9248 32.2835 32.3555 31.5812 32.3555Z" fill="#83ECFF"/>
</svg>
