<svg width="90" height="90" viewBox="0 0 90 90" fill="none" xmlns="http://www.w3.org/2000/svg">
<path d="M88.5908 67.4533C89.3691 67.4533 90 66.8224 90 66.0441V45.0002C90 44.2359 89.3551 43.591 88.5908 43.591H82.4843V26.9626C82.4843 24.5279 80.5036 22.5472 78.0688 22.5472H35.8068C34.9509 14.9691 27.267 9.01904 17.9436 9.01904C8.04938 9.01904 0 15.72 0 23.9564C0 28.9581 2.96842 33.3929 7.5157 36.1054V59.0921C7.5157 59.8703 8.14641 60.5013 8.92494 60.5013C9.7033 60.5013 10.3342 59.8704 10.3342 59.0921V37.4819C12.6459 38.3868 15.2248 38.8938 17.9438 38.8938C18.7648 38.8938 19.591 38.8468 20.4063 38.7537L29.1814 44.6659C29.7246 45.0319 30.4683 44.9681 30.9421 44.5161C31.3436 44.1328 31.4831 43.5335 31.2921 43.0123L28.6937 35.9239C30.6937 34.6812 32.3297 33.1288 33.534 31.3733C33.5667 31.3756 33.5994 31.3784 33.6328 31.3784H79.6662V43.5914H58.5281C57.761 43.5914 57.1189 44.2349 57.1189 45.0006V66.0444C57.1189 66.8226 57.7496 67.4536 58.5281 67.4536H79.666V70.6478H10.334V66.4202C10.334 65.642 9.7033 65.011 8.92477 65.011C8.14641 65.011 7.51553 65.6419 7.51553 66.4202V70.6476H1.40924C0.630879 70.6476 0 71.2785 0 72.0568V73.5599C0 77.6523 3.32947 80.9816 7.42166 80.9816H66.3256C67.104 80.9816 67.7348 80.3507 67.7348 79.5724C67.7348 78.7942 67.1041 78.1631 66.3256 78.1631H7.42166C4.8832 78.1631 2.8183 76.098 2.8183 73.5598V73.4659H87.1815V73.5598C87.1815 76.098 85.1166 78.1631 82.5782 78.1631H73.4655C72.6871 78.1631 72.0563 78.794 72.0563 79.5724C72.0563 80.3505 72.687 80.9816 73.4655 80.9816H82.5782C86.6705 80.9816 89.9998 77.6521 89.9998 73.5599V72.0568C89.9998 71.2787 89.3691 70.6476 88.5906 70.6476H82.4841V67.4535H88.5908V67.4533ZM26.2992 34.0524C25.679 34.3832 25.3974 35.1208 25.6393 35.7807L27.1484 39.898L21.5415 36.1205C21.011 35.7633 20.4267 35.9213 19.8369 35.9805C19.208 36.0437 18.5759 36.0756 17.9436 36.0756C9.60346 36.0756 2.8183 30.6391 2.8183 23.9566C2.8183 17.2741 9.60346 11.8375 17.9436 11.8375C26.2837 11.8375 33.0688 17.2741 33.0688 23.9566C33.0688 28.0168 30.538 31.791 26.2992 34.0524ZM35.022 28.5598C35.4192 27.532 35.6847 26.4622 35.8075 25.3656H78.0688C78.9495 25.3656 79.666 26.0821 79.666 26.9628V28.5599H35.022V28.5598ZM85.1889 46.4095L73.5595 58.0388L61.9302 46.4095H85.1889ZM59.9374 64.6348V48.4023L72.5629 61.0278C73.1058 61.5706 74.0129 61.5706 74.5559 61.0278L87.1815 48.4023V64.6348H59.9374Z" fill="white"/>
<path d="M45 55.6157C42.5653 55.6157 40.5845 57.5964 40.5845 60.0312C40.5845 62.4659 42.5653 64.4466 45 64.4466C47.4347 64.4466 49.4154 62.4659 49.4154 60.0312C49.4154 57.5964 47.4347 55.6157 45 55.6157ZM45 61.6281C44.1193 61.6281 43.4029 60.9117 43.4029 60.031C43.4029 59.1503 44.1193 58.4338 45 58.4338C45.8807 58.4338 46.5971 59.1503 46.5971 60.031C46.5971 60.9117 45.8807 61.6281 45 61.6281Z" fill="white"/>
<path d="M50.2154 50.9998C48.6366 50.0864 46.8332 49.6035 45 49.6035C43.1671 49.6035 41.3638 50.0862 39.7851 50.9994C39.1113 51.3891 38.8809 52.2511 39.2708 52.9249C39.6603 53.5985 40.523 53.8289 41.1961 53.4392C42.3466 52.7737 43.662 52.422 45 52.422C46.3382 52.422 47.6536 52.7739 48.8041 53.4394C49.0265 53.5681 49.2689 53.6293 49.5084 53.6293C49.9948 53.6291 50.4684 53.3767 50.7296 52.9254C51.1193 52.2517 50.889 51.3896 50.2154 50.9998Z" fill="white"/>
<path d="M53.2206 45.7909C50.7324 44.3516 47.8897 43.5908 45 43.5908C42.11 43.5908 39.2671 44.3516 36.7785 45.7911C36.1049 46.1808 35.8747 47.0428 36.2645 47.7166C36.5259 48.1682 36.999 48.4204 37.4857 48.4204C37.7251 48.4204 37.9679 48.3592 38.1901 48.2309C40.25 47.0393 42.605 46.4093 45 46.4093C47.3948 46.4093 49.7496 47.0391 51.8096 48.2306C52.4834 48.6204 53.3454 48.39 53.7349 47.7162C54.1246 47.0426 53.8944 46.1806 53.2206 45.7909Z" fill="white"/>
<path d="M56.5713 40.7858C53.0882 38.6873 49.0869 37.5781 45 37.5781C41.053 37.5781 37.1705 38.6172 33.7723 40.5829C33.0986 40.9726 32.8683 41.8347 33.258 42.5084C33.6477 43.1822 34.5099 43.4123 35.1833 43.0228C38.1533 41.3047 41.5478 40.3966 44.9998 40.3966C48.5742 40.3966 52.0726 41.3659 55.1169 43.2C55.3444 43.3371 55.595 43.4023 55.8427 43.4023C56.3205 43.4023 56.7865 43.1594 57.051 42.7201C57.4529 42.0533 57.2379 41.1873 56.5713 40.7858Z" fill="white"/>
<path d="M18.6952 22.5469H17.1921C16.4137 22.5469 15.7829 23.1778 15.7829 23.9561C15.7829 24.7345 16.4136 25.3654 17.1921 25.3654H18.6952C19.4736 25.3654 20.1044 24.7345 20.1044 23.9561C20.1044 23.1778 19.4736 22.5469 18.6952 22.5469Z" fill="white"/>
<path d="M12.6826 22.5469H11.1795C10.4012 22.5469 9.77028 23.1778 9.77028 23.9561C9.77028 24.7345 10.401 25.3654 11.1795 25.3654H12.6826C13.461 25.3654 14.0919 24.7345 14.0919 23.9561C14.0919 23.1778 13.4612 22.5469 12.6826 22.5469Z" fill="white"/>
<path d="M24.7078 22.5469H23.2047C22.4264 22.5469 21.7955 23.1778 21.7955 23.9561C21.7955 24.7345 22.4262 25.3654 23.2047 25.3654H24.7078C25.4862 25.3654 26.1171 24.7345 26.1171 23.9561C26.1171 23.1778 25.4862 22.5469 24.7078 22.5469Z" fill="white"/>
</svg>
