<svg width="20" height="20" viewBox="0 0 20 20" fill="none" xmlns="http://www.w3.org/2000/svg">
<path d="M10.4131 14.1347C10.2559 14.2918 10.0503 14.3703 9.84456 14.3703C9.63888 14.3703 9.43319 14.2918 9.27602 14.1347L5.86497 10.7237C5.70791 10.5665 5.62927 10.3608 5.62927 10.1551C5.62927 9.94942 5.70791 9.74363 5.86497 9.58657L7.5705 7.88104L3.02246 3.33301L1.88538 4.46999C-0.628459 6.98393 -0.628459 11.0523 1.88538 13.5662L6.43351 18.1142C7.06197 18.7427 7.78758 19.2141 8.56181 19.5283C9.33594 19.8425 10.1588 19.9997 10.9815 19.9997C11.8044 19.9997 12.6272 19.8425 13.4014 19.5283C14.1756 19.2141 14.9012 18.7427 15.5297 18.1142L16.6667 16.9772L12.1186 12.4292L10.4131 14.1347Z" fill="white"/>
<path d="M10.8333 1.6665H10V3.33317H10.8333C14.0495 3.33317 16.6667 5.95036 16.6667 9.1665V9.99984H18.3333V9.1665C18.3333 5.03076 14.9691 1.6665 10.8333 1.6665Z" fill="white"/>
<path d="M13.3333 9.16667V10H15V9.16667C15 6.8693 13.1307 5 10.8333 5H10V6.66667H10.8333C12.2119 6.66667 13.3333 7.78809 13.3333 9.16667Z" fill="white"/>
</svg>
