<svg width="80" height="90" viewBox="0 0 80 90" fill="none" xmlns="http://www.w3.org/2000/svg">
<path d="M61.8493 33.0638C61.7777 32.9306 61.6858 32.8156 61.5807 32.7186C61.5527 32.5825 61.5037 32.4486 61.4302 32.322C61.0641 31.691 60.2558 31.4756 59.625 31.8419L54.4841 34.823C54.0105 34.4066 53.4461 34.0991 52.8189 33.9323C51.7503 33.6477 50.6355 33.797 49.6789 34.3517L45.144 36.9814C44.6857 36.6615 44.1991 36.3797 43.6885 36.141L43.6786 30.9026C43.6753 29.082 42.4905 27.5358 40.8533 26.9862L40.8447 22.4057C44.1081 22.5906 47.312 23.4795 50.1829 25.0074C50.8266 25.3495 51.6266 25.106 51.9695 24.4618C52.3123 23.8179 52.0681 23.0179 51.4241 22.675C47.7981 20.7454 43.6992 19.7261 39.5664 19.7261C39.5517 19.7261 39.5364 19.7261 39.5213 19.7261C39.5204 19.7261 39.5195 19.7261 39.5186 19.7261C32.7677 19.7386 26.4257 22.3797 21.661 27.1623C16.8965 31.9448 14.2795 38.2966 14.2921 45.0475C14.3023 50.4339 15.9835 55.5724 19.154 59.9068C19.4128 60.2606 19.8141 60.448 20.2212 60.448C20.4919 60.448 20.7649 60.365 21.0001 60.1931C21.589 59.7625 21.7171 58.9358 21.2863 58.3471C21.0771 58.0611 20.8774 57.7702 20.6828 57.4764L24.6481 55.177C25.1216 55.5935 25.6861 55.9009 26.3132 56.0677C26.6674 56.1619 27.0267 56.2087 27.3838 56.2087C28.1036 56.2087 28.8139 56.0192 29.4532 55.6485L33.9882 53.0188C34.4465 53.3387 34.933 53.6205 35.4437 53.8592L35.4535 59.0977C35.4568 60.9182 36.6414 62.4644 38.2788 63.014L38.2874 67.5946C33.4236 67.3188 28.7534 65.4769 25.0137 62.3341C24.4554 61.8648 23.622 61.9372 23.1525 62.4955C22.6832 63.054 22.7554 63.8872 23.3139 64.3565C27.8559 68.1736 33.6249 70.2743 39.5654 70.274C39.5801 70.274 39.5958 70.274 39.6107 70.274C39.6116 70.274 39.6125 70.274 39.6134 70.274C46.3642 70.2615 52.7062 67.6204 57.4709 62.8377C62.2357 58.0551 64.8525 51.7034 64.8399 44.9526C64.8321 40.8059 63.7982 36.6947 61.8493 33.0638ZM62.1982 44.9573C62.2049 48.5438 61.3828 52.0044 59.8222 55.1204L55.8416 52.8321C55.9656 52.2135 55.9469 51.5702 55.7776 50.9432C55.4895 49.8757 54.8029 48.9846 53.8444 48.4337L49.3042 45.8237C49.3274 45.5458 49.3418 45.2656 49.3413 44.9817C49.3407 44.6979 49.3254 44.4175 49.301 44.1398L53.8314 41.5127C54.7878 40.9581 55.4709 40.0643 55.755 38.9959C55.922 38.3683 55.9381 37.725 55.8119 37.1068L59.777 34.8074C61.355 37.9338 62.1915 41.4303 62.1982 44.9573ZM39.5794 52.1329L39.5657 53.4539V52.1329C35.64 52.1329 32.4404 48.9389 32.4331 45.0134C32.4294 43.1081 33.168 41.3153 34.5127 39.9657C35.8574 38.6158 37.6474 37.8705 39.5664 37.867C43.4921 37.867 46.6917 41.061 46.6991 44.9865C46.7066 48.9196 43.5127 52.1255 39.5794 52.1329ZM26.0526 37.2319C26.2519 36.8851 26.5743 36.6367 26.9603 36.5325C27.3465 36.4279 27.7499 36.4806 28.0965 36.68L31.943 38.8911C31.3193 39.6679 30.8125 40.5412 30.4474 41.4851L26.6042 39.2759C26.2575 39.0766 26.0093 38.7542 25.9051 38.3682C25.801 37.982 25.8534 37.5786 26.0526 37.2319ZM48.6847 48.5149L52.5278 50.7242C52.8744 50.9235 53.1228 51.2459 53.2271 51.6319C53.3313 52.0177 53.2791 52.4211 53.0798 52.768L53.0796 52.7681C52.8804 53.1148 52.5579 53.3632 52.1719 53.4674C51.7858 53.5716 51.3822 53.5192 51.0356 53.3199L47.1892 51.1088C47.8128 50.3322 48.3196 49.4585 48.6847 48.5149ZM51.0043 36.6369C51.3503 36.4363 51.7535 36.3825 52.14 36.4852C52.5262 36.5879 52.8493 36.8348 53.0501 37.1804L53.0504 37.1811L53.0508 37.1816C53.251 37.5274 53.3048 37.9303 53.2021 38.3167C53.0994 38.703 52.8521 39.0265 52.5062 39.227L48.6706 41.451C48.3019 40.509 47.7917 39.6375 47.1651 38.863L51.0043 36.6369ZM41.0451 35.3368C40.5628 35.2632 40.069 35.225 39.5666 35.225C39.5657 35.225 39.5487 35.225 39.548 35.225C39.0389 35.2259 38.5392 35.2662 38.051 35.3424L38.0428 30.9128C38.0421 30.5129 38.1971 30.1367 38.4794 29.8533C38.7617 29.57 39.1372 29.4135 39.5371 29.4128C39.538 29.4128 39.539 29.4128 39.5401 29.4128C39.9387 29.4128 40.314 29.5679 40.5967 29.8495C40.8799 30.1318 41.0365 30.5072 41.0372 30.9071L41.0451 35.3368ZM23.5327 29.0266C27.4871 25.0575 32.6549 22.7374 38.2027 22.4095L38.2113 26.989C37.6135 27.1908 37.0658 27.5288 36.6075 27.9887C35.827 28.7719 35.3987 29.812 35.4008 30.9175L35.4106 36.1551C34.9003 36.3959 34.4146 36.6798 33.9573 37.0015L29.4135 34.3895C28.4551 33.8381 27.3393 33.6931 26.2719 33.9819C25.6453 34.151 25.0823 34.4607 24.6103 34.8787L20.6315 32.5915C21.4668 31.3223 22.4357 30.1277 23.5327 29.0266ZM16.9341 45.0424C16.9274 41.4559 17.7496 37.9953 19.3101 34.8793L23.2907 37.1676C23.1668 37.7862 23.1854 38.4295 23.3547 39.0565C23.6428 40.124 24.3294 41.0151 25.2877 41.566L29.8282 44.176C29.805 44.4539 29.7905 44.7341 29.7911 45.018C29.7916 45.3018 29.8069 45.582 29.8313 45.8598L25.3007 48.487C23.7259 49.4004 22.9794 51.1993 23.322 52.8919L19.3536 55.1932C17.7706 52.0666 16.9408 48.6162 16.9341 45.0424ZM28.128 53.3628C27.7822 53.5634 27.3788 53.6175 26.9923 53.5145C26.6061 53.4118 26.2828 53.165 26.0823 52.8195C26.0821 52.8191 26.0819 52.8189 26.0819 52.8186C26.0819 52.8186 26.0816 52.8182 26.0816 52.8179C25.6681 52.1039 25.9123 51.1865 26.6261 50.7727L30.4617 48.5487C30.8305 49.4907 31.3406 50.3622 31.9674 51.1367L28.128 53.3628ZM38.0872 54.6629C38.5696 54.7365 39.0633 54.7747 39.5657 54.7747C39.5666 54.7747 39.5837 54.7747 39.5844 54.7747C40.0934 54.7738 40.5932 54.7335 41.0813 54.6573L41.0896 59.0869C41.0903 59.4868 40.9352 59.863 40.6529 60.1464C40.3706 60.4297 39.9952 60.5862 39.5951 60.5869C39.5942 60.5869 39.5931 60.5869 39.5921 60.5869C39.1934 60.5869 38.8181 60.4318 38.5356 60.1502C38.2525 59.8679 38.0958 59.4925 38.0951 59.0926L38.0872 54.6629ZM55.5996 60.9731C51.6454 64.9422 46.4776 67.2623 40.9296 67.5902L40.921 63.0109C41.5188 62.8091 42.0666 62.4712 42.5248 62.011C43.3053 61.2279 43.7337 60.1877 43.7317 59.0822L43.7219 53.8446C44.2322 53.6038 44.7179 53.3199 45.1752 52.9982L49.719 55.6102C50.3552 55.976 51.0606 56.1626 51.7751 56.1626C52.137 56.1626 52.5016 56.1148 52.8606 56.0178C53.487 55.8487 54.0502 55.5391 54.5222 55.1208L58.5008 57.4079C57.6655 58.6774 56.6966 59.872 55.5996 60.9731Z" fill="white"/>
<path d="M54.1162 27.6639C55.0977 28.4887 56.016 29.4032 56.8453 30.3827C57.1065 30.691 57.479 30.8497 57.854 30.8497C58.1554 30.8497 58.4588 30.7471 58.7069 30.537C59.2636 30.0654 59.3326 29.2319 58.8612 28.6752C57.9357 27.5825 56.9107 26.5617 55.8153 25.6412C55.2568 25.1717 54.4238 25.2444 53.9541 25.8029C53.4851 26.3613 53.5575 27.1946 54.1162 27.6639Z" fill="white"/>
<path d="M77.0538 61.7756L69.7244 57.5623C69.2106 57.267 68.6395 57.0878 68.0538 57.0319C69.6489 53.2569 70.4838 49.1635 70.4759 44.9419C70.468 40.7205 69.6174 36.6303 68.0081 32.8608C68.5938 32.8027 69.1641 32.6218 69.677 32.3244L76.9905 28.0836C78.9647 26.9386 79.6394 24.401 78.4949 22.4268C77.7569 21.1542 76.3841 20.3637 74.9117 20.3637C74.1856 20.3637 73.4688 20.5569 72.8382 20.9225L65.5249 25.163C64.993 25.4714 64.5563 25.8816 64.2234 26.354C63.3643 25.2228 62.4241 24.1419 61.4014 23.1215C56.4484 18.1784 50.1135 15.1216 43.2701 14.3093C43.5108 13.7837 43.6454 13.2001 43.6442 12.585L43.6284 4.13103C43.624 1.85326 41.7674 0 39.4815 0C37.1994 0.00421874 35.3461 1.86451 35.3503 4.14667L35.3661 12.6007C35.3674 13.2152 35.5043 13.7981 35.7469 14.3228C28.9162 15.1593 22.6011 18.2329 17.6682 23.1843C16.642 24.2143 15.6989 25.3052 14.839 26.4466C14.5041 25.9755 14.0659 25.567 13.5329 25.2608L6.20356 21.0475C5.57637 20.687 4.86411 20.4964 4.14358 20.4964C2.66492 20.4964 1.2889 21.2922 0.55238 22.5731C0.00148259 23.5314 -0.143361 24.6469 0.14492 25.7145C0.433201 26.782 1.1198 27.6732 2.07816 28.2241L9.40752 32.4374C9.92133 32.7327 10.4923 32.9118 11.0781 32.9677C9.4831 36.7428 8.64815 40.8362 8.65606 45.0577C8.66397 49.2791 9.51457 53.3694 11.1238 57.1388C10.5381 57.197 9.96773 57.3779 9.4548 57.6753L2.14162 61.9164C1.18519 62.4708 0.501931 63.3646 0.217869 64.433C-0.066193 65.5014 0.0825179 66.6164 0.637282 67.5732C1.37521 68.8456 2.74824 69.6361 4.22058 69.6361C4.94655 69.6361 5.66338 69.443 6.29391 69.0775L13.6073 64.8368C14.1392 64.5285 14.5758 64.1182 14.9088 63.6459C15.7678 64.777 16.7081 65.8579 17.7306 66.8783C22.6835 71.8214 29.0185 74.8783 35.8618 75.6906C35.6212 76.2161 35.4866 76.7997 35.4878 77.4148L35.5036 85.8688C35.5078 88.1467 37.3646 90 39.6424 90C39.6432 90 39.6494 90 39.6503 90C41.9324 89.9958 43.7857 88.1355 43.7815 85.8533L43.7657 77.3993C43.7644 76.7848 43.6275 76.2019 43.3847 75.6772C50.2154 74.8408 56.5307 71.7673 61.4635 66.8157C62.49 65.7853 63.4333 64.6941 64.2934 63.5525C64.6344 64.0312 65.0738 64.4376 65.5987 64.7392L72.9279 68.9525C73.5551 69.313 74.2673 69.5036 74.9879 69.5036C76.4665 69.5036 77.8425 68.7078 78.5789 67.4271C79.7169 65.4483 79.0326 62.9132 77.0538 61.7756ZM66.8501 27.4485L74.1635 23.208C74.392 23.0756 74.6505 23.0057 74.9117 23.0057C75.4452 23.0057 75.9423 23.2917 76.2094 23.7519C76.6235 24.4662 76.3793 25.3842 75.6653 25.7981L68.352 30.0388C68.1203 30.1731 67.8687 30.241 67.604 30.241H67.6038C67.1285 30.241 66.6829 30.013 66.4024 29.6381C66.3456 29.5395 66.2878 29.4415 66.2299 29.3435C65.9286 28.6556 66.1853 27.834 66.8501 27.4485ZM38.0081 12.5959L37.9923 4.14193C37.9916 3.74202 38.1466 3.36568 38.4289 3.08232C38.7113 2.79896 39.0867 2.64251 39.4896 2.64181C40.3135 2.64181 40.9852 3.31206 40.9867 4.13595L41.0026 12.59C41.0033 12.9899 40.8482 13.3662 40.5659 13.6496C40.2836 13.9329 39.9081 14.0894 39.5082 14.0901C39.5072 14.0901 39.5063 14.0901 39.5053 14.0901C38.6814 14.0901 38.0097 13.4196 38.0081 12.5959ZM11.4677 30.3468C11.2049 30.3468 10.9547 30.2797 10.7245 30.1473L3.39511 25.934C3.04847 25.7347 2.80009 25.4123 2.69585 25.0263C2.59161 24.6403 2.644 24.2367 2.84316 23.89C3.10964 23.4265 3.60816 23.1386 4.14376 23.1386C4.40673 23.1386 4.65686 23.2057 4.88714 23.3381L12.2165 27.5514C12.8824 27.934 13.1422 28.7542 12.844 29.443C12.7855 29.543 12.7268 29.6428 12.6695 29.7435C12.3888 30.1188 11.9435 30.3468 11.4677 30.3468ZM12.2822 62.5513L4.96905 66.792C4.74071 66.9245 4.48196 66.9941 4.22075 66.9941C3.68726 66.9941 3.1898 66.7082 2.92296 66.248C2.7224 65.9018 2.66843 65.4986 2.77126 65.1121C2.87392 64.7257 3.12107 64.4024 3.467 64.2019L10.7804 59.9612C11.0089 59.8286 11.2675 59.7588 11.5287 59.7588C12.0036 59.7588 12.4489 59.9866 12.7294 60.3612C12.7864 60.4602 12.8444 60.5585 12.9024 60.6567C13.2035 61.3442 12.9467 62.166 12.2822 62.5513ZM39.6457 87.358L39.6427 88.679V87.358C38.8188 87.358 38.1473 86.6878 38.1458 85.8639L38.1299 77.4099C38.1292 77.01 38.2843 76.6338 38.5666 76.3503C38.8489 76.0671 39.2245 75.9105 39.6272 75.9098C40.4511 75.9098 41.1226 76.58 41.1242 77.4039L41.14 85.8579C41.1416 86.6835 40.4712 87.3564 39.6457 87.358ZM59.5923 64.9509C54.2633 70.3001 47.17 73.2537 39.6193 73.2679H39.5648C24.0077 73.2679 11.3274 60.6108 11.298 45.0532C11.2887 40.1076 12.5415 35.3538 14.9042 31.1589C14.9583 31.0786 15.01 30.9963 15.0587 30.9118C15.1021 30.836 15.1422 30.7592 15.1803 30.682C16.3762 28.6532 17.8345 26.7607 19.5401 25.0488C24.8692 19.6994 31.9623 16.7458 39.513 16.7315H39.5675C55.1246 16.7315 67.8049 29.3886 67.8341 44.9463C67.8434 49.8919 66.5906 54.6459 64.2278 58.8407C64.1736 58.9211 64.122 59.0031 64.0733 59.0877C64.0299 59.1633 63.9898 59.2403 63.9515 59.3176C62.7558 61.3465 61.2977 63.2389 59.5923 64.9509ZM76.289 66.11C76.0225 66.5733 75.5243 66.8613 74.9886 66.8613C74.7293 66.8613 74.4723 66.7922 74.2452 66.6617L66.916 62.4485C66.5694 62.2491 66.321 61.9267 66.2167 61.5407C66.1274 61.2097 66.1538 60.8662 66.2886 60.5563C66.347 60.4567 66.4055 60.3572 66.4627 60.257C66.743 59.8813 67.1886 59.6532 67.6648 59.6532C67.9239 59.6532 68.1811 59.7223 68.408 59.8527L75.7374 64.066C76.453 64.4773 76.7005 65.3944 76.289 66.11Z" fill="white"/>
</svg>
