<svg width="658" height="994" viewBox="0 0 658 994" fill="none" xmlns="http://www.w3.org/2000/svg">
<g filter="url(#filter0_d_2_8483)">
<rect x="4" width="650" height="986" fill="url(#paint0_linear_2_8483)"/>
<path fill-rule="evenodd" clip-rule="evenodd" d="M654 350.059L330.098 326.307L329.792 326.414L329.817 326.425L650.174 384.219L636.944 433.582L331.939 327.425L624.601 465.287L599.043 509.545L329.897 326.715L329.445 326.557L329.447 326.578L329.74 326.679L329.478 326.632L329.694 326.95L578.857 537.672L542.712 573.808L330.271 327.798L512.341 595.688L468.071 621.241L329.493 327.206L329.508 327.401L436.127 633.581L386.752 646.808L329.787 331.2L353.322 652H302.204L329.225 328.35L329.012 327.737L328.993 327.71L271.248 647.632L221.873 634.405L328.705 327.617L328.706 327.607L189.929 622.065L145.659 596.512L328.671 327.236L328.509 326.998L328.021 327.33L114.463 574.632L78.318 538.496L327.947 327.38L59.782 509.545L34.223 465.287L326.885 327.425L21.8805 433.582L8.65008 384.219L328.217 326.568L328.199 326.542L327.436 326.679L328.129 326.439L328.091 326.382L327.74 326.319L4 350.059V298.953L324.12 325.665L7.8256 268.605L21.0561 219.242L326.061 325.399L33.3985 187.538L58.9575 143.279L326.36 324.926L78.318 115.153L114.463 79.0165L327.468 325.679L327.736 325.861L145.659 57.9604L189.929 32.4079L328.305 326.015L328.415 326.024L221.873 20.0678L271.248 6.84064L328.678 325.019L328.988 325.912L329.007 325.939L329.287 324.392L302.204 0H353.322L329.684 322.189L386.752 6.01637L436.127 19.2435L329.431 325.643L329.421 325.77L468.071 31.5837L512.341 57.1361L330.271 325.027L542.712 79.0165L578.857 115.153L330.815 324.926L598.218 143.279L623.777 187.538L331.115 325.399L636.119 219.242L649.35 268.605L332.347 325.794L654 298.953V350.059ZM329.593 326.32L329.791 326.284L329.674 326.276L329.547 326.298L329.593 326.32ZM329.343 326.93L329.346 326.894L329.288 326.77L329.343 326.93ZM328.712 326.879L328.707 326.864L328.706 326.865L328.712 326.879ZM329.399 325.735L329.329 325.936L329.35 325.921L329.405 325.806L329.399 325.735Z" fill="url(#paint1_radial_2_8483)"/>
</g>
<defs>
<filter id="filter0_d_2_8483" x="0" y="0" width="658" height="994" filterUnits="userSpaceOnUse" color-interpolation-filters="sRGB">
<feFlood flood-opacity="0" result="BackgroundImageFix"/>
<feColorMatrix in="SourceAlpha" type="matrix" values="0 0 0 0 0 0 0 0 0 0 0 0 0 0 0 0 0 0 127 0" result="hardAlpha"/>
<feOffset dy="4"/>
<feGaussianBlur stdDeviation="2"/>
<feComposite in2="hardAlpha" operator="out"/>
<feColorMatrix type="matrix" values="0 0 0 0 0 0 0 0 0 0 0 0 0 0 0 0 0 0 0.25 0"/>
<feBlend mode="normal" in2="BackgroundImageFix" result="effect1_dropShadow_2_8483"/>
<feBlend mode="normal" in="SourceGraphic" in2="effect1_dropShadow_2_8483" result="shape"/>
</filter>
<linearGradient id="paint0_linear_2_8483" x1="329" y1="0" x2="329" y2="986" gradientUnits="userSpaceOnUse">
<stop stop-color="#000632"/>
<stop offset="1" stop-color="#1C028F"/>
</linearGradient>
<radialGradient id="paint1_radial_2_8483" cx="0" cy="0" r="1" gradientUnits="userSpaceOnUse" gradientTransform="translate(329 326) rotate(90) scale(326 325)">
<stop stop-color="#1E4CE0" stop-opacity="0.4"/>
<stop offset="1" stop-color="#1E4CE0" stop-opacity="0"/>
</radialGradient>
</defs>
</svg>
