<svg width="225" height="100" viewBox="0 0 225 100" fill="none" xmlns="http://www.w3.org/2000/svg">
<g clip-path="url(#clip0_706_14717)">
<path d="M223.482 51.082H225V49.5732L223.482 49.5731L214.401 49.5732C214.034 47.2031 211.968 45.3821 209.483 45.3821C206.74 45.3821 204.508 47.6013 204.508 50.3276C204.508 51.3816 204.841 52.3623 205.41 53.1649L195.473 63.0434C194.168 62.1297 192.275 61.9013 190.772 62.4985L176.368 37.704C177.725 36.8197 178.623 35.2941 178.623 33.5632C178.623 30.8369 176.391 28.6177 173.648 28.6177C171.163 28.6177 169.097 30.4387 168.73 32.8088H161V34.3176H168.73C169.097 36.6876 171.163 38.5087 173.648 38.5087C174.11 38.5087 174.555 38.4458 174.978 38.3305L189.467 63.2697C188.356 64.1791 187.646 65.5538 187.646 67.092C187.646 69.8204 189.878 72.0375 192.621 72.0375C195.363 72.0375 197.596 69.8183 197.596 67.092C197.596 65.9625 197.214 64.921 196.571 64.0869L206.464 54.2546C207.301 54.8938 208.349 55.2731 209.485 55.2731C211.97 55.2731 214.036 53.452 214.403 51.082H223.482ZM192.621 63.6553C194.526 63.6553 196.078 65.1955 196.078 67.092C196.078 68.9884 194.526 70.5287 192.621 70.5287C190.715 70.5287 189.163 68.9884 189.163 67.092C189.163 65.1955 190.715 63.6553 192.621 63.6553ZM212.942 50.3276C212.942 52.2219 211.391 53.7643 209.485 53.7643C207.579 53.7643 206.028 52.2219 206.028 50.3276C206.028 48.4332 207.579 46.8909 209.485 46.8909C211.391 46.8909 212.942 48.4332 212.942 50.3276ZM173.648 30.1265C175.554 30.1265 177.105 31.6688 177.105 33.5632C177.105 35.4575 175.554 36.9999 173.648 36.9999C171.743 36.9999 170.191 35.4575 170.191 33.5632C170.191 31.6688 171.743 30.1265 173.648 30.1265Z" fill="#FF0A23"/>
<path d="M1.51779 51.082H0L7.06774e-07 49.5732L1.51779 49.5731L10.5992 49.5732C10.966 47.2031 13.0319 45.3821 15.5173 45.3821C18.2598 45.3821 20.4922 47.6013 20.4922 50.3276C20.4922 51.3816 20.1592 52.3623 19.59 53.1649L29.5273 63.0434C30.8321 62.1297 32.7252 61.9013 34.2282 62.4985L48.6324 37.704C47.2748 36.8197 46.3768 35.2941 46.3768 33.5632C46.3768 30.8369 48.6092 28.6177 51.3518 28.6177C53.8372 28.6177 55.903 30.4387 56.2698 32.8088H64V34.3176H56.2698C55.903 36.6876 53.8372 38.5087 51.3518 38.5087C50.8901 38.5087 50.4453 38.4458 50.0216 38.3305L35.5331 63.2697C36.644 64.1791 37.3544 65.5538 37.3544 67.092C37.3544 69.8204 35.122 72.0375 32.3794 72.0375C29.6369 72.0375 27.4045 69.8183 27.4045 67.092C27.4045 65.9625 27.786 64.921 28.429 64.0869L18.536 54.2546C17.6991 54.8938 16.6514 55.2731 15.5152 55.2731C13.0298 55.2731 10.9639 53.452 10.5971 51.082H1.51779ZM32.3794 63.6553C30.4738 63.6553 28.9223 65.1955 28.9223 67.092C28.9223 68.9884 30.4738 70.5287 32.3794 70.5287C34.2851 70.5287 35.8366 68.9884 35.8366 67.092C35.8366 65.1955 34.2851 63.6553 32.3794 63.6553ZM12.058 50.3276C12.058 52.2219 13.6095 53.7643 15.5152 53.7643C17.4208 53.7643 18.9723 52.2219 18.9723 50.3276C18.9723 48.4332 17.4208 46.8909 15.5152 46.8909C13.6095 46.8909 12.058 48.4332 12.058 50.3276ZM51.3518 30.1265C49.4461 30.1265 47.8946 31.6688 47.8946 33.5632C47.8946 35.4575 49.4461 36.9999 51.3518 36.9999C53.2574 36.9999 54.809 35.4575 54.809 33.5632C54.809 31.6688 53.2574 30.1265 51.3518 30.1265Z" fill="#5A49FF"/>
<mask id="mask0_706_14717" style="mask-type:luminance" maskUnits="userSpaceOnUse" x="12" y="0" width="200" height="100">
<path d="M212 0H12V100H212V0Z" fill="white"/>
</mask>
<g mask="url(#mask0_706_14717)">
<path d="M211.53 90.9872C211.506 91.2773 211.482 91.5152 211.459 91.7009H197.026C197.121 92.6174 197.401 93.4191 197.864 94.1059C198.327 94.7933 198.921 95.3147 199.646 95.6696C200.37 96.0246 201.148 96.202 201.98 96.202C202.93 96.202 203.827 95.9735 204.67 95.5163C205.513 95.0592 206.089 94.4559 206.398 93.7053L210.496 94.8306C210.045 95.7685 209.397 96.6009 208.554 97.3273C207.711 98.0542 206.719 98.6229 205.579 99.0328C204.439 99.4427 203.179 99.6482 201.802 99.6482C200.305 99.6482 198.951 99.3988 197.739 98.9009C196.528 98.4026 195.494 97.7185 194.639 96.8493C193.784 95.9801 193.124 94.9828 192.661 93.8586C192.198 92.7345 191.966 91.546 191.966 90.2944C191.966 88.5559 192.364 86.9674 193.16 85.5295C193.956 84.0921 195.096 82.9383 196.581 82.0691C198.065 81.1998 199.818 80.7647 201.837 80.7647C203.88 80.7647 205.626 81.2004 207.076 82.0707C208.524 82.9416 209.635 84.0911 210.407 85.5191C211.179 86.9471 211.565 88.4856 211.565 90.1339C211.565 90.4125 211.553 90.6971 211.53 90.9872ZM205.882 86.3235C205.442 85.6476 204.866 85.1207 204.153 84.7427C203.441 84.3647 202.645 84.1757 201.766 84.1757C200.911 84.1757 200.132 84.3647 199.432 84.7427C198.731 85.1207 198.161 85.6476 197.721 86.3235C197.282 86.9993 197.014 87.7954 196.92 88.7119H206.684C206.588 87.7954 206.321 86.9993 205.882 86.3235ZM186.515 99.6482C185.018 99.6482 183.86 99.2548 183.04 98.4669C182.221 97.6795 181.811 96.557 181.811 95.0998V73.6262H186.586V93.452C186.586 94.2993 186.729 94.8696 187.014 95.1636C187.299 95.4575 187.691 95.6042 188.19 95.6042C188.569 95.6042 188.961 95.5575 189.365 95.4636C189.769 95.3702 190.125 95.2526 190.435 95.1119L191.076 98.6987C190.435 99.0037 189.686 99.2383 188.831 99.402C187.976 99.5658 187.203 99.6482 186.515 99.6482ZM176.056 99.4548C175.403 99.5834 174.743 99.6482 174.079 99.6482C173.199 99.6482 172.392 99.4971 171.655 99.1955C170.919 98.8933 170.331 98.4114 169.892 97.7493C169.452 97.0878 169.232 96.2224 169.232 95.1542V84.668H166.773V81.046H169.232V75.068H174.007V81.046H177.927V84.668H174.007V93.5531C174.031 94.1779 174.209 94.629 174.542 94.9064C174.874 95.1845 175.29 95.3229 175.789 95.3229C176.288 95.3229 176.775 95.2411 177.25 95.0768C177.725 94.913 178.105 94.7724 178.39 94.6548L179.353 98.3823C178.948 98.5465 178.462 98.7339 177.892 98.9449C177.321 99.1559 176.709 99.3257 176.056 99.4548ZM162.444 99.4548C161.791 99.5834 161.131 99.6482 160.467 99.6482C159.587 99.6482 158.779 99.4971 158.043 99.1955C157.307 98.8933 156.719 98.4114 156.279 97.7493C155.84 97.0878 155.62 96.2224 155.62 95.1542V84.668H153.161V81.046H155.62V75.068H160.395V81.046H164.315V84.668H160.395V93.5531C160.419 94.1779 160.597 94.629 160.93 94.9064C161.262 95.1845 161.678 95.3229 162.177 95.3229C162.676 95.3229 163.163 95.2411 163.638 95.0768C164.113 94.913 164.493 94.7724 164.778 94.6548L165.741 98.3823C165.336 98.5465 164.85 98.7339 164.279 98.9449C163.709 99.1559 163.097 99.3257 162.444 99.4548ZM149.384 99.5427C148.434 99.5427 147.715 99.3317 147.228 98.9097C146.741 98.4878 146.438 97.9724 146.32 97.3625L146.213 96.413C145.405 97.4449 144.395 98.2416 143.184 98.8042C141.972 99.3669 140.737 99.6482 139.478 99.6482C138.242 99.6482 137.131 99.3988 136.146 98.9015C135.16 98.4037 134.388 97.7202 133.83 96.8515C133.271 95.9828 132.992 95.0042 132.992 93.9152C132.992 92.7339 133.331 91.6976 134.008 90.8059C134.685 89.9141 135.629 89.2251 136.841 88.7383C138.052 88.252 139.442 88.0086 141.01 88.0086C141.794 88.0086 142.59 88.0674 143.398 88.1845C144.205 88.302 144.906 88.4894 145.5 88.7471V87.7669C145.5 86.6163 145.149 85.7301 144.449 85.1081C143.748 84.4867 142.708 84.1757 141.331 84.1757C140.309 84.1757 139.335 84.3515 138.409 84.7031C137.482 85.0548 136.508 85.5707 135.487 86.2504L133.954 83.1559C135.189 82.3592 136.454 81.7614 137.749 81.3625C139.044 80.9641 140.404 80.7647 141.83 80.7647C144.49 80.7647 146.563 81.4119 148.048 82.7064C149.532 84.0009 150.275 85.8493 150.275 88.2526V94.0422C150.275 94.5279 150.364 94.8746 150.542 95.0823C150.72 95.2905 151.011 95.4174 151.415 95.4636V99.2966C150.988 99.3669 150.601 99.4251 150.257 99.4724C149.913 99.5191 149.621 99.5427 149.384 99.5427ZM145.5 91.4361C144.93 91.2075 144.312 91.0306 143.647 90.9048C142.982 90.7795 142.352 90.7163 141.758 90.7163C140.523 90.7163 139.507 90.9735 138.712 91.4878C137.915 92.002 137.518 92.6823 137.518 93.5279C137.518 93.985 137.648 94.4196 137.91 94.8306C138.171 95.2422 138.551 95.5735 139.05 95.8251C139.549 96.0768 140.143 96.202 140.832 96.202C141.545 96.202 142.245 96.0707 142.934 95.8081C143.623 95.5455 144.182 95.2196 144.609 94.8306C144.87 94.5564 145.084 94.2823 145.251 94.0081C145.416 93.7339 145.5 93.4823 145.5 93.2537V91.4361ZM130.89 92.8614C130.89 94.268 130.521 95.446 129.785 96.3954C129.049 97.3449 128.057 98.0658 126.81 98.5581C125.563 99.0504 124.202 99.2966 122.73 99.2966H110.507V74.3295H124.048C125.236 74.3295 126.263 74.6405 127.131 75.2614C127.997 75.8828 128.663 76.6801 129.126 77.6526C129.589 78.6257 129.821 79.6394 129.821 80.6943C129.821 81.89 129.512 83.0273 128.894 84.1053C128.276 85.1839 127.374 85.9812 126.186 86.4966C127.635 86.9185 128.781 87.6806 129.625 88.7823C130.468 89.8845 130.89 91.2438 130.89 92.8614ZM124.6 79.9559C124.351 79.4872 124.018 79.124 123.603 78.8658C123.187 78.6081 122.717 78.479 122.195 78.479H115.424V84.7735H121.981C122.527 84.7735 123.026 84.6449 123.478 84.3867C123.929 84.129 124.291 83.7658 124.565 83.2966C124.838 82.8279 124.975 82.2652 124.975 81.6086C124.975 80.9757 124.85 80.4251 124.6 79.9559ZM125.545 90.2416C125.283 89.7378 124.933 89.3394 124.494 89.046C124.054 88.7531 123.549 88.6064 122.979 88.6064H115.424V95.1823H122.73C123.323 95.1823 123.864 95.0361 124.351 94.7427C124.838 94.4498 125.224 94.057 125.509 93.5647C125.794 93.0724 125.937 92.5334 125.937 91.9471C125.937 91.3141 125.806 90.746 125.545 90.2416ZM102.917 99.2966L97.4647 91.4103L94.9346 93.8526V99.2966H90.1596V73.6262H94.9346V89.2465L102.453 81.046H107.514L100.565 88.7927L108.012 99.2966H102.917ZM76.2265 94.9323C76.9626 95.4037 77.7822 95.6394 78.6853 95.6394C79.2555 95.6394 79.7955 95.546 80.3067 95.3581C80.8173 95.1707 81.2744 94.913 81.6786 94.5845C82.0823 94.2564 82.3791 93.8812 82.5695 93.4592L87.2376 94.8658C86.81 95.7801 86.1864 96.6009 85.3668 97.3273C84.5472 98.0542 83.5851 98.6229 82.4804 99.0328C81.3757 99.4427 80.1341 99.6482 78.7566 99.6482C77.236 99.6482 75.8701 99.3988 74.6586 98.9004C73.447 98.402 72.4136 97.7064 71.5583 96.8141C70.7031 95.9218 70.0439 94.9075 69.5806 93.7713C69.1174 92.635 68.8857 91.4411 68.8857 90.1889C68.8857 88.4735 69.2833 86.9031 70.0795 85.4773C70.8752 84.0515 72.0093 82.9097 73.4826 82.0515C74.9553 81.1938 76.7014 80.7647 78.7209 80.7647C80.7399 80.7647 82.4743 81.1987 83.9236 82.0658C85.3724 82.9334 86.4537 84.0702 87.1664 85.4768L82.4982 86.8834C82.094 86.2037 81.5595 85.6823 80.8946 85.3185C80.2293 84.9553 79.4926 84.7735 78.6853 84.7735C77.7822 84.7735 76.957 84.9976 76.2087 85.446C75.4603 85.8944 74.8724 86.5268 74.4448 87.3432C74.0171 88.1597 73.8033 89.1086 73.8033 90.1894C73.8033 91.2476 74.0227 92.1845 74.4626 93.0009C74.9019 93.8174 75.4899 94.4608 76.2265 94.9323ZM64.2715 96.8312C63.4279 97.7125 62.4007 98.402 61.1891 98.9004C59.9775 99.3988 58.6111 99.6482 57.0911 99.6482C55.5705 99.6482 54.2047 99.3988 52.9931 98.9004C51.7815 98.402 50.7537 97.7125 49.9107 96.8312C49.0671 95.9504 48.4196 94.9422 47.9686 93.8059C47.517 92.6696 47.2915 91.4757 47.2915 90.224C47.2915 88.9493 47.517 87.7438 47.9686 86.6075C48.4196 85.4713 49.0671 84.463 49.9107 83.5817C50.7537 82.7009 51.7815 82.0114 52.9931 81.5125C54.2047 81.0141 55.5705 80.7647 57.0911 80.7647C58.6111 80.7647 59.9714 81.0141 61.1713 81.5125C62.3706 82.0114 63.3984 82.7009 64.2537 83.5817C65.1089 84.463 65.7559 85.4713 66.1958 86.6075C66.6351 87.7438 66.855 88.9493 66.855 90.224C66.855 91.4757 66.6351 92.6696 66.1958 93.8059C65.7559 94.9422 65.1145 95.9504 64.2715 96.8312ZM61.3138 87.3949C60.8739 86.5674 60.286 85.9235 59.5499 85.4636C58.8132 85.0037 57.9936 84.7735 57.0911 84.7735C56.1646 84.7735 55.3327 85.0092 54.5966 85.4806C53.86 85.952 53.2782 86.596 52.8505 87.4125C52.4229 88.229 52.2091 89.1658 52.2091 90.2235C52.2091 91.2817 52.4229 92.2185 52.8505 93.035C53.2782 93.8515 53.86 94.49 54.5966 94.9498C55.3327 95.4097 56.1646 95.6394 57.0911 95.6394C57.9936 95.6394 58.8132 95.4037 59.5499 94.9323C60.286 94.4608 60.8739 93.8174 61.3138 93.0009C61.7531 92.1845 61.973 91.2476 61.973 90.1894C61.973 89.1542 61.7531 88.2229 61.3138 87.3949ZM42.9263 99.4548C42.2726 99.5834 41.6134 99.6482 40.9485 99.6482C40.0694 99.6482 39.2615 99.4971 38.5254 99.1955C37.7887 98.8933 37.2008 98.4114 36.7615 97.7493C36.3216 97.0878 36.1022 96.2224 36.1022 95.1542V84.668H33.6434V81.046H36.1022V75.068H40.8773V81.046H44.7971V84.668H40.8773V93.5531C40.9007 94.1779 41.0788 94.629 41.4118 94.9064C41.7442 95.1845 42.1601 95.3229 42.659 95.3229C43.1579 95.3229 43.6445 95.2411 44.12 95.0768C44.595 94.913 44.9753 94.7724 45.2603 94.6548L46.2225 98.3823C45.8183 98.5465 45.3316 98.7339 44.7615 98.9449C44.1913 99.1559 43.5794 99.3257 42.9263 99.4548ZM20.8863 83.8323C21.7415 84.1125 22.8106 84.4152 24.0934 84.7416C25.756 85.1383 27.1992 85.6224 28.423 86.1938C29.6463 86.7652 30.5845 87.5119 31.2382 88.4334C31.8913 89.3548 32.2181 90.5735 32.2181 92.0894C32.2181 93.4191 31.9687 94.5564 31.4698 95.5009C30.9709 96.446 30.2816 97.2097 29.403 97.7927C28.5238 98.3762 27.526 98.802 26.4097 99.0702C25.2928 99.3378 24.1051 99.4724 22.8462 99.4724C21.5867 99.4724 20.3278 99.3433 19.0689 99.0856C17.8095 98.8279 16.5979 98.4586 15.4342 97.9779C14.2699 97.4976 13.2009 96.9174 12.2271 96.2372L14.4008 92.0526C14.6146 92.2636 14.9943 92.5394 15.5411 92.879C16.0873 93.2191 16.7527 93.5592 17.5366 93.8987C18.3206 94.2389 19.1758 94.5262 20.1023 94.7603C21.0288 94.9949 21.967 95.1119 22.9175 95.1119C24.2477 95.1119 25.2571 94.8922 25.9464 94.4515C26.6352 94.0108 26.9798 93.385 26.9798 92.5735C26.9798 91.8268 26.7065 91.2433 26.1602 90.8229C25.6135 90.4026 24.8534 90.035 23.8796 89.7196C22.9052 89.4042 21.7532 89.0603 20.423 88.6867C18.8312 88.2433 17.501 87.7471 16.432 87.1982C15.3629 86.6498 14.5667 85.9553 14.0444 85.1147C13.5216 84.2746 13.2605 83.224 13.2605 81.963C13.2605 80.2586 13.6703 78.829 14.4899 77.6735C15.3095 76.518 16.4197 75.6427 17.8217 75.0471C19.2232 74.4515 20.7794 74.1537 22.4899 74.1537C23.6775 74.1537 24.8 74.2828 25.8573 74.5405C26.9141 74.7987 27.9063 75.1383 28.8328 75.5603C29.7593 75.9823 30.5906 76.4394 31.3273 76.9317L29.1536 80.8702C28.9871 80.7064 28.6842 80.4834 28.2449 80.202C27.805 79.9207 27.2705 79.6515 26.6413 79.3933C26.0116 79.1356 25.3284 78.907 24.5923 78.7075C23.8557 78.5086 23.1073 78.4086 22.3473 78.4086C21.0166 78.4086 20.0132 78.6537 19.3362 79.1438C18.6591 79.6339 18.3206 80.3218 18.3206 81.2075C18.3206 81.8845 18.5344 82.4207 18.962 82.8174C19.3896 83.2141 20.0311 83.552 20.8863 83.8323Z" fill="url(#paint0_linear_706_14717)"/>
<path d="M52.4321 64.7253C52.4321 64.7253 56.0962 63.153 55.9956 60.2198C55.88 56.8497 50.2944 54.2801 53.4344 49.3406C55.8338 45.5661 62.1203 47.033 62.1203 47.033L62.009 50.3297C62.009 50.3297 59.4123 50.2598 59.1136 52.4176C58.9693 53.4604 59.9046 54.9817 60.8954 57.3626C61.6742 59.2344 60.6435 62.0161 58.8909 63.2967C56.1485 65.3004 52.4321 64.7253 52.4321 64.7253ZM67.6883 42.5275C67.6883 42.5275 64.5379 45.2933 64.5702 49.011C64.6117 53.8015 68.6905 57.4725 68.6905 57.4725L67.6883 65.8242L74.3698 71.3187L75.0379 73.6264L78.7128 71.7582L71.6972 64.7253C71.6972 64.7253 73.2631 63.3259 74.5925 61.0989C75.6172 59.3821 76.4856 56.7033 76.4856 56.7033C76.4856 56.7033 79.7105 54.0364 83.5012 51.7582C87.1114 49.5884 91.2963 47.8022 91.2963 47.8022C91.2963 47.8022 94.7156 50.5458 98.2005 53.956C101.383 57.0709 104.659 60.8791 104.659 60.8791L104.993 62.4176L109.114 60.7692L107.221 59.011C107.221 59.011 105.597 57.7302 104.103 55.9341C100.782 51.9437 95.9733 45.4945 95.9733 45.4945L96.7528 43.5165L102.989 41.5385L107.109 45.2747L105.216 46.7033L108.557 48.7912C108.557 48.7912 108.968 47.7808 109.225 46.4835C109.396 45.6177 109.448 44.2857 109.448 44.2857L104.214 38.2417L97.8664 38.3516L98.0891 33.956C98.0891 33.956 92.4169 34.5042 88.9577 33.6264C87.1066 33.1567 86.3965 30.989 86.3965 30.989C86.3965 30.989 89.5079 32.1931 92.1871 32.4176C95.3669 32.6839 98.2005 31.978 98.2005 31.978V29.6703C98.2005 29.6703 95.7374 28.9622 94.9711 27.4725C93.8655 25.3233 94.8597 24.1758 94.8597 24.1758C94.8597 24.1758 95.3205 26.1549 96.7528 27.4725C98.5614 29.1363 101.43 30.2198 101.43 30.2198C101.43 30.2198 102.431 31.7303 103.323 32.1978C104.213 32.6644 104.882 31.7582 104.882 31.7582C104.882 31.7582 103.733 31.1552 103.1 30C102.678 29.2283 102.321 28.022 102.321 28.022C102.321 28.022 100.096 26.8556 98.8687 24.6154C97.88 22.8104 98.3119 19.8901 98.3119 19.8901L102.989 17.8022L103.546 14.945C103.546 14.945 97.392 13.4357 92.6326 16.9231C88.0992 20.2448 84.9488 28.5714 84.9488 28.5714C84.9488 28.5714 85.4939 29.9969 86.5079 32.1978C87.1762 33.6487 88.5006 35.3738 88.4009 37.4725C88.1507 42.7399 84.392 49.3406 84.392 49.3406L79.715 49.4505C79.715 49.4505 79.7526 51.8733 78.156 51.8681C77.2827 51.8653 76.4856 50.2198 76.4856 50.2198C76.4856 50.2198 76.0984 52.2863 75.2606 53.2967C74.6226 54.0663 73.3675 54.2857 73.3675 54.2857C73.3675 54.2857 73.5553 51.8927 72.588 49.8901C71.8032 48.2652 70.0011 47.3046 69.0246 45.9341C67.9228 44.3876 67.6883 42.5275 67.6883 42.5275ZM78.156 57.4725L83.5012 53.6264C83.5012 53.6264 83.8453 55.0686 83.5012 56.9231C83.123 58.961 81.7194 61.3187 81.7194 61.3187C81.7194 61.3187 82.1709 62.0095 83.7239 62.8571C85.1241 63.6214 87.5712 64.5044 88.735 65.2747C90.815 66.6514 90.8508 67.3626 90.8508 67.3626L87.2874 69.011L86.9533 67.033L78.2673 63.5165L78.156 57.4725ZM111.007 16.1538C111.007 16.1538 108.726 16.6096 105.884 17.6923C103.103 18.7522 99.7595 20.4396 99.7595 20.4396L99.6482 24.2857C99.6482 24.2857 100.632 24.7354 101.653 25.9341C103.121 27.6593 104.865 30.3297 105.55 30.3297C106.711 30.3297 104.325 25.4945 104.325 25.4945C104.325 25.4945 104.63 24.9126 104.659 23.7363C104.686 22.6648 104.437 20.989 104.437 20.989C104.437 20.989 107.188 19.2194 109.114 17.8022C109.916 17.2115 111.007 16.1538 111.007 16.1538ZM101.597 22.3542C101.884 22.1785 102.367 22.4334 102.674 22.9235C102.982 23.4137 102.998 23.9535 102.711 24.1292C102.423 24.305 101.941 24.0501 101.633 23.56C101.325 23.0698 101.309 22.53 101.597 22.3542Z" fill="url(#paint1_linear_706_14717)"/>
<path d="M71.1403 19.1208C71.1403 19.1208 71.6036 19.3579 72.588 19.4505C73.8957 19.5733 75.8174 19.5604 75.8174 19.5604C75.8174 19.5604 75.7129 21.0786 75.0379 22.1977C74.3222 23.3843 73.0334 24.1757 73.0334 24.1757C73.0334 24.1757 73.1342 24.5996 73.4788 24.8351C73.8565 25.0931 74.4811 25.1648 74.4811 25.1648L78.8241 20.2197L79.1581 13.5164L77.4878 16.4834L76.5969 16.0439L77.5991 13.4065C77.5991 13.4065 65.2922 7.10981 59.3363 3.5164C57.4587 2.38354 56.2183 0.769147 56.2183 0.769147C56.2183 0.769147 57.8992 0.619806 60.3385 1.75816C62.5733 2.80102 65.0974 4.25695 67.9109 5.7142C73.3049 8.50794 78.9354 11.4285 78.9354 11.4285L80.2717 9.01091L81.1626 9.45047L79.8263 12.3076L80.2619 12.5871C80.2619 12.5871 81.1205 12.1048 81.608 12.4175C82.0304 12.6884 82.1897 13.0761 82.6103 13.5164C83.3617 14.3031 84.392 15.2746 84.392 15.2746L83.9466 15.934L82.2762 15.1648L81.7194 21.5384L78.9354 25.3845L82.7216 23.4065L88.5122 35.3845C88.5122 35.3845 89.876 36.9513 88.9577 40.5494C87.9845 44.3627 84.7261 50.2197 84.7261 50.2197C84.7261 50.2197 79.2695 49.9513 75.2606 48.5713C72.2234 47.5258 70.3608 45.2746 70.3608 45.2746L64.1247 32.5274L68.245 30.4395C68.2129 30.4622 67.6229 29.3818 68.2209 27.9267C69.1866 25.5768 68.8018 23.8461 68.8018 23.8461C68.8018 23.8461 64.6398 21.8441 66.1292 18.3516C68.0336 13.886 73.2561 16.7032 73.2561 16.7032M65.5724 33.0768L71.2517 44.5054C71.2517 44.5054 72.7551 46.5695 75.2606 47.4724C78.9306 48.7951 84.0579 49.1208 84.0579 49.1208C84.0579 49.1208 86.8374 44.4297 87.8441 41.0988C88.7216 38.1953 87.8441 36.4834 87.8441 36.4834L82.2762 24.945C82.2762 24.945 80.1333 26.199 77.8218 26.5933C75.6263 26.9678 72.922 26.7032 72.922 26.7032C72.922 26.7032 71.7811 28.4919 69.9154 30.1098C68.1071 31.6779 65.5724 33.0768 65.5724 33.0768ZM57.3318 23.956C57.3318 23.956 57.9209 27.2755 61.7862 26.7032C65.1737 26.2016 63.8949 21.7184 64.0134 20.5494C64.1318 19.3804 65.1183 20.3565 65.6837 17.2527C65.8504 16.3375 65.5724 16.0439 65.5724 16.0439C65.5724 16.0439 61 15.1975 60.3385 19.89C60.1827 20.9953 60.8591 23.2159 60.3385 23.8461C59.4801 24.8854 57.3318 23.956 57.3318 23.956Z" fill="url(#paint2_linear_706_14717)"/>
<path d="M172.476 64.7253C172.476 64.7253 168.812 63.153 168.913 60.2198C169.029 56.8497 174.614 54.2801 171.474 49.3406C169.075 45.5661 162.788 47.033 162.788 47.033L162.9 50.3297C162.9 50.3297 165.496 50.2598 165.795 52.4176C165.939 53.4604 165.004 54.9817 164.013 57.3626C163.234 59.2344 164.265 62.0161 166.018 63.2967C168.76 65.3004 172.476 64.7253 172.476 64.7253ZM157.22 42.5275C157.22 42.5275 160.371 45.2933 160.338 49.011C160.297 53.8015 156.218 57.4725 156.218 57.4725L157.22 65.8242L150.539 71.3187L149.871 73.6264L146.196 71.7582L153.211 64.7253C153.211 64.7253 151.646 63.3259 150.316 61.0989C149.291 59.3821 148.423 56.7033 148.423 56.7033C148.423 56.7033 145.198 54.0364 141.407 51.7582C137.797 49.5885 133.612 47.8022 133.612 47.8022C133.612 47.8022 130.193 50.5458 126.708 53.956C123.525 57.0709 120.249 60.8791 120.249 60.8791L119.915 62.4176L115.795 60.7692L117.688 59.011C117.688 59.011 119.312 57.7302 120.806 55.9341C124.126 51.9437 128.935 45.4945 128.935 45.4945L128.156 43.5165L121.92 41.5385L117.799 45.2747L119.693 46.7033L116.352 48.7912C116.352 48.7912 115.94 47.7808 115.684 46.4835C115.512 45.6177 115.461 44.2857 115.461 44.2857L120.695 38.2417L127.042 38.3516L126.819 33.956C126.819 33.956 132.492 34.5042 135.951 33.6264C137.802 33.1567 138.512 30.989 138.512 30.989C138.512 30.989 135.401 32.1931 132.721 32.4176C129.542 32.6839 126.708 31.978 126.708 31.978V29.6703C126.708 29.6703 129.171 28.9622 129.937 27.4725C131.043 25.3233 130.049 24.1758 130.049 24.1758C130.049 24.1758 129.588 26.1549 128.156 27.4725C126.347 29.1363 123.479 30.2198 123.479 30.2198C123.479 30.2198 122.477 31.7303 121.586 32.1978C120.696 32.6644 120.027 31.7582 120.027 31.7582C120.027 31.7582 121.176 31.1552 121.808 30C122.231 29.2283 122.588 28.022 122.588 28.022C122.588 28.022 124.813 26.8556 126.04 24.6154C127.029 22.8104 126.597 19.8901 126.597 19.8901L121.92 17.8022L121.363 14.945C121.363 14.945 127.517 13.4357 132.276 16.9231C136.809 20.2448 139.96 28.5714 139.96 28.5714C139.96 28.5714 139.415 29.9969 138.401 32.1978C137.732 33.6487 136.408 35.3738 136.508 37.4725C136.758 42.7399 140.517 49.3406 140.517 49.3406L145.194 49.4505C145.194 49.4505 145.156 51.8733 146.753 51.8681C147.626 51.8653 148.423 50.2198 148.423 50.2198C148.423 50.2198 148.81 52.2863 149.648 53.2967C150.286 54.0663 151.541 54.2857 151.541 54.2857C151.541 54.2857 151.353 51.8927 152.321 49.8901C153.105 48.2652 154.908 47.3046 155.884 45.9341C156.986 44.3876 157.22 42.5275 157.22 42.5275ZM146.753 57.4725L141.407 53.6264C141.407 53.6264 141.063 55.0686 141.407 56.9231C141.786 58.961 143.189 61.3187 143.189 61.3187C143.189 61.3187 142.738 62.0095 141.185 62.8571C139.784 63.6214 137.337 64.5044 136.174 65.2747C134.094 66.6514 134.058 67.3626 134.058 67.3626L137.621 69.011L137.955 67.033L146.641 63.5165L146.753 57.4725ZM113.902 16.1538C113.902 16.1538 116.183 16.6096 119.024 17.6923C121.806 18.7522 125.149 20.4396 125.149 20.4396L125.26 24.2857C125.26 24.2857 124.276 24.7354 123.256 25.9341C121.787 27.6593 120.044 30.3297 119.358 30.3297C118.197 30.3297 120.583 25.4945 120.583 25.4945C120.583 25.4945 120.278 24.9126 120.249 23.7363C120.223 22.6648 120.472 20.989 120.472 20.989C120.472 20.989 117.721 19.2194 115.795 17.8022C114.992 17.2115 113.902 16.1538 113.902 16.1538ZM123.312 22.3542C123.024 22.1785 122.542 22.4334 122.234 22.9235C121.927 23.4137 121.91 23.9535 122.198 24.1292C122.485 24.305 122.968 24.0501 123.276 23.56C123.583 23.0698 123.599 22.53 123.312 22.3542Z" fill="url(#paint3_linear_706_14717)"/>
<path d="M153.768 19.1208C153.768 19.1208 153.305 19.3579 152.321 19.4505C151.013 19.5733 149.091 19.5604 149.091 19.5604C149.091 19.5604 149.196 21.0786 149.871 22.1977C150.587 23.3843 151.875 24.1757 151.875 24.1757C151.875 24.1757 151.775 24.5996 151.43 24.8351C151.052 25.0931 150.428 25.1648 150.428 25.1648L146.085 20.2197L145.751 13.5164L147.421 16.4834L148.312 16.0439L147.31 13.4065C147.31 13.4065 159.617 7.10981 165.572 3.5164C167.45 2.38354 168.691 0.769147 168.691 0.769147C168.691 0.769147 167.01 0.619806 164.57 1.75816C162.336 2.80102 159.811 4.25695 156.998 5.7142C151.604 8.50794 145.973 11.4285 145.973 11.4285L144.637 9.01091L143.746 9.45047L145.083 12.3076L144.647 12.5871C144.647 12.5871 143.788 12.1048 143.301 12.4175C142.878 12.6884 142.719 13.0761 142.299 13.5164C141.547 14.3031 140.517 15.2746 140.517 15.2746L140.962 15.934L142.633 15.1648L143.189 21.5384L145.973 25.3845L142.187 23.4065L136.397 35.3845C136.397 35.3845 135.033 36.9513 135.951 40.5494C136.924 44.3627 140.183 50.2197 140.183 50.2197C140.183 50.2197 145.639 49.9513 149.648 48.5713C152.685 47.5258 154.548 45.2746 154.548 45.2746L160.784 32.5274L156.664 30.4395C156.696 30.4622 157.286 29.3818 156.688 27.9267C155.722 25.5768 156.107 23.8461 156.107 23.8461C156.107 23.8461 160.269 21.8441 158.78 18.3516C156.875 13.886 151.653 16.7032 151.653 16.7032M159.336 33.0768L153.657 44.5054C153.657 44.5054 152.154 46.5695 149.648 47.4724C145.978 48.7951 140.851 49.1208 140.851 49.1208C140.851 49.1208 138.071 44.4297 137.065 41.0988C136.187 38.1953 137.065 36.4834 137.065 36.4834L142.633 24.945C142.633 24.945 144.775 26.199 147.087 26.5933C149.283 26.9678 151.987 26.7032 151.987 26.7032C151.987 26.7032 153.128 28.4919 154.993 30.1098C156.802 31.6779 159.336 33.0768 159.336 33.0768ZM167.577 23.956C167.577 23.956 166.988 27.2755 163.123 26.7032C159.735 26.2016 161.014 21.7184 160.895 20.5494C160.777 19.3804 159.791 20.3565 159.225 17.2527C159.058 16.3375 159.336 16.0439 159.336 16.0439C159.336 16.0439 163.909 15.1975 164.57 19.89C164.726 20.9953 164.05 23.2159 164.57 23.8461C165.429 24.8854 167.577 23.956 167.577 23.956Z" fill="url(#paint4_linear_706_14717)"/>
<path d="M73.3074 34.4419L78.5413 31.8045C78.5413 31.8045 77.7702 30.3322 78.3185 29.4968C78.8841 28.6352 80.5566 28.1961 81.2139 28.6177C83.1337 29.8491 85.0001 35.8705 85.0001 35.8705C85.0001 35.8705 86.7778 41.7685 81.9934 44.0023C76.5115 46.5618 74.4996 43.4131 73.1961 42.2441C71.8925 41.0751 69.6326 36.4199 69.6326 36.4199C69.6326 36.4199 68.4989 34.4985 69.9667 33.4529C72.2061 31.8574 73.0597 34.1208 73.3074 34.4419ZM75.7573 38.6177C76.1721 37.4487 79.6048 36.0388 80.4344 35.9803C81.2639 35.9219 85.0242 39.5678 80.9912 41.9144C76.6822 44.4216 75.5021 39.337 75.7573 38.6177ZM77.205 39.277C77.205 39.277 77.8837 40.7123 79.6549 39.9364C80.981 39.3554 80.2116 37.6287 80.2116 37.6287C80.2116 37.6287 79.9681 37.3584 79.6549 37.5188C78.8672 37.9221 77.966 38.3097 77.4277 38.7276C77.1405 38.9506 77.205 39.277 77.205 39.277Z" fill="#8174FF"/>
<path d="M142.261 28.6769C142.261 28.6769 140.829 27.8455 140.034 32.4132C139.738 34.1101 141.481 36.0395 141.481 36.0395C141.481 36.0395 141.252 43.6538 141.37 44.2813C141.488 44.9088 143.407 45.8493 144.043 45.7099C144.678 45.5704 150.836 40.6549 150.836 40.6549C150.836 40.6549 153.276 41.1278 154.51 39.7758C157.695 36.2873 156.562 35.6566 156.292 35.7099C156.022 35.7632 155.145 36.4502 154.176 36.8088C153.381 37.1032 152.84 36.9187 152.84 36.9187C152.84 36.9187 150.349 35.4418 147.94 34.1714C145.573 32.9231 143.179 31.9936 142.929 31.6439C142.424 30.9383 142.261 28.6769 142.261 28.6769ZM142.706 40.7648C142.406 40.9626 142.413 43.2225 142.484 43.5121C142.634 44.1302 143.692 44.4406 144.043 44.3912C144.393 44.3417 146.145 43.0533 146.27 42.6329C146.395 42.2126 143.007 40.567 142.706 40.7648Z" fill="#E4162B"/>
</g>
</g>
<defs>
<linearGradient id="paint0_linear_706_14717" x1="-8.00012" y1="74.011" x2="18.9322" y2="13.2985" gradientUnits="userSpaceOnUse">
<stop offset="0.022699" stop-color="#FDD662"/>
<stop offset="0.512112" stop-color="#FCF6BC"/>
<stop offset="0.998643" stop-color="#FDD662"/>
</linearGradient>
<linearGradient id="paint1_linear_706_14717" x1="65.5001" y1="74.0109" x2="105.756" y2="5.57811" gradientUnits="userSpaceOnUse">
<stop stop-color="#F7CD78"/>
<stop offset="1" stop-color="#FFEA96"/>
</linearGradient>
<linearGradient id="paint2_linear_706_14717" x1="72.7469" y1="0.762695" x2="72.7469" y2="50.2197" gradientUnits="userSpaceOnUse">
<stop stop-color="#FFEA96"/>
<stop offset="1" stop-color="#F4C984"/>
</linearGradient>
<linearGradient id="paint3_linear_706_14717" x1="172" y1="74.0109" x2="121.013" y2="2.02793" gradientUnits="userSpaceOnUse">
<stop stop-color="#F7CD78"/>
<stop offset="1" stop-color="#FFEA96"/>
</linearGradient>
<linearGradient id="paint4_linear_706_14717" x1="152" y1="50.3274" x2="166.105" y2="5.41643" gradientUnits="userSpaceOnUse">
<stop stop-color="#F4C984"/>
<stop offset="1" stop-color="#FFEA96"/>
</linearGradient>
<clipPath id="clip0_706_14717">
<rect width="225" height="100" fill="white"/>
</clipPath>
</defs>
</svg>
