<svg width="20" height="20" viewBox="0 0 20 20" fill="none" xmlns="http://www.w3.org/2000/svg">
<path d="M10.0742 6.13672C7.7874 6.13672 6.28159 7.43152 5.93354 10.2774C5.72114 12.0141 5.1102 14.8547 4.85509 16.0053C4.79112 16.2939 4.95519 16.5846 5.23562 16.6781L7.72544 17.5086C7.89542 17.5653 8.08209 17.5399 8.23077 17.4398C8.37945 17.3398 8.47322 17.1764 8.4847 16.9975L8.70347 13.583C8.71855 13.3479 8.58932 13.1272 8.37693 13.0253L6.73561 12.2376C6.52003 12.1341 6.42914 11.8755 6.53264 11.6599L6.92336 10.8457C6.97302 10.7422 7.0618 10.6627 7.17013 10.6246C7.27847 10.5865 7.3975 10.5931 7.501 10.6428L9.15683 11.4375C9.35713 11.5336 9.4845 11.7361 9.4845 11.9583V14.1093C9.4845 14.1525 9.49799 14.1947 9.5231 14.2298L9.90548 14.7651C9.94439 14.8196 10.0072 14.8519 10.0742 14.8519C10.1411 14.8519 10.2039 14.8196 10.2429 14.7651L10.6253 14.2298C10.6504 14.1947 10.6639 14.1525 10.6639 14.1093V11.9582C10.6639 11.736 10.7913 11.5336 10.9916 11.4374L12.6474 10.6427C12.7509 10.5931 12.87 10.5865 12.9783 10.6245C13.0866 10.6626 13.1754 10.7421 13.2251 10.8457L13.6158 11.6599C13.7193 11.8755 13.6284 12.1341 13.4129 12.2375L11.7715 13.0252C11.5591 13.1272 11.43 13.3479 11.445 13.5829L11.6638 16.9975C11.6753 17.1763 11.769 17.3397 11.9177 17.4398C12.0663 17.5398 12.253 17.5652 12.423 17.5085L14.9128 16.6781C15.1938 16.5844 15.3575 16.2944 15.2934 16.0053C15.0383 14.8546 14.4273 12.0141 14.2149 10.2774C13.8669 7.43152 12.3611 6.13672 10.0742 6.13672Z" fill="#960E89"/>
<path d="M15.7606 4.4005C13.7932 2.55215 11.1379 1.8443 8.64361 2.27686C8.59471 2.28535 8.56003 2.32894 8.56296 2.3785L8.60799 3.14204C8.60851 3.15068 8.60249 3.1584 8.59394 3.15995C8.5854 3.16154 8.57706 3.1565 8.57444 3.14821L8.34228 2.41036C8.32802 2.36502 8.28304 2.33666 8.23595 2.3432C7.96036 2.38139 7.77668 2.41041 7.50088 2.53326C7.46048 2.55127 7.43732 2.5943 7.44443 2.63794L7.65384 3.92389C7.65723 3.94468 7.64704 3.96532 7.62846 3.97525C7.60988 3.98518 7.58709 3.98225 7.57165 3.96789L6.53849 3.00761C6.509 2.98018 6.46562 2.97375 6.42944 2.9914C5.69828 3.34753 5.00891 3.81725 4.38804 4.4005C4.33781 4.4477 4.30878 4.51321 4.30765 4.58217C4.30657 4.65114 4.33343 4.71753 4.38222 4.76631L6.13413 6.51823C6.23037 6.61447 6.38533 6.61781 6.48584 6.52605C8.51263 4.67455 11.636 4.67455 13.6628 6.52605C13.7634 6.61796 13.9182 6.61462 14.0145 6.51823L15.7664 4.76631C15.8152 4.71758 15.842 4.65109 15.8409 4.58217C15.8398 4.51321 15.8108 4.4477 15.7606 4.4005Z" fill="#960E89"/>
<circle cx="10" cy="10" r="9.5" stroke="#960E89"/>
</svg>
