<svg width="15" height="15" viewBox="0 0 15 15" fill="none" xmlns="http://www.w3.org/2000/svg">
<g clip-path="url(#clip0_502_1423)">
<path d="M0.00350342 0.0550795C0.00701904 0.0867205 0.0691284 0.678516 0.141785 1.37109L0.275378 2.62969L3.00233 5.23711C4.5035 6.67148 5.73046 7.84805 5.73046 7.85156C5.73046 7.85977 4.33944 9.41367 4.32069 9.42656C4.30897 9.43359 4.12733 9.30352 3.68202 8.96602C3.33983 8.7082 3.05389 8.49609 3.04803 8.49609C3.03632 8.49609 2.18202 9.46055 2.17264 9.48516C2.16913 9.49453 2.42225 9.61992 2.92968 9.86133C3.34803 10.0594 3.69139 10.2258 3.69139 10.2293C3.69139 10.2328 3.67147 10.2586 3.64686 10.2844C3.61522 10.3172 3.58124 10.3395 3.53788 10.3535C3.49686 10.3664 3.44764 10.398 3.39843 10.4391C3.35624 10.4754 3.32108 10.5047 3.31991 10.5059C3.31874 10.5059 3.3246 10.534 3.3328 10.568L3.34921 10.6289L3.25663 10.732C3.16639 10.834 3.16288 10.8363 3.09139 10.8516C3.02343 10.8656 3.01171 10.8727 2.94608 10.9406L2.87343 11.0133L2.88514 11.073L2.89569 11.1316L2.8078 11.243L2.71991 11.3531L2.63553 11.3637L2.55116 11.373L2.48202 11.4516L2.41171 11.5301L2.43046 11.5922L2.44921 11.6543L2.35897 11.7422C2.27225 11.8266 2.26288 11.8312 2.1785 11.8512C2.09764 11.8699 2.08358 11.8781 2.02733 11.9355L1.96522 11.9988L1.9828 12.0621L2.00155 12.1266L1.93241 12.2145L1.86327 12.3035L1.78241 12.3117C1.70507 12.3187 1.69921 12.3211 1.62538 12.3879C1.58319 12.4266 1.54569 12.457 1.54218 12.457C1.53866 12.457 1.32772 12.2988 1.07343 12.1055C0.817957 11.9121 0.605847 11.7539 0.60116 11.7539C0.588269 11.7551 0.00584717 12.6328 0.00584717 12.6516C0.00584717 12.6598 0.16405 12.7816 0.35741 12.9211C0.550769 13.0617 0.711316 13.1777 0.71366 13.1801C0.717175 13.1824 0.663269 13.2984 0.596472 13.4391L0.473425 13.6934L1.23983 14.2477L2.00624 14.8008L2.25702 14.6484C2.39413 14.5652 2.51132 14.4961 2.51718 14.4961C2.52303 14.4961 2.68475 14.6098 2.87694 14.7492C3.06796 14.8875 3.22968 15 3.23436 14.9977C3.25077 14.9918 4.03007 14.3625 4.03124 14.3543C4.03124 14.3508 3.83671 14.2008 3.59882 14.0203C3.27889 13.7777 3.17343 13.6922 3.19218 13.6898C3.20507 13.6875 3.2496 13.6535 3.29061 13.6137C3.35858 13.5469 3.36327 13.5375 3.36327 13.4883C3.36444 13.4379 3.3703 13.4285 3.47108 13.3148L3.57889 13.1953H3.6621H3.7453L3.79921 13.1227C3.83788 13.0676 3.85428 13.0336 3.86014 12.9902C3.86718 12.9375 3.87538 12.9234 3.95624 12.8426L4.0453 12.7535L4.13905 12.7465C4.23046 12.7395 4.23397 12.7383 4.30194 12.6785L4.37225 12.6176L4.36405 12.5402L4.35702 12.4629L4.43671 12.3914C4.53397 12.3059 4.54452 12.3 4.63475 12.2812C4.69452 12.2684 4.71444 12.2566 4.77303 12.2004L4.84218 12.1348L4.83514 12.0691L4.82928 12.0035L4.94061 11.9051C5.04374 11.8137 5.05663 11.8055 5.13397 11.7879C5.2078 11.7703 5.22421 11.7609 5.28046 11.7059C5.34022 11.6461 5.34374 11.6402 5.34374 11.584C5.34374 11.5348 5.3496 11.5184 5.37421 11.4961L5.4035 11.468L5.56991 11.6367C5.66249 11.7305 5.89921 11.973 6.09608 12.1758L6.45467 12.5438L6.91522 12.0891C7.16952 11.8395 7.37694 11.6297 7.37694 11.6227C7.37694 11.6168 7.11092 11.4281 6.78514 11.2031C6.45936 10.9793 6.19335 10.7941 6.19335 10.7918C6.19335 10.7836 7.49178 9.54492 7.49999 9.54492C7.51053 9.54492 8.79374 10.7719 8.79842 10.7871C8.80077 10.7941 8.5371 10.9816 8.21249 11.2055C7.88788 11.4281 7.62303 11.6168 7.62303 11.6227C7.62303 11.6297 7.83046 11.8395 8.08475 12.0891L8.5453 12.5438L8.90389 12.1758C9.10077 11.973 9.33749 11.7305 9.43007 11.6367L9.59647 11.468L9.62577 11.4961C9.65038 11.5184 9.65624 11.5348 9.65624 11.584C9.65624 11.6402 9.65975 11.6461 9.71952 11.7059C9.77577 11.7609 9.79217 11.7703 9.866 11.7879C9.94335 11.8055 9.95624 11.8137 10.0594 11.9051L10.1707 12.0035L10.1648 12.0691L10.1578 12.1348L10.2269 12.2004C10.2855 12.2566 10.3055 12.2684 10.3652 12.2812C10.4555 12.3 10.466 12.3059 10.5633 12.3914L10.643 12.4629L10.6359 12.5402L10.6277 12.6176L10.698 12.6785C10.766 12.7383 10.7695 12.7395 10.8609 12.7465L10.9547 12.7535L11.0437 12.8426C11.1246 12.9234 11.1328 12.9375 11.1398 12.9902C11.1457 13.0336 11.1621 13.0676 11.2008 13.1215L11.2547 13.1953H11.3379H11.4211L11.5289 13.3148C11.6297 13.4285 11.6355 13.4379 11.6367 13.4883C11.6367 13.5375 11.6414 13.5469 11.7105 13.6137C11.7504 13.6535 11.7949 13.6875 11.8078 13.6898C11.8265 13.6922 11.7211 13.7777 11.4012 14.0203C11.1633 14.2008 10.9687 14.3508 10.9687 14.3543C10.9699 14.3625 11.7492 14.9918 11.7656 14.9977C11.7703 15 11.932 14.8875 12.123 14.7492C12.3152 14.6098 12.4769 14.4961 12.4828 14.4961C12.4887 14.4961 12.6058 14.5652 12.743 14.6484L12.9937 14.8008L13.7601 14.2477L14.5265 13.6934L14.4035 13.4391C14.3367 13.2984 14.2828 13.1824 14.2863 13.1801C14.2887 13.1777 14.4492 13.0617 14.6426 12.9211C14.8359 12.7816 14.9941 12.6598 14.9941 12.6516C14.9941 12.6328 14.4117 11.7551 14.3988 11.7539C14.3941 11.7539 14.182 11.9121 13.9265 12.1055C13.6723 12.2988 13.4613 12.457 13.4578 12.457C13.4543 12.457 13.4168 12.4266 13.3746 12.3879C13.3008 12.3211 13.2949 12.3187 13.2176 12.3117L13.1367 12.3035L13.0676 12.2145L12.9984 12.1266L13.0172 12.0621L13.0348 11.9988L12.9726 11.9355C12.9164 11.8781 12.9023 11.8699 12.8215 11.8512C12.7371 11.8312 12.7277 11.8266 12.641 11.7422L12.5508 11.6543L12.5695 11.5922L12.5883 11.5301L12.518 11.4516L12.4488 11.373L12.3644 11.3637L12.2801 11.3531L12.1922 11.243L12.1043 11.1316L12.1148 11.073L12.1265 11.0133L12.0539 10.9406C11.9883 10.8727 11.9765 10.8656 11.9086 10.8516C11.8371 10.8363 11.8336 10.834 11.7433 10.732L11.6508 10.6289L11.6672 10.568C11.6754 10.534 11.6812 10.5059 11.6801 10.5059C11.6789 10.5047 11.6437 10.4754 11.6015 10.4391C11.5523 10.398 11.5031 10.3664 11.4621 10.3535C11.4187 10.3395 11.3848 10.3172 11.3531 10.2844C11.3285 10.2586 11.3086 10.2328 11.3086 10.2293C11.3086 10.2258 11.6519 10.0594 12.0703 9.86133C12.5777 9.61992 12.8308 9.49453 12.8273 9.48516C12.818 9.46055 11.9637 8.49609 11.9519 8.49609C11.9461 8.49609 11.6601 8.7082 11.318 8.96602C10.8726 9.30352 10.691 9.43359 10.6793 9.42656C10.6605 9.41367 9.26952 7.85977 9.26952 7.85156C9.26952 7.84805 10.4965 6.67148 11.9976 5.23828L14.7246 2.62969L14.8629 1.31953C14.939 0.598829 14.9988 0.00586033 14.9953 0.00234509C14.9918 -0.00117016 14.3051 0.201564 13.4707 0.452345L11.9531 0.907032L10.3793 2.66602C9.51327 3.63281 8.51366 4.74961 8.15741 5.14688C7.79999 5.54531 7.50467 5.87109 7.49999 5.87109C7.4953 5.87109 7.19999 5.54531 6.84257 5.14688C6.48632 4.74961 5.48671 3.63281 4.62069 2.66602L3.04686 0.907032L1.5328 0.453517C0.699597 0.203908 0.0128784 -0.00117016 0.00701904 9.53674e-07C0.00115967 9.53674e-07 -1.2207e-05 0.0246105 0.00350342 0.0550795Z" fill="#960E89"/>
</g>
<defs>
<clipPath id="clip0_502_1423">
<rect width="15" height="15" fill="white"/>
</clipPath>
</defs>
</svg>
