<svg width="20" height="20" viewBox="0 0 20 20" fill="none" xmlns="http://www.w3.org/2000/svg">
<path d="M10.5548 13.516L11.0342 13.4963C11.4717 13.4783 11.8861 13.2949 12.1937 12.9833C12.4997 12.6734 12.6774 12.2593 12.6914 11.8243C12.6899 11.4247 12.5568 11.1149 12.3123 10.8506C12.0545 10.572 11.6558 10.3271 11.106 10.115L11.1001 10.1127L11.1001 10.1126L10.8689 10.0201L10.5548 9.89427V9.55588V7.4747V6.75295L11.2305 7.00659C11.6414 7.16084 12.0032 7.42226 12.279 7.7631C12.2861 7.77065 12.2945 7.77666 12.3036 7.78092L12.3043 7.78124C12.3137 7.78567 12.324 7.78823 12.3346 7.78871C12.3457 7.78837 12.3569 7.78596 12.3674 7.78151L12.5621 8.24195L12.3672 7.7816C12.3781 7.77696 12.3887 7.76985 12.3977 7.76058L12.7564 8.10884M10.5548 13.516L8.18258 12.2072L8.1831 12.207C8.19438 12.2027 8.20661 12.2008 8.2191 12.2014L8.23238 12.202L8.24568 12.2019C8.25097 12.2019 8.25629 12.203 8.26126 12.2053L8.26149 12.2055C8.26528 12.2072 8.26862 12.2095 8.27145 12.2123C8.62519 12.6696 9.103 13.0155 9.64799 13.209L10.3153 13.4459V12.7378V10.3885V10.0496L10.0004 9.92407C8.86964 9.47347 8.46912 8.9 8.46531 8.261C8.4815 7.88333 8.63091 7.52349 8.88723 7.24538C9.14561 6.96504 9.49571 6.78622 9.8744 6.74113L10.3153 6.68863V6.24463V5.21781C10.3153 5.1858 10.328 5.15535 10.3502 5.1331L10.3504 5.13296C10.3725 5.11085 10.4028 5.09814 10.4349 5.09814C10.467 5.09814 10.4974 5.11083 10.5197 5.1331C10.5422 5.15565 10.5548 5.18623 10.5548 5.21781V6.23537V6.66422L10.9786 6.72954C11.2579 6.77258 11.5255 6.8714 11.7654 7.02022C12.0054 7.16913 12.213 7.36503 12.3756 7.59601L12.3811 7.60382L12.3868 7.61141C12.4068 7.63763 12.4194 7.66866 12.4233 7.7014C12.4228 7.71134 12.4208 7.72098 12.4173 7.72987C12.4129 7.74128 12.4062 7.75178 12.3974 7.76087L12.7564 8.10884M10.5548 13.516V13.9959M10.5548 13.516V13.9959M12.7564 8.10884C12.8117 8.05187 12.8549 7.98453 12.8835 7.91053L12.0919 8.2339C12.1669 8.26905 12.2484 8.28774 12.3311 8.28875C12.4105 8.28885 12.489 8.27294 12.5621 8.24204C12.6351 8.21115 12.7012 8.16573 12.7564 8.10884ZM10.5548 13.9959V15.0134C10.5548 15.0449 10.5422 15.0753 10.5196 15.098L10.8732 15.4515M10.5548 13.9959L10.8732 15.4515M10.8732 15.4515L10.5196 15.098C10.4971 15.1205 10.4666 15.1331 10.4349 15.1331C10.4032 15.1331 10.3728 15.1205 10.3505 15.0981L10.3502 15.0978M10.8732 15.4515L10.3502 15.0978M10.3502 15.0978C10.3279 15.0755 10.3153 15.0453 10.3153 15.0134V13.968V13.5437M10.3502 15.0978L10.3153 13.5437M10.3153 13.5437L9.8966 13.4747M10.3153 13.5437L9.8966 13.4747M9.8966 13.4747C9.55266 13.418 9.22362 13.2926 8.92904 13.106C8.63452 12.9194 8.38055 12.6755 8.18228 12.3888L8.16289 12.3607M9.8966 13.4747L8.16289 12.3607M8.16289 12.3607L8.13987 12.3356M8.16289 12.3607L8.13987 12.3356M8.13987 12.3356C8.12926 12.324 8.1232 12.3087 8.12305 12.2927L8.13987 12.3356ZM10.3153 6.80781V7.52099V8.67162V8.99183V9.01958H9.81528H9.8025L9.60613 9.44598C9.38017 9.34192 9.18698 9.1779 9.04769 8.97153L10.3153 6.80781ZM10.3153 6.80781L9.64483 7.05095M10.3153 6.80781L9.64483 7.05095M9.64483 7.05095C9.39702 7.14081 9.18369 7.30628 9.03497 7.5239L9.03493 7.52397M9.64483 7.05095L9.03493 7.52397M9.03493 7.52397C8.88632 7.74151 8.80979 8.00019 8.81593 8.26341L8.81578 8.26341M9.03493 7.52397L8.81578 8.26341M8.81578 8.26341L8.81638 8.27584M8.81578 8.26341L8.81638 8.27584M8.81638 8.27584C8.82836 8.52424 8.90813 8.76482 9.04755 8.97132L8.81638 8.27584ZM11.2496 10.4736L10.5548 10.1797V10.9341V12.7841V13.3592L11.1243 13.2792C11.4742 13.23 11.7933 13.0526 12.0197 12.7813C12.2461 12.5102 12.3638 12.1646 12.3498 11.8116L12.3495 11.8116C12.3385 11.4741 12.2102 11.1895 11.999 10.9624C11.7913 10.7391 11.519 10.5876 11.2496 10.4736Z" fill="black" stroke="#960E89"/>
<path d="M10.7863 1.97119H4.69991C3.71863 1.97119 2.7776 2.36106 2.08373 3.05492C1.38987 3.7488 1 4.68982 1 5.6711V14.9209C1 15.9021 1.38987 16.8432 2.08373 17.537C2.7776 18.2309 3.71863 18.6208 4.69991 18.6208H15.7997C16.781 18.6208 17.722 18.2309 18.4159 17.537C19.1098 16.8432 19.4996 15.9021 19.4996 14.9209V9.3062" stroke="#960E89" stroke-linecap="round" stroke-linejoin="round"/>
<path d="M14.2642 6.23538L19.4995 1" stroke="#960E89" stroke-linecap="round" stroke-linejoin="round"/>
<path d="M15.3193 1H19.5002V5.19015" stroke="#960E89" stroke-linecap="round" stroke-linejoin="round"/>
</svg>
