<svg width="20" height="20" viewBox="0 0 20 20" fill="none" xmlns="http://www.w3.org/2000/svg">
<path d="M3.66683 17.4998H16.3335C17.4168 17.4998 18.3335 16.5832 18.3335 15.4998V11.6665H16.6668V15.1665C16.6668 15.6665 16.3335 15.8332 15.8335 15.8332H4.16683C3.66683 15.8332 3.3335 15.4998 3.3335 14.9998V11.6665H1.66683V15.4998C1.66683 16.5832 2.5835 17.4998 3.66683 17.4998Z" fill="#960E89"/>
<path d="M7.24984 10.0833L8.83317 11.6667V8.33333C8.83317 6.66667 8.83317 4.25 6.83317 2.5C9.6665 3 11.0832 5.16667 11.1665 8.33333V11.6667L12.7498 10.0833L14.1665 10.8333L9.99984 15L5.83317 10.8333L7.24984 10.0833Z" fill="#960E89"/>
</svg>
