<svg width="20" height="20" viewBox="0 0 20 20" fill="none" xmlns="http://www.w3.org/2000/svg">
<path d="M11.6668 11.8766V13.6182C10.9126 13.3516 10.1054 13.2698 9.313 13.3797C8.52061 13.4897 7.76616 13.7882 7.11302 14.2501C6.45988 14.712 5.92712 15.3239 5.55946 16.0344C5.19181 16.7449 5.00001 17.5333 5.00016 18.3333L3.3335 18.3324C3.33324 17.3148 3.56593 16.3107 4.01374 15.3969C4.46156 14.4831 5.11261 13.684 5.91701 13.0608C6.72141 12.4375 7.65781 12.0067 8.65446 11.8013C9.6511 11.5959 10.6815 11.6222 11.6668 11.8766ZM10.0002 10.8333C7.23766 10.8333 5.00016 8.59575 5.00016 5.83325C5.00016 3.07075 7.23766 0.833252 10.0002 0.833252C12.7627 0.833252 15.0002 3.07075 15.0002 5.83325C15.0002 8.59575 12.7627 10.8333 10.0002 10.8333ZM10.0002 9.16658C11.8418 9.16658 13.3335 7.67492 13.3335 5.83325C13.3335 3.99159 11.8418 2.49992 10.0002 2.49992C8.1585 2.49992 6.66683 3.99159 6.66683 5.83325C6.66683 7.67492 8.1585 9.16658 10.0002 9.16658ZM14.8277 16.5949L17.7735 13.6491L18.9527 14.8274L14.8277 18.9524L11.881 16.0058L13.0602 14.8274L14.8277 16.5949Z" fill="#960E89"/>
</svg>
