<svg width="21" height="21" viewBox="0 0 21 21" fill="none" xmlns="http://www.w3.org/2000/svg">
<path d="M10.4959 3.16016L18.7852 5.68057V6.61777H2.21484V5.68057L10.4959 3.16016ZM10.4959 2.2168L1.3125 5.01201V7.52012H19.6875V5.01201L10.4959 2.2168ZM2.31738 17.0501H18.6826V17.3782H2.31738V17.0501Z" fill="#960E89"/>
<path d="M2.31738 8.02051H18.6826V8.34863H2.31738V8.02051Z" fill="#960E89"/>
<path d="M1.31885 17.8786H19.6795V18.781H1.31885V17.8786ZM4.18789 9.75342V15.6453H5.2543V16.5477H2.79336V15.6453H3.85977V9.75342H2.79336V8.85107H5.2543V9.75342H4.18789ZM8.50479 9.75342V15.6453H9.57119V16.5477H7.11025V15.6453H8.17666V9.75342H7.11025V8.85107H9.57119V9.75342H8.50479ZM12.8217 9.75342V15.6453H13.8881V16.5477H11.4271V15.6453H12.4936V9.75342H11.4271V8.85107H13.8881V9.75342H12.8217ZM17.1406 9.75342V15.6453H18.207V16.5477H15.7461V15.6453H16.8125V9.75342H15.7461V8.85107H18.207V9.75342H17.1406Z" fill="#960E89"/>
</svg>
