<svg width="45" height="57" viewBox="0 0 45 57" fill="none" xmlns="http://www.w3.org/2000/svg">
<path fill-rule="evenodd" clip-rule="evenodd" d="M9.82151 17.1746C11.1152 18.3791 13.078 19.6281 14.1932 19.985C14.7285 20.1634 15.6207 20.3419 16.3791 20.4311C16.959 20.5203 17.4051 20.5203 18.8326 20.5203C19.814 20.5203 22.2229 20.5203 24.1857 20.5203C30.8325 20.5203 30.7433 20.5203 31.234 20.4311C32.1262 20.2527 32.84 19.985 33.5983 19.4943C34.1782 19.0928 34.4459 19.0482 34.6689 19.3605C34.7879 19.5389 35.2786 20.8177 36.1411 23.1969C36.8548 25.2935 37.0779 25.9627 37.0779 26.1411C37.0332 26.3641 36.7656 26.2749 35.3827 25.5612C34.0444 24.892 33.4645 24.669 32.4385 24.4013C31.3232 24.1337 31.011 24.0891 29.8511 24.0891C28.9589 24.0891 26.6839 24.2675 26.1486 24.3567L25.9701 24.4013V29.7991H26.2824C27.2638 29.7545 27.8883 29.3976 28.156 28.8177C28.2006 28.6392 28.2452 28.4162 28.2898 28.0147C28.3344 27.2117 28.4236 26.9887 28.7805 26.6764C29.1374 26.3195 29.5389 26.4534 29.7173 26.9887C29.8065 27.2563 29.8065 27.524 29.8065 30.9589C29.8065 34.8845 29.8065 35.286 29.5835 35.7321C29.4496 36.0444 29.3158 36.1336 29.0482 36.0444C28.5575 35.9552 28.3344 35.4645 28.2452 34.5277C28.2006 34.26 28.156 33.9478 28.1114 33.8585C27.9329 33.234 27.353 32.8771 26.3716 32.8325L25.9255 32.7879V40.2377C25.9255 46.483 25.9255 47.6428 26.0147 47.6428C26.1486 47.6428 26.8623 47.1075 27.2638 46.706C27.8437 46.1261 28.156 45.68 28.7359 44.5202C29.7173 42.4235 31.3232 38.8548 34.9812 30.4236C35.695 28.8177 36.3195 27.4348 36.4087 27.3009C36.4533 27.2117 36.5425 27.1225 36.6318 27.0779C36.8102 26.9441 36.6318 26.4088 39.9329 35.9106C40.602 37.8734 41.4942 40.4161 41.8957 41.576C42.6986 43.8956 43.1893 45.3232 43.3678 45.7246C43.5908 46.2153 44.0369 46.8399 44.5276 47.3752C45.0629 47.9105 45.1076 47.9997 44.8399 48.2674L44.7061 48.4012H40.8697C38.6838 48.4012 36.944 48.4012 36.8994 48.3566C36.7656 48.312 36.721 48.1782 36.8102 47.9997C36.8548 47.9551 36.9886 47.8213 37.1225 47.7321C37.8362 47.2414 38.4161 46.0815 38.3715 45.2339C38.3269 44.8324 38.0593 43.9849 37.8362 43.4942L37.6578 43.1819H31.4125L31.3232 43.3157C31.1448 43.5388 30.6095 44.5648 30.4757 44.9663C30.2972 45.5016 30.3418 46.0369 30.5203 46.3938C30.8325 47.1075 31.4571 47.5536 32.3047 47.6875C32.7507 47.7321 32.9738 48.1782 32.7061 48.4012L32.6169 48.535H29.2712L25.9255 48.5796V50.141L26.2378 50.4532C26.55 50.7209 27.2638 51.7469 27.6653 52.416C27.8437 52.7729 28.1708 53.0554 28.6467 53.2636C29.3604 53.6205 29.7173 53.7097 30.7879 53.7097C31.7693 53.7097 31.9032 53.7543 31.9924 54.022C32.1262 54.2896 31.5463 55.0034 30.7879 55.5833C30.0296 56.1186 28.8697 56.6539 28.0668 56.8324C27.5314 56.9662 26.7285 57.0108 26.2378 56.9216C25.524 56.7878 24.6764 56.3863 24.0073 55.8064C23.8289 55.6279 23.3828 55.2264 23.0705 54.8696C22.3567 54.0666 22.0891 53.7989 21.6876 53.6205C21.2415 53.3975 20.3493 53.1298 19.1895 52.8175C17.4497 52.3714 17.3605 52.3268 17.5389 52.0146C17.6282 51.8361 17.9404 51.6131 18.5649 51.3008C19.1895 50.9439 19.4125 50.8101 19.7248 50.4978C19.9925 50.2302 20.1709 49.9179 20.3047 49.5164L20.4385 49.2042V24.2229H20.1263C17.0036 24.5352 14.9962 24.2229 13.301 23.2415C12.4535 22.7062 11.3382 21.7248 10.6245 20.8326C9.37541 19.3159 8.61705 17.3977 9.01854 16.8623C9.07802 16.7731 9.13749 16.7285 9.19697 16.7285C9.3308 16.7285 9.50924 16.8623 9.82151 17.1746ZM12.1412 26.8102C12.1858 26.8549 12.3196 27.1671 12.4089 27.524C12.5427 27.9255 13.3456 30.1113 14.1486 32.4756C15.8884 37.3827 16.156 38.1856 17.1821 41.1745C18.2973 44.431 18.6096 45.2339 18.7434 45.5016C18.9664 45.9477 19.3679 46.483 19.8586 47.0183C20.1263 47.286 20.2601 47.4644 20.2601 47.5982C20.2601 47.7321 20.1709 47.8659 19.9925 47.9551L19.814 47.9997H16.0222C12.6319 47.9997 12.1858 47.9997 12.1412 47.9551C11.9181 47.8213 11.9628 47.5982 12.2304 47.4198C12.7657 47.1521 13.2118 46.483 13.4795 45.7692C13.5687 45.5016 13.5687 45.4124 13.6133 45.0555C13.6133 44.5202 13.5687 44.2525 13.2118 43.4496L12.9888 42.825H9.7769H6.56502L6.25275 43.4942C5.49439 44.9663 5.44978 45.6354 6.02971 46.3492C6.20814 46.6168 6.60963 46.9737 6.83267 47.0629C6.9665 47.1521 7.18955 47.1967 7.4126 47.286C7.59103 47.3306 7.81408 47.3752 7.81408 47.3752C8.03713 47.4644 8.17096 47.7321 8.03713 47.9105C7.99252 47.9551 7.9033 48.0443 7.85869 48.0889C7.72486 48.1335 7.59103 48.1335 4.02228 48.1335C1.83642 48.1335 0.275091 48.1335 0.185872 48.0889C0.0371744 48.0592 -0.0223047 47.9551 0.00743492 47.7767C0.0520443 47.5982 0.0966541 47.509 0.319701 47.509C1.16728 47.3752 1.97025 46.9291 2.72861 46.1261C3.21931 45.5462 3.84384 44.431 5.18213 41.4867C5.74718 40.2377 7.65051 35.8957 10.8921 28.4608C11.5613 27.0333 11.6059 26.9441 11.7397 26.7656C11.8289 26.6764 11.9033 26.6318 11.9628 26.6318C12.052 26.6615 12.1115 26.721 12.1412 26.8102ZM7.54643 40.5499C7.50182 40.5946 7.63564 40.5946 9.91072 40.5946C12.1858 40.5946 12.3196 40.5946 12.275 40.5499C11.9181 39.5239 10.1338 34.9738 10.1338 34.9738C10.0892 34.9738 7.54643 40.4607 7.54643 40.5499ZM32.26 40.996C32.26 40.996 33.1522 41.0406 34.6243 41.0406C35.9626 41.0406 37.0332 40.996 36.9886 40.996C36.9886 40.9514 36.5425 39.7024 35.9626 38.1856C35.3827 36.6689 34.892 35.4199 34.8474 35.4199C34.8474 35.4199 32.3047 40.773 32.26 40.996Z" fill="#CF5EC2"/>
<path fill-rule="evenodd" clip-rule="evenodd" d="M24.9441 4.63938L25.0333 4.95165L27.6653 4.99625H30.2972L28.2006 6.51297C27.0408 7.36055 26.0594 8.0743 26.0594 8.0743C26.0594 8.11891 26.4162 9.23415 26.8623 10.5724C27.3084 11.9553 27.6653 13.0706 27.6653 13.0706C27.6653 13.0706 26.6839 12.4014 25.524 11.5538C24.3642 10.7063 23.4274 9.99251 23.3828 9.99251C23.3828 10.0371 22.446 10.7063 21.2861 11.5092C19.0111 13.2044 19.1449 13.1152 19.1449 13.0706C19.1449 13.0259 20.617 8.56501 20.7062 8.29735L20.7508 8.0743L18.6542 6.51297L16.5129 4.99625L21.7769 4.95165L21.8661 4.63938C21.9553 4.46094 22.3122 3.34571 22.669 2.14125C23.0705 0.981407 23.3828 0 23.3828 0C23.4274 0 24.1858 2.27508 24.9441 4.63938Z" fill="#CF5EC2"/>
<path fill-rule="evenodd" clip-rule="evenodd" d="M10.4906 7.94037L10.5352 8.11881H12.0073H13.4795L12.275 8.96639C11.6505 9.45709 11.1152 9.81397 11.1152 9.85858C11.1152 9.85858 11.2936 10.4831 11.5613 11.2415C11.7843 11.9998 12.0073 12.6244 12.0073 12.6244C12.0073 12.6244 11.472 12.2229 10.8029 11.7768C10.1784 11.2861 9.64305 10.9292 9.64305 10.9292C9.64305 10.9292 9.10774 11.2861 8.48321 11.7322C7.18953 12.669 7.27875 12.6244 7.27875 12.6244C7.27875 12.5798 8.08172 10.1262 8.12633 9.9478L8.17094 9.85858L6.96648 8.96639L5.80664 8.11881H8.75086L8.79547 7.94037C8.84008 7.80655 9.01852 7.22662 9.24157 6.55748C9.46461 5.88834 9.64305 5.35303 9.64305 5.35303C9.64305 5.35303 10.0445 6.6467 10.4906 7.94037Z" fill="#CF5EC2"/>
<path fill-rule="evenodd" clip-rule="evenodd" d="M36.721 7.89576L36.7656 8.0742H38.1931H39.6206L38.4608 8.92178C37.8362 9.36788 37.3455 9.72475 37.3455 9.76936C37.3455 9.76936 37.524 10.3939 37.747 11.1076C38.0147 11.866 38.1931 12.4459 38.1931 12.4459C38.1931 12.4905 37.6578 12.089 37.0333 11.643C36.4087 11.1523 35.8734 10.7954 35.8734 10.7954C35.8734 10.7954 35.3381 11.1523 34.7136 11.643C33.4645 12.5351 33.5537 12.4905 33.5537 12.4459C33.5537 12.4459 34.3567 10.037 34.4013 9.85858L34.4459 9.76936L33.2861 8.92178L32.1262 8.0742H33.5537H34.9812L35.0704 7.89576C35.0704 7.76194 35.2935 7.18201 35.4719 6.51287C35.695 5.88834 35.8734 5.35303 35.8734 5.35303C35.8734 5.35303 36.2749 6.60209 36.721 7.89576ZM34.5797 13.2043C41.9403 21.1448 49.2562 29.0406 34.5797 13.2043V13.2043Z" fill="#CF5EC2"/>
</svg>
