<svg width="44" height="57" viewBox="0 0 44 57" fill="none" xmlns="http://www.w3.org/2000/svg">
<g clip-path="url(#clip0_386_866)">
<path fill-rule="evenodd" clip-rule="evenodd" d="M21.5602 22.3C18.9573 22.3 16.413 23.0719 14.2488 24.5179C12.0847 25.9639 10.3979 28.0193 9.4019 30.4239C8.40585 32.8286 8.14524 35.4746 8.65302 38.0274C9.1608 40.5802 10.4142 42.9251 12.2546 44.7656C14.0951 46.606 16.44 47.8594 18.9928 48.3672C21.5456 48.875 24.1916 48.6144 26.5963 47.6183C29.0009 46.6223 31.0563 44.9355 32.5023 42.7714C33.9483 40.6072 34.7202 38.0629 34.7202 35.46C34.7202 31.9698 33.3337 28.6225 30.8657 26.1545C28.3977 23.6865 25.0504 22.3 21.5602 22.3ZM21.5602 47.91C19.0955 47.9021 16.6885 47.1641 14.6431 45.7891C12.5977 44.414 11.0056 42.4637 10.0679 40.1845C9.13024 37.9052 8.88899 35.3991 9.37466 32.9828C9.86032 30.5665 11.0511 28.3483 12.7967 26.6084C14.5422 24.8684 16.7642 23.6847 19.1821 23.2068C21.5999 22.7289 24.1051 22.9782 26.3814 23.9231C28.6577 24.8681 30.6029 26.4665 31.9713 28.5163C33.3398 30.5661 34.0701 32.9754 34.0702 35.44C34.0702 38.7473 32.7564 41.9191 30.4178 44.2577C28.0792 46.5963 24.9074 47.91 21.6002 47.91H21.5602Z" fill="#CF5EC2"/>
<path fill-rule="evenodd" clip-rule="evenodd" d="M30.0001 27.46C31.5804 29.1042 32.6425 31.1768 33.0541 33.4199C33.4657 35.663 33.2088 37.9777 32.3152 40.0759C31.4216 42.1741 29.9309 43.9633 28.0284 45.2209C26.1259 46.4785 23.8957 47.149 21.6151 47.149C19.3345 47.149 17.1043 46.4785 15.2018 45.2209C13.2993 43.9633 11.8086 42.1741 10.915 40.0759C10.0215 37.9777 9.76449 35.663 10.1761 33.4199C10.5877 31.1768 11.6498 29.1042 13.2301 27.46L15.2301 28.46L16.1201 30.46C15.121 31.153 14.2978 32.07 13.7161 33.1379C13.1344 34.2057 12.8105 35.3947 12.7701 36.61C12.6501 39.59 14.2501 43 18.0001 43.72C17.7401 39.48 20.1101 38.11 20.8601 37.84C20.3187 37.009 19.9513 36.0769 19.7801 35.1C20.4988 35.7423 21.3246 36.2534 22.2201 36.61C23.8401 37.35 25.6101 38.12 25.8301 39.61C25.9226 40.2159 25.8099 40.8354 25.5101 41.37C25.386 41.1255 25.2278 40.8999 25.0401 40.7C24.8091 40.4933 24.51 40.3791 24.2001 40.3791C23.8902 40.3791 23.5911 40.4933 23.3601 40.7C23.1793 40.8816 23.0485 41.1068 22.9802 41.3538C22.9118 41.6008 22.9084 41.8612 22.9701 42.11C23.0282 42.3905 23.1423 42.6564 23.3055 42.8918C23.4687 43.1272 23.6778 43.3272 23.9201 43.48C24.3382 43.7108 24.801 43.8491 25.2773 43.8853C25.7535 43.9216 26.2319 43.8549 26.6801 43.69C29.2101 42.75 30.6201 39.32 30.5801 36.69C30.5319 35.4576 30.2077 34.2518 29.6313 33.1614C29.055 32.071 28.2413 31.1239 27.2501 30.39L28.0501 28.39L30.0001 27.46Z" fill="#CF5EC2"/>
<path fill-rule="evenodd" clip-rule="evenodd" d="M15.9001 42.2899C15.1661 40.7291 14.9965 38.9619 15.4201 37.2899C15.9781 35.621 17.1658 34.2359 18.7301 33.4299L18.0001 31.8699L16.4701 31.1799C15.5859 31.8372 14.8658 32.6902 14.3662 33.6721C13.8665 34.654 13.6009 35.7383 13.5901 36.8399C13.6257 38.8871 14.4538 40.8407 15.9001 42.2899Z" fill="#CF5EC2"/>
<path fill-rule="evenodd" clip-rule="evenodd" d="M27.34 42.2499C28.0581 40.6837 28.2136 38.9175 27.78 37.2499C27.2241 35.5847 26.035 34.2053 24.47 33.4099L25.19 31.9099L26.72 31.1799C27.6059 31.8356 28.3272 32.6882 28.827 33.6705C29.3268 34.6528 29.5914 35.7378 29.6 36.8399C29.5695 38.8666 28.7602 40.8038 27.34 42.2499Z" fill="#CF5EC2"/>
<path fill-rule="evenodd" clip-rule="evenodd" d="M38.3801 33.1399C38.8378 33.1379 39.2858 33.272 39.6672 33.525C40.0486 33.7781 40.3462 34.1388 40.5223 34.5613C40.6984 34.9838 40.745 35.4491 40.6562 35.8981C40.5674 36.3471 40.3472 36.7597 40.0235 37.0833C39.6998 37.407 39.2873 37.6272 38.8383 37.716C38.3893 37.8048 37.924 37.7582 37.5015 37.5821C37.079 37.4061 36.7183 37.1084 36.4652 36.727C36.2122 36.3456 36.0781 35.8976 36.0801 35.4399C36.0827 34.8307 36.3259 34.2472 36.7567 33.8165C37.1874 33.3857 37.7709 33.1425 38.3801 33.1399Z" fill="#CF5EC2"/>
<path fill-rule="evenodd" clip-rule="evenodd" d="M37.4002 33.7701C37.3811 34.0648 37.4621 34.3573 37.6302 34.6001C37.7867 34.8181 37.9795 35.0075 38.2002 35.1601C38.2006 34.8816 38.1245 34.6083 37.9802 34.3701C37.8437 34.122 37.6435 33.9149 37.4002 33.7701ZM39.3402 33.7701C39.0777 33.9023 38.8692 34.1214 38.7502 34.3901C38.6403 34.6237 38.5694 34.8736 38.5402 35.1301L38.6702 35.0701C38.871 34.9164 39.0353 34.7201 39.1512 34.4953C39.267 34.2705 39.3316 34.0229 39.3402 33.7701ZM36.6602 34.4501C36.7711 34.2609 36.9093 34.0891 37.0702 33.9401C37.0932 34.2295 37.1896 34.5082 37.3502 34.7501L37.4902 34.9401H37.3002C36.9959 34.9324 36.6942 34.9976 36.4202 35.1301C36.4609 34.8946 36.5421 34.6679 36.6602 34.4601V34.4501ZM38.0602 35.4501H37.9702C37.7568 35.5388 37.5306 35.5928 37.3002 35.6101C37.0111 35.6335 36.7224 35.5596 36.4802 35.4001C36.7209 35.2642 36.9937 35.1951 37.2702 35.2001C37.5504 35.2153 37.8222 35.3013 38.0602 35.4501ZM37.4802 35.9901C37.4802 36.0501 37.3902 36.1101 37.3502 36.1801C37.206 36.4145 37.114 36.6771 37.0802 36.9501C36.7358 36.653 36.503 36.2473 36.4202 35.8001C36.6945 35.9525 37.0071 36.022 37.3202 36.0001L37.4802 35.9901ZM38.1902 35.7801C38.1848 35.8233 38.1848 35.8669 38.1902 35.9101C38.1632 36.1262 38.0989 36.336 38.0002 36.5301C37.8767 36.7967 37.6647 37.0123 37.4002 37.1401C37.4006 36.8603 37.4804 36.5864 37.6302 36.3501C37.7594 36.1328 37.9332 35.9454 38.1402 35.8001L38.1902 35.7801ZM38.3802 36.5001C38.3802 36.5001 38.3802 36.5901 38.4502 36.6401C38.595 36.9046 38.8006 37.1308 39.0502 37.3001C38.6259 37.4472 38.1645 37.4472 37.7402 37.3001C37.9738 37.1357 38.1628 36.9158 38.2902 36.6601L38.3802 36.5001ZM38.5402 35.7101C38.7377 35.8619 38.9099 36.0442 39.0502 36.2501C39.2167 36.4899 39.2977 36.7787 39.2802 37.0701C39.0403 36.9286 38.8433 36.7247 38.7102 36.4801C38.604 36.3027 38.5359 36.1052 38.5102 35.9001C38.5302 35.8401 38.5402 35.7701 38.5402 35.7101ZM39.2402 35.9401H39.4702C39.7681 35.9485 40.0635 35.8833 40.3302 35.7501C40.25 36.2245 40.0014 36.6541 39.6302 36.9601C39.6214 36.6417 39.5207 36.3326 39.3402 36.0701L39.2402 35.9401ZM38.7102 35.4301L38.8202 35.3601C39.0171 35.2778 39.2269 35.2304 39.4402 35.2201C39.7325 35.1952 40.0248 35.2691 40.2702 35.4301C40.0263 35.5673 39.7499 35.6364 39.4702 35.6301C39.2118 35.6381 38.956 35.5759 38.7302 35.4501L38.7102 35.4301ZM39.2802 34.9101C39.2802 34.9101 39.3502 34.8001 39.3902 34.7401C39.5435 34.4984 39.6393 34.2247 39.6702 33.9401C40.0089 34.2362 40.2379 34.6378 40.3202 35.0801C40.048 34.9432 39.7443 34.8811 39.4402 34.9001L39.2802 34.9101ZM38.3702 34.4501C38.3383 34.3663 38.2981 34.2859 38.2502 34.2101C38.1208 33.9615 37.936 33.746 37.7102 33.5801C38.1405 33.4284 38.6098 33.4284 39.0402 33.5801C38.7951 33.7457 38.5984 33.9735 38.4702 34.2401C38.4288 34.306 38.3952 34.3764 38.3702 34.4501Z" fill="#CF5EC2"/>
<path fill-rule="evenodd" clip-rule="evenodd" d="M27.3201 14.69C32.3439 16.0809 36.6933 19.2457 39.5624 23.5979C42.4314 27.9501 43.6257 33.1948 42.9239 38.3602C42.222 43.5255 39.6717 48.2614 35.7453 51.6903C31.819 55.1192 26.7829 57.0087 21.5701 57.0087C16.3573 57.0087 11.3211 55.1192 7.39479 51.6903C3.46847 48.2614 0.918119 43.5255 0.216283 38.3602C-0.485553 33.1948 0.708703 27.9501 3.57777 23.5979C6.44685 19.2457 10.7962 16.0809 15.8201 14.69L14.4101 7.60002L16.0001 8.34002L17.1601 14.34L17.4101 15.66C12.5199 16.6946 8.1862 19.5037 5.2453 23.5454C2.3044 27.5871 0.964735 32.5748 1.48483 37.5461C2.00492 42.5174 4.34791 47.1199 8.06165 50.4653C11.7754 53.8108 16.5967 55.6622 21.5951 55.6622C26.5935 55.6622 31.4148 53.8108 35.1285 50.4653C38.8422 47.1199 41.1852 42.5174 41.7053 37.5461C42.2254 32.5748 40.8857 27.5871 37.9448 23.5454C35.0039 19.5037 30.6703 16.6946 25.7801 15.66L25.8601 15.26L27.2201 8.26002L28.7901 7.52002L27.3201 14.69Z" fill="#CF5EC2"/>
<path fill-rule="evenodd" clip-rule="evenodd" d="M21.5901 0L23.8401 5.05L21.5901 10.05L19.3301 5.05L21.5901 0Z" fill="#CF5EC2"/>
<path fill-rule="evenodd" clip-rule="evenodd" d="M3.88998 33.6299C4.00626 33.4465 4.1725 33.3001 4.36915 33.208C4.56579 33.1159 4.78465 33.0818 4.99998 33.1099C5.20099 33.124 5.39596 33.1847 5.56951 33.287C5.74306 33.3894 5.89043 33.5308 5.99998 33.6999C6.21279 33.7114 6.41841 33.7808 6.59465 33.9007C6.77088 34.0205 6.91104 34.1862 6.99998 34.3799C7.08893 34.5585 7.13522 34.7553 7.13522 34.9549C7.13522 35.1544 7.08893 35.3513 6.99998 35.5299C7.09727 35.7187 7.14035 35.9308 7.12447 36.1426C7.10858 36.3544 7.03434 36.5577 6.90998 36.7299C6.7956 36.8903 6.64599 37.0223 6.47265 37.1159C6.29931 37.2096 6.10683 37.2622 5.90998 37.2699C5.79946 37.4528 5.63932 37.6007 5.44816 37.6962C5.25699 37.7918 5.04264 37.8312 4.82998 37.8099C4.6265 37.7917 4.43009 37.7261 4.25646 37.6185C4.08282 37.5108 3.93678 37.364 3.82998 37.1899C3.61681 37.185 3.40947 37.1193 3.23232 37.0006C3.05518 36.882 2.9156 36.7152 2.82998 36.5199C2.74127 36.3341 2.69944 36.1294 2.70816 35.9237C2.71688 35.718 2.77587 35.5175 2.87998 35.3399C2.78302 35.1563 2.74001 34.9489 2.75594 34.7419C2.77186 34.5348 2.84607 34.3365 2.96998 34.1699C3.07732 34.0208 3.21458 33.8958 3.373 33.8028C3.53142 33.7098 3.7075 33.6509 3.88998 33.6299ZM6.08998 34.0599V34.1999C6.11792 34.5043 6.04093 34.8092 5.87176 35.0638C5.7026 35.3185 5.45145 35.5076 5.15998 35.5999C5.33569 35.7369 5.55215 35.8114 5.77498 35.8114C5.99782 35.8114 6.21427 35.7369 6.38998 35.5999C6.55889 35.4696 6.67789 35.2853 6.72705 35.0777C6.77621 34.8702 6.75253 34.6521 6.65998 34.4599C6.59961 34.3559 6.51738 34.2663 6.41896 34.1972C6.32054 34.1282 6.20829 34.0813 6.08998 34.0599ZM4.88998 35.7799C4.84754 36.0006 4.8807 36.2292 4.98412 36.4288C5.08753 36.6284 5.25517 36.7873 5.45998 36.8799C5.66005 36.9504 5.87735 36.9554 6.08048 36.8943C6.28361 36.8332 6.46204 36.7091 6.58998 36.5399C6.66253 36.4403 6.7111 36.3254 6.73192 36.2039C6.75273 36.0825 6.74523 35.9579 6.70998 35.8399L6.61998 35.9199C6.3598 36.0999 6.04534 36.1843 5.72998 36.1588C5.41463 36.1333 5.11783 35.9994 4.88998 35.7799ZM4.57998 35.6299C4.36044 35.7 4.17185 35.8438 4.04612 36.0369C3.92038 36.2301 3.86523 36.4608 3.88998 36.6899C3.93062 36.8969 4.03568 37.0858 4.19015 37.2295C4.34462 37.3731 4.54057 37.4643 4.74998 37.4899C4.87676 37.5039 5.00505 37.4866 5.1236 37.4396C5.24215 37.3925 5.34735 37.3171 5.42998 37.2199H5.32998C5.03963 37.0834 4.80591 36.85 4.66903 36.5598C4.53216 36.2696 4.50067 35.9408 4.57998 35.6299ZM4.57998 35.2899C4.40512 35.1553 4.19065 35.0823 3.96998 35.0823C3.74931 35.0823 3.53484 35.1553 3.35998 35.2899C3.20039 35.4293 3.0892 35.6158 3.04247 35.8225C2.99574 36.0292 3.01588 36.2454 3.09998 36.4399C3.14645 36.5486 3.21765 36.645 3.30793 36.7214C3.3982 36.7978 3.50505 36.8521 3.61998 36.8799C3.61998 36.8799 3.61998 36.8099 3.61998 36.7699C3.57485 36.4517 3.64472 36.1278 3.81703 35.8565C3.98934 35.5852 4.25278 35.3843 4.55998 35.2899H4.57998ZM4.89998 35.1299C4.94779 34.9011 4.91395 34.6628 4.80434 34.4564C4.69473 34.2499 4.51628 34.0884 4.29998 33.9999C4.10259 33.9197 3.88366 33.9097 3.67979 33.9716C3.47592 34.0335 3.29948 34.1635 3.17998 34.3399C3.10758 34.4376 3.05902 34.5509 3.03819 34.6707C3.01735 34.7905 3.02481 34.9135 3.05998 35.0299L3.13998 34.9999C3.40126 34.8196 3.71637 34.7342 4.03292 34.7579C4.34947 34.7815 4.64839 34.9128 4.87998 35.1299H4.89998ZM5.19998 35.2499C5.39389 35.1685 5.55721 35.0281 5.66672 34.8486C5.77624 34.669 5.82636 34.4595 5.80998 34.2499C5.7718 34.0425 5.66904 33.8525 5.51638 33.707C5.36371 33.5615 5.16897 33.468 4.95998 33.4399C4.83891 33.4263 4.71634 33.4409 4.60185 33.4825C4.48735 33.5242 4.38404 33.5917 4.29998 33.6799L4.44998 33.7299C4.72373 33.8656 4.94426 34.0889 5.07653 34.3643C5.2088 34.6397 5.24521 34.9514 5.17998 35.2499H5.19998Z" fill="#CF5EC2"/>
<path fill-rule="evenodd" clip-rule="evenodd" d="M23.46 38C23.7505 38.2883 23.9548 38.6519 24.05 39.05H24.61C24.47 38.59 23.86 38.28 23.46 38Z" fill="#CF5EC2"/>
<path fill-rule="evenodd" clip-rule="evenodd" d="M21.1101 26.46H22.1101C22.177 26.4531 22.2441 26.4706 22.2992 26.5091C22.3542 26.5477 22.3936 26.6048 22.4101 26.67L22.7301 27.67C22.7301 27.75 22.7301 27.83 22.6101 27.93L21.7901 28.55C21.7483 28.5816 21.6974 28.5987 21.6451 28.5987C21.5927 28.5987 21.5418 28.5816 21.5001 28.55L20.6701 27.95C20.6207 27.9224 20.5838 27.877 20.567 27.823C20.5503 27.769 20.5549 27.7106 20.5801 27.66L20.8901 26.66C20.8913 26.6324 20.8981 26.6053 20.9098 26.5803C20.9216 26.5553 20.9381 26.5329 20.9586 26.5143C20.979 26.4957 21.0029 26.4814 21.0289 26.472C21.0549 26.4627 21.0825 26.4586 21.1101 26.46Z" fill="#CF5EC2"/>
<path fill-rule="evenodd" clip-rule="evenodd" d="M23.6502 28L24.3602 27.49C24.3602 27.59 24.3602 27.7 24.3602 27.8C24.3592 28.3562 24.1921 28.8995 23.8802 29.36L23.5402 28.27C23.52 28.2195 23.5202 28.1631 23.5407 28.1128C23.5612 28.0624 23.6004 28.022 23.6502 28Z" fill="#CF5EC2"/>
<path fill-rule="evenodd" clip-rule="evenodd" d="M22.7301 25.7L22.5801 25.22C22.9589 25.3617 23.3008 25.5873 23.5801 25.88H23.0001C22.9704 25.8873 22.9396 25.8883 22.9096 25.8831C22.8795 25.8778 22.8509 25.8663 22.8255 25.8494C22.8001 25.8325 22.7785 25.8104 22.7621 25.7847C22.7456 25.759 22.7347 25.7301 22.7301 25.7Z" fill="#CF5EC2"/>
<path fill-rule="evenodd" clip-rule="evenodd" d="M20.2801 25.88H19.6401C19.9231 25.5894 20.2638 25.3612 20.6401 25.21L20.4701 25.71C20.4901 25.81 20.4401 25.88 20.2801 25.88Z" fill="#CF5EC2"/>
<path fill-rule="evenodd" clip-rule="evenodd" d="M19.7101 28.27L19.3501 29.37C19.0221 28.9124 18.8471 28.3629 18.8501 27.7999C18.8501 27.6799 18.8501 27.56 18.8501 27.45L19.6001 27.99C19.626 28.0008 19.6494 28.0168 19.669 28.0368C19.6886 28.0569 19.7039 28.0806 19.7142 28.1067C19.7244 28.1328 19.7294 28.1607 19.7287 28.1888C19.728 28.2168 19.7217 28.2444 19.7101 28.27Z" fill="#CF5EC2"/>
<path fill-rule="evenodd" clip-rule="evenodd" d="M21.79 29.5999L22.79 30.3099C22.4349 30.4827 22.0449 30.5716 21.65 30.5699C21.2565 30.5691 20.8677 30.4838 20.51 30.3199L21.51 29.5999C21.5474 29.5633 21.5977 29.5427 21.65 29.5427C21.7024 29.5427 21.7526 29.5633 21.79 29.5999Z" fill="#CF5EC2"/>
<path fill-rule="evenodd" clip-rule="evenodd" d="M21.64 50.8499V51.7999H22.76V52.5099H21.64V53.4499H23.17L22.97 54.1599H20.97V50.1599H23.22L23.02 50.8699L21.64 50.8499Z" fill="#CF5EC2"/>
<path fill-rule="evenodd" clip-rule="evenodd" d="M13.4301 48.4701L12.9501 49.2901L13.9501 49.8601L13.5801 50.4601L12.5801 49.8901L12.1001 50.7101L13.4101 51.4901L12.8801 51.9901L11.7401 51.3201L11.1401 51.0001L11.5001 50.3901L12.8301 48.1601L13.1901 47.5601L15.1201 48.7101L14.5901 49.2101L13.4301 48.4701Z" fill="#CF5EC2"/>
<path fill-rule="evenodd" clip-rule="evenodd" d="M31.73 46.23L34.83 46.03L33.2 44.57L33.67 44.04L36.67 46.74L33.55 46.93L35.19 48.38L34.72 48.92L31.73 46.23Z" fill="#CF5EC2"/>
<path fill-rule="evenodd" clip-rule="evenodd" d="M24.3602 17L26.0002 19.59L26.4802 17.46L27.1902 17.62L26.3002 21.62L24.6202 18.98L24.1402 21.13L23.4402 20.96L24.3602 17Z" fill="#CF5EC2"/>
<path fill-rule="evenodd" clip-rule="evenodd" d="M32.8202 50.6L32.1202 51.01L31.5402 50.57L30.3002 51.3L30.4102 52.03L29.7202 52.44L29.1902 48L32.8202 50.6ZM31.0002 50.14L30.0002 49.46L30.1602 50.6L31.0002 50.14Z" fill="#CF5EC2"/>
<path fill-rule="evenodd" clip-rule="evenodd" d="M27.4102 49.1001L26.6202 49.3201L26.3202 51.9001L24.7002 49.9001L23.9402 50.1101L26.7702 53.5401L27.4102 49.1001Z" fill="#CF5EC2"/>
<path fill-rule="evenodd" clip-rule="evenodd" d="M9.86016 44.4099L10.4302 44.9899L10.0002 46.6699L11.7302 46.2799L12.2902 46.8499L9.72016 47.4299L8.42016 48.6699L7.91016 48.1499L9.21016 46.8999L9.86016 44.4099Z" fill="#CF5EC2"/>
<path fill-rule="evenodd" clip-rule="evenodd" d="M11.9001 19.52L12.6101 19.16L14.0801 20.11L14.2301 18.34L14.9301 17.99L14.7001 20.61L15.4901 22.2L14.8501 22.52L14.0501 20.91L11.9001 19.52Z" fill="#CF5EC2"/>
<path fill-rule="evenodd" clip-rule="evenodd" d="M7.59009 23.1701L8.59009 22.1701C8.72585 22.0231 8.89056 21.9059 9.07384 21.8257C9.25713 21.7455 9.45503 21.7041 9.65509 21.7041C9.85515 21.7041 10.053 21.7455 10.2363 21.8257C10.4196 21.9059 10.5843 22.0231 10.7201 22.1701C10.8727 22.3146 10.9928 22.4899 11.0724 22.6844C11.152 22.8789 11.1892 23.0881 11.1817 23.2982C11.1741 23.5082 11.1219 23.7142 11.0285 23.9025C10.9351 24.0907 10.8027 24.257 10.6401 24.3901L10.2101 24.8201L10.9001 25.5301L10.3901 26.0301L7.59009 23.1701ZM10.1901 22.7001C10.1198 22.6228 10.0341 22.561 9.93853 22.5187C9.84296 22.4764 9.7396 22.4545 9.63509 22.4545C9.53058 22.4545 9.42722 22.4764 9.33164 22.5187C9.23607 22.561 9.15038 22.6228 9.08009 22.7001L8.58009 23.1901L9.70009 24.3201L10.2101 23.8401C10.2869 23.7658 10.3477 23.6764 10.3886 23.5776C10.4294 23.4788 10.4496 23.3727 10.4477 23.2657C10.4458 23.1588 10.422 23.0535 10.3777 22.9562C10.3334 22.8588 10.2695 22.7717 10.1901 22.7001Z" fill="#CF5EC2"/>
<path fill-rule="evenodd" clip-rule="evenodd" d="M16.45 49.28L17.8 49.63C17.9959 49.6725 18.1809 49.7551 18.3433 49.8727C18.5057 49.9903 18.642 50.1403 18.7435 50.3132C18.845 50.4861 18.9095 50.6782 18.933 50.8773C18.9565 51.0764 18.9384 51.2782 18.88 51.47C18.8225 51.7471 18.6847 52.0011 18.4837 52.2003C18.2827 52.3994 18.0275 52.535 17.75 52.59L18.14 53.89L17.28 53.66L17 52.55L16.42 52.39L16.16 53.39L15.46 53.2L16.45 49.28ZM18.18 51.28C18.2202 51.1787 18.2375 51.0697 18.2307 50.9608C18.2239 50.852 18.1931 50.746 18.1405 50.6505C18.088 50.5549 18.015 50.4722 17.9267 50.4081C17.8384 50.3441 17.7371 50.3003 17.63 50.28L17 50.13L16.58 51.69L17.25 51.87C17.4527 51.9118 17.6637 51.8723 17.8376 51.7601C18.0115 51.6479 18.1344 51.4719 18.18 51.27V51.28Z" fill="#CF5EC2"/>
<path fill-rule="evenodd" clip-rule="evenodd" d="M18.9202 19.38L18.6602 17.06L17.9502 17.14L18.2102 19.49C18.2252 19.7188 18.2893 19.9417 18.398 20.1435C18.5067 20.3454 18.6575 20.5216 18.8402 20.66C19.1586 20.8965 19.5577 20.9971 19.9502 20.9401C20.1694 20.9238 20.3825 20.8605 20.575 20.7546C20.7675 20.6486 20.9349 20.5024 21.0659 20.3259C21.1968 20.1494 21.2882 19.9468 21.3338 19.7318C21.3794 19.5168 21.3782 19.2945 21.3302 19.08L21.0602 16.8L20.3502 16.88L20.6302 19.17C20.6823 19.4166 20.6395 19.6737 20.5102 19.89C20.4424 19.9923 20.3523 20.0779 20.2466 20.1403C20.141 20.2026 20.0225 20.2402 19.9002 20.25C19.7753 20.2707 19.6473 20.2635 19.5255 20.229C19.4037 20.1945 19.291 20.1335 19.1955 20.0504C19.0999 19.9673 19.0239 19.8641 18.9729 19.7482C18.9218 19.6323 18.897 19.5066 18.9002 19.38H18.9202Z" fill="#CF5EC2"/>
<path fill-rule="evenodd" clip-rule="evenodd" d="M28.25 22.4099L28.89 22.7499L30.79 19.2299L30.15 18.8799L28.25 22.4099Z" fill="#CF5EC2"/>
<path fill-rule="evenodd" clip-rule="evenodd" d="M33.4101 21L33.9301 21.5L32.8301 22.67L34.8301 22.35L35.5301 23.02L33.0001 23.33L32.7601 25.87L32.0701 25.23L32.2901 23.23L31.1701 24.4L30.6501 23.91L33.4101 21Z" fill="#CF5EC2"/>
</g>
<defs>
<clipPath id="clip0_386_866">
<rect width="43.09" height="57" fill="white"/>
</clipPath>
</defs>
</svg>
