<svg width="45" height="56" viewBox="0 0 45 56" fill="none" xmlns="http://www.w3.org/2000/svg">
<path d="M10.3254 46.452C10.3254 46.452 10.6351 45.4099 8.682 45.0326C6.73187 44.6557 5.84518 45.7873 4.60052 45.4543C3.35935 45.1202 2.93716 44.6114 2.93716 44.6114C2.93716 44.6114 3.35935 46.3195 3.84725 47.1848C3.84725 47.1848 2.6245 48.1596 0.874512 48.2483C0.874512 48.2483 1.89463 49.7135 4.48999 49.8021C7.08486 49.8907 8.55654 49.7135 8.55654 49.7135L10.3254 46.452Z" fill="#CF5EC2"/>
<path d="M6.90879 45.9854C6.90879 45.9854 6.71114 45.4258 8.06384 45.8639C8.81959 46.1074 9.37023 47.0055 10.3256 46.4519V49.7134L6.78931 47.705L6.90879 45.9854Z" fill="#CF5EC2"/>
<path d="M34.473 46.452C34.473 46.452 34.1658 45.4099 36.1159 45.0326C38.0675 44.6557 38.9562 45.7873 40.1959 45.4543C41.4395 45.1202 41.8592 44.6114 41.8592 44.6114C41.8592 44.6114 41.4396 46.3195 40.9516 47.1848C40.9516 47.1848 42.1724 48.1596 43.9229 48.2483C43.9229 48.2483 42.9048 49.7135 40.3089 49.8021C37.7111 49.8907 36.2429 49.7135 36.2429 49.7135L34.473 46.452Z" fill="#CF5EC2"/>
<path d="M37.8912 45.9854C37.8912 45.9854 38.0883 45.4258 36.7322 45.8639C35.9784 46.1074 35.4263 47.0055 34.4753 46.4519V49.7134L38.0092 47.705L37.8912 45.9854Z" fill="#CF5EC2"/>
<path d="M38.4007 51.4424C38.0905 49.4011 37.8909 45.9853 37.8909 45.9853C37.8222 46.2746 37.6683 46.408 37.6683 46.408C37.6683 46.408 35.5828 49.9124 22.6762 49.9124H22.5846V49.908C22.5209 49.908 22.4616 49.91 22.4004 49.91C22.3396 49.91 22.2779 49.908 22.2157 49.908V49.9124H22.1241C9.21396 49.9124 7.12842 46.408 7.12842 46.408C7.12842 46.408 6.97557 46.2746 6.90836 45.9853C6.90836 45.9853 6.70872 49.4011 6.39905 51.4424C6.08739 53.4831 11.2557 54.6591 11.2557 54.6591C11.2557 54.6591 16.1134 55.7683 22.1704 55.7683C22.246 55.7683 22.3242 55.7683 22.4004 55.7668C22.4765 55.7683 22.5542 55.7683 22.6299 55.7683C28.6869 55.7683 33.5425 54.6591 33.5425 54.6591C33.5425 54.6591 38.7129 53.4831 38.4007 51.4424Z" fill="#CF5EC2"/>
<path d="M6.74365 51.7604C6.74365 51.7604 7.00951 52.5141 7.87579 52.6929C7.87579 52.6929 6.81784 51.8052 6.79443 51.2316L6.74365 51.7604Z" fill="#CF5EC2"/>
<path d="M6.80371 51.1082C6.80371 51.1082 7.07256 51.861 7.93635 52.0442C7.93635 52.0442 6.87839 51.1525 6.85549 50.5795L6.80371 51.1082Z" fill="#CF5EC2"/>
<path d="M6.86816 50.4361C6.86816 50.4361 7.13452 51.1914 8.00229 51.3691C8.00229 51.3691 6.94284 50.4814 6.91745 49.9079L6.86816 50.4361Z" fill="#CF5EC2"/>
<path d="M6.92944 49.7836C6.92944 49.7836 7.1958 50.5388 8.06208 50.7151C8.06208 50.7151 7.00661 49.8304 6.98072 49.2554L6.92944 49.7836Z" fill="#CF5EC2"/>
<path d="M6.98999 49.1605C6.98999 49.1605 7.25635 49.9143 8.12362 50.093C8.12362 50.093 7.06268 49.2068 7.03878 48.6313L6.98999 49.1605Z" fill="#CF5EC2"/>
<path d="M7.05078 48.5089C7.05078 48.5089 7.32013 49.2636 8.18442 49.4434C8.18442 49.4434 7.12546 48.5537 7.10007 47.9806L7.05078 48.5089Z" fill="#CF5EC2"/>
<path d="M37.9376 51.7604C37.9376 51.7604 37.6732 52.5141 36.8049 52.6929C36.8049 52.6929 37.8649 51.8052 37.8878 51.2316L37.9376 51.7604Z" fill="#CF5EC2"/>
<path d="M37.8783 51.1082C37.8783 51.1082 37.6119 51.861 36.7427 52.0442C36.7427 52.0442 37.8036 51.1525 37.827 50.5795L37.8783 51.1082Z" fill="#CF5EC2"/>
<path d="M37.8126 50.4361C37.8126 50.4361 37.5463 51.1914 36.678 51.3691C36.678 51.3691 37.7389 50.4814 37.7633 49.9079L37.8126 50.4361Z" fill="#CF5EC2"/>
<path d="M37.7526 49.7836C37.7526 49.7836 37.4842 50.5388 36.616 50.7151C36.616 50.7151 37.6769 49.8304 37.7003 49.2554L37.7526 49.7836Z" fill="#CF5EC2"/>
<path d="M37.6912 49.1605C37.6912 49.1605 37.4249 49.9143 36.5586 50.093C36.5586 50.093 37.6171 49.2068 37.6419 48.6313L37.6912 49.1605Z" fill="#CF5EC2"/>
<path d="M37.6302 48.5089C37.6302 48.5089 37.3618 49.2636 36.498 49.4434C36.498 49.4434 37.5575 48.5537 37.5804 47.9806L37.6302 48.5089Z" fill="#CF5EC2"/>
<path d="M14.0369 42.645C14.0359 42.645 14.0359 42.645 14.0334 42.6455L14.0369 42.645Z" fill="#CF5EC2"/>
<path d="M30.9847 42.2612V42.2592C30.9827 42.2592 30.9797 42.2578 30.9797 42.2578L30.9847 42.2612Z" fill="#CF5EC2"/>
<path d="M16.189 46.8181C16.1885 46.8186 16.1885 46.8206 16.1885 46.8206L16.189 46.8181Z" fill="#CF5EC2"/>
<path d="M28.3366 46.7074L28.3331 46.7104C28.1653 46.8179 28.0324 46.9498 27.9289 47.0848C27.8233 47.2207 27.7402 47.3656 27.6735 47.5159C27.5714 47.7609 27.5122 48.0272 27.5122 48.2976C27.5122 48.3578 27.5146 48.417 27.5226 48.4798C27.537 48.6476 27.5769 48.8129 27.6381 48.9657L27.6391 48.9707C27.6695 49.0458 27.7058 49.1215 27.7452 49.1927C26.2745 49.3276 24.5822 49.4078 22.6396 49.4078H22.6032C22.5843 49.4058 22.5654 49.4048 22.5465 49.4048C22.4827 49.4048 22.425 49.4058 22.3638 49.4058C22.306 49.4058 22.2443 49.4048 22.1835 49.4048C22.1641 49.4048 22.1457 49.4058 22.1263 49.4078H22.0909C20.3365 49.4078 18.7901 49.3426 17.4225 49.2311C17.4593 49.1126 17.4862 48.9906 17.4971 48.8641C17.5031 48.8044 17.5066 48.7436 17.5066 48.6844C17.5056 48.4126 17.4493 48.1467 17.3438 47.9003C17.2781 47.7509 17.1954 47.6055 17.0899 47.4696C16.9853 47.3362 16.8524 47.2038 16.6836 47.0977L16.6811 47.0932C16.5965 47.041 16.4984 46.9922 16.3934 46.9543L16.3944 46.9553C16.3416 46.9369 16.2863 46.921 16.2271 46.911C16.1992 46.9051 16.1679 46.8986 16.142 46.8951L16.1365 46.8936L16.1211 46.8926H16.1106C16.1385 46.8712 16.1629 46.8453 16.1893 46.8179C16.1912 46.8159 16.1947 46.8119 16.1967 46.8109H16.1992C16.2774 46.7278 16.3416 46.6417 16.3904 46.5461C16.5178 46.5904 16.6573 46.6277 16.8031 46.6437L16.8355 46.6477L17.0954 46.6591C17.2462 46.6676 17.3906 46.6093 17.4897 46.5008C17.5161 46.4769 17.5375 46.449 17.5579 46.4171C17.643 46.2837 17.6609 46.1184 17.6052 45.9701C18.9345 47.1669 20.437 48.2553 22.1412 49.1887C22.2159 49.2306 22.2975 49.252 22.3857 49.252H22.4743C22.5609 49.252 22.6446 49.2286 22.7187 49.1882C24.4787 48.205 26.0231 47.0584 27.3837 45.8018C27.3882 45.8824 27.4146 45.9611 27.4609 46.0328C27.4788 46.0617 27.5027 46.091 27.5276 46.1154C27.6272 46.2215 27.7725 46.2832 27.9229 46.2743L28.1808 46.2603L28.2151 46.2583C28.3625 46.2404 28.4984 46.2056 28.6264 46.1602C28.6782 46.2558 28.7424 46.343 28.8205 46.4251H28.822C28.824 46.4266 28.825 46.4296 28.827 46.4301C28.8539 46.458 28.8803 46.4824 28.9097 46.5073H28.9042H28.8952L28.8833 46.5092L28.8778 46.5107C28.8504 46.5127 28.8205 46.5182 28.7917 46.5232H28.7892C28.7329 46.5346 28.6782 46.5501 28.6244 46.5705C28.5178 46.6053 28.4227 46.6536 28.3366 46.7074ZM31.4079 48.6979C31.3706 48.6476 31.3303 48.6018 31.2899 48.556L31.2894 48.553L31.2606 48.5236L31.2576 48.5206L31.2342 48.4927L31.2162 48.4733C31.1879 48.4454 31.1535 48.4171 31.1296 48.3981H31.1271C31.047 48.3424 30.9524 48.304 30.8727 48.2861V48.2866C30.7896 48.2647 30.7154 48.2607 30.6427 48.2607H30.6392C30.4973 48.2607 30.3729 48.2821 30.2569 48.304C30.1434 48.3274 30.0413 48.3469 29.9432 48.3663C29.8919 48.3762 29.8456 48.3822 29.8023 48.3857H29.8038C29.7819 48.3882 29.7625 48.3892 29.7436 48.3892L29.7291 48.3912L29.7097 48.3892H29.6978H29.6639C29.5648 48.3892 29.4752 48.3822 29.3916 48.3688C29.3528 48.3593 29.3129 48.3469 29.2751 48.3379C29.2557 48.3314 29.2417 48.3249 29.2303 48.3195L29.2263 48.317H29.2258C29.2173 48.311 29.2069 48.3085 29.1994 48.3025C29.1934 48.3006 29.1914 48.2991 29.1884 48.2976C29.1874 48.2976 29.1874 48.2961 29.185 48.2961C29.173 48.2906 29.1675 48.2846 29.1596 48.2762L29.1511 48.2672C29.179 48.0959 29.1178 47.9197 28.9858 47.8037C28.9146 47.7409 28.829 47.7021 28.7394 47.6852C28.7832 47.6324 28.829 47.5916 28.8783 47.5602C28.9042 47.5423 28.9306 47.5313 28.953 47.5224C28.9664 47.5199 28.9779 47.5159 28.9873 47.5139H28.9858C28.9908 47.5139 28.9933 47.5124 28.9993 47.5124C29.0003 47.5124 29.0047 47.5139 29.0107 47.5139C29.0247 47.5199 29.0426 47.5224 29.0635 47.5289C29.1098 47.5423 29.1546 47.5582 29.2064 47.5762C29.3129 47.614 29.422 47.6523 29.5419 47.6872H29.5375C29.6599 47.723 29.7879 47.7539 29.9213 47.7733C29.991 47.7828 30.0632 47.7882 30.1384 47.7882C30.2111 47.7882 30.2882 47.7828 30.3674 47.7673H30.3699C30.5317 47.739 30.6925 47.6727 30.8304 47.5667H30.8324C30.9021 47.5159 30.9613 47.4567 31.0121 47.3959C31.0236 47.385 31.0375 47.3661 31.0525 47.3476L31.0544 47.3457L31.0639 47.3322L31.0699 47.3247C31.0724 47.3242 31.0808 47.3118 31.0903 47.2954L31.0893 47.2989L31.0987 47.2859L31.1072 47.27C31.1137 47.265 31.1181 47.2535 31.1256 47.2426L31.1271 47.2411C31.1415 47.2147 31.1535 47.1903 31.1649 47.1704C31.2227 47.0375 31.2391 46.917 31.2391 46.8109C31.2391 46.7363 31.2292 46.6676 31.2192 46.6028C31.2048 46.5232 31.1849 46.449 31.162 46.3813C31.15 46.3504 31.1386 46.3196 31.1236 46.2787C31.1037 46.2344 31.0833 46.1956 31.0674 46.1632C31.0574 46.1503 31.0504 46.1353 31.043 46.1219C31.0723 46.0124 31.0639 45.8954 31.0166 45.7898V45.7878C31.0166 45.7878 31.0146 45.7848 31.0121 45.7789C30.9185 45.5618 30.686 45.4393 30.454 45.4836C30.4371 45.4881 30.4211 45.4921 30.4042 45.4951C30.3977 45.4747 30.3898 45.4558 30.3818 45.4354C30.3101 45.2521 30.1334 45.1222 29.9352 45.1152C29.7585 45.1068 29.5932 45.1904 29.4966 45.3343C29.4837 45.1645 29.3876 45.0107 29.2337 44.9275C29.0869 44.8484 28.9146 44.8474 28.7707 44.9181C28.7941 44.8036 28.8066 44.6836 28.8066 44.5576C28.8066 44.4695 28.8006 44.3774 28.7832 44.2868C28.7707 44.2116 28.7508 44.1379 28.7274 44.0667C28.6697 43.8989 28.5288 43.772 28.356 43.7357C28.1828 43.6983 28.0025 43.7541 27.8815 43.883C26.3581 45.5061 24.5598 46.9728 22.4265 48.194C20.3857 47.0494 18.6536 45.6773 17.176 44.1553C17.06 44.0349 16.8947 43.9811 16.7309 44.007C16.5701 44.0349 16.4292 44.1389 16.359 44.2883C16.3007 44.4093 16.2579 44.5377 16.2345 44.6736C16.2176 44.7647 16.2106 44.8539 16.2106 44.944C16.2106 45.0669 16.2261 45.1904 16.249 45.3059C16.1041 45.2342 15.9308 45.2347 15.7835 45.3134C15.6326 45.3965 15.5355 45.5504 15.5221 45.7191C15.423 45.5772 15.2587 45.4936 15.083 45.4991C14.8833 45.51 14.7056 45.637 14.6369 45.8232C14.6279 45.8431 14.621 45.862 14.612 45.8824C14.5956 45.877 14.5776 45.8735 14.5627 45.8705C14.3282 45.8262 14.0982 45.9496 14.0046 46.1657C14.0036 46.1697 14.0016 46.1747 14.0016 46.1767C13.9528 46.2832 13.9434 46.3992 13.9747 46.5092C13.9673 46.5217 13.9588 46.5346 13.9518 46.5496C13.9324 46.5819 13.914 46.6183 13.8951 46.6631V46.6651C13.8771 46.7039 13.8657 46.7363 13.8562 46.7661C13.8343 46.8363 13.8134 46.911 13.798 46.9892C13.787 47.0544 13.7786 47.1226 13.7786 47.1943C13.7786 47.3033 13.794 47.4243 13.8532 47.5572C13.8652 47.5806 13.8771 47.6045 13.8891 47.6269L13.8921 47.6314C13.8981 47.6409 13.9035 47.6513 13.908 47.6578L13.92 47.6722L13.9259 47.6812C13.9344 47.6942 13.9434 47.7086 13.9518 47.7161L13.9528 47.718L13.9638 47.7345C13.9782 47.7509 13.9927 47.7673 14.0036 47.7828L14.0046 47.7848C14.0559 47.8445 14.1151 47.9003 14.1843 47.9535C14.3237 48.0576 14.4855 48.1248 14.6498 48.1537L14.6513 48.1552C14.7295 48.1671 14.8067 48.1731 14.8814 48.1731C14.955 48.1731 15.0277 48.1671 15.0964 48.1582C15.2294 48.1402 15.3563 48.1099 15.4763 48.075C15.5943 48.0392 15.7048 47.9988 15.8129 47.962C15.8616 47.9446 15.9104 47.9276 15.9562 47.9152C15.9772 47.9087 15.9951 47.9042 16.012 47.8998C16.015 47.8998 16.018 47.8998 16.02 47.8978C16.024 47.8998 16.0274 47.8998 16.0294 47.8998C16.0409 47.9013 16.0528 47.9062 16.0638 47.9102C16.0897 47.9162 16.1136 47.9296 16.1395 47.9446C16.1882 47.9784 16.2345 48.0207 16.2784 48.0715C16.1858 48.089 16.0956 48.1298 16.0239 48.197C15.896 48.314 15.8402 48.4867 15.8671 48.652L15.8582 48.662C15.8492 48.6714 15.8437 48.6754 15.8323 48.6844V48.6819C15.8323 48.6844 15.8298 48.6844 15.8298 48.6844C15.8298 48.6844 15.8233 48.6874 15.8148 48.6929C15.8069 48.6948 15.7994 48.6978 15.7919 48.7023L15.7885 48.7038C15.777 48.7098 15.7631 48.7153 15.7427 48.7232V48.7242C15.7068 48.7357 15.6665 48.7466 15.6242 48.7546C15.5425 48.768 15.4519 48.775 15.3523 48.775H15.3195H15.307H15.2881H15.2752C15.2557 48.775 15.2348 48.775 15.2144 48.7725H15.2159C15.1721 48.768 15.1248 48.7611 15.0755 48.7521C14.9784 48.7357 14.8764 48.7118 14.7599 48.6894C14.6454 48.6685 14.5234 48.6476 14.3845 48.6461H14.3745C14.3023 48.6476 14.2272 48.652 14.1435 48.673C14.0649 48.6894 13.9708 48.7287 13.8911 48.7845L13.8891 48.787C13.8627 48.8044 13.8304 48.8298 13.804 48.8577L13.7826 48.8796L13.7592 48.9035L13.7542 48.9114L13.7293 48.9393L13.7273 48.9403C13.7084 48.9627 13.6915 48.9826 13.674 49.0011C13.558 49.1415 13.5272 49.3306 13.5884 49.4994C13.6536 49.6712 13.7995 49.7922 13.9782 49.821C14.7345 49.9515 15.5684 50.0675 16.4815 50.1581C16.4954 50.1591 16.5064 50.1596 16.5208 50.1596C16.5313 50.1616 16.5427 50.1636 16.5567 50.1651C18.1409 50.3239 19.971 50.4175 22.0909 50.4175H22.1835C22.2014 50.4175 22.2159 50.4165 22.2308 50.4165H22.3603H22.3702H22.4972C22.5146 50.4165 22.5315 50.4175 22.5465 50.4175H22.6396C26.2999 50.4175 29.1063 50.1372 31.2566 49.7319C31.4179 49.7001 31.5553 49.5935 31.6225 49.4437C31.6892 49.2953 31.6803 49.1215 31.5981 48.9792C31.5389 48.8816 31.4776 48.789 31.4079 48.6979Z" fill="#CF5EC2"/>
<path d="M30.5845 46.0081C30.5845 45.9966 30.5845 45.9812 30.586 45.9678C30.59 45.9797 30.5955 45.9927 30.6015 46.0041L30.5845 46.0081ZM31.4926 37.1775H31.4892C31.4961 37.175 31.4971 37.175 31.4926 37.1775ZM36.5141 48.5507C36.4986 48.37 36.4399 48.1862 36.3378 48.0284C36.2343 47.8721 36.0775 47.7412 35.8947 47.673C35.8046 47.6386 35.71 47.6197 35.6139 47.6142C35.5617 47.6137 35.5233 47.6137 35.4825 47.6142C35.4377 47.6142 35.3994 47.6157 35.3566 47.6197C35.023 47.6326 34.7009 47.673 34.3827 47.6814C34.2274 47.6874 34.0706 47.6849 33.9172 47.6675C33.8421 47.6575 33.7634 47.6471 33.6917 47.6311C33.615 47.6137 33.5394 47.5958 33.4637 47.5734C33.161 47.4897 32.8707 47.3658 32.6113 47.194C32.3524 47.0232 32.1309 46.8002 31.9586 46.5353C31.8755 46.4054 31.8043 46.266 31.7426 46.1186C31.6893 45.9927 31.646 45.8617 31.6076 45.7268C31.6096 45.7268 31.6111 45.7283 31.6136 45.7283C31.7665 45.788 31.9293 45.8289 32.0965 45.8438C32.1822 45.8503 32.2678 45.8478 32.3524 45.8408C32.4336 45.8324 32.5177 45.8199 32.5984 45.799C32.68 45.7766 32.7642 45.7507 32.8418 45.7129C32.9205 45.6715 33.0012 45.6228 33.0694 45.5486L33.2526 45.3519L32.9753 45.3435C32.8438 45.3474 32.7129 45.3415 32.5869 45.3176C32.46 45.2937 32.3375 45.2499 32.2295 45.1846C32.1204 45.1179 32.0283 45.0298 31.9576 44.9243C31.9208 44.8705 31.8914 44.8147 31.869 44.753C31.8541 44.7206 31.8456 44.6927 31.8381 44.6604C31.8342 44.6469 31.8302 44.6335 31.8277 44.6196C31.8342 44.6191 31.8396 44.6171 31.8476 44.6171C31.8715 44.6131 31.8989 44.6111 31.9243 44.6131C31.9766 44.6161 32.0283 44.626 32.0781 44.6425C32.1782 44.6753 32.2713 44.738 32.3524 44.8147L32.4361 44.9108L32.461 44.7679C32.4794 44.6693 32.4894 44.5673 32.4938 44.4672C32.4978 44.3627 32.4938 44.2586 32.4804 44.1541C32.4535 43.945 32.3783 43.7413 32.2798 43.5581C32.2295 43.4665 32.1717 43.3779 32.1115 43.2952L32.0896 43.2634L32.0781 43.2479L32.0667 43.234C32.0478 43.2106 32.0298 43.1917 32.0134 43.1718C31.9756 43.1309 31.9362 43.0926 31.8974 43.0593C31.8162 42.9896 31.7366 42.9323 31.6609 42.878C31.6281 42.8502 31.5942 42.8248 31.5613 42.7969C31.6002 42.7929 31.6395 42.7864 31.6778 42.7745C31.7714 42.7496 31.8591 42.7068 31.9362 42.6565C32.0169 42.6062 32.0896 42.5455 32.1553 42.4852C32.222 42.4235 32.2862 42.3563 32.3475 42.2901L32.4829 42.1432L32.2862 42.1845C32.116 42.2029 31.9437 42.2029 31.7899 42.1636C31.6345 42.1253 31.4991 42.0446 31.3965 41.9261C31.3348 41.8584 31.287 41.7788 31.2462 41.6931C31.3537 41.7643 31.4722 41.8081 31.5942 41.839C31.7162 41.8654 31.8426 41.8803 31.9671 41.8828L32.1443 41.8997L32.0109 41.7678C31.9138 41.6732 31.8342 41.5662 31.7769 41.4487C31.7236 41.3297 31.6923 41.2022 31.6843 41.0728C31.6724 40.9418 31.6828 40.8079 31.7012 40.6755C31.7207 40.5401 31.7505 40.4051 31.7849 40.2717C31.8541 40.0029 31.9437 39.7365 32.0253 39.4607C32.0677 39.3233 32.1055 39.1834 32.1379 39.042C32.1717 38.9001 32.2021 38.7552 32.22 38.6054C32.2399 38.4595 32.2474 38.3052 32.2399 38.1538C32.2315 37.999 32.2026 37.8431 32.1533 37.6948C32.1045 37.5439 32.0298 37.403 31.9382 37.2746C31.8949 37.2094 31.8431 37.1511 31.7899 37.0939C31.7635 37.067 31.7361 37.0391 31.7092 37.0137C31.6948 37.0003 31.6803 36.9883 31.6649 36.9754L31.643 36.955L31.6201 36.9375C31.6201 36.9375 31.6171 36.9345 31.6161 36.9335C31.0231 36.471 29.5564 38.7139 29.2936 39.0754C28.7942 39.7689 28.3197 40.4778 27.8936 41.2082C27.7029 41.5388 27.1473 42.3299 27.1717 42.7282C27.1836 42.9268 27.5192 43.3316 27.8234 43.5711C27.8348 43.585 27.8473 43.5974 27.8582 43.6119C27.9314 43.694 28.0036 43.7722 28.0708 43.8514C28.136 43.935 28.1943 44.0201 28.2401 44.1087C28.2839 44.1964 28.3143 44.2885 28.3337 44.3836C28.3656 44.5777 28.3397 44.7799 28.2849 44.9745C28.2301 45.1712 28.1475 45.3624 28.0499 45.5471L27.9314 45.7701L28.1903 45.7572C28.3367 45.7397 28.4761 45.6964 28.6055 45.6397C28.734 45.5834 28.854 45.5102 28.964 45.4246C28.9909 45.4037 29.0158 45.3823 29.0426 45.3619C29.0312 45.4321 29.0242 45.5063 29.0272 45.5834C29.0312 45.6681 29.0441 45.7602 29.078 45.8473C29.1099 45.9329 29.1621 46.0156 29.2259 46.0798C29.2861 46.1415 29.3578 46.1903 29.4285 46.2237C29.5012 46.2605 29.5729 46.2859 29.655 46.2964L29.7974 46.3163L29.7566 46.2421C29.7566 46.1764 29.7626 46.1092 29.7735 46.0474C29.7889 45.9812 29.8084 45.921 29.8347 45.8553C29.8686 45.7756 29.9124 45.6944 29.9503 45.6123C29.9732 45.6695 29.9951 45.7268 30.0145 45.7846C30.0443 45.8821 30.0658 45.9797 30.0772 46.0793C30.0837 46.1764 30.0822 46.275 30.0742 46.3755C30.0662 46.4786 30.0508 46.5826 30.0339 46.6942L30.004 46.952L30.1564 46.7434L30.1549 46.7449C30.1564 46.7424 30.1603 46.7385 30.1638 46.736C30.1728 46.7275 30.1837 46.7185 30.1927 46.7116C30.2156 46.6951 30.24 46.6812 30.2654 46.6653C30.2878 46.6498 30.3122 46.6329 30.3386 46.6145C30.3495 46.6055 30.3635 46.5971 30.3769 46.5856C30.3849 46.5791 30.3899 46.5742 30.3963 46.5672C30.4078 46.5582 30.4098 46.5518 30.4162 46.5463C30.4909 46.4462 30.5387 46.3292 30.5611 46.2102V46.2082C30.5701 46.2297 30.5766 46.2476 30.586 46.266C30.6149 46.3198 30.6448 46.3695 30.6707 46.4144C30.6821 46.4402 30.6921 46.4612 30.7035 46.4846C30.712 46.5055 30.7204 46.5299 30.7304 46.5562C30.7458 46.6055 30.7608 46.6553 30.7692 46.7036C30.7872 46.8012 30.7862 46.8958 30.7518 46.9695C30.7463 46.9784 30.7438 46.9874 30.7384 46.9959C30.7369 46.9984 30.7349 47.0028 30.7304 47.0053L30.7204 47.0217C30.717 47.0267 30.714 47.0322 30.7085 47.0367L30.701 47.0496C30.6921 47.0606 30.6861 47.0695 30.6771 47.0785C30.6448 47.1148 30.6129 47.1487 30.5746 47.1756C30.5034 47.2299 30.4162 47.2652 30.3256 47.2826C30.2325 47.2976 30.135 47.2951 30.0339 47.2836C29.9333 47.2702 29.8308 47.2448 29.7292 47.2149C29.6281 47.1846 29.5236 47.1497 29.419 47.1114C29.3653 47.0925 29.31 47.0725 29.2537 47.0561C29.2259 47.0471 29.194 47.0377 29.1621 47.0322C29.1278 47.0257 29.0929 47.0173 29.0486 47.0163C29.0372 47.0163 29.0242 47.0163 29.0108 47.0193H29.0003L28.9859 47.0218C28.9675 47.0233 28.9515 47.0267 28.9336 47.0292C28.8998 47.0367 28.8659 47.0452 28.8355 47.0566C28.7688 47.0785 28.7086 47.1094 28.6528 47.1447C28.5398 47.2179 28.4492 47.3075 28.371 47.4051C28.2934 47.5047 28.2321 47.6137 28.1828 47.7257C28.0862 47.9498 28.0469 48.1992 28.0693 48.4417C28.0778 48.5616 28.1077 48.6816 28.1535 48.7927C28.1973 48.9052 28.258 49.0102 28.3357 49.1008L28.5826 49.4772L28.4492 49.0461C28.4153 48.9365 28.3924 48.822 28.3909 48.71C28.3855 48.5995 28.4054 48.49 28.4552 48.3949C28.5044 48.3023 28.5856 48.2291 28.6847 48.1838C28.6897 48.1818 28.6961 48.1783 28.7046 48.1773C28.7006 48.1838 28.6981 48.1937 28.6956 48.2017C28.6817 48.252 28.6782 48.3023 28.6867 48.3491C28.7016 48.4437 28.7444 48.5183 28.7917 48.5786C28.838 48.6398 28.8953 48.6896 28.964 48.7314C28.9829 48.7419 28.9988 48.7508 29.0172 48.7598C29.0158 48.7578 29.0138 48.7578 29.0118 48.7573L29.0138 48.7578L29.0172 48.7598L29.0272 48.7648L29.0386 48.7693L29.0496 48.7747C29.0815 48.7912 29.1128 48.8021 29.1447 48.8136C29.2069 48.8375 29.2706 48.8524 29.3354 48.8638C29.4603 48.8868 29.5843 48.8937 29.7003 48.8957L29.7366 48.8942L29.7615 48.8957H29.7879C29.8193 48.8942 29.8522 48.8907 29.8835 48.8882C29.9472 48.8823 30.006 48.8733 30.0632 48.8638C30.1792 48.8434 30.2853 48.819 30.3879 48.7996C30.4909 48.7797 30.59 48.7648 30.6746 48.7648C30.7169 48.7648 30.7573 48.7678 30.7896 48.7777C30.824 48.7847 30.8509 48.7966 30.8728 48.8131C30.8852 48.8195 30.8942 48.8285 30.9056 48.8409L30.9325 48.8688L30.9564 48.8972C30.9903 48.9365 31.0231 48.9744 31.0525 49.0182C31.1137 49.0973 31.1705 49.1815 31.2228 49.2671C31.2721 49.3572 31.3174 49.4498 31.3587 49.5474C31.4005 49.642 31.4428 49.7461 31.4827 49.8451L31.512 49.9223L31.526 49.9587L31.5409 49.9995C31.5648 50.0532 31.5902 50.1105 31.6206 50.1638C31.6828 50.2708 31.7595 50.3679 31.8476 50.4495C31.871 50.47 31.8919 50.4894 31.9178 50.5083C31.9292 50.5168 31.9407 50.5277 31.9521 50.5367L31.9636 50.5456L31.9701 50.5481C31.9785 50.5541 31.985 50.5601 31.9935 50.5641C32.0517 50.6019 32.1229 50.6238 32.1876 50.6308C32.2514 50.6387 32.3121 50.6328 32.3674 50.6293C32.4166 50.6263 32.461 50.6238 32.4873 50.6318L32.5212 50.6611C32.5406 50.7473 32.5456 50.8394 32.5356 50.93C32.5242 51.043 32.4913 51.155 32.445 51.2621C32.4007 51.3691 32.3375 51.4692 32.2623 51.5518C32.1876 51.6399 32.098 51.7101 31.9989 51.7495L31.6026 51.9113L32.0368 51.8829C32.1423 51.8754 32.2464 51.8446 32.3455 51.8032C32.4445 51.7624 32.5356 51.7086 32.6223 51.6454C32.792 51.5214 32.9379 51.3646 33.0539 51.1914C33.1699 51.0156 33.258 50.8239 33.3148 50.6208C33.372 50.4187 33.3974 50.2056 33.374 49.9875C33.3611 49.8805 33.3352 49.7724 33.2909 49.6679C33.2645 49.6087 33.2351 49.5668 33.2043 49.521C33.1724 49.4772 33.1376 49.4374 33.0997 49.3971C32.9528 49.2447 32.7721 49.1307 32.5775 49.0575C32.4834 49.0237 32.3967 48.9893 32.3181 48.9425C32.2399 48.8992 32.1762 48.8424 32.1403 48.7727C32.1309 48.7573 32.1244 48.7374 32.1189 48.7215C32.1174 48.713 32.1174 48.708 32.1159 48.704L32.1139 48.6981L32.1115 48.6896C32.1095 48.6821 32.1095 48.6742 32.1075 48.6647C32.1075 48.6592 32.1075 48.6518 32.1095 48.6478C32.1189 48.6328 32.1309 48.6199 32.1423 48.6089C32.1632 48.602 32.1911 48.5995 32.222 48.602C32.2598 48.607 32.3026 48.6189 32.3405 48.6328C32.4156 48.6622 32.4744 48.719 32.5341 48.7902C32.5904 48.8579 32.6447 48.9425 32.7144 49.0237C32.8548 49.1815 33.0181 49.308 33.1814 49.421C33.3462 49.5345 33.508 49.639 33.6618 49.754C33.6967 49.7809 33.7345 49.8108 33.7688 49.8397C33.7888 49.8566 33.8057 49.8695 33.8231 49.8865C33.8375 49.9014 33.855 49.9168 33.8704 49.9318C33.9282 49.9875 33.9745 50.0572 34.0088 50.1294C34.0437 50.2016 34.0616 50.2808 34.075 50.3679C34.087 50.4525 34.0895 50.5456 34.0895 50.6377C34.0895 50.7323 34.0885 50.8304 34.0885 50.9315C34.0885 50.9808 34.0885 51.0311 34.0895 51.0828C34.0934 51.1426 34.0994 51.1968 34.1099 51.2496C34.1213 51.3024 34.1313 51.3557 34.1462 51.4064C34.1612 51.4537 34.1756 51.5045 34.1945 51.5518C34.2323 51.6534 34.2752 51.7495 34.3364 51.8441C34.3508 51.866 34.3683 51.8899 34.3867 51.9128C34.3976 51.9272 34.4061 51.9377 34.4176 51.9491C34.4255 51.9556 34.441 51.971 34.4524 51.98C34.4967 52.0218 34.5545 52.0572 34.6122 52.0781C34.6725 52.098 34.7317 52.1059 34.784 52.1064C34.8183 52.1089 34.8487 52.1064 34.8786 52.1045C34.8776 52.1951 34.8592 52.2842 34.8183 52.3618C34.7681 52.4639 34.6919 52.5525 34.6087 52.6407C34.5286 52.7288 34.441 52.804 34.3394 52.8667C34.2398 52.9284 34.1283 52.9822 34.0203 53.0419L33.8127 53.1395L34.0486 53.1649C34.1168 53.1709 34.1875 53.1704 34.2587 53.1624C34.3259 53.1534 34.3942 53.1385 34.4584 53.1171C34.5928 53.0758 34.7163 53.0106 34.8293 52.9334C35.0573 52.7756 35.2425 52.5705 35.3834 52.3325C35.4193 52.2732 35.4516 52.211 35.4785 52.1483C35.5044 52.085 35.5278 52.0208 35.5482 51.9561C35.5716 51.8929 35.59 51.8271 35.605 51.7604C35.6139 51.7286 35.6209 51.6952 35.6284 51.6599L35.6378 51.6106C35.6378 51.6031 35.6403 51.5902 35.6428 51.5782C35.6433 51.5673 35.6433 51.5563 35.6458 51.5454V51.4473C35.6458 51.4348 35.6473 51.4234 35.6473 51.4164C35.6498 51.4124 35.6498 51.4094 35.6513 51.4055V51.4L35.6547 51.391C35.6587 51.383 35.6622 51.3761 35.6657 51.3701C35.6692 51.3646 35.6722 51.3631 35.6772 51.3557C35.6926 51.3387 35.723 51.3099 35.7503 51.281C35.7558 51.273 35.7618 51.2646 35.7698 51.2581L35.7767 51.2491L35.7872 51.2352C35.7966 51.2182 35.8091 51.2023 35.82 51.1844C35.8409 51.1471 35.8604 51.1082 35.8723 51.0624C35.8858 51.0181 35.8892 50.9658 35.8803 50.9165C35.8758 50.8653 35.8604 50.8215 35.839 50.7826C35.819 50.7413 35.7941 50.7089 35.7673 50.6786C35.7558 50.6641 35.7409 50.6502 35.7319 50.6377L35.6956 50.6014C35.6458 50.5541 35.5985 50.5083 35.5537 50.466C35.4631 50.3779 35.3854 50.2947 35.3361 50.1971C35.3217 50.1737 35.3102 50.1488 35.3018 50.1234L35.2694 50.0318C35.246 49.9701 35.2231 49.9084 35.1992 49.8451C35.1499 49.7247 35.0917 49.6032 35.0294 49.4852C34.9677 49.3667 34.896 49.2512 34.8173 49.1417C34.7959 49.1153 34.7765 49.0869 34.7561 49.06L34.7392 49.0421C34.7317 49.0336 34.7272 49.0262 34.7198 49.0207C34.7078 49.0062 34.6949 48.9943 34.6819 48.9799C34.6341 48.9291 34.5774 48.8848 34.5196 48.8464C34.4041 48.7678 34.2866 48.71 34.1756 48.6508C34.1283 48.6219 34.0825 48.5935 34.0372 48.5621C34.1044 48.5786 34.1721 48.602 34.2388 48.6274C34.3708 48.6796 34.5032 48.7439 34.652 48.7966C34.7242 48.8195 34.8024 48.8424 34.8836 48.8559C34.9015 48.8579 34.9234 48.8619 34.9453 48.8639C34.9632 48.8644 34.9831 48.8668 35.003 48.8688C35.0429 48.8708 35.0847 48.8728 35.133 48.8683C35.1564 48.8643 35.1833 48.8614 35.2121 48.8524C35.2405 48.8434 35.2719 48.8285 35.3038 48.8071C35.3321 48.7842 35.3565 48.7543 35.3715 48.7269C35.3894 48.6981 35.3993 48.6727 35.4058 48.6488C35.4222 48.602 35.4327 48.5621 35.4422 48.5263C35.4516 48.489 35.4631 48.4531 35.4745 48.4203L35.4919 48.3705C35.5233 48.3685 35.5582 48.3665 35.59 48.3705C35.6622 48.3764 35.7249 48.4038 35.7787 48.4511C35.831 48.4984 35.8678 48.5617 35.8947 48.6309C35.9206 48.7025 35.9355 48.7797 35.942 48.8579C35.9535 49.0147 35.936 49.175 35.8967 49.3279C35.8758 49.4045 35.8494 49.4807 35.8146 49.5484C35.7812 49.6201 35.7379 49.6858 35.6871 49.7366L35.3057 50.0652L35.7653 49.8397C35.9181 49.7645 36.06 49.6634 36.1805 49.5345C36.2397 49.4703 36.292 49.3991 36.3403 49.3234C36.3846 49.2482 36.421 49.1651 36.4508 49.0819C36.5091 48.9121 36.529 48.7289 36.5141 48.5507Z" fill="#CF5EC2"/>
<path d="M14.4858 46.3907C14.4918 46.3782 14.4972 46.3668 14.5027 46.3543C14.5027 46.3668 14.5052 46.3792 14.5052 46.3957L14.4858 46.3907ZM8.63689 49.467C8.66577 49.5521 8.70361 49.6323 8.74842 49.709C8.79422 49.7871 8.84799 49.8568 8.90674 49.9191C9.02573 50.047 9.16911 50.1501 9.32096 50.2237L9.78148 50.4493L9.39962 50.1232C9.34735 50.0724 9.30752 50.0052 9.27167 49.935C9.23682 49.8653 9.21093 49.7921 9.19052 49.7149C9.14969 49.5596 9.13028 49.3993 9.14422 49.2444C9.1497 49.1653 9.16413 49.0896 9.19152 49.0179C9.2189 48.9462 9.25674 48.882 9.30752 48.8372C9.3588 48.7909 9.42551 48.7635 9.49521 48.757C9.52907 48.7521 9.56192 48.7531 9.59528 48.757L9.61171 48.8068C9.62515 48.8407 9.63412 48.873 9.64407 48.9124C9.65503 48.9477 9.66299 48.9871 9.67842 49.0334C9.68838 49.0587 9.69734 49.0846 9.71477 49.1125C9.72971 49.1394 9.7546 49.1688 9.78497 49.1927C9.81285 49.2136 9.84521 49.2285 9.87409 49.237C9.90296 49.2484 9.92935 49.2519 9.95474 49.2549C10.0015 49.2574 10.0434 49.2554 10.0832 49.2549C10.1036 49.2549 10.1235 49.2519 10.1424 49.2504C10.1638 49.2484 10.1843 49.2454 10.2037 49.242C10.2853 49.2285 10.363 49.2061 10.4357 49.1812C10.583 49.1309 10.7145 49.0657 10.8479 49.0139C10.9136 48.987 10.9808 48.9656 11.0495 48.9477C11.0047 48.9791 10.9599 49.0099 10.9111 49.0333C10.8006 49.0976 10.6821 49.1538 10.5666 49.231C10.5094 49.2703 10.4541 49.3166 10.4023 49.3664C10.3924 49.3794 10.3779 49.3928 10.367 49.4058C10.361 49.4117 10.353 49.4207 10.3471 49.4267L10.3301 49.4486C10.3097 49.4755 10.2883 49.4993 10.2704 49.5267C10.1897 49.6363 10.12 49.7543 10.0568 49.8693C9.99407 49.9878 9.93731 50.1077 9.88902 50.2322C9.86313 50.2949 9.83973 50.3562 9.81683 50.4174L9.78497 50.5085C9.776 50.5344 9.76455 50.5583 9.74962 50.5837C9.70083 50.6788 9.62515 50.7644 9.53305 50.8515C9.48874 50.8949 9.43945 50.9387 9.39315 50.9875L9.35531 51.0253C9.34586 51.0343 9.32992 51.0487 9.31847 51.0656C9.29258 51.096 9.26819 51.1298 9.24678 51.1692C9.22537 51.208 9.21093 51.2538 9.20297 51.3021C9.19699 51.3524 9.20196 51.4042 9.21392 51.448C9.22537 51.4943 9.24528 51.5351 9.2662 51.5695C9.27765 51.5884 9.2891 51.6048 9.30204 51.6212L9.30901 51.6332L9.31797 51.6441C9.32444 51.6516 9.32992 51.6576 9.3354 51.6675C9.36178 51.6959 9.39315 51.7248 9.40808 51.7397C9.41405 51.7472 9.41854 51.7512 9.42153 51.7577C9.42302 51.7606 9.4275 51.7711 9.43098 51.7781L9.43446 51.7865V51.791C9.43695 51.793 9.43695 51.7985 9.43695 51.8015C9.43944 51.8079 9.44044 51.8204 9.44044 51.8338C9.44044 51.8582 9.43943 51.8931 9.44044 51.9334C9.44242 51.9424 9.44242 51.9528 9.44541 51.9648C9.44642 51.9762 9.4489 51.9887 9.4489 51.9971L9.46035 52.0474C9.46533 52.0803 9.47329 52.1131 9.48076 52.1445C9.4952 52.2107 9.51461 52.2779 9.53801 52.3421C9.55643 52.4084 9.58183 52.4696 9.60771 52.5348C9.63659 52.597 9.66895 52.6578 9.70331 52.7195C9.84271 52.956 10.0309 53.1626 10.2564 53.3175C10.3704 53.3951 10.4939 53.4608 10.6248 53.5037C10.6911 53.5226 10.7603 53.5395 10.8305 53.5465C10.8987 53.5549 10.9694 53.5574 11.0391 53.549L11.2736 53.5256L11.0665 53.4265C10.9579 53.3662 10.8479 53.3145 10.7463 53.2527C10.6453 53.1905 10.5576 53.1168 10.477 53.0267C10.3953 52.9391 10.3172 52.8485 10.2679 52.7484C10.2285 52.6682 10.2081 52.5806 10.2066 52.4905C10.237 52.491 10.2704 52.493 10.3022 52.493C10.355 52.491 10.4138 52.485 10.475 52.4641C10.5342 52.4417 10.589 52.4089 10.6363 52.3665C10.6453 52.3576 10.6617 52.3421 10.6687 52.3327C10.6801 52.3247 10.6906 52.3108 10.6995 52.2993C10.718 52.2749 10.7344 52.2535 10.7513 52.2306C10.812 52.134 10.8554 52.0379 10.8912 51.9404C10.9111 51.8931 10.9261 51.8418 10.9405 51.791C10.9539 51.7397 10.9669 51.6894 10.9773 51.6382C10.9868 51.5849 10.9943 51.5296 10.9953 51.4689C10.9978 51.4201 11.0002 51.3668 10.9977 51.3155C10.9977 51.2145 10.9953 51.1189 10.9953 51.0253C10.9953 50.9297 11.0002 50.8391 11.0117 50.7525C11.0216 50.6673 11.0455 50.5877 11.0799 50.5135C11.1118 50.4418 11.1596 50.3741 11.2158 50.3173C11.2322 50.3024 11.2482 50.2855 11.2656 50.272C11.2825 50.2566 11.3 50.2412 11.3174 50.2272C11.3537 50.1968 11.3896 50.168 11.4274 50.1401C11.5773 50.0256 11.7416 49.922 11.9073 49.8075C12.0696 49.6905 12.232 49.57 12.3738 49.4107C12.444 49.3276 12.4983 49.2454 12.5546 49.1752C12.6138 49.1035 12.6726 49.0498 12.7467 49.0189C12.7846 49.0035 12.8264 48.9935 12.8647 48.987C12.8946 48.9846 12.9245 48.987 12.9444 48.9945C12.9558 49.0065 12.9668 49.0209 12.9787 49.0328V49.0508C12.9787 49.0587 12.9787 49.0682 12.9743 49.0772L12.9733 49.0846L12.9708 49.0911C12.9708 49.0946 12.9698 49.1006 12.9698 49.106C12.9623 49.124 12.9558 49.1414 12.9464 49.1598C12.91 49.2285 12.8483 49.2858 12.7701 49.3306C12.692 49.3744 12.6028 49.4077 12.5102 49.4431C12.3171 49.5173 12.1364 49.6283 11.9855 49.7836C11.9506 49.821 11.9163 49.8628 11.8834 49.9076C11.8516 49.9524 11.8232 49.9962 11.7968 50.053C11.752 50.1565 11.7256 50.2651 11.7137 50.3721C11.6873 50.5907 11.7162 50.8037 11.7719 51.0074C11.8302 51.209 11.9188 51.4027 12.0343 51.5754C12.1498 51.7512 12.2957 51.9055 12.4654 52.0325C12.5501 52.0942 12.6437 52.149 12.7413 52.1918C12.8403 52.2311 12.9444 52.26 13.0519 52.2665L13.4861 52.2973L13.0888 52.1375C12.9877 52.0952 12.8986 52.0245 12.8229 51.9384C12.7477 51.8532 12.6875 51.7542 12.6402 51.6491C12.5944 51.5421 12.562 51.4296 12.5501 51.3136C12.5411 51.2254 12.5471 51.1318 12.566 51.0477L12.5979 51.0198C12.6262 51.0104 12.6701 51.0129 12.7193 51.0153C12.7756 51.0198 12.8368 51.0253 12.9006 51.0178C12.9653 51.0094 13.0335 50.9875 13.0947 50.9501C13.1002 50.9471 13.1072 50.9407 13.1161 50.9362L13.1246 50.9297L13.1351 50.9212C13.1465 50.9123 13.159 50.9033 13.1709 50.8949C13.1933 50.8749 13.2162 50.857 13.2391 50.8381C13.3287 50.7545 13.4059 50.6584 13.4651 50.5498C13.4955 50.4981 13.5229 50.4418 13.5448 50.3841L13.5622 50.3432L13.5757 50.3099L13.6055 50.2302C13.6454 50.1291 13.6862 50.0306 13.727 49.933C13.7703 49.8369 13.8156 49.7423 13.8659 49.6542C13.9177 49.5656 13.973 49.4824 14.0362 49.4013C14.0661 49.3624 14.0984 49.3216 14.1313 49.2833L14.1572 49.2554L14.1816 49.226C14.195 49.2136 14.205 49.2061 14.2164 49.1986C14.2393 49.1812 14.2657 49.1688 14.2981 49.1628C14.3294 49.1543 14.3693 49.1513 14.4141 49.1513C14.4997 49.1513 14.5983 49.1653 14.7003 49.1862C14.8014 49.2061 14.9109 49.2285 15.0245 49.2504C15.0832 49.2599 15.1424 49.2673 15.2042 49.2758C15.235 49.2778 15.2679 49.2783 15.3018 49.2798H15.3262H15.3525H15.3889C15.5049 49.2783 15.6264 49.2743 15.7538 49.2504C15.8171 49.237 15.8813 49.2225 15.9445 49.2011C15.9739 49.1887 16.0052 49.1752 16.0376 49.1618L16.0501 49.1558L16.0605 49.1514L16.072 49.1454L16.0754 49.1424C16.073 49.1449 16.072 49.1454 16.072 49.1454C16.0894 49.1379 16.1073 49.128 16.1247 49.117C16.1934 49.0772 16.2497 49.0264 16.298 48.9657C16.3453 48.9034 16.3881 48.8297 16.403 48.7356C16.4085 48.6898 16.4085 48.6371 16.3936 48.5858C16.3906 48.5773 16.3881 48.5708 16.3846 48.5619C16.3906 48.5659 16.3991 48.5684 16.4035 48.5708C16.5036 48.6162 16.5823 48.6873 16.6345 48.7819C16.6838 48.8731 16.7013 48.9866 16.6988 49.0976C16.6953 49.2096 16.6724 49.3216 16.638 49.4326L16.5051 49.8628L16.7535 49.4884C16.8307 49.3958 16.8904 49.2908 16.9367 49.1797C16.9796 49.0682 17.0089 48.9462 17.0199 48.8258C17.0428 48.5833 17.0015 48.3354 16.9044 48.1103C16.8566 47.9978 16.7944 47.8898 16.7182 47.7912C16.6405 47.6931 16.5474 47.602 16.4369 47.5313C16.3791 47.496 16.3189 47.4666 16.2547 47.4422C16.2213 47.4312 16.1885 47.4218 16.1536 47.4158C16.1387 47.4123 16.1193 47.4103 16.1018 47.4068L16.0894 47.4049L16.0779 47.4034C16.064 47.4024 16.053 47.4024 16.0411 47.4024C15.9938 47.4034 15.9599 47.4103 15.9271 47.4188C15.8952 47.4253 15.8644 47.4342 15.834 47.4422C15.7797 47.4601 15.7245 47.4775 15.6682 47.496C15.5621 47.5338 15.4616 47.5701 15.3595 47.6C15.256 47.6314 15.1539 47.6558 15.0538 47.6677C14.9543 47.6827 14.8557 47.6827 14.7636 47.6672C14.6725 47.6513 14.5868 47.6159 14.5122 47.5607C14.4768 47.5338 14.4449 47.5009 14.4121 47.4641C14.4046 47.4566 14.3967 47.4467 14.3892 47.4362L14.3782 47.4218C14.3747 47.4188 14.3723 47.4133 14.3668 47.4068L14.3588 47.3929C14.3548 47.3899 14.3528 47.3859 14.3494 47.3804C14.3459 47.372 14.3399 47.364 14.3359 47.3531C14.3031 47.2834 14.3026 47.1858 14.3205 47.0902C14.3284 47.0409 14.3414 46.9916 14.3588 46.9403C14.3668 46.9169 14.3752 46.89 14.3847 46.8711C14.3952 46.8477 14.4066 46.8248 14.4196 46.8014C14.4449 46.7561 14.4743 46.7073 14.5027 46.6516C14.5112 46.6332 14.5181 46.6147 14.5286 46.5948V46.5968C14.5495 46.7148 14.5958 46.8323 14.674 46.9324C14.6799 46.9388 14.6824 46.9428 14.6909 46.9518C14.6993 46.9587 14.7048 46.9672 14.7118 46.9727C14.7237 46.9821 14.7372 46.9936 14.7486 47.0006C14.7755 47.0195 14.8009 47.0344 14.8243 47.0519C14.8497 47.0673 14.8716 47.0822 14.8935 47.0986C14.906 47.1051 14.9159 47.1136 14.9234 47.1206C14.9279 47.1245 14.9314 47.128 14.9324 47.13C14.9324 47.13 14.9324 47.1295 14.9314 47.1295L15.0847 47.3381L15.0528 47.0782C15.0374 46.9692 15.022 46.8651 15.0125 46.7616C15.0045 46.659 15.003 46.5619 15.0125 46.4639C15.022 46.3668 15.0439 46.2702 15.0732 46.1716C15.0927 46.1149 15.1136 46.0566 15.138 45.9974C15.1778 46.08 15.2201 46.1632 15.2535 46.2428C15.2789 46.3046 15.2998 46.3668 15.3132 46.4315C15.3262 46.4962 15.3316 46.5619 15.3316 46.6292L15.2928 46.7023L15.4352 46.6829C15.5139 46.67 15.5885 46.6446 15.6592 46.6112C15.7309 46.5769 15.8011 46.5286 15.8643 46.4669C15.9271 46.4031 15.9774 46.3195 16.0117 46.2339C16.0436 46.1442 16.0585 46.0531 16.0605 45.97C16.064 45.8918 16.0585 45.8171 16.0466 45.7464C16.072 45.7684 16.0959 45.7898 16.1227 45.8107C16.2323 45.8968 16.3542 45.97 16.4837 46.0238C16.6136 46.082 16.7525 46.1243 16.8979 46.1412L17.1563 46.1567L17.0408 45.9326C16.9417 45.7489 16.8586 45.5573 16.8033 45.3616C16.7481 45.1669 16.7237 44.9628 16.756 44.7711C16.7734 44.6736 16.8058 44.5809 16.8491 44.4928C16.8949 44.4042 16.9522 44.3206 17.0179 44.2384C17.0841 44.1578 17.1563 44.0816 17.229 43.9984C17.2429 43.984 17.2519 43.9716 17.2653 43.9601C17.57 43.7162 17.9041 43.3139 17.9175 43.1142C17.9419 42.7169 17.3853 41.9253 17.1956 41.5948C16.769 40.8644 16.2935 40.153 15.7941 39.4604C15.5338 39.0985 14.0661 36.8571 13.4706 37.3186C13.4691 37.3196 13.4691 37.3211 13.4666 37.3216L13.4447 37.342L13.4218 37.3604C13.4084 37.3714 13.3935 37.3863 13.3795 37.4013C13.3506 37.4277 13.3232 37.4525 13.2959 37.4809C13.2451 37.5372 13.1933 37.5964 13.1475 37.6587C13.0569 37.7871 12.9822 37.931 12.9354 38.0794C12.8836 38.2297 12.8568 38.384 12.8488 38.5374C12.8403 38.6932 12.8483 38.8416 12.8662 38.9919C12.8856 39.1388 12.9135 39.2852 12.9479 39.4271C12.9822 39.5695 13.0201 39.7074 13.0624 39.8463C13.1415 40.1206 13.2311 40.3889 13.3013 40.6598C13.3377 40.7922 13.3671 40.9266 13.3875 41.0596C13.4059 41.195 13.4168 41.3274 13.4044 41.4579C13.3939 41.5893 13.3646 41.7167 13.3098 41.8352C13.2545 41.9542 13.1739 42.0593 13.0778 42.1544L12.9444 42.2853L13.1191 42.2694C13.2451 42.2679 13.3705 42.2524 13.494 42.2231C13.614 42.1952 13.733 42.1489 13.84 42.0802C13.7992 42.1658 13.7504 42.245 13.6917 42.3132C13.5886 42.4297 13.4517 42.5103 13.2959 42.5502C13.1415 42.5915 12.9708 42.589 12.8025 42.5676L12.6058 42.5293L12.7393 42.6766C12.8005 42.7433 12.8647 42.8076 12.9304 42.8693C12.9996 42.9325 13.0718 42.9893 13.15 43.0416C13.2287 43.0923 13.3153 43.1347 13.4104 43.16C13.4482 43.172 13.4861 43.177 13.5264 43.183C13.494 43.2103 13.4597 43.2382 13.4253 43.2631C13.3496 43.3189 13.2695 43.3756 13.1913 43.4428C13.151 43.4797 13.1122 43.5145 13.0753 43.5563C13.0569 43.5758 13.04 43.5977 13.0225 43.6176L13.0086 43.636L12.9976 43.6494L12.9742 43.6793C12.9135 43.765 12.8582 43.8511 12.808 43.9447C12.7069 44.1289 12.6342 44.3295 12.6083 44.5401C12.5929 44.6457 12.5889 44.7482 12.5929 44.8523C12.5979 44.9539 12.6113 45.0549 12.6262 45.1545L12.6491 45.2969L12.7358 45.1968C12.8169 45.1221 12.908 45.0604 13.0086 45.028C13.0604 45.0106 13.1122 45.0011 13.1624 44.9987C13.1898 44.9977 13.2162 44.9987 13.2406 45.0036C13.2466 45.0041 13.2545 45.0061 13.26 45.0061C13.2575 45.0211 13.2545 45.0325 13.2506 45.047C13.2426 45.0778 13.2311 45.1087 13.2197 45.1391C13.1958 45.1988 13.1664 45.2551 13.1306 45.3103C13.0604 45.4169 12.9668 45.5055 12.8582 45.5707C12.7507 45.6369 12.6287 45.6802 12.5013 45.7036C12.3763 45.7265 12.2429 45.734 12.1115 45.728L11.8361 45.7395L12.0184 45.9351C12.0876 46.0083 12.1652 46.0596 12.2444 46.0984C12.3245 46.1368 12.4062 46.1632 12.4878 46.1841C12.5715 46.2075 12.6536 46.2189 12.7363 46.2274C12.8204 46.2368 12.9065 46.2368 12.9902 46.2299C13.159 46.2144 13.3183 46.1766 13.4726 46.1149C13.4726 46.1149 13.4786 46.1149 13.4801 46.1149C13.4427 46.2473 13.3984 46.3772 13.3452 46.5057C13.2844 46.6516 13.2132 46.79 13.1266 46.9224C12.9583 47.1853 12.7358 47.4093 12.4749 47.5781C12.218 47.7508 11.9272 47.8733 11.625 47.958C11.5489 47.9799 11.4727 47.9988 11.395 48.0157C11.3223 48.0336 11.2467 48.0446 11.171 48.0545C11.0162 48.0695 10.8613 48.0725 10.703 48.0685C10.3864 48.0575 10.0652 48.0187 9.72968 48.0038C9.68935 48.0013 9.64753 48.0008 9.60471 47.9988C9.5619 47.9988 9.52456 47.9978 9.47328 48.0008C9.37868 48.0062 9.2811 48.0242 9.19149 48.0575C9.00877 48.1272 8.85145 48.2572 8.74839 48.415C8.64633 48.5738 8.58758 48.755 8.57165 48.9363C8.5587 49.115 8.57615 49.2957 8.63689 49.467Z" fill="#CF5EC2"/>
<path d="M19.0011 10.0316C18.7118 10.1167 18.9284 10.1296 18.7043 10.2198C18.4235 10.286 18.7347 10.2352 18.1114 10.3437C18.5689 10.756 19.2649 11.0666 20.055 10.7958C19.8962 12.1734 19.0354 12.8485 17.6195 12.9699C17.7305 13.2836 18.2543 13.6938 18.5389 13.9096C18.8234 14.1254 17.055 15.3956 17.5171 15.4076L27.9478 15.4629C27.8124 15.1535 28.468 15.1748 27.8882 14.886C27.3083 14.5971 26.2956 13.9979 26.213 13.6367C26.6939 13.8035 27.2452 14.0015 27.5369 13.5495C27.0943 13.1407 26.6253 12.6618 26.6099 11.8378C26.6014 11.4355 26.6477 11.0338 26.6826 10.6295C26.7155 10.283 26.6298 9.96136 26.6413 9.60788C26.7264 9.67459 26.7463 9.78412 26.8349 9.84735C26.821 9.59493 26.8474 9.33455 26.7901 9.08462C26.7209 8.78142 26.4098 8.47325 26.4655 8.15511C26.5955 8.13072 26.7145 8.2049 26.8409 8.2283C26.7588 7.95995 26.588 7.68065 26.4152 7.46259C26.1349 7.11458 25.6923 7.00107 25.4434 6.61323C25.6226 6.58137 25.8293 6.60825 26.018 6.60825C26.1832 6.60825 26.4307 6.50918 26.581 6.53158C26.2888 6.49225 26.0722 6.39865 25.8193 6.26971C25.7461 6.23336 25.1825 5.93265 25.1417 5.95207C25.4106 5.83507 25.6112 5.7126 25.9014 5.67526C26.1778 5.63841 26.4367 5.5254 26.7035 5.45819C26.4441 5.34866 26.128 5.42085 25.8576 5.37903C25.7267 5.35912 24.7404 5.11915 24.6777 5.2237C24.852 4.92996 25.1467 4.69696 25.308 4.40172C25.2064 4.43608 25.0984 4.46644 24.9914 4.49781C24.3735 4.66658 23.8866 4.91054 23.2299 4.82989C22.8451 4.78209 22.5578 4.88266 22.1949 4.9439C21.7991 5.00912 21.4197 5.03351 21.0752 5.26701C21.1508 5.21424 21.2176 5.13508 21.2663 5.05243C20.9238 5.13508 20.6639 5.38849 20.295 5.44624C20.0102 5.49254 19.717 5.46566 19.4352 5.54183C19.126 5.62647 18.9722 5.86096 18.7979 6.11089C18.7257 6.21494 18.7004 6.39218 18.6132 6.47582C18.5027 6.58137 18.3205 6.59979 18.2015 6.70583C18.1174 6.78051 18.0238 7.01053 17.9381 7.05334C17.4253 7.2953 17.1669 7.40484 17.0176 8.01024V8.38812C17.1176 8.78143 17.3118 9.08164 17.5125 9.37289C17.9556 8.91934 18.3887 8.83768 19.2993 8.85013C19.4148 8.81628 20.0844 8.97659 19.9829 9.05525L19.1947 10.0042" fill="#CF5EC2"/>
<path d="M20.0239 7.10524C20.0239 7.10524 20.1429 6.54066 20.9211 6.33853L21.2955 6.20112C21.2955 6.20112 21.4777 6.76271 20.8892 7.12266C20.3022 7.47764 20.3859 7.3233 20.0239 7.10524Z" fill="#CF5EC2"/>
<path d="M22.7092 3.01463C22.7092 3.01463 22.7092 3.01562 22.7117 3.01562C22.7117 3.01562 22.7117 3.01463 22.7092 3.01463Z" fill="#CF5EC2"/>
<path d="M22.7039 3.01243L22.7054 3.01392C22.7039 3.01242 22.7029 3.01243 22.7029 3.01243H22.7039Z" fill="#CF5EC2"/>
<path d="M22.6858 3.00267L22.6878 3.00366C22.6858 3.00366 22.6858 3.00367 22.6858 3.00267Z" fill="#CF5EC2"/>
<path d="M22.7075 3.01415L22.7095 3.01465V3.01415H22.7075Z" fill="#CF5EC2"/>
<path d="M22.6967 3.00823L22.6987 3.00972C22.6942 3.00823 22.6922 3.00823 22.6882 3.00625L22.6877 3.00377L22.6882 3.00575V3.00625H22.6907C22.6922 3.00625 22.6922 3.00823 22.6922 3.00823H22.6942C22.6967 3.00972 22.6987 3.00972 22.7026 3.0127C22.7007 3.0127 22.7007 3.0112 22.7007 3.0112C22.6987 3.00971 22.6987 3.00972 22.6967 3.00823Z" fill="#CF5EC2"/>
<path d="M22.6925 3.00806L22.6906 3.00608C22.6876 3.00558 22.6856 3.0026 22.6821 3.0021C22.6856 3.00359 22.6886 3.00607 22.6945 3.00806H22.6925Z" fill="#CF5EC2"/>
<path d="M22.7029 3.01243L22.7073 3.01392H22.7054C22.7039 3.01242 22.7029 3.01243 22.7029 3.01243Z" fill="#CF5EC2"/>
<path d="M18.583 2.17285L18.584 2.17185V2.16937L18.583 2.17285Z" fill="#CF5EC2"/>
<path d="M20.0093 1.3396L20.0098 1.33761C20.0123 1.33563 20.0123 1.33513 20.0123 1.33513L20.0093 1.3396Z" fill="#CF5EC2"/>
<path d="M25.6946 1.79928L25.6966 1.79978V1.80127L25.6946 1.79928Z" fill="#CF5EC2"/>
<path d="M25.4043 1.55125L25.4063 1.55225H25.4078L25.4043 1.55125Z" fill="#CF5EC2"/>
<path d="M25.3695 3.09176H25.368C25.368 3.09176 25.368 3.09375 25.3645 3.09375L25.3695 3.09176Z" fill="#CF5EC2"/>
<path d="M22.7188 3.0205C22.7188 3.0205 22.7187 3.021 22.7202 3.021L22.7188 3.0205Z" fill="#CF5EC2"/>
<path d="M22.7205 3.02096C22.7229 3.02096 22.7254 3.02295 22.7264 3.02295H22.7289C22.7264 3.02295 22.7254 3.02096 22.7205 3.02096Z" fill="#CF5EC2"/>
<path d="M22.7173 3.0188H22.7144V3.01581C22.7144 3.01681 22.7173 3.0188 22.7173 3.0188Z" fill="#CF5EC2"/>
<path d="M23.5176 3.20996L23.5161 3.20747V3.2055C23.5161 3.20748 23.5176 3.20897 23.5176 3.20996Z" fill="#CF5EC2"/>
<path d="M22.6819 3.00218C22.6834 3.00218 22.6834 3.00219 22.6859 3.00269V3.00218H22.6819Z" fill="#CF5EC2"/>
<path d="M23.5078 3.19241L23.5103 3.19638C23.5113 3.19886 23.5143 3.20333 23.5158 3.20581C23.5113 3.20035 23.5103 3.19638 23.5059 3.18992L23.5078 3.19638V3.19241Z" fill="#CF5EC2"/>
<path d="M22.6831 3.00217H22.6856C22.6856 3.00366 22.6856 3.00366 22.6876 3.00366C22.6856 3.00366 22.6856 3.00217 22.6831 3.00217Z" fill="#CF5EC2"/>
<path d="M22.7231 3.02096C22.7251 3.02096 22.7266 3.02295 22.7291 3.02295H22.7266C22.7266 3.02295 22.7251 3.02096 22.7231 3.02096Z" fill="#CF5EC2"/>
<path d="M25.0458 2.06865C24.9029 2.06865 24.7874 2.18565 24.7874 2.32655C24.7874 2.41069 24.8293 2.48636 24.8915 2.53266C24.8507 2.58942 24.7755 2.67804 24.6406 2.81645C24.296 3.17142 24.0272 3.31381 23.8699 3.02107C23.731 2.76915 23.7778 2.22299 23.7922 2.06616C23.8002 2.06766 23.8052 2.06865 23.8116 2.06865C23.953 2.06865 24.07 1.95614 24.07 1.81275C24.07 1.66937 23.953 1.55336 23.8116 1.55336C23.6697 1.55336 23.5542 1.66937 23.5542 1.81275C23.5542 1.91531 23.6155 2.00144 23.6996 2.04276L23.6568 2.15977C23.5219 2.42612 23.2122 2.8259 22.8911 2.69247C22.5719 2.55954 22.3126 1.289 22.3061 1.2173C22.3026 1.21133 22.3011 1.20635 22.2991 1.19988V1.19689C22.4246 1.17947 22.5237 1.07243 22.5237 0.942484C22.5237 0.799596 22.4096 0.685582 22.2678 0.685582C22.1239 0.685582 22.0084 0.799596 22.0084 0.942484C22.0084 1.07243 22.1084 1.17947 22.2349 1.19689V1.19988C22.2304 1.20636 22.2284 1.21133 22.2274 1.2173C22.2195 1.289 21.9611 2.55954 21.6419 2.69247C21.3223 2.8259 21.0111 2.42612 20.8772 2.15977L20.8538 2.10201C20.9449 2.06318 21.0111 1.97206 21.0111 1.86801C21.0111 1.72313 20.8951 1.60813 20.7533 1.60813C20.6109 1.60813 20.4954 1.72313 20.4954 1.86801C20.4954 2.00592 20.6059 2.11695 20.7468 2.12143C20.7627 2.32356 20.7881 2.79354 20.6641 3.02107C20.5043 3.31381 20.2375 3.17142 19.8905 2.81645C19.7884 2.7099 19.7192 2.63373 19.6739 2.57697C19.7306 2.53017 19.7665 2.45947 19.7665 2.38181C19.7665 2.23842 19.6505 2.12292 19.5081 2.12292C19.3687 2.12292 19.2522 2.23842 19.2522 2.38181C19.2522 2.5232 19.3687 2.63672 19.5081 2.63672C19.5479 2.63672 19.5848 2.63024 19.6171 2.61531C19.7695 3.01459 20.0881 4.08102 20.1762 4.29062C20.2823 4.54901 20.469 4.54901 20.6552 4.56494C20.6552 4.56494 20.0159 4.37177 20.6552 4.202C21.267 4.04069 23.268 4.04069 23.8778 4.202C24.5161 4.37177 23.8778 4.56494 23.8778 4.56494C24.063 4.54901 24.2497 4.54901 24.3563 4.29062C24.4494 4.06957 24.7974 2.90556 24.9363 2.55954C24.9707 2.57647 25.0085 2.58494 25.0458 2.58494C25.1887 2.58494 25.3037 2.47043 25.3037 2.32655C25.3037 2.18565 25.1887 2.06865 25.0458 2.06865Z" fill="#CF5EC2"/>
<path d="M33.7557 29.1669H32.9208H31.136V37.2671C32.4961 34.2361 33.3734 31.2957 33.7557 29.1669Z" fill="#CF5EC2"/>
<path d="M14.0622 29.1669H12.1892H11.0347C11.8412 32.1212 12.7896 35.1463 14.0622 37.9995V29.1669Z" fill="#CF5EC2"/>
<path d="M20.7561 45.7422V29.1668H17.5066V43.0692C18.4879 44.0743 19.5633 44.9456 20.7561 45.7422Z" fill="#CF5EC2"/>
<path d="M27.6912 42.503V29.1672H24.2021V45.6345C25.4508 44.7404 26.6198 43.6914 27.6912 42.503Z" fill="#CF5EC2"/>
<path d="M14.9259 28.1321H14.0337V22.9767H14.9259H15.3261L17.6208 26.1829V22.9767H18.5782V28.1321H17.6208L14.9259 24.3702V28.1321Z" fill="#CF5EC2"/>
<path d="M19.4639 28.1262H20.5915V22.9918H19.4639V28.1262Z" fill="#CF5EC2"/>
<path d="M26.2133 26.7501C26.1038 26.9582 25.9688 27.1474 25.811 27.3162C25.6527 27.4865 25.4755 27.6323 25.2778 27.7538C25.0826 27.8763 24.8671 27.9709 24.6336 28.0381C24.4026 28.1053 24.1631 28.1396 23.9117 28.1396C23.5542 28.1396 23.2147 28.0704 22.8975 27.9335C22.5834 27.7986 22.3066 27.6119 22.0711 27.3764C21.8376 27.1424 21.6514 26.8671 21.5145 26.55C21.3771 26.2328 21.3083 25.8973 21.3083 25.5368C21.3083 25.1818 21.3771 24.8478 21.5145 24.5296C21.6514 24.2135 21.8376 23.9357 22.0711 23.6997C22.3066 23.4627 22.5834 23.276 22.8975 23.1386C23.2147 23.0022 23.5542 22.9335 23.9117 22.9335C24.1566 22.9335 24.3926 22.9654 24.6181 23.0316C24.8427 23.0958 25.0528 23.1854 25.2459 23.3039C25.4426 23.4209 25.6149 23.5623 25.7712 23.7251C25.9265 23.8884 26.0595 24.0676 26.1705 24.2643C26.0595 24.322 25.9698 24.3683 25.9041 24.4052C25.8379 24.4415 25.7732 24.4734 25.7095 24.5062C25.6477 24.5356 25.579 24.571 25.5004 24.6073C25.4252 24.6471 25.3276 24.6974 25.2081 24.7532C25.0827 24.5326 24.9034 24.3529 24.6744 24.2175C24.4439 24.0801 24.191 24.0129 23.9117 24.0129C23.7021 24.0129 23.5049 24.0537 23.3197 24.1333C23.136 24.216 22.9722 24.3255 22.8328 24.4619C22.6944 24.5974 22.5874 24.7602 22.5057 24.9464C22.4265 25.1331 22.3897 25.3307 22.3897 25.5368C22.3897 25.7474 22.4265 25.9456 22.5057 26.1283C22.5874 26.315 22.6944 26.4768 22.8328 26.6162C22.9722 26.7546 23.136 26.8631 23.3197 26.9413C23.5049 27.0209 23.7021 27.0603 23.9117 27.0603C24.2004 27.0603 24.4638 26.9871 24.7008 26.8412C24.9363 26.6944 25.1205 26.5032 25.2494 26.2642C25.3699 26.3259 25.4665 26.3762 25.5402 26.4131C25.6149 26.4529 25.6841 26.4882 25.7463 26.5216C25.808 26.5545 25.8743 26.5873 25.94 26.6227C26.0062 26.658 26.0973 26.6993 26.2133 26.7501Z" fill="#CF5EC2"/>
<path d="M27.8758 27.1688H30.7699V28.1172H26.7815V22.9688H30.5269V23.9182H27.8758V25.0767H30.2172V26.075H27.8758V27.1688Z" fill="#CF5EC2"/>
<path d="M16.6308 17.9538C16.4027 17.9538 16.1862 18.0011 15.986 18.0912C15.7864 18.1793 15.6116 18.2983 15.4613 18.4522C15.3109 18.6035 15.1914 18.7803 15.1023 18.9814C15.0127 19.182 14.9689 19.3956 14.9689 19.6246C14.9689 19.8512 15.0127 20.0687 15.1023 20.2669C15.1914 20.4685 15.3109 20.6443 15.4613 20.7931C15.6116 20.944 15.7864 21.062 15.986 21.1506C16.1862 21.2392 16.4027 21.2845 16.6308 21.2845C16.8583 21.2845 17.0719 21.2392 17.2685 21.1506C17.4662 21.062 17.6424 20.944 17.7903 20.7931C17.9401 20.6443 18.0581 20.4685 18.1463 20.2669C18.2309 20.0687 18.2742 19.8512 18.2742 19.6246C18.2742 19.3956 18.2309 19.182 18.1463 18.9814C18.0581 18.7803 17.9401 18.6035 17.7903 18.4522C17.6424 18.2983 17.4662 18.1793 17.2685 18.0912C17.0719 18.0011 16.8583 17.9538 16.6308 17.9538ZM19.4477 19.6246C19.4477 20.0169 19.372 20.3804 19.2241 20.7194C19.0738 21.062 18.8707 21.3587 18.6167 21.6111C18.3618 21.864 18.0661 22.0671 17.7211 22.2125C17.3796 22.3614 17.0141 22.4346 16.6308 22.4346C16.2385 22.4346 15.8735 22.3614 15.534 22.2125C15.1929 22.0671 14.8947 21.864 14.6413 21.6111C14.3894 21.3587 14.1878 21.062 14.0414 20.7194C13.8925 20.3804 13.8193 20.0169 13.8193 19.6246C13.8193 19.2333 13.8925 18.8659 14.0414 18.5239C14.1878 18.1803 14.3894 17.8821 14.6413 17.6297C14.8947 17.3763 15.1929 17.1732 15.534 17.0298C15.8735 16.8799 16.2385 16.8067 16.6308 16.8067C17.0141 16.8067 17.3796 16.8799 17.7211 17.0298C18.0661 17.1732 18.3618 17.3763 18.6167 17.6297C18.8707 17.8821 19.0738 18.1803 19.2241 18.5239C19.372 18.8659 19.4477 19.2333 19.4477 19.6246Z" fill="#CF5EC2"/>
<path d="M25.2802 19.6461C25.2802 19.6979 25.2727 19.7845 25.2578 19.902C25.2428 20.022 25.2209 20.1499 25.196 20.2873C25.1712 20.4247 25.1398 20.5597 25.1019 20.6891C25.0641 20.8225 25.0203 20.9236 24.9705 20.9948C24.852 21.2129 24.7071 21.4145 24.5359 21.5927C24.3631 21.7744 24.1675 21.9258 23.9549 22.0542C23.7428 22.1807 23.5148 22.2803 23.2678 22.352C23.0194 22.4217 22.7655 22.458 22.5011 22.458C22.1153 22.458 21.7523 22.3833 21.4113 22.237C21.0717 22.0901 20.7735 21.8875 20.5186 21.6311C20.2617 21.3737 20.0606 21.0774 19.9117 20.7354C19.7654 20.3969 19.6907 20.0309 19.6907 19.6396C19.6907 19.2543 19.7654 18.8903 19.9117 18.5498C20.0606 18.2107 20.2617 17.913 20.5186 17.6566C20.7735 17.3997 21.0717 17.1971 21.4113 17.0507C21.7523 16.9038 22.1153 16.8302 22.5011 16.8302C22.7655 16.8302 23.0189 16.8665 23.2633 16.9352C23.5063 17.0069 23.7328 17.107 23.9459 17.228C24.157 17.3524 24.3477 17.5048 24.518 17.679C24.6897 17.8533 24.8401 18.0474 24.962 18.2625C24.8401 18.3233 24.7425 18.3735 24.6673 18.4134C24.5946 18.4537 24.5219 18.492 24.4552 18.5239C24.385 18.5568 24.3113 18.5926 24.2292 18.6324C24.149 18.6767 24.0435 18.728 23.9101 18.7932C23.7667 18.5563 23.5725 18.3621 23.3246 18.2157C23.0746 18.0688 22.8008 17.9947 22.5011 17.9947C22.2726 17.9947 22.058 18.0365 21.8579 18.1236C21.6572 18.2107 21.4845 18.3277 21.3381 18.4736C21.1882 18.622 21.0717 18.7957 20.9861 18.9964C20.9005 19.1975 20.8577 19.4111 20.8577 19.6396C20.8577 19.8671 20.9005 20.0817 20.9861 20.2823C21.0717 20.4825 21.1882 20.6597 21.3381 20.8081C21.4845 20.9584 21.6572 21.0749 21.8579 21.1581C22.058 21.2437 22.2726 21.2845 22.5011 21.2845C22.8053 21.2845 23.0851 21.2084 23.338 21.057C23.5924 20.9032 23.7941 20.707 23.9394 20.4621C23.797 20.4566 23.6736 20.4536 23.5675 20.4576C23.4615 20.4616 23.346 20.4621 23.2185 20.4621C23.0966 20.4621 22.9806 20.4631 22.873 20.4661C22.768 20.4685 22.6779 20.4685 22.6072 20.4685C22.5375 20.4685 22.5011 20.4675 22.5011 20.4621V19.6396H23.1284H23.8294C24.0699 19.6396 24.3138 19.6406 24.5623 19.6456C24.8057 19.6456 25.0462 19.6461 25.2802 19.6461Z" fill="#CF5EC2"/>
<path d="M30.8175 20.9119C30.701 21.129 30.5586 21.3306 30.3898 21.5084C30.2221 21.6881 30.0344 21.8434 29.8278 21.9739C29.6192 22.1038 29.3911 22.2044 29.1447 22.2746C28.8997 22.3448 28.6433 22.3806 28.3785 22.3806C27.9986 22.3806 27.6416 22.3099 27.3076 22.164C26.97 22.0202 26.6793 21.8225 26.4308 21.5731C26.1819 21.3241 25.9843 21.0329 25.8409 20.6978C25.695 20.3643 25.6228 20.0048 25.6228 19.6244C25.6228 19.2486 25.695 18.8936 25.8409 18.5595C25.9843 18.2225 26.1819 17.9302 26.4308 17.6793C26.6793 17.4279 26.97 17.2282 27.3076 17.0843C27.6416 16.94 27.9986 16.8683 28.3785 16.8683C28.6404 16.8683 28.8893 16.9021 29.1268 16.9708C29.3652 17.039 29.5878 17.1336 29.7934 17.2601C29.9995 17.3836 30.1842 17.5329 30.3485 17.7052C30.5138 17.8764 30.6542 18.0686 30.7697 18.2757C30.6542 18.3395 30.5591 18.3878 30.4909 18.4251C30.4197 18.4619 30.35 18.4993 30.2843 18.5316C30.2171 18.5655 30.1434 18.6003 30.0632 18.6412C29.9816 18.683 29.877 18.7333 29.7501 18.793C29.6192 18.5615 29.4305 18.3738 29.1875 18.2264C28.9445 18.0821 28.6737 18.0089 28.3785 18.0089C28.1564 18.0089 27.9473 18.0527 27.7512 18.1398C27.5555 18.2264 27.3837 18.3414 27.2384 18.4873C27.0905 18.6302 26.974 18.8015 26.8904 18.9996C26.8092 19.1973 26.7674 19.4049 26.7674 19.6244C26.7674 19.847 26.8092 20.0556 26.8904 20.2532C26.974 20.4479 27.0905 20.6202 27.2384 20.7665C27.3837 20.9139 27.5555 21.0294 27.7512 21.1126C27.9473 21.1972 28.1564 21.238 28.3785 21.238C28.6847 21.238 28.9625 21.1613 29.2139 21.0065C29.4663 20.8517 29.66 20.6481 29.7974 20.3921C29.9238 20.4594 30.0279 20.5136 30.1056 20.5535C30.1842 20.5948 30.2549 20.6306 30.3216 20.667C30.3879 20.7043 30.4571 20.7382 30.5287 20.775C30.598 20.8109 30.697 20.8572 30.8175 20.9119Z" fill="#CF5EC2"/>
<path d="M14.9858 24.3277L17.6609 28.0562H18.5008V23.0526H17.6977V26.1827C17.6977 26.2171 17.6763 26.2454 17.6449 26.2559C17.6136 26.2669 17.5787 26.2549 17.5608 26.2275L15.288 23.0526H14.9256H14.1096V28.0562H14.8499V24.37C14.8499 24.3391 14.8698 24.3098 14.9027 24.2993C14.9107 24.2983 14.9176 24.2973 14.9256 24.2973C14.9495 24.2973 14.9709 24.3068 14.9858 24.3277ZM17.6205 28.207C17.5966 28.207 17.5732 28.1951 17.5608 28.1752L15.0013 24.6065V28.1319C15.0013 28.1523 14.9933 28.1712 14.9784 28.1861C14.9659 28.1996 14.944 28.207 14.9256 28.207H14.0339C14.013 28.207 13.9936 28.1996 13.9807 28.1861C13.9652 28.1712 13.9583 28.1523 13.9583 28.1319V22.9765C13.9583 22.9571 13.9652 22.9367 13.9807 22.9222C13.9936 22.9093 14.013 22.9008 14.0339 22.9008H14.9256H15.3259C15.3523 22.9008 15.3752 22.9123 15.3891 22.9337L17.5439 25.9487V22.9765C17.5439 22.9571 17.5548 22.9367 17.5678 22.9222C17.5822 22.9093 17.6021 22.9008 17.6205 22.9008H18.5779C18.5978 22.9008 18.6168 22.9093 18.6307 22.9222C18.6451 22.9367 18.6536 22.9571 18.6536 22.9765V28.1319C18.6536 28.1523 18.6451 28.1712 18.6307 28.1861C18.6168 28.1996 18.5978 28.207 18.5779 28.207H17.6205Z" fill="#CF5EC2"/>
<path d="M19.5373 28.0471H20.5142V23.068H19.5373V28.0471ZM19.4637 28.2009C19.4418 28.2009 19.4233 28.1925 19.4074 28.1775C19.3945 28.1641 19.3855 28.1447 19.3855 28.1257V22.9918C19.3855 22.9689 19.3945 22.952 19.4074 22.9385C19.4233 22.9246 19.4418 22.9146 19.4637 22.9146H20.5913C20.6112 22.9146 20.6297 22.9246 20.6431 22.9385C20.6585 22.952 20.6665 22.9689 20.6665 22.9918V28.1257C20.6665 28.1447 20.6585 28.1641 20.6431 28.1775C20.6297 28.1925 20.6112 28.2009 20.5913 28.2009H19.4637Z" fill="#CF5EC2"/>
<path d="M22.9296 23.2073C22.6219 23.3407 22.3521 23.523 22.1265 23.754C21.8975 23.9825 21.7173 24.2523 21.5849 24.5615C21.4509 24.8667 21.3852 25.1918 21.3852 25.5368C21.3852 25.8853 21.4509 26.2139 21.5849 26.5201C21.7173 26.8298 21.8975 27.0956 22.1265 27.3251C22.3521 27.5502 22.6219 27.7324 22.9296 27.8638C23.2368 27.9988 23.5609 28.0645 23.9119 28.0645C24.1568 28.0645 24.3893 28.0316 24.6144 27.9649C24.8399 27.9007 25.049 27.8076 25.2377 27.6896C25.4309 27.5711 25.6016 27.4297 25.755 27.2649C25.8904 27.1185 26.0084 26.9597 26.1065 26.7865C26.0253 26.7491 25.9581 26.7173 25.9053 26.6899C25.8396 26.6575 25.7734 26.6227 25.7097 26.5873C25.6494 26.554 25.5812 26.5186 25.507 26.4813C25.4458 26.4499 25.3696 26.4096 25.28 26.3643C25.1471 26.5843 24.9644 26.7675 24.7403 26.9069C24.4914 27.0598 24.2141 27.1365 23.9119 27.1365C23.6908 27.1365 23.4852 27.0956 23.29 27.012C23.0964 26.9298 22.9266 26.8143 22.7807 26.669C22.6368 26.5216 22.5193 26.3523 22.4387 26.1597C22.3521 25.9655 22.3107 25.7564 22.3107 25.5368C22.3107 25.3212 22.3551 25.1141 22.4387 24.9175C22.5193 24.7223 22.6368 24.5511 22.7807 24.4082C22.9266 24.2648 23.0964 24.1513 23.29 24.0646C23.4812 23.98 23.6908 23.9357 23.9119 23.9357C24.2026 23.9357 24.472 24.0089 24.7114 24.1538C24.9335 24.2822 25.1067 24.4495 25.2372 24.6536C25.3273 24.6113 25.4065 24.5725 25.4687 24.5421C25.5449 24.5033 25.6126 24.4679 25.6753 24.4375C25.736 24.4082 25.8018 24.3728 25.8685 24.337C25.9203 24.3101 25.9845 24.2747 26.0661 24.2334C25.9666 24.0686 25.8511 23.9153 25.7181 23.7779C25.5648 23.6186 25.396 23.4826 25.2083 23.3686C25.0201 23.2546 24.814 23.167 24.5959 23.1028C24.3779 23.0425 24.1489 23.0097 23.9119 23.0097C23.5609 23.0097 23.2368 23.0744 22.9296 23.2073ZM22.8684 28.0037C22.5442 27.8628 22.2595 27.6717 22.018 27.4312C21.777 27.1897 21.5869 26.905 21.4465 26.5808C21.3051 26.2537 21.2349 25.9072 21.2349 25.5368C21.2349 25.1714 21.3051 24.8259 21.4465 24.4998C21.5869 24.1757 21.777 23.8899 22.018 23.6459C22.2595 23.403 22.5442 23.2098 22.8684 23.0699C23.1959 22.93 23.543 22.8573 23.9119 22.8573C24.1648 22.8573 24.4058 22.8912 24.6378 22.9584C24.8698 23.0251 25.0873 23.1192 25.2865 23.2387C25.4861 23.3612 25.6658 23.504 25.8257 23.6723C25.9845 23.8386 26.1234 24.0233 26.2364 24.2269C26.2464 24.2444 26.2478 24.2648 26.2434 24.2847C26.2364 24.3046 26.2234 24.322 26.2055 24.331C26.0945 24.3873 26.0064 24.4351 25.9402 24.4699C25.871 24.5082 25.8067 24.5406 25.7445 24.5725C25.6808 24.6033 25.6111 24.6392 25.5369 24.6775C25.4592 24.7158 25.3597 24.7621 25.2377 24.8214C25.2043 24.8388 25.162 24.8244 25.1421 24.789C25.0226 24.5814 24.8553 24.4126 24.6358 24.2832C24.4177 24.1538 24.1782 24.0895 23.9119 24.0895C23.7097 24.0895 23.526 24.1264 23.3503 24.204C23.174 24.2822 23.0192 24.3863 22.8863 24.5152C22.7553 24.6457 22.6518 24.7995 22.5771 24.9777C22.5014 25.1535 22.4646 25.3397 22.4646 25.5368C22.4646 25.7375 22.5014 25.9257 22.5751 26.0994C22.6518 26.2762 22.7553 26.43 22.8863 26.5629C23.0192 26.6939 23.174 26.7984 23.3493 26.8741C23.523 26.9478 23.7097 26.9851 23.9119 26.9851C24.1872 26.9851 24.4346 26.9149 24.6602 26.7765C24.8872 26.6366 25.0604 26.4544 25.1829 26.2279C25.2023 26.19 25.2481 26.1766 25.2865 26.1955C25.4045 26.2577 25.5005 26.3095 25.5767 26.3454C25.6509 26.3857 25.7186 26.421 25.7818 26.4544C25.8426 26.4882 25.9068 26.5216 25.973 26.554C26.0402 26.5868 26.1303 26.6306 26.2463 26.6814C26.2628 26.6914 26.2777 26.7048 26.2857 26.7282C26.2917 26.7471 26.2887 26.7695 26.2802 26.7865C26.1667 26.9976 26.0288 27.1922 25.866 27.3685C25.7037 27.5427 25.5205 27.6926 25.3183 27.8185C25.1172 27.944 24.8956 28.0421 24.6572 28.1113C24.4177 28.182 24.1673 28.2143 23.9119 28.2143C23.5429 28.2158 23.1959 28.1441 22.8684 28.0037Z" fill="#CF5EC2"/>
<path d="M26.8559 28.0423H30.6969V27.2457H27.8755C27.8536 27.2457 27.8347 27.2342 27.8203 27.2223C27.8068 27.2073 27.7964 27.1894 27.7964 27.1685V26.0752C27.7964 26.0563 27.8068 26.0364 27.8203 26.0224C27.8347 26.0075 27.8536 26.0005 27.8755 26.0005H30.1433V25.1527H27.8755C27.8536 25.1527 27.8347 25.1437 27.8203 25.1288C27.8068 25.1163 27.7964 25.0959 27.7964 25.0765V23.918C27.7964 23.8995 27.8068 23.8796 27.8203 23.8667C27.8347 23.8517 27.8536 23.8438 27.8755 23.8438H30.4505V23.0457H26.8559V28.0423ZM26.7812 28.1936C26.7613 28.1936 26.7414 28.1861 26.7285 28.1712C26.714 28.1583 26.7056 28.1373 26.7056 28.1174V22.969C26.7056 22.9476 26.714 22.9312 26.7285 22.9158C26.7414 22.9033 26.7613 22.8939 26.7812 22.8939H30.5287C30.5466 22.8939 30.566 22.9033 30.5804 22.9158C30.5929 22.9312 30.6038 22.9476 30.6038 22.969V23.918C30.6038 23.9389 30.5929 23.9583 30.5804 23.9712C30.566 23.9872 30.5466 23.9936 30.5287 23.9936H27.9492V24.9998H30.217C30.2389 24.9998 30.2568 25.0093 30.2703 25.0237C30.2852 25.0381 30.2932 25.0561 30.2932 25.0765V26.0752C30.2932 26.0956 30.2852 26.1145 30.2703 26.1285C30.2568 26.1434 30.2389 26.1504 30.217 26.1504H27.9492V27.0943H30.7696C30.7915 27.0943 30.8124 27.1008 30.8254 27.1142C30.8393 27.1272 30.8473 27.1476 30.8473 27.1685V28.1174C30.8473 28.1373 30.8393 28.1583 30.8254 28.1712C30.8104 28.1861 30.7915 28.1936 30.7696 28.1936H26.7812Z" fill="#CF5EC2"/>
<path d="M15.9564 21.221C15.7458 21.1274 15.5621 21.0025 15.4088 20.8466C15.2504 20.6888 15.125 20.5066 15.0334 20.298C14.9403 20.0874 14.8935 19.8619 14.8935 19.6244C14.8935 19.3854 14.9403 19.1604 15.0334 18.9498C15.125 18.7417 15.2504 18.5565 15.4063 18.3961C15.5621 18.2388 15.7458 18.1149 15.9564 18.0213C16.1665 17.9282 16.3905 17.8809 16.631 17.8809V17.9535V18.0317C16.4114 18.0322 16.2058 18.074 16.0171 18.1587C15.824 18.2438 15.6577 18.3598 15.5138 18.5057C15.3714 18.6496 15.2589 18.8183 15.1723 19.0115C15.0871 19.2032 15.0448 19.4048 15.0448 19.6244C15.0448 19.8434 15.0871 20.0466 15.1723 20.2353C15.2589 20.4309 15.3714 20.5982 15.5138 20.7401C15.6577 20.884 15.824 20.997 16.0171 21.0816C16.2058 21.1663 16.4114 21.2101 16.631 21.2101C16.8491 21.2101 17.0512 21.1663 17.2394 21.0821C17.4286 20.997 17.5939 20.884 17.7383 20.7401C17.8811 20.5982 17.9927 20.4309 18.0748 20.2377C18.157 20.0466 18.1988 19.8434 18.1988 19.6244C18.1988 19.4048 18.157 19.2032 18.0748 19.0115C17.9927 18.8168 17.8796 18.6496 17.7373 18.5057C17.5939 18.3573 17.4286 18.2438 17.2394 18.1587C17.0512 18.074 16.8491 18.0322 16.631 18.0317V17.9535V17.8809C16.8685 17.8809 17.0925 17.9282 17.3001 18.0213C17.5067 18.1149 17.687 18.2388 17.8448 18.3961C18.0011 18.5565 18.1241 18.7417 18.2137 18.9498C18.3053 19.1604 18.3511 19.3854 18.3511 19.6244C18.3511 19.8619 18.3053 20.0874 18.2137 20.298C18.1241 20.5066 18.0011 20.6888 17.8448 20.8466C17.687 21.0025 17.5067 21.1274 17.3001 21.219C17.0925 21.3131 16.8685 21.3594 16.631 21.3594C16.3905 21.3594 16.1665 21.3131 15.9564 21.221ZM15.5621 17.0967C15.231 17.2406 14.9423 17.4353 14.6943 17.6832C14.4479 17.9292 14.2537 18.2189 14.1093 18.554C13.9669 18.8875 13.8947 19.243 13.8947 19.6244C13.8947 20.0047 13.9669 20.3622 14.1093 20.6928C14.2537 21.0234 14.4479 21.3111 14.6943 21.5586C14.9423 21.805 15.231 21.9997 15.5621 22.1446C15.8932 22.2869 16.2491 22.3591 16.631 22.3591C17.0054 22.3591 17.3604 22.2869 17.6929 22.1446C18.028 21.9997 18.3168 21.805 18.5637 21.5586C18.8107 21.3111 19.0068 21.0234 19.1532 20.6888C19.2971 20.3597 19.3717 20.0047 19.3717 19.6244C19.3717 19.243 19.2971 18.8875 19.1532 18.5545C19.0068 18.2189 18.8107 17.9292 18.5637 17.6832C18.3168 17.4353 18.028 17.2406 17.6929 17.0967C17.3604 16.9528 17.0054 16.8811 16.631 16.8811C16.2491 16.8811 15.8932 16.9528 15.5621 17.0967ZM15.5028 22.2835C15.1553 22.1321 14.8497 21.9255 14.5893 21.6656C14.3279 21.4057 14.1208 21.0985 13.9704 20.75C13.8191 20.3996 13.7439 20.0247 13.7439 19.6244C13.7439 19.2251 13.8191 18.8462 13.9704 18.4947C14.1208 18.1427 14.3279 17.8365 14.5893 17.5767C14.8497 17.3148 15.1553 17.1077 15.5028 16.9573C15.8528 16.8055 16.2292 16.7313 16.631 16.7313C17.0233 16.7313 17.4002 16.8065 17.7522 16.9573C18.1032 17.1077 18.4104 17.3148 18.6703 17.5767C18.9321 17.8365 19.1397 18.1427 19.2916 18.4947C19.4464 18.8462 19.5226 19.2226 19.5226 19.6244C19.5226 20.0247 19.4464 20.3996 19.2916 20.7515C19.1397 21.0985 18.9321 21.4057 18.6703 21.6656C18.4104 21.9255 18.1032 22.1321 17.7522 22.2835C17.4002 22.4343 17.0233 22.511 16.631 22.511C16.2292 22.511 15.8528 22.4343 15.5028 22.2835Z" fill="#CF5EC2"/>
<path d="M21.4426 17.119C21.1121 17.2633 20.8203 17.46 20.5714 17.7079C20.3205 17.9594 20.1253 18.2496 19.9829 18.5792C19.839 18.9103 19.7663 19.2647 19.7663 19.6396C19.7663 20.0215 19.839 20.376 19.9829 20.7066C20.1253 21.0386 20.3205 21.3279 20.5714 21.5768C20.8203 21.8277 21.1121 22.0234 21.4426 22.1683C21.7732 22.3102 22.1237 22.3804 22.5011 22.3804C22.761 22.3804 23.0069 22.345 23.2439 22.2773C23.4849 22.2081 23.7099 22.112 23.916 21.9876C24.1246 21.8641 24.3133 21.7152 24.4796 21.541C24.6469 21.3662 24.7873 21.1726 24.9018 20.958L24.9068 20.9505C24.9496 20.8908 24.9914 20.7962 25.0273 20.6692C25.0651 20.5418 25.098 20.4083 25.1214 20.2724C25.1467 20.138 25.1682 20.0101 25.1826 19.8931C25.1911 19.8253 25.196 19.7671 25.2 19.7228C24.9914 19.7228 24.7793 19.7223 24.5603 19.7178C24.3138 19.7178 24.0699 19.7148 23.8294 19.7148H23.1279H22.5768V20.3934H22.6066C22.6778 20.3934 22.7675 20.3919 22.873 20.3909C22.9786 20.3879 23.0965 20.3859 23.2185 20.3859C23.3455 20.3859 23.4585 20.3859 23.5655 20.3824C23.6009 20.3819 23.6387 20.3805 23.68 20.3805C23.7612 20.3805 23.8473 20.3825 23.9419 20.3859C23.9688 20.3864 23.9917 20.4014 24.0066 20.4268C24.0201 20.4482 24.0201 20.4771 24.0042 20.5014C23.8523 20.7549 23.6412 20.9625 23.3773 21.1223C23.1135 21.2791 22.8187 21.3598 22.5011 21.3598C22.2636 21.3598 22.0366 21.3165 21.828 21.2273C21.6194 21.1402 21.4362 21.0192 21.2823 20.8619C21.128 20.7066 21.0065 20.5209 20.9179 20.3133C20.8263 20.1032 20.78 19.8771 20.78 19.6396C20.78 19.4012 20.8263 19.1756 20.9179 18.967C21.0065 18.7579 21.128 18.5752 21.2823 18.4199C21.4362 18.266 21.6194 18.1441 21.828 18.0545C22.0366 17.9643 22.2636 17.9205 22.5011 17.9205C22.8123 17.9205 23.102 17.9947 23.3629 18.1505C23.6004 18.2904 23.7921 18.4737 23.9379 18.6947C24.0435 18.6429 24.1276 18.6001 24.1978 18.5677C24.2755 18.5259 24.3527 18.4896 24.4209 18.4562C24.4871 18.4229 24.5583 18.3875 24.6295 18.3457C24.6897 18.3143 24.7649 18.275 24.855 18.2297C24.745 18.05 24.614 17.8817 24.4642 17.7328C24.2984 17.5606 24.1117 17.4152 23.9056 17.2947C23.7 17.1727 23.4804 17.0776 23.2409 17.0069C23.0039 16.9397 22.761 16.9059 22.5011 16.9059C22.1237 16.9059 21.7732 16.9766 21.4426 17.119ZM21.3834 22.3057C21.0334 22.1544 20.7267 21.9467 20.4638 21.6844C20.201 21.422 19.9944 21.1138 19.8435 20.7663C19.6907 20.4178 19.615 20.0399 19.615 19.6396C19.615 19.2433 19.6907 18.8695 19.8435 18.5205C19.9944 18.1719 20.201 17.8648 20.4638 17.6019C20.7267 17.339 21.0334 17.1314 21.3834 16.9811C21.7324 16.8302 22.1063 16.753 22.5011 16.753C22.7714 16.753 23.0333 16.7904 23.2847 16.8646C23.5337 16.9353 23.7662 17.0358 23.9832 17.1638C24.1978 17.2902 24.397 17.4466 24.5732 17.6263C24.7495 17.8035 24.9018 18.0052 25.0263 18.2237C25.0377 18.2416 25.0392 18.2641 25.0327 18.2845C25.0273 18.3029 25.0138 18.3188 24.9944 18.3283C24.8734 18.3895 24.7758 18.4403 24.7041 18.4786C24.6295 18.5205 24.5583 18.5593 24.4871 18.5916C24.4184 18.626 24.3447 18.6613 24.2635 18.7012C24.1824 18.743 24.0753 18.7958 23.9424 18.862C23.9081 18.8804 23.8667 18.8665 23.8448 18.8321C23.7079 18.6056 23.5232 18.4229 23.2847 18.28C23.0488 18.1396 22.7874 18.0704 22.5011 18.0704C22.283 18.0704 22.0769 18.1117 21.8857 18.1944C21.6946 18.276 21.5293 18.3875 21.3884 18.5294C21.2485 18.6678 21.1385 18.8336 21.0568 19.0253C20.9732 19.2175 20.9303 19.4201 20.9303 19.6396C20.9303 19.8572 20.9732 20.0618 21.0568 20.253C21.1385 20.4447 21.2485 20.6135 21.3884 20.7549C21.5328 20.8992 21.6946 21.0083 21.8857 21.0889C22.0769 21.1691 22.283 21.2104 22.5011 21.2104C22.7938 21.2079 23.0582 21.1362 23.2997 20.9908C23.5028 20.8689 23.6696 20.7165 23.803 20.5348C23.7592 20.5338 23.7194 20.5338 23.68 20.5338C23.6412 20.5338 23.6034 20.5338 23.569 20.5348C23.4615 20.5383 23.3455 20.5383 23.2185 20.5383C23.0965 20.5383 22.981 20.5403 22.8765 20.5428C22.7685 20.5438 22.6798 20.5458 22.6067 20.5458C22.5793 20.5458 22.5539 20.5458 22.5345 20.5438C22.5145 20.5428 22.5031 20.5438 22.4797 20.5358C22.4742 20.5338 22.4648 20.5338 22.4458 20.5134C22.4369 20.5039 22.4249 20.4855 22.4249 20.4621V19.6396C22.4249 19.6202 22.4344 19.6018 22.4478 19.5849C22.4613 19.5729 22.4827 19.564 22.5011 19.564H23.1279H23.8294C24.0699 19.564 24.3138 19.564 24.5623 19.5675C24.8092 19.5699 25.0457 19.5729 25.2802 19.5729C25.2986 19.5729 25.32 19.5794 25.333 19.5953C25.3504 19.6083 25.3568 19.6277 25.3568 19.6461C25.3568 19.7049 25.3504 19.791 25.333 19.911C25.316 20.0335 25.2976 20.1614 25.2712 20.2998C25.2458 20.4407 25.214 20.5776 25.1761 20.7111C25.1358 20.846 25.091 20.9525 25.0327 21.0332C24.9133 21.2577 24.7649 21.4613 24.5886 21.6455C24.4119 21.8302 24.2143 21.9876 23.9947 22.1185C23.7741 22.2494 23.5391 22.3515 23.2877 22.4227C23.0333 22.4944 22.7714 22.5317 22.5011 22.5317C22.1063 22.5322 21.7324 22.4581 21.3834 22.3057Z" fill="#CF5EC2"/>
<path d="M27.3369 17.155C27.0084 17.2944 26.7266 17.4881 26.4836 17.7325C26.2431 17.9775 26.0505 18.2628 25.9126 18.5874C25.7702 18.915 25.699 19.2585 25.699 19.6244C25.699 19.9948 25.7702 20.3438 25.9126 20.6669C26.0505 20.9945 26.2431 21.2768 26.4836 21.5208C26.7256 21.7627 27.0084 21.9529 27.3369 22.0943C27.6611 22.2347 28.0086 22.3054 28.3785 22.3054C28.6379 22.3054 28.8848 22.2701 29.1248 22.2009C29.3642 22.1322 29.5843 22.0351 29.7879 21.9081C29.9891 21.7837 30.1728 21.6323 30.3346 21.459C30.48 21.3022 30.6044 21.131 30.712 20.9463C30.6218 20.9039 30.5521 20.8701 30.4944 20.8412C30.4212 20.8068 30.3525 20.77 30.2853 20.7337C30.2211 20.6993 30.1489 20.663 30.0712 20.6221C30.004 20.5878 29.9238 20.5455 29.8258 20.4952C29.6859 20.7307 29.4927 20.9228 29.2537 21.0712C28.9908 21.2335 28.6966 21.3157 28.3785 21.3137C28.148 21.3137 27.9259 21.2704 27.7213 21.1832C27.5177 21.0941 27.3389 20.9741 27.1836 20.8193C27.0298 20.666 26.9093 20.4857 26.8212 20.2821C26.732 20.0775 26.6897 19.8574 26.6897 19.6244C26.6897 19.3979 26.732 19.1768 26.8212 18.9692C26.9093 18.7636 27.0298 18.5829 27.1836 18.4315C27.3389 18.2802 27.5177 18.1597 27.7213 18.0686C27.9259 17.9795 28.148 17.9347 28.3785 17.9347C28.6867 17.9322 28.9709 18.0099 29.2258 18.1622C29.4573 18.2996 29.6455 18.4788 29.78 18.6949C29.8805 18.6476 29.9622 18.6078 30.0289 18.5754C30.1125 18.5341 30.1842 18.4968 30.2504 18.4639C30.3152 18.4315 30.3819 18.3962 30.4536 18.3574C30.5098 18.328 30.5805 18.2906 30.6662 18.2458C30.5591 18.0686 30.4361 17.9078 30.2933 17.7579C30.1334 17.5892 29.9532 17.4463 29.7531 17.3243C29.5529 17.2043 29.3359 17.1102 29.1054 17.042C28.8734 16.9768 28.6319 16.9429 28.3785 16.9429C28.0086 16.9429 27.6611 17.0121 27.3369 17.155ZM27.2762 22.2347C26.9327 22.0854 26.6325 21.8837 26.3776 21.6263C26.1202 21.3714 25.919 21.0712 25.7712 20.7282C25.6228 20.3827 25.5466 20.0142 25.5466 19.6244C25.5466 19.2391 25.6228 18.8717 25.7712 18.5291C25.919 18.1856 26.1202 17.8819 26.3776 17.6265C26.6325 17.3676 26.9327 17.1625 27.2762 17.0131C27.6202 16.8663 27.9891 16.7916 28.3785 16.7916C28.6448 16.7916 28.9022 16.8264 29.1467 16.8976C29.3916 16.9683 29.6196 17.0669 29.8307 17.1948C30.0423 17.3228 30.2325 17.4766 30.4043 17.6544C30.5726 17.8301 30.7164 18.0258 30.8369 18.2389C30.8474 18.2588 30.8509 18.2782 30.8424 18.2976C30.8369 18.3185 30.824 18.334 30.8061 18.3439C30.6886 18.4047 30.5955 18.4534 30.5253 18.4928C30.4536 18.5316 30.3849 18.5655 30.3187 18.6003C30.2504 18.6322 30.1778 18.67 30.0971 18.7093C30.0145 18.7502 29.9124 18.8015 29.7844 18.8622C29.7481 18.8801 29.7033 18.8657 29.6859 18.8318C29.5594 18.6098 29.3822 18.4315 29.1482 18.2921C28.9162 18.1542 28.6623 18.086 28.3785 18.086C28.1654 18.086 27.9697 18.1263 27.7825 18.2075C27.5943 18.2906 27.4296 18.4027 27.2916 18.5391C27.1517 18.6775 27.0412 18.8403 26.9606 19.0295C26.8814 19.2182 26.8411 19.4158 26.8411 19.6244C26.8411 19.8385 26.8814 20.0362 26.9606 20.2229C27.0412 20.4096 27.1517 20.5724 27.2916 20.7132C27.4296 20.8551 27.5943 20.9622 27.7825 21.0443C27.9697 21.1235 28.1654 21.1623 28.3785 21.1623C28.6717 21.1623 28.9336 21.0891 29.1731 20.9443C29.4135 20.7939 29.5997 20.6007 29.7292 20.3578C29.7501 20.3199 29.7954 20.307 29.8307 20.3269C29.9562 20.3921 30.0623 20.4449 30.1384 20.4857C30.2196 20.5275 30.2923 20.5664 30.358 20.6022C30.4227 20.6356 30.4909 20.6724 30.5616 20.7068C30.6308 20.7411 30.7269 20.7874 30.8474 20.8422C30.8678 20.8516 30.8807 20.8681 30.8882 20.8885C30.8967 20.9074 30.8942 20.9288 30.8852 20.9463C30.7652 21.1728 30.6189 21.3759 30.4461 21.5591C30.2719 21.7453 30.0802 21.9056 29.8681 22.0371C29.6525 22.1725 29.419 22.2745 29.1661 22.3472C28.9132 22.4194 28.6503 22.4568 28.3785 22.4568C27.9891 22.4583 27.6202 22.3826 27.2762 22.2347Z" fill="#CF5EC2"/>
<path d="M22.4344 46.6499C27.9289 43.7509 30.9912 38.4566 32.683 33.0368C34.3752 27.6131 34.6903 22.0754 34.6903 18.7367C34.6903 17.279 34.6286 16.2379 34.6002 15.8128C34.5972 15.7625 34.5943 15.7207 34.5908 15.6878H10.2448C10.2428 15.7207 10.2388 15.7625 10.2373 15.8128C10.2249 15.9527 10.2134 16.1642 10.2015 16.4346C10.1726 16.9783 10.1487 17.7654 10.1487 18.7387C10.1487 22.0754 10.4588 27.6131 12.1536 33.0368C13.8453 38.4566 16.9097 43.7523 22.4041 46.6499H22.4344ZM22.3792 46.8525C22.3637 46.8525 22.3473 46.8476 22.3344 46.8401C16.7583 43.9082 13.6626 38.5497 11.9614 33.0986C10.2562 27.645 9.94604 22.0908 9.94604 18.7387C9.94604 16.7856 10.0536 15.5798 10.0536 15.5773C10.0566 15.526 10.0999 15.4857 10.1522 15.4857H34.6834C34.7352 15.4857 34.7795 15.526 34.7839 15.5773C34.7839 15.5798 34.89 16.7836 34.89 18.7367C34.89 22.0873 34.5773 27.6445 32.8776 33.0976C31.1739 38.5497 28.0777 43.9082 22.5051 46.8401C22.4907 46.8476 22.4743 46.8525 22.4564 46.8525H22.3792Z" fill="#CF5EC2"/>
<path d="M22.0677 15.8183C22.0677 15.8183 21.6032 14.8938 21.6495 14.3471C21.6923 13.7985 22.7976 13.9304 22.7976 13.9304L23.9765 13.8149L22.7921 15.2896L22.5427 14.7434L22.2778 15.54L22.1902 15.8716L22.0677 15.8183Z" fill="#CF5EC2"/>
<path d="M22.3591 48.7478H22.5608V46.7514H22.3591V48.7478Z" fill="#CF5EC2"/>
<path fill-rule="evenodd" clip-rule="evenodd" d="M8.20322 21.7008C8.53928 24.456 9.92383 27.3511 11.9949 29.5302C11.6171 28.995 10.9405 29.0657 10.4237 28.649C7.03224 25.9127 6.57421 22.1892 6.57421 22.1852C6.78331 23.8974 7.51019 25.4786 8.45016 26.9105C9.41402 28.3792 10.3002 29.4262 10.8414 31.1358C11.1555 32.1226 11.5623 33.6301 11.6086 34.6647C11.4563 34.129 9.70079 31.5894 8.11759 30.0629C5.99022 28.0107 4.81128 23.3497 4.75303 23.0784C4.75303 23.0784 5.28873 25.7703 6.50301 28.1427C8.99582 33.0103 11.4388 34.121 11.8819 37.961C11.9103 38.2055 11.8555 38.8676 11.9949 39.0777C10.9579 37.2655 7.8587 34.2634 6.06838 31.3922C3.80261 27.7548 2.90894 24.3365 2.90546 23.8516C3.18974 25.9013 4.60466 30.2581 8.51538 35.4274C11.4408 39.2968 10.583 43.7352 10.5019 44.0071C10.691 42.4294 7.59234 38.4718 5.22849 35.4782C3.35353 33.1069 0.194092 28.0844 0.194092 21.7257C0.194092 9.97165 10.3256 7.8413 14.9104 8.15246C14.9991 8.15843 15.2928 8.54129 15.3525 8.54677C15.3525 8.54677 13.0375 8.27295 13.4427 11.6091L13.845 14.9463C13.845 14.9463 11.5981 14.9757 9.98457 14.9757C9.80186 14.9757 8.38793 17.6208 8.41083 18.0415C8.55272 20.6802 9.93827 22.4222 11.293 23.2029C10.121 23.7515 8.71452 22.6268 8.20322 21.7008Z" fill="#CF5EC2"/>
<path fill-rule="evenodd" clip-rule="evenodd" d="M36.7509 21.7011C36.4138 24.4562 35.0317 27.3513 32.9601 29.5305C33.3375 28.9953 34.0126 29.0659 34.5299 28.6492C37.9218 25.913 38.3794 22.1895 38.3794 22.1855C38.1708 23.8976 37.4449 25.4788 36.5054 26.9107C35.5386 28.3794 34.6534 29.4264 34.1112 31.1361C33.8005 32.1228 33.3928 33.6304 33.3465 34.6649C33.5003 34.1292 35.2523 31.5896 36.8365 30.0632C38.9629 28.011 40.1418 23.35 40.2031 23.0786C40.2031 23.0786 39.6664 25.7706 38.4501 28.1429C35.9588 33.0105 33.5153 34.1213 33.0732 37.9613C33.0453 38.2057 33.0995 38.8679 32.9601 39.078C33.9957 37.2658 37.0954 34.2636 38.8852 31.3925C41.1515 27.7551 42.0461 24.3367 42.0481 23.8518C41.7639 25.9015 40.3499 30.2583 36.4397 35.4276C33.5133 39.297 34.3711 43.7355 34.4542 44.0073C34.2616 42.4296 37.3608 38.4721 39.7251 35.4784C41.6006 33.1071 44.759 28.0847 44.759 21.726C44.759 9.9719 34.6285 7.84154 30.0447 8.15271C29.9565 8.15868 29.6623 8.54154 29.6021 8.54702C29.6021 8.54702 31.9181 8.27319 31.5124 11.6094L31.1096 14.9465C31.1096 14.9465 33.3574 14.9759 34.968 14.9759C35.1522 14.9759 36.5662 17.6211 36.5438 18.0418C36.3999 20.6804 35.0143 22.4225 33.6616 23.2031C34.8341 23.7518 36.2401 22.6271 36.7509 21.7011Z" fill="#CF5EC2"/>
</svg>
