<svg width="31" height="53" viewBox="0 0 31 53" fill="none" xmlns="http://www.w3.org/2000/svg">
<g clip-path="url(#clip0_386_898)">
<path d="M15.81 0V1H16.9V1.63H15.81V2.63C16.0604 2.697 16.2818 2.8446 16.44 3.05C16.5999 3.24846 16.688 3.49515 16.69 3.75C16.69 3.90709 16.6581 4.06255 16.5962 4.20695C16.5343 4.35134 16.4438 4.48166 16.33 4.59C16.0935 4.80154 15.7873 4.91849 15.47 4.91849C15.1527 4.91849 14.8465 4.80154 14.61 4.59C14.465 4.45259 14.3582 4.27977 14.3003 4.08855C14.2424 3.89734 14.2353 3.69433 14.2797 3.49954C14.3241 3.30474 14.4185 3.12488 14.5536 2.97766C14.6886 2.83045 14.8597 2.72096 15.05 2.66H15.13V1.66H14V1H15.09V0H15.81Z" fill="#CF5EC2"/>
<path d="M13.62 7.87012V8.19012C13.7299 9.72643 14.0495 11.2405 14.57 12.6901C13.71 12.6901 12.93 12.6901 12.16 12.7501L12 12.5901C10.9998 11.4598 10.1587 10.1981 9.5 8.84012C10.726 8.38082 12.0012 8.06538 13.3 7.90012L13.62 7.87012Z" fill="#CF5EC2"/>
<path d="M17.3199 7.87012C18.7182 8.02119 20.0902 8.35747 21.3999 8.87012C20.7447 10.2278 19.907 11.4895 18.9099 12.6201L18.7799 12.7601C17.9799 12.7601 17.1699 12.7101 16.3699 12.7001C16.8904 11.2505 17.21 9.73643 17.3199 8.20012V7.87012Z" fill="#CF5EC2"/>
<path d="M15.48 5.3601C16.07 5.3601 16.57 6.2901 16.57 8.1901V8.3501C16.5566 8.71498 16.5232 9.07886 16.47 9.4401V9.7601L16.42 10.0801L16.36 10.4101V10.5701L16.29 10.9001L16.22 11.2101L16.14 11.5101V11.6601L16.06 11.9301C15.9845 12.2384 15.8738 12.5371 15.73 12.8201C15.67 12.9101 15.62 12.9401 15.58 12.9401C15.54 12.9401 15.48 12.9401 15.43 12.8201C15.2856 12.5363 15.1716 12.2379 15.09 11.9301L15.02 11.6501L14.94 11.3601L14.87 11.0501L14.8 10.7301V10.5701L14.74 10.2401L14.68 9.9201C14.5883 9.40116 14.5315 8.87664 14.51 8.3501C14.51 6.4001 14.96 5.4201 15.51 5.3501L15.48 5.3601Z" fill="#CF5EC2"/>
<path d="M23.89 10.1599C23.989 10.3817 24.029 10.6252 24.0062 10.867C23.9835 11.1088 23.8986 11.3406 23.76 11.5399L23.7 11.6399C23.4395 12.1182 23.1383 12.5732 22.8 12.9999H22.29L21.56 12.9399L20.96 12.8899C21.8854 12.2262 22.7399 11.4689 23.51 10.6299L23.57 10.5599L23.78 10.3199L23.89 10.1899V10.1599Z" fill="#CF5EC2"/>
<path d="M7.07001 10.1599L7.40001 10.5299L7.46001 10.5999C8.22938 11.4389 9.08023 12.1993 10 12.8699L9.29001 12.9199L8.55001 12.9999H8.16001C7.88052 12.6415 7.62656 12.2639 7.40001 11.8699L7.27001 11.6299C7.11118 11.4237 7.00914 11.1795 6.97405 10.9216C6.93896 10.6637 6.97205 10.4011 7.07001 10.1599Z" fill="#CF5EC2"/>
<path d="M8.99987 3.80005H9.31987C10.4614 3.93702 11.5209 4.46323 12.3199 5.29005L12.4499 5.41005C12.4499 5.41005 12.5899 5.55005 12.5599 5.66005C12.4399 5.83005 12.2799 5.82005 12.0799 5.77005L11.7399 5.68005H11.5399H11.3899H11.2399L10.9999 5.60005H10.8199C10.431 5.50666 10.023 5.53201 9.64866 5.67283C9.27431 5.81366 8.95079 6.06349 8.71987 6.39005C8.22987 7.46005 8.79987 8.91005 9.60987 10.22L9.76987 10.48L9.93987 10.73C9.96997 10.7677 9.99674 10.8078 10.0199 10.85L10.1899 11.09L10.3699 11.33L10.5399 11.56L10.7099 11.78L10.9599 12.09L11.1299 12.29L11.5199 12.76C11.5267 12.7795 11.5267 12.8006 11.5199 12.82C11.5299 12.8458 11.5299 12.8743 11.5199 12.9C11.5242 12.9232 11.5242 12.9469 11.5199 12.97C11.5199 12.97 11.5199 12.97 11.4699 13.02C11.4244 13.0568 11.3683 13.0779 11.3099 13.08C11.233 13.0772 11.1592 13.0491 11.0999 13C9.94168 12.2229 8.88078 11.3097 7.93987 10.28L7.57987 9.88005L7.35987 9.63005L7.20987 9.45005L7.13987 9.36005L6.99987 9.18005L6.84987 9.00005L6.77987 8.90005L6.63987 8.70005C6.24099 8.25646 5.97951 7.70658 5.8872 7.11721C5.79489 6.52785 5.87572 5.92435 6.11987 5.38005C6.38181 4.90209 6.76901 4.50453 7.23987 4.23005C7.71122 3.95763 8.24547 3.81287 8.78987 3.81005L8.99987 3.80005Z" fill="#CF5EC2"/>
<path d="M22 3.80005H22.17C22.7144 3.80287 23.2487 3.94763 23.72 4.22005C24.1909 4.49453 24.5781 4.89209 24.84 5.37005C25.51 6.58005 24.96 7.82005 24.18 8.89005L24.04 9.08005L24 9.18005L23.85 9.37005L23.7 9.55005L23.55 9.72005L23.19 10.14L23.05 10.29C22.1023 11.3174 21.0347 12.2273 19.87 13C19.8156 13.0327 19.7534 13.05 19.69 13.05C19.6313 13.0495 19.5746 13.0282 19.53 12.99C19.5087 12.9788 19.4913 12.9614 19.48 12.94V12.87C19.4751 12.8436 19.4751 12.8165 19.48 12.79C19.4731 12.7706 19.4731 12.7495 19.48 12.73L19.71 12.45L19.87 12.26L20.04 12.06L20.29 11.75L20.46 11.53L20.63 11.3L20.72 11.18L20.9 11L21.07 10.76L21.23 10.51L21.4 10.25C22.21 8.94005 22.78 7.49005 22.29 6.42005C22.0591 6.09349 21.7356 5.84366 21.3612 5.70283C20.9869 5.56201 20.5789 5.53666 20.19 5.63005L20 5.60005H19.83H19.67H19.53H19.33L19 5.82005C18.81 5.82005 18.66 5.88005 18.55 5.76005C18.5 5.69005 18.55 5.59005 18.61 5.53005C19.404 4.61093 20.4995 4.0047 21.7 3.82005H22V3.80005Z" fill="#CF5EC2"/>
<path d="M26.71 7.32995C27.1172 7.36961 27.512 7.49212 27.87 7.68995C28.087 7.81092 28.2775 7.97411 28.4304 8.16991C28.5832 8.3657 28.6953 8.59013 28.76 8.82995C29.05 9.98995 27.99 11.05 26.76 11.89L26.52 12.05L26.4 12.12L26.17 12.26L25.93 12.4L25.69 12.53L25.45 12.66L25.22 12.78L24.78 13.01L24.36 13.21L23.91 13.43C23.8542 13.4439 23.7958 13.4439 23.74 13.43H23.65C23.6202 13.4192 23.5953 13.3978 23.58 13.37C23.5684 13.3308 23.5684 13.2891 23.58 13.25C23.5698 13.214 23.5698 13.1759 23.58 13.14L24.27 12.44L24.64 12.06L25.04 11.64L25.2 11.46C26.09 10.46 26.51 9.64995 26.34 9.12995C26.2804 8.91557 26.1627 8.7218 26 8.56995C25.8468 8.42262 25.6569 8.31903 25.45 8.26995C25.6228 7.95375 25.757 7.61804 25.85 7.26995C26.1395 7.24498 26.4306 7.24498 26.72 7.26995L26.71 7.32995Z" fill="#CF5EC2"/>
<path d="M4.26001 7.32999C4.54946 7.30472 4.84057 7.30472 5.13001 7.32999C5.22302 7.67808 5.3573 8.01379 5.53001 8.32999C5.32226 8.37667 5.13173 8.48059 4.98001 8.62999C4.82189 8.77356 4.70459 8.95642 4.64001 9.15999C4.47001 9.65999 4.86001 10.46 5.64001 11.38L5.82001 11.58L6.14001 11.92L6.67001 12.47L7.37001 13.17C7.40374 13.2069 7.42245 13.255 7.42245 13.305C7.42245 13.355 7.40374 13.4031 7.37001 13.44C7.35799 13.4666 7.33665 13.488 7.31001 13.5C7.28016 13.5042 7.24986 13.5042 7.22001 13.5C7.16432 13.5148 7.10571 13.5148 7.05001 13.5L6.29001 13.13L6.00001 12.9L5.78001 12.78L5.54001 12.66L5.31001 12.53L5.07001 12.4L4.83001 12.26L4.59001 12.12C4.55732 12.0909 4.52018 12.0673 4.48001 12.05L4.24001 11.89L4.00001 11.74C2.84001 10.92 1.92001 9.91999 2.19001 8.82999C2.25813 8.59143 2.37003 8.36762 2.52001 8.16999C2.67001 7.9716 2.86101 7.80788 3.08001 7.68999C3.44182 7.48407 3.84487 7.3611 4.26001 7.32999Z" fill="#CF5EC2"/>
<path d="M22.4101 13.87V15.13L21.8101 15.07L21.0001 15H20.3001H19.4801H18.5601H17.8901H17.3701H13.8001H13.0901H12.4301H11.5001H10.9401H10.3101L9.48006 15.06L8.56006 15.14V13.87L9.29006 13.81L10.1001 13.75H10.7401H11.3201H11.9501H12.8001H13.5301H17.1901H17.8901H18.8901H19.8901L20.6501 13.8H21.2901L22.4101 13.87Z" fill="#CF5EC2"/>
<path d="M31 26.23V25.23V24.85V24.46V24.08V23.71V23.15L30.95 22.61V22.26L30.89 21.58L30.84 21.09L30.76 20.46L30.69 19.88L30.61 19.35L30.54 18.87L30.46 18.35L30.19 18L30.13 17.74V17.59V17.49L29.98 17.43L29.72 17.35L29.39 17.25L29.04 17.15L28.62 17L28.25 16.91L27.72 16.8L27.36 16.73L26.85 16.63L26.44 16.56L25.84 16.46L25.37 16.39L24.87 16.32L24.34 16.26L23.78 16.19L23.2 16.13L22.58 16H21.94H21.5H20.81H20.09H19.6H19.09H18.58H18.04H13.75H13.2H12.66H12.13H11.62H10.87H10.39H9.92996H9.46996H8.99996H8.38996L7.76996 16.06L7.18996 16.12L6.44996 16.21L5.92996 16.28H5.59996L5.11996 16.35L4.52996 16.45L3.98996 16.55L3.48996 16.64L3.02996 16.74L2.71996 16.8L2.43996 17L2.01996 17.1L1.66996 17.2L1.43996 17.27L1.17996 17.35H0.999959H0.899959V17.44V17.57V17.81L0.849959 18.04L0.769959 18.5L0.679959 19.05V19.43L0.579959 20.12L0.509959 20.72L0.439959 21.36V21.86V22.21V22.74V23.29V23.66V24.03V24.41V24.8V25.38V26.55C-4.13954e-05 31.19 0.929959 37.1 4.18996 41.77C4.37996 42.04 4.56996 42.31 4.76996 42.57L4.99996 42.9L5.25996 43.22L5.51996 43.55L5.79996 43.88L6.07996 44.21L6.50996 44.71L6.79996 45.04L7.09996 45.37L7.39996 45.69L7.85996 46.18L8.32996 46.67L8.79996 47.15L9.10996 47.46L9.57996 47.93L10.05 48.38L10.36 48.67L10.66 48.96L11.12 49.39L11.56 49.8L11.85 50.06L12.27 50.44L12.68 50.8L13.07 51.14L13.32 51.35L13.79 51.74L14.12 52.01L14.42 52.25L14.69 52.46L14.86 52.59L15.01 52.7L15.15 52.8L15.27 52.88L15.38 52.95H15.46H15.55L15.66 52.88L15.78 52.8L15.99 52.65L16.15 52.53L16.42 52.32L16.61 52.17L16.92 51.92L17.25 51.65L17.61 51.35L18 51L18.39 50.66L18.81 50.29L19.23 49.91L19.53 49.64L19.97 49.23L20.43 48.8L20.89 48.36L21.36 47.9L21.67 47.6L22.14 47.13L22.45 46.81L22.92 46.32L23.23 46L23.54 45.67L23.84 45.34L24.14 45.01L24.43 44.68L24.58 44.52L24.86 44.19L25.14 43.86L25.28 43.69L25.55 43.36L25.81 43.04L26.07 42.71L26.31 42.39L26.43 42.23L26.66 41.91L26.77 41.75C30 37.1 31 31.19 31 26.63V26.23ZM28.3 27.39C28.3 31.08 27.53 36.08 24.83 39.86L24.62 40.15L24.4 40.45L24.28 40.6L24.04 40.9L23.92 41.06L23.67 41.37L23.54 41.52L23.27 41.83L23 42.15L22.73 42.46L22.45 42.78L22.16 43.09L21.72 43.57L21.43 43.88L21.13 44.19L20.84 44.49L20.39 44.95L19.95 45.39L19.66 45.68L19.09 46.23L18.67 46.63L18.26 47.01L17.74 47.49L17.38 47.82L16.92 48.22L16.61 48.48L16.32 48.72L16.07 48.93L15.92 49.04L15.85 49.1L15.72 49.19L15.6 49.27L15.47 49.35L15.36 49.29H15.3L15.17 49.19L15 49L14.83 48.87L14.65 48.72L14.45 48.56L14.09 48.26L13.74 48L13.39 47.68L13 47.33L12.63 47L12.43 46.81L12 46.39L11.59 46L11.38 45.8L10.94 45.37L10.5 44.93L10.28 44.7L9.83996 44.25L9.39996 43.79C8.22083 42.5556 7.11875 41.2498 6.09996 39.88C3.45996 36.17 2.66996 31.3 2.63996 27.63V26.34V25.81V25.12V24.43V23.93V23.44L2.70996 22.65V22.06L2.99996 21.39V21L3.05996 20.56L3.10996 20.18V19.87V19.68V19.54V19.48V19.43H3.18996L3.39996 19.37L3.62996 19.32L4.07996 19.23L4.55996 19.15L5.04996 19.07L5.76996 19L6.26996 18.93L6.81996 18.86L7.40996 18.8L7.87996 18.75L8.55996 18.69H9.09996H9.65996H10.26H10.88H11.53H12.2H12.91H18H18.7H19.38H20.03H20.45H21.05H21.63H22.17H22.69L23.34 18.75L23.95 18.82L24.5 18.88L24.89 18.93L25.25 18.98L25.79 19.06L26.08 19.11L26.51 19.18L27.05 19.29L27.41 19.37L27.6 19.42V19.48V19.6V19.77V19.98L27.66 20.43L27.71 20.86V21.21L27.77 21.74L27.84 22.45L27.89 23.07V23.55V24.04V24.38V25.07V25.59V26.11V27.34L28.3 27.39Z" fill="#CF5EC2"/>
<path d="M27.45 26.31V25.77H3.5C3.5 26.13 3.5 26.49 3.5 26.85V28.08V28.49V28.78V29.08V29.4V29.73V30.08V30.25L3.55 30.61V30.8V31.17V31.36L3.61 31.75C4.03044 34.4909 5.05517 37.104 6.61 39.4C6.78 39.63 6.95 39.87 7.14 40.11L7.42 40.47L7.71 40.83L8.02 41.2L8.33 41.57L8.66 41.94L8.99 42.3L9.32 42.67L9.49 42.86L9.83 43.22L10.18 43.58L10.52 43.94L11.03 44.46L11.38 44.8L11.71 45.13L12.05 45.46L12.37 45.77L12.85 46.22L13.31 46.64L13.6 46.91L14.01 47.28L14.27 47.5L14.51 47.71L15 48L15.19 48.16L15.37 48.31L15.45 48.37L15.62 48.24L15.91 48L16.24 47.72L16.48 47.51L16.87 47.17L17.29 46.79L17.59 46.51L17.89 46.23L18.37 45.78L18.69 45.47L19.03 45.14L19.37 44.81L19.71 44.47L20.05 44.12L20.39 43.77L20.74 43.41L21.25 42.87L21.59 42.5L21.75 42.31L22.08 41.95L22.41 41.58L22.72 41.21L23.03 40.84C23.36 40.43 23.69 40.01 24.03 39.58L24.15 39.41C25.5085 37.4019 26.4472 35.1399 26.91 32.76L26.99 32.35C26.99 32.15 27.07 31.95 27.1 31.76L27.16 31.37L27.22 30.99L27.27 30.62V30.26V29.91V29.58V29.25V28.94V28.64V27.39C27.47 27 27.46 26.67 27.45 26.31ZM9.71 41.79C8.89183 40.901 8.12077 39.9697 7.4 39C6.43488 37.5915 5.69909 36.0389 5.22 34.4L5.13 34.09V26.5H9.71V41.79ZM18.12 45L17.94 45.16L17.6 45.49L17.27 45.8L16.95 46.1L16.64 46.38L16.21 46.77L15.82 47.11L15.47 47.41L15.24 47.22L15 47L14.59 46.64L14.3 46.38L14 46.09L13.52 45.64L13 45.16L12.82 45V26.5H18.12V45ZM25.8 34.1C25.329 35.8511 24.5612 37.5085 23.53 39C22.9233 39.84 22.2567 40.65 21.53 41.43L21.18 41.82V26.5H25.8V34.1Z" fill="#CF5EC2"/>
<path d="M16.24 20.3401H15.45V22.0701C15.4401 22.2099 15.4401 22.3503 15.45 22.4901V22.6301L14.62 20.3401H14V23.7401C14.0037 23.8327 13.9866 23.925 13.95 24.0101V24.0801H14.73V22.2601V21.8901L15.58 24.1001H16.24V20.7301C16.2104 20.6018 16.2104 20.4684 16.24 20.3401Z" fill="#CF5EC2"/>
<path d="M25.2999 21.22H23.9199V24.09H24.4899V22.9H24.9999V22.37H24.5099V21.76H25.1399L25.2999 21.22Z" fill="#CF5EC2"/>
<path d="M17.27 20.3601L16.46 24.0901H17.19L17.31 23.3801H18L18.13 24.0901H18.91C18.8478 24.009 18.8004 23.9176 18.77 23.8201V23.7301L18 20.3801H17.26L17.27 20.3601ZM17.65 21.3601L17.72 21.8201L17.9 22.8201H17.41L17.56 21.8201L17.65 21.3601Z" fill="#CF5EC2"/>
<path d="M10.6501 20.47H10.1801H9.71008L9.44008 22.62L9.10008 20.57L8.18008 20.65L7.91008 23.75C7.90024 23.8441 7.87312 23.9357 7.83008 24.02V24.09H8.66008L8.76008 21.61V21.68L9.26008 24.09H9.71008L10.1601 21.62L10.3201 24.09H11.1201C11.0695 24.0027 11.0324 23.9083 11.0101 23.81V23.69L10.6501 20.47Z" fill="#CF5EC2"/>
<path d="M4.65 21.27L4 24.09H4.56L4.66 23.53H5.24L5.34 24.09H6C5.96115 24.0368 5.92765 23.9798 5.9 23.92L5.26 21.27H4.65ZM4.92 22L5.13 23.09H4.73L4.85 22.34L4.92 22Z" fill="#CF5EC2"/>
<path d="M26.53 21.2399H26.45C26.0991 21.2771 25.7763 21.4492 25.55 21.7199C25.4358 21.858 25.3512 22.0179 25.3013 22.1899C25.2515 22.3619 25.2374 22.5423 25.26 22.7199C25.2598 22.8939 25.2902 23.0666 25.35 23.2299C25.4143 23.3932 25.5093 23.5426 25.63 23.6699C25.7511 23.7985 25.8975 23.9007 26.06 23.9699C26.2208 24.0407 26.3943 24.0781 26.57 24.0799C26.6846 24.0925 26.8003 24.0679 26.9 24.0099L27 23.9999L26.85 23.5699C26.774 23.585 26.6959 23.585 26.62 23.5699C26.13 23.5699 25.86 23.0999 25.84 22.6299C25.82 22.1599 26.11 21.6899 26.55 21.6899H26.77L26.89 21.2599C26.7719 21.2332 26.6502 21.2264 26.53 21.2399Z" fill="#CF5EC2"/>
<path d="M12.4199 20.3501C11.7999 20.3501 11.1899 20.8701 11.1899 22.2401C11.1899 23.6101 11.7999 24.1201 12.4199 24.1201C13.0399 24.1201 13.6399 23.6101 13.6399 22.2401C13.6399 20.8701 13.0699 20.3901 12.4699 20.3601L12.4199 20.3501ZM12.4199 21.0201C12.7399 21.0201 12.8499 21.4501 12.8899 21.8201V22.5501V22.6801C12.8899 23.0401 12.7299 23.4501 12.4299 23.4501C12.1299 23.4501 11.9899 23.0001 11.9499 22.6301V21.8901C11.9999 21.5101 12.0799 21.0001 12.4199 21.0001V21.0201Z" fill="#CF5EC2"/>
<path d="M20.4099 20.48C19.9694 20.5158 19.5607 20.7237 19.2724 21.0588C18.9841 21.3939 18.8395 21.829 18.8699 22.27C18.8302 22.7113 18.9633 23.1508 19.2413 23.4959C19.5192 23.841 19.9203 24.0648 20.3599 24.12H20.4599C20.5993 24.1288 20.739 24.1084 20.8699 24.06L20.9999 24L20.8399 23.37C20.7505 23.4051 20.6559 23.4254 20.5599 23.43C19.9499 23.43 19.6799 22.78 19.6799 22.25C19.6799 21.72 19.9499 21.13 20.5699 21.13H20.7499H20.8299L20.9999 20.6C20.9068 20.5596 20.8096 20.5294 20.7099 20.51H20.6099L20.4099 20.48Z" fill="#CF5EC2"/>
<path d="M6.81999 21.18C6.70933 21.1781 6.59974 21.2021 6.49999 21.25C6.40672 21.2949 6.32209 21.3558 6.24999 21.43C6.17774 21.5112 6.12324 21.6066 6.08999 21.71C6.06538 21.8119 6.06538 21.9182 6.08999 22.02C6.09182 22.1961 6.14012 22.3686 6.22999 22.52C6.32419 22.6713 6.45944 22.7927 6.61999 22.87L6.74999 22.96C6.81162 22.9908 6.86372 23.0378 6.90071 23.0959C6.9377 23.1541 6.95819 23.2212 6.95999 23.29C6.95814 23.3299 6.94834 23.3691 6.93117 23.4051C6.914 23.4412 6.8898 23.4735 6.85999 23.5C6.79485 23.5515 6.71273 23.5765 6.62999 23.57C6.56033 23.5798 6.48965 23.5798 6.41999 23.57H6.34999L6.15999 24C6.31142 24.0899 6.48391 24.1382 6.65999 24.14C6.77656 24.1487 6.89345 24.1281 6.99999 24.08C7.10268 24.0417 7.19509 23.9801 7.26999 23.9C7.35077 23.8237 7.41538 23.7319 7.45999 23.63C7.49995 23.5281 7.52031 23.4195 7.51999 23.31V23.24C7.52061 23.1019 7.48718 22.9658 7.42264 22.8437C7.3581 22.7216 7.26446 22.6173 7.14999 22.54L6.99999 22.45L6.87999 22.36C6.8144 22.3209 6.7575 22.2688 6.71278 22.2069C6.66807 22.145 6.63649 22.0746 6.61999 22C6.60971 21.9641 6.60971 21.926 6.61999 21.89C6.63746 21.853 6.66114 21.8191 6.68999 21.79L6.77999 21.73C6.8194 21.7203 6.86059 21.7203 6.89999 21.73C6.98059 21.7295 7.05991 21.7502 7.12999 21.79H7.18999L7.31999 21.33C7.19093 21.2554 7.04803 21.2078 6.89999 21.19L6.81999 21.18Z" fill="#CF5EC2"/>
<path d="M22.23 20.6101C21.61 20.6101 20.99 21.0901 20.99 22.3801C20.99 23.6701 21.61 24.1401 22.23 24.1401C22.85 24.1401 23.47 23.6601 23.47 22.3801C23.47 21.1001 22.89 20.6501 22.29 20.6201L22.23 20.6101ZM22.23 21.2401C22.55 21.2401 22.67 21.6401 22.71 21.9901V22.7501C22.71 23.1001 22.55 23.5201 22.23 23.5201C21.91 23.5201 21.79 23.1001 21.76 22.7501V22.6201V21.9201C21.81 21.5901 21.93 21.2401 22.23 21.2401Z" fill="#CF5EC2"/>
</g>
<defs>
<clipPath id="clip0_386_898">
<rect width="30.97" height="53" fill="white"/>
</clipPath>
</defs>
</svg>
