<svg width="20" height="20" viewBox="0 0 20 20" fill="none" xmlns="http://www.w3.org/2000/svg">
<path d="M3.37436 4.8349L6.54519 7.6249L9.37019 4.14656C9.4493 4.04932 9.54932 3.97118 9.66281 3.91796C9.77631 3.86473 9.90035 3.8378 10.0257 3.83916C10.151 3.84052 10.2745 3.87014 10.3868 3.92582C10.4991 3.9815 10.5974 4.06179 10.6744 4.16073L13.3702 7.62406L16.6435 4.79406C16.7721 4.68316 16.9314 4.61416 17.1003 4.5963C17.2691 4.57844 17.4394 4.61258 17.5883 4.69415C17.7372 4.77571 17.8576 4.90081 17.9334 5.0527C18.0093 5.20459 18.0369 5.37603 18.0127 5.54406L16.7627 14.1666H3.26853L1.99936 5.58323C1.97415 5.41426 2.00148 5.24163 2.07765 5.08871C2.15382 4.93579 2.27515 4.80997 2.42521 4.72831C2.57527 4.64664 2.7468 4.61306 2.91657 4.63213C3.08634 4.6512 3.24615 4.72198 3.37436 4.8349ZM3.33353 14.9999H16.6669V15.8332C16.6669 16.0542 16.5791 16.2662 16.4228 16.4225C16.2665 16.5788 16.0545 16.6666 15.8335 16.6666H4.16686C3.94584 16.6666 3.73388 16.5788 3.5776 16.4225C3.42132 16.2662 3.33353 16.0542 3.33353 15.8332V14.9999Z" fill="#960E89"/>
</svg>
