<svg width="45" height="45" viewBox="0 0 45 45" fill="none" xmlns="http://www.w3.org/2000/svg">
<g clip-path="url(#clip0_394_1880)" filter="url(#filter0_d_394_1880)">
<g filter="url(#filter1_d_394_1880)">
<path fill-rule="evenodd" clip-rule="evenodd" d="M22.5 0C32.7179 0 41 8.28208 41 18.5C41 28.7179 32.7179 37 22.5 37C12.2821 37 4 28.7179 4 18.5C4 8.28208 12.2821 0 22.5 0Z" fill="#FFD600"/>
</g>
<path fill-rule="evenodd" clip-rule="evenodd" d="M22.4998 10.3599C25.3607 10.3599 27.6798 12.679 27.6798 15.5399C27.6798 18.4007 25.3607 20.7199 22.4998 20.7199C19.639 20.7199 17.3198 18.4007 17.3198 15.5399C17.3198 12.679 19.639 10.3599 22.4998 10.3599Z" fill="#1F0D15"/>
<path fill-rule="evenodd" clip-rule="evenodd" d="M22.4999 23.6802C29.447 23.6802 35.0799 28.8602 35.0799 28.8602C35.0799 28.8602 29.447 34.0402 22.4999 34.0402C15.5528 34.0402 9.91992 28.8602 9.91992 28.8602C9.91992 28.8602 15.5528 23.6802 22.4999 23.6802Z" fill="#1F0D15"/>
</g>
<defs>
<filter id="filter0_d_394_1880" x="0" y="0" width="45" height="45" filterUnits="userSpaceOnUse" color-interpolation-filters="sRGB">
<feFlood flood-opacity="0" result="BackgroundImageFix"/>
<feColorMatrix in="SourceAlpha" type="matrix" values="0 0 0 0 0 0 0 0 0 0 0 0 0 0 0 0 0 0 127 0" result="hardAlpha"/>
<feOffset dy="4"/>
<feGaussianBlur stdDeviation="2"/>
<feComposite in2="hardAlpha" operator="out"/>
<feColorMatrix type="matrix" values="0 0 0 0 0 0 0 0 0 0 0 0 0 0 0 0 0 0 0.25 0"/>
<feBlend mode="normal" in2="BackgroundImageFix" result="effect1_dropShadow_394_1880"/>
<feBlend mode="normal" in="SourceGraphic" in2="effect1_dropShadow_394_1880" result="shape"/>
</filter>
<filter id="filter1_d_394_1880" x="0" y="0" width="45" height="45" filterUnits="userSpaceOnUse" color-interpolation-filters="sRGB">
<feFlood flood-opacity="0" result="BackgroundImageFix"/>
<feColorMatrix in="SourceAlpha" type="matrix" values="0 0 0 0 0 0 0 0 0 0 0 0 0 0 0 0 0 0 127 0" result="hardAlpha"/>
<feOffset dy="4"/>
<feGaussianBlur stdDeviation="2"/>
<feComposite in2="hardAlpha" operator="out"/>
<feColorMatrix type="matrix" values="0 0 0 0 0 0 0 0 0 0 0 0 0 0 0 0 0 0 0.25 0"/>
<feBlend mode="normal" in2="BackgroundImageFix" result="effect1_dropShadow_394_1880"/>
<feBlend mode="normal" in="SourceGraphic" in2="effect1_dropShadow_394_1880" result="shape"/>
</filter>
<clipPath id="clip0_394_1880">
<rect width="37" height="37" fill="white" transform="translate(4)"/>
</clipPath>
</defs>
</svg>
