<svg width="20" height="20" viewBox="0 0 20 20" fill="none" xmlns="http://www.w3.org/2000/svg">
<g clip-path="url(#clip0_394_1911)">
<path d="M19.3255 2.00697C18.9105 1.59119 18.3316 1.33217 17.6974 1.33252H16.6452H16.1115H3.88852H3.35516H2.30266C1.66871 1.33217 1.08953 1.59119 0.674492 2.00697C0.258711 2.42201 -0.000312218 3.00123 2.82444e-07 3.63514V4.84115C2.82444e-07 6.32541 0.903633 7.66006 2.28168 8.21123L2.30227 8.21936L4.69516 8.95244C4.81418 9.10666 4.93961 9.25764 5.07961 9.40193C5.96832 10.3158 6.83215 10.9296 7.42734 11.4277C7.72508 11.6757 7.95184 11.8943 8.08469 12.0801C8.15188 12.1729 8.19625 12.2557 8.22434 12.3321C8.25207 12.4088 8.2652 12.4792 8.2652 12.5613C8.2652 13.7197 8.2652 13.0503 8.2652 14.2087C8.2652 14.4481 8.23141 14.6539 8.17527 14.8237C8.08965 15.0792 7.95957 15.2522 7.79969 15.3703C7.63836 15.4868 7.43727 15.5564 7.16859 15.5575C6.21063 15.5575 6.20137 15.5575 6.20066 15.5575H5.66695V18.6671H14.333V15.5575H13.7993C13.7993 15.5575 13.7896 15.5575 12.8317 15.5575C12.6526 15.5575 12.503 15.5252 12.3761 15.4705C12.1867 15.387 12.04 15.2562 11.9245 15.0529C11.8108 14.8501 11.7347 14.5686 11.7347 14.2087C11.7347 13.0503 11.7347 13.7197 11.7347 12.5613C11.7351 12.4792 11.7482 12.4088 11.7756 12.3321C11.8236 12.1996 11.927 12.0418 12.1032 11.8574C12.3651 11.5802 12.7787 11.2583 13.272 10.8656C13.7652 10.4715 14.3369 10.0021 14.9204 9.40193C15.0604 9.25764 15.1862 9.10666 15.3048 8.95244L17.698 8.21936L17.7183 8.21123C19.0967 7.66006 20 6.32541 20 4.84115V3.63514C20.0004 3.00123 19.7416 2.42201 19.3255 2.00697ZM2.66398 7.21447C1.69891 6.82182 1.06711 5.88408 1.06711 4.84115V3.63514C1.06742 3.2926 1.20461 2.98666 1.42883 2.7617C1.65445 2.53713 1.95969 2.39998 2.30262 2.39959H3.35336C3.35227 2.64799 3.35082 2.8967 3.35082 3.14404C3.35156 4.28822 3.3775 5.41682 3.60277 6.48428C3.68379 6.86658 3.79215 7.2408 3.9343 7.60357L2.66398 7.21447ZM15.3536 6.26322C15.2548 6.72947 15.1159 7.1626 14.9218 7.56092C14.7278 7.95967 14.4798 8.3242 14.1554 8.65822C13.3406 9.49717 12.5361 10.0696 11.8887 10.609C11.5653 10.8802 11.2775 11.1435 11.0508 11.4547C10.9381 11.6104 10.8418 11.7796 10.7736 11.9657C10.7054 12.1512 10.6674 12.3538 10.6677 12.5613C10.6677 13.7197 10.6677 13.0503 10.6677 14.2087C10.6677 14.5483 10.7154 14.8674 10.812 15.1592C10.9559 15.5963 11.2157 15.9729 11.5714 16.232C11.926 16.4921 12.367 16.626 12.8318 16.6246C13.0062 16.6246 13.1487 16.6246 13.266 16.6246V17.6001H6.73406V16.6246C6.85133 16.6246 6.99383 16.6246 7.16863 16.6246C7.47887 16.625 7.77734 16.5667 8.04773 16.4498C8.45426 16.275 8.78934 15.9648 9.00644 15.5739C9.225 15.183 9.3323 14.7175 9.3323 14.2087C9.3323 13.0503 9.3323 13.7197 9.3323 12.5613C9.3327 12.3538 9.29465 12.1513 9.22645 11.9658C9.10633 11.6388 8.90418 11.3684 8.66996 11.1219C8.31602 10.7519 7.87824 10.4197 7.39395 10.032C6.90996 9.64541 6.3791 9.20834 5.84465 8.65826C5.52023 8.32424 5.27223 7.95967 5.0782 7.56096C4.78754 6.964 4.6198 6.28635 4.52742 5.54123C4.43469 4.79713 4.41801 3.98873 4.41801 3.14408C4.41801 2.89889 4.41906 2.65018 4.42047 2.39963H15.5799C15.5806 2.65018 15.5821 2.89885 15.5821 3.14408C15.5827 4.27049 15.5511 5.3319 15.3536 6.26322ZM18.9333 4.84115C18.9333 5.88408 18.3011 6.82182 17.336 7.21447L16.065 7.60354C16.3066 6.98811 16.4487 6.33889 16.5316 5.67299C16.6335 4.85143 16.6488 4.00217 16.6492 3.144C16.6492 2.8967 16.6478 2.64795 16.6467 2.39955H17.6974C18.0403 2.39994 18.3459 2.53705 18.5712 2.76166C18.7954 2.98658 18.9329 3.29217 18.9333 3.6351V4.84115Z" fill="#960E89"/>
</g>
<defs>
<clipPath id="clip0_394_1911">
<rect width="20" height="20" fill="white"/>
</clipPath>
</defs>
</svg>
