<svg width="20" height="20" viewBox="0 0 20 20" fill="none" xmlns="http://www.w3.org/2000/svg">
<path fill-rule="evenodd" clip-rule="evenodd" d="M11.899 1.79337C11.5904 1.6665 11.1992 1.6665 10.4167 1.6665C9.63416 1.6665 9.24291 1.6665 8.93433 1.79337C8.52283 1.96253 8.19591 2.28699 8.02546 2.69536C7.94766 2.88179 7.91721 3.09859 7.90529 3.41483C7.88778 3.87957 7.64763 4.30975 7.24181 4.54228C6.83598 4.7748 6.34053 4.76612 5.92624 4.5488C5.64431 4.40092 5.43991 4.31869 5.23832 4.29235C4.79674 4.23465 4.35015 4.35341 3.9968 4.6225C3.73178 4.82432 3.53616 5.16059 3.14491 5.83311C2.75367 6.50565 2.55806 6.8419 2.51446 7.1706C2.45631 7.60884 2.57598 8.05205 2.84712 8.40275C2.97088 8.56284 3.14481 8.69734 3.41475 8.86567C3.81159 9.11317 4.06693 9.53475 4.06691 9.99984C4.06688 10.4649 3.81155 10.8864 3.41475 11.1338C3.14476 11.3023 2.97081 11.4368 2.84704 11.5969C2.5759 11.9476 2.45624 12.3908 2.51437 12.829C2.55797 13.1577 2.7536 13.494 3.14483 14.1665C3.53607 14.839 3.7317 15.1753 3.99671 15.3771C4.35006 15.6462 4.79666 15.7649 5.23824 15.7073C5.43981 15.6809 5.64421 15.5987 5.92611 15.4508C6.34043 15.2335 6.83591 15.2248 7.24176 15.4573C7.64761 15.6899 7.88777 16.1201 7.90529 16.5849C7.91721 16.9011 7.94766 17.1179 8.02546 17.3043C8.19591 17.7127 8.52283 18.0372 8.93433 18.2063C9.24291 18.3332 9.63416 18.3332 10.4167 18.3332C11.1992 18.3332 11.5904 18.3332 11.899 18.2063C12.3105 18.0372 12.6374 17.7127 12.8078 17.3043C12.8857 17.1179 12.9162 16.9011 12.9281 16.5848C12.9456 16.1201 13.1857 15.6899 13.5915 15.4573C13.9973 15.2248 14.4928 15.2335 14.9072 15.4508C15.1891 15.5987 15.3934 15.6808 15.595 15.7072C16.0366 15.7649 16.4832 15.6462 16.8365 15.3771C17.1016 15.1753 17.2972 14.839 17.6884 14.1664C18.0797 13.4939 18.2752 13.1577 18.3189 12.829C18.377 12.3908 18.2573 11.9475 17.9862 11.5968C17.8624 11.4368 17.6885 11.3022 17.4185 11.1338C17.0217 10.8864 16.7664 10.4648 16.7664 9.99975C16.7664 9.53467 17.0217 9.11325 17.4185 8.86584C17.6886 8.69742 17.8625 8.56292 17.9863 8.40275C18.2574 8.05211 18.3771 7.6089 18.319 7.17065C18.2753 6.84196 18.0797 6.5057 17.6885 5.83317C17.2972 5.16065 17.1017 4.82438 16.8366 4.62256C16.4832 4.35347 16.0367 4.23471 15.5951 4.29241C15.3935 4.31875 15.1891 4.40097 14.9072 4.54884C14.4929 4.76616 13.9974 4.77485 13.5916 4.5423C13.1857 4.30976 12.9456 3.87955 12.928 3.41479C12.9161 3.09857 12.8857 2.88178 12.8078 2.69536C12.6374 2.28699 12.3105 1.96253 11.899 1.79337ZM10.4167 12.4998C11.8079 12.4998 12.9357 11.3806 12.9357 9.99984C12.9357 8.61909 11.8079 7.49984 10.4167 7.49984C9.02541 7.49984 7.89763 8.61909 7.89763 9.99984C7.89763 11.3806 9.02541 12.4998 10.4167 12.4998Z" fill="#960E89"/>
</svg>
