<svg width="20" height="20" viewBox="0 0 20 20" fill="none" xmlns="http://www.w3.org/2000/svg">
<path fill-rule="evenodd" clip-rule="evenodd" d="M9.906 18.3165C9.96933 18.3381 10.031 18.339 10.0943 18.3165C10.9035 18.0415 16.6668 15.8481 16.6668 9.37729V3.58645C16.667 3.51198 16.6422 3.43959 16.5965 3.38084C16.5507 3.32208 16.4866 3.28035 16.4143 3.26229L10.081 1.67645C10.0279 1.66319 9.9724 1.66319 9.91933 1.67645L3.586 3.26229C3.51375 3.28035 3.44962 3.32208 3.40386 3.38084C3.35809 3.43959 3.33332 3.51198 3.3335 3.58645V9.37645C3.3335 15.7823 9.0985 18.0323 9.906 18.3165ZM10.8402 5.83312C10.8402 6.05413 10.7524 6.2661 10.5961 6.42238C10.4398 6.57866 10.2278 6.66645 10.0068 6.66645H10.0002C9.77915 6.66645 9.56719 6.57866 9.41091 6.42238C9.25463 6.2661 9.16683 6.05413 9.16683 5.83312C9.16683 5.61211 9.25463 5.40014 9.41091 5.24386C9.56719 5.08758 9.77915 4.99979 10.0002 4.99979H10.0068C10.2278 4.99979 10.4398 5.08758 10.5961 5.24386C10.7524 5.40014 10.8402 5.61211 10.8402 5.83312ZM10.0068 13.3331C9.78582 13.3331 9.57385 13.2453 9.41757 13.089C9.26129 12.9328 9.1735 12.7208 9.1735 12.4998V8.33312C9.1735 8.11211 9.26129 7.90014 9.41757 7.74386C9.57385 7.58758 9.78582 7.49979 10.0068 7.49979C10.2278 7.49979 10.4398 7.58758 10.5961 7.74386C10.7524 7.90014 10.8402 8.11211 10.8402 8.33312V12.4998C10.8402 12.7208 10.7524 12.9328 10.5961 13.089C10.4398 13.2453 10.2278 13.3331 10.0068 13.3331Z" fill="#FF3449"/>
</svg>
