<svg width="26" height="25" viewBox="0 0 26 25" fill="none" xmlns="http://www.w3.org/2000/svg">
<g clip-path="url(#clip0_842_1311)">
<path d="M25.1005 9.4832C25.0076 9.20547 24.7669 9.00313 24.4775 8.95859L16.7923 7.78437L13.349 0.449219C13.2201 0.175 12.9443 0 12.6415 0C12.3388 0 12.0634 0.175 11.9341 0.449219L8.49077 7.78437L0.805612 8.95898C0.516159 9.00313 0.275924 9.20586 0.182565 9.48359C0.0895961 9.76094 0.159518 10.0672 0.364205 10.277L5.9478 16.0023L4.62827 24.0898C4.57983 24.3852 4.70444 24.6824 4.94936 24.8543C5.08374 24.9492 5.24116 24.9973 5.39897 24.9973C5.52866 24.9973 5.65913 24.9645 5.7771 24.8996L12.6412 21.1031L19.5052 24.8996C19.6232 24.9645 19.7537 24.9973 19.8833 24.9973C20.0412 24.9973 20.199 24.9492 20.333 24.8543C20.5779 24.6824 20.7025 24.3852 20.654 24.0898L19.3345 16.0023L24.9181 10.277C25.1232 10.0668 25.1935 9.76055 25.1005 9.4832Z" fill="#C4C4C4"/>
</g>
<path d="M12.597 19.098C11.5703 19.098 10.735 18.79 10.091 18.174C9.46564 17.5767 9.11097 16.8953 9.02697 16.13L10.063 15.934C10.119 16.5127 10.3756 17.0213 10.833 17.46C11.2996 17.8987 11.8876 18.118 12.597 18.118C12.849 18.118 13.1056 18.076 13.367 17.992C13.6376 17.908 13.899 17.7867 14.151 17.628C14.4123 17.4693 14.6223 17.2407 14.781 16.942C14.949 16.6433 15.033 16.3027 15.033 15.92C15.033 15.332 14.809 14.856 14.361 14.492C13.9223 14.1373 13.339 13.96 12.611 13.96C12.2563 13.96 11.939 14.0113 11.659 14.114L11.155 13.26L14.501 9.774H9.26497V8.794H15.873V9.732L12.709 12.98C13.549 12.952 14.2816 13.162 14.907 13.61C15.7096 14.1607 16.111 14.9167 16.111 15.878C16.111 16.522 15.9523 17.0867 15.635 17.572C15.327 18.0573 14.9023 18.4353 14.361 18.706C13.8383 18.9673 13.2503 19.098 12.597 19.098Z" fill="black"/>
<defs>
<clipPath id="clip0_842_1311">
<rect width="25" height="25" fill="white" transform="translate(0.14209)"/>
</clipPath>
</defs>
</svg>
