<svg width="27" height="25" viewBox="0 0 27 25" fill="none" xmlns="http://www.w3.org/2000/svg">
<g clip-path="url(#clip0_301_19725)">
<path d="M26.9582 9.4832C26.8652 9.20547 26.6246 9.00313 26.3352 8.95859L18.65 7.78437L15.2066 0.449219C15.0777 0.175 14.8019 0 14.4992 0C14.1965 0 13.9211 0.175 13.7918 0.449219L10.3484 7.78437L2.66328 8.95898C2.37382 9.00313 2.13359 9.20586 2.04023 9.48359C1.94726 9.76094 2.01718 10.0672 2.22187 10.277L7.80547 16.0023L6.48593 24.0898C6.4375 24.3852 6.56211 24.6824 6.80703 24.8543C6.9414 24.9492 7.09882 24.9973 7.25664 24.9973C7.38632 24.9973 7.51679 24.9645 7.63476 24.8996L14.4988 21.1031L21.3629 24.8996C21.4809 24.9645 21.6113 24.9973 21.741 24.9973C21.8988 24.9973 22.0566 24.9492 22.1906 24.8543C22.4355 24.6824 22.5602 24.3852 22.5117 24.0898L21.1922 16.0023L26.7758 10.277C26.9809 10.0668 27.0512 9.76055 26.9582 9.4832Z" fill="#FFD600"/>
</g>
<path d="M14.8761 19H13.8121V9.928L11.3481 11.384L10.8721 10.572L13.8401 8.794H14.8761V19Z" fill="black"/>
<defs>
<clipPath id="clip0_301_19725">
<rect width="25" height="25" fill="white" transform="translate(2)"/>
</clipPath>
</defs>
</svg>
