<svg width="26" height="25" viewBox="0 0 26 25" fill="none" xmlns="http://www.w3.org/2000/svg">
<g clip-path="url(#clip0_842_1319)">
<path d="M25.8159 9.4832C25.7229 9.20547 25.4823 9.00313 25.1928 8.95859L17.5077 7.78437L14.0643 0.449219C13.9354 0.175 13.6596 0 13.3569 0C13.0541 0 12.7788 0.175 12.6495 0.449219L9.2061 7.78437L1.52094 8.95898C1.23149 9.00313 0.991256 9.20586 0.897897 9.48359C0.804928 9.76094 0.87485 10.0672 1.07954 10.277L6.66313 16.0023L5.3436 24.0898C5.29516 24.3852 5.41977 24.6824 5.66469 24.8543C5.79907 24.9492 5.95649 24.9973 6.1143 24.9973C6.24399 24.9973 6.37446 24.9645 6.49243 24.8996L13.3565 21.1031L20.2206 24.8996C20.3385 24.9645 20.469 24.9973 20.5987 24.9973C20.7565 24.9973 20.9143 24.9492 21.0483 24.8543C21.2932 24.6824 21.4178 24.3852 21.3694 24.0898L20.0498 16.0023L25.6334 10.277C25.8385 10.0668 25.9088 9.76055 25.8159 9.4832Z" fill="#9E69F5"/>
</g>
<path d="M15.6549 16.55V19H14.6189V16.55H9.3129V15.374L14.3109 8.794H15.6549V15.626H17.3769V16.55H15.6549ZM14.6189 9.9L10.2649 15.626H14.6189V9.9Z" fill="black"/>
<defs>
<clipPath id="clip0_842_1319">
<rect width="25" height="25" fill="white" transform="translate(0.857422)"/>
</clipPath>
</defs>
</svg>
