<svg width="26" height="25" viewBox="0 0 26 25" fill="none" xmlns="http://www.w3.org/2000/svg">
<g clip-path="url(#clip0_842_1327)">
<path d="M25.0527 9.4832C24.9597 9.20547 24.7191 9.00313 24.4296 8.95859L16.7445 7.78437L13.3011 0.449219C13.1722 0.175 12.8964 0 12.5937 0C12.291 0 12.0156 0.175 11.8863 0.449219L8.44292 7.78437L0.75776 8.95898C0.468307 9.00313 0.228073 9.20586 0.134713 9.48359C0.0417445 9.76094 0.111666 10.0672 0.316354 10.277L5.89995 16.0023L4.58042 24.0898C4.53198 24.3852 4.65659 24.6824 4.90151 24.8543C5.03588 24.9492 5.19331 24.9973 5.35112 24.9973C5.48081 24.9973 5.61128 24.9645 5.72924 24.8996L12.5933 21.1031L19.4574 24.8996C19.5753 24.9645 19.7058 24.9973 19.8355 24.9973C19.9933 24.9973 20.1511 24.9492 20.2851 24.8543C20.53 24.6824 20.6546 24.3852 20.6062 24.0898L19.2867 16.0023L24.8703 10.277C25.0753 10.0668 25.1457 9.76055 25.0527 9.4832Z" fill="#4FBC85"/>
</g>
<path d="M15.6685 9.802H11.3565L10.5725 13.19C10.8525 12.9287 11.1978 12.742 11.6085 12.63C12.0098 12.518 12.3738 12.462 12.7005 12.462C13.6805 12.462 14.4832 12.7607 15.1085 13.358C15.7338 13.9553 16.0465 14.7533 16.0465 15.752C16.0465 16.8347 15.6732 17.67 14.9265 18.258C14.2078 18.818 13.3912 19.098 12.4765 19.098C11.2538 19.098 10.2972 18.6593 9.6065 17.782C9.26116 17.3433 9.05583 16.8533 8.9905 16.312L10.0265 16.074C10.1292 16.69 10.4045 17.1753 10.8525 17.53C11.3005 17.9127 11.8558 18.104 12.5185 18.104C12.8918 18.104 13.2558 18.034 13.6105 17.894C13.9652 17.7447 14.2825 17.488 14.5625 17.124C14.8425 16.7507 14.9825 16.3027 14.9825 15.78C14.9825 14.9587 14.7212 14.352 14.1985 13.96C13.7132 13.5867 13.1532 13.4 12.5185 13.4C12.1545 13.4 11.7625 13.4933 11.3425 13.68C10.9505 13.876 10.6238 14.1327 10.3625 14.45L9.3685 14.058L10.5725 8.794H15.6685V9.802Z" fill="black"/>
<defs>
<clipPath id="clip0_842_1327">
<rect width="25" height="25" fill="white" transform="translate(0.0942383)"/>
</clipPath>
</defs>
</svg>
