<svg width="26" height="25" viewBox="0 0 26 25" fill="none" xmlns="http://www.w3.org/2000/svg">
<g clip-path="url(#clip0_842_1303)">
<path d="M25.8642 9.4832C25.7712 9.20547 25.5306 9.00313 25.2412 8.95859L17.556 7.78437L14.1126 0.449219C13.9837 0.175 13.708 0 13.4052 0C13.1025 0 12.8271 0.175 12.6978 0.449219L9.25444 7.78437L1.56928 8.95898C1.27983 9.00313 1.0396 9.20586 0.946237 9.48359C0.853268 9.76094 0.92319 10.0672 1.12788 10.277L6.71147 16.0023L5.39194 24.0898C5.3435 24.3852 5.46811 24.6824 5.71303 24.8543C5.84741 24.9492 6.00483 24.9973 6.16264 24.9973C6.29233 24.9973 6.4228 24.9645 6.54077 24.8996L13.4048 21.1031L20.2689 24.8996C20.3869 24.9645 20.5173 24.9973 20.647 24.9973C20.8048 24.9973 20.9626 24.9492 21.0966 24.8543C21.3415 24.6824 21.4662 24.3852 21.4177 24.0898L20.0982 16.0023L25.6818 10.277C25.8869 10.0668 25.9572 9.76055 25.8642 9.4832Z" fill="#BF9058"/>
</g>
<path d="M16.8238 19H9.93584V18.678C9.93584 17.2687 10.7245 16.074 12.3018 15.094L13.8418 14.142C14.1032 13.9927 14.3412 13.834 14.5558 13.666C14.6772 13.5727 14.8592 13.4047 15.1018 13.162C15.4565 12.7607 15.6338 12.28 15.6338 11.72C15.6338 11.188 15.4192 10.712 14.9898 10.292C14.5605 9.88133 14.0285 9.676 13.3938 9.676C12.8805 9.676 12.4418 9.802 12.0778 10.054C11.7325 10.306 11.4712 10.614 11.2938 10.978C11.1818 11.2767 11.1118 11.6127 11.0838 11.986L10.0198 11.832C10.0198 11.384 10.1272 10.9453 10.3418 10.516C10.5658 10.0773 10.8785 9.69933 11.2798 9.382C11.8492 8.91533 12.5632 8.682 13.4218 8.682C14.3552 8.682 15.1485 8.98533 15.8018 9.592C16.4272 10.1987 16.7398 10.8987 16.7398 11.692C16.7398 12.364 16.5625 12.9427 16.2078 13.428C15.8438 13.9227 15.3072 14.3893 14.5978 14.828L12.9878 15.836C11.8585 16.536 11.2752 17.264 11.2378 18.02H16.8238V19Z" fill="black"/>
<defs>
<clipPath id="clip0_842_1303">
<rect width="25" height="25" fill="white" transform="translate(0.905762)"/>
</clipPath>
</defs>
</svg>
