<svg width="20" height="20" viewBox="0 0 20 20" fill="none" xmlns="http://www.w3.org/2000/svg">
<path d="M14.1682 10.8335C14.6284 10.8335 15.0015 11.2066 15.0015 11.6668C15.0015 12.0942 14.6798 12.4464 14.2654 12.4946L14.1682 12.5002H4.51401L7.25743 15.2442C7.55783 15.5446 7.58094 16.0173 7.32675 16.3442L7.25743 16.4228C6.95703 16.7232 6.48433 16.7463 6.15742 16.4921L6.07892 16.4228L1.91225 12.2561C1.41011 11.7539 1.72845 10.9108 2.40682 10.8385L2.50151 10.8335H14.1682ZM13.8439 3.50825L13.9224 3.57757L18.0891 7.74424C18.5912 8.24639 18.2729 9.08948 17.5945 9.16184L17.4998 9.16683H5.83317C5.37293 9.16683 4.99984 8.79373 4.99984 8.3335C4.99984 7.90613 5.32154 7.55391 5.73599 7.50577L5.83317 7.50016H15.4873L12.7439 4.75608C12.4435 4.45568 12.4204 3.98299 12.6746 3.65608L12.7439 3.57757C13.0443 3.27717 13.517 3.25406 13.8439 3.50825Z" fill="#960E89"/>
</svg>
