<svg width="50" height="39" viewBox="0 0 50 39" fill="none" xmlns="http://www.w3.org/2000/svg">
<path d="M44.4992 16.3296C44.4992 16.3296 44.6777 12.3754 45.3899 10.2939C45.5967 9.6416 45.938 9.0399 46.3918 8.52763C46.8455 8.01535 47.4015 7.60388 48.0241 7.31975C48.4514 7.10703 48.6641 6.97979 48.6641 6.97979L44.4631 21.5163C44.54 21.6107 44.5878 21.7254 44.6007 21.8465C44.6135 21.9675 44.5907 22.0897 44.5352 22.1981C44.3567 22.6216 44.1079 22.6653 44.1079 22.6653L43.2533 25.6395C43.2533 25.6395 44.1421 26.1086 43.8933 27.0012C43.6445 27.8938 43.0045 27.7229 43.0045 27.7229L41.9352 31.4226C41.9502 32.007 41.8468 32.5884 41.6314 33.1318C40.1994 36.653 34.1181 37.1202 26.6276 37.6045C26.6276 37.6045 18.1382 38.1552 10.9991 35.5495C10.9991 35.5495 8.23005 34.5164 7.90338 33.0578C7.84262 32.7568 7.85368 32.4458 7.93567 32.1499C8.18636 31.1301 8.68396 31.1301 8.68396 31.1301L7.29564 27.4304C7.29564 27.4304 6.65561 27.8558 6.40491 26.9214C6.15422 25.987 6.54735 25.6034 6.79805 25.4761C7.04874 25.3489 6.15611 22.9673 6.15611 22.9673C6.15611 22.9673 5.80096 23.011 5.58635 22.4146C5.37174 21.8183 5.55027 21.4802 5.55027 21.4802C5.55027 21.4802 3.62448 15.5224 2.59131 11.8228C1.55814 8.12311 0.954193 6.08526 0.954193 6.08526C0.954193 6.08526 4.01571 7.53056 5.04888 10.3357C6.08205 13.1408 5.76108 14.8425 5.83135 16.0751C5.90162 17.3077 6.22449 17.8603 6.22449 17.8603C6.22449 17.8603 6.04596 13.7372 8.1104 13.2263C10.1748 12.7154 11.1377 15.1388 10.5319 17.264C9.92604 19.3892 9.14356 19.7728 9.14356 19.7728C9.14356 19.7728 9.7836 17.9876 8.60989 17.5622C7.43618 17.1367 7.36401 20.6142 7.36401 20.6142C7.36401 20.6142 7.64699 20.6142 7.79133 21.0396C7.8794 21.3292 7.9267 21.6296 7.93187 21.9322C7.93187 21.9322 9.00112 23.7612 9.96212 23.6415C10.9231 23.5219 11.0656 21.8582 11.0656 21.8582C11.0656 21.8582 11.6714 23.2598 12.7748 22.9616C13.8783 22.6634 14.8754 20.3673 13.7719 19.5601C12.6685 18.753 12.5963 19.6456 12.6685 19.94C12.7195 20.128 12.8326 20.2934 12.9895 20.4091C12.9895 20.4091 11.9563 20.5363 11.565 18.8783C11.1738 17.2203 11.8841 16.2859 12.4197 16.2004C12.9553 16.115 13.5231 16.7949 13.5231 16.7949C13.5231 16.7949 12.3836 14.4987 12.3836 12.3317C12.3836 10.1648 13.0236 9.05942 13.0236 9.05942C13.5906 9.47233 14.0643 9.99988 14.4141 10.6078C14.7639 11.2158 14.9819 11.8905 15.0539 12.5881C15.1827 13.8595 15.2309 15.1376 15.1982 16.415C15.1982 16.415 16.6587 14.5861 17.5836 16.1586C18.5085 17.7312 17.69 19.5183 17.2627 19.8146L16.8353 20.1128C16.8353 20.1128 17.3709 18.7093 16.4802 18.6675C15.5895 18.6257 15.6616 19.6874 15.6616 19.6874C15.8119 19.7694 15.9258 19.905 15.9807 20.0672C16.0199 20.2928 16.0199 20.5234 15.9807 20.749C15.9807 20.749 16.8012 22.1506 17.8685 21.8885C18.9359 21.6265 19.3613 20.2343 19.3613 20.2343C19.3613 20.2343 20.5008 21.7651 21.5701 21.296C22.6393 20.8269 22.8159 19.2999 22.8159 19.2999C22.7235 18.9963 22.6756 18.681 22.6735 18.3636C22.6735 17.8546 22.9223 17.7274 22.9223 17.7274C22.9223 17.7274 22.9223 15.2584 21.0364 15.2584C19.1505 15.2584 20.5369 17.5963 20.5369 17.5963C20.5369 17.5963 18.1876 16.5005 18.0091 14.0334C17.8305 11.5664 20.9281 10.0812 22.1037 11.6537C23.2793 13.2263 23.813 15.3097 23.7769 14.9261C23.7409 14.5424 23.2793 11.1011 22.8159 7.70908C22.3525 4.3171 25.3077 1.62213 25.3077 1.62213C25.3077 1.62213 28.4775 4.0911 27.9077 8.04144C27.3379 11.9918 26.9106 14.7988 26.9106 14.7988C26.9106 14.7988 27.9077 10.3794 30.6122 10.8884C33.3166 11.3973 31.8675 15.9649 30.5419 17.0513C30.3121 17.2489 30.0718 17.434 29.8221 17.6058C29.8221 17.6058 30.3919 15.4787 29.3948 15.3097C28.3977 15.1407 27.5431 17.6058 27.5431 17.6058C27.6423 17.8047 27.7029 18.0206 27.7216 18.2421C27.715 18.5648 27.6426 18.8827 27.5089 19.1765C27.5089 19.1765 27.8279 20.9636 28.9314 21.2181C30.0348 21.4726 30.9616 20.2343 30.9616 20.2343C30.9616 20.2343 30.9255 21.7214 32.2436 21.9778C33.5616 22.2342 33.9168 20.9997 33.9168 20.9997C33.9168 20.9997 33.668 20.8288 33.668 20.3198C33.6577 20.1858 33.69 20.0519 33.7602 19.9373C33.8305 19.8228 33.9351 19.7333 34.0592 19.6817C34.0592 19.6817 34.4144 18.5421 33.347 18.2364C32.2797 17.9306 32.6348 19.5126 32.6348 19.5126C32.6348 19.5126 31.1041 17.6837 32.4563 16.1112C33.8085 14.5386 34.7714 17.3437 34.7714 17.3437C34.7714 17.3437 34.3441 13.815 35.2709 11.7753C36.1977 9.73553 37.1207 9.30631 37.1207 9.30631C37.702 10.9641 37.7517 12.7619 37.2632 14.4494C36.4446 17.2545 36.0534 17.9781 36.0534 17.9781C36.0534 17.9781 37.9051 16.1074 38.7598 17.6381C39.6144 19.1689 38.0476 20.656 37.6563 20.7832C37.402 20.8617 37.138 20.9045 36.872 20.9105C36.872 20.9105 37.6563 19.4652 36.9441 19.167C36.2319 18.8688 35.8388 19.6361 35.8388 19.6361C35.9505 19.873 35.9995 20.1345 35.9812 20.3958C35.9591 20.6532 35.8737 20.9011 35.7324 21.1175C35.7324 21.1175 35.8749 22.6045 36.9783 22.7755C38.0817 22.9464 38.8661 21.7974 38.8661 21.7974C38.8661 21.7974 38.9725 23.7536 40.5393 23.6681C40.9719 23.6619 41.3937 23.532 41.7548 23.2937C42.116 23.0555 42.4013 22.7188 42.5772 22.3235C42.5196 22.221 42.4835 22.1078 42.4711 21.9909C42.4587 21.874 42.4702 21.7558 42.505 21.6435C42.5417 21.5209 42.6169 21.4132 42.7195 21.3366C42.8221 21.26 42.9467 21.2185 43.0748 21.2181C43.0748 21.2181 43.6806 18.7947 42.3986 18.3693C41.1167 17.9439 41.2173 20.2837 41.2173 20.2837C41.2173 20.2837 39.1586 18.3351 39.9069 15.7769C40.6552 13.2187 43.3236 12.8445 44.4992 16.3296Z" fill="url(#paint0_linear_526_47554)"/>
<path d="M48.2159 7.221C48.516 7.06717 48.6641 6.97791 48.6641 6.97791L44.4631 21.5144C44.54 21.6088 44.5879 21.7235 44.6007 21.8446C44.6135 21.9657 44.5908 22.0879 44.5353 22.1962C44.3567 22.6198 44.1079 22.6634 44.1079 22.6634L43.2533 25.6376C43.2533 25.6376 41.9979 25.1495 41.3028 24.895C40.6077 24.6405 40.4216 24.6709 40.6096 24.6405C40.7976 24.6101 42.1043 24.2246 42.7196 23.7156C43.0756 23.4295 43.3511 23.0558 43.5192 22.6312C43.5192 22.6312 42.5848 21.7708 42.7728 21.8031C43.1882 21.8571 43.5989 21.9421 44.0016 22.0576C44.3472 22.1848 44.5353 21.993 44.3472 21.7385C44.1592 21.484 43.2533 21.3245 43.2533 21.3245C43.5276 20.4891 43.5553 19.5923 43.3331 18.7416C42.9532 17.34 41.865 17.8167 41.865 17.8167C41.865 17.8167 42.4784 17.3704 43.0653 17.754C43.6521 18.1376 43.9465 19.507 43.9465 19.507C44.1158 19.0214 44.2324 18.519 44.2941 18.0085C44.3416 17.5956 44.3594 17.1799 44.3472 16.7645C44.5071 17.1382 44.5978 17.5378 44.615 17.9439L44.6416 18.6143C44.6416 18.6143 45.8438 14.7267 46.6434 12.1115C47.4429 9.49625 48.2159 7.221 48.2159 7.221Z" fill="#CE6528"/>
<path d="M15.7433 19.1366C15.6805 19.3132 15.6521 19.5001 15.6598 19.6874C15.81 19.7694 15.9239 19.905 15.9788 20.0672C16.018 20.2928 16.018 20.5234 15.9788 20.749C15.7935 20.9201 15.5672 21.0405 15.3217 21.0985C14.8678 21.2257 14.3322 21.0035 14.4936 21.0035C14.6551 21.0035 15.5534 21.0035 15.4812 20.4623C15.3749 19.6646 14.1879 20.1584 14.1879 20.1584C14.1369 19.9815 14.0444 19.8194 13.9182 19.6855L14.2259 19.6646L14.1993 19.0587C14.0275 18.9206 13.827 18.8226 13.6124 18.772C13.4076 18.7349 13.1969 18.746 12.9971 18.8042C13.1872 18.6555 13.4056 18.547 13.639 18.4852C13.8305 18.474 14.0221 18.5065 14.1993 18.5801C14.2557 17.8432 14.2019 17.102 14.0397 16.3809C13.7719 15.3933 13.6124 14.947 13.7188 15.1065C14.0613 15.8016 14.3385 16.5271 14.5468 17.2735C14.7861 18.1661 14.9476 18.1034 14.9476 17.8793C14.8032 16.7452 14.7227 15.6039 14.7064 14.4608C14.6798 12.3564 14.4671 11.3992 14.3588 10.9852C14.2505 10.5712 14.1822 10.2255 14.1822 10.2255C14.6741 10.9171 14.9748 11.7261 15.0539 12.5711C15.1834 13.848 15.2316 15.132 15.1982 16.415L15.3502 16.2555C15.3502 16.2555 15.297 17.0152 15.297 17.6267V18.4871C15.297 18.4871 15.5895 17.8812 16.1516 17.8167C16.7138 17.7521 16.9246 18.4548 16.9246 18.4548C16.9246 18.4548 16.4441 17.9135 16.0168 18.2326C15.5895 18.5517 15.7433 19.1366 15.7433 19.1366Z" fill="#CE6528"/>
<path d="M7.36402 20.6142C7.36402 20.6142 7.647 20.6142 7.79134 21.0396C7.87941 21.3292 7.92671 21.6296 7.93188 21.9322L7.99455 22.0348C7.99455 22.0348 7.73626 22.2095 7.42479 22.3994C7.15809 22.5454 6.88138 22.6724 6.59674 22.7793C6.59674 22.7793 6.64992 22.9692 7.23677 23.6396C7.82363 24.31 9.21384 24.3423 9.39997 24.3727C9.58609 24.4031 8.51874 24.7241 7.50076 24.31C6.89024 24.0516 6.40681 23.5621 6.15612 22.9483C6.15612 22.9483 5.80097 22.992 5.58636 22.3956C5.37175 21.7993 5.55028 21.4612 5.55028 21.4612L5.45342 21.1612L5.87124 21.0263C5.74704 20.7054 5.59516 20.396 5.41733 20.1014C5.22741 19.8545 4.91215 19.4747 4.91215 19.4747C4.5418 18.3067 4.0575 16.7588 3.5827 15.211C3.5827 15.211 4.34238 17.5565 4.7944 18.3218C5.06274 18.7766 5.37576 19.2035 5.7288 19.5962C5.7288 19.5962 5.44012 16.5746 5.30718 14.7267C5.17424 12.8787 5.11726 11.857 4.85327 10.6472C4.71321 9.96553 4.47187 9.30872 4.13727 8.69858C4.51991 9.19723 4.82707 9.74949 5.04889 10.3376C6.08206 13.1427 5.76109 14.8425 5.83136 16.0751C5.90163 17.3077 6.2245 17.8603 6.2245 17.8603C6.2245 17.8603 6.24159 18.5251 6.27198 19.2847C6.30236 20.0444 6.37833 20.7528 6.37833 20.7528L6.75817 20.5629C6.75817 20.5629 6.72209 18.715 7.14941 17.6894C7.24728 17.4125 7.44113 17.1797 7.69581 17.0334C7.9505 16.8871 8.24918 16.8368 8.53773 16.8917C8.53773 16.8917 7.52355 16.8291 7.176 18.2953C6.82844 19.7614 7.09623 20.5591 7.09623 20.5591L7.36402 20.6142ZM7.44379 21.955C7.70967 21.7955 7.55014 21.2523 7.44379 21.0928C7.33743 20.9333 6.26818 21.1896 5.78768 21.4726C5.30718 21.7556 5.63764 22.6748 6.08206 22.5248C6.54814 22.3684 7.00309 22.1805 7.44379 21.9626V21.955Z" fill="#CE6528"/>
<path d="M10.435 24.1942C10.6291 24.039 10.7999 23.8567 10.9421 23.6529C11.063 23.4798 11.153 23.287 11.208 23.0832C11.398 23.2682 11.6262 23.4095 11.8765 23.4972C12.2241 23.5921 12.6229 23.5921 12.5431 23.6567C12.308 23.7606 12.0539 23.8149 11.7968 23.8163C11.6178 23.8148 11.439 23.8041 11.2612 23.784C11.1478 23.9432 10.9899 24.0654 10.8073 24.1353C10.4616 24.2892 10.435 24.1942 10.435 24.1942Z" fill="#CE6528"/>
<path d="M14.467 23.0452C14.222 23.1914 14.2258 22.9825 14.412 22.8552C14.5981 22.728 14.7918 22.2855 14.9475 21.8335L15.1071 21.3872C15.3515 21.7302 15.6597 22.0229 16.0149 22.2494C16.4954 22.5039 16.7898 22.5989 16.6283 22.5989C16.4669 22.5989 15.3483 22.5039 15.3483 22.5039C15.3483 22.5039 14.7329 22.8932 14.467 23.0452Z" fill="#CE6528"/>
<path d="M18.7915 22.1525C18.9819 22.0816 19.1421 21.9476 19.2454 21.7727C19.3468 21.6315 19.4364 21.4823 19.5132 21.3264C19.6427 21.4971 19.7856 21.6571 19.9406 21.805C20.0917 21.9426 20.2523 22.0695 20.4211 22.1848C20.1889 22.2024 19.9555 22.1915 19.7259 22.1525C19.4155 22.1176 19.102 22.1176 18.7915 22.1525Z" fill="#CE6528"/>
<path d="M26.7226 19.4747C26.1092 19.4424 25.4141 19.4424 25.4141 19.4424C25.4141 19.4424 25.604 19.7937 26.1889 20.6541C26.5496 21.1777 26.9913 21.6406 27.4975 22.0253L26.8043 21.898C26.5527 21.685 26.3201 21.4506 26.1092 21.1972C25.7404 20.7471 25.4101 20.2668 25.1216 19.7614L25.095 22.0253C25.095 22.0253 24.5062 21.993 23.9992 21.9303C23.6435 21.8954 23.2847 21.9062 22.9318 21.9626C23.4344 21.6868 23.8717 21.3059 24.2138 20.8459C24.5084 20.4165 24.7031 19.9265 24.7835 19.412L22.8255 19.3056C22.7752 19.1411 22.7384 18.9728 22.7153 18.8023C22.7153 18.8023 25.1843 18.7739 25.6914 18.7739C26.1984 18.7739 26.4396 18.168 25.8813 18.1357C25.3229 18.1034 22.7628 17.9458 22.7628 17.9458C22.7958 17.8576 22.8564 17.7823 22.9356 17.7312C22.9356 17.7312 22.9356 17.6286 22.9204 17.4672H23.1578C23.1578 17.4672 23.1578 16.0314 22.25 15.3306C21.3422 14.6298 20.6224 15.0115 20.6224 15.0115C20.6224 15.0115 21.9309 14.4418 22.7115 15.2983C23.4921 16.1549 23.6193 17.4995 23.6193 17.4995H24.0466C24.0466 17.4995 24.9279 16.0637 25.1425 13.099C25.3571 10.1344 25.3324 6.85064 25.3818 7.64641C25.4312 8.44218 25.49 12.1114 25.6762 13.7372C25.8623 15.3629 26.1832 16.1586 26.1832 16.1586C26.1832 16.1586 26.4833 13.1313 27.2582 9.59879C28.0331 6.06627 27.3228 4.25253 27.3228 4.25253C27.8917 5.43216 28.0954 6.7548 27.9077 8.05094C27.338 12.0032 26.9106 14.8083 26.9106 14.8083C26.9106 14.8083 26.7777 15.6269 26.696 16.1681C26.6144 16.7094 26.5631 17.509 26.5631 17.509H26.9106C26.9106 17.509 27.7653 14.2556 29.448 14.3829C31.1307 14.5101 30.3919 16.7018 30.3919 16.7018C30.3919 16.7018 30.6046 15.8092 30.1773 15.1711C29.75 14.5329 28.8478 14.6298 28.2553 15.3952C27.6627 16.1605 27.3475 17.5299 27.3475 17.5299L27.5602 17.6058C27.6594 17.8047 27.72 18.0206 27.7387 18.2421C27.7321 18.5648 27.6597 18.8827 27.526 19.1765C27.526 19.1765 27.338 19.5069 26.7226 19.4747ZM25.3077 14.8843C25.2723 15.3158 25.194 15.7427 25.0741 16.1586C24.8595 16.9183 24.6734 17.4995 24.6734 17.4995H25.9553C25.7616 17.0513 25.3077 14.8843 25.3077 14.8843Z" fill="#CE6528"/>
<path d="M29.5809 21.993C29.8182 21.9757 30.0473 21.8993 30.2475 21.7708C30.4887 21.5809 30.6749 21.4194 30.6749 21.4194C30.7372 21.6369 30.8368 21.8419 30.9692 22.0253C31.1592 22.2494 31.539 22.4051 31.4497 22.4051C31.188 22.3818 30.9335 22.3062 30.7014 22.1829C30.4356 22.0234 30.3558 22.0557 30.0348 22.088C29.7139 22.1203 29.4214 21.993 29.5809 21.993Z" fill="#CE6528"/>
<path d="M34.9215 21.1972C34.908 21.6154 34.9527 22.0335 35.0544 22.4393C35.2158 22.9502 35.4342 23.2693 35.2956 23.1724C35.157 23.0755 34.5473 22.6026 34.5473 22.6026C34.5473 22.6026 33.4078 22.8268 33.7193 22.6349C34.0396 22.4324 34.2984 22.146 34.4676 21.8069C34.5707 21.5853 34.6349 21.3476 34.6575 21.1042L33.9282 21.0092C33.9282 21.0092 33.6794 20.8383 33.6794 20.3293C33.6691 20.1953 33.7014 20.0614 33.7716 19.9468C33.8419 19.8323 33.9465 19.7428 34.0706 19.6912C34.0706 19.6912 33.6699 20.6579 34.0972 20.7224C34.5313 20.7779 34.9682 20.8096 35.4058 20.8174C35.5957 20.8174 35.7267 20.1793 35.4058 20.0216C35.0848 19.864 34.2852 19.8944 34.2852 19.8944C34.4228 19.5297 34.4414 19.1308 34.3384 18.7549C34.2463 18.4358 34.0357 18.164 33.7497 17.9952C33.7497 17.9952 34.2567 18.1547 34.4448 18.5061C34.5747 18.7897 34.6642 19.0902 34.7107 19.3987C34.9342 18.7351 35.0957 18.0523 35.193 17.3589C35.3002 16.658 35.4915 15.9725 35.7628 15.3173C35.7628 15.3173 35.7096 17.0076 35.4684 17.7084C35.2272 18.4092 35.2785 19.5582 35.2785 19.5582C35.5265 18.648 35.8296 17.7537 36.1863 16.8803C36.6934 15.7009 36.9612 14.5196 37.2271 13.532C37.3941 12.9032 37.5172 12.2635 37.5955 11.6176C37.6559 12.5821 37.5492 13.5497 37.2803 14.4778C36.4617 17.283 36.0705 18.0066 36.0705 18.0066L35.8825 19.0948C35.8825 19.0948 36.6307 18.4567 37.191 18.8384C37.7513 19.2202 37.1815 20.1679 37.1815 20.1679C37.2898 19.769 37.3069 19.3341 36.9517 19.1841C36.2395 18.8878 35.8464 19.6532 35.8464 19.6532C35.9581 19.8901 36.0071 20.1516 35.9888 20.4129C35.9667 20.6703 35.8813 20.9182 35.74 21.1346C35.74 21.1346 35.74 21.1801 35.7571 21.2542" fill="#CE6528"/>
<path d="M37.645 23.6529C37.8654 23.565 38.0725 23.4468 38.2603 23.3016C38.3645 23.2027 38.4806 23.1173 38.6059 23.0471C38.6447 23.2797 38.717 23.5056 38.8206 23.7175C39.0105 24.1315 39.4074 24.4506 39.2004 24.3556C38.9249 24.1768 38.6656 23.974 38.4255 23.7498C38.4255 23.7498 37.3791 23.7783 37.645 23.6529Z" fill="#CE6528"/>
<path d="M43.0045 27.721L41.9352 31.4207H41.4377C41.4377 31.4207 35.7229 29.1568 31.7517 28.6478C27.7805 28.1388 20.7496 27.7533 15.3825 29.1891C10.0153 30.6249 8.86629 31.2611 8.65168 31.358C8.43707 31.4549 8.68777 31.113 8.68777 31.113L7.29945 27.4133C7.23973 27.4563 7.17157 27.4862 7.09946 27.5009C7.02736 27.5156 6.95296 27.5149 6.88117 27.4987C6.80937 27.4826 6.74182 27.4514 6.68297 27.4072C6.62412 27.363 6.57531 27.3068 6.53976 27.2424C9.82638 25.8894 13.2432 24.8776 16.7366 24.2227C22.2443 23.2351 29.1004 23.463 33.799 24.3195C38.4977 25.1761 42.5354 26.9651 42.826 27.157C42.9106 27.2208 42.9732 27.3094 43.0052 27.4105C43.0372 27.5116 43.0369 27.6201 43.0045 27.721ZM31.9568 25.3413C32.0651 26.2339 31.4763 26.6157 31.4763 26.6157C31.585 26.7227 31.6679 26.8531 31.7189 26.9968C31.7699 27.1406 31.7876 27.294 31.7707 27.4456C31.7441 28.0154 31.3909 28.1464 31.3909 28.1464C31.3909 28.1464 33.7136 28.5263 34.1675 28.6877C34.6214 28.8491 34.95 24.9577 34.5701 24.8304C34.1903 24.7032 31.5561 24.2227 31.5561 24.2227C31.5561 24.2227 31.8505 24.4487 31.9568 25.3413ZM28.1926 25.9472C28.1128 27.6356 26.9106 27.7628 26.9106 27.7628C26.9106 27.7628 27.3114 27.6678 28.299 27.7628C29.2865 27.8578 30.3292 28.0515 30.3292 28.0515C30.2218 27.9201 30.1426 27.7679 30.0965 27.6045C30.0504 27.4412 30.0385 27.2701 30.0614 27.1019C30.1146 26.4637 30.5419 26.4011 30.5419 26.4011C30.5419 26.4011 30.1621 26.1447 30.088 25.3812C30.0139 24.6177 30.409 24.2645 30.409 24.2645C30.409 24.2645 29.5277 24.1695 29.0206 24.1049C28.5136 24.0404 27.3645 24.01 27.3645 24.01C27.3645 24.01 28.2724 24.2569 28.1926 25.9472ZM20.8959 24.1296C20.8959 24.1296 21.2168 24.0973 21.4656 24.8627C21.5306 25.098 21.5379 25.3454 21.487 25.5841C21.4361 25.8228 21.3284 26.0457 21.1731 26.2339C21.3032 26.2819 21.4184 26.363 21.5074 26.4693C21.5964 26.5756 21.6559 26.7033 21.6802 26.8398C21.8132 27.3488 21.4656 27.8597 21.4656 27.8597C21.7941 27.8214 22.1244 27.7999 22.4551 27.7951C22.909 27.7951 24.7341 27.6678 24.7341 27.6678L24.6943 23.9055C23.4249 23.9073 22.1566 23.9821 20.8959 24.1296ZM17.7242 26.1067C17.992 27.6052 17.0576 28.4009 17.0576 28.4009C17.4954 28.2905 17.9393 28.2056 18.387 28.1464C19.2701 28.0192 20.2311 27.9223 20.2311 27.9223C20.2311 27.9223 19.9102 27.7628 19.9368 27.1266C19.9633 26.4903 20.2311 26.2339 20.2311 26.2339C20.2311 26.2339 19.9102 26.2017 19.8038 25.3736C19.6975 24.5455 20.1837 24.1942 20.1837 24.1942C19.7538 24.205 19.3253 24.2475 18.9017 24.3214C18.1268 24.4487 16.9512 24.5759 16.9512 24.5759C16.9512 24.5759 17.4564 24.6025 17.7242 26.1067ZM12.5394 26.4258C12.691 26.8576 12.6815 27.3297 12.5128 27.7552C12.5128 27.7552 12.7806 27.7875 12.9401 28.361C13.0395 28.6891 13.011 29.0426 12.8603 29.3505L13.8213 29.096C14.7823 28.8396 15.7452 28.5529 15.7452 28.5529C15.7452 28.5529 15.1299 28.3933 14.8906 26.8322C14.6513 25.271 15.5306 24.8228 15.5306 24.8228C15.5306 24.8228 14.5962 25.0127 13.715 25.2388C12.8337 25.4648 11.9525 25.78 11.9525 25.78C11.9525 25.78 12.2773 25.7553 12.5394 26.4258ZM10.002 27.9546C10.1554 28.336 10.2297 28.7446 10.2206 29.1556C10.2114 29.5666 10.119 29.9715 9.94884 30.3457C10.1707 30.2391 10.4021 30.1539 10.6401 30.0912C11.0941 29.964 12.0019 29.6449 12.0019 29.6449C12.0019 29.6449 11.7341 29.6449 11.4948 29.0391C11.4234 28.8687 11.3957 28.6832 11.4142 28.4995C11.4328 28.3157 11.4971 28.1395 11.6011 27.9869C11.6011 27.9869 11.2536 27.8597 11.1206 27.1589C11.0344 26.7781 11.0528 26.381 11.1738 26.0098C11.1738 26.0098 10.6933 26.1371 10.1331 26.3289C9.57279 26.5207 8.6137 26.8075 8.6137 26.8075C8.6137 26.8075 9.50062 26.5853 10.0058 27.9546H10.002Z" fill="#CE6528"/>
<path d="M11.5898 32.6419C10.4161 33.0217 10.7883 33.9162 11.6695 34.2676C12.5508 34.6189 19.6462 36.1801 24.248 36.2124C28.8497 36.2446 32.4145 35.9579 35.2235 35.2628C38.0324 34.5676 39.6296 33.7339 39.3884 33.4471C39.1472 33.1603 33.7269 31.0864 27.7197 30.7673C21.7125 30.4483 14.3588 31.7492 11.5898 32.6419Z" fill="url(#paint1_linear_526_47554)"/>
<path d="M42.6664 27.6052C40.2791 26.2757 39.8613 30.1539 41.6238 31.1757C43.3862 32.1974 44.2143 28.4655 42.6664 27.6052Z" fill="#C52527"/>
<path d="M41.1964 29.2936C41.0065 29.5727 40.7691 29.4208 40.9287 28.8472C41.0882 28.2737 41.7301 27.7628 42.1308 27.9546C42.5316 28.1464 42.4252 28.7523 42.0245 28.7143C41.6238 28.6763 41.3294 29.1036 41.1964 29.2936Z" fill="white"/>
<path d="M38.6059 28.211C37.3695 27.5387 37.191 29.5177 38.2603 29.8994C39.3295 30.2811 39.4872 28.6877 38.6059 28.211Z" fill="white"/>
<path d="M38.9801 26.2016C37.7418 25.5293 37.5652 27.5083 38.6325 27.8919C39.6999 28.2756 39.8613 26.6802 38.9801 26.2016Z" fill="white"/>
<path d="M30.8097 26.4561C29.5714 25.7857 29.3929 27.7628 30.4622 28.1464C31.5314 28.5301 31.6909 26.9347 30.8097 26.4561Z" fill="white"/>
<path d="M30.8629 24.6405C29.6246 23.9682 29.448 25.9471 30.5153 26.3289C31.5827 26.7106 31.7441 25.1172 30.8629 24.6405Z" fill="white"/>
<path d="M20.5806 24.3841C19.3442 23.7137 19.1657 25.6908 20.2349 26.0744C21.3042 26.458 21.4656 24.8627 20.5806 24.3841Z" fill="white"/>
<path d="M20.7154 26.1694C19.4771 25.497 19.3005 27.476 20.3679 27.8596C21.4352 28.2433 21.5967 26.648 20.7154 26.1694Z" fill="white"/>
<path d="M11.7151 26.1067C10.4787 25.4344 10.3002 27.4133 11.3694 27.7951C12.4387 28.1768 12.5963 26.5853 11.7151 26.1067Z" fill="white"/>
<path d="M12.169 27.9223C10.9326 27.2519 10.7541 29.2309 11.8233 29.6126C12.8926 29.9944 13.0502 28.4009 12.169 27.9223Z" fill="white"/>
<path d="M38.473 28.7523C38.4274 28.5339 38.7142 28.5927 38.794 28.8795C38.8737 29.1663 38.8205 29.5176 38.473 29.5176C38.1254 29.5176 37.7779 29.1036 38.0723 29.1663C38.3666 29.229 38.5585 29.134 38.473 28.7523Z" fill="#6BC4D6"/>
<path d="M38.8471 26.7448C38.8016 26.5245 39.0864 26.5853 39.1681 26.8721C39.2498 27.1588 39.1947 27.5083 38.8471 27.5083C38.4996 27.5083 38.152 27.0943 38.4464 27.1588C38.7408 27.2234 38.9269 27.1266 38.8471 26.7448Z" fill="#6BC4D6"/>
<path d="M30.6749 26.9993C30.6293 26.7809 30.9161 26.8398 30.9958 27.1266C31.0756 27.4133 31.0224 27.7628 30.6749 27.7628C30.3273 27.7628 29.9817 27.3488 30.2741 27.4133C30.5666 27.4779 30.7565 27.381 30.6749 26.9993Z" fill="#6BC4D6"/>
<path d="M30.7299 25.1818C30.6824 24.9634 30.9692 25.0222 31.049 25.309C31.1288 25.5958 31.0756 25.9472 30.7299 25.9472C30.3843 25.9472 30.0348 25.5331 30.3292 25.5958C30.6236 25.6585 30.8097 25.5635 30.7299 25.1818Z" fill="#6BC4D6"/>
<path d="M20.4476 24.9273C20.4021 24.707 20.6888 24.7677 20.7686 25.0545C20.8484 25.3413 20.7952 25.6908 20.4476 25.6908C20.1001 25.6908 19.7544 25.2767 20.0469 25.3413C20.3394 25.4059 20.5274 25.309 20.4476 24.9273Z" fill="#6BC4D6"/>
<path d="M20.5806 26.7125C20.535 26.4941 20.8218 26.553 20.9015 26.8398C20.9813 27.1266 20.9281 27.476 20.5806 27.476C20.233 27.476 19.8874 27.062 20.1817 27.1266C20.4761 27.1911 20.6622 27.0943 20.5806 26.7125Z" fill="#6BC4D6"/>
<path d="M11.5898 26.648C11.5442 26.4296 11.831 26.4884 11.9107 26.7752C11.9905 27.062 11.9373 27.4133 11.5898 27.4133C11.2422 27.4133 10.8965 26.9993 11.189 27.062C11.4815 27.1247 11.6619 27.0316 11.5898 26.648Z" fill="#6BC4D6"/>
<path d="M12.036 28.4655C11.9905 28.2471 12.2772 28.306 12.357 28.5927C12.4368 28.8795 12.3836 29.2309 12.036 29.2309C11.6885 29.2309 11.3428 28.8168 11.6353 28.8795C11.9278 28.9422 12.1158 28.8472 12.036 28.4655Z" fill="#6BC4D6"/>
<path d="M35.0544 24.9577C32.7431 24.1182 31.4763 27.8919 34.2814 28.72C37.0866 29.548 36.8966 25.6281 35.0544 24.9577Z" fill="#263D8C"/>
<path d="M35.0278 25.9471C35.3678 26.3156 35.1608 26.6157 34.648 26.3612C34.1352 26.1067 33.8484 26.3289 33.687 26.967C33.5256 27.6052 33.1001 27.381 33.0736 26.8398C33.047 26.2985 33.7991 24.6025 35.0278 25.9471Z" fill="white"/>
<path d="M26.5099 23.7783C27.4785 23.9511 28.4585 26.4884 26.7777 27.4456C25.0969 28.4028 22.8235 27.3184 22.9318 25.5635C23.0401 23.8087 25.264 23.5561 26.5099 23.7783Z" fill="#C52527"/>
<path d="M26.0237 24.5759C26.3086 24.7848 25.9705 25.2141 25.4368 24.9558C24.9032 24.6975 24.2612 24.8931 24.2612 25.7857C24.2612 26.6784 23.6915 26.4865 23.4864 25.8484C23.2812 25.2103 24.2403 23.2731 26.0237 24.5759Z" fill="white"/>
<path d="M15.4015 24.9577C16.7404 24.7355 17.4298 26.3935 17.2437 27.1266C17.0576 27.8596 15.3749 29.2632 14.2259 28.2414C13.0768 27.2196 14.0587 25.1818 15.4015 24.9577Z" fill="#263D8C"/>
<path d="M15.7205 25.4363C16.1744 25.5065 16.0681 26.006 15.6939 25.9775C15.3198 25.949 14.7329 26.2966 14.7861 27.062C14.8393 27.8274 14.2164 27.7001 14.1461 27.2519C14.0758 26.8037 14.4936 25.2463 15.7205 25.4363Z" fill="white"/>
<path d="M7.8977 27.2614C9.72473 26.3821 10.3971 29.9735 9.12648 30.6401C7.36402 31.5574 5.84086 28.2414 7.8977 27.2614Z" fill="#C52527"/>
<path d="M7.84452 29.5822C7.84452 30.0608 7.36403 29.9317 7.33554 29.3581C7.30705 28.7846 7.57674 28.0819 7.87111 27.9869C8.16549 27.8919 8.3782 27.9869 8.16359 28.3383C7.95869 28.7212 7.84923 29.1479 7.84452 29.5822Z" fill="white"/>
<defs>
<linearGradient id="paint0_linear_526_47554" x1="5.24809" y1="25" x2="45.3244" y2="25" gradientUnits="userSpaceOnUse">
<stop stop-color="#DFBB24"/>
<stop offset="0.510822" stop-color="#FFEA93"/>
<stop offset="0.97" stop-color="#DFBB24"/>
</linearGradient>
<linearGradient id="paint1_linear_526_47554" x1="25.1235" y1="36.2143" x2="25.1235" y2="30.7123" gradientUnits="userSpaceOnUse">
<stop stop-color="#DFBB24"/>
<stop offset="1" stop-color="#754C29"/>
</linearGradient>
</defs>
</svg>
