<svg width="59" height="59" viewBox="0 0 59 59" fill="none" xmlns="http://www.w3.org/2000/svg">
<rect x="0.54541" width="58.1818" height="58.1818" rx="8" fill="#31353F"/>
<path d="M29.6363 15.8677C22.3372 15.8677 16.4132 21.7916 16.4132 29.0908C16.4132 36.39 22.3372 42.314 29.6363 42.314C36.9355 42.314 42.8595 36.39 42.8595 29.0908C42.8595 21.7916 36.9355 15.8677 29.6363 15.8677ZM34.6876 34.8032C34.5686 35.4379 34.0264 35.8875 33.3917 35.8875H26.0661C25.1934 35.8875 24.5587 35.0412 24.7967 34.2082L25.9074 30.3073L23.6463 30.7569C23.5802 30.7702 23.514 30.7702 23.4479 30.7702C22.9851 30.7702 22.5752 30.4396 22.4826 29.9768C22.3768 29.4346 22.7206 28.9189 23.2628 28.8131L26.5289 28.1652L28.2611 22.1222C28.3405 21.8445 28.6049 21.6462 28.8959 21.6462H30.6942C31.5669 21.6462 32.2016 22.466 31.9768 23.3123L30.9058 27.2925L33.4579 26.7768C33.9868 26.671 34.5157 27.0148 34.6215 27.5569C34.7272 28.0991 34.3834 28.6148 33.8413 28.7206L30.3239 29.4214L29.5967 32.1321H33.6033C34.4231 32.1321 35.0446 32.8726 34.8992 33.6925L34.6876 34.8032Z" fill="#64CFF9"/>
</svg>
