<svg width="59" height="59" viewBox="0 0 59 59" fill="none" xmlns="http://www.w3.org/2000/svg">
<rect x="0.36377" width="58.1818" height="58.1818" rx="8" fill="#31353F"/>
<path d="M33.4823 16.7116C31.6037 17.7326 30.4914 19.5763 30.4914 21.5205C30.4914 22.5415 30.9346 23.5704 31.4894 24.4883C31.9325 25.3083 32.1498 26.7393 30.603 27.4561C29.4993 28.0671 28.0553 27.6598 27.3949 26.6362C26.7343 25.8162 25.9595 24.9963 24.9616 24.3852C23.083 23.3642 20.867 23.3642 18.9883 24.3852C17.1096 25.4061 16.0001 27.2545 16.0001 29.1992C16.0001 31.1439 17.1039 32.987 18.9878 34.0107C20.8664 35.0317 23.0824 35.0317 24.9611 34.0107C25.9591 33.4976 26.7337 32.6829 27.283 31.7597C27.7261 31.0429 28.9442 30.1198 30.4911 30.9397C31.5949 31.5507 31.9265 32.8866 31.3774 33.9076C30.8228 34.8307 30.4911 35.8544 30.4911 36.8754C30.4911 38.8222 31.5949 40.6632 33.482 41.6843C35.3605 42.7052 37.5766 42.7052 39.4553 41.6843C41.3339 40.6633 42.4464 38.8196 42.4464 36.8754C42.4464 34.9312 41.3398 33.0876 39.4555 32.0639C38.4576 31.5507 37.351 31.3471 36.1357 31.3471C35.1378 31.3471 33.8139 30.7361 33.8139 29.1992C33.8139 27.9693 34.8119 27.0513 36.1357 27.0513C37.2395 27.0513 38.4576 26.8477 39.4555 26.3345C41.3341 25.3136 42.4464 23.4699 42.4464 21.5258C42.4464 19.5817 41.3398 17.738 39.4555 16.7169C38.5692 16.2038 37.4654 16.0001 36.4678 16.0001C35.4756 15.9948 34.3633 16.2038 33.4827 16.7116" fill="#43AEE2"/>
</svg>
