<svg width="59" height="59" viewBox="0 0 59 59" fill="none" xmlns="http://www.w3.org/2000/svg">
<rect x="0.0908203" width="58.1818" height="58.1818" rx="8" fill="#31353F"/>
<path d="M28.719 16.3308L21.7239 23.3258C21.4595 23.5903 21.4595 24.0002 21.7239 24.2646L23.4297 25.9704C23.6942 26.2349 24.1041 26.2349 24.3685 25.9704L28.719 21.62C28.9834 21.3556 29.3933 21.3556 29.6578 21.62L34.0082 25.9704C34.2727 26.2349 34.6826 26.2349 34.9471 25.9704L36.6528 24.2646C36.9173 24.0002 36.9173 23.5903 36.6528 23.3258L29.6578 16.3308C29.3933 16.0795 28.9702 16.0795 28.719 16.3308Z" fill="#FFC01E"/>
<path d="M28.719 41.8512L21.7239 34.8562C21.4595 34.5917 21.4595 34.1818 21.7239 33.9173L23.4297 32.2115C23.6942 31.9471 24.1041 31.9471 24.3685 32.2115L28.719 36.5619C28.9834 36.8264 29.3933 36.8264 29.6578 36.5619L34.0082 32.2115C34.2727 31.9471 34.6826 31.9471 34.9471 32.2115L36.6528 33.9173C36.9173 34.1818 36.9173 34.5917 36.6528 34.8562L29.6578 41.8512C29.3933 42.1024 28.9702 42.1024 28.719 41.8512Z" fill="#FFC01E"/>
<path d="M39.8925 26.5786L41.9289 28.6149C42.1934 28.8794 42.1934 29.2893 41.9289 29.5538L39.8925 31.5901C39.6281 31.8546 39.2182 31.8546 38.9537 31.5901L36.9173 29.5538C36.6529 29.2893 36.6529 28.8794 36.9173 28.6149L38.9537 26.5786C39.2182 26.3273 39.6413 26.3273 39.8925 26.5786Z" fill="#FFC01E"/>
<path d="M19.3966 26.5786L21.433 28.6149C21.6975 28.8794 21.6975 29.2893 21.433 29.5538L19.3966 31.5901C19.1322 31.8546 18.7222 31.8546 18.4578 31.5901L16.4214 29.5538C16.157 29.2893 16.157 28.8794 16.4214 28.6149L18.4578 26.5786C18.7222 26.3273 19.1454 26.3273 19.3966 26.5786Z" fill="#FFC01E"/>
<path d="M29.6446 26.2877L31.9851 28.6282C32.2495 28.8927 32.2495 29.3026 31.9851 29.567L29.6446 31.9075C29.3801 32.172 28.9702 32.172 28.7057 31.9075L26.3652 29.567C26.1008 29.3026 26.1008 28.8927 26.3652 28.6282L28.7057 26.2877C28.9702 26.0232 29.3933 26.0232 29.6446 26.2877Z" fill="#FFC01E"/>
</svg>
