<svg width="59" height="59" viewBox="0 0 59 59" fill="none" xmlns="http://www.w3.org/2000/svg">
<rect x="0.272705" width="58.1818" height="58.1818" rx="8" fill="#31353F"/>
<path d="M33.2909 30.0825H32.2727H26.0975V33.8247H27.8297H33.2909C34.5471 33.8247 35.5785 32.9784 35.5785 31.947C35.5785 30.9156 34.5471 30.0825 33.2909 30.0825Z" fill="#FFC01E"/>
<path d="M29.3636 15.8677C22.0645 15.8677 16.1405 21.7916 16.1405 29.0908C16.1405 36.39 22.0645 42.314 29.3636 42.314C36.6628 42.314 42.5868 36.39 42.5868 29.0908C42.5868 21.7916 36.6628 15.8677 29.3636 15.8677ZM33.2909 35.8082H31.1091V37.6859C31.1091 38.228 30.6595 38.6776 30.1174 38.6776C29.5752 38.6776 29.1256 38.228 29.1256 37.6859V35.8082H27.8298H27.5256V37.6859C27.5256 38.228 27.076 38.6776 26.5339 38.6776C25.9917 38.6776 25.5422 38.228 25.5422 37.6859V35.8082H25.1058H22.8182C22.276 35.8082 21.8265 35.3586 21.8265 34.8164C21.8265 34.2743 22.276 33.8247 22.8182 33.8247H24.1141V29.0908V24.3569H22.8182C22.276 24.3569 21.8265 23.9073 21.8265 23.3652C21.8265 22.823 22.276 22.3735 22.8182 22.3735H25.1058H25.5422V20.4958C25.5422 19.9536 25.9917 19.504 26.5339 19.504C27.076 19.504 27.5256 19.9536 27.5256 20.4958V22.3735H27.8298H29.1256V20.4958C29.1256 19.9536 29.5752 19.504 30.1174 19.504C30.6595 19.504 31.1091 19.9536 31.1091 20.4958V22.3735H32.2727C34.3223 22.3735 36.1339 24.1718 36.1339 26.2346C36.1339 27.1206 35.8165 27.9272 35.3141 28.5883C36.6496 29.2363 37.562 30.5057 37.562 31.9735C37.562 34.0759 35.6446 35.8082 33.2909 35.8082Z" fill="#FFC01E"/>
<path d="M34.1504 26.2214C34.1504 25.3487 33.3306 24.3438 32.2727 24.3438H27.8297H26.0975V28.0859H32.2727C33.3041 28.0991 34.1504 27.2528 34.1504 26.2214Z" fill="#FFC01E"/>
</svg>
