<svg xmlns="http://www.w3.org/2000/svg" width="300" height="300" fill="none"><g fill="#046A38" clip-path="url(#a)" opacity=".2"><path d="M262.949 154.455c1.85 7.932 9.358 14.017 18.281 14.017 10.337 0 18.77-8.421 18.77-18.744 0-10.322-8.433-18.743-18.77-18.743-8.923 0-15.942 6.085-18.281 14.017h-21.11a125 125 0 0 0-2.829-18.254h26.714c2.829 0 4.679-1.848 4.679-4.673V96.324c7.943-1.847 14.037-9.345 14.037-18.254 0-10.323-8.433-18.744-18.771-18.744-10.337 0-18.661 8.53-18.661 18.852 0 8.91 6.093 15.918 14.037 18.255v21.079h-24.864c-9.358-24.828-29.054-44.44-53.918-53.84V38.41h21.11c1.85 7.932 9.358 14.017 18.281 14.017 10.337 0 18.77-8.421 18.77-18.743 0-10.323-8.433-18.744-18.77-18.744-8.923 0-15.941 6.085-18.281 14.017h-25.789c-2.829 0-4.679 1.847-4.679 4.672v26.675a125 125 0 0 0-18.28-2.825V36.89c7.943-1.847 14.037-9.345 14.037-18.254 0-10.323-8.433-18.744-18.771-18.744-10.337 0-18.77 8.421-18.77 18.744 0 8.91 6.093 15.918 14.037 18.254v21.08a125 125 0 0 0-18.281 2.824V33.63c0-2.825-1.85-4.672-4.679-4.672h-25.3c-1.849-7.932-9.357-14.017-18.28-14.017-10.337 0-18.77 8.421-18.77 18.744 0 10.322 8.433 18.743 18.77 18.743 8.923 0 15.941-6.085 18.28-14.017h20.621v24.828c-24.864 9.344-44.994 29.5-54.353 54.274h-25.68v-21.08c7.944-1.847 14.037-9.344 14.037-18.254 0-10.322-8.433-18.743-18.77-18.743s-18.77 8.42-18.77 18.743c0 8.91 6.093 15.918 14.037 18.255v25.751c0 2.825 1.85 4.672 4.679 4.672h27.638c-1.414 6.085-2.34 11.681-2.829 18.254h-20.62c-1.85-7.931-9.358-14.016-18.28-14.016-10.338 0-18.771 8.421-18.771 18.743s8.433 18.743 18.77 18.743c8.923 0 15.941-6.085 18.28-14.016h20.784c.49 6.573 1.415 12.658 2.83 18.254H32.86c-2.828 0-4.678 1.847-4.678 4.672v25.752c-7.944 1.847-14.037 9.344-14.037 18.254 0 10.322 8.433 18.743 18.77 18.743s18.77-8.421 18.77-18.743c0-8.91-6.093-15.918-14.036-18.254v-21.08h25.789c9.357 24.828 29.053 44.93 54.352 54.274v25.752h-20.62c-1.85-7.932-9.358-14.017-18.28-14.017-10.338 0-18.771 8.421-18.771 18.743 0 10.323 8.433 18.743 18.77 18.743 8.923 0 15.941-6.084 18.28-14.016h25.3c2.829 0 4.679-1.847 4.679-4.672V239.37c6.094 1.412 11.698 2.336 18.281 2.825v21.079c-7.944 1.847-14.037 9.345-14.037 18.254 0 10.323 8.433 18.744 18.77 18.744s18.771-8.421 18.771-18.744c0-8.909-6.094-15.918-14.037-18.254v-21.079c6.583-.489 12.676-1.413 18.28-2.825v27.599c0 2.825 1.85 4.672 4.679 4.672h25.789c1.85 7.932 9.358 14.016 18.281 14.016 10.337 0 18.77-8.42 18.77-18.743s-8.433-18.743-18.77-18.743c-8.923 0-15.941 6.085-18.281 14.017h-21.11v-26.187c24.864-9.344 44.505-29.011 53.918-53.839h24.864v21.08c-7.944 1.847-14.037 9.344-14.037 18.254 0 10.322 8.433 18.743 18.77 18.743s18.77-8.421 18.77-18.743c0-8.91-6.093-15.918-14.037-18.254V177.49c0-2.825-1.849-4.672-4.679-4.672h-26.713a125 125 0 0 0 2.829-18.254zm-6.094-75.842c0-5.161 4.244-9.345 9.358-9.345 5.169 0 9.358 4.238 9.358 9.345s-4.243 9.344-9.358 9.344c-5.114.055-9.358-4.183-9.358-9.344m-35.636-54.274c5.168 0 9.358 4.238 9.358 9.345 0 5.16-4.244 9.344-9.358 9.344s-9.358-4.238-9.358-9.344c0-5.107 4.243-9.345 9.358-9.345M78.727 43.082c-5.169 0-9.358-4.237-9.358-9.344 0-5.161 4.244-9.345 9.358-9.345s9.412 4.184 9.412 9.29c0 5.162-4.243 9.4-9.412 9.4m-55.278 35.53c0-5.16 4.244-9.344 9.358-9.344 5.17 0 9.358 4.238 9.358 9.345s-4.189 9.399-9.358 9.399c-5.168 0-9.358-4.238-9.358-9.4m18.716 142.286c0 5.161-4.243 9.345-9.358 9.345-5.168 0-9.358-4.238-9.358-9.345s4.244-9.344 9.358-9.344c5.17 0 9.358 4.237 9.358 9.344m36.562 55.252c-5.169 0-9.358-4.238-9.358-9.344 0-5.162 4.244-9.345 9.358-9.345s9.358 4.238 9.358 9.345c.054 5.161-4.19 9.344-9.358 9.344m142.492-18.743c5.168 0 9.358 4.237 9.358 9.344 0 5.161-4.244 9.345-9.358 9.345s-9.358-4.238-9.358-9.345 4.243-9.344 9.358-9.344m54.407-36.509c0 5.161-4.244 9.345-9.358 9.345-5.169 0-9.358-4.238-9.358-9.345s4.243-9.344 9.358-9.344c5.114 0 9.358 4.237 9.358 9.344m5.604-80.46c5.168 0 9.358 4.238 9.358 9.345s-4.244 9.344-9.358 9.344c-5.169 0-9.358-4.237-9.358-9.344s4.243-9.345 9.358-9.345M140.642 18.743c0-5.161 4.244-9.344 9.358-9.344s9.358 4.237 9.358 9.344c0 5.161-4.244 9.345-9.358 9.345s-9.358-4.238-9.358-9.345M18.77 159.127c-5.168 0-9.358-4.237-9.358-9.344s4.244-9.345 9.358-9.345c5.17 0 9.358 4.238 9.358 9.345s-4.243 9.344-9.358 9.344m140.588 121.695c0 5.161-4.244 9.345-9.358 9.345s-9.358-4.238-9.358-9.345c0-5.161 4.244-9.344 9.358-9.344s9.358 4.183 9.358 9.344M150 232.633c-45.919 0-82.97-37.432-82.97-83.339 0-44.441 36.561-82.85 82.97-82.85s82.971 37.92 82.971 82.85c0 46.342-37.487 83.339-82.971 83.339"/><path d="M145.645 139.556c1.801.425 2.246 1.062 3.669 1.24 1.513-.027 1.295-.333 3.933-1.242.174-.061.412-.442.116-.735-1.638-1.622-2.77-.463-3.797-.432-1.363.015-2.641-1.164-3.972.368-.227.311-.345.617.051.801"/><path d="M149.413 95.245c2.993 1.723 6.169 3.94 8.587 6.291l-.95.953c-4.771-.506-9.795.126-14.317.195-.504-.508-1.52-1.272-.574-1.91zm84.349 59.18c.063 2.15.266 3.997-.574 6.198-8.715 2.475-14.44-6.74-22.896-5.35l.956 4.777c7.823.257 12.71 7.749 20.792 7.427-1.149 2.29.512 8.324-4.575 5.912-5.281-1.267-9.098-5.912-14.885-5.912-.698 1.28-.256 3.052-.378 4.567 6.104.956 10.494 6.109 16.597 7.06-.574 2.094-1.143 4.44-2.862 5.717-4.965-1.206-8.843-5.659-14.128-5.532l-.941 4.386c5.023.129 8.268 4.567 12.782 5.899.125 1.851-1.531 3.504-2.485 5.155-4.008-1.202-7.064-4.64-11.643-4.387-.063-1.722.961-3.679.574-5.521-5.142 1.528-8.59-3.244-12.402-6.107-.11-9.368-9.984-15.513-10.506-24.289-.1-1.75.167-3.618.965-5.625 3.246-7.494 2.226-17.224-1.332-24.211-1.082-1.839-2.998-3.29-4.783-4.371 2.612 5.529 5.796 12.062 4.207 18.859-.184 5.248-3.285 10.289-3.321 15.348-.012 1.804.374 3.608 1.413 5.429 4.137 7.442 11.581 14.486 8.782 23.819-.77 2.867-3.062 5.084-3.633 8.001 4.84 4.004 9.416 8.515 15.838 8.769 2.289-1.46 1.018-7.932 5.725-4.947l6.873 3.434c-.5 1.837-2.041 3.484-3.436 4.75-2.608-1.268-5.152-2.788-8.403-2.664-.959 1.016-1.784 2.157-1.711 3.614 2.288.377 4.387 1.341 6.299 2.677-.888 1.909-2.617 3.106-4.208 4.568l-5.331-1.904c-.891 1.272-2.74 2.609-2.091 4.005 1.203.514 2.538 1.21 3.423 2.101-2.353 2.541-5.336 4.175-8.206 5.9-2.473-8.071-10.619-13.729-9.92-23.062l-.378-.378c-1.915 2.15-1.275 5.589-1.152 8.379 2.292 5.845 7.758 10.361 8.587 16.771-.957 1.65-3.115 1.979-4.77 2.677.192-11.558-17.362-20.324-6.105-32.015 3.754-5.724 10.045-11.187 7.816-19.069-2.288-7.609-10.382-12.324-10.311-20.855l.013-.665c1.843-8.897 7.443-18.363 2.862-27.826-1.276-3.807-4.129-8.132-8.009-9.723 5.785 6.612 8.078 17.401 4.769 26.299-1.668 3.54-3.965 7.756-4.195 11.917h-.014c-.123 2.172.322 4.333 1.725 6.382 4.393 7.117 12.021 14.936 7.633 24.211-4.961 7.429-13.611 14.986-8.78 24.771 3.498 5.844 8.909 11.676 7.449 18.86l-5.724 1.904c3.816-13.4-14.886-21.274-7.057-34.678 4.834-7.178 13.479-13.913 8.585-23.439-2.926-5.903-8.971-9.397-8.78-16.773l.208-1.239c1.97-10.462 9.933-20.365 4.365-31.545-1.463-3.301-4.387-6.666-7.633-8.574l-.196.196c6.492 6.289 8.467 16.636 4.967 24.954-1.633 4.88-5.217 9.741-5.946 14.971-.346 2.465-.054 5.021 1.373 7.713 4.134 6.538 11.383 13.473 6.859 21.925-4.764 6.982-12.717 13.775-9.54 22.854 3.499 7.943 10.806 15.51 6.86 25.359l-5.907 1.332c4.705-9.599-2.35-19.123-6.483-27.447-5.027-11.944 10.802-17.663 11.056-28.582-.06-7.048-7.562-11.049-9.148-17.528-3.247-2.736-6.612 1.087-10.494.378-2.866.575-7.267-3.94-8.978.954-2.037 7.174-11.318 12.449-7.239 20.959 3.881 7.562 13.222 13.092 10.101 22.878-2.793 9.141-12.022 17.845-6.298 28.388-2.352-.761-6.742.696-6.679-3.056-3.624-12.767 11.83-20.206 7.057-32.967-2.221-7.816-12.342-12.134-10.114-21.535 1.647-7.739 10.342-13.149 9.123-21.626a12.5 12.5 0 0 0-.524-2.193c-3.245-9.148-9.867-18.297-5.92-28.973 1.083-3.05 3.247-5.654 5.149-8.379-6.297 3.365-9.474 10.482-9.344 17.722-.274 7.874 5.549 14.618 6.378 21.823.326 2.908-.151 5.885-2.183 9.044-4.131 5.598-9.534 11.501-7.057 18.872 2.355 7.436 11.641 11.94 11.068 20.583-.063 10.223-11.957 16.588-8.586 28.022l-5.92-1.918c-2.351-10.16 8.46-15.358 8.584-24.759 1.531-10.81-12.275-14.821-11.447-25.359-.059-8.006 6.998-13.077 10.115-19.812.534-1.639.712-3.188.641-4.672-.382-7.447-7.101-13.268-5.986-21.64.375-6.162 2.474-11.563 6.483-16.197-5.531 2.22-7.816 8.578-9.343 13.915-2.652 8.557 3.677 16.255 4.312 23.922.281 3.386-.547 6.752-3.737 10.194-4.582 5.393-9.229 12.197-5.921 19.445 3.503 7.998 14.51 14.223 9.736 24.197-2.605 6.29-8.841 11.052-8.585 18.481-1.652-.699-3.367-1.395-4.771-2.662 0-9.464 13.479-15.374 7.057-25.347-.569 1.967-.691 4.642-1.137 6.865-2.228 5.783-6.997 10.412-8.782 16.391-2.984-1.15-6.104-3.567-8.586-6.107l3.438-2.102c-.382-1.272-1.398-2.351-2.286-3.431-2.233-.313-3.7 1.15-5.54 1.723-1.59-1.4-3.125-2.671-4.392-4.386 1.141-3.246 10.058-.562 5.54-5.9-3.049-1.904-6.11.816-8.781 2.086l-3.62-4.567c3.116-1.904 6.225-4.578 10.102-3.811.955 1.718 1.021 4.245 2.862 5.142 6.553-.127 11.195-5.077 16.218-8.953-3.501-5.203-6.35-12.385-3.24-18.677 2.491-6.305 8.984-11.615 9.278-18.585.067-1.586-.181-3.255-.876-5.052-3.433-8.831-4.644-20.766 1.908-28.582-3.562.956-5.663 5.39-6.873 8.758-3.939 8.623 1.042 16.612 1.215 24.876.023 1.486-.098 2.976-.458 4.477-3.373 6.796-8.837 12.759-9.724 20.58-3.881 2.473-7.068 6.797-12.598 5.338-.194 1.459.251 3.684.758 5.337-4.385-.184-7.376 3.045-11.068 4.569-1.967-.63-2.479-3.17-3.24-4.947 4.322-1.458 7.44-5.785 12.402-5.716.575-1.596-.323-3.059-.576-4.582-6.173-2.736-15.958 13.527-16.78-.573 6.168-.382 10.11-6.1 16.219-6.67l.182-4.567c-6.933-.699-11.393 6.419-18.323 5.717l-1.528-6.095c8.016.5 12.792-6.674 20.427-7.06 1.014-1.332 1.136-3.302 1.332-5.142-8.333-1.085-14.052 8.138-22.896 5.337 0 0-.305-3.838-.47-6.003h.012c-.06-.846-.117-1.436-.117-1.436 7.887 3.056 14.816-2.601 21.563-5.521 1.716-.513 4.392.376 5.161-1.528-.067-1.461 2.602-3.17.38-4.189-9.863-1.337-16.416 10.544-26.53 5.142l-.759-1.528c2.105-28.709 18.317-56.464 45.219-70.123 10.896-6.219 24.432-9.388 38.084-9.5 16.474-.137 33.121 4.179 45.505 12.933 12.025 7.367 23.528 19.508 29.771 31.833 5.97 10.798 8.718 22.915 9.539 35.814-10.434 7.874-17.434-7.417-28.058-3.995.572 1.655.889 3.367 2.103 4.764 9.417-.066 15.901 9.781 25.758 5.9zM113.91 119.068c-6.616-4.322-15.004-.253-21.17 2.1-.572-5.783-2.924-11.052-7.827-14.863-.476-.237-1.134-.734-1.726-.77-.355-.023-.692.12-.954.573 2.223 13.655-6.666 23.183-12.964 33.542 2.097 1.712 5.466 1.456 8.01.953 6.678-2.667 13.038-7.308 20.989-5.717 2.351-4.002 6.301-7.878 9.54-11.054 1.979-1.711 4.698-2.797 6.102-4.764m20.231 8.575c-.127.823.063 2.288 1.333 1.722 1.975-2.731 5.471-.57 7.632-.378v-.769c-1.185-1.86-3.625-2.794-6.103-2.701a9 9 0 0 0-1.712.233c-.829.184-1.406.942-1.15 1.893m31.102-8.183c-1.776-3.94-5.847-5.534-9.541-6.487a50 50 0 0 0-5.554-.391c-.349-.003-.698-.008-1.046 0-5.214.105-10.196 1.442-13.239 5.728-.437 1.21-2.358 2.91-.574 3.994 4.007-.256 8.58-.758 11.252 2.677 0 3.052 1.973 7.113-1.333 8.574-2.74-2.533-5.984 1.078-8.965-.955-1.401-.826-2.288.139-2.862 1.345-.828 7.875 3.3 16.567 10.677 20.948 2.99 1.077 7.009 2.102 10.129.573 7.506-3.49 10.614-11.489 12.012-18.859-.188-1.402-.121-4.135-2.091-4.201-2.225 1.405-5.47.575-7.828 0-1.394.449-1.458 2.486-3.045 2.872l-.966-.77c-.828-3.489-1.339-8.445 1.908-10.859 3.629-1.461 7.89-2.1 11.643-.953.7-1.206-.381-2.156-.577-3.236m-3.829 6.263c-.252.007-.497.019-.745.027-1.333.888-5.217.25-3.815 3.237 2.418-1.911 5.79-.572 8.206.378.894-.443.7-1.333.759-2.1-.776-1.442-2.63-1.577-4.405-1.542m27.694-26.858c-4.708-.25-8.651 2.42-12.977 3.628-.377-3.677 2.42-7.56 3.058-11.25-6.995.45-12.534 4.654-18.321 8.013a2868 2868 0 0 1-4.012-9.723l7.633-7.244.195-.954-10.31-.573c-1.775-3.108-2.475-6.85-4.574-9.71-1.718 3.24-2.872 6.668-4.588 9.905l-10.297.575v.757l7.815 7.048c-.955 3.623-1.843 7.559-4.194 10.297-4.58-2.74-9.094-5.72-14.115-7.623-1.208-.39-2.93-1.022-4.011-.195 1.588 3.495 3.811 7.254 3.437 11.068-2.1-.386-3.751-1.73-5.724-2.296-2.36-.643-5.16-1.9-7.449-1.135 3.817 5.333 6.933 10.914 8.011 17.332 12.663-6.104 27.431-9.461 42.76-6.852 7.186 1.142 13.793 4.065 20.218 6.473.251-6.73 4.513-12.137 7.445-17.54m21.746 36.595c6.482 1.713 12.986 8.767 19.85 4.19-5.978-9.908-14.877-19.057-12.402-32.014.259-.885-.313-1.78-1.137-1.906-3.878 1.583-6.882 5.4-8.416 9.151-.631 2.218-1.005 4.577-1.895 6.668-4.646-2.415-9.604-4.755-15.264-4.189-2.042.254-4.968.387-5.345 2.48 6.424 3.429 11.707 9.15 15.644 15.243 2.741-.446 6.102-.065 8.965.377m-67.931 8.954.183 1.148c2.485 1.654 3.25 4.457 6.691 4.202 3.051.181 5.341-2.674 6.861-4.959-4.129-.57-9.154.311-13.735-.391m3.436-5.142c.124.509-.315 1.271.379 1.528 2.035-.441 5.723 1.082 6.859-1.332-.793-.888-2.089-1.291-3.449-1.291s-2.769.395-3.789 1.095"/></g><defs><clipPath id="a"><path fill="#fff" d="M0 0h300v300H0z"/></clipPath></defs></svg>