<svg width="300" height="300" viewBox="0 0 300 300" fill="none" xmlns="http://www.w3.org/2000/svg">
<g opacity="0.2" clip-path="url(#clip0_269_1554)">
<path d="M262.949 154.455C264.799 162.387 272.307 168.472 281.23 168.472C291.567 168.472 300 160.051 300 149.728C300 139.406 291.567 130.985 281.23 130.985C272.307 130.985 265.288 137.07 262.949 145.002H241.839C241.349 138.917 240.424 132.832 239.01 126.748H265.724C268.553 126.748 270.403 124.9 270.403 122.075V96.3238C278.346 94.4767 284.44 86.9794 284.44 78.0695C284.44 67.7472 276.007 59.3263 265.669 59.3263C255.332 59.3263 247.008 67.8559 247.008 78.1782C247.008 87.088 253.101 94.0964 261.045 96.4325V117.512H236.181C226.823 92.6838 207.127 73.0714 182.263 63.6726V38.41H203.373C205.223 46.3419 212.731 52.4267 221.654 52.4267C231.991 52.4267 240.424 44.0058 240.424 33.6835C240.424 23.3611 231.991 14.9402 221.654 14.9402C212.731 14.9402 205.713 21.025 203.373 28.9569H177.584C174.755 28.9569 172.905 30.8041 172.905 33.6291V60.3042C166.812 58.8917 160.718 57.9681 154.625 57.4792V36.8888C162.568 35.0417 168.662 27.5444 168.662 18.6346C168.662 8.31221 160.229 -0.108658 149.891 -0.108658C139.554 -0.108658 131.121 8.31221 131.121 18.6346C131.121 27.5444 137.214 34.5527 145.158 36.8888V57.9681C139.064 58.4571 132.971 59.3807 126.877 60.7932V33.6291C126.877 30.8041 125.027 28.9569 122.198 28.9569H96.8988C95.049 21.025 87.5408 14.9402 78.6181 14.9402C68.2807 14.9402 59.8477 23.3611 59.8477 33.6835C59.8477 44.0058 68.2807 52.4267 78.6181 52.4267C87.5408 52.4267 94.5593 46.3419 96.8988 38.41H117.519V63.238C92.6551 72.5824 72.5245 92.7382 63.1665 117.512H37.4864V96.4325C45.4298 94.5853 51.5234 87.088 51.5234 78.1782C51.5234 67.8559 43.0903 59.435 32.753 59.435C22.4157 59.435 13.9826 67.8559 13.9826 78.1782C13.9826 87.088 20.0762 94.0964 28.0196 96.4325V122.184C28.0196 125.009 29.8694 126.856 32.6986 126.856H60.3373C58.9228 132.941 57.9978 138.537 57.5082 145.11H36.8879C35.0381 137.179 27.5299 131.094 18.6072 131.094C8.26987 131.094 -0.163208 139.515 -0.163208 149.837C-0.163208 160.159 8.26987 168.58 18.6072 168.58C27.5299 168.58 34.5484 162.495 36.8879 154.564H57.6714C58.1611 161.137 59.086 167.222 60.5005 172.818H32.8618C30.0327 172.818 28.1828 174.665 28.1828 177.49V203.242C20.2394 205.089 14.1458 212.586 14.1458 221.496C14.1458 231.818 22.5789 240.239 32.9162 240.239C43.2535 240.239 51.6866 231.818 51.6866 221.496C51.6866 212.586 45.593 205.578 37.6496 203.242V182.162H63.4385C72.7965 206.99 92.4918 227.092 117.791 236.436V262.188H97.1708C95.321 254.256 87.8128 248.171 78.8901 248.171C68.5528 248.171 60.1197 256.592 60.1197 266.914C60.1197 277.237 68.5528 285.657 78.8901 285.657C87.8128 285.657 94.8313 279.573 97.1708 271.641H122.47C125.299 271.641 127.149 269.794 127.149 266.969V239.37C133.243 240.782 138.847 241.706 145.43 242.195V263.274C137.486 265.121 131.393 272.619 131.393 281.528C131.393 291.851 139.826 300.272 150.163 300.272C160.501 300.272 168.934 291.851 168.934 281.528C168.934 272.619 162.84 265.61 154.897 263.274V242.195C161.48 241.706 167.573 240.782 173.177 239.37V266.969C173.177 269.794 175.027 271.641 177.856 271.641H203.645C205.495 279.573 213.003 285.657 221.926 285.657C232.263 285.657 240.696 277.237 240.696 266.914C240.696 256.592 232.263 248.171 221.926 248.171C213.003 248.171 205.985 254.256 203.645 262.188H182.535V236.001C207.399 226.657 227.04 206.99 236.453 182.162H261.317V203.242C253.373 205.089 247.28 212.586 247.28 221.496C247.28 231.818 255.713 240.239 266.05 240.239C276.387 240.239 284.82 231.818 284.82 221.496C284.82 212.586 278.727 205.578 270.783 203.242V177.49C270.783 174.665 268.934 172.818 266.104 172.818H239.391C240.805 166.733 241.73 160.648 242.22 154.564L262.949 154.455ZM256.855 78.6128C256.855 73.4517 261.099 69.2684 266.213 69.2684C271.382 69.2684 275.571 73.506 275.571 78.6128C275.571 83.7197 271.328 87.9573 266.213 87.9573C261.099 88.0116 256.855 83.774 256.855 78.6128ZM221.219 24.339C226.387 24.339 230.577 28.5766 230.577 33.6835C230.577 38.8446 226.333 43.0279 221.219 43.0279C216.104 43.0279 211.861 38.7903 211.861 33.6835C211.861 28.5766 216.104 24.339 221.219 24.339ZM78.7269 43.0822C73.5582 43.0822 69.3689 38.8446 69.3689 33.7378C69.3689 28.5766 73.6126 24.3933 78.7269 24.3933C83.8411 24.3933 88.1393 28.5766 88.1393 33.6835C88.1393 38.8446 83.8955 43.0822 78.7269 43.0822ZM23.4494 78.6128C23.4494 73.4517 27.6932 69.2684 32.8074 69.2684C37.9761 69.2684 42.1654 73.506 42.1654 78.6128C42.1654 83.7197 37.9761 88.0116 32.8074 88.0116C27.6387 88.0116 23.4494 83.774 23.4494 78.6128ZM42.1654 220.898C42.1654 226.059 37.9217 230.243 32.8074 230.243C27.6387 230.243 23.4494 226.005 23.4494 220.898C23.4494 215.791 27.6932 211.554 32.8074 211.554C37.9761 211.554 42.1654 215.791 42.1654 220.898ZM78.7269 276.15C73.5582 276.15 69.3689 271.912 69.3689 266.806C69.3689 261.644 73.6126 257.461 78.7269 257.461C83.8411 257.461 88.0849 261.699 88.0849 266.806C88.1393 271.967 83.8955 276.15 78.7269 276.15ZM221.219 257.407C226.387 257.407 230.577 261.644 230.577 266.751C230.577 271.912 226.333 276.096 221.219 276.096C216.104 276.096 211.861 271.858 211.861 266.751C211.861 261.644 216.104 257.407 221.219 257.407ZM275.626 220.898C275.626 226.059 271.382 230.243 266.268 230.243C261.099 230.243 256.91 226.005 256.91 220.898C256.91 215.791 261.153 211.554 266.268 211.554C271.382 211.554 275.626 215.791 275.626 220.898ZM281.23 140.438C286.398 140.438 290.588 144.676 290.588 149.783C290.588 154.89 286.344 159.127 281.23 159.127C276.061 159.127 271.872 154.89 271.872 149.783C271.872 144.676 276.115 140.438 281.23 140.438ZM140.642 18.7432C140.642 13.582 144.886 9.39877 150 9.39877C155.114 9.39877 159.358 13.6364 159.358 18.7432C159.358 23.9044 155.114 28.0877 150 28.0877C144.886 28.0877 140.642 23.8501 140.642 18.7432ZM18.7704 159.127C13.6018 159.127 9.41242 154.89 9.41242 149.783C9.41242 144.676 13.6562 140.438 18.7704 140.438C23.9391 140.438 28.1284 144.676 28.1284 149.783C28.1284 154.89 23.8847 159.127 18.7704 159.127ZM159.358 280.822C159.358 285.983 155.114 290.167 150 290.167C144.886 290.167 140.642 285.929 140.642 280.822C140.642 275.661 144.886 271.478 150 271.478C155.114 271.478 159.358 275.661 159.358 280.822ZM150 232.633C104.081 232.633 67.0294 195.201 67.0294 149.294C67.0294 104.853 103.591 66.4433 150 66.4433C196.409 66.4433 232.971 104.364 232.971 149.294C232.971 195.636 195.484 232.633 150 232.633Z" fill="#046A38"/>
<path d="M145.645 139.556C147.446 139.981 147.891 140.618 149.314 140.796C150.827 140.769 150.609 140.463 153.247 139.554C153.421 139.493 153.659 139.112 153.363 138.819C151.725 137.197 150.593 138.356 149.566 138.387C148.203 138.402 146.925 137.223 145.594 138.755C145.367 139.066 145.249 139.372 145.645 139.556Z" fill="#046A38"/>
<path d="M149.413 95.2445C152.406 96.9678 155.582 99.1857 158 101.536L157.05 102.489C152.279 101.983 147.255 102.615 142.733 102.684C142.229 102.176 141.213 101.412 142.159 100.774L149.413 95.2445ZM233.762 154.425C233.825 156.575 234.028 158.422 233.188 160.623C224.473 163.098 218.748 153.883 210.292 155.273L211.248 160.05C219.071 160.307 223.958 167.799 232.04 167.477C230.891 169.767 232.552 175.801 227.465 173.389C222.184 172.122 218.367 167.477 212.58 167.477C211.882 168.757 212.324 170.529 212.202 172.044C218.306 173 222.696 178.153 228.799 179.104C228.225 181.198 227.656 183.544 225.937 184.821C220.972 183.615 217.094 179.162 211.809 179.289L210.868 183.675C215.891 183.804 219.136 188.242 223.65 189.574C223.775 191.425 222.119 193.078 221.165 194.729C217.157 193.527 214.101 190.089 209.522 190.342C209.459 188.62 210.483 186.663 210.096 184.821C204.954 186.349 201.506 181.577 197.694 178.714C197.584 169.346 187.71 163.201 187.188 154.425C187.088 152.675 187.355 150.807 188.153 148.8C191.399 141.306 190.379 131.576 186.821 124.589C185.739 122.75 183.823 121.299 182.038 120.218C184.65 125.747 187.834 132.28 186.245 139.077C186.061 144.325 182.96 149.366 182.924 154.425C182.912 156.229 183.298 158.033 184.337 159.854C188.474 167.296 195.918 174.34 193.119 183.673C192.349 186.54 190.057 188.757 189.486 191.674C194.326 195.678 198.902 200.189 205.324 200.443C207.613 198.983 206.342 192.511 211.049 195.496L217.922 198.93C217.422 200.767 215.881 202.414 214.486 203.68C211.878 202.412 209.334 200.892 206.083 201.016C205.124 202.032 204.299 203.173 204.372 204.63C206.66 205.007 208.759 205.971 210.671 207.307C209.783 209.216 208.054 210.413 206.463 211.875L201.132 209.971C200.241 211.243 198.392 212.58 199.041 213.976C200.244 214.49 201.579 215.186 202.464 216.077C200.111 218.618 197.128 220.252 194.258 221.977C191.785 213.906 183.639 208.248 184.338 198.915L183.96 198.537C182.045 200.687 182.685 204.126 182.808 206.916C185.1 212.761 190.566 217.277 191.395 223.687C190.438 225.337 188.28 225.666 186.625 226.364C186.817 214.806 169.263 206.04 180.52 194.349C184.274 188.625 190.565 183.162 188.336 175.28C186.048 167.671 177.954 162.956 178.025 154.425L178.038 153.76C179.881 144.863 185.481 135.397 180.9 125.934C179.624 122.127 176.771 117.802 172.891 116.211C178.676 122.823 180.969 133.612 177.66 142.51C175.992 146.05 173.695 150.266 173.465 154.427H173.451C173.328 156.599 173.773 158.76 175.176 160.809C179.569 167.926 187.197 175.745 182.809 185.02C177.848 192.449 169.198 200.006 174.029 209.791C177.527 215.635 182.938 221.467 181.478 228.651L175.754 230.555C179.57 217.155 160.868 209.281 168.697 195.877C173.531 188.699 182.176 181.964 177.282 172.438C174.356 166.535 168.311 163.041 168.502 155.665L168.71 154.426C170.68 143.964 178.643 134.061 173.075 122.881C171.612 119.58 168.688 116.215 165.442 114.307L165.246 114.503C171.738 120.792 173.713 131.139 170.213 139.457C168.58 144.337 164.996 149.198 164.267 154.428C163.921 156.893 164.213 159.449 165.64 162.141C169.774 168.679 177.023 175.614 172.499 184.066C167.735 191.048 159.782 197.841 162.959 206.92C166.458 214.863 173.765 222.43 169.819 232.279L163.912 233.611C168.617 224.012 161.562 214.488 157.429 206.164C152.402 194.22 168.231 188.501 168.485 177.582C168.425 170.534 160.923 166.533 159.337 160.054C156.09 157.318 152.725 161.141 148.843 160.432C145.977 161.007 141.576 156.492 139.865 161.386C137.828 168.56 128.547 173.835 132.626 182.345C136.507 189.907 145.848 195.437 142.727 205.223C139.934 214.364 130.705 223.068 136.429 233.611C134.077 232.85 129.687 234.307 129.75 230.555C126.126 217.788 141.58 210.349 136.807 197.588C134.586 189.772 124.465 185.454 126.693 176.053C128.34 168.314 137.035 162.904 135.816 154.427C135.717 153.717 135.542 152.991 135.292 152.234C132.047 143.086 125.425 133.937 129.372 123.261C130.455 120.211 132.619 117.607 134.521 114.882C128.224 118.247 125.047 125.364 125.177 132.604C124.903 140.478 130.726 147.222 131.555 154.427C131.881 157.335 131.404 160.312 129.372 163.471C125.241 169.069 119.838 174.972 122.315 182.343C124.67 189.779 133.956 194.283 133.383 202.926C133.32 213.149 121.426 219.514 124.797 230.948L118.877 229.03C116.526 218.87 127.337 213.672 127.461 204.271C128.992 193.461 115.186 189.45 116.014 178.912C115.955 170.906 123.012 165.835 126.129 159.1C126.663 157.461 126.841 155.912 126.77 154.428C126.388 146.981 119.669 141.16 120.784 132.788C121.159 126.626 123.258 121.225 127.267 116.591C121.736 118.811 119.451 125.169 117.924 130.506C115.272 139.063 121.601 146.761 122.236 154.428C122.517 157.814 121.689 161.18 118.499 164.622C113.917 170.015 109.27 176.819 112.578 184.067C116.081 192.065 127.088 198.29 122.314 208.264C119.709 214.554 113.473 219.316 113.729 226.745C112.077 226.046 110.362 225.35 108.958 224.083C108.958 214.619 122.437 208.709 116.015 198.736C115.446 200.703 115.324 203.378 114.878 205.601C112.65 211.384 107.881 216.013 106.096 221.992C103.112 220.842 99.9921 218.425 97.51 215.885L100.948 213.783C100.566 212.511 99.5501 211.432 98.6616 210.352C96.4288 210.039 94.9628 211.502 93.1222 212.075C91.5321 210.675 89.9974 209.404 88.7298 207.689C89.8711 204.443 98.7885 207.127 94.2709 201.789C91.221 199.885 88.1597 202.605 85.489 203.875L81.8685 199.308C84.9852 197.404 88.094 194.73 91.9706 195.497C92.9261 197.215 92.9924 199.742 94.833 200.639C101.386 200.512 106.028 195.562 111.051 191.686C107.55 186.483 104.701 179.301 107.811 173.009C110.302 166.704 116.795 161.394 117.089 154.424C117.156 152.838 116.908 151.169 116.213 149.372C112.78 140.541 111.569 128.606 118.121 120.79C114.559 121.746 112.458 126.18 111.248 129.548C107.309 138.171 112.29 146.16 112.463 154.424C112.486 155.91 112.365 157.4 112.005 158.901C108.632 165.697 103.168 171.66 102.281 179.481C98.3997 181.954 95.2132 186.278 89.683 184.819C89.4886 186.278 89.934 188.503 90.4411 190.156C86.0556 189.972 83.0652 193.201 79.3727 194.725C77.4057 194.095 76.894 191.555 76.1324 189.778C80.4545 188.32 83.5724 183.993 88.5348 184.062C89.11 182.466 88.2123 181.003 87.959 179.48C81.7861 176.744 72.0013 193.007 71.1785 178.907C77.3469 178.525 81.2887 172.807 87.3976 172.237L87.58 167.67C80.6472 166.971 76.1873 174.089 69.2573 173.387L67.729 167.292C75.7453 167.792 80.5214 160.618 88.1557 160.232C89.1701 158.9 89.2924 156.93 89.488 155.09C81.1549 154.005 75.4365 163.228 66.5923 160.427C66.5923 160.427 66.2875 156.589 66.1223 154.424H66.1343C66.0743 153.578 66.0171 152.988 66.0171 152.988C73.9036 156.044 80.833 150.387 87.58 147.467C89.2959 146.954 91.9718 147.843 92.7414 145.939C92.6745 144.478 95.343 142.769 93.1216 141.75C83.2579 140.413 76.7053 152.294 66.5911 146.892L65.8324 145.364C67.9365 116.655 84.1487 88.8997 111.051 75.2411C121.947 69.0225 135.483 65.8527 149.135 65.7402C165.609 65.6037 182.256 69.9196 194.64 78.6741C206.665 86.0411 218.168 98.1819 224.411 110.507C230.381 121.305 233.129 133.422 233.95 146.321C223.516 154.195 216.516 138.904 205.892 142.326C206.464 143.981 206.781 145.693 207.995 147.09C217.412 147.024 223.896 156.871 233.753 152.99L233.762 154.425ZM113.91 119.068C107.294 114.746 98.9063 118.815 92.7403 121.168C92.1679 115.385 89.8162 110.116 84.9126 106.305C84.4369 106.068 83.7794 105.571 83.187 105.535C82.8325 105.512 82.4951 105.655 82.2333 106.108C84.4558 119.763 75.5675 129.291 69.2688 139.65C71.3661 141.362 74.7355 141.106 77.2794 140.603C83.9566 137.936 90.3171 133.295 98.2676 134.886C100.619 130.884 104.569 127.008 107.808 123.832C109.787 122.121 112.506 121.035 113.91 119.068ZM134.141 127.643C134.014 128.466 134.204 129.931 135.474 129.365C137.449 126.634 140.945 128.795 143.106 128.987V128.218C141.921 126.358 139.481 125.424 137.003 125.517C136.431 125.537 135.851 125.621 135.291 125.75C134.462 125.934 133.885 126.692 134.141 127.643ZM165.243 119.46C163.467 115.52 159.396 113.926 155.702 112.973C153.891 112.751 152.012 112.6 150.148 112.582C149.799 112.579 149.45 112.574 149.102 112.582C143.888 112.687 138.906 114.024 135.863 118.31C135.426 119.52 133.505 121.22 135.289 122.304C139.296 122.048 143.869 121.546 146.541 124.981C146.541 128.033 148.514 132.094 145.208 133.555C142.468 131.022 139.224 134.633 136.243 132.6C134.842 131.774 133.955 132.739 133.381 133.945C132.553 141.82 136.681 150.512 144.058 154.893C147.048 155.97 151.067 156.995 154.187 155.466C161.693 151.976 164.801 143.977 166.199 136.607C166.011 135.205 166.078 132.472 164.108 132.406C161.883 133.811 158.638 132.981 156.28 132.406C154.886 132.855 154.822 134.892 153.235 135.278L152.269 134.508C151.441 131.019 150.93 126.063 154.177 123.649C157.806 122.188 162.067 121.549 165.82 122.696C166.52 121.49 165.439 120.54 165.243 119.46ZM161.414 125.723C161.162 125.73 160.917 125.742 160.669 125.75C159.336 126.638 155.452 126 156.854 128.987C159.272 127.076 162.644 128.415 165.06 129.365C165.954 128.922 165.76 128.032 165.819 127.265C165.043 125.823 163.189 125.688 161.414 125.723ZM189.108 98.8654C184.4 98.6159 180.457 101.285 176.131 102.493C175.754 98.8163 178.551 94.9338 179.189 91.2432C172.194 91.6926 166.655 95.8972 160.868 99.256C159.529 96.0245 158.186 92.7764 156.856 89.533L164.489 82.2894L164.684 81.3352L154.374 80.7619C152.599 77.6543 151.899 73.9111 149.8 71.0525C148.082 74.292 146.928 77.7205 145.212 80.9571L134.915 81.5322V82.2894L142.73 89.3371C141.775 92.9597 140.887 96.8959 138.536 99.634C133.956 96.8948 129.442 93.9134 124.421 92.0113C123.213 91.6218 121.491 90.9885 120.41 91.816C121.998 95.3107 124.221 99.0698 123.847 102.884C121.747 102.498 120.096 101.154 118.123 100.588C115.763 99.9452 112.963 98.6889 110.674 99.453C114.491 104.786 117.607 110.367 118.685 116.785C131.348 110.681 146.116 107.324 161.445 109.933C168.631 111.075 175.238 113.998 181.663 116.406C181.914 109.676 186.176 104.269 189.108 98.8654ZM210.854 135.46C217.336 137.173 223.84 144.227 230.704 139.65C224.726 129.742 215.827 120.593 218.302 107.636C218.561 106.751 217.989 105.856 217.165 105.73C213.287 107.313 210.283 111.13 208.749 114.881C208.118 117.099 207.744 119.458 206.854 121.549C202.208 119.134 197.25 116.794 191.59 117.36C189.548 117.614 186.622 117.747 186.245 119.84C192.669 123.269 197.952 128.99 201.889 135.083C204.63 134.637 207.991 135.018 210.854 135.46ZM142.923 144.414L143.106 145.562C145.591 147.216 146.356 150.019 149.797 149.764C152.848 149.945 155.138 147.09 156.658 144.805C152.529 144.235 147.504 145.116 142.923 144.414ZM146.359 139.272C146.483 139.781 146.044 140.543 146.738 140.8C148.773 140.359 152.461 141.882 153.597 139.468C152.804 138.58 151.508 138.177 150.148 138.177C148.789 138.177 147.379 138.572 146.359 139.272Z" fill="#046A38"/>
</g>
<defs>
<clipPath id="clip0_269_1554">
<rect width="300" height="300" fill="white"/>
</clipPath>
</defs>
</svg>
