<svg width="193" height="43" viewBox="0 0 193 43" fill="none" xmlns="http://www.w3.org/2000/svg">
<path fill-rule="evenodd" clip-rule="evenodd" d="M185.316 18.3945C183.546 18.3945 182.756 19.2237 182.756 20.9575V34.4503H178.766V20.3545C178.766 16.3591 180.234 14.5504 184.149 14.5504H192.318V18.3945H185.316ZM167.17 26.3847H157.721V27.817C157.721 29.4001 158.587 30.568 160.77 30.568H172.929V34.4503H160.77C155.801 34.4503 153.844 31.6611 153.844 27.8924V21.1083C153.844 17.3391 155.801 14.5504 160.77 14.5504H167.207C171.913 14.5504 173.908 16.8114 173.908 20.656C173.908 24.3116 172.063 26.3847 167.17 26.3847ZM167.17 18.3945H160.77C158.587 18.3945 157.721 19.6006 157.721 21.146V23.2562H167.057C169.202 23.2562 169.993 22.3521 169.993 20.8821C169.993 19.3745 169.127 18.3945 167.17 18.3945ZM140.892 34.4503H132.083V42.4405H128.093V23.0678C128.093 17.3391 130.616 14.5504 135.396 14.5504H140.892C146.162 14.5504 149.475 17.7914 149.475 24.5001C149.475 31.2088 146.162 34.4503 140.892 34.4503ZM140.478 18.3945H136.563C133.326 18.3945 132.083 19.8268 132.083 23.2562V30.568H140.478C143.942 30.568 145.447 28.797 145.447 24.5001C145.447 20.2037 143.942 18.3945 140.478 18.3945ZM116.535 26.3847H107.086V27.817C107.086 29.4001 107.952 30.568 110.136 30.568H122.295V34.4503H110.136C105.166 34.4503 103.209 31.6611 103.209 27.8924V21.1083C103.209 17.3391 105.166 14.5504 110.136 14.5504H116.573C121.278 14.5504 123.273 16.8114 123.273 20.656C123.273 24.3116 121.429 26.3847 116.535 26.3847ZM116.535 18.3945H110.136C107.952 18.3945 107.086 19.6006 107.086 21.146V23.2562H116.422C118.567 23.2562 119.358 22.3521 119.358 20.8821C119.358 19.3745 118.492 18.3945 116.535 18.3945ZM91.9892 26.3847H82.5408V27.817C82.5408 29.4001 83.4062 30.568 85.5897 30.568H97.7486V34.4503H85.5897C80.6208 34.4503 78.6632 31.6611 78.6632 27.8924V21.1083C78.6632 17.3391 80.6208 14.5504 85.5897 14.5504H92.0268C96.7322 14.5504 98.7275 16.8114 98.7275 20.656C98.7275 24.3116 96.8828 26.3847 91.9892 26.3847ZM91.9892 18.3945H85.5897C83.4062 18.3945 82.5408 19.6006 82.5408 21.146V23.2562H91.8762C94.0221 23.2562 94.8127 22.3521 94.8127 20.8821C94.8127 19.3745 93.9468 18.3945 91.9892 18.3945ZM76.591 34.4503H72.1115L68.7986 28.5708C67.6321 26.4978 66.8415 26.1585 63.3403 26.1585H61.4961V34.4503H57.5056V5.91937H61.4961V22.8039H63.3403C66.5027 22.8039 67.1427 22.6537 68.3097 20.5429L71.6221 14.5504H75.951L72.488 20.8068C71.5092 22.5783 70.568 23.6708 68.9492 24.3493C70.8315 24.877 71.8104 26.1208 73.0151 28.1939L76.591 34.4503Z" fill="white"/>
<path fill-rule="evenodd" clip-rule="evenodd" d="M47.521 1.26923C50.4914 1.26923 52.8992 3.67992 52.8992 6.65384V36.8077H6.64707C3.67672 36.8077 1.26892 34.397 1.26892 31.4231V1.26923H47.521Z" stroke="white"/>
<path fill-rule="evenodd" clip-rule="evenodd" d="M29.6139 10.9605H34.6506V5.91779H29.6139V10.9605Z" fill="white"/>
<path fill-rule="evenodd" clip-rule="evenodd" d="M45.6844 27.5338C45.8683 27.7852 46.1377 27.9107 46.4932 27.9107H47.7437V32.7698H45.2068C43.5401 32.7698 42.3176 32.3433 41.5394 31.4904C40.7612 30.638 40.3724 29.3769 40.3724 27.7082L40.5294 6.1154H45.3698L45.3843 13.6L47.7437 13.5736V17.8802L45.3923 17.9066L45.409 26.4569C45.409 26.9232 45.501 27.2823 45.6844 27.5338ZM30.7831 31.4904C30.0049 30.638 29.6161 29.3769 29.6161 27.7082L29.7731 13.6539H34.6134L34.6527 26.4569C34.6527 26.9232 34.7447 27.2823 34.9281 27.5338C35.112 27.7852 35.3814 27.9107 35.7369 27.9107H36.9874V32.7698H34.4505C32.7838 32.7698 31.5613 32.3433 30.7831 31.4904ZM22.1458 31.8216C20.9142 32.3923 19.4347 32.6777 17.7067 32.6777L11.5304 32.5011V32.6777C11.5304 32.6777 8.13735 32.2022 7.18488 30.3462C6.30071 28.6231 6.49325 27.4051 6.49325 27.4051V5.91779H8.69936H11.5304H17.3942C19.1222 5.91779 20.5985 6.20263 21.8242 6.7734C23.0499 7.34363 23.9808 8.17232 24.6187 9.25786C25.2555 10.3439 25.5744 11.6476 25.5744 13.1687C25.5744 14.2117 25.3689 15.1352 24.9586 15.9386C24.5477 16.7425 23.9502 17.4021 23.1661 17.9174C22.3819 18.4327 21.4381 18.7822 20.3355 18.9663C21.5117 19.1257 22.5196 19.4849 23.3591 20.0427C24.1987 20.6016 24.836 21.3286 25.2711 22.224C25.7056 23.1195 25.9234 24.1566 25.9234 25.3342V25.3896C25.9234 26.9232 25.6018 28.2359 24.9586 29.3279C24.3154 30.4199 23.3774 31.2513 22.1458 31.8216ZM20.5006 13.5004C20.5006 12.6416 20.2161 11.9728 19.6461 11.4941C19.076 11.0154 18.2703 10.7763 17.2286 10.7763H11.5304V16.5185H17.2286C18.2703 16.5185 19.076 16.2546 19.6461 15.7269C20.2161 15.1998 20.5006 14.4572 20.5006 13.5004ZM20.8502 24.5798C20.8502 23.9051 20.7088 23.3284 20.4275 22.8497C20.1451 22.371 19.7316 22.0059 19.1862 21.7545C18.6409 21.503 17.9885 21.377 17.2286 21.377H11.5304V27.8186H17.2286C18.3806 27.8186 19.2723 27.5397 19.9031 26.9813C20.5345 26.4235 20.8502 25.6411 20.8502 24.6347V24.5798Z" fill="#7AC231"/>
</svg>
