<svg width="196" height="45" viewBox="0 0 196 45" fill="none" xmlns="http://www.w3.org/2000/svg">
<g clip-path="url(#clip0_201_1022)">
<path fill-rule="evenodd" clip-rule="evenodd" d="M101.509 30.2362V36.8409H100.501V30.2362H98.4691V29.2192H103.541V30.2362H101.509ZM88.5081 36.6601C88.1143 36.8331 87.6388 36.9195 87.0819 36.9195C86.7359 36.9195 86.5629 36.9195 86.5629 36.9195C86.5629 36.9195 86.408 36.8845 86.0981 36.8146C85.7883 36.7449 85.499 36.64 85.2306 36.5002C84.9619 36.3604 84.7106 36.1856 84.4766 35.9761L85.1044 35.1582C85.3779 35.4099 85.6796 35.5986 86.0092 35.7243C86.3387 35.8501 86.6963 35.913 87.0819 35.913C87.6026 35.913 88.0064 35.8109 88.2931 35.6064C88.5798 35.4019 88.7233 35.1128 88.7233 34.739V34.7337C88.7233 34.4682 88.6581 34.2576 88.5279 34.1019C88.3978 33.9466 88.2296 33.8313 88.0236 33.756C87.8176 33.6809 87.5515 33.612 87.2252 33.5491C87.2154 33.5457 87.2046 33.5439 87.1932 33.5439C87.1816 33.5439 87.171 33.542 87.1609 33.5386L87.0869 33.5228C86.6056 33.4356 86.2144 33.3367 85.9127 33.2266C85.6112 33.1166 85.3533 32.9157 85.1391 32.6238C84.9249 32.3321 84.8178 31.917 84.8178 31.3788V31.3736C84.8178 30.9019 84.9175 30.4991 85.1169 30.1654C85.3163 29.8318 85.607 29.5776 85.9893 29.4028C86.3717 29.2281 86.8314 29.1407 87.3688 29.1407C87.6258 29.1407 87.8787 29.1704 88.1275 29.2297C88.3764 29.2891 88.6218 29.3775 88.8641 29.4945C89.1063 29.6116 89.3444 29.7592 89.5784 29.9374L89.005 30.7866C88.7313 30.5735 88.4587 30.4135 88.1868 30.3069C87.9149 30.2004 87.6422 30.1472 87.3688 30.1472C86.8775 30.1472 86.4961 30.251 86.2242 30.4589C85.9523 30.6669 85.8164 30.9614 85.8164 31.3423V31.3475C85.8164 31.6095 85.8862 31.8158 86.0264 31.966C86.1665 32.1163 86.3411 32.2272 86.5505 32.2989C86.7597 32.3704 87.0506 32.4448 87.423 32.5217C87.4362 32.5251 87.4486 32.5277 87.46 32.5295C87.4717 32.5314 87.4841 32.534 87.4973 32.5374C87.5137 32.5408 87.5317 32.5444 87.5515 32.5478C87.5714 32.5514 87.5894 32.5549 87.606 32.5583C88.041 32.6527 88.4044 32.7646 88.6961 32.8938C88.9878 33.0231 89.2317 33.2319 89.4277 33.5202C89.6239 33.8084 89.722 34.2026 89.722 34.7022V34.7127C89.722 35.1775 89.618 35.5749 89.4104 35.9051C89.2028 36.2354 88.9019 36.4871 88.5081 36.6601ZM73.9745 36.5866C73.5953 36.8086 73.1388 36.9195 72.6051 36.9195C72.0743 36.9195 71.6203 36.8086 71.2431 36.5866C70.8655 36.3648 70.578 36.0416 70.3804 35.6169C70.1826 35.1924 70.0837 34.6813 70.0837 34.0837V29.2192H71.0921V34.1204C71.0921 34.6761 71.2241 35.1058 71.4878 35.4099C71.7514 35.7139 72.1238 35.866 72.6051 35.866C73.0896 35.866 73.4644 35.7139 73.7296 35.4099C73.9949 35.1058 74.1276 34.6761 74.1276 34.1204V29.2192H75.1363V34.0837C75.1363 34.6813 75.0374 35.1924 74.8396 35.6169C74.6418 36.0416 74.3535 36.3648 73.9745 36.5866ZM59.5221 36.8409L57.9882 33.6172H56.4868V36.8409H55.4782V29.214H55.9183H56.4868H58.3307C58.7459 29.214 59.1109 29.305 59.4258 29.4866C59.7406 29.6684 59.9844 29.9262 60.1574 30.2599C60.3306 30.5935 60.4171 30.9789 60.4171 31.4156C60.4171 31.8525 60.3296 32.2376 60.155 32.5713C59.9802 32.9052 59.7356 33.163 59.4208 33.3446C59.3073 33.4101 59.1872 33.4635 59.0611 33.5053L60.7186 36.8409H59.5221ZM59.223 32.0368C59.3039 31.8568 59.3442 31.6498 59.3442 31.4156C59.3442 31.1816 59.3039 30.9744 59.223 30.7944C59.1424 30.6144 59.0286 30.4756 58.8819 30.3778C58.7353 30.28 58.5648 30.2309 58.3704 30.2309H56.4868V32.6003H58.3704C58.5614 32.6003 58.7311 32.5514 58.8795 32.4534C59.0278 32.3558 59.1424 32.2168 59.223 32.0368ZM44.1555 36.8409H43.1468V30.2362H41.115V29.2192H46.1873V30.2362H44.1555V36.8409Z" fill="#7AC231"/>
<path fill-rule="evenodd" clip-rule="evenodd" d="M189.135 23.9587H181.575V16.4977H185.085V20.8812H189.135C191.076 20.8812 192.476 19.7361 192.476 18.0185C192.476 16.3366 191.025 15.1021 189.135 15.1021H181.575L183.803 11.9889H189.135C193.084 11.9889 195.936 14.4042 195.936 17.8573C195.936 21.3286 193.05 23.9587 189.135 23.9587ZM168.177 23.9587V11.9889H171.67V20.8812H180.411L178.15 23.9587H168.177ZM158.154 24.1555C152.653 24.1555 149.902 22.241 149.902 17.9648C149.902 13.6886 152.653 11.792 158.154 11.792C163.638 11.792 166.405 13.6886 166.405 17.9648C166.405 22.241 163.638 24.1555 158.154 24.1555ZM158.154 14.9052C154.644 14.9052 153.378 15.3884 153.378 17.9648C153.378 20.5413 154.644 21.0423 158.154 21.0423C161.664 21.0423 162.929 20.5413 162.929 17.9648C162.929 15.3884 161.664 14.9052 158.154 14.9052ZM140.503 15.1021C138.613 15.1021 137.179 16.3187 137.179 18.0185C137.179 19.754 138.563 20.8812 140.503 20.8812H144.772V19.1457H138.934L141.026 16.4798H148.248V23.9587H140.503C136.588 23.9587 133.703 21.3286 133.703 17.8573C133.703 14.3506 136.588 11.9889 140.503 11.9889H148.586L146.325 15.1021H140.503ZM119.022 23.9587H111.462V16.4977H114.972V20.8812H119.022C120.963 20.8812 122.363 19.7361 122.363 18.0185C122.363 16.3366 120.912 15.1021 119.022 15.1021H111.462L113.69 11.9889H119.022C122.971 11.9889 125.823 14.4042 125.823 17.8573C125.823 21.3286 122.937 23.9587 119.022 23.9587ZM98.0641 23.9587V11.9889H101.557V20.8812H110.298L108.037 23.9587H98.0641ZM96.8156 23.9587H92.1412L89.6269 20.7918H84.2608V23.9587H80.7678V17.8395H90.5888C91.6687 17.8395 92.5124 17.3208 92.5124 16.4977C92.5124 15.5672 91.7869 15.1021 90.5888 15.1021H80.7678L83.0459 11.9889H90.302C92.867 11.9889 96.1069 12.8477 96.1069 16.2651C96.1069 18.1257 95.01 19.6646 93.1537 20.0581C93.5419 20.3623 93.9637 20.7918 94.7399 21.6327L96.8156 23.9587ZM70.7782 24.1555C65.277 24.1555 62.5266 22.241 62.5266 17.9648C62.5266 13.6886 65.277 11.792 70.7782 11.792C76.2624 11.792 79.0299 13.6886 79.0299 17.9648C79.0299 22.241 76.2624 24.1555 70.7782 24.1555ZM70.7782 14.9052C67.2682 14.9052 66.0028 15.3884 66.0028 17.9648C66.0028 20.5413 67.2682 21.0423 70.7782 21.0423C74.288 21.0423 75.5537 20.5413 75.5537 17.9648C75.5537 15.3884 74.288 14.9052 70.7782 14.9052ZM57.3291 24.1555C56.4348 24.1555 55.8272 23.6724 55.4053 22.8851L53.5999 19.5035C52.6211 17.6607 52.1654 16.7661 51.7774 15.9073C51.4231 16.7661 50.9674 17.6428 49.9886 19.4856L48.1832 22.8851C47.7782 23.6545 47.1705 24.1555 46.2594 24.1555C45.3819 24.1555 44.6057 23.6188 44.302 22.5094L41.4333 11.9889H44.9263L45.9893 16.1576C46.3437 17.4996 46.5799 18.4837 46.7487 19.4498C47.1201 18.6089 47.5587 17.6964 48.3349 16.1397L49.8537 13.134C50.4443 11.9531 51.0181 11.792 51.8449 11.792C52.6886 11.792 53.2792 11.9531 53.8698 13.134L55.3717 16.1576C56.2154 17.8037 56.6036 18.6446 56.9579 19.4498C57.1435 18.5016 57.3966 17.4817 57.7341 16.1576L58.7972 11.9889H62.2059L59.2865 22.5094C58.9828 23.6188 58.2066 24.1555 57.3291 24.1555Z" fill="white"/>
<path fill-rule="evenodd" clip-rule="evenodd" d="M33.2339 9.24107L29.8304 8.83929L29.0296 6.02679L31.8325 4.21875L34.4351 4.62054L35.6363 7.03125L33.2339 9.24107ZM25.2257 5.02232L25.4259 3.21429L28.429 2.00893L31.2319 1.80804V3.61607L28.2288 5.625L25.2257 5.02232ZM25.2257 2.41071H22.4229L24.0245 0.602679C24.0245 0.602679 24.7436 0.329263 25.4259 0.200893C26.317 0.0331473 27.2278 0 27.2278 0L29.8304 0.401786L28.0286 1.60714L25.2257 2.41071ZM17.618 4.62054H15.2155L16.2165 2.8125C16.2165 2.8125 17.3603 2.01516 18.2186 1.60714C19.2468 1.11837 20.0204 1.00446 20.0204 1.00446H22.4229L21.2216 2.61161L17.618 4.62054ZM10.0102 8.23661H8.60877C8.60877 8.23661 9.73212 6.35002 11.4116 5.02232C13.0347 3.73922 15.2155 3.01339 15.2155 3.01339L14.0143 5.02232L10.0102 8.23661ZM9.20938 11.4509L6.40652 15.2679L4.60468 16.0714L4.80489 13.058C4.80489 13.058 5.13342 12.1659 5.80591 11.25C6.53265 10.2604 7.60775 9.24107 7.60775 9.24107L9.40959 9.04018L9.20938 11.4509ZM6.20632 20.8929L4.20428 24.7098L2.60264 25.1116L2.20223 21.8973L4.00407 17.2768L5.80591 16.875L6.20632 20.8929ZM1.80182 21.2946L0.800803 21.8973C0.800803 21.8973 1.41503 18.8763 2.20223 16.875C2.91256 15.0696 3.80387 14.2634 3.80387 14.2634L3.40346 17.0759L1.80182 21.2946ZM2.20223 25.9152L1.80182 30.7366L0.800803 31.1384C0.800803 31.1384 0.306899 29.4621 0.20019 27.3214C0.107695 25.4646 0.600598 23.1027 0.600598 23.1027L1.60162 22.5L2.20223 25.9152ZM3.40346 34.1518L4.20428 38.9732L3.60366 39.375C3.60366 39.375 2.63287 38.3641 2.00203 36.5625C1.33275 34.6508 1.00101 31.942 1.00101 31.942L2.00203 31.5402L3.40346 34.1518ZM5.4055 34.5536L7.40754 38.1696L7.80795 41.7857L6.40652 42.1875L4.60468 38.7723L4.00407 34.9554L5.4055 34.5536ZM6.60673 29.933H9.00918L10.811 33.75L9.81 37.1652L8.00816 37.3661L5.80591 33.75L6.60673 29.933ZM12.2124 41.7857V45H10.6108L8.40857 41.5848L8.20836 38.1696L10.2104 38.3705L12.2124 41.7857ZM11.6118 34.1518L15.0153 34.3527L16.8171 37.9688L15.4157 41.3839L12.8131 40.7812L10.811 37.567L11.6118 34.1518ZM18.0184 30.1339L22.0225 30.7366L24.0245 34.7545L21.2216 38.3705L17.8182 37.3661L15.8161 33.9509L18.0184 30.1339ZM18.2186 29.1295L16.6169 24.9107L19.2196 20.8929L23.4239 21.4955L25.2257 25.7143L22.4229 29.5312L18.2186 29.1295ZM28.0286 17.2768L32.0327 17.8795L33.8345 22.2991L30.8314 26.1161L26.427 25.1116L24.8253 20.8929L28.0286 17.2768ZM27.8284 6.42857L28.6292 9.24107L25.8263 12.0536L22.0225 11.6518L21.4218 8.4375L24.6251 5.82589L27.8284 6.42857ZM21.2216 3.41518L24.4249 3.21429L24.2247 5.42411L21.0214 7.83482H17.4178L17.8182 5.42411L21.2216 3.41518ZM20.0204 8.63839L20.8212 11.8527L17.618 15.067H13.8141L13.0133 11.8527L16.6169 8.4375L20.0204 8.63839ZM14.0143 5.82589L16.6169 5.42411L16.4167 7.63393L13.0133 11.0491L10.2104 11.25L10.4106 8.83929L14.0143 5.82589ZM12.2124 12.0536L12.8131 15.2679L10.0102 19.4866H7.20734L6.60673 16.0714L9.40959 12.2545L12.2124 12.0536ZM15.0153 33.3482L11.6118 32.9464L9.81 29.3304L12.0122 25.3125L15.4157 25.5134L17.0174 29.3304L15.0153 33.3482ZM25.4259 13.058L26.8274 17.2768L23.8243 20.4911L19.62 19.6875L18.4188 15.8705L21.622 12.6562L25.4259 13.058ZM12.0122 23.9062L10.6108 20.4911L13.2135 16.0714L17.2176 16.2723L18.619 19.8884L15.8161 24.308L12.0122 23.9062ZM3.80387 33.75L2.60264 30.9375V26.317L4.40448 25.9152L5.80591 29.7321L5.2053 33.3482L3.80387 33.75ZM9.81 20.8929L11.2114 24.5089L9.00918 28.9286H6.40652L5.00509 25.1116L7.00714 20.692L9.81 20.8929ZM33.2339 10.4464L35.0357 13.4598L32.0327 17.0759L27.8284 16.4732L26.427 12.6562C26.427 12.6562 29.3822 9.86705 29.2298 9.84375C29.3565 9.86304 33.2339 10.4464 33.2339 10.4464Z" fill="#7AC231"/>
</g>
<defs>
<clipPath id="clip0_201_1022">
<rect width="196" height="45" fill="white"/>
</clipPath>
</defs>
</svg>
