<svg width="141" height="63" viewBox="0 0 141 63" fill="none" xmlns="http://www.w3.org/2000/svg">
<g clip-path="url(#clip0_331_117)">
<g filter="url(#filter0_d_331_117)">
<g filter="url(#filter1_d_331_117)">
<path fill-rule="evenodd" clip-rule="evenodd" d="M0.234995 22.5718C-0.993487 21.6526 10.1836 18.9501 20.7157 17.8015C30.4625 16.7386 39.3625 16.9405 40.172 18.8241C40.5294 19.6568 30.4463 26.1838 24.1288 32.7931C16.155 41.135 11.4988 49.6133 11.4988 50.5098C11.4988 50.9743 15.48 49.2046 19.6282 47.1426C23.4911 45.2227 28.2251 43.0145 28.2251 43.0145C28.2251 43.0145 22.3388 42.0275 24.1288 37.5633C26.3565 32.0048 34.2549 28.8273 38.1235 32.1114C38.7556 32.6485 39.7158 35.2299 35.7346 37.2225C31.9365 39.1238 30.2729 38.5851 30.2729 38.5851C30.2729 38.5851 34.1893 37.3816 35.0515 35.1782C35.3975 34.2946 32.9559 34.121 31.6383 34.4965C26.9594 35.8308 25.2276 40.0518 28.4885 41.093C33.6779 42.7503 47.1515 30.6245 50.4115 32.7931C53.1076 34.587 46.6208 43.4805 47.3395 44.377C48.893 46.3147 56.8975 42.3328 56.8975 42.3328C56.8975 42.3328 49.7171 49.7022 44.9506 47.103C42.0885 45.5425 48.0948 38.2087 46.6572 37.2225C44.663 35.8543 30.4284 44.0499 18.3259 50.8507C9.84974 55.6145 2.69115 59.1578 1.60043 58.6869C-1.9894 57.1394 0.582634 52.4281 8.00296 43.0532C11.4169 38.7402 15.6964 34.3011 20.3121 30.4435C25.41 26.1838 30.6918 22.6663 30.614 21.55C30.5054 19.9831 20.6638 20.6333 12.1819 21.55C5.87175 22.2317 1.15474 23.2607 0.234995 22.5718Z" fill="url(#paint0_linear_331_117)"/>
</g>
</g>
<path fill-rule="evenodd" clip-rule="evenodd" d="M36.1227 17.1578L46.9814 17.8338L36.852 18.4647L40.2579 22.3117L36.0344 18.5979L35.3561 28.7393L34.6746 18.5503L30.6926 22.0233L33.8173 18.4638L23.389 17.8338L34.5377 17.1602L30.2583 12.3448L34.7322 16.2944L35.3561 7.26923L35.9785 16.2605L39.8228 12.9223L36.1227 17.1578Z" fill="white"/>
<path fill-rule="evenodd" clip-rule="evenodd" d="M35.1852 16.1296C36.224 16.1296 37.066 16.9688 37.066 18.0043C37.066 19.0397 36.224 19.8789 35.1852 19.8789C34.1471 19.8789 33.3052 19.0397 33.3052 18.0043C33.3052 16.9688 34.1471 16.1296 35.1852 16.1296Z" fill="white"/>
<g filter="url(#filter2_d_331_117)">
<path fill-rule="evenodd" clip-rule="evenodd" d="M135.371 34.4376C135.635 34.6395 135.944 34.8358 136.3 35.0264C136.657 35.217 137.042 35.4213 137.46 35.641C137.928 35.889 138.374 36.1313 138.797 36.3672C139.219 36.6038 139.591 36.8647 139.912 37.1506C140.233 37.4365 140.489 37.762 140.68 38.1287C140.871 38.4946 140.967 38.9348 140.967 39.4477C140.967 39.8863 140.875 40.303 140.693 40.698C140.511 41.0938 140.256 41.4395 139.93 41.7367C139.602 42.0339 139.212 42.2706 138.757 42.4467C138.303 42.6219 137.804 42.71 137.259 42.71C137.057 42.71 136.883 42.7075 136.738 42.7019C136.594 42.6954 136.455 42.6825 136.322 42.6623C136.189 42.6421 136.051 42.6106 135.909 42.5678C135.768 42.5242 135.598 42.4652 135.402 42.3901C135.263 42.3384 135.121 42.2908 134.977 42.2472C134.832 42.2043 134.699 42.168 134.577 42.1389C134.456 42.1107 134.353 42.0872 134.269 42.0703C134.185 42.0525 134.132 42.0436 134.108 42.0436C133.964 42.0436 133.85 42.0872 133.765 42.1737C133.682 42.2601 133.619 42.4394 133.579 42.71H133.257V38.6868H133.579C133.654 39.1077 133.743 39.4752 133.844 39.7902C133.944 40.1043 134.059 40.3685 134.187 40.5817C134.314 40.7893 134.478 40.9823 134.681 41.1616C134.884 41.3401 135.111 41.4944 135.362 41.6244C135.614 41.7545 135.887 41.8554 136.178 41.9273C136.471 41.9992 136.771 42.0355 137.077 42.0355C137.442 42.0355 137.769 41.983 138.058 41.8797C138.348 41.7755 138.593 41.6357 138.797 41.4597C138.998 41.2836 139.153 41.0792 139.261 40.8458C139.368 40.6116 139.421 40.3685 139.421 40.114C139.421 39.7393 139.343 39.4235 139.187 39.1666C139.031 38.9098 138.821 38.6812 138.558 38.4793C138.294 38.2773 137.987 38.0835 137.637 37.8993C137.287 37.7144 136.918 37.5068 136.53 37.2758C136.09 37.0165 135.666 36.7702 135.259 36.536C134.85 36.3025 134.49 36.0457 134.178 35.7662C133.865 35.4868 133.615 35.1677 133.427 34.8099C133.239 34.4521 133.145 34.0257 133.145 33.5289C133.145 33.1138 133.231 32.7188 133.405 32.344C133.579 31.9693 133.819 31.6397 134.126 31.357C134.432 31.0752 134.795 30.8514 135.215 30.6867C135.635 30.5227 136.093 30.4403 136.591 30.4403C137.204 30.4403 137.867 30.593 138.579 30.8991C138.891 31.0428 139.12 31.1147 139.265 31.1147C139.416 31.1147 139.539 31.0703 139.634 30.9807C139.729 30.8918 139.806 30.7117 139.864 30.4403H140.186V34.4982H139.864C139.76 33.7195 139.572 33.0992 139.3 32.638C139.167 32.407 139 32.1995 138.801 32.0153C138.601 31.8303 138.384 31.6728 138.149 31.5436C137.915 31.4136 137.666 31.3126 137.403 31.2407C137.14 31.1688 136.875 31.1325 136.609 31.1325C136.314 31.1325 136.038 31.1826 135.784 31.2835C135.529 31.3845 135.307 31.5186 135.119 31.6866C134.931 31.8538 134.785 32.0452 134.681 32.2617C134.577 32.4781 134.525 32.7018 134.525 32.932C134.525 33.2551 134.6 33.537 134.751 33.7761C134.901 34.0152 135.108 34.2357 135.371 34.4376ZM130.306 31.4782C130.179 31.6575 130.115 32.0783 130.115 32.7422V42.6324H129.803L122.041 33.1832V40.4088C122.041 41.1293 122.119 41.58 122.275 41.7585C122.489 42.0008 122.828 42.122 123.291 42.122H123.708V42.4418H119.61V42.122H120.019C120.522 42.122 120.878 41.9717 121.086 41.6721C121.213 41.4928 121.277 41.072 121.277 40.4088V32.2487C121.104 32.0468 120.959 31.8853 120.843 31.7641C120.727 31.643 120.617 31.5436 120.513 31.4653C120.409 31.3877 120.296 31.3239 120.174 31.2755C120.053 31.2262 119.903 31.1697 119.723 31.1067C119.555 31.0542 119.301 31.0283 118.959 31.0283V30.7085H122.154L129.35 39.5083V32.7422C129.35 32.021 129.269 31.5711 129.107 31.3918C128.888 31.1495 128.549 31.0283 128.092 31.0283H127.684V30.7085H131.782V31.0283H131.365C130.867 31.0283 130.514 31.1785 130.306 31.4782ZM108.697 42.4418V42.122H109.115C109.224 42.122 109.34 42.1107 109.461 42.0872C109.583 42.0646 109.697 42.0267 109.804 41.975C109.911 41.9225 110.008 41.8578 110.095 41.7803C110.182 41.702 110.243 41.6115 110.277 41.5073C110.347 41.3288 110.382 40.9508 110.382 40.3741V32.7503C110.382 32.0121 110.307 31.5533 110.156 31.3748C109.948 31.1438 109.601 31.0283 109.115 31.0283H108.697V30.7085H117.77V33.2785H117.562C117.498 32.9668 117.434 32.7099 117.37 32.508C117.306 32.3061 117.234 32.1389 117.153 32.0064C117.072 31.874 116.98 31.7682 116.875 31.6906C116.771 31.6123 116.647 31.542 116.502 31.4782C116.265 31.3918 115.857 31.349 115.278 31.349H112.049V35.9867H114.635C115.011 35.9867 115.317 35.9536 115.552 35.8874C115.786 35.8212 115.969 35.717 116.103 35.5756C116.236 35.4343 116.328 35.2574 116.381 35.0433C116.433 34.8301 116.468 34.5765 116.485 34.2825H116.806V38.3662H116.485C116.444 38.0778 116.404 37.8428 116.363 37.6611C116.323 37.4793 116.282 37.3485 116.242 37.2677C116.19 37.1635 116.123 37.0731 116.042 36.9947C115.961 36.9172 115.857 36.8493 115.729 36.7912C115.602 36.7338 115.449 36.691 115.269 36.662C115.09 36.6329 114.879 36.6183 114.635 36.6183H112.049V40.4864C112.049 41.0001 112.071 41.3167 112.118 41.4378C112.141 41.4903 112.17 41.5396 112.205 41.5857C112.239 41.6317 112.29 41.6705 112.357 41.702C112.423 41.7343 112.51 41.7585 112.617 41.7755C112.724 41.7932 112.859 41.8013 113.021 41.8013H115.018C115.359 41.8013 115.644 41.7916 115.873 41.7714C116.101 41.7512 116.301 41.7165 116.472 41.6672C116.643 41.6188 116.793 41.5493 116.923 41.4597C117.053 41.3708 117.191 41.2561 117.335 41.118C117.515 40.9452 117.697 40.723 117.882 40.4517C118.068 40.1811 118.253 39.8637 118.438 39.5002H118.785L117.77 42.4418H108.697ZM105.984 40.7763C105.432 41.2981 104.743 41.7068 103.919 42.0008C103.094 42.2948 102.14 42.4418 101.058 42.4418H95.7965V42.122H96.2398C96.7317 42.122 97.0842 41.9628 97.2989 41.6462C97.4261 41.4613 97.4893 41.0348 97.4893 40.3652V32.785C97.4893 32.0468 97.4083 31.588 97.2462 31.4095C97.021 31.1551 96.6855 31.0283 96.2398 31.0283H95.7965V30.7085H100.589C102.348 30.7085 103.685 30.9072 104.6 31.3053C105.52 31.7035 106.258 32.3667 106.814 33.2955C107.375 34.2187 107.656 35.2913 107.656 36.515C107.656 37.38 107.515 38.1764 107.235 38.9025C106.954 39.6294 106.537 40.2546 105.984 40.7763ZM105.325 34.4206C105.09 33.7745 104.763 33.2252 104.344 32.7721C103.924 32.319 103.423 31.9717 102.842 31.7294C102.26 31.4871 101.625 31.3659 100.937 31.3659C100.676 31.3659 100.398 31.3877 100.103 31.4305C99.8077 31.4742 99.4925 31.5363 99.1562 31.6171V41.5937C99.8799 41.7553 100.497 41.836 101.005 41.836C101.672 41.836 102.289 41.7141 102.859 41.4685C103.429 41.223 103.923 40.8741 104.339 40.4218C104.756 39.9687 105.083 39.4194 105.321 38.7733C105.558 38.1271 105.676 37.4034 105.676 36.6014C105.676 35.7937 105.559 35.0668 105.325 34.4206ZM88.5221 36.956C88.3713 36.9616 88.2368 36.9665 88.1177 36.9689C87.9994 36.9721 87.8932 36.9729 87.8009 36.9729C87.7255 36.9729 87.6445 36.9721 87.5578 36.9689C87.471 36.9665 87.3811 36.9616 87.2887 36.956V40.3652C87.2887 41.1035 87.3697 41.5622 87.5318 41.7407C87.7522 41.9952 88.082 42.122 88.5221 42.122H88.9815V42.4418H83.9379V42.122H84.3804C84.8723 42.122 85.228 41.9604 85.4484 41.6373C85.57 41.4588 85.6307 41.0348 85.6307 40.3652V32.785C85.6307 32.0468 85.5497 31.588 85.3876 31.4095C85.1616 31.1551 84.8261 31.0283 84.3804 31.0283H83.9379V30.7085H88.2263C89.4653 30.7085 90.385 30.8005 90.9871 30.9855C91.2821 31.0719 91.5584 31.202 91.8161 31.3748C92.0738 31.5477 92.2991 31.7528 92.4936 31.9887C92.6872 32.2253 92.8404 32.491 92.9538 32.785C93.0665 33.079 93.1232 33.394 93.1232 33.7284C93.1232 34.0919 93.0649 34.4303 92.949 34.7453C92.8331 35.0595 92.6556 35.3462 92.415 35.6063C92.1751 35.8656 91.8728 36.0909 91.5082 36.2807C91.1435 36.4713 90.7149 36.6216 90.223 36.7306L92.654 40.0971C93.2156 40.8757 93.6929 41.3894 94.0867 41.6373C94.4919 41.891 95.0121 42.0525 95.649 42.122V42.4418H92.5065L88.5221 36.956ZM90.3186 35.6838C90.6022 35.4537 90.8153 35.1807 90.9571 34.8665C91.099 34.5515 91.1695 34.2098 91.1695 33.8407C91.1695 33.4772 91.1087 33.1445 90.9871 32.8416C90.8656 32.5387 90.6938 32.2778 90.4709 32.0581C90.2481 31.8392 89.9815 31.6688 89.6719 31.5477C89.3624 31.4265 89.022 31.3659 88.6517 31.3659C88.484 31.3659 88.2871 31.3788 88.0618 31.4047C87.8357 31.4305 87.578 31.4725 87.2887 31.5307V36.4108C87.3989 36.4108 87.4945 36.4124 87.5756 36.4148C87.6566 36.418 87.7231 36.4197 87.7749 36.4197C88.3365 36.4197 88.83 36.3542 89.2554 36.225C89.6809 36.095 90.035 35.9148 90.3186 35.6838ZM78.7898 42.122C79.0208 42.1107 79.2152 42.084 79.3716 42.0436C79.5272 42.004 79.6504 41.9515 79.7404 41.8885C79.8303 41.8247 79.8935 41.7528 79.9316 41.6721C79.9689 41.5913 79.9875 41.5017 79.9875 41.4039C79.9932 41.2771 79.9656 41.114 79.9057 40.9145C79.8449 40.7158 79.7566 40.4775 79.6407 40.2005L78.9284 38.5132H74.371L73.572 40.3652C73.3751 40.8151 73.277 41.156 73.277 41.3862C73.277 41.479 73.2924 41.5638 73.3249 41.6414C73.3565 41.7197 73.4213 41.7916 73.5201 41.8578C73.6182 41.9241 73.7576 41.979 73.9367 42.0226C74.1157 42.0654 74.3508 42.0985 74.64 42.122V42.4418H70.9327V42.122C71.4189 42.0355 71.7374 41.9225 71.8881 41.7843C72.038 41.6462 72.1928 41.437 72.3524 41.1568C72.5113 40.8773 72.6839 40.5243 72.8686 40.0971L77.0103 30.4403H77.3142L81.4113 40.2005C81.579 40.6043 81.7338 40.929 81.8756 41.1745C82.0174 41.4193 82.1641 41.6099 82.314 41.7456C82.4647 41.8813 82.6284 41.975 82.8051 42.0267C82.9817 42.0783 83.1916 42.1107 83.4339 42.122V42.4418H78.7898V42.122ZM76.6886 33.1315L74.64 37.8735H78.6853L76.6886 33.1315ZM69.8217 36.4326C69.6832 36.4754 69.5681 36.5578 69.479 36.6789C69.389 36.8001 69.3242 36.9729 69.2837 37.1983C69.2431 37.4228 69.2229 37.7176 69.2229 38.0811V41.6721C68.8753 41.8562 68.5398 42.0137 68.2156 42.1438C67.8915 42.273 67.5633 42.3804 67.2302 42.4636C66.8972 42.5468 66.556 42.609 66.206 42.6494C65.8559 42.6898 65.484 42.71 65.0901 42.71C62.8155 42.71 61.0878 41.983 59.9072 40.53C59.0223 39.4396 58.579 38.182 58.579 36.7573C58.579 36.3591 58.6195 35.9593 58.7006 35.5587C58.7816 35.1572 58.8975 34.7663 59.0482 34.3859C59.1981 34.0055 59.3837 33.6404 59.6033 33.2915C59.8237 32.9425 60.0692 32.6211 60.3415 32.3263C60.9201 31.6801 61.5813 31.2044 62.3252 30.8991C63.0691 30.593 63.8981 30.4403 64.8122 30.4403C65.0845 30.4403 65.3219 30.45 65.5245 30.4702C65.7271 30.4904 65.924 30.5227 66.1144 30.5655C66.3056 30.6091 66.5066 30.6665 66.7181 30.7383C66.9296 30.811 67.1792 30.8991 67.4693 31.0025C67.787 31.1236 68.0041 31.1842 68.12 31.1842C68.2302 31.1842 68.3242 31.1341 68.402 31.0332C68.4806 30.9322 68.5284 30.7343 68.5454 30.4403H68.8663L69.1702 34.1436H68.8663C68.5657 33.226 68.1694 32.5314 67.6776 32.0581C66.9709 31.3837 66.0715 31.0461 64.9775 31.0461C63.4784 31.0461 62.3382 31.6373 61.557 32.8198C60.9031 33.8181 60.5757 35.0062 60.5757 36.3849C60.5757 37.5044 60.7929 38.5253 61.2272 39.4477C61.4176 39.858 61.6462 40.2271 61.9128 40.5558C62.1794 40.8846 62.4768 41.164 62.8074 41.395C63.1372 41.626 63.4946 41.8045 63.8795 41.9313C64.2644 42.0582 64.6704 42.122 65.099 42.122C65.5334 42.122 65.9507 42.067 66.3535 41.9572C66.7554 41.8482 67.1476 41.6866 67.5301 41.4726V38.0811C67.5301 37.7806 67.5179 37.5399 67.4952 37.3582C67.4717 37.1765 67.4385 37.0311 67.3956 36.9212C67.3518 36.8122 67.2943 36.7282 67.2213 36.67C67.1492 36.6127 67.0666 36.561 66.9742 36.515C66.7886 36.4164 66.4588 36.3672 65.9848 36.3672V36.0384H70.5421V36.3672H70.325C70.128 36.3672 69.9603 36.389 69.8217 36.4326Z" fill="url(#paint1_linear_331_117)"/>
</g>
</g>
<defs>
<filter id="filter0_d_331_117" x="-3.4662" y="16.6957" width="63.8277" height="48.4972" filterUnits="userSpaceOnUse" color-interpolation-filters="sRGB">
<feFlood flood-opacity="0" result="BackgroundImageFix"/>
<feColorMatrix in="SourceAlpha" type="matrix" values="0 0 0 0 0 0 0 0 0 0 0 0 0 0 0 0 0 0 127 0" result="hardAlpha"/>
<feOffset dy="3"/>
<feGaussianBlur stdDeviation="1.732"/>
<feColorMatrix type="matrix" values="0 0 0 0 0.326425 0 0 0 0 0.326425 0 0 0 0 0.326425 0 0 0 1 0"/>
<feBlend mode="normal" in2="BackgroundImageFix" result="effect1_dropShadow_331_117"/>
<feBlend mode="normal" in="SourceGraphic" in2="effect1_dropShadow_331_117" result="shape"/>
</filter>
<filter id="filter1_d_331_117" x="-4.0022" y="17.1597" width="64.8997" height="49.5692" filterUnits="userSpaceOnUse" color-interpolation-filters="sRGB">
<feFlood flood-opacity="0" result="BackgroundImageFix"/>
<feColorMatrix in="SourceAlpha" type="matrix" values="0 0 0 0 0 0 0 0 0 0 0 0 0 0 0 0 0 0 127 0" result="hardAlpha"/>
<feOffset dy="4"/>
<feGaussianBlur stdDeviation="2"/>
<feComposite in2="hardAlpha" operator="out"/>
<feColorMatrix type="matrix" values="0 0 0 0 0 0 0 0 0 0 0 0 0 0 0 0 0 0 1 0"/>
<feBlend mode="normal" in2="BackgroundImageFix" result="effect1_dropShadow_331_117"/>
<feBlend mode="normal" in="SourceGraphic" in2="effect1_dropShadow_331_117" result="shape"/>
</filter>
<filter id="filter2_d_331_117" x="55.579" y="29.4403" width="88.3878" height="18.2697" filterUnits="userSpaceOnUse" color-interpolation-filters="sRGB">
<feFlood flood-opacity="0" result="BackgroundImageFix"/>
<feColorMatrix in="SourceAlpha" type="matrix" values="0 0 0 0 0 0 0 0 0 0 0 0 0 0 0 0 0 0 127 0" result="hardAlpha"/>
<feOffset dy="2"/>
<feGaussianBlur stdDeviation="1.5"/>
<feComposite in2="hardAlpha" operator="out"/>
<feColorMatrix type="matrix" values="0 0 0 0 0 0 0 0 0 0 0 0 0 0 0 0 0 0 1 0"/>
<feBlend mode="normal" in2="BackgroundImageFix" result="effect1_dropShadow_331_117"/>
<feBlend mode="normal" in="SourceGraphic" in2="effect1_dropShadow_331_117" result="shape"/>
</filter>
<linearGradient id="paint0_linear_331_117" x1="-33.6293" y1="88.4423" x2="51.4198" y2="-6.67372" gradientUnits="userSpaceOnUse">
<stop offset="0.18" stop-color="#848383"/>
<stop offset="0.53" stop-color="white"/>
<stop offset="0.538815" stop-color="#F8F8F8"/>
<stop offset="0.635771" stop-color="#E5DEDE"/>
<stop offset="1" stop-color="white"/>
</linearGradient>
<linearGradient id="paint1_linear_331_117" x1="72.931" y1="56.9423" x2="86.3167" y2="4.39855" gradientUnits="userSpaceOnUse">
<stop stop-color="#B9B9B9"/>
<stop offset="0.44536" stop-color="white"/>
<stop offset="1" stop-color="#BBBBBB"/>
</linearGradient>
<clipPath id="clip0_331_117">
<rect width="141" height="63" fill="white"/>
</clipPath>
</defs>
</svg>
