<svg width="58" height="59" viewBox="0 0 58 59" fill="none" xmlns="http://www.w3.org/2000/svg">
<rect x="-1" width="58.1818" height="58.1818" rx="8" fill="#31353F"/>
<path d="M23.82 32.3039L25.9489 33.256C27.3109 33.8643 28.8712 33.8643 30.2464 33.256L32.3753 32.3039C34.2795 31.4577 36.0382 33.7585 34.7158 35.3717L30.1406 40.9651C29.0167 42.3403 27.1786 42.3403 26.0415 40.9651L21.4795 35.3717C20.1439 33.7585 21.9026 31.4577 23.82 32.3039Z" fill="#3A6FF8"/>
<path d="M23.5557 28.6545C23.159 28.9454 23.2119 29.5537 23.6615 29.7785L26.769 31.3256C27.4962 31.6959 28.6731 31.6959 29.3871 31.3256L32.4946 29.7785C32.9309 29.5537 32.9838 28.9587 32.6004 28.6545L28.488 25.5603C28.2499 25.3884 27.9326 25.3884 27.6946 25.5603L23.5557 28.6545Z" fill="#3A6FF8"/>
<path d="M35.8665 24.1189L30.3525 17.2429C30.2467 17.1107 30.1277 16.9917 30.0087 16.8726C29.6649 16.5421 29.1756 16.8462 29.1756 17.3222V23.0082C29.1756 23.2198 29.2682 23.4181 29.4401 23.5371L34.9277 27.6627L35.1657 27.8346C35.4037 28.0065 35.7343 28.0065 35.9327 27.795C36.8583 26.79 36.845 25.3355 35.8665 24.1189Z" fill="#3A6FF8"/>
<path d="M20.3038 24.2379L25.7914 17.256C25.8972 17.1238 26.003 17.0048 26.122 16.8858C26.4658 16.5552 26.9551 16.8461 26.9551 17.3354V23.1139C26.9551 23.3255 26.8625 23.5106 26.6906 23.6428L21.2294 27.8346L21.0046 28.0065C20.7666 28.1784 20.4361 28.1784 20.2245 27.9536C19.3253 26.9354 19.3385 25.4808 20.3038 24.2379Z" fill="#3A6FF8"/>
</svg>
