<svg width="59" height="59" viewBox="0 0 59 59" fill="none" xmlns="http://www.w3.org/2000/svg">
<rect x="0.818115" width="58.1818" height="58.1818" rx="8" fill="#31353F"/>
<path d="M40.4875 17.8513H21.3139C20.904 17.8513 20.5073 18.0497 20.2561 18.3802L18.2726 21.0249C17.6247 21.8976 18.2462 23.1406 19.3305 23.1406H38.504C38.9139 23.1406 39.3106 22.9422 39.5618 22.6116L41.5453 19.967C42.1933 19.0943 41.5718 17.8513 40.4875 17.8513Z" fill="#1ECB4F"/>
<path d="M19.3305 26.4463H38.504C38.9139 26.4463 39.3106 26.6446 39.5618 26.9752L41.5453 29.6198C42.1933 30.4926 41.5718 31.7355 40.4875 31.7355H21.3139C20.904 31.7355 20.5073 31.5372 20.2561 31.2066L18.2726 28.562C17.6247 27.6893 18.2462 26.4463 19.3305 26.4463Z" fill="#1ECB4F"/>
<path d="M40.4875 35.0415H21.3139C20.904 35.0415 20.5073 35.2399 20.2561 35.5704L18.2726 38.2151C17.6247 39.0878 18.2462 40.3308 19.3305 40.3308H38.504C38.9139 40.3308 39.3106 40.1324 39.5618 39.8018L41.5453 37.1572C42.1933 36.2845 41.5718 35.0415 40.4875 35.0415Z" fill="#1ECB4F"/>
</svg>
