<svg width="48" height="39" viewBox="0 0 48 39" fill="none" xmlns="http://www.w3.org/2000/svg">
<path d="M47.6667 3.25V35.75C47.6667 36.612 47.3243 37.4386 46.7148 38.0481C46.1053 38.6576 45.2786 39 44.4167 39H3.25C2.38805 39 1.5614 38.6576 0.951903 38.0481C0.34241 37.4386 0 36.612 0 35.75V3.25C0 2.38805 0.34241 1.5614 0.951903 0.951903C1.5614 0.34241 2.38805 0 3.25 0H44.4167C45.2786 0 46.1053 0.34241 46.7148 0.951903C47.3243 1.5614 47.6667 2.38805 47.6667 3.25ZM45.5 3.79167C45.5 3.36069 45.3288 2.94736 45.024 2.64262C44.7193 2.33787 44.306 2.16667 43.875 2.16667H3.79167C3.36069 2.16667 2.94736 2.33787 2.64262 2.64262C2.33787 2.94736 2.16667 3.36069 2.16667 3.79167V35.2083C2.16667 35.6393 2.33787 36.0526 2.64262 36.3574C2.94736 36.6621 3.36069 36.8333 3.79167 36.8333H43.875C44.306 36.8333 44.7193 36.6621 45.024 36.3574C45.3288 36.0526 45.5 35.6393 45.5 35.2083V3.79167Z" fill="white"/>
<path d="M26 9.66667H6.5V7.5H26V9.66667ZM32.5 11.8333H6.5V14H32.5V11.8333ZM26 16.1667H15.1667V18.3333H26V16.1667ZM36.8333 16.1667H28.1667V18.3333H36.8333V16.1667ZM15.1667 22.6667H23.8333V20.5H15.1667V22.6667ZM34.6667 20.5H26V22.6667H34.6667V20.5ZM15.1667 27H23.8333V24.8333H15.1667V27ZM34.6667 24.8333H26V27H34.6667V24.8333ZM36.8333 7.5H28.1667V9.66667H36.8333V7.5ZM6.5 31.3333H23.8333V29.1667H6.5V31.3333ZM26 31.3333H39V29.1667H26V31.3333ZM34.6667 14H41.1667V11.8333H34.6667V14Z" fill="#FF769D"/>
</svg>
