<svg width="46" height="37" viewBox="0 0 46 37" fill="none" xmlns="http://www.w3.org/2000/svg">
<path d="M46 28.5H1M46 21H1M46 36H23.5" stroke="white" stroke-width="2" stroke-linecap="round" stroke-linejoin="round"/>
<path d="M14.0059 4.38086H15.6113L17.6035 10.3926L19.625 4.38086H21.207L22.6602 13H21.0781L20.1523 7.55664L18.3184 13H16.8711L15.0605 7.55664L14.1172 13H12.5176L14.0059 4.38086ZM23.9844 4.38086H28.6895V5.98633H25.6133V7.54492H28.6895V9.12109H25.6133V11.3887H28.6895V13H23.9844V4.38086ZM30.2305 4.38086H31.8008L35.498 10.0527V4.38086H37.1387V13H35.5625L31.8711 7.3457V13H30.2305V4.38086ZM39.0488 4.38086H40.6953V9.95898C40.6953 10.4395 40.7363 10.7793 40.8184 10.9785C40.9043 11.1777 41.043 11.3379 41.2344 11.459C41.4297 11.5762 41.6641 11.6348 41.9375 11.6348C42.2266 11.6348 42.4746 11.5684 42.6816 11.4355C42.8926 11.3027 43.0371 11.1348 43.1152 10.9316C43.1973 10.7246 43.2383 10.332 43.2383 9.75391V4.38086H44.8848V9.51953C44.8848 10.3867 44.8359 10.9883 44.7383 11.3242C44.6406 11.6602 44.4531 11.9844 44.1758 12.2969C43.9023 12.6094 43.5859 12.8418 43.2266 12.9941C42.8672 13.1426 42.4492 13.2168 41.9727 13.2168C41.3477 13.2168 40.8027 13.0742 40.3379 12.7891C39.877 12.5 39.5469 12.1406 39.3477 11.7109C39.1484 11.2773 39.0488 10.5469 39.0488 9.51953V4.38086Z" fill="white"/>
</svg>
