<svg width="20" height="21" viewBox="0 0 20 21" fill="none" xmlns="http://www.w3.org/2000/svg">
<path d="M18.7586 8.53955C19.2067 10.2775 19.0279 12.1019 18.249 13.7387C17.4702 15.3755 16.1333 16.7364 14.4391 17.617C12.745 18.4976 10.7851 18.8504 8.85363 18.6225C6.92221 18.3945 5.12356 17.598 3.72778 16.3527" stroke="#2D2926" stroke-linecap="round"/>
<path d="M1.20278 12.2021C1.0677 11.6256 0.999732 11.0376 1.00002 10.4479C0.996461 8.82789 1.51319 7.24278 2.48571 5.89037C3.45824 4.53796 4.84351 3.47813 6.46867 2.84314C8.09382 2.20814 9.8869 2.0261 11.6242 2.31972C13.3614 2.61334 14.9659 3.36962 16.2375 4.4942" stroke="#2D2926" stroke-linecap="round"/>
<path d="M12.1938 4.85921L16.3599 4.57854L16.0348 1" stroke="#2D2926" stroke-linecap="round"/>
<path d="M7.6718 15.9175L3.50952 16.1982L3.8347 19.7767" stroke="#2D2926" stroke-linecap="round"/>
</svg>
