<svg width="19" height="10" viewBox="0 0 19 10" fill="none" xmlns="http://www.w3.org/2000/svg">
<path fill-rule="evenodd" clip-rule="evenodd" d="M0.505025 0.0675902C0.92805 -0.113701 1.41795 0.0822572 1.59925 0.505282L0.833292 0.833549C1.59925 0.505282 1.59937 0.505557 1.59925 0.505282L1.59882 0.504282C1.59858 0.50374 1.59876 0.504132 1.59882 0.504282L1.60208 0.511665C1.60543 0.519182 1.61116 0.531949 1.61933 0.549615C1.63565 0.584965 1.66164 0.639866 1.69747 0.711524C1.76918 0.854957 1.87995 1.06476 2.03114 1.31877C2.33448 1.82837 2.79533 2.50708 3.42313 3.18317C3.5711 3.34249 3.7277 3.50116 3.89311 3.65691C3.90003 3.66324 3.90686 3.66966 3.91361 3.67616C5.15085 4.83474 6.87689 5.83357 9.16667 5.83357C10.1741 5.83357 11.0652 5.64124 11.8507 5.33207C12.8724 4.92991 13.7287 4.32449 14.4297 3.66666C15.221 2.92387 15.8022 2.12525 16.186 1.50937C16.3772 1.20264 16.5172 0.944532 16.6082 0.766124C16.6537 0.677007 16.6868 0.608066 16.7076 0.563224C16.7181 0.540807 16.7255 0.524441 16.7298 0.514607L16.734 0.505282C16.9154 0.0824905 17.4053 -0.11366 17.8282 0.0675902C18.2512 0.24889 18.4472 0.738791 18.2659 1.16182L17.5 0.833549C18.2659 1.16182 18.266 1.16162 18.2659 1.16182L18.2641 1.166L18.2612 1.17285L18.2516 1.19439C18.2437 1.21216 18.2325 1.23669 18.2182 1.26747C18.1895 1.32902 18.1478 1.41567 18.0929 1.52332C17.9832 1.73846 17.82 2.03861 17.6005 2.39077C17.265 2.92924 16.7933 3.59707 16.1747 4.27049L16.8392 4.93499C17.1647 5.26041 17.1647 5.78807 16.8392 6.11349C16.5138 6.43891 15.9862 6.43891 15.6607 6.11349L14.9606 5.41332C14.4903 5.79316 13.9642 6.15132 13.3798 6.46041L14.0317 7.46241C14.2828 7.84816 14.1736 8.36432 13.7877 8.61541C13.402 8.86641 12.8858 8.75716 12.6348 8.37141L11.8136 7.10924C11.2477 7.28274 10.6433 7.40566 10 7.46324V8.75024C10 9.21049 9.62683 9.58357 9.16667 9.58357C8.70642 9.58357 8.33333 9.21049 8.33333 8.75024V7.46341C7.68775 7.40574 7.08345 7.28257 6.51945 7.10957L5.69845 8.37141C5.44744 8.75716 4.93123 8.86641 4.54548 8.61541C4.15971 8.36432 4.05047 7.84816 4.30148 7.46241L4.95348 6.46032C4.37004 6.15157 3.84371 5.79332 3.37288 5.41316L2.67255 6.11349C2.34712 6.43891 1.81948 6.43891 1.49404 6.11349C1.1686 5.78807 1.1686 5.26041 1.49404 4.93499L2.15858 4.27049C1.45441 3.50399 0.939767 2.74374 0.598992 2.17124C0.424667 1.87837 0.294542 1.63245 0.20675 1.45687C0.162825 1.36902 0.129409 1.2986 0.106267 1.2485C0.094692 1.22345 0.0856837 1.20346 0.0792087 1.18889L0.0713837 1.17116L0.068892 1.16542L0.0680003 1.16335L0.067642 1.16252C0.0674837 1.16215 0.0673421 1.16182 0.833292 0.833549L0.067642 1.16252C-0.113655 0.73949 0.0820004 0.24889 0.505025 0.0675902Z" fill="#2D2926"/>
</svg>
