<svg width="19" height="15" viewBox="0 0 19 15" fill="none" xmlns="http://www.w3.org/2000/svg">
<path fill-rule="evenodd" clip-rule="evenodd" d="M9.30164 4.18637C7.56773 4.18637 6.16211 5.59199 6.16211 7.32591C6.16211 9.05985 7.56773 10.4654 9.30164 10.4654C11.0356 10.4654 12.4412 9.05985 12.4412 7.32591C12.4412 5.59199 11.0356 4.18637 9.30164 4.18637ZM7.41792 7.32591C7.41792 6.28559 8.26133 5.44218 9.30164 5.44218C10.342 5.44218 11.1854 6.28559 11.1854 7.32591C11.1854 8.36622 10.342 9.20963 9.30164 9.20963C8.26133 9.20963 7.41792 8.36622 7.41792 7.32591Z" fill="#2D2926"/>
<path fill-rule="evenodd" clip-rule="evenodd" d="M9.30176 0C5.52249 0 2.97688 2.26398 1.49944 4.18342L1.4728 4.21803C1.13867 4.65198 0.830924 5.05165 0.622149 5.52424C0.398573 6.03034 0.301758 6.58189 0.301758 7.32558C0.301758 8.06927 0.398573 8.62083 0.622149 9.12692C0.830924 9.59953 1.13867 9.99921 1.4728 10.4331L1.49944 10.4677C2.97688 12.3872 5.52249 14.6512 9.30176 14.6512C13.081 14.6512 15.6266 12.3872 17.104 10.4677L17.1307 10.4331C17.4649 9.99921 17.7726 9.59953 17.9814 9.12692C18.205 8.62083 18.3018 8.06927 18.3018 7.32558C18.3018 6.58189 18.205 6.03034 17.9814 5.52424C17.7726 5.05165 17.4649 4.65197 17.1307 4.21801L17.104 4.18342C15.6266 2.26398 13.081 0 9.30176 0ZM2.49459 4.94941C3.85876 3.17714 6.0788 1.25581 9.30176 1.25581C12.5247 1.25581 14.7448 3.17714 16.1089 4.94941C16.4761 5.42645 16.6912 5.71153 16.8326 6.03167C16.9649 6.33098 17.0459 6.69675 17.0459 7.32558C17.0459 7.95441 16.9649 8.32019 16.8326 8.61949C16.6912 8.93964 16.4761 9.22471 16.1089 9.70175C14.7448 11.474 12.5247 13.3953 9.30176 13.3953C6.0788 13.3953 3.85876 11.474 2.49459 9.70175C2.12741 9.22471 1.91233 8.93964 1.77086 8.61949C1.63865 8.32019 1.55757 7.95441 1.55757 7.32558C1.55757 6.69675 1.63865 6.33098 1.77086 6.03167C1.91233 5.71153 2.1274 5.42645 2.49459 4.94941Z" fill="#2D2926"/>
</svg>
