<svg width="18" height="18" viewBox="0 0 18 18" fill="none" xmlns="http://www.w3.org/2000/svg">
<path d="M17.9016 7.64091V0.450746L15.5294 2.82462C13.6506 0.949873 11.471 0 8.98992 0C4.03414 0 0.00161269 4.03978 0 9.00121C0.000806343 13.9618 4.03414 17.9984 8.99073 18C12.4387 18 16.5454 16.2043 17.7283 11.1638L17.7508 11.0654H15.1464L15.1286 11.1203C14.2594 13.7344 11.792 15.4915 8.98992 15.4915C8.13727 15.4934 7.29269 15.3263 6.50503 14.9998C5.71737 14.6733 5.00225 14.1939 4.40102 13.5893C3.79665 12.9883 3.31748 12.2734 2.99125 11.486C2.66502 10.6986 2.49821 9.85433 2.50047 9.00202C2.50047 5.42346 5.41218 2.51176 8.99153 2.51176C10.6599 2.51176 11.925 2.97944 13.7683 4.58648L10.7107 7.64172H17.9016V7.64091Z" fill="white"/>
</svg>
