<svg width="105" height="22" viewBox="0 0 105 22" fill="none" xmlns="http://www.w3.org/2000/svg">
<g filter="url(#filter0_d_291_226)">
<path fill-rule="evenodd" clip-rule="evenodd" d="M98.054 6.637C98.379 6.887 98.761 7.13 99.2 7.366C99.64 7.602 100.116 7.855 100.631 8.127C101.209 8.434 101.759 8.734 102.281 9.026C102.802 9.319 103.261 9.642 103.657 9.996C104.054 10.35 104.37 10.753 104.605 11.207C104.841 11.66 104.959 12.205 104.959 12.84C104.959 13.383 104.846 13.899 104.621 14.388C104.396 14.878 104.082 15.306 103.679 15.674C103.275 16.042 102.793 16.335 102.232 16.553C101.672 16.77 101.056 16.879 100.384 16.879C100.134 16.879 99.92 16.876 99.741 16.869C99.563 16.861 99.391 16.845 99.227 16.82C99.063 16.795 98.893 16.756 98.718 16.703C98.543 16.649 98.334 16.576 98.092 16.483C97.92 16.419 97.745 16.36 97.567 16.306C97.388 16.253 97.224 16.208 97.074 16.172C96.924 16.137 96.797 16.108 96.694 16.087C96.59 16.065 96.524 16.054 96.495 16.054C96.317 16.054 96.176 16.108 96.072 16.215C95.969 16.322 95.892 16.544 95.842 16.879H95.445V11.898H95.842C95.935 12.419 96.044 12.874 96.169 13.264C96.293 13.653 96.435 13.98 96.592 14.244C96.749 14.501 96.952 14.74 97.202 14.962C97.452 15.183 97.733 15.374 98.043 15.535C98.354 15.696 98.69 15.821 99.05 15.91C99.411 15.999 99.781 16.044 100.159 16.044C100.609 16.044 101.013 15.979 101.37 15.851C101.727 15.722 102.03 15.549 102.281 15.331C102.53 15.113 102.721 14.86 102.854 14.571C102.986 14.281 103.052 13.98 103.052 13.665C103.052 13.201 102.955 12.81 102.763 12.492C102.57 12.174 102.311 11.891 101.986 11.641C101.661 11.391 101.282 11.151 100.85 10.923C100.418 10.694 99.963 10.437 99.484 10.151C98.941 9.83 98.418 9.525 97.915 9.235C97.411 8.946 96.967 8.628 96.581 8.282C96.195 7.936 95.886 7.541 95.654 7.098C95.422 6.655 95.306 6.127 95.306 5.512C95.306 4.998 95.413 4.509 95.628 4.045C95.842 3.581 96.138 3.173 96.517 2.823C96.895 2.474 97.343 2.197 97.861 1.993C98.379 1.79 98.945 1.688 99.559 1.688C100.316 1.688 101.134 1.877 102.013 2.256C102.398 2.434 102.68 2.523 102.859 2.523C103.045 2.523 103.197 2.468 103.314 2.357C103.432 2.247 103.527 2.024 103.598 1.688H103.995V6.712H103.598C103.47 5.748 103.238 4.98 102.902 4.409C102.738 4.123 102.532 3.866 102.286 3.638C102.039 3.409 101.772 3.214 101.482 3.054C101.193 2.893 100.886 2.768 100.561 2.679C100.236 2.59 99.909 2.545 99.581 2.545C99.217 2.545 98.877 2.607 98.563 2.732C98.249 2.857 97.975 3.023 97.743 3.231C97.511 3.438 97.331 3.675 97.202 3.943C97.074 4.211 97.01 4.488 97.01 4.773C97.01 5.173 97.102 5.522 97.288 5.818C97.474 6.114 97.729 6.387 98.054 6.637ZM91.803 2.973C91.646 3.195 91.567 3.716 91.567 4.538V16.783H91.182L81.604 5.084V14.03C81.604 14.922 81.7 15.48 81.893 15.701C82.157 16.001 82.575 16.151 83.146 16.151H83.661V16.547H78.604V16.151H79.108C79.729 16.151 80.168 15.965 80.425 15.594C80.582 15.372 80.661 14.851 80.661 14.03V3.927C80.447 3.677 80.268 3.477 80.125 3.327C79.982 3.177 79.847 3.054 79.718 2.957C79.59 2.861 79.45 2.782 79.3 2.722C79.15 2.661 78.965 2.591 78.743 2.513C78.536 2.448 78.222 2.416 77.801 2.416V2.02H81.743L90.624 12.915V4.538C90.624 3.645 90.524 3.088 90.324 2.866C90.053 2.566 89.635 2.416 89.071 2.416H88.567V2.02H93.624V2.416H93.11C92.496 2.416 92.06 2.602 91.803 2.973ZM65.137 16.547V16.151H65.652C65.787 16.151 65.93 16.137 66.08 16.108C66.23 16.08 66.371 16.033 66.503 15.969C66.635 15.904 66.755 15.824 66.862 15.728C66.969 15.631 67.044 15.519 67.087 15.39C67.173 15.169 67.216 14.701 67.216 13.987V4.548C67.216 3.634 67.123 3.066 66.937 2.845C66.68 2.559 66.252 2.416 65.652 2.416H65.137V2.02H76.333V5.202H76.076C75.997 4.816 75.918 4.498 75.84 4.248C75.761 3.998 75.672 3.791 75.572 3.627C75.472 3.463 75.358 3.332 75.229 3.236C75.101 3.139 74.947 3.052 74.769 2.973C74.476 2.866 73.972 2.813 73.258 2.813H69.273V8.555H72.465C72.929 8.555 73.306 8.514 73.596 8.432C73.885 8.35 74.111 8.221 74.276 8.046C74.44 7.871 74.554 7.652 74.619 7.387C74.683 7.123 74.726 6.809 74.747 6.445H75.144V11.501H74.747C74.697 11.144 74.647 10.853 74.597 10.628C74.547 10.403 74.497 10.241 74.447 10.141C74.383 10.012 74.301 9.9 74.201 9.803C74.101 9.707 73.972 9.623 73.815 9.551C73.658 9.48 73.469 9.427 73.247 9.391C73.026 9.355 72.765 9.337 72.465 9.337H69.273V14.126C69.273 14.762 69.301 15.154 69.358 15.304C69.387 15.369 69.423 15.43 69.466 15.487C69.508 15.544 69.571 15.592 69.653 15.631C69.735 15.671 69.842 15.701 69.974 15.722C70.106 15.744 70.273 15.754 70.473 15.754H72.937C73.358 15.754 73.71 15.742 73.992 15.717C74.274 15.692 74.52 15.649 74.731 15.588C74.942 15.528 75.128 15.442 75.288 15.331C75.449 15.221 75.619 15.079 75.797 14.908C76.018 14.694 76.243 14.419 76.472 14.083C76.701 13.748 76.929 13.355 77.158 12.905H77.586L76.333 16.547H65.137ZM61.789 14.485C61.107 15.131 60.257 15.637 59.24 16.001C58.222 16.365 57.045 16.547 55.71 16.547H49.217V16.151H49.764C50.371 16.151 50.806 15.954 51.071 15.562C51.228 15.333 51.306 14.805 51.306 13.976V4.591C51.306 3.677 51.206 3.109 51.006 2.888C50.728 2.573 50.314 2.416 49.764 2.416H49.217V2.02H55.131C57.302 2.02 58.952 2.266 60.081 2.759C61.216 3.252 62.127 4.073 62.813 5.223C63.505 6.366 63.852 7.694 63.852 9.209C63.852 10.28 63.678 11.266 63.332 12.165C62.986 13.065 62.471 13.839 61.789 14.485ZM60.975 6.616C60.686 5.816 60.282 5.136 59.765 4.575C59.247 4.014 58.629 3.584 57.911 3.284C57.193 2.984 56.409 2.834 55.56 2.834C55.238 2.834 54.895 2.861 54.531 2.914C54.167 2.968 53.778 3.045 53.363 3.145V15.497C54.256 15.697 55.017 15.797 55.645 15.797C56.467 15.797 57.229 15.646 57.933 15.342C58.636 15.038 59.245 14.606 59.759 14.046C60.273 13.485 60.677 12.805 60.97 12.005C61.263 11.205 61.409 10.309 61.409 9.316C61.409 8.316 61.264 7.416 60.975 6.616ZM40.24 9.755C40.054 9.762 39.888 9.768 39.741 9.771C39.595 9.775 39.464 9.776 39.35 9.776C39.257 9.776 39.157 9.775 39.05 9.771C38.943 9.768 38.832 9.762 38.718 9.755V13.976C38.718 14.89 38.818 15.458 39.018 15.679C39.29 15.994 39.697 16.151 40.24 16.151H40.807V16.547H34.583V16.151H35.129C35.736 16.151 36.175 15.951 36.447 15.551C36.597 15.33 36.672 14.805 36.672 13.976V4.591C36.672 3.677 36.572 3.109 36.372 2.888C36.093 2.573 35.679 2.416 35.129 2.416H34.583V2.02H39.875C41.404 2.02 42.539 2.134 43.282 2.363C43.646 2.47 43.987 2.631 44.305 2.845C44.623 3.059 44.901 3.313 45.141 3.605C45.38 3.898 45.569 4.227 45.709 4.591C45.848 4.955 45.918 5.345 45.918 5.759C45.918 6.209 45.846 6.628 45.703 7.018C45.56 7.407 45.341 7.762 45.044 8.084C44.748 8.405 44.375 8.684 43.925 8.919C43.475 9.155 42.946 9.341 42.339 9.476L45.339 13.644C46.032 14.608 46.621 15.244 47.107 15.551C47.607 15.865 48.249 16.065 49.035 16.151V16.547H45.157L40.24 9.755ZM42.457 8.18C42.807 7.895 43.07 7.557 43.245 7.168C43.42 6.778 43.507 6.355 43.507 5.898C43.507 5.448 43.432 5.036 43.282 4.661C43.132 4.286 42.92 3.963 42.645 3.691C42.37 3.42 42.041 3.209 41.659 3.059C41.277 2.909 40.857 2.834 40.4 2.834C40.193 2.834 39.95 2.85 39.672 2.882C39.393 2.914 39.075 2.966 38.718 3.038V9.08C38.854 9.08 38.972 9.082 39.072 9.085C39.172 9.089 39.254 9.091 39.318 9.091C40.011 9.091 40.62 9.01 41.145 8.85C41.67 8.689 42.107 8.466 42.457 8.18ZM28.23 16.151C28.515 16.137 28.755 16.104 28.948 16.054C29.14 16.005 29.292 15.94 29.403 15.862C29.514 15.783 29.592 15.694 29.639 15.594C29.685 15.494 29.708 15.383 29.708 15.262C29.715 15.105 29.681 14.903 29.607 14.656C29.532 14.41 29.423 14.115 29.28 13.772L28.401 11.683H22.777L21.791 13.976C21.548 14.533 21.427 14.955 21.427 15.24C21.427 15.355 21.446 15.46 21.486 15.556C21.525 15.653 21.605 15.742 21.727 15.824C21.848 15.906 22.02 15.974 22.241 16.028C22.462 16.081 22.752 16.122 23.109 16.151V16.547H18.534V16.151C19.134 16.044 19.527 15.904 19.713 15.733C19.898 15.562 20.089 15.303 20.286 14.956C20.482 14.61 20.695 14.173 20.923 13.644L26.034 1.688H26.409L31.465 13.772C31.672 14.272 31.863 14.674 32.038 14.978C32.213 15.281 32.394 15.517 32.579 15.685C32.765 15.853 32.967 15.969 33.185 16.033C33.403 16.097 33.662 16.137 33.961 16.151V16.547H28.23V16.151ZM25.637 5.02L23.109 10.891H28.101L25.637 5.02ZM17.163 9.107C16.992 9.16 16.85 9.262 16.74 9.412C16.629 9.562 16.549 9.776 16.499 10.055C16.449 10.333 16.424 10.698 16.424 11.148V15.594C15.995 15.822 15.581 16.017 15.181 16.178C14.781 16.338 14.376 16.471 13.965 16.574C13.554 16.677 13.133 16.754 12.701 16.804C12.269 16.854 11.81 16.879 11.324 16.879C8.517 16.879 6.385 15.979 4.928 14.18C3.836 12.83 3.289 11.273 3.289 9.509C3.289 9.016 3.339 8.521 3.439 8.025C3.539 7.528 3.682 7.044 3.868 6.573C4.053 6.102 4.282 5.65 4.553 5.218C4.825 4.786 5.128 4.388 5.464 4.023C6.178 3.223 6.994 2.634 7.912 2.256C8.83 1.877 9.853 1.688 10.981 1.688C11.317 1.688 11.61 1.7 11.86 1.725C12.11 1.75 12.353 1.79 12.588 1.843C12.824 1.897 13.072 1.968 13.333 2.057C13.594 2.147 13.902 2.256 14.26 2.384C14.652 2.534 14.92 2.609 15.063 2.609C15.199 2.609 15.315 2.547 15.411 2.422C15.508 2.297 15.567 2.052 15.588 1.688H15.984L16.359 6.273H15.984C15.613 5.137 15.124 4.277 14.517 3.691C13.645 2.856 12.535 2.438 11.185 2.438C9.335 2.438 7.928 3.17 6.964 4.634C6.157 5.87 5.753 7.341 5.753 9.048C5.753 10.434 6.021 11.698 6.557 12.84C6.792 13.348 7.074 13.805 7.403 14.212C7.732 14.619 8.099 14.965 8.507 15.251C8.914 15.537 9.355 15.758 9.83 15.915C10.305 16.072 10.806 16.151 11.335 16.151C11.871 16.151 12.386 16.083 12.883 15.947C13.379 15.812 13.863 15.612 14.335 15.347V11.148C14.335 10.776 14.32 10.478 14.292 10.253C14.263 10.028 14.222 9.848 14.169 9.712C14.115 9.577 14.044 9.473 13.954 9.401C13.865 9.33 13.763 9.266 13.649 9.209C13.42 9.087 13.013 9.026 12.428 9.026V8.619H18.052V9.026H17.784C17.541 9.026 17.334 9.053 17.163 9.107Z" fill="url(#paint0_linear_291_226)"/>
</g>
<defs>
<filter id="filter0_d_291_226" x="0.289001" y="0.688" width="107.67" height="21.191" filterUnits="userSpaceOnUse" color-interpolation-filters="sRGB">
<feFlood flood-opacity="0" result="BackgroundImageFix"/>
<feColorMatrix in="SourceAlpha" type="matrix" values="0 0 0 0 0 0 0 0 0 0 0 0 0 0 0 0 0 0 127 0" result="hardAlpha"/>
<feOffset dy="2"/>
<feGaussianBlur stdDeviation="1.5"/>
<feComposite in2="hardAlpha" operator="out"/>
<feColorMatrix type="matrix" values="0 0 0 0 0 0 0 0 0 0 0 0 0 0 0 0 0 0 1 0"/>
<feBlend mode="normal" in2="BackgroundImageFix" result="effect1_dropShadow_291_226"/>
<feBlend mode="normal" in="SourceGraphic" in2="effect1_dropShadow_291_226" result="shape"/>
</filter>
<linearGradient id="paint0_linear_291_226" x1="21" y1="34.5" x2="37.6205" y2="-30.5281" gradientUnits="userSpaceOnUse">
<stop stop-color="#B9B9B9"/>
<stop offset="0.44536" stop-color="white"/>
<stop offset="1" stop-color="#BBBBBB"/>
</linearGradient>
</defs>
</svg>
