<svg width="83" height="74" viewBox="0 0 83 74" fill="none" xmlns="http://www.w3.org/2000/svg">
<path fill-rule="evenodd" clip-rule="evenodd" d="M12.7913 21.681C11.4266 20.6995 23.8427 17.8137 35.5422 16.5873C46.3694 15.4523 56.256 15.6679 57.1553 17.6792C57.5523 18.5684 46.3514 25.5379 39.3337 32.5955C30.476 41.503 25.3036 50.5562 25.3036 51.5135C25.3036 52.0095 29.7262 50.1198 34.3342 47.9179C38.6253 45.8679 43.8841 43.5099 43.8841 43.5099C43.8841 43.5099 37.3452 42.456 39.3337 37.6892C41.8083 31.7537 50.5822 28.3608 54.8797 31.8675C55.5818 32.4411 56.6485 35.1975 52.226 37.3252C48.0069 39.3554 46.1588 38.7802 46.1588 38.7802C46.1588 38.7802 50.5093 37.4951 51.4671 35.1423C51.8515 34.1988 49.1393 34.0133 47.6756 34.4144C42.478 35.8392 40.5543 40.3464 44.1766 41.4581C49.9413 43.2279 64.9085 30.2798 68.5299 32.5955C71.5247 34.511 64.3189 44.0075 65.1173 44.9649C66.8429 47.0339 75.7348 42.782 75.7348 42.782C75.7348 42.782 67.7584 50.6511 62.4636 47.8757C59.2842 46.2094 65.9563 38.3783 64.3594 37.3252C62.144 35.8642 46.3316 44.6156 32.8876 51.8775C23.4718 56.9643 15.5197 60.7479 14.3081 60.2451C10.3203 58.5926 13.1774 53.5619 21.4203 43.5513C25.2127 38.9458 29.9665 34.2057 35.0939 30.0866C40.7569 25.5379 46.6242 21.7819 46.5378 20.59C46.4172 18.9168 35.4846 19.6111 26.0625 20.59C19.0529 21.3179 13.813 22.4167 12.7913 21.681Z" fill="url(#paint0_linear_291_221)"/>
<path fill-rule="evenodd" clip-rule="evenodd" d="M46.1181 15.0798L58.1808 15.8118L46.9282 16.4948L50.7118 20.6604L46.0199 16.6391L45.2665 27.6201L44.5094 16.5875L40.0858 20.3481L43.557 16.494L31.9722 15.8118L44.3572 15.0824L39.6033 9.86828L44.5733 14.1449L45.2665 4.37255L45.9578 14.1082L50.2284 10.4936L46.1181 15.0798Z" fill="white"/>
<defs>
<linearGradient id="paint0_linear_291_221" x1="-24.8269" y1="92.0182" x2="65.5209" y2="-13.0965" gradientUnits="userSpaceOnUse">
<stop offset="0.18" stop-color="#848383"/>
<stop offset="0.53" stop-color="white"/>
<stop offset="0.538815" stop-color="#F8F8F8"/>
<stop offset="0.635771" stop-color="#E5DEDE"/>
<stop offset="1" stop-color="white"/>
</linearGradient>
</defs>
</svg>
