<svg width="100" height="100" viewBox="0 0 100 100" fill="none" xmlns="http://www.w3.org/2000/svg">
<g clip-path="url(#clip0_321_788)">
<path fill-rule="evenodd" clip-rule="evenodd" d="M50 0C77.6143 0 100 22.3857 100 50C100 77.6143 77.6143 100 50 100C22.3857 100 0 77.6143 0 50C0 22.3857 22.3857 0 50 0Z" fill="white"/>
<path fill-rule="evenodd" clip-rule="evenodd" d="M21.2959 34.3915C20.5109 33.8311 25.4306 30.7971 37.4335 29.6296C61.2426 27.3138 67.8683 27.6836 67.1954 29.3651C66.8663 30.1874 54.3701 40.1507 46.5605 48.9418C38.401 58.1267 34.9203 66.1376 34.9203 66.1376L53.1742 58.2011C52.8922 58.3534 49.1256 56.7192 48.6769 54.3651C48.2282 52.011 49.0748 49.8103 53.042 46.8254C55.7904 44.7575 60.1766 42.9769 62.4335 43.6508C71.4425 46.3411 61.3388 52.1605 62.698 51.455C59.6019 53.0619 55.6875 53.1746 55.6875 53.1746C55.6875 53.1746 62.445 50.1143 61.7721 48.545C61.0992 46.9757 56.927 48.0128 55.1584 49.0741C52.4883 50.6761 51.5869 52.9101 51.5869 52.9101C51.5869 52.9101 52.6491 57.503 57.2748 55.8201C63.1861 53.6694 74.7795 45.4216 79.8938 45.8995C82.9902 46.1889 73.2223 58.9634 76.5869 59.5238C79.9516 60.0843 87.0367 57.4074 87.0367 57.4074C87.0367 57.4074 82.924 61.2672 79.2324 62.5661C75.7898 63.7774 74.4334 64.0032 72.751 62.4339C71.0686 60.8646 77.6482 51.4864 76.1901 50.9259C74.732 50.3655 64.4293 55.6099 50.5287 62.5661C37.792 68.94 22.8725 77.7198 21.6928 76.0582C19.2253 72.5832 24.9828 64.2803 34.3912 52.6455C42.1511 43.0492 56.1245 34.9946 56.3488 33.2011C56.4408 32.4659 49.4233 31.9394 42.46 32.2751C32.4355 32.7585 22.081 34.952 21.2959 34.3915Z" fill="url(#paint0_linear_321_788)"/>
</g>
<defs>
<linearGradient id="paint0_linear_321_788" x1="21.1211" y1="4854.54" x2="21.1211" y2="27.9981" gradientUnits="userSpaceOnUse">
<stop/>
<stop offset="0.73" stop-color="#D5D5D5"/>
<stop offset="1" stop-color="#A9A9A9"/>
</linearGradient>
<clipPath id="clip0_321_788">
<rect width="100" height="100" fill="white"/>
</clipPath>
</defs>
</svg>
