<svg width="30" height="42" viewBox="0 0 30 42" fill="none" xmlns="http://www.w3.org/2000/svg">
<g clip-path="url(#clip0_362_12434)">
<g filter="url(#filter0_d_362_12434)">
<path d="M19.3462 21.144C19.3182 21.5595 19.5261 21.8365 19.8778 22.0161C20.2763 22.2201 20.7139 22.3015 21.1504 22.3687C21.9507 22.4912 22.7551 22.5864 23.5545 22.7126C24.6122 22.8805 25.6649 23.0763 26.6442 23.5363C27.8821 24.1158 28.7428 25.0367 29.1015 26.3733C29.4434 27.6439 29.1787 28.8264 28.51 29.9322C28.3734 30.158 28.196 30.3592 28.0385 30.5727C27.9825 30.6466 27.9324 30.7227 27.8793 30.7966C27.7293 30.7789 27.6952 30.9261 27.6062 30.9924C27.4663 31.0979 27.356 31.2426 27.21 31.3335C26.9302 31.5084 26.6383 31.667 26.3426 31.8142C26.0994 31.9354 25.8501 32.0537 25.5907 32.1318C25.1936 32.2556 24.7894 32.3551 24.3803 32.4298C23.8509 32.5216 23.317 32.6122 22.7803 32.6321C21.7612 32.6699 20.7396 32.6945 19.7214 32.5913C19.4161 32.5602 19.1098 32.5353 18.8064 32.4891C18.4903 32.441 18.1738 32.3839 17.8638 32.3056C17.5161 32.2205 17.1732 32.117 16.8366 31.9955C16.3774 31.8225 15.9495 31.5757 15.5699 31.2647C15.2173 30.9815 14.8844 30.6751 14.6359 30.3069C14.3659 29.907 14.1711 29.4563 13.9436 29.0279C13.9 28.886 13.8544 28.745 13.8138 28.6023C13.7732 28.4596 13.7391 28.3191 13.7002 28.1694C14.3398 28.107 14.9563 28.0466 15.573 27.9867C16.1147 27.9341 16.6564 27.8809 17.1984 27.8306C17.8467 27.7701 18.4959 27.7153 19.1436 27.6504C19.2343 27.6411 19.2639 27.6644 19.2933 27.7436C19.4259 28.1031 19.5966 28.4431 19.8445 28.7397C20.1658 29.1247 20.5863 29.3455 21.0681 29.4392C21.7833 29.5769 22.4952 29.5648 23.181 29.285C23.2708 29.2484 23.3466 29.177 23.4292 29.1216C23.5 29.0824 23.5724 29.0463 23.641 29.0038C24.0047 28.7766 24.2006 28.2033 24.0652 27.7973C23.9298 27.3913 23.6242 27.1758 23.2473 27.0566C22.8704 26.9374 22.4885 26.8468 22.1048 26.7642C21.5427 26.6436 20.9766 26.5418 20.4126 26.4307C19.9304 26.3358 19.4444 26.2566 18.9679 26.1397C18.3853 25.9964 17.8106 25.821 17.2331 25.659C16.7507 25.5235 16.3217 25.2765 15.9364 24.9684C15.588 24.6866 15.2833 24.3545 15.0324 23.9832C14.5869 23.3324 14.3552 22.6194 14.3203 21.832C14.2915 21.2398 14.4009 20.6491 14.6398 20.1064C14.8516 19.6249 15.1348 19.1747 15.3886 18.7119C15.5285 18.4572 15.6707 18.2038 15.8153 17.9516C15.9627 17.6959 16.1231 17.448 16.263 17.1883C16.4899 16.7756 16.7087 16.3584 16.927 15.9412C17.0599 15.6871 17.1847 15.4286 17.3151 15.1731C17.5823 14.6493 17.8562 14.1286 18.1176 13.6017C18.4007 13.0303 18.6749 12.4545 18.9494 11.8783C19.1758 11.4027 19.3971 10.927 19.6196 10.4482C19.7981 10.063 19.9753 9.6768 20.1512 9.28954C20.3236 8.9104 20.4987 8.53238 20.6652 8.15072C20.8846 7.64706 21.0991 7.14182 21.3088 6.63499C21.3826 6.45731 21.5144 6.29922 21.4982 6.08908C21.75 5.49029 22.0072 4.89401 22.2509 4.29186C22.8105 2.90625 23.3654 1.51755 23.9219 0.129974C23.9406 0.0882247 23.9537 0.0441944 23.9608 -0.000976562L18.1925 17.2515C18.2692 17.2515 18.3081 17.2554 18.3459 17.2515C19.5684 17.111 20.7994 17.0577 22.0296 17.0923C23.1393 17.1242 24.2401 17.2322 25.3129 17.5428C26.0157 17.7465 26.6839 18.0269 27.2301 18.5308C27.6778 18.9427 28.0136 19.4416 28.2878 19.9791C28.4506 20.297 28.5897 20.6272 28.7526 20.98C28.5567 21.0007 28.3908 21.0147 28.2274 21.036C28.0497 21.0589 27.8728 21.0891 27.6957 21.116C27.6707 21.1053 27.6442 21.0988 27.6171 21.0967C27.2712 21.1308 26.9257 21.1675 26.5798 21.2036C26.152 21.2481 25.7247 21.2959 25.2966 21.3354C24.7966 21.3815 24.2963 21.4249 23.7954 21.4601C23.4468 21.4845 23.4502 21.4758 23.3072 21.1605C23.1936 20.91 23.0492 20.673 22.827 20.5068C22.3846 20.1758 21.8712 20.0312 21.3267 20.0032C20.9126 19.9836 20.5015 20.0256 20.1062 20.1663C19.6932 20.3154 19.3574 20.6946 19.3462 21.144Z" fill="#97EEFF"/>
<path d="M12.4359 9.9356C12.5241 9.67202 12.6209 9.41124 12.6953 9.14402C12.7261 9.03462 12.7711 9.00971 12.8763 9.00971C14.6112 9.01289 16.346 9.01363 18.0808 9.01195H18.3886C18.3326 9.15997 18.2867 9.29176 18.2339 9.42159C17.8324 10.405 17.4301 11.3881 17.0268 12.3708C16.6218 13.3594 16.2167 14.3472 15.8115 15.334C15.3931 16.3564 14.9756 17.3792 14.5588 18.4024C14.1651 19.3638 13.7702 20.3245 13.3741 21.2844C12.9083 22.4145 12.4446 23.5443 11.9829 24.674C11.5022 25.8511 11.0225 27.0288 10.5439 28.2072C10.2755 28.8645 10.001 29.5192 9.7324 30.1762C9.3347 31.1462 8.93802 32.1162 8.54237 33.0862C8.35434 33.5465 8.18701 34.016 7.9752 34.4648C7.74967 34.9422 7.59578 35.4459 7.38508 35.928C7.1713 36.4171 6.97432 36.9135 6.77174 37.4073C6.39138 38.3346 6.01187 39.2622 5.63319 40.19C5.55242 40.3874 5.47118 40.5844 5.38948 40.781C5.40906 40.6691 5.41746 40.5552 5.44991 40.4477C5.59514 39.9645 5.74791 39.4838 5.89761 39.0014C6.02334 38.594 6.14785 38.1863 6.27116 37.7783C6.38112 37.418 6.49193 37.0581 6.59993 36.6972C6.7958 36.043 6.98607 35.3871 7.18446 34.7337C7.34926 34.192 7.52666 33.654 7.69063 33.1108C7.91896 32.3554 8.13525 31.5948 8.36469 30.8388C8.57791 30.137 8.80427 29.4397 9.01917 28.7383C9.23406 28.0368 9.43748 27.3417 9.64902 26.6444C9.88238 25.8752 10.1194 25.1074 10.3539 24.3388C10.3818 24.244 10.4065 24.1477 10.4361 24.0397C10.3723 24.0341 10.3315 24.0271 10.2906 24.0271C9.30709 24.0271 8.32328 24.0271 7.33975 24.0293C7.24797 24.0293 7.19621 24.0095 7.16067 23.9174C6.98803 23.4762 6.81035 23.0371 6.63127 22.5981C6.23534 21.6269 5.83605 20.6571 5.44124 19.6856C5.18941 19.0627 4.94318 18.4365 4.69079 17.8134C4.36173 17.0019 4.02764 16.1905 3.69859 15.379C3.42493 14.7033 3.15659 14.0253 2.88322 13.3496C2.54745 12.5193 2.21 11.6897 1.87087 10.8609C1.743 10.5481 1.60981 10.2375 1.47913 9.92609C1.38586 9.68359 1.29259 9.44109 1.19932 9.19859C1.17862 9.14262 1.16239 9.08666 1.13721 9.00916H6.74347C6.95809 9.00916 6.95697 9.00915 7.01965 9.21761C7.32744 10.2392 7.63523 11.2602 7.94302 12.2821C8.29073 13.4519 8.63704 14.6217 8.98195 15.7915C9.10208 16.1964 9.22334 16.601 9.34571 17.0053C9.35728 17.0351 9.37113 17.064 9.38712 17.0917L9.77102 18.4502L9.81746 18.4424C9.84824 18.352 9.88154 18.2625 9.90952 18.1715C10.0461 17.7238 10.1781 17.2733 10.3178 16.8259C10.442 16.4277 10.578 16.0329 10.7017 15.6348C10.8802 15.0595 11.052 14.4822 11.2274 13.9061C11.4063 13.3191 11.5858 12.7323 11.7658 12.1458C11.9099 11.6757 12.0565 11.2068 12.1995 10.7364C12.2812 10.4703 12.3576 10.2025 12.4359 9.9356Z" fill="#FF1A43"/>
<path d="M1.47684 9.92749C1.60779 10.2389 1.74098 10.5495 1.86857 10.8623C2.20844 11.6915 2.54627 12.521 2.88204 13.351C3.15541 14.0267 3.42375 14.7047 3.69741 15.3804C4.02646 16.1919 4.36055 17.0033 4.68961 17.8148C4.94144 18.4379 5.18711 19.0641 5.44006 19.687C5.83487 20.6585 6.23416 21.6283 6.63009 22.5995C6.80917 23.0385 6.98685 23.4776 7.15949 23.9188C7.19503 24.01 7.24679 24.0307 7.33857 24.0307C8.3221 24.0271 9.30591 24.0282 10.2894 24.0285C10.3303 24.0285 10.3711 24.0355 10.4349 24.0411C10.4053 24.1491 10.3818 24.2454 10.3527 24.3402C10.1182 25.1088 9.8812 25.8766 9.64784 26.6458C9.4363 27.3431 9.23148 28.0427 9.01799 28.7397C8.80449 29.4367 8.57673 30.1387 8.36351 30.8402C8.13407 31.5957 7.91778 32.3559 7.68945 33.1122C7.52548 33.6545 7.34808 34.1926 7.18327 34.7351C6.98489 35.3885 6.79434 36.0444 6.59875 36.6986C6.49075 37.0595 6.37994 37.4194 6.26998 37.7797C6.14574 38.1873 6.02122 38.595 5.89643 39.0028C5.74785 39.4852 5.59507 39.9659 5.44873 40.4491C5.41656 40.5566 5.40788 40.671 5.3883 40.7824C5.38214 40.7955 5.3757 40.8104 5.36955 40.8224L5.3508 40.8719L5.09254 41.5787L5.05113 41.5647C6.47293 36.0301 7.89576 30.4915 9.31962 24.9491H8.6741C7.85818 24.9491 7.04225 24.946 6.22661 24.9522C6.113 24.9522 6.0646 24.9155 6.02402 24.815C5.29335 23.0041 4.5608 21.194 3.8264 19.3848C2.97093 17.2748 2.11517 15.165 1.25914 13.0552C0.853233 12.054 0.446576 11.0533 0.0391734 10.0528C0.027981 10.0198 0.0181876 9.98457 0 9.92749H1.47684Z" fill="#050405"/>
<path d="M21.4978 6.08911C21.5141 6.29841 21.3823 6.45734 21.3084 6.63502C21.0978 7.14204 20.8833 7.64728 20.6649 8.15075C20.497 8.53241 20.3232 8.91043 20.1508 9.28958C19.9751 9.67627 19.7979 10.0625 19.6192 10.4483C19.3976 10.9259 19.1754 11.403 18.9491 11.8784C18.6746 12.4542 18.4004 13.0304 18.1172 13.6017C17.8558 14.1286 17.5819 14.6493 17.3147 15.1731C17.1843 15.4286 17.0595 15.6871 16.9266 15.9412C16.7083 16.3584 16.4895 16.7756 16.2626 17.1883C16.1207 17.4469 15.9613 17.6959 15.8149 17.9516C15.6686 18.2074 15.5281 18.4573 15.3882 18.7119C15.1344 19.1747 14.8513 19.6249 14.6394 20.1065C14.4006 20.6491 14.2912 21.2399 14.3199 21.832C14.3549 22.6194 14.5865 23.3324 15.032 23.9832C15.2829 24.3546 15.5876 24.6866 15.9361 24.9684C16.3214 25.2762 16.7503 25.5236 17.2327 25.659C17.8108 25.821 18.3855 25.9965 18.9675 26.1397C19.4432 26.2567 19.9301 26.3356 20.4122 26.4307C20.9763 26.5426 21.5423 26.6437 22.1045 26.7643C22.4889 26.8482 22.8734 26.9369 23.2478 27.0561C23.6222 27.1753 23.9294 27.3966 24.0643 27.7993C24.1991 28.2019 24.0044 28.7786 23.6401 29.0058C23.5715 29.0483 23.5002 29.0844 23.4283 29.1236C23.4098 28.536 23.1028 28.1443 22.4576 27.9764C21.7446 27.7923 21.0227 27.6406 20.3 27.4976C19.0442 27.2511 17.7817 27.0373 16.5642 26.6257C15.3594 26.2181 14.4847 25.4245 13.9735 24.2647C13.4645 23.1099 13.5076 21.9423 14.0641 20.8141C14.3493 20.2366 14.7139 19.6993 15.0259 19.1352C15.8449 17.6522 16.6767 16.176 17.4633 14.6759C18.7132 12.2917 19.8386 9.8464 20.9329 7.38687C21.1232 6.95596 21.309 6.52198 21.4978 6.08911Z" fill="#050405"/>
<path d="M13.9425 29.0306C14.17 29.459 14.3647 29.9098 14.6348 30.3096C14.8832 30.6779 15.2162 30.9843 15.5688 31.2674C15.9484 31.5784 16.3762 31.8253 16.8355 31.9983C17.1721 32.1198 17.515 32.2233 17.8626 32.3083C18.1727 32.3867 18.4891 32.4438 18.8053 32.4919C19.1086 32.5383 19.415 32.563 19.7203 32.594C20.7385 32.6973 21.7601 32.6726 22.7792 32.6349C23.3145 32.615 23.8497 32.5243 24.3791 32.4326C24.7883 32.3579 25.1925 32.2584 25.5896 32.1346C25.849 32.0565 26.0983 31.9387 26.3414 31.817C26.6372 31.6698 26.929 31.5111 27.2089 31.3363C27.3549 31.2453 27.4663 31.1007 27.6051 30.9952C27.694 30.9275 27.7282 30.7803 27.8782 30.7993C27.5345 31.4188 27.048 31.9065 26.4696 32.3044C25.5857 32.9127 24.5996 33.2577 23.5459 33.434C22.294 33.6433 21.0349 33.6579 19.7721 33.605C18.8784 33.5678 17.9919 33.4718 17.1212 33.2605C16.2926 33.0596 15.5156 32.7501 14.8469 32.2C13.9697 31.479 13.4039 30.5626 13.1008 29.4755C13.0698 29.3636 13.0418 29.2517 13.0088 29.1263L13.9425 29.0306Z" fill="#050405"/>
<path d="M19.3462 21.1439C19.3574 20.6945 19.6932 20.3154 20.1064 20.1682C20.5018 20.0283 20.9128 19.9855 21.327 20.0051C21.8715 20.0308 22.3849 20.1763 22.8273 20.5088C23.0495 20.675 23.1939 20.912 23.3075 21.1624C23.4504 21.4777 23.4474 21.4864 23.7957 21.4621C24.2966 21.4268 24.7969 21.3834 25.2969 21.3373C25.725 21.2978 26.1523 21.25 26.5801 21.2055C26.926 21.1694 27.2715 21.1327 27.6174 21.0986C27.6442 21.1004 27.6705 21.1066 27.6954 21.1168L28.0617 21.945L22.7792 22.4621C22.6611 22.2299 22.5704 22.0041 22.4395 21.8048C22.1395 21.3485 21.6717 21.1414 21.1605 21.0351C20.5494 20.908 19.9402 20.9287 19.3462 21.1439Z" fill="#050405"/>
<path d="M12.4359 9.93564C12.3576 10.2026 12.2812 10.4704 12.2001 10.7365C12.0571 11.2068 11.9105 11.6758 11.7664 12.1459C11.5862 12.7323 11.4067 13.3191 11.228 13.9061C11.0526 14.4823 10.8808 15.0595 10.7022 15.6348C10.5786 16.033 10.4426 16.4278 10.3183 16.8259C10.1784 17.2736 10.0466 17.723 9.9101 18.1716C9.88212 18.2625 9.84882 18.352 9.81804 18.4424L9.77159 18.4502L9.3877 17.0918C9.54187 16.6066 9.69968 16.1228 9.84994 15.6368C10.4222 13.7833 10.9926 11.9291 11.561 10.0741C11.5929 9.96921 11.6351 9.92444 11.7518 9.93032C11.9796 9.94151 12.2079 9.9348 12.4359 9.93564Z" fill="#050405"/>
</g>
</g>
<defs>
<filter id="filter0_d_362_12434" x="-2" y="-0.000976562" width="33.251" height="45.5797" filterUnits="userSpaceOnUse" color-interpolation-filters="sRGB">
<feFlood flood-opacity="0" result="BackgroundImageFix"/>
<feColorMatrix in="SourceAlpha" type="matrix" values="0 0 0 0 0 0 0 0 0 0 0 0 0 0 0 0 0 0 127 0" result="hardAlpha"/>
<feOffset dy="2"/>
<feGaussianBlur stdDeviation="1"/>
<feComposite in2="hardAlpha" operator="out"/>
<feColorMatrix type="matrix" values="0 0 0 0 0.972549 0 0 0 0 0.815686 0 0 0 0 0.372549 0 0 0 1 0"/>
<feBlend mode="normal" in2="BackgroundImageFix" result="effect1_dropShadow_362_12434"/>
<feBlend mode="normal" in="SourceGraphic" in2="effect1_dropShadow_362_12434" result="shape"/>
</filter>
<clipPath id="clip0_362_12434">
<rect width="29.2496" height="41.58" fill="white" transform="translate(0 -0.000976562)"/>
</clipPath>
</defs>
</svg>
