<svg width="25" height="26" viewBox="0 0 25 26" fill="none" xmlns="http://www.w3.org/2000/svg">
<path d="M18.2093 5.20204C18.3904 4.92413 18.5151 4.60781 18.5756 4.26248C18.7551 3.23889 18.3524 2.11646 17.4705 1.183L17.4338 1.14629C16.6513 0.407156 15.7278 5.00191e-05 14.8334 5.00191e-05C13.84 5.00191e-05 12.9837 0.521499 12.5416 1.39528C12.5295 1.41884 12.5154 1.44645 12.5 1.47721C12.4847 1.44655 12.4707 1.41894 12.4586 1.39548C12.0165 0.521599 11.1601 0 10.1665 0C9.27219 0 8.34879 0.407056 7.56634 1.14624L7.52958 1.18295C6.64769 2.11641 6.24489 3.23894 6.4244 4.26253C6.48503 4.60781 6.60962 4.92413 6.79074 5.20204H0V11.9093H0.609733V25.6098H24.3903V11.9094H25V5.20204H18.2093ZM13.4156 4.67749C13.4443 4.13023 13.6618 3.21378 14.1691 2.23055L14.1732 2.22255C14.3063 1.958 14.5224 1.8293 14.8334 1.8293C15.2465 1.8293 15.7283 2.05819 16.1585 2.45819C16.7016 3.04221 16.8329 3.60873 16.7738 3.94641C16.7342 4.17219 16.6099 4.33481 16.3941 4.4435L16.3861 4.4476C15.6583 4.82314 14.5946 5.20199 13.8587 5.20199H13.8586C13.638 5.20199 13.5169 5.16597 13.4676 5.14191C13.4382 5.08854 13.4197 4.99846 13.4141 4.87841C13.4164 4.81189 13.4169 4.74486 13.4156 4.67749ZM8.84153 2.45819C9.27184 2.05819 9.75353 1.8293 10.1665 1.8293C10.4777 1.8293 10.6937 1.95795 10.8269 2.22255L10.8309 2.23055C11.3383 3.21398 11.5558 4.13063 11.5843 4.67789C11.5831 4.74506 11.5835 4.81184 11.5858 4.87826C11.5802 4.99846 11.5619 5.08864 11.5323 5.14196C11.483 5.16607 11.362 5.20209 11.1415 5.20209C10.4055 5.20204 9.34162 4.82319 8.61389 4.44765L8.60584 4.44355C8.39005 4.33491 8.26586 4.17224 8.22624 3.94656C8.16702 3.60883 8.29842 3.04221 8.84153 2.45819ZM9.14634 23.7805H2.43903V11.9094H9.14634V23.7805ZM9.14634 10.0801H1.8293V7.03129H9.14639V10.0801H9.14634ZM14.0244 23.7805H10.9756V11.9094H14.0244V23.7805ZM14.0244 10.0801H10.9756V7.03129H13.8586H13.8588H14.0245L14.0244 10.0801ZM22.561 23.7805H15.8537V11.9094H22.561V23.7805ZM23.1708 10.0802H15.8537V7.03139H23.1708V10.0802H23.1708Z" fill="white"/>
</svg>
