<svg width="25" height="22" viewBox="0 0 25 22" fill="none" xmlns="http://www.w3.org/2000/svg">
<path d="M23.1863 21.8371H1.48072C1.17646 21.8371 0.884658 21.7162 0.669511 21.5011C0.454364 21.286 0.333496 20.9942 0.333496 20.6899C0.333496 20.3856 0.454364 20.0938 0.669511 19.8787C0.884658 19.6635 1.17646 19.5427 1.48072 19.5427H23.1863C23.4905 19.5427 23.7823 19.6635 23.9975 19.8787C24.2126 20.0938 24.3335 20.3856 24.3335 20.6899C24.3335 20.9942 24.2126 21.286 23.9975 21.5011C23.7823 21.7162 23.4905 21.8371 23.1863 21.8371Z" fill="#83ECFF"/>
<path d="M21.0294 21.8371C20.7252 21.8371 20.4334 21.7163 20.2182 21.5011C20.0031 21.286 19.8822 20.9942 19.8822 20.6899V18.579H4.78469V20.6899C4.78469 20.9942 4.66382 21.286 4.44867 21.5011C4.23353 21.7163 3.94173 21.8371 3.63746 21.8371C3.3332 21.8371 3.0414 21.7163 2.82625 21.5011C2.6111 21.286 2.49023 20.9942 2.49023 20.6899V17.4318C2.49023 17.1275 2.6111 16.8357 2.82625 16.6206C3.0414 16.4054 3.3332 16.2845 3.63746 16.2845H21.0294C21.3337 16.2845 21.6255 16.4054 21.8406 16.6206C22.0558 16.8357 22.1767 17.1275 22.1767 17.4318V20.6899C22.1767 20.9942 22.0558 21.286 21.8406 21.5011C21.6255 21.7163 21.3337 21.8371 21.0294 21.8371Z" fill="#83ECFF"/>
<path d="M6.90699 15.3323C6.60273 15.3323 6.31093 15.2115 6.09578 14.9963C5.88063 14.7812 5.75977 14.4894 5.75977 14.1851V7.66886C5.75977 7.3646 5.88063 7.0728 6.09578 6.85765C6.31093 6.64251 6.60273 6.52164 6.90699 6.52164C7.21126 6.52164 7.50306 6.64251 7.71821 6.85765C7.93335 7.0728 8.05422 7.3646 8.05422 7.66886V14.1851C8.05422 14.4894 7.93335 14.7812 7.71821 14.9963C7.50306 15.2115 7.21126 15.3323 6.90699 15.3323Z" fill="#83ECFF"/>
<path d="M12.3335 15.3323C12.0292 15.3323 11.7374 15.2115 11.5223 14.9963C11.3071 14.7812 11.1863 14.4894 11.1863 14.1851V5.50061C11.1863 5.19634 11.3071 4.90454 11.5223 4.68939C11.7374 4.47425 12.0292 4.35338 12.3335 4.35338C12.6378 4.35338 12.9296 4.47425 13.1447 4.68939C13.3599 4.90454 13.4807 5.19634 13.4807 5.50061V14.1851C13.4807 14.4894 13.3599 14.7812 13.1447 14.9963C12.9296 15.2115 12.6378 15.3323 12.3335 15.3323Z" fill="#83ECFF"/>
<path d="M17.7598 15.3323C17.4555 15.3323 17.1637 15.2115 16.9486 14.9963C16.7334 14.7812 16.6125 14.4894 16.6125 14.1851V7.66886C16.6125 7.3646 16.7334 7.0728 16.9486 6.85765C17.1637 6.64251 17.4555 6.52164 17.7598 6.52164C18.064 6.52164 18.3558 6.64251 18.571 6.85765C18.7861 7.0728 18.907 7.3646 18.907 7.66886V14.1851C18.907 14.4894 18.7861 14.7812 18.571 14.9963C18.3558 15.2115 18.064 15.3323 17.7598 15.3323Z" fill="#83ECFF"/>
<path d="M2.00844 7.73769C1.79342 7.73812 1.58262 7.67812 1.40006 7.56453C1.2175 7.45094 1.07054 7.28833 0.97593 7.09525C0.840682 6.82291 0.819086 6.50801 0.915888 6.21976C1.01269 5.9315 1.21997 5.69347 1.49218 5.55796L12.3335 0.131575C12.498 0.0451532 12.6811 0 12.8669 0C13.0528 0 13.2359 0.0451532 13.4004 0.131575L23.1633 5.54649C23.4295 5.69862 23.6244 5.95028 23.7051 6.24611C23.7858 6.54194 23.7457 6.8577 23.5935 7.12393C23.4414 7.39016 23.1897 7.58505 22.8939 7.66573C22.5981 7.74641 22.2823 7.70627 22.0161 7.55414L12.8383 2.42603L2.51322 7.57708C2.35979 7.66926 2.18692 7.72427 2.00844 7.73769Z" fill="#83ECFF"/>
</svg>
