<svg width="25" height="22" viewBox="0 0 25 22" fill="none" xmlns="http://www.w3.org/2000/svg">
<path d="M23.1861 21.8371H1.4806C1.17634 21.8371 0.884536 21.7162 0.669389 21.5011C0.454242 21.286 0.333374 20.9942 0.333374 20.6899C0.333374 20.3856 0.454242 20.0938 0.669389 19.8787C0.884536 19.6635 1.17634 19.5427 1.4806 19.5427H23.1861C23.4904 19.5427 23.7822 19.6635 23.9974 19.8787C24.2125 20.0938 24.3334 20.3856 24.3334 20.6899C24.3334 20.9942 24.2125 21.286 23.9974 21.5011C23.7822 21.7162 23.4904 21.8371 23.1861 21.8371Z" fill="white"/>
<path d="M21.0294 21.8371C20.7251 21.8371 20.4333 21.7163 20.2181 21.5011C20.003 21.286 19.8821 20.9942 19.8821 20.6899V18.579H4.78462V20.6899C4.78462 20.9942 4.66375 21.286 4.4486 21.5011C4.23345 21.7163 3.94165 21.8371 3.63739 21.8371C3.33313 21.8371 3.04132 21.7163 2.82618 21.5011C2.61103 21.286 2.49016 20.9942 2.49016 20.6899V17.4318C2.49016 17.1275 2.61103 16.8357 2.82618 16.6206C3.04132 16.4054 3.33313 16.2845 3.63739 16.2845H21.0294C21.3336 16.2845 21.6254 16.4054 21.8406 16.6206C22.0557 16.8357 22.1766 17.1275 22.1766 17.4318V20.6899C22.1766 20.9942 22.0557 21.286 21.8406 21.5011C21.6254 21.7163 21.3336 21.8371 21.0294 21.8371Z" fill="white"/>
<path d="M6.90699 15.3323C6.60272 15.3323 6.31092 15.2115 6.09578 14.9963C5.88063 14.7812 5.75976 14.4894 5.75976 14.1851V7.66886C5.75976 7.3646 5.88063 7.0728 6.09578 6.85765C6.31092 6.64251 6.60272 6.52164 6.90699 6.52164C7.21125 6.52164 7.50305 6.64251 7.7182 6.85765C7.93335 7.0728 8.05422 7.3646 8.05422 7.66886V14.1851C8.05422 14.4894 7.93335 14.7812 7.7182 14.9963C7.50305 15.2115 7.21125 15.3323 6.90699 15.3323Z" fill="white"/>
<path d="M12.3334 15.3323C12.0291 15.3323 11.7373 15.2115 11.5222 14.9963C11.307 14.7812 11.1861 14.4894 11.1861 14.1851V5.50061C11.1861 5.19634 11.307 4.90454 11.5222 4.68939C11.7373 4.47425 12.0291 4.35338 12.3334 4.35338C12.6376 4.35338 12.9294 4.47425 13.1446 4.68939C13.3597 4.90454 13.4806 5.19634 13.4806 5.50061V14.1851C13.4806 14.4894 13.3597 14.7812 13.1446 14.9963C12.9294 15.2115 12.6376 15.3323 12.3334 15.3323Z" fill="white"/>
<path d="M17.7598 15.3323C17.4555 15.3323 17.1637 15.2115 16.9486 14.9963C16.7334 14.7812 16.6125 14.4894 16.6125 14.1851V7.66886C16.6125 7.3646 16.7334 7.0728 16.9486 6.85765C17.1637 6.64251 17.4555 6.52164 17.7598 6.52164C18.064 6.52164 18.3558 6.64251 18.571 6.85765C18.7861 7.0728 18.907 7.3646 18.907 7.66886V14.1851C18.907 14.4894 18.7861 14.7812 18.571 14.9963C18.3558 15.2115 18.064 15.3323 17.7598 15.3323Z" fill="white"/>
<path d="M2.00833 7.73769C1.79331 7.73812 1.58251 7.67812 1.39995 7.56453C1.21739 7.45094 1.07043 7.28833 0.975822 7.09525C0.840573 6.82291 0.818978 6.50801 0.91578 6.21976C1.01258 5.9315 1.21986 5.69347 1.49207 5.55796L12.3334 0.131575C12.4979 0.0451532 12.681 0 12.8668 0C13.0527 0 13.2358 0.0451532 13.4003 0.131575L23.1632 5.54649C23.4294 5.69862 23.6243 5.95028 23.705 6.24611C23.7857 6.54194 23.7455 6.8577 23.5934 7.12393C23.4413 7.39016 23.1896 7.58505 22.8938 7.66573C22.598 7.74641 22.2822 7.70627 22.016 7.55414L12.8382 2.42603L2.51311 7.57708C2.35968 7.66926 2.18681 7.72427 2.00833 7.73769Z" fill="white"/>
</svg>
