<svg width="31" height="30" viewBox="0 0 31 30" fill="none" xmlns="http://www.w3.org/2000/svg">
<circle cx="15.0918" cy="15" r="14" stroke="#83ECFF" stroke-width="2"/>
<path d="M13.5897 10.9029H16.5817L16.0697 18.4069H14.1177L13.5897 10.9029ZM13.5897 21.1109C13.5897 20.7056 13.7284 20.3749 14.0057 20.1189C14.2937 19.8629 14.6564 19.7349 15.0937 19.7349C15.5311 19.7349 15.8884 19.8629 16.1657 20.1189C16.4537 20.3749 16.5977 20.7056 16.5977 21.1109C16.5977 21.5162 16.4537 21.8469 16.1657 22.1029C15.8884 22.3589 15.5311 22.4869 15.0937 22.4869C14.6564 22.4869 14.2937 22.3589 14.0057 22.1029C13.7284 21.8469 13.5897 21.5162 13.5897 21.1109Z" fill="#83ECFF"/>
</svg>
