<svg width="25" height="26" viewBox="0 0 25 26" fill="none" xmlns="http://www.w3.org/2000/svg">
<path fill-rule="evenodd" clip-rule="evenodd" d="M12.7259 8.2529C10.2841 8.2529 8.30469 10.2323 8.30469 12.6741C8.30469 15.1159 10.2841 17.0953 12.7259 17.0953C15.1677 17.0953 17.1471 15.1159 17.1471 12.6741C17.1471 10.2323 15.1677 8.2529 12.7259 8.2529ZM10.0732 12.6741C10.0732 11.2091 11.2609 10.0214 12.7259 10.0214C14.1909 10.0214 15.3786 11.2091 15.3786 12.6741C15.3786 14.1391 14.1909 15.3268 12.7259 15.3268C11.2609 15.3268 10.0732 14.1391 10.0732 12.6741Z" fill="#83ECFF"/>
<path fill-rule="evenodd" clip-rule="evenodd" d="M12.6967 5.00808e-07C12.1728 -1.12891e-05 11.7353 -1.13447e-05 11.3761 0.024488C11.0023 0.0500013 10.6492 0.104989 10.3068 0.246798C9.51239 0.575865 8.88121 1.20704 8.55214 2.00147C8.38083 2.41506 8.33444 2.85093 8.31672 3.3247C8.30248 3.70555 8.11028 4.02331 7.82663 4.18707C7.54299 4.35083 7.1717 4.3584 6.83476 4.18031C6.4156 3.95877 6.01493 3.781 5.57108 3.72257C4.71856 3.61033 3.85635 3.84136 3.17416 4.36483C2.88016 4.59042 2.65597 4.86875 2.44696 5.17976C2.24616 5.47853 2.02745 5.85738 1.76544 6.3112L1.73567 6.36277C1.47366 6.81657 1.25493 7.19541 1.09658 7.51867C0.931746 7.8552 0.802801 8.18853 0.754427 8.55592C0.642187 9.40846 0.873222 10.2707 1.39668 10.9529C1.66917 11.3079 2.02339 11.5661 2.42477 11.8183C2.74755 12.0211 2.92667 12.3465 2.92665 12.6741C2.92664 13.0016 2.74752 13.327 2.42477 13.5298C2.02335 13.782 1.66908 14.0402 1.39657 14.3953C0.873103 15.0775 0.642081 15.9397 0.754309 16.7922C0.802683 17.1596 0.931628 17.493 1.09646 17.8295C1.25481 18.1527 1.47354 18.5316 1.73554 18.9853L1.76533 19.037C2.02733 19.4908 2.24605 19.8696 2.44684 20.1683C2.65585 20.4794 2.88005 20.7577 3.17404 20.9833C3.85624 21.5067 4.71844 21.7378 5.57097 21.6256C6.01478 21.5671 6.41544 21.3894 6.83457 21.1679C7.17156 20.9897 7.54289 20.9973 7.82657 21.1612C8.11026 21.3249 8.30248 21.6427 8.31672 22.0236C8.33444 22.4973 8.38085 22.9332 8.55214 23.3468C8.88121 24.1412 9.51239 24.7724 10.3068 25.1015C10.6492 25.2433 11.0023 25.2982 11.3761 25.3237C11.7353 25.3482 12.1728 25.3482 12.6967 25.3482H12.7563C13.2803 25.3482 13.7177 25.3482 14.077 25.3237C14.4508 25.2982 14.8039 25.2433 15.1463 25.1015C15.9407 24.7724 16.5719 24.1412 16.901 23.3468C17.0723 22.9332 17.1186 22.4973 17.1363 22.0235C17.1506 21.6427 17.3428 21.3249 17.6264 21.161C17.9101 20.9973 18.2815 20.9897 18.6184 21.1678C19.0376 21.3893 19.4382 21.5671 19.8821 21.6255C20.7346 21.7377 21.5968 21.5067 22.2789 20.9833C22.573 20.7576 22.7971 20.4794 23.0061 20.1683C23.2069 19.8696 23.4256 19.4908 23.6876 19.037L23.7174 18.9853C23.9794 18.5316 24.1982 18.1526 24.3566 17.8293C24.5214 17.4929 24.6502 17.1596 24.6987 16.7922C24.8109 15.9396 24.5799 15.0774 24.0564 14.3952C23.7839 14.0401 23.4296 13.782 23.0283 13.5298C22.7055 13.327 22.5264 13.0016 22.5264 12.674C22.5264 12.3465 22.7055 12.0212 23.0282 11.8184C23.4298 11.5662 23.784 11.3081 24.0565 10.9529C24.58 10.2707 24.8111 9.40854 24.6988 8.556C24.6504 8.18861 24.5215 7.85528 24.3567 7.51875C24.1983 7.19551 23.9796 6.8167 23.7175 6.36293L23.6878 6.31133C23.4257 5.8575 23.207 5.47861 23.0063 5.17984C22.7972 4.86883 22.5731 4.5905 22.2791 4.36491C21.5969 3.84145 20.7347 3.61041 19.8821 3.72265C19.4383 3.78108 19.0377 3.95883 18.6185 4.18036C18.2816 4.35847 17.9102 4.35089 17.6265 4.1871C17.3429 4.02333 17.1506 3.70552 17.1363 3.32464C17.1186 2.85089 17.0723 2.41504 16.901 2.00147C16.5719 1.20704 15.9407 0.575865 15.1463 0.246798C14.8039 0.104989 14.4508 0.0500013 14.077 0.024488C13.7177 -1.13447e-05 13.2803 -1.12891e-05 12.7563 5.00808e-07H12.6967ZM10.9835 1.88066C11.0746 1.84298 11.2127 1.80824 11.4965 1.78887C11.7883 1.76896 12.1651 1.76848 12.7266 1.76848C13.288 1.76848 13.6648 1.76896 13.9565 1.78887C14.2404 1.80824 14.3786 1.84298 14.4695 1.88066C14.8306 2.03024 15.1175 2.31713 15.267 2.67825C15.3143 2.79215 15.3533 2.96972 15.3691 3.39073C15.404 4.32494 15.8862 5.22443 16.7423 5.71865C17.5982 6.21288 18.6184 6.18072 19.4449 5.74388C19.8173 5.54702 19.9908 5.4921 20.1129 5.47601C20.5004 5.42499 20.8923 5.53 21.2024 5.76794C21.2806 5.82788 21.3797 5.93018 21.5384 6.16629C21.7016 6.40901 21.8904 6.73508 22.1711 7.2213C22.4518 7.70752 22.6398 8.03407 22.7685 8.29669C22.8936 8.55216 22.9326 8.68922 22.9454 8.78684C22.9965 9.17435 22.8914 9.56627 22.6535 9.87635C22.5784 9.97417 22.4442 10.0968 22.0874 10.321C21.2959 10.8184 20.7581 11.6856 20.7579 12.674C20.7579 13.6625 21.2958 14.5298 22.0874 15.0273C22.4441 15.2514 22.5783 15.374 22.6534 15.4718C22.8913 15.7819 22.9964 16.1738 22.9453 16.5613C22.9325 16.659 22.8934 16.796 22.7683 17.0515C22.6397 17.314 22.4517 17.6406 22.1709 18.1268C21.8902 18.613 21.7015 18.9391 21.5383 19.1819C21.3796 19.4179 21.2805 19.5203 21.2023 19.5801C20.8922 19.8182 20.5003 19.9231 20.1128 19.8722C19.9907 19.856 19.8172 19.8011 19.4448 19.6043C18.6183 19.1674 17.5981 19.1353 16.7421 19.6295C15.8862 20.1238 15.404 21.0232 15.3691 21.9575C15.3533 22.3785 15.3143 22.556 15.267 22.67C15.1175 23.031 14.8306 23.318 14.4695 23.4676C14.3786 23.5052 14.2404 23.54 13.9565 23.5593C13.6648 23.5793 13.288 23.5797 12.7266 23.5797C12.1651 23.5797 11.7883 23.5793 11.4965 23.5593C11.2127 23.54 11.0746 23.5052 10.9835 23.4676C10.6225 23.318 10.3356 23.031 10.186 22.67C10.1388 22.556 10.0997 22.3785 10.084 21.9575C10.049 21.0233 9.56684 20.1238 8.71081 19.6295C7.85479 19.1353 6.83471 19.1675 6.00819 19.6043C5.63572 19.8012 5.46238 19.8561 5.34014 19.8722C4.95262 19.9232 4.56072 19.8182 4.25063 19.5803C4.17251 19.5204 4.07332 19.418 3.91464 19.1819C3.75153 18.9392 3.56271 18.6131 3.282 18.1269C3.00127 17.6407 2.81329 17.3141 2.68465 17.0516C2.55951 16.7961 2.52051 16.659 2.50766 16.5613C2.45665 16.1738 2.56166 15.7819 2.7996 15.4718C2.87466 15.3741 3.00889 15.2514 3.36564 15.0273C4.15718 14.53 4.69508 13.6626 4.69513 12.6742C4.69519 11.6856 4.15727 10.8183 3.36565 10.3209C3.00898 10.0967 2.87476 9.97408 2.79971 9.87627C2.56178 9.56618 2.45677 9.17428 2.50778 8.78675C2.52063 8.68915 2.55963 8.55208 2.68477 8.29661C2.81341 8.03398 3.00139 7.70744 3.2821 7.22121C3.56283 6.735 3.75164 6.40893 3.91476 6.16621C4.07344 5.93011 4.17263 5.82779 4.25074 5.76786C4.56083 5.52992 4.95274 5.42491 5.34025 5.47592C5.4625 5.49202 5.63585 5.54693 6.00837 5.74384C6.83484 6.18066 7.85488 6.21281 8.71086 5.71862C9.56685 5.22442 10.049 4.32496 10.084 3.39079C10.0997 2.96974 10.1388 2.79216 10.186 2.67825C10.3356 2.31713 10.6225 2.03024 10.9835 1.88066Z" fill="#83ECFF"/>
</svg>
