<svg width="26" height="21" viewBox="0 0 26 21" fill="none" xmlns="http://www.w3.org/2000/svg">
<path d="M21.3062 10.1744C21.3062 10.8166 20.7856 11.3372 20.1434 11.3372C19.5012 11.3372 18.9806 10.8166 18.9806 10.1744C18.9806 9.53221 19.5012 9.01163 20.1434 9.01163C20.7856 9.01163 21.3062 9.53221 21.3062 10.1744Z" fill="white"/>
<path fill-rule="evenodd" clip-rule="evenodd" d="M10.7755 5.26926e-07H14.3951C16.532 -2.27289e-05 18.2246 -3.429e-05 19.5492 0.17807C20.9125 0.361349 22.016 0.747536 22.8862 1.61772C23.961 2.69259 24.3035 4.13213 24.428 6.00009C25.0991 6.29547 25.606 6.92012 25.6618 7.71138C25.6668 7.78138 25.6667 7.85686 25.6667 7.92674C25.6667 7.93314 25.6667 7.93942 25.6667 7.9457V12.4031C25.6667 12.4094 25.6667 12.4157 25.6667 12.4221C25.6667 12.492 25.6668 12.5674 25.6618 12.6374C25.606 13.4287 25.0991 14.0534 24.428 14.3487C24.3035 16.2167 23.961 17.6563 22.8862 18.7312C22.016 19.6013 20.9125 19.9874 19.5492 20.1708C18.2246 20.3488 16.532 20.3488 14.3951 20.3488H10.7755C8.63858 20.3488 6.94598 20.3488 5.62132 20.1708C4.25804 19.9874 3.15461 19.6013 2.28441 18.7312C1.41422 17.8609 1.02804 16.7574 0.844757 15.3942C0.666653 14.0695 0.666664 12.377 0.666688 10.24V10.1088C0.666664 7.97186 0.666653 6.27929 0.844757 4.95463C1.02804 3.59135 1.41422 2.48792 2.28441 1.61772C3.15461 0.747536 4.25804 0.361349 5.62132 0.17807C6.94598 -3.429e-05 8.63857 -2.27289e-05 10.7755 5.26926e-07ZM22.6642 14.5349H20.4118C17.9174 14.5349 15.783 12.6423 15.783 10.1744C15.783 7.70646 17.9174 5.81395 20.4118 5.81395H22.6642C22.5319 4.25413 22.2325 3.43073 21.6528 2.85105C21.1608 2.35894 20.4867 2.06398 19.3169 1.9067C18.1219 1.74604 16.5467 1.74419 14.3295 1.74419H10.8411C8.62387 1.74419 7.04868 1.74604 5.85372 1.9067C4.68385 2.06398 4.00984 2.35894 3.51773 2.85105C3.02563 3.34315 2.73066 4.01716 2.57339 5.18704C2.41272 6.38199 2.41087 7.95721 2.41087 10.1744C2.41087 12.3916 2.41272 13.9669 2.57339 15.1619C2.73066 16.3316 3.02563 17.0057 3.51773 17.4978C4.00984 17.9899 4.68385 18.2849 5.85372 18.4421C7.04868 18.6028 8.62387 18.6047 10.8411 18.6047H14.3295C16.5467 18.6047 18.1219 18.6028 19.3169 18.4421C20.4867 18.2849 21.1608 17.9899 21.6528 17.4978C22.2325 16.9181 22.5319 16.0948 22.6642 14.5349ZM23.5428 7.55841C23.5192 7.55815 23.4883 7.55814 23.438 7.55814H20.4118C18.7567 7.55814 17.5272 8.78919 17.5272 10.1744C17.5272 11.5597 18.7567 12.7907 20.4118 12.7907H23.438C23.4883 12.7907 23.5192 12.7907 23.5428 12.7905C23.5574 12.7902 23.5651 12.7901 23.5687 12.7899L23.5712 12.7898C23.811 12.7752 23.914 12.6135 23.9219 12.5162C23.9219 12.5162 23.9222 12.5088 23.9223 12.4984C23.9225 12.4777 23.9225 12.4502 23.9225 12.4031V7.9457C23.9225 7.8986 23.9225 7.87116 23.9223 7.85047C23.9222 7.83998 23.9219 7.83266 23.9219 7.83266C23.914 7.73537 23.811 7.57361 23.5712 7.55902C23.5712 7.55902 23.5655 7.55864 23.5428 7.55841ZM7.35273 5.81395C7.83437 5.81395 8.22483 6.20441 8.22483 6.68605V13.6628C8.22483 14.1444 7.83437 14.5349 7.35273 14.5349C6.87109 14.5349 6.48064 14.1444 6.48064 13.6628V6.68605C6.48064 6.20441 6.87109 5.81395 7.35273 5.81395Z" fill="white"/>
</svg>
