<svg width="50" height="60" viewBox="0 0 50 60" fill="none" xmlns="http://www.w3.org/2000/svg">
<path fill-rule="evenodd" clip-rule="evenodd" d="M6.22117 23.3404L5.46065 23.8575C5.46065 23.8575 3.54872 20.4531 1.34801 23.5033C0.943514 24.064 0.622711 25.9259 1.00427 27.1275C1.52957 28.7819 2.91692 29.7855 2.99671 29.8652C2.99671 29.8652 2.16172 31.8314 2.46444 33.1809C2.79186 34.6408 4.25912 35.4927 4.25912 35.4927C4.25912 35.4927 3.81467 37.4354 5.68879 38.6563C6.76408 39.3568 8.51987 39.7106 11.4836 39.8882C12.4747 39.9477 16.5467 42.1049 19.1644 46.0329C22.2964 50.7325 26.465 49.7137 26.465 49.7137L24.7767 51.1586C24.7767 51.1586 27.04 53.2397 29.0354 52.2232C31.0701 51.1866 32.8377 47.052 32.8377 47.052L33.3854 55.98C33.3854 55.98 34.2782 54.8291 34.9823 53.4248C35.6617 52.0696 36.1534 50.4589 36.1534 50.4589C36.1534 50.4589 36.439 52.7078 37.1268 54.3069C37.9481 56.2164 39.1953 57.5313 39.1953 57.5313L44.0167 52.6186V50.1851C44.0167 50.1851 44.6532 48.9002 44.9901 47.417C45.2161 46.4224 44.9141 44.9226 44.9141 44.9226L48.3514 49.3638C48.3514 49.3638 49.5589 44.593 48.5339 40.4966C47.5664 36.6299 44.6096 35.6403 44.2449 32.4509C44.0143 30.4343 45.1404 29.4089 45.7354 28.2226C46.3711 26.9553 46.8456 25.3937 46.8456 25.3937L45.9484 25.8347C45.9484 25.8347 46.2883 24.083 46.3438 22.5647C46.4092 20.7746 46.1917 19.0361 46.1917 19.0361L44.0776 21.3936C44.0776 21.3936 44.4341 17.8261 43.2563 14.9295C42.1186 12.1315 39.4579 10.0511 38.7695 7.30952C37.9484 4.03966 39.5299 1.02808 39.5299 1.02808C39.5299 1.02808 31.3265 4.72039 32.6857 11.3553C33.2095 13.9125 34.4407 15.5489 34.7238 16.9372C35.3278 19.8998 34.6173 20.8308 34.6173 20.8308C34.6173 20.8308 32.2019 19.2952 28.5791 19.5228C26.3686 19.6616 24.1765 20.4417 22.3432 21.0285C20.963 21.4704 19.6055 21.7738 19.6055 21.7738C19.6055 21.7738 18.7237 20.7524 17.613 19.4619C16.9102 18.6452 15.8862 17.8516 15.6662 16.7242C15.2555 14.6189 17.6004 14.8651 17.0655 10.0472C16.6023 5.87441 13.2023 4.51106 13.2023 4.51106C13.2023 4.51106 13.8319 7.06023 12.8221 9.69746C11.994 11.86 9.51101 13.9197 9.35427 16.055C9.0512 20.1866 11.8943 22.3366 11.8943 22.3366L11.2403 22.7167C11.2403 22.7167 9.97106 21.972 8.24399 22.6255C6.98311 23.1027 6.38843 24.1465 6.38843 24.1465L6.22117 23.3404Z" fill="black"/>
<path fill-rule="evenodd" clip-rule="evenodd" d="M47.8495 47.2042L45.4464 43.9493C45.4464 43.9493 45.4113 40.8432 43.9406 38.5348C42.4607 36.212 39.5451 34.6867 39.5451 34.6867L43.3322 32.2836C43.3322 32.2836 43.1393 33.624 44.0319 35.1278C44.9988 36.7568 47.0782 38.628 47.667 40.5728C48.7932 44.2931 47.8495 47.2042 47.8495 47.2042ZM43.8494 28.5269L44.7772 27.9793C44.7772 27.9793 43.691 31.1397 41.4616 32.603C40.1571 33.4591 38.1253 33.1461 36.8682 33.5004C35.5742 33.865 34.9519 34.4282 34.9519 34.4282C34.9519 34.4282 35.1251 33.022 39.6973 29.9109C41.6762 28.5643 42.0395 26.9147 42.0395 26.9147C42.0395 26.9147 41.5036 27.3882 40.4424 27.8272C39.0061 28.4214 36.9291 29.0288 36.9291 29.0288L37.9025 27.8881C37.9025 27.8881 34.7003 28.4449 33.2939 31.8121C32.5603 33.5689 34.0049 38.1189 33.0354 39.4169C30.3215 43.0503 26.8147 42.7325 26.8147 42.7325C26.8147 42.7325 28.6827 41.7485 29.9327 40.4207C30.9852 39.3028 31.4536 37.8046 31.4536 37.8046C31.4536 37.8046 28.8762 38.2271 26.7082 37.7134C24.5113 37.1928 22.7234 35.7362 22.7234 35.7362C22.7234 35.7362 25.4653 34.8535 27.6513 33.4091C29.7448 32.0258 31.2864 30.0783 31.2864 30.0783L28.5487 30.2912C28.5487 30.2912 29.8769 30.0951 31.0126 29.3938C32.0652 28.7438 32.8567 27.6192 34.6172 26.8082C36.7189 25.8401 39.8839 25.159 41.5832 24.2379C45.1928 22.2811 45.3552 21.1806 45.3552 21.1806C45.3552 21.1806 45.5172 23.3418 45.2183 24.8005C44.7886 26.8967 43.8494 28.5269 43.8494 28.5269ZM30.7236 21.6065C29.5116 21.6823 28.8681 21.9715 28.8681 21.9715C28.8681 21.9715 29.9054 22.2656 30.4499 22.5799C31.3072 23.075 31.8186 23.6751 31.8186 23.6751C31.8186 23.6751 29.4169 22.7527 27.8034 22.6104C26.0606 22.4566 25.0961 23.0818 25.0961 23.0818C25.0961 23.0818 26.5826 23.1814 27.5296 23.4773C28.528 23.7894 28.9897 24.2986 28.9897 24.2986C28.9897 24.2986 26.5904 24.3301 24.7463 24.8005C22.8944 25.2731 21.598 26.1847 21.598 26.1847L20.153 25.2873L21.7956 23.6751C21.7956 23.6751 19.8744 23.8096 18.2975 24.3291C16.6662 24.8663 15.3773 25.7892 15.3773 25.7892C15.3773 25.7892 16.3695 25.6524 17.3241 25.7739C18.3373 25.9031 19.3165 26.291 19.3165 26.291L17.9324 27.0059C17.9324 27.0059 19.5542 27.1737 21.309 27.4318C22.7677 27.6464 24.2287 27.9546 25.7501 27.9946C29.06 28.0815 31.2559 27.3557 31.2559 27.3557C31.2559 27.3557 29.8916 28.3095 27.9707 29.0136C26.0742 29.7088 23.6208 30.1543 23.6208 30.1543L26.7995 30.7779C26.7995 30.7779 25.4195 33.8231 22.328 33.7894C19.0161 33.7533 15.8792 36.2533 15.8792 36.2533C15.8792 36.2533 17.8683 35.0498 22.769 37.7286C24.0515 38.4297 25.524 39.2803 26.6019 39.5233C28.2396 39.8926 29.2178 39.4321 29.2178 39.4321C29.2178 39.4321 28.7786 41.0551 25.7653 40.8314C23.9103 40.6935 19.5585 38.7288 17.0502 38.3978C15.4195 38.1827 14.4778 38.9777 13.0502 38.9149C12.1293 38.8745 11.1328 38.4342 10.4189 38.413C8.90316 38.3682 8.12231 38.8085 8.12231 38.8085L9.43035 37.8959C9.43035 37.8959 7.10482 38.4042 5.50624 37.4853C4.77551 37.0652 6.44927 35.9491 6.44927 35.9491C6.44927 35.9491 4.51463 35.9432 4.77622 35.1582C4.80766 35.0639 4.89442 33.0121 11.4532 35.5993C12.6425 36.0685 14.4951 34.8388 14.4951 34.8388L13.1718 34.8084C13.1718 34.8084 14.0631 32.7731 13.6737 31.2342C13.4003 30.1535 11.8906 29.3491 11.6053 29.5308C10.9134 29.9711 10.8508 30.5134 9.61286 30.8539C7.78851 31.3558 5.24773 31.2798 5.24773 31.2798C5.24773 31.2798 11.1156 28.9751 10.0387 26.504C9.85411 26.0805 9.00908 25.7289 8.39607 26.139C7.23366 26.9168 5.91227 29.0602 4.53283 28.9984C4.11971 28.9798 3.60033 28.4493 3.45293 27.6447C3.30376 26.8296 3.93969 25.7588 3.93969 25.7588C3.93969 25.7588 3.93934 27.1317 4.88272 27.0059C5.34241 26.9446 7.06357 23.4797 9.15659 23.1276C12.3079 22.5972 11.514 25.5306 11.514 25.5306C11.514 25.5306 11.9825 24.8674 12.0919 24.1617C12.1867 23.5511 11.9247 22.8842 11.9247 22.8842C11.9247 22.8842 16.8709 23.0237 21.309 22.3214C23.5463 21.9674 23.3762 20.9992 26.9516 20.5115C32.1384 19.8039 34.2217 21.637 34.2217 21.637C34.2217 21.637 32.1679 21.5163 30.7236 21.6065ZM15.651 21.6827L12.7765 22.3974L16.9742 19.9487L18.7994 22.1084L14.6471 22.3671L15.651 21.6827ZM4.82184 25.5001C4.56463 25.5304 4.38343 24.3871 3.93969 24.466C1.99005 24.812 3.14879 28.5877 3.14879 28.5877C3.14879 28.5877 2.1521 27.937 1.84075 26.8082C1.5209 25.6483 1.86889 23.9579 2.67728 23.4926C4.43224 22.4823 4.40789 24.1643 5.00435 24.618C5.35659 24.886 5.79525 24.3291 5.79525 24.3291C5.79525 24.3291 5.69465 25.3975 4.82184 25.5001ZM4.71534 33.0289L4.25908 34.5042C4.25908 34.5042 3.6696 33.9615 3.52905 33.1354C3.42373 32.5166 3.75718 31.5536 3.75718 31.5536L4.71534 33.0289ZM17.2785 40.3447C18.7702 40.5676 20.0313 41.0442 20.0313 41.0442L18.7538 41.5158C18.7538 41.5158 20.1132 42.0557 21.2177 43.1432C22.4689 44.3752 23.5619 46.2245 25.0808 47.2193C26.9746 48.4596 28.6703 48.0102 28.6703 48.0102C28.6703 48.0102 25.9703 50.1549 22.617 48.3448C20.9287 47.4336 19.4874 44.5849 17.9629 42.9912C15.9851 40.9237 14.13 40.1621 14.13 40.1621C14.13 40.1621 15.8199 40.1266 17.2785 40.3447ZM29.446 48.6642C30.7573 47.4818 32.0012 45.9418 32.0012 45.9418C32.0012 45.9418 31.7428 47.1899 31.0126 48.4817C30.1691 49.9739 28.8377 51.5388 28.8377 51.5388L26.176 51.0825C26.176 51.0825 27.9824 49.9838 29.446 48.6642ZM30.313 43.0519C32.2561 41.5475 33.9769 39.1883 33.9023 39.3104C33.8376 39.4166 32.8499 42.3773 31.0278 44.0862C29.1045 45.8899 26.3432 46.4436 26.3432 46.4436C26.3432 46.4436 25.2645 44.9678 24.001 43.6451C23.0294 42.628 21.7956 41.6831 21.7956 41.6831L22.5561 41.5462L19.3469 39.9036C19.3469 39.9036 21.2275 40.1154 22.9668 40.7857C24.1255 41.2323 25.3851 42.2306 25.3851 42.2306H24.0314L26.9364 44.6337C26.9364 44.6337 28.7826 44.2368 30.313 43.0519ZM33.6438 43.3562C33.8367 39.9828 34.8606 38.3522 34.8606 38.3522C34.8606 38.3522 35.8891 42.9267 35.7123 46.0178C35.4613 50.4059 33.9785 53.7746 33.9785 53.7746C33.9785 53.7746 34.2169 51.6522 34.1001 49.227C34.0069 47.2906 33.5361 45.2379 33.6438 43.3562ZM37.0508 36.2381L39.7124 39.6146L38.1915 35.4016C38.1915 35.4016 41.5709 38.0931 42.9216 40.9835C44.4429 44.2388 43.9559 47.7364 43.9559 47.7364L41.998 43.5979L43.2562 52.3146L40.2143 54.961C40.2143 54.961 40.2153 53.5377 40.1535 51.8734C40.1139 50.8096 40.0014 49.227 40.0014 49.227L38.952 54.3221L38.2371 49.0597L37.4766 52.4666L35.834 37.5461L39.2105 43.8733L37.0508 36.2381Z" fill="#FCB862"/>
<path fill-rule="evenodd" clip-rule="evenodd" d="M42.5413 15.9335C43.3452 19.0445 42.9369 21.8803 42.9369 21.8803C42.9369 21.8803 42.4142 22.6711 41.5528 23.2036C40.5016 23.8534 39.0736 24.2683 39.0736 24.2683C39.0736 24.2683 39.0879 20.2343 38.0546 16.3136C37.6627 14.8268 36.9867 13.6777 36.4119 12.5265C35.8458 11.3926 35.3778 10.2451 35.3778 10.2451C35.3778 10.2451 35.5181 11.1671 36.1687 13.2109C36.6515 14.7282 37.7574 17.1217 37.4918 18.8537C36.8544 23.01 32.8377 25.2264 32.8377 25.2264C32.8377 25.2264 35.8013 22.3044 35.91 17.8194C35.975 15.1386 32.9227 12.8699 33.4309 8.90667C33.8904 5.32298 38.009 2.80762 38.009 2.80762C38.009 2.80762 36.8385 4.68965 37.9633 7.81164C38.8183 10.1848 41.9129 13.501 42.5413 15.9335ZM16.4876 19.3251L15.2099 20.1769C15.2099 20.1769 14.4913 19.5206 13.9931 18.6407C13.5519 17.8613 13.324 16.846 13.324 16.846C13.324 16.846 13.2042 17.264 13.2783 17.7586C13.3874 18.4874 13.7042 19.386 13.7042 19.386C13.7042 19.386 12.8648 18.4836 12.4874 17.2414C12.2004 16.2966 12.3506 14.9296 12.3506 14.9296C12.3506 14.9296 11.5205 16.4978 11.514 17.9107C11.5057 19.7187 12.3201 21.4697 12.3201 21.4697C12.3201 21.4697 9.94064 19.5262 10.4494 15.6749C10.6358 14.2631 12.8345 12.154 13.5521 10.595C14.6139 8.288 14.2669 6.73173 14.2669 6.73173C14.2669 6.73173 15.8447 7.63977 16.2289 10.6253C16.6577 13.9558 14.812 14.6264 14.8145 16.3136C14.8172 18.2549 16.4876 19.3251 16.4876 19.3251ZM11.4379 30.3521C11.4379 30.3521 12.1807 31.161 12.2593 31.5536C12.3378 31.9462 11.2554 33.5157 11.2554 33.5157L10.6014 32.2076L10.0083 33.0745C10.0083 33.0745 9.62728 32.6391 9.24785 32.6486C8.74099 32.6614 8.19832 33.1201 8.19832 33.1201C8.19832 33.1201 8.9417 33.0475 9.41511 33.181C9.88473 33.3135 10.0844 33.6525 10.0844 33.6525L10.6014 33.181L11.149 34.1392L11.8031 33.6677C11.8031 33.6677 12.1859 34.9636 11.8943 35.1431C11.5539 35.3524 9.71723 34.2835 9.14135 34.0479C8.56534 33.8125 5.03473 34.0175 5.03473 34.0175L5.58236 33.257L5.03473 31.9946C5.03473 31.9946 8.77929 31.8677 9.64324 31.5536C10.5072 31.2395 11.4379 30.3521 11.4379 30.3521Z" fill="white"/>
<path fill-rule="evenodd" clip-rule="evenodd" d="M21.7349 26.8994C21.7349 26.8994 25.9342 27.4275 27.3928 26.9906C28.9993 26.5096 27.8794 25.0591 27.8794 25.0591C27.8794 25.0591 26.2246 25.0619 24.7615 25.5001C23.1586 25.9802 21.7349 26.8994 21.7349 26.8994Z" fill="#FE2627"/>
</svg>
