<svg width="20" height="20" viewBox="0 0 20 20" fill="none" xmlns="http://www.w3.org/2000/svg">
<path d="M18.3334 9.99984C18.3334 14.6022 14.6024 18.3332 10.0001 18.3332C5.39771 18.3332 1.66675 14.6022 1.66675 9.99984C1.66675 5.39746 5.39771 1.6665 10.0001 1.6665C14.6024 1.6665 18.3334 5.39746 18.3334 9.99984Z" fill="#40FD3F"/>
<path d="M13.3585 7.47456C13.6026 7.71864 13.6026 8.11437 13.3585 8.35842L9.19183 12.5251C8.94775 12.7692 8.55208 12.7692 8.30798 12.5251L6.64131 10.8584C6.39723 10.6143 6.39723 10.2187 6.64131 9.97458C6.88538 9.7305 7.28112 9.7305 7.52519 9.97458L8.74992 11.1993L10.6122 9.33692L12.4747 7.47456C12.7187 7.23049 13.1144 7.23049 13.3585 7.47456Z" fill="white"/>
</svg>
