<svg width="40" height="40" viewBox="0 0 40 40" fill="none" xmlns="http://www.w3.org/2000/svg">
<g clip-path="url(#clip0_706_14759)">
<path d="M20.0016 40.0033C31.0482 40.0033 40.0033 31.0482 40.0033 20.0016C40.0033 8.95503 31.0482 0 20.0016 0C8.95503 0 0 8.95503 0 20.0016C0 31.0482 8.95503 40.0033 20.0016 40.0033Z" fill="url(#paint0_linear_706_14759)"/>
<path fill-rule="evenodd" clip-rule="evenodd" d="M19.8587 20.6479L19.8847 20.622H19.8522V20.596H19.8295H19.8068V20.622H19.7743L19.8003 20.6479L19.7775 20.6707H19.8068H19.8522H19.8847L19.8587 20.6479ZM19.8587 20.6479L19.8847 20.622H19.8522V20.596H19.8295H19.8068V20.622H19.7743L19.8003 20.6479L19.7775 20.6707H19.8068H19.8522H19.8847L19.8587 20.6479ZM19.8587 20.6479L19.8847 20.622H19.8522V20.596H19.8295H19.8068V20.622H19.7743L19.8003 20.6479L19.7775 20.6707H19.8068H19.8522H19.8847L19.8587 20.6479ZM19.8587 20.6479L19.8847 20.622H19.8522V20.596H19.8295H19.8068V20.622H19.7743L19.8003 20.6479L19.7775 20.6707H19.8068H19.8522H19.8847L19.8587 20.6479ZM19.8587 20.6479L19.8847 20.622H19.8522V20.596H19.8295H19.8068V20.622H19.7743L19.8003 20.6479L19.7775 20.6707H19.8068H19.8522H19.8847L19.8587 20.6479ZM19.8587 20.6479L19.8847 20.622H19.8522V20.596H19.8295H19.8068V20.622H19.7743L19.8003 20.6479L19.7775 20.6707H19.8068H19.8522H19.8847L19.8587 20.6479ZM39.2757 14.6552C38.0936 10.4011 35.5374 6.65758 32.0054 4.00811C28.4734 1.35863 24.1641 -0.0479217 19.7491 0.00769146C15.3342 0.0633046 11.0617 1.57795 7.59751 4.31556C4.13336 7.05317 1.67221 10.8599 0.597675 15.1425C-0.141552 18.0916 -0.198623 21.1704 0.430799 24.1449C1.06022 27.1194 2.35957 29.9113 4.23005 32.3081C6.10053 34.705 8.49289 36.6439 11.2253 37.9773C13.9576 39.3107 16.958 40.0036 19.9984 40.0032C23.0794 40.0012 26.1184 39.2878 28.8785 37.9186C31.6385 36.5494 34.0452 34.5614 35.9109 32.1094C37.7765 29.6575 39.0508 26.8079 39.6345 23.7826C40.2181 20.7574 40.0953 17.6382 39.2757 14.6682V14.6552ZM30.2071 30.8566C28.4378 32.5237 26.2874 33.7324 23.9435 34.377C21.5996 35.0217 19.1335 35.0827 16.7605 34.5549C14.3876 34.0271 12.1799 32.9264 10.3303 31.3489C8.48071 29.7714 7.04537 27.7652 6.14963 25.5053C5.25389 23.2454 4.92498 20.8006 5.19162 18.3843C5.45826 15.968 6.31235 13.6538 7.6793 11.6436C9.04626 9.63337 10.8845 7.98836 13.0336 6.85216C15.1827 5.71596 17.5772 5.12312 20.0082 5.1254C21.9617 5.1254 23.8962 5.51019 25.701 6.25779C27.5059 7.00538 29.1458 8.10115 30.5272 9.48253C31.9086 10.8639 33.0043 12.5038 33.7519 14.3087C34.4995 16.1136 34.8843 18.048 34.8843 20.0016C34.8913 22.035 34.4796 24.0482 33.6749 25.9157C32.8703 27.7831 31.6898 29.465 30.2071 30.8566ZM19.8587 20.6414L19.8847 20.6155H19.8522V20.5895H19.8295H19.8068V20.6155H19.7743L19.8003 20.6414L19.7775 20.6642H19.8068H19.8522H19.8847L19.8587 20.6414ZM19.8587 20.6414L19.8847 20.6155H19.8522V20.5895H19.8295H19.8068V20.6155H19.7743L19.8003 20.6414L19.7775 20.6642H19.8068H19.8522H19.8847L19.8587 20.6414ZM19.8587 20.6414L19.8847 20.6155H19.8522V20.5895H19.8295H19.8068V20.6155H19.7743L19.8003 20.6414L19.7775 20.6642H19.8068H19.8522H19.8847L19.8587 20.6414ZM19.8587 20.6414L19.8847 20.6155H19.8522V20.5895H19.8295H19.8068V20.6155H19.7743L19.8003 20.6414L19.7775 20.6642H19.8068H19.8522H19.8847L19.8587 20.6414ZM19.8587 20.6414L19.8847 20.6155H19.8522V20.5895H19.8295H19.8068V20.6155H19.7743L19.8003 20.6414L19.7775 20.6642H19.8068H19.8522H19.8847L19.8587 20.6414Z" fill="url(#paint1_linear_706_14759)"/>
<path fill-rule="evenodd" clip-rule="evenodd" d="M20.0537 20.6805L20.0212 20.6708L20.0277 20.6967L20.005 20.6772L19.9985 20.713L19.992 20.6805L19.9692 20.7L19.9757 20.674L19.9465 20.6805L19.9692 20.6578L19.9432 20.648L19.9692 20.6415L19.9432 20.6155L19.9757 20.6285L19.9692 20.6025L19.992 20.6188L19.9985 20.5863L20.005 20.6188L20.0277 20.6025L20.0212 20.6285L20.0537 20.6155L20.0277 20.6415L20.0569 20.648L20.0277 20.6578L20.0537 20.6805Z" fill="url(#paint2_linear_706_14759)"/>
<path style="mix-blend-mode:multiply" opacity="0.88" fill-rule="evenodd" clip-rule="evenodd" d="M20.0016 5.67114C17.1673 5.67114 14.3967 6.51161 12.04 8.08627C9.68341 9.66092 7.84663 11.899 6.76199 14.5176C5.67735 17.1361 5.39356 20.0175 5.94651 22.7974C6.49945 25.5772 7.8643 28.1307 9.86845 30.1348C11.8726 32.139 14.4261 33.5038 17.2059 34.0568C19.9857 34.6097 22.8671 34.3259 25.4857 33.2413C28.1042 32.1566 30.3424 30.3199 31.917 27.9632C33.4917 25.6066 34.3321 22.8359 34.3321 20.0016C34.3321 16.201 32.8223 12.5559 30.1348 9.86845C27.4473 7.18096 23.8023 5.67114 20.0016 5.67114ZM20.0016 33.0361C17.4237 33.0361 14.9036 32.2717 12.7601 30.8394C10.6165 29.4072 8.94587 27.3715 7.95932 24.9897C6.97277 22.608 6.71464 19.9872 7.21758 17.4587C7.72052 14.9303 8.96194 12.6078 10.7848 10.7848C12.6078 8.96193 14.9303 7.72052 17.4587 7.21758C19.9872 6.71464 22.608 6.97277 24.9897 7.95932C27.3715 8.94587 29.4072 10.6165 30.8394 12.76C32.2717 14.9036 33.0362 17.4237 33.0362 20.0016C33.0362 23.4586 31.6629 26.774 29.2184 29.2184C26.774 31.6629 23.4586 33.0361 20.0016 33.0361Z" fill="url(#paint3_linear_706_14759)"/>
<path style="mix-blend-mode:screen" opacity="0.5" fill-rule="evenodd" clip-rule="evenodd" d="M20.0016 6.2915C12.0861 6.2915 5.67114 12.0861 5.67114 20.0016C5.67114 23.8023 7.18096 27.4473 9.86845 30.1348C12.5559 32.8223 16.201 34.3321 20.0016 34.3321C23.8023 34.3321 27.4473 32.8223 30.1348 30.1348C32.8223 27.4473 34.3321 23.8023 34.3321 20.0016C34.3321 12.0861 27.9139 6.2915 20.0016 6.2915ZM19.888 33.3772C12.687 33.3772 6.96712 27.2058 6.96712 20.0016C6.96712 16.5446 8.3404 13.2293 10.7848 10.7848C13.2293 8.34038 16.5447 6.9671 20.0016 6.9671C23.4586 6.9671 26.774 8.34038 29.2184 10.7848C31.6629 13.2293 33.0361 16.5446 33.0361 20.0016C33.0361 27.1993 27.0857 33.3772 19.888 33.3772Z" fill="url(#paint4_linear_706_14759)"/>
<g style="mix-blend-mode:multiply" opacity="0.88">
<path fill-rule="evenodd" clip-rule="evenodd" d="M6.70081 14.0447C6.70081 14.0447 10.7511 6.29152 19.7353 6.29152C28.7195 6.29152 33.3025 15.3861 33.3025 15.3861C33.3025 15.3861 30.2071 5.67114 19.7353 5.67114C9.26353 5.67114 6.70081 14.0447 6.70081 14.0447Z" fill="#CE838D"/>
</g>
<path fill-rule="evenodd" clip-rule="evenodd" d="M14.4929 0.769816V3.05971C14.4929 3.05971 16.4418 3.73855 20.0146 3.73855C23.6882 3.73855 25.5364 3.05971 25.5364 3.05971V0.786056C21.9291 -0.251262 18.1033 -0.256888 14.4929 0.769816Z" fill="white"/>
<path fill-rule="evenodd" clip-rule="evenodd" d="M25.5072 39.2335V36.9436C25.5072 36.9436 23.5583 36.2648 19.9855 36.2648C16.3086 36.2648 14.4637 36.9436 14.4637 36.9436V39.2173C18.0708 40.2561 21.8971 40.2618 25.5072 39.2335Z" fill="white"/>
<path fill-rule="evenodd" clip-rule="evenodd" d="M33.5948 5.32361L31.646 6.5124C31.646 6.5124 32.0812 8.5392 33.9196 11.5729C35.8133 14.717 37.3529 15.9318 37.3529 15.9318L39.3017 14.7463C38.3134 11.1355 36.337 7.87215 33.5948 5.32361Z" fill="white"/>
<path fill-rule="evenodd" clip-rule="evenodd" d="M6.40525 34.6797L8.35409 33.4909C8.35409 33.4909 7.9156 31.4641 6.08044 28.4304C4.18681 25.2863 2.65697 24.0682 2.65697 24.0682L0.70813 25.257C1.69366 28.8667 3.66665 32.1299 6.40525 34.6797Z" fill="white"/>
<path fill-rule="evenodd" clip-rule="evenodd" d="M39.3797 24.9777L37.4016 23.8181C37.4016 23.8181 35.8231 25.1661 34.0301 28.2257C32.1722 31.3959 31.8312 33.322 31.8312 33.322L33.806 34.4783C36.5126 31.8924 38.4431 28.6019 39.3797 24.9777Z" fill="white"/>
<path fill-rule="evenodd" clip-rule="evenodd" d="M0.623657 15.0256L2.59848 16.1851C2.59848 16.1851 4.1738 14.834 5.96673 11.7743C7.82463 8.60415 8.16893 6.68129 8.16893 6.68129L6.19735 5.52173C3.48884 8.10738 1.55811 11.3995 0.623657 15.0256Z" fill="white"/>
<g style="mix-blend-mode:multiply" opacity="0.5">
<path fill-rule="evenodd" clip-rule="evenodd" d="M0.649658 25.1174C0.649658 25.1174 4.66103 39.3699 20.0147 39.2335C36.1641 39.0873 39.3764 24.9225 39.3764 24.9225C39.3764 24.9225 36.0049 40.0033 19.9854 40.0033C3.96594 40.0033 0.649658 25.1174 0.649658 25.1174Z" fill="#22006B"/>
</g>
<path d="M28.8137 4.90782C29.0863 4.90782 29.3074 4.68678 29.3074 4.41412C29.3074 4.14145 29.0863 3.92041 28.8137 3.92041C28.541 3.92041 28.3199 4.14145 28.3199 4.41412C28.3199 4.68678 28.541 4.90782 28.8137 4.90782Z" fill="#FFA700"/>
<path d="M11.4105 4.90782C11.6831 4.90782 11.9042 4.68678 11.9042 4.41412C11.9042 4.14145 11.6831 3.92041 11.4105 3.92041C11.1378 3.92041 10.9167 4.14145 10.9167 4.41412C10.9167 4.68678 11.1378 4.90782 11.4105 4.90782Z" fill="#FFA700"/>
<path d="M28.8137 35.1733C29.0863 35.1733 29.3074 34.9523 29.3074 34.6796C29.3074 34.407 29.0863 34.1859 28.8137 34.1859C28.541 34.1859 28.3199 34.407 28.3199 34.6796C28.3199 34.9523 28.541 35.1733 28.8137 35.1733Z" fill="#FFA700"/>
<path fill-rule="evenodd" clip-rule="evenodd" d="M38.3272 19.875C38.3279 19.9728 38.2995 20.0685 38.2456 20.1501C38.1918 20.2318 38.1149 20.2955 38.0247 20.3334C37.9346 20.3713 37.8352 20.3815 37.7392 20.3628C37.6432 20.3442 37.555 20.2974 37.4856 20.2285C37.4162 20.1596 37.3689 20.0716 37.3496 19.9757C37.3303 19.8799 37.3398 19.7805 37.3771 19.6901C37.4144 19.5997 37.4777 19.5224 37.5589 19.468C37.6402 19.4136 37.7358 19.3845 37.8335 19.3845C37.9639 19.3845 38.089 19.4361 38.1815 19.528C38.274 19.6199 38.3264 19.7446 38.3272 19.875Z" fill="#FFA700"/>
<path fill-rule="evenodd" clip-rule="evenodd" d="M2.81283 19.8749C2.8244 19.9456 2.82047 20.0179 2.80132 20.0869C2.78216 20.1559 2.74823 20.2198 2.70189 20.2744C2.65554 20.329 2.59788 20.3728 2.53291 20.4028C2.46794 20.4329 2.3972 20.4485 2.32562 20.4485C2.25403 20.4485 2.1833 20.4329 2.11832 20.4028C2.05335 20.3728 1.99569 20.329 1.94935 20.2744C1.903 20.2198 1.86907 20.1559 1.84991 20.0869C1.83076 20.0179 1.82683 19.9456 1.83841 19.8749C1.85734 19.7594 1.91673 19.6543 2.00598 19.5785C2.09523 19.5027 2.20851 19.4611 2.32562 19.4611C2.44272 19.4611 2.55601 19.5027 2.64525 19.5785C2.7345 19.6543 2.79389 19.7594 2.81283 19.8749Z" fill="#FFA700"/>
<path d="M11.4105 35.1733C11.6831 35.1733 11.9042 34.9523 11.9042 34.6796C11.9042 34.407 11.6831 34.1859 11.4105 34.1859C11.1378 34.1859 10.9167 34.407 10.9167 34.6796C10.9167 34.9523 11.1378 35.1733 11.4105 35.1733Z" fill="#FFA700"/>
<path d="M26.0528 16.955C25.519 17.2809 25.0768 17.7371 24.7677 18.2809C24.4586 18.8246 24.2928 19.438 24.2859 20.0634C24.2889 20.7671 24.4978 21.4545 24.8868 22.0409C25.2758 22.6273 25.8279 23.087 26.4751 23.3634C26.2204 24.1864 25.8426 24.9661 25.3545 25.6761C24.6562 26.683 23.9286 27.6866 22.8178 27.6866C21.7069 27.6866 21.4243 27.037 20.1414 27.037C18.8584 27.037 18.4491 27.6866 17.4357 27.6866C16.4223 27.6866 15.7142 26.7577 14.899 25.6143C13.8204 24.0165 13.228 22.1403 13.1937 20.2128C13.1937 17.0427 15.2563 15.3602 17.2863 15.3602C18.3647 15.3602 19.2644 16.0683 19.94 16.0683C20.6156 16.0683 21.59 15.318 22.8178 15.318C23.451 15.3005 24.0788 15.4395 24.6454 15.7228C25.212 16.0061 25.6999 16.4249 26.0658 16.942L26.0528 16.955ZM22.2331 13.9927C22.7755 13.3574 23.0819 12.5543 23.1003 11.7191C23.1008 11.6101 23.091 11.5014 23.0711 11.3943C22.1424 11.4855 21.2837 11.9282 20.6708 12.6318C20.1233 13.2424 19.8052 14.0244 19.7711 14.8437C19.7714 14.943 19.7812 15.0419 19.8003 15.1393C19.8743 15.1521 19.9493 15.1586 20.0244 15.1588C20.4524 15.1258 20.8691 15.0057 21.249 14.8057C21.6288 14.6057 21.9637 14.3302 22.2331 13.996V13.9927Z" fill="white"/>
</g>
<defs>
<linearGradient id="paint0_linear_706_14759" x1="0" y1="20.0016" x2="40" y2="20.0016" gradientUnits="userSpaceOnUse">
<stop stop-color="#D9023D"/>
<stop offset="1" stop-color="#FF131D"/>
</linearGradient>
<linearGradient id="paint1_linear_706_14759" x1="20.0017" y1="40.0032" x2="20.0017" y2="0.00319481" gradientUnits="userSpaceOnUse">
<stop stop-color="#D9023D"/>
<stop offset="1" stop-color="#FF131D"/>
</linearGradient>
<linearGradient id="paint2_linear_706_14759" x1="19.9725" y1="20.7032" x2="20.0212" y2="20.5993" gradientUnits="userSpaceOnUse">
<stop stop-color="#13001D"/>
<stop offset="1" stop-color="#2F042F"/>
</linearGradient>
<linearGradient id="paint3_linear_706_14759" x1="20.0016" y1="34.3321" x2="20.0016" y2="5.67114" gradientUnits="userSpaceOnUse">
<stop offset="0.45" stop-color="white"/>
<stop offset="0.99" stop-color="#A21645"/>
</linearGradient>
<linearGradient id="paint4_linear_706_14759" x1="20.0016" y1="34.3321" x2="20.0016" y2="6.2915" gradientUnits="userSpaceOnUse">
<stop stop-color="#FFB561"/>
<stop offset="0.04" stop-color="#D49651"/>
<stop offset="0.1" stop-color="#A87740"/>
<stop offset="0.16" stop-color="#805B31"/>
<stop offset="0.22" stop-color="#5D4223"/>
<stop offset="0.29" stop-color="#402D18"/>
<stop offset="0.36" stop-color="#281D0F"/>
<stop offset="0.45" stop-color="#161008"/>
<stop offset="0.55" stop-color="#090704"/>
<stop offset="0.69" stop-color="#020101"/>
<stop offset="0.99"/>
</linearGradient>
<clipPath id="clip0_706_14759">
<rect width="40" height="40.0033" fill="white"/>
</clipPath>
</defs>
</svg>
