<svg width="50" height="37" viewBox="0 0 50 37" fill="none" xmlns="http://www.w3.org/2000/svg">
<path fill-rule="evenodd" clip-rule="evenodd" d="M18.0289 3.82393L16.2531 3.8227L17.4061 0H30.9428L16.8774 29.4394H5.91489L4.33648 6.57257C4.20854 5.00804 2.90605 3.77183 1.29374 3.77183H0.000488281L2.28179 0.00616226H14.1399L14.536 17.1621L19.3699 5.82036C19.4392 5.65235 19.4747 5.46738 19.4747 5.27316C19.4747 4.47471 18.8304 3.82393 18.0289 3.82393Z" fill="#100F0D"/>
<path fill-rule="evenodd" clip-rule="evenodd" d="M46.1865 26.65C46.9973 24.7788 46.9217 22.1907 44.2027 20.6986C42.763 19.9064 37.1723 17.1642 37.1723 17.1642C36.4278 16.7572 36.4448 16.3734 36.5311 16.1129C36.6437 15.7769 36.8933 15.2652 37.0243 15.0139C37.3172 14.4513 37.923 14.365 38.2498 14.365H43.7125C44.9333 14.365 46.7368 14.1877 47.7911 12.0359C48.8454 9.88255 49.9999 7.43787 49.9999 7.43787H34.5257C30.6552 7.43787 29.1863 8.23477 27.446 11.8293C27.446 11.8293 26.3732 14.1476 25.5362 15.8956C24.3601 18.3449 24.3832 21.1395 26.9805 22.4127C28.8888 23.3483 33.3435 25.6127 34.2082 26.0581C35.0745 26.502 34.8386 27.1202 34.7369 27.3714C34.6352 27.6227 34.1573 28.5105 34.0247 28.7571C33.7565 29.2566 32.6961 29.3768 32.2722 29.3752H21.8353L18.3224 36.8711H36.0702C40.6744 36.8711 42.2667 35.1509 43.321 32.848L46.1865 26.65Z" fill="#100F0D"/>
<path d="M0.164923 3.49592L0 3.77182H1.29325C2.90556 3.77182 4.2096 5.00803 4.33599 6.57257L5.9144 29.4394H16.8769L16.9308 29.3268H6.07926L4.4731 6.29659C4.34825 4.73206 3.04422 3.49585 1.4319 3.49585L0.164923 3.49592ZM36.2062 36.5962H18.4522L18.3228 36.8706H36.069C40.533 36.8706 42.1653 35.2552 43.2197 33.0587C42.1607 35.1134 40.4821 36.5962 36.2062 36.5962Z" fill="url(#paint0_linear_706_14735)"/>
<path d="M2.53104 0.488647L0.775391 3.34642H1.51989C3.61312 3.34642 4.75994 4.81847 4.8216 6.5726L6.35838 28.9709H16.5841L30.1793 0.49019H17.7525L16.9062 3.36492H18.0315C19.5744 3.36492 20.3282 4.77839 19.6053 6.48782C18.8823 8.19879 14.7452 17.9528 14.7452 17.9528H14.1009L13.509 0.488647H2.53104Z" fill="url(#paint1_linear_706_14735)"/>
<path d="M34.2193 7.91516C30.9192 7.91516 29.3238 8.85388 27.7254 12.3267C27.7254 12.3267 26.7435 14.3213 25.9497 16.06C24.5886 19.0318 25.2776 21.0249 27.5111 22.1593C29.407 23.1196 33.4085 25.0911 34.2733 25.535C35.1396 25.9805 35.4987 26.7975 35.2367 27.4325C35.1318 27.6838 34.6463 28.7057 34.4891 28.94C34.022 29.6321 33.2976 29.8263 32.661 29.8263H22.1208L19.0796 36.4005H35.7962C40.6871 36.4005 41.8663 34.6802 42.6678 33.0309C43.5942 31.1273 44.8289 28.6179 45.5333 27.0503C46.7926 24.2433 46.1869 22.1593 43.4139 20.7952C41.874 20.0368 36.9985 17.6106 36.9985 17.6106C36.254 17.2037 35.7839 16.638 36.1846 15.6638C36.3187 15.3355 36.4837 15.0072 36.6193 14.759C36.963 14.1271 37.5257 13.8897 38.5091 13.8897H43.2998C44.7533 13.8897 46.4027 13.7509 47.2628 12.0354C48.3371 9.89433 49.2481 7.91516 49.2481 7.91516H34.2193Z" fill="url(#paint2_linear_706_14735)"/>
<path fill-rule="evenodd" clip-rule="evenodd" d="M35.4628 26.9512C35.3611 27.2024 34.6459 28.7068 34.4887 28.9396C34.0201 29.6317 33.2971 29.8259 32.6605 29.8259H22.1219L19.0792 36.4H19.4075L22.2591 30.239H32.7977C33.4343 30.239 34.1573 30.0448 34.6258 29.3527C34.7831 29.1184 35.5522 27.4336 35.6555 27.1824C35.7896 26.8587 35.7496 26.071 35.1129 25.6702C35.1484 25.886 35.5445 26.7539 35.4628 26.9512ZM2.5321 0.489746L0.774902 3.34598H1.16641L2.67083 0.902843H13.0985L13.51 0.489746H2.5321ZM49.2477 7.91472H34.2189C30.9203 7.91472 29.3249 8.85499 27.7249 12.3278C27.7249 12.3278 26.7446 14.3224 25.9492 16.0611C25.1832 17.7335 25.2834 18.6738 25.7273 19.7481C25.4884 18.9173 25.4144 17.937 26.0864 16.4726C26.8818 14.7339 27.8637 12.7393 27.8637 12.7393C29.4621 9.26654 31.0575 8.32782 34.3561 8.32782H48.0022C48.5371 8.32782 49.2477 7.91472 49.2477 7.91472ZM17.9601 0.904386H29.1307C29.5577 0.904386 30.1789 0.491289 30.1789 0.491289H17.7535L16.9073 3.36447L17.3497 3.09011L17.9601 0.904386ZM43.4134 20.7948C41.8736 20.0379 36.8331 17.5316 36.8331 17.5316C36.4771 17.3358 36.2597 17.1031 36.0948 16.8102C36.158 17.3127 36.4632 17.6657 36.9719 17.9431C36.9719 17.9431 42.0108 20.4495 43.5506 21.2063C44.8392 21.8429 45.6593 22.6306 46.0431 23.577C45.7471 22.4456 44.8855 21.5192 43.4134 20.7948Z" fill="#D22B55"/>
<path d="M1.14832 3.13834L1.17447 3.1408L1.19297 3.11145L1.14832 3.13772V3.13834Z" fill="url(#paint3_linear_706_14735)"/>
<path d="M17.2252 3.13838C17.2252 3.13838 17.7015 2.86709 17.8171 2.50486C17.9312 2.13955 17.9898 1.99464 18.073 1.64937C18.1871 1.17616 17.9189 0.775391 17.9189 0.775391L17.2252 3.13838Z" fill="url(#paint4_linear_706_14735)"/>
<path d="M18.4739 2.96106C20.0153 2.96106 20.769 4.37454 20.0461 6.08396C19.3463 7.74406 15.0735 17.7864 14.83 18.3567C14.83 18.3567 15.1382 18.4352 15.482 17.7817C15.8257 17.1297 19.7347 7.79493 20.4577 6.08396C21.1806 4.37454 20.4283 2.96106 18.887 2.96106H18.4739Z" fill="url(#paint5_linear_706_14735)"/>
<path d="M19.4695 36.1539C19.4695 36.1539 19.969 35.8687 20.2156 35.4571C20.4622 35.0471 22.1932 31.1535 22.3165 30.8668C22.4399 30.5786 22.2563 30.1346 22.2563 30.1346L19.4695 36.1539Z" fill="url(#paint6_linear_706_14735)"/>
<path d="M34.3257 8.302C31.0255 8.302 29.4302 9.24226 27.8317 12.7151C27.8317 12.7151 27.0595 14.2827 26.2657 16.0214C25.8186 16.9956 25.5936 17.8618 25.572 18.6295C25.6152 19.935 26.2764 20.9292 27.4572 21.6383C25.8649 20.4576 25.4919 18.6094 26.6787 16.0214C27.4726 14.2827 28.2433 12.7151 28.2433 12.7151C29.8417 9.24226 31.4386 8.302 34.7373 8.302H34.3257Z" fill="url(#paint7_linear_706_14735)"/>
<path d="M35.1273 25.6814C35.6175 26.13 35.8148 26.7126 35.6175 27.1982C35.5126 27.4494 34.7157 29.1265 34.5585 29.3592C34.0915 30.0529 33.3685 30.2455 32.7319 30.2455H33.1435C33.7801 30.2455 34.5046 30.0529 34.9701 29.3592C35.1288 29.1265 35.8209 27.6837 35.9226 27.4325C36.1847 26.8036 35.8316 25.9943 34.9808 25.5458C35.0347 25.5904 35.0826 25.6352 35.1273 25.6814Z" fill="url(#paint8_linear_706_14735)"/>
<path d="M1.21773 3.0797C1.21773 3.0797 1.82504 2.81611 2.04546 2.46775C2.26743 2.12093 2.39382 1.93288 2.57879 1.60456C2.83158 1.15601 2.63576 0.767578 2.63576 0.767578L1.21773 3.0797Z" fill="url(#paint9_linear_706_14735)"/>
<path d="M1.22541 3.07515L1.19299 3.11214C1.19299 3.11214 4.60259 2.92101 5.09738 6.2967L6.63262 28.6811C6.70045 28.5917 6.99178 28.1847 6.9702 27.8549C6.94394 27.4803 5.50895 6.57261 5.50895 6.57261C5.23149 3.69479 3.8735 2.98575 1.4134 2.98267C1.31784 3.03347 1.24391 3.06738 1.22541 3.07515Z" fill="url(#paint10_linear_706_14735)"/>
<path fill-rule="evenodd" clip-rule="evenodd" d="M30.0107 0.491233L16.6112 28.5573H6.72765L6.63048 28.6636L5.09676 6.29766C5.0335 4.54354 3.88985 3.06995 1.79353 3.06995H1.27253L0.936495 3.258L2.63668 0.489624H2.53185L0.774658 3.34586H1.5207C3.57694 3.34586 4.7592 4.81945 4.81469 6.57204L6.35148 28.9703H16.5834L16.7144 28.6944L30.1786 0.491167L30.0107 0.491233ZM45.5327 26.6382C44.8298 28.2043 43.5951 30.7137 42.6687 32.6189C41.8657 34.2682 40.688 35.9869 35.7956 35.9869H19.7341L19.3056 36.2582L19.2916 36.2631C19.2916 36.2631 22.1078 30.1868 22.1602 30.0712C22.2126 29.9557 22.1217 29.8261 22.1217 29.8261L19.079 36.4003H35.7956C35.9312 36.4003 36.0638 36.399 36.1948 36.3953C36.2272 36.3941 36.261 36.3941 36.2949 36.3929C36.4105 36.3904 36.5277 36.3867 36.6402 36.3805C36.6526 36.3805 36.6634 36.3805 36.6772 36.3793C36.7989 36.3744 36.9177 36.367 37.0348 36.3593C37.0657 36.3581 37.0965 36.3544 37.1273 36.3532C37.226 36.3458 37.3231 36.3363 37.4202 36.327C37.4372 36.3258 37.4572 36.3246 37.4757 36.3209C37.5852 36.3098 37.6899 36.2977 37.7963 36.2853C37.8225 36.2829 37.8502 36.2779 37.8779 36.2742C37.9628 36.2619 38.0475 36.2496 38.1307 36.2372C38.1507 36.2348 38.1739 36.2311 38.1969 36.2286C38.2925 36.2132 38.3881 36.1947 38.479 36.1777C38.5053 36.1715 38.5298 36.1691 38.5561 36.1623C38.6301 36.1485 38.701 36.1329 38.7703 36.116C38.795 36.1111 38.8197 36.1049 38.8427 36.1006C38.929 36.0806 39.0123 36.0591 39.094 36.039C39.1171 36.0328 39.1417 36.025 39.1633 36.0189C39.2264 36.002 39.2881 35.9833 39.3467 35.9665C39.3713 35.9591 39.3975 35.951 39.4222 35.9418C39.4961 35.9187 39.5701 35.8955 39.641 35.8693C39.6642 35.8619 39.6857 35.8524 39.7089 35.8462C39.7597 35.8261 39.8106 35.8078 39.8615 35.7877C39.8877 35.779 39.9139 35.7677 39.9385 35.7568C40.0033 35.7291 40.0665 35.7044 40.1266 35.6752C40.1498 35.6666 40.1712 35.6567 40.1928 35.6458C40.236 35.6259 40.2776 35.6043 40.3192 35.5858C40.3455 35.572 40.3731 35.558 40.3979 35.5442C40.441 35.5227 40.4826 35.4996 40.5227 35.4764C40.5582 35.4579 40.592 35.4394 40.6261 35.4178C40.6585 35.3993 40.6923 35.3794 40.7247 35.3593C40.7525 35.3424 40.7771 35.3268 40.8049 35.3099C40.8326 35.2898 40.8618 35.2715 40.8897 35.2528C40.9313 35.2251 40.9699 35.1973 41.0114 35.1681C41.0345 35.1496 41.0591 35.1326 41.0823 35.1157C41.1085 35.0941 41.1362 35.0742 41.1609 35.0541C41.181 35.0386 41.201 35.0216 41.2178 35.0078C41.2656 34.9677 41.3119 34.9293 41.3566 34.8892L41.3981 34.8535C41.4228 34.8273 41.4505 34.8042 41.4752 34.778C41.4875 34.7669 41.4999 34.7564 41.5122 34.744C42.0471 34.2184 42.3815 33.6204 42.6682 33.0315C43.5946 31.1279 44.8293 28.6185 45.5322 27.0509C45.9838 26.0459 46.195 25.1334 46.1534 24.3133C46.1179 25.0239 45.9083 25.7992 45.5322 26.6393M49.247 7.91578H49.0543C48.7322 8.60633 48.0401 10.0722 47.2617 11.6244C46.4031 13.3385 44.7523 13.4787 43.2987 13.4787H38.5095C37.5246 13.4787 36.9635 13.7161 36.6197 14.3466C36.4826 14.5947 36.3192 14.9246 36.1835 15.2514C36.0479 15.5828 36.014 15.8679 36.0556 16.1145C36.0772 15.9743 36.1173 15.8248 36.1835 15.6645C36.3192 15.3377 36.4826 15.0078 36.6197 14.7597C36.7323 14.55 36.8725 14.3851 37.0421 14.2571C37.0836 14.2247 37.1268 14.197 37.1716 14.1692L37.1765 14.1643C37.269 14.1119 37.3676 14.0671 37.4786 14.0286L37.4926 14.0237C37.5403 14.0083 37.5912 13.9929 37.6421 13.9806C37.6507 13.9769 37.6591 13.9756 37.6667 13.9744C37.7808 13.9466 37.9026 13.9267 38.0351 13.9127C38.0505 13.9115 38.0676 13.9103 38.0814 13.9078C38.1338 13.9029 38.1847 13.9004 38.2386 13.8967C38.2571 13.8955 38.2756 13.8955 38.2941 13.8942C38.365 13.8918 38.4359 13.8893 38.5099 13.8893H43.2991C43.3684 13.8893 43.4362 13.8893 43.5056 13.8881H43.5426L43.7461 13.8831C43.7584 13.8831 43.7707 13.8831 43.7816 13.8831C43.9249 13.8782 44.0698 13.8708 44.2147 13.86C44.2246 13.8587 44.2317 13.8587 44.2394 13.8575C44.3103 13.8513 44.3827 13.8452 44.4536 13.8359C44.4623 13.8359 44.4706 13.8347 44.4799 13.8334C44.6263 13.818 44.7759 13.795 44.9223 13.764C44.9272 13.764 44.9309 13.7628 44.9362 13.7628C45.0071 13.7489 45.078 13.732 45.1505 13.7135L45.169 13.7085C45.317 13.6701 45.4603 13.6253 45.6006 13.5698C45.603 13.5686 45.6067 13.5673 45.6067 13.5673C45.676 13.5412 45.7455 13.5118 45.8133 13.4795C45.8195 13.4783 45.8244 13.4746 45.8287 13.4734C45.9674 13.407 46.1015 13.33 46.231 13.2422H46.2322C46.2954 13.199 46.3571 13.1528 46.4203 13.105C46.4228 13.1 46.4277 13.0963 46.4326 13.0926C46.5575 12.9909 46.6762 12.8784 46.7872 12.7505L46.7884 12.7492V12.7505C46.9641 12.5485 47.1244 12.3142 47.2616 12.0368C48.336 9.89576 49.247 7.91578 49.247 7.91578ZM27.7859 21.885C25.5509 20.7521 24.8619 18.7591 26.2229 15.7872C27.0198 14.05 28.0002 12.0555 28.0002 12.0555C28.5458 10.8701 29.0884 9.98226 29.7003 9.32408C28.9558 10.0038 28.3501 10.9718 27.7258 12.3298C27.7258 12.3298 26.7439 14.3244 25.9486 16.0631C25.4615 17.1252 25.238 18.0608 25.2534 18.8793V18.9132C25.2595 19.0997 25.2764 19.2801 25.3042 19.4542C25.3054 19.4616 25.3066 19.4696 25.3091 19.4743C25.3229 19.5529 25.3399 19.6316 25.3584 19.7086C25.3609 19.7197 25.3646 19.7302 25.3658 19.7411C25.4105 19.906 25.4645 20.0648 25.5308 20.2174C25.5357 20.2297 25.5394 20.242 25.5462 20.2513C25.5739 20.3176 25.6062 20.3823 25.6403 20.4455C25.6452 20.4578 25.6514 20.4687 25.6572 20.4794C25.6956 20.5534 25.7389 20.6258 25.7836 20.6937C25.8267 20.7615 25.873 20.8262 25.9223 20.8909C25.9334 20.9064 25.9439 20.9202 25.9547 20.9356C25.9979 20.9895 26.0441 21.0435 26.0904 21.0974C26.0978 21.1061 26.1074 21.1175 26.115 21.1268C26.1705 21.1884 26.2291 21.2501 26.2892 21.3087C26.3003 21.3198 26.3108 21.3286 26.32 21.3379C26.3724 21.3872 26.4248 21.4335 26.4788 21.4797C26.4958 21.4951 26.5127 21.5105 26.5297 21.526C26.5883 21.5737 26.6469 21.62 26.707 21.6647C26.7181 21.6721 26.7271 21.6801 26.7363 21.6863C26.8058 21.7387 26.8797 21.788 26.9552 21.8389C26.9737 21.85 26.9937 21.8635 27.0138 21.8759C27.0724 21.9129 27.1324 21.9498 27.1926 21.9854C27.2158 21.9992 27.2388 22.0131 27.262 22.0269C27.3437 22.0716 27.4239 22.1163 27.5102 22.161C29.4061 23.1229 33.4076 25.0928 34.2739 25.5367C34.3401 25.5722 34.4018 25.6076 34.4635 25.6462C34.4789 25.6573 34.4959 25.6694 34.5128 25.6801C34.5575 25.7095 34.6022 25.7418 34.6439 25.7741L34.6839 25.8065C34.7363 25.8497 34.7873 25.8944 34.8334 25.9406C34.8396 25.9468 34.8458 25.9529 34.8519 25.9591C34.8904 26.0007 34.9275 26.0407 34.9629 26.084C34.974 26.0963 34.9845 26.1102 34.9921 26.124C35.0261 26.1641 35.0554 26.2089 35.0832 26.2504C35.0893 26.2591 35.0955 26.2673 35.1002 26.2751C35.131 26.3275 35.1602 26.3799 35.1849 26.4339C35.1898 26.4425 35.1923 26.4524 35.1972 26.46C35.2172 26.5063 35.2357 26.551 35.2496 26.5987C35.2546 26.6098 35.257 26.6218 35.2619 26.6343C35.279 26.6867 35.2928 26.7406 35.302 26.7946C35.339 27.015 35.319 27.2354 35.2373 27.4358C35.1325 27.687 34.6454 28.709 34.4882 28.9417C34.4512 28.9956 34.4127 29.045 34.3726 29.0943C34.516 28.9788 34.647 28.8385 34.7626 28.6658C34.9214 28.4331 35.4084 27.4127 35.5102 27.1614C35.7722 26.5248 35.413 25.7063 34.5468 25.2609C34.3788 25.1745 34.0875 25.0281 33.716 24.8431C32.6524 24.3098 30.6116 23.3017 28.97 22.4832C28.5291 22.2597 28.122 22.0561 27.7859 21.885ZM14.3835 18.3677H14.7118L14.8273 18.3664C15.0709 17.7961 19.3452 7.7461 20.045 6.08754C20.1266 5.89641 20.1884 5.70835 20.2331 5.52492C20.2686 5.33225 20.29 5.13341 20.3163 5.00393V5.00269C20.3212 4.93327 20.3225 4.86551 20.3212 4.79923V4.77605C20.32 4.70983 20.3151 4.64348 20.3089 4.58028C20.3089 4.57412 20.3077 4.57165 20.3077 4.56647C20.3003 4.50482 20.2906 4.44476 20.2799 4.38459C20.2799 4.37965 20.2787 4.37719 20.2787 4.37226C20.2649 4.31061 20.2493 4.25203 20.2324 4.19345C20.23 4.18729 20.2275 4.17965 20.225 4.17348C20.2096 4.11639 20.1895 4.06089 20.1665 4.007L20.1652 4.00454C20.1437 3.95213 20.1175 3.89972 20.0896 3.8504C20.0872 3.843 20.0823 3.8335 20.0773 3.82573C20.0233 3.72844 19.9586 3.63602 19.8861 3.55278C19.8787 3.54539 19.8723 3.53885 19.8645 3.5312C19.829 3.48965 19.7905 3.45105 19.7505 3.41405C19.7455 3.41159 19.7431 3.40913 19.7394 3.40666C19.7024 3.37127 19.6608 3.34043 19.6192 3.30961C19.6118 3.30344 19.6037 3.29728 19.5945 3.29111C19.5498 3.26028 19.5051 3.23106 19.4558 3.20479C19.4484 3.19986 19.4403 3.19616 19.4326 3.19098C19.3879 3.16632 19.3432 3.14634 19.2969 3.12624C19.2883 3.12131 19.2784 3.11761 19.2692 3.11391C19.2184 3.09381 19.1644 3.07384 19.1104 3.05682C19.0981 3.05189 19.0858 3.04942 19.0734 3.04572C19.0226 3.03179 18.9701 3.01797 18.9177 3.00724L18.8946 3.00231C18.836 2.99121 18.7759 2.98381 18.7127 2.97604C18.6987 2.97481 18.6833 2.97481 18.6695 2.97358C18.6264 2.96865 18.5832 2.96865 18.5416 2.96742C18.4645 2.96125 18.3874 2.95632 18.3057 2.95632H17.498L17.0988 3.23377L17.905 0.494686H17.7539L16.9077 3.36787H18.0329C19.4279 3.36787 20.1755 4.52393 19.7716 6.00985C19.7667 6.03451 19.7593 6.0561 19.7515 6.08076C19.7503 6.08816 19.7466 6.09777 19.7441 6.10542C19.7164 6.19322 19.6886 6.28115 19.6562 6.36284C19.6392 6.406 19.6238 6.44755 19.6054 6.49231C18.8871 8.18941 14.8054 17.8186 14.7484 17.9527L14.101 17.9552C14.101 17.9552 14.2058 18.3683 14.3846 18.3683" fill="#581217"/>
<path d="M30.1793 0.491211H17.7617L17.8573 0.629932H29.945L30.1793 0.491211Z" fill="white"/>
<path d="M34.2195 7.91528C32.0877 7.91528 30.6681 8.30834 29.4982 9.52143C30.702 8.4147 32.171 8.05246 34.2195 8.05246H48.9893C48.9754 8.05246 49.2483 7.91528 49.2483 7.91528H34.2195Z" fill="white"/>
<path d="M2.53175 0.489746L0.774536 3.34598L0.964127 3.24116L2.58415 0.594561H13.4002L13.5098 0.489746H2.53175Z" fill="white"/>
<path d="M43.4137 20.7944C41.8738 20.0376 36.9983 17.6114 36.9983 17.6114C36.4619 17.317 36.0719 16.9424 36.0411 16.3937C36.0087 17.0179 36.4187 17.4311 36.9983 17.747C36.9983 17.747 41.8738 20.1763 43.4137 20.9331C45.2325 21.8272 46.1189 23.031 46.1574 24.5462C46.1697 22.9663 45.2865 21.7162 43.4137 20.7944Z" fill="white"/>
<defs>
<linearGradient id="paint0_linear_706_14735" x1="15.0489" y1="22.4615" x2="13.1109" y2="20.6726" gradientUnits="userSpaceOnUse">
<stop stop-color="#3B3A3D"/>
<stop offset="1" stop-color="#211C1C"/>
</linearGradient>
<linearGradient id="paint1_linear_706_14735" x1="15.4765" y1="11.5151" x2="15.4765" y2="18.9393" gradientUnits="userSpaceOnUse">
<stop stop-color="#FF1749"/>
<stop offset="1" stop-color="#EE042B"/>
</linearGradient>
<linearGradient id="paint2_linear_706_14735" x1="34.1638" y1="11.5151" x2="34.1638" y2="18.9391" gradientUnits="userSpaceOnUse">
<stop stop-color="#67A9FF"/>
<stop offset="1" stop-color="#2F86C4"/>
</linearGradient>
<linearGradient id="paint3_linear_706_14735" x1="1.14834" y1="3.12695" x2="1.19351" y2="3.12695" gradientUnits="userSpaceOnUse">
<stop stop-color="white"/>
<stop offset="1" stop-color="#C51B31"/>
</linearGradient>
<linearGradient id="paint4_linear_706_14735" x1="18.0662" y1="0.93153" x2="17.043" y2="4.53182" gradientUnits="userSpaceOnUse">
<stop stop-color="white"/>
<stop offset="1" stop-color="#C51B31"/>
</linearGradient>
<linearGradient id="paint5_linear_706_14735" x1="13.762" y1="18.0639" x2="21.874" y2="-1.19264" gradientUnits="userSpaceOnUse">
<stop stop-color="white"/>
<stop offset="1" stop-color="#C51B31"/>
</linearGradient>
<linearGradient id="paint6_linear_706_14735" x1="19.4135" y1="36.7573" x2="23.6753" y2="27.5463" gradientUnits="userSpaceOnUse">
<stop stop-color="white"/>
<stop offset="1" stop-color="#C51B31"/>
</linearGradient>
<linearGradient id="paint7_linear_706_14735" x1="26.8541" y1="19.2952" x2="31.6662" y2="9.73976" gradientUnits="userSpaceOnUse">
<stop stop-color="white"/>
<stop offset="1" stop-color="#D12B55"/>
</linearGradient>
<linearGradient id="paint8_linear_706_14735" x1="33.5738" y1="30.3612" x2="37.148" y2="23.0296" gradientUnits="userSpaceOnUse">
<stop stop-color="white"/>
<stop offset="1" stop-color="#C51B31"/>
</linearGradient>
<linearGradient id="paint9_linear_706_14735" x1="2.88247" y1="0.722199" x2="0.796928" y2="4.17289" gradientUnits="userSpaceOnUse">
<stop stop-color="white"/>
<stop offset="1" stop-color="#C51B31"/>
</linearGradient>
<linearGradient id="paint10_linear_706_14735" x1="4.64516" y1="17.2669" x2="2.72049" y2="-1.22372" gradientUnits="userSpaceOnUse">
<stop stop-color="white"/>
<stop offset="1" stop-color="#C51B31"/>
</linearGradient>
</defs>
</svg>
