<svg width="55" height="55" viewBox="0 0 55 55" fill="none" xmlns="http://www.w3.org/2000/svg">
<path d="M54.086 0.568836C53.5075 0.0938362 52.7462 -0.0966639 52.0125 0.0493361C50.6243 0.325336 49.2883 0.660836 48 1.0545V54.9987H52.5C53.8807 54.9987 55 53.8793 55 52.4987V10.2772V2.50134C55 1.75284 54.6645 1.04367 54.086 0.568836Z" fill="#BBFBDB"/>
<path d="M0 40.832V52.4987C0 53.8793 1.11933 54.9987 2.5 54.9987H7V37.0177C5.4755 37.5623 3.82033 38.0207 2.01267 38.3798C0.842833 38.6125 0 39.6392 0 40.832Z" fill="#BBFBDB"/>
<path d="M30.5535 13.1573C28.6877 15.471 27.044 17.8897 25.4328 20.2627C24.9548 20.9668 24.4788 21.6673 24 22.3615V54.9987H31V12.6132C30.8615 12.7803 30.7233 12.9477 30.5872 13.116C30.5758 13.1295 30.5648 13.1433 30.5535 13.1573Z" fill="#BBFBDB"/>
<path d="M41.1045 3.97433C39.295 4.98817 37.5968 6.16317 36 7.5075V54.9987H43V2.9935C42.4842 3.24067 41.9758 3.49817 41.4772 3.76917C41.3468 3.82767 41.2217 3.89533 41.1045 3.97433Z" fill="#BBFBDB"/>
<path d="M12 34.6845V54.9987H19V28.8645C17.0148 31.0627 14.7633 33.0492 12 34.6845Z" fill="#BBFBDB"/>
</svg>
