<svg width="55" height="55" viewBox="0 0 55 55" fill="none" xmlns="http://www.w3.org/2000/svg">
<path d="M55 27.5C55 42.6694 42.6694 55 27.5 55C12.3306 55 0 42.6694 0 27.5C0 12.3306 12.3306 0 27.5 0C42.6694 0 55 12.3306 55 27.5ZM37.7681 33.621C37.7681 27.8548 31.6028 26.2137 28.9415 25.4597C23.9073 24.0625 23.4859 22.244 23.5524 21.3125C23.7298 19.0504 26.2137 18.496 28.5202 18.9839C30.3387 19.3831 32.2016 20.4476 33.2439 21.2681L36.5484 17.4093C34.9294 16.3004 32.8448 14.8589 29.8064 14.2823V10.5343H24.994V14.1492C20.3367 14.504 17.2319 17.4315 17.2319 21.4456C17.2319 25.371 20.0706 27.2117 22.9093 28.5867C25.2823 29.7177 31.8911 30.8931 31.5141 33.8871C31.3145 35.506 29.5847 36.7036 26.7238 36.3488C24.2399 36.0383 21.5786 33.9536 21.5786 33.9536L17.9415 37.5685C20.1371 39.3427 22.4657 40.4516 24.994 40.9617V44.4879H29.8064V41.1391C34.3972 40.629 37.7681 37.502 37.7681 33.621Z" fill="#BBFBDB"/>
</svg>
