<svg width="17" height="16" viewBox="0 0 17 16" fill="none" xmlns="http://www.w3.org/2000/svg">
<path d="M14.8853 4.57153H12.5996V5.71439H14.8853V6.85725H16.0282V5.71439C16.0282 5.41129 15.9078 5.1206 15.6934 4.90627C15.4791 4.69194 15.1884 4.57153 14.8853 4.57153Z" fill="#2D2926"/>
<path d="M16.0286 8H14.8857V11.4286H16.0286V8Z" fill="#2D2926"/>
<path d="M14.885 14.857H13.7422V15.9999H14.885C15.1881 15.9999 15.4788 15.8795 15.6932 15.6651C15.9075 15.4508 16.0279 15.1601 16.0279 14.857V12.5713H14.885V14.857Z" fill="#2D2926"/>
<path d="M11.4569 10.2857V1.14286C11.4569 0.839752 11.3365 0.549062 11.1222 0.334735C10.9078 0.120408 10.6171 0 10.314 0H1.17118C0.868073 0 0.577383 0.120408 0.363055 0.334735C0.148728 0.549062 0.0283203 0.839752 0.0283203 1.14286V10.2857C0.0283203 10.5888 0.148728 10.8795 0.363055 11.0938C0.577383 11.3082 0.868073 11.4286 1.17118 11.4286H10.314C10.6171 11.4286 10.9078 11.3082 11.1222 11.0938C11.3365 10.8795 11.4569 10.5888 11.4569 10.2857ZM1.17118 1.14286H10.314V10.2857H1.17118V1.14286Z" fill="#2D2926"/>
<path d="M12.5995 14.8572H9.1709V16H12.5995V14.8572Z" fill="#2D2926"/>
<path d="M5.74247 12.5713H4.59961V14.857C4.59961 15.1601 4.72002 15.4508 4.93434 15.6651C5.14867 15.8795 5.43936 15.9999 5.74247 15.9999H8.02818V14.857H5.74247V12.5713Z" fill="#2D2926"/>
</svg>
