<svg width="30" height="27" viewBox="0 0 30 27" fill="none" xmlns="http://www.w3.org/2000/svg">
<path d="M22.0012 16.8581H22.0152M25.8889 1H5.97778C4.2354 1 3.3642 1 2.6987 1.34059C2.1133 1.6402 1.63736 2.11826 1.3391 2.70628C1 3.37475 1 4.24982 1 5.99999V21C1 22.7502 1 23.6252 1.3391 24.2938C1.63736 24.8817 2.1133 25.3597 2.6987 25.6594C3.3642 26 4.23538 26 5.97778 26H24.0222C25.7646 26 26.6359 26 27.3013 25.6594C27.8867 25.3597 28.3627 24.8817 28.6609 24.2938C29 23.6252 29 22.7502 29 21V12.25C29 10.4999 29 9.62474 28.6609 8.95627C28.3627 8.36826 27.8867 7.89019 27.3013 7.59059C26.6359 7.24999 25.7646 7.24999 24.0222 7.24999H7.22222M22.7012 16.8581C22.7012 17.2464 22.3878 17.5613 22.0012 17.5613C21.6147 17.5613 21.3012 17.2464 21.3012 16.8581C21.3012 16.4699 21.6147 16.155 22.0012 16.155C22.3878 16.155 22.7012 16.4699 22.7012 16.8581Z" stroke="#1A1816" stroke-width="2" stroke-linecap="round" stroke-linejoin="round"/>
</svg>
