<svg width="46" height="39" viewBox="0 0 46 39" fill="none" xmlns="http://www.w3.org/2000/svg">
<path d="M43.4729 28.85C42.9229 34.9688 38.5 38.9792 32.0833 38.9792H11.4583C5.13333 38.9792 0 33.8458 0 27.5208V11.4792C0 5.24584 3.75833 0.891677 9.60208 0.158343C10.1979 0.0666767 10.8167 0.0208435 11.4583 0.0208435H32.0833C32.6792 0.0208435 33.2521 0.0437601 33.8021 0.135427C39.2792 0.777093 42.9917 4.60418 43.4729 10.15C43.5417 10.8146 42.9917 11.3646 42.3271 11.3646H38.775C36.575 11.3646 34.5354 12.2125 33.0687 13.725C31.3271 15.4208 30.4562 17.8042 30.6625 20.1875C31.0292 24.3583 34.6958 27.6354 39.05 27.6354H42.3271C42.9917 27.6354 43.5417 28.1854 43.4729 28.85Z" fill="#BBFBDB"/>
<path d="M45.8343 17.1377V21.8586C45.8343 23.119 44.826 24.1502 43.5427 24.1961H39.051C36.576 24.1961 34.3072 22.3857 34.101 19.9107C33.9635 18.4669 34.5135 17.1148 35.476 16.1752C36.3239 15.3044 37.4927 14.8003 38.776 14.8003H43.5427C44.826 14.8461 45.8343 15.8773 45.8343 17.1377Z" fill="#BBFBDB"/>
</svg>
