<?xml version="1.0" standalone="no"?>
<!DOCTYPE svg PUBLIC "-//W3C//DTD SVG 1.1//EN" "http://www.w3.org/Graphics/SVG/1.1/DTD/svg11.dtd" >
<svg xmlns="http://www.w3.org/2000/svg" xmlns:xlink="http://www.w3.org/1999/xlink" version="1.1">
<metadata>
Created by FontForge 20190801 at Thu Jun 13 04:56:25 2019
 By Unknown
</metadata>
<defs>
<font id="LanderGrande-Black" horiz-adv-x="0" >
  <font-face 
    font-family="Lander Grande Black"
    font-weight="900"
    font-stretch="normal"
    units-per-em="1000"
    panose-1="0 0 10 0 0 0 0 0 0 0"
    ascent="800"
    descent="-200"
    x-height="580"
    cap-height="750"
    bbox="-646 -486 1423 1096"
    underline-thickness="50"
    underline-position="-150"
    unicode-range="U+0020-1F16A"
  />
<missing-glyph horiz-adv-x="527" 
d="M98 -205v1053h334v-1053h-334zM177 743h68v-39h-69v-35h175v35h-70v39h70v34h-174v-34zM176 532h175v36h-70v74h-105v-110zM211 568v38h34v-38h-34zM176 469h69v-39h-69v-35h105v74h70v35h-175v-35zM316 371h-140v-36h175v105h-35v-69zM245 253h36v24h35v-49h-105v84h-35
v-119h175v119h-106v-59zM176 11h175v119h-175v-119zM211 46v49h105v-49h-105zM176 -48h74l-74 -50v-34h175v34h-108l74 50h34v35h-175v-35z" />
    <glyph glyph-name="f_i" unicode="fi" horiz-adv-x="725" 
d="M662.5 37q15.5 -21 52.5 -21v-16h-335v16q26 0 41 22.5t15 81.5v364q0 46 -13.5 63.5t-53.5 17.5h-93v-461q0 -88 59 -88v-16h-345v16q32 0 53.5 20t21.5 68v461h-63v15h63q3 91 56.5 154.5t137.5 94.5t179 31t139.5 -29t44.5 -86q0 -41 -31 -67t-87 -26q-52 0 -83.5 30
t-62.5 81q-18 30 -29.5 43t-24.5 13q-28 0 -28 -45v-194h371v-460q0 -62 15.5 -83z" />
    <glyph glyph-name="f_l" unicode="fl" horiz-adv-x="740" 
d="M677.5 37q15.5 -21 52.5 -21v-16h-346v16q33 0 50 22t17 82v575q-17 18 -33 39q-39 46 -64.5 69.5t-49.5 23.5q-28 0 -28 -45v-202h105v-15h-105v-461q0 -88 84 -88v-16h-370v16q32 0 53.5 20t21.5 68v461h-63v15h63q3 96 53.5 159t129.5 92t171 29q96 0 139 -31l93 23
l11 -4v-728q0 -62 15.5 -83z" />
    <glyph glyph-name="f_t" unicode="ft" horiz-adv-x="775" 
d="M779 87q-10 -18 -36.5 -41t-64 -40t-79.5 -17q-78 0 -116.5 30.5t-38.5 107.5v438h-168v-461q0 -88 84 -88v-16h-370v16q32 0 53.5 20t21.5 68v461h-63v15h63q3 96 52 159t123.5 92t153.5 29q72 0 107.5 -20t35.5 -57q0 -27 -19.5 -45t-60.5 -18q-42 0 -64 18t-43 50
q-12 20 -22 29.5t-24 9.5q-28 0 -28 -45v-202h168v74l211 64v-138h97v-15h-97v-446q0 -42 49 -42q37 0 66 20z" />
    <glyph glyph-name="f_h" unicode="fh" horiz-adv-x="1090" 
d="M1033 38.5q18 -22.5 47 -22.5v-16h-318v16q42 0 42 83v306q0 50 -13 74t-45 24q-23 0 -40.5 -10t-43.5 -32v-362q0 -83 43 -83v-16h-320v16q30 0 48 22.5t18 81.5v575q-17 18 -33 39q-39 46 -64.5 69.5t-49.5 23.5q-28 0 -28 -45v-202h105v-15h-105v-461q0 -88 84 -88
v-16h-370v16q32 0 53.5 20t21.5 68v461h-63v15h63q3 96 53.5 159t129.5 92t171 29q96 0 139 -31l93 23l11 -4v-369q38 36 63 57t62 38.5t80 17.5q75 0 111.5 -46t36.5 -108v-318q0 -59 18 -81.5z" />
    <glyph glyph-name="f_k" unicode="fk" horiz-adv-x="1092" 
d="M1084 0h-252q-27 38 -45 83.5t-44 138.5q-14 47 -34.5 65t-46.5 20v-187q0 -61 11 -82.5t36 -21.5v-16h-325v16q33 0 50 22t17 82v575q-17 18 -33 39q-39 46 -64.5 69.5t-49.5 23.5q-28 0 -28 -45v-202h105v-15h-105v-461q0 -88 84 -88v-16h-370v16q32 0 53.5 20t21.5 68
v461h-63v15h63q3 96 53.5 159t129.5 92t171 29q96 0 139 -31l93 23l11 -4v-520l82 72q35 32 57.5 68t22.5 62q0 15 -9 24.5t-26 10.5v15h261v-15q-152 -57 -284 -173l-75 -66q34 10 61 10q59 0 98 -11t68.5 -40t51.5 -84l44 -110q17 -43 32 -57.5t37 -17.5z" />
    <glyph glyph-name=".notdef" horiz-adv-x="527" 
d="M98 -205v1053h334v-1053h-334zM177 743h68v-39h-69v-35h175v35h-70v39h70v34h-174v-34zM176 532h175v36h-70v74h-105v-110zM211 568v38h34v-38h-34zM176 469h69v-39h-69v-35h105v74h70v35h-175v-35zM316 371h-140v-36h175v105h-35v-69zM245 253h36v24h35v-49h-105v84h-35
v-119h175v119h-106v-59zM176 11h175v119h-175v-119zM211 46v49h105v-49h-105zM176 -48h74l-74 -50v-34h175v34h-108l74 50h34v35h-175v-35z" />
    <glyph glyph-name=".null" 
 />
    <glyph glyph-name="nonmarkingreturn" horiz-adv-x="333" 
 />
    <glyph glyph-name="space" unicode=" " horiz-adv-x="169" 
 />
    <glyph glyph-name="exclam" unicode="!" horiz-adv-x="322" 
d="M129.5 387.5q-15.5 51.5 -44.5 120.5q-25 61 -36 96.5t-11 72.5q0 59 36 93t88 34q50 0 86 -35t36 -95q0 -36 -11.5 -72.5t-34.5 -91.5q-29 -66 -45 -119.5t-18 -114.5h-27q-3 60 -18.5 111.5zM77.5 15q-31.5 27 -31.5 70q0 45 31.5 73.5t78.5 28.5t78.5 -28.5
t31.5 -73.5q0 -43 -31.5 -70t-78.5 -27t-78.5 27z" />
    <glyph glyph-name="quotedbl" unicode="&#x22;" horiz-adv-x="446" 
d="M56 738q26 24 62 24t62 -24t26 -64q0 -20 -6 -39.5t-19 -54.5q-14 -36 -23 -63.5t-12 -59.5h-56q-3 32 -12 59.5t-23 63.5q-13 35 -19 54.5t-6 39.5q0 40 26 64zM266 738q26 24 62 24t62 -24t26 -64q0 -20 -6 -39.5t-19 -54.5q-14 -36 -23 -63.5t-12 -59.5h-56
q-3 32 -12 59.5t-23 63.5q-13 35 -19 54.5t-6 39.5q0 40 26 64z" />
    <glyph glyph-name="numbersign" unicode="#" horiz-adv-x="695" 
d="M510 467l-56 -205h164v-40h-176l-61 -223h-49l61 223h-211l-62 -223h-46l61 223h-135v40h146l56 205h-151v40h162l56 203h48l-56 -203h211l56 203h49l-56 -203h148v-40h-159zM461 467h-211l-57 -205h212z" />
    <glyph glyph-name="dollar" unicode="$" horiz-adv-x="632" 
d="M535.5 61q-71.5 -69 -195.5 -72v-83h-44v84q-132 4 -241 48v233h16q46 -106 104 -174.5t121 -87.5v266l-22 10q-71 32 -114.5 59.5t-74 75t-30.5 118.5q0 100 60.5 159t185.5 64v83h44v-82q126 -4 226 -48l-20 -170h-16q-40 85 -88.5 133t-101.5 61v-227
q89 -34 138 -59.5t86.5 -74.5t37.5 -127q0 -120 -71.5 -189zM218.5 579q28.5 -27 82.5 -51v216h-2q-48 0 -78.5 -24.5t-30.5 -72.5q0 -41 28.5 -68zM415.5 29q31.5 26 31.5 80q0 50 -28 83.5t-79 60.5v-250q44 0 75.5 26z" />
    <glyph glyph-name="percent" unicode="%" horiz-adv-x="789" 
d="M89.5 424q-42.5 23 -65.5 64t-23 93q0 53 23 94t65.5 64t98.5 23q55 0 97.5 -23t66 -64t23.5 -94q0 -52 -23.5 -93t-66 -64t-97.5 -23q-56 0 -98.5 23zM144 1h-73l574 759h73zM235 475.5q18 32.5 15 105.5q0 77 -17.5 110.5t-46.5 33.5q-30 0 -45.5 -31t-15.5 -105
q0 -146 65 -146q27 0 45 32.5zM490.5 8q-42.5 23 -65.5 64t-23 93q0 53 23 94t65.5 64t98.5 23q55 0 97.5 -23t66 -64t23.5 -94q0 -52 -23.5 -93t-66 -64t-97.5 -23q-56 0 -98.5 23zM636 59.5q18 32.5 15 105.5q0 77 -17.5 110.5t-46.5 33.5q-30 0 -45.5 -31t-15.5 -105
q0 -146 65 -146q27 0 45 32.5z" />
    <glyph glyph-name="ampersand" unicode="&#x26;" horiz-adv-x="834" 
d="M847 178q-28 -77 -81 -133.5t-126 -56.5q-64 0 -112.5 33t-90.5 85l-17 21q-25 -52 -80 -95.5t-137 -43.5q-55 0 -100 21.5t-71.5 63t-26.5 99.5q0 88 56 136t153 71q-34 44 -54 84t-20 88q0 59 31.5 107t88 76t126.5 28q103 0 156.5 -38.5t53.5 -103.5
q0 -47 -23.5 -78.5t-52.5 -48t-84 -41.5l115 -136q65 197 186 197q48 0 72 -26.5t24 -67.5q0 -43 -25.5 -71.5t-70.5 -28.5q-18 0 -54 8l-20 4t-27 3q-27 1 -44.5 -3.5t-27.5 -21.5l-12 5l79 -93q39 -46 72.5 -62t67.5 -16q21 0 34.5 9.5t24.5 31.5zM328.5 729
q-17.5 -17 -17.5 -54q0 -45 23 -87t81 -111l11 -13q41 53 41 139q0 75 -27 109t-63 34q-31 0 -48.5 -17zM406 144l-184 226l-1 2l-1 -2q-15 -22 -22.5 -46t-7.5 -55q0 -76 39 -113t92 -37q43 0 85 25z" />
    <glyph glyph-name="quotesingle" unicode="'" horiz-adv-x="236" 
d="M56 738q26 24 62 24t62 -24t26 -64q0 -20 -6 -39.5t-19 -54.5q-14 -36 -23 -63.5t-12 -59.5h-56q-3 32 -12 59.5t-23 63.5q-13 35 -19 54.5t-6 39.5q0 40 26 64z" />
    <glyph glyph-name="parenleft" unicode="(" horiz-adv-x="408" 
d="M198 -121.5q-73 65.5 -116.5 164.5t-43.5 228q0 128 43.5 227.5t116.5 164.5t166 99l6 -16q-70 -77 -106 -199t-36 -276t36 -276t106 -200l-6 -16q-93 34 -166 99.5z" />
    <glyph glyph-name="parenright" unicode=")" horiz-adv-x="408" 
d="M210 662.5q73 -65.5 116.5 -164.5t43.5 -228q0 -128 -43.5 -227.5t-116.5 -164.5t-166 -99l-6 16q70 77 106 199t36 276t-36 276t-106 200l6 16q93 -34 166 -99.5z" />
    <glyph glyph-name="asterisk" unicode="*" horiz-adv-x="442" 
d="M393.5 583q-9.5 -12 -27.5 -18q-13 -4 -29 -4q-15 0 -45 6q-35 5 -43 5q-7 0 -19 -2q9 -11 21 -17.5t32 -16.5q24 -11 37 -19.5t23 -22.5q11 -14 11 -32q0 -25 -23 -42q-16 -11 -32 -11q-24 0 -41 23q-10 14 -14 30t-7 40q-3 21 -6 35t-10 26q-7 -13 -10.5 -26.5
t-6.5 -34.5q-3 -25 -7 -40.5t-14 -29.5q-17 -23 -42 -23q-16 0 -32 11q-23 17 -23 41q0 17 12 33q10 14 23 22.5t37 19.5q20 10 32 16.5t21 17.5q-12 2 -19 2q-10 0 -24 -2t-20 -3q-30 -6 -44 -6q-31 0 -48.5 14.5t-17.5 37.5q0 25 14 40t36 15q10 0 19 -3q17 -5 29.5 -15.5
t29.5 -28.5q15 -16 25.5 -25t23.5 -15q-1 14 -8 29.5t-15 29.5q-12 23 -18 37.5t-6 31.5q0 24 15 38.5t38 14.5t37.5 -14.5t14.5 -38.5q0 -17 -6 -31.5t-18 -37.5q-8 -14 -15 -29.5t-8 -29.5q13 6 23.5 15t25.5 25q17 18 29.5 28.5t29.5 15.5q9 3 18 3q22 0 36.5 -15.5
t14.5 -40.5q0 -17 -9.5 -29z" />
    <glyph glyph-name="plus" unicode="+" horiz-adv-x="513" 
d="M471 309h-200v-197h-29v197h-200v25h200v197h29v-197h200v-25z" />
    <glyph glyph-name="comma" unicode="," horiz-adv-x="281" 
d="M214.5 136.5q28.5 -26.5 28.5 -77.5q0 -74 -52.5 -135.5t-132.5 -110.5l-12 15q52 44 78.5 77.5t41.5 75.5q-12 -2 -20 -2q-50 0 -79 25.5t-29 68.5q0 42 29.5 66t73.5 24q45 0 73.5 -26.5z" />
    <glyph glyph-name="hyphen" unicode="-" horiz-adv-x="489" 
d="M447 261h-405v40h405v-40z" />
    <glyph glyph-name="period" unicode="." horiz-adv-x="296" 
d="M69.5 15q-31.5 27 -31.5 70q0 45 31.5 73.5t78.5 28.5t78.5 -28.5t31.5 -73.5q0 -43 -31.5 -70t-78.5 -27t-78.5 27z" />
    <glyph glyph-name="slash" unicode="/" horiz-adv-x="485" 
d="M49 -108h-49l400 858h49z" />
    <glyph glyph-name="zero" unicode="0" horiz-adv-x="786" 
d="M204.5 41.5q-80.5 52.5 -123.5 140.5t-43 193t43 193.5t124 141t188 52.5q108 0 189 -52.5t123.5 -141t42.5 -193.5t-42.5 -193t-123.5 -140.5t-189 -52.5t-188.5 52.5zM456 45q24 37 35 117.5t11 212.5q0 134 -10.5 214t-34.5 117t-64 37q-41 0 -65.5 -37t-36 -117
t-11.5 -214q0 -197 27 -282t86 -85q39 0 63 37z" />
    <glyph glyph-name="one" unicode="1" horiz-adv-x="495" 
d="M389.5 41q29.5 -25 74.5 -25v-16h-418v16q45 0 74 25t29 84v494h-107v16q83 19 153 50.5t150 81.5l15 -1v-641q0 -59 29.5 -84z" />
    <glyph glyph-name="two" unicode="2" horiz-adv-x="671" 
d="M635 246l-14 -246h-587v123q153 81 251 206.5t98 293.5q0 119 -59 119q-27 0 -42.5 -22t-15.5 -55q0 -28 1 -41l1 -46q0 -48 -35 -78.5t-91 -30.5q-50 0 -81 29.5t-31 81.5q0 58 38 99t102.5 62t141.5 21q150 0 226 -50t76 -165q0 -133 -118.5 -219t-286.5 -148h376
l34 66h16z" />
    <glyph glyph-name="three" unicode="3" horiz-adv-x="693" 
d="M501.5 373q66.5 -13 112 -53t45.5 -117q0 -121 -91 -167.5t-266 -46.5q-131 0 -201.5 45.5t-70.5 127.5q0 54 34 84.5t84 30.5q119 0 119 -113q0 -17 -4 -45q-1 -7 -2 -16t-1 -19q0 -33 18 -54t48 -21q79 0 79 180q0 96 -37.5 143t-132.5 47h-18v15h18q64 0 99 24.5
t47.5 69.5t12.5 115t-16.5 104.5t-50.5 34.5q-51 0 -51 -75l1 -35q2 -26 2 -39q0 -52 -33 -79.5t-81 -27.5q-51 0 -80 31t-29 80q0 77 74.5 121t194.5 44q147 0 222.5 -42.5t75.5 -137.5q0 -93 -76.5 -139.5t-198.5 -55.5q87 -1 153.5 -14z" />
    <glyph glyph-name="four" unicode="4" horiz-adv-x="625" 
d="M538.5 41q29.5 -25 74.5 -25v-16h-418v16q45 0 74 25t29 84v131h-259l-23 45l336 454h157v-449h101v-50h-101v-131q0 -59 29.5 -84zM298 306v336l-248 -336h248z" />
    <glyph glyph-name="five" unicode="5" horiz-adv-x="644" 
d="M380.5 471.5q100.5 -20.5 162 -74t61.5 -154.5q0 -127 -87 -190.5t-233 -63.5q-121 0 -191.5 39.5t-70.5 111.5q0 49 29.5 76t79.5 27q57 0 90 -33t33 -87q0 -50 19 -82.5t59 -32.5q43 0 68.5 35.5t25.5 87.5q0 67 -47.5 107t-127.5 60t-198 31l72 421h401l13 28h21
l-23 -209h-415l-11 -66q169 -11 269.5 -31.5z" />
    <glyph glyph-name="six" unicode="6" horiz-adv-x="713" 
d="M626.5 421q63.5 -59 63.5 -174q0 -122 -82.5 -190t-241.5 -68q-99 0 -173 41.5t-114.5 122.5t-40.5 197q0 186 94 299t295 113q214 0 214 -95q0 -30 -23 -49.5t-58 -19.5q-43 0 -67 21.5t-47 61.5q-18 29 -30.5 42.5t-32.5 13.5q-49 0 -73 -81t-27 -246q58 70 177 70
q103 0 166.5 -59zM412.5 31q18.5 18 27.5 65.5t9 134.5q0 90 -20 140.5t-70 50.5q-49 0 -76 -58v-10v-110q0 -88 7.5 -138t25 -71.5t47.5 -21.5q31 0 49.5 18z" />
    <glyph glyph-name="seven" unicode="7" horiz-adv-x="636" 
d="M601 736l-39 -84q-49 -106 -80.5 -187t-57 -198.5t-31.5 -266.5h-307q16 141 80.5 247.5t136.5 170t161 124.5q15 9 27 18h-401l-38 -84h-20l17 274h543z" />
    <glyph glyph-name="eight" unicode="8" horiz-adv-x="697" 
d="M461 451q69 -35 109.5 -62t69.5 -70.5t29 -105.5q0 -75 -42.5 -125.5t-114 -74.5t-158.5 -24q-142 0 -231 43.5t-89 144.5q0 84 61.5 119.5t144.5 41.5q-51 30 -85 58t-56 68.5t-22 95.5q0 108 82.5 155t198.5 47q123 0 189 -38t66 -112q0 -65 -46 -101.5t-126 -49.5z
M300.5 712q-19.5 -29 -19.5 -72q0 -55 33 -92t94 -70q28 53 28 134q0 62 -19.5 95.5t-58.5 33.5q-38 0 -57.5 -29zM422 44.5q18 35.5 18 77.5q0 45 -20.5 79t-52 58.5t-80.5 52.5q-24 -47 -24 -149q0 -154 92 -154q49 0 67 35.5z" />
    <glyph glyph-name="nine" unicode="9" horiz-adv-x="713" 
d="M520 719.5q74 -41.5 114.5 -122.5t40.5 -197q0 -186 -94 -299t-295 -113q-214 0 -214 95q0 30 23 49.5t58 19.5q43 0 67 -21.5t47 -61.5q18 -29 30.5 -42.5t32.5 -13.5q49 0 73 81t27 246q-58 -70 -177 -70q-103 0 -166.5 59t-63.5 174q0 122 82.5 190t241.5 68
q99 0 173 -41.5zM430 386v10v110q0 88 -7.5 138t-25 71.5t-47.5 21.5q-31 0 -49.5 -18t-27.5 -65.5t-9 -134.5q0 -90 20 -140.5t70 -50.5q49 0 76 58z" />
    <glyph glyph-name="colon" unicode=":" horiz-adv-x="296" 
d="M69.5 15q-31.5 27 -31.5 70q0 45 31.5 73.5t78.5 28.5t78.5 -28.5t31.5 -73.5q0 -43 -31.5 -70t-78.5 -27t-78.5 27zM69.5 420q-31.5 27 -31.5 70q0 45 31.5 73.5t78.5 28.5t78.5 -28.5t31.5 -73.5q0 -43 -31.5 -70t-78.5 -27t-78.5 27z" />
    <glyph glyph-name="semicolon" unicode=";" horiz-adv-x="296" 
d="M69.5 421q-31.5 27 -31.5 70q0 45 31.5 73.5t78.5 28.5t78.5 -28.5t31.5 -73.5q0 -43 -31.5 -70t-78.5 -27t-78.5 27zM229.5 136.5q28.5 -26.5 28.5 -77.5q0 -74 -52.5 -135.5t-132.5 -110.5l-12 15q52 44 78.5 77.5t41.5 75.5q-12 -2 -20 -2q-50 0 -79 25.5t-29 68.5
q0 42 29.5 66t73.5 24q45 0 73.5 -26.5z" />
    <glyph glyph-name="less" unicode="&#x3c;" horiz-adv-x="567" 
d="M525 542v-28l-436 -154l436 -171v-28l-483 192v16z" />
    <glyph glyph-name="equal" unicode="=" horiz-adv-x="513" 
d="M471 416h-429v25h429v-25zM471 195h-429v25h429v-25z" />
    <glyph glyph-name="greater" unicode="&#x3e;" horiz-adv-x="567" 
d="M42 161v28l436 171l-436 154v28l483 -173v-16z" />
    <glyph glyph-name="question" unicode="?" horiz-adv-x="470" 
d="M312.5 726q64.5 -36 94 -90.5t29.5 -109.5q0 -121 -65.5 -168.5t-189.5 -47.5v-62h-27v212q39 -9 78 -9q54 0 89 3t65.5 20t30.5 55q0 27 -17 39.5t-47.5 15.5t-91.5 4q-20 0 -76 2q-69 0 -101.5 29.5t-32.5 73.5q0 38 25.5 53.5t73.5 15.5q98 0 162.5 -36zM251.5 158.5
q31.5 -28.5 31.5 -73.5q0 -43 -31.5 -70t-78.5 -27t-78.5 27t-31.5 70q0 45 31.5 73.5t78.5 28.5t78.5 -28.5z" />
    <glyph glyph-name="at" unicode="@" horiz-adv-x="992" 
d="M677 102q-3 -13 -3 -26q0 -42 38 -42q45 0 96.5 37.5t87 109t35.5 169.5q0 183 -109 270.5t-295 87.5q-120 0 -227 -56.5t-172.5 -162t-65.5 -245.5q0 -141 58 -243t157 -155t218 -53q76 0 150.5 27.5t135.5 80.5l13 -12q-62 -53 -139.5 -81.5t-159.5 -28.5
q-129 0 -232 56.5t-162 162t-59 246.5t66 250.5t176.5 170t240.5 60.5q127 0 222.5 -41.5t149 -125.5t53.5 -208q0 -117 -45 -195.5t-113 -115.5t-138 -37t-103.5 26t-37.5 75q-26 -48 -66 -74.5t-93 -26.5q-70 0 -104 48.5t-34 126.5q0 42 9 85q25 116 100 189t191 73
q79 0 123 -42l104 35h18zM484 101q22 32 38 84l56 267q-11 41 -46 41q-42 0 -70 -51t-56 -177q-14 -72 -14 -113q0 -83 46 -83q24 0 46 32z" />
    <glyph glyph-name="A" unicode="A" horiz-adv-x="696" 
d="M655 44.5q23 -28.5 46 -28.5v-16h-393v16q25 0 42 14.5t17 46.5q0 24 -12 60l-20 57h-185v-1q-14 -39 -14 -73q0 -47 26 -73.5t62 -30.5v-16h-254v16q102 11 160 175l198 563h24l254 -617q26 -64 49 -92.5zM330 210l-85 244l-89 -244h174z" />
    <glyph glyph-name="B" unicode="B" horiz-adv-x="775" 
d="M684.5 345q66.5 -47 66.5 -133q0 -112 -83 -162t-265 -50h-360v16q33 0 50 22t17 82v510q0 62 -15.5 83t-52.5 21v16h358q108 0 174.5 -14t100.5 -50t34 -101q0 -163 -224 -189q133 -4 199.5 -51zM321 402h38q66 0 104.5 49t38.5 128t-26 116t-76 39q-40 0 -59.5 -22
t-19.5 -82v-228zM500 68.5q36 52.5 36 138.5q0 89 -46 134t-123 45h-46v-266q0 -61 19.5 -82.5t62.5 -21.5q61 0 97 52.5z" />
    <glyph glyph-name="C" unicode="C" horiz-adv-x="697" 
d="M212 39q-84 50 -129 138t-45 199t45 199t129 137.5t198 49.5q150 -3 242 -32l-16 -239l-19 -1q-36 127 -83.5 190t-109.5 63q-68 0 -105 -83t-37 -284t37 -284.5t105 -83.5q62 0 112 71.5t81 201.5l19 -1l16 -259q-92 -29 -242 -32q-114 0 -198 50z" />
    <glyph glyph-name="D" unicode="D" horiz-adv-x="806" 
d="M672.5 656q95.5 -94 95.5 -277q0 -184 -95.5 -281.5t-277.5 -97.5h-352v16q33 0 50 22t17 82v510q0 62 -15.5 83t-52.5 21v16h352q183 0 278.5 -94zM473.5 55q27.5 39 38.5 117.5t11 207.5q0 124 -11.5 200.5t-39.5 115t-79 38.5h-14q-29 0 -43.5 -22t-14.5 -82v-510
q0 -62 13.5 -83t45.5 -21h16q50 0 77.5 39z" />
    <glyph glyph-name="E" unicode="E" horiz-adv-x="682" 
d="M653 270l-15 -270h-595v16q33 0 50 22t17 82v510q0 62 -15.5 83t-52.5 21v16h586l10 -256h-12q-98 240 -219 240h-28q-29 0 -43.5 -22t-14.5 -82v-222h17q49 0 86.5 37.5t57.5 97.5h15v-292h-15q-20 63 -57 101.5t-87 38.5h-17v-271q0 -62 13.5 -83t45.5 -21h19
q41 0 88 29t88.5 86.5t65.5 138.5h12z" />
    <glyph glyph-name="F" unicode="F" horiz-adv-x="667" 
d="M623 494h-12q-53 130 -101.5 185t-102.5 55h-28q-29 0 -43.5 -22t-14.5 -82v-252h12q49 0 86.5 37.5t57.5 97.5h15v-292h-15q-20 63 -57 101.5t-87 38.5h-12v-241q0 -61 21.5 -82.5t67.5 -21.5v-16h-367v16q33 0 50 22t17 82v510q0 62 -15.5 83t-52.5 21v16h571z" />
    <glyph glyph-name="G" unicode="G" horiz-adv-x="762" 
d="M756 337v-21h-4q-49 0 -49 -68v-209q-52 -22 -128.5 -36t-174.5 -14q-113 0 -195 50t-124.5 137.5t-42.5 199.5q0 114 44 201t136 136t231 49q82 0 143 -11.5t95 -26.5l-16 -233l-19 -1q-31 89 -59 143.5t-63 82t-82 27.5q-79 0 -122.5 -83t-43.5 -284q0 -368 138 -368
q60 0 104 51v171q0 40 -15.5 63t-58.5 23h-15v21h321zM564 132l-9 -23q7 13 9 23z" />
    <glyph glyph-name="H" unicode="H" horiz-adv-x="854" 
d="M761 38q17 -22 50 -22v-16h-337v16q32 0 45.5 21t13.5 83v261h-212v-261q0 -62 13.5 -83t45.5 -21v-16h-337v16q33 0 50 22t17 82v510q0 62 -15.5 83t-52.5 21v16h337v-16q-29 0 -43.5 -22t-14.5 -82v-231h212v231q0 60 -14.5 82t-43.5 22v16h337v-16q-37 0 -52.5 -21
t-15.5 -83v-510q0 -60 17 -82z" />
    <glyph glyph-name="I" unicode="I" horiz-adv-x="432" 
d="M327.5 55q6.5 -22 21 -30.5t41.5 -8.5v-16h-347v16q33 0 50 22t17 82v510q0 62 -15.5 83t-52.5 21v16h347v-16q-36 0 -52 -21.5t-16 -82.5v-510q0 -43 6.5 -65z" />
    <glyph glyph-name="J" unicode="J" horiz-adv-x="405" 
d="M387 750v-16q-36 0 -52 -21.5t-16 -82.5v-497q0 -123 -47.5 -201.5t-118.5 -113t-144 -34.5q-66 0 -99.5 18t-33.5 60q0 26 18.5 46t55.5 20q39 0 59 -18.5t38 -51.5q11 -20 18 -28.5t18 -8.5q14 0 19.5 8.5t5.5 26.5v774q0 62 -15.5 83t-52.5 21v16h347z" />
    <glyph glyph-name="K" unicode="K" horiz-adv-x="810" 
d="M825 0h-258q-26 21 -53 75t-71 160q-6 13 -12 28.5t-14 33.5q-17 39 -44.5 60t-51.5 23v-260q0 -43 6.5 -65t21 -30.5t41.5 -8.5v-16h-347v16q33 0 50 22t17 82v510q0 62 -15.5 83t-52.5 21v16h347v-16q-36 0 -52 -21.5t-16 -82.5v-233l165 182q23 25 38.5 58.5
t15.5 58.5q0 38 -35 38v16h265v-16q-19 0 -69 -25.5t-105 -64.5t-92 -79l-147 -159q46 12 82 12q79 0 132 -31t88 -109l81 -180q16 -36 35 -59t49 -23z" />
    <glyph glyph-name="L" unicode="L" horiz-adv-x="642" 
d="M618 300l-15 -300h-560v16q33 0 50 22t17 82v510q0 62 -15.5 83t-52.5 21v16h367v-16q-42 0 -65 -22t-23 -82v-510q0 -62 13.5 -83t45.5 -21h19q59 0 111.5 74.5t90.5 209.5h17z" />
    <glyph glyph-name="M" unicode="M" horiz-adv-x="1068" 
d="M976 38q17 -22 50 -22v-16h-337v16q32 0 45.5 21t13.5 83v599l-264 -720h-45l-285 688v-456q0 -64 16 -113t41 -75.5t51 -26.5v-16h-245v16q24 0 50.5 26.5t44.5 76t18 112.5v408q0 50 -16.5 72t-67.5 22v17h327l190 -464l171 463h284v-16q-32 0 -45.5 -21t-13.5 -83
v-509q0 -60 17 -82z" />
    <glyph glyph-name="N" unicode="N" horiz-adv-x="808" 
d="M791 750v-16q-24 0 -50.5 -26.5t-44.5 -76t-18 -112.5v-519h-121l-403 663v-432q0 -64 16 -113t41 -75.5t51 -26.5v-16h-245v16q24 0 50.5 26.5t44.5 76t18 112.5v408q0 49 -18 72t-66 23v16h317l291 -487v256q0 64 -16 113t-41 75.5t-51 26.5v16h245z" />
    <glyph glyph-name="O" unicode="O" horiz-adv-x="816" 
d="M212.5 39q-83.5 50 -129 137.5t-45.5 198.5t45.5 199t129 138t192.5 50q110 0 195 -50t131.5 -138.5t46.5 -198.5t-46.5 -198t-131.5 -138t-195 -50q-109 0 -192.5 50zM500.5 96.5q33.5 88.5 33.5 278.5q0 368 -130 368q-62 0 -92 -86.5t-30 -281.5q0 -193 32 -280
t92 -87q61 0 94.5 88.5z" />
    <glyph glyph-name="P" unicode="P" horiz-adv-x="744" 
d="M333 268v-148q0 -43 6.5 -65t21 -30.5t41.5 -8.5v-16h-347v16q33 0 50 22t17 82v511q0 50 -23.5 77t-56.5 27v15h333q121 0 195.5 -18.5t113.5 -66.5t39 -136q0 -91 -38.5 -148.5t-122.5 -85t-221 -27.5h-8zM333 286h11q89 0 121.5 70t32.5 184q0 100 -32.5 147.5
t-80.5 47.5q-30 0 -41 -16t-11 -52v-381z" />
    <glyph glyph-name="Q" unicode="Q" horiz-adv-x="836" 
d="M733.5 -124q25.5 -20 64.5 -20v-13q-37 -13 -86 -13q-74 0 -129 24.5t-103 85.5l-40 50q-11 -1 -35 -1q-109 0 -192.5 50t-129 137.5t-45.5 198.5t45.5 199t129 138t192.5 50q110 0 195 -50t131.5 -138.5t46.5 -198.5q0 -108 -45 -194.5t-125 -136.5l73 -108
q27 -40 52.5 -60zM314 95q32 -87 92 -87q61 0 94.5 88.5t33.5 278.5q0 368 -130 368q-62 0 -92 -86.5t-30 -281.5q0 -193 32 -280z" />
    <glyph glyph-name="R" unicode="R" horiz-adv-x="793" 
d="M822 0h-260q-35 35 -64.5 96t-66.5 161q-16 43 -43.5 68t-54.5 31v-236q0 -43 6.5 -65t21 -30.5t41.5 -8.5v-16h-347v16q33 0 50 22t17 82v511q0 50 -23.5 77t-56.5 27v15h333q128 0 199.5 -11t110 -47t38.5 -109q0 -98 -66 -148.5t-207 -64.5q76 -5 129.5 -35.5
t91.5 -108.5l65 -135q20 -40 41 -56t44 -19zM333 372q165 21 165 200q0 89 -34.5 126t-78.5 37q-30 0 -41 -16t-11 -52v-295z" />
    <glyph glyph-name="S" unicode="S" horiz-adv-x="632" 
d="M55 38v233h16q54 -125 124 -196.5t145 -71.5q44 0 75.5 26t31.5 80q0 45 -23 76.5t-57 52t-94 47.5q-71 33 -114 60t-73.5 74.5t-30.5 118.5q0 105 67 164.5t205 59.5q137 0 244 -48l-20 -170h-16q-48 104 -109 152t-127 48q-48 0 -78.5 -24.5t-30.5 -72.5
q0 -36 22.5 -61.5t56.5 -42t92 -38.5q79 -30 127.5 -56.5t83.5 -75t35 -123.5q0 -123 -75 -192t-203 -69q-153 0 -274 49z" />
    <glyph glyph-name="T" unicode="T" horiz-adv-x="744" 
d="M477 254v-129q0 -59 29.5 -84t74.5 -25v-16h-418v16q45 0 74 25t29 84v588q0 21 -16 21h-3q-48 0 -97 -81t-93 -234h-12l4 331h650l4 -331h-17q-44 154 -92.5 234.5t-96.5 80.5h-3q-16 0 -16 -21v-459h-1z" />
    <glyph glyph-name="U" unicode="U" horiz-adv-x="728" 
d="M236 12.5q-69 23.5 -102 75.5t-33 138v404q0 62 -15.5 83t-52.5 21v16h337v-16q-29 0 -43.5 -22t-14.5 -82v-460q0 -87 33.5 -122.5t112.5 -35.5q70 0 110 42.5t40 129.5v335q0 64 -16 113t-41 75.5t-51 26.5v16h245v-16q-24 0 -50.5 -26.5t-44.5 -76t-18 -112.5v-312
q0 -79 -20 -126t-66.5 -69.5t-127.5 -22.5q-113 0 -182 23.5z" />
    <glyph glyph-name="V" unicode="V" horiz-adv-x="679" 
d="M689 750v-16q-43 -8 -81.5 -61.5t-73.5 -165.5l-160 -507h-12l-260 620q-47 114 -102 114v16h375v-16q-21 0 -35 -12t-14 -40q0 -24 13 -62l109 -301l57 188q24 78 24 131q0 84 -61 96v16h221z" />
    <glyph glyph-name="W" unicode="W" horiz-adv-x="1071" 
d="M1081 750v-16q-51 -9 -93.5 -51t-73.5 -147l-159 -536h-16l-213 450l-162 -450h-12l-250 620q-46 114 -102 114v16h408v-16q-29 0 -48 -14t-19 -46q0 -19 11 -54l102 -298l161 437h2l204 -455l64 232q15 57 15 94q0 52 -23.5 74.5t-61.5 29.5v16h266z" />
    <glyph glyph-name="X" unicode="X" horiz-adv-x="740" 
d="M706 45q23 -29 42 -29v-16h-332v16q16 0 26.5 9t10.5 27q0 30 -29 74l-115 181l-50 -91q-27 -51 -27 -106q0 -41 17 -67.5t49 -26.5v-16h-298v16q36 0 83.5 34.5t90 84t64.5 91.5l55 105l-198 312q-21 34 -46.5 62.5t-47.5 28.5v16h325v-16q-16 0 -24 -7.5t-8 -21.5
q0 -23 21 -55l115 -180l40 71q14 25 21.5 53.5t7.5 54.5q0 38 -16 61.5t-47 23.5v16h293v-16q-39 0 -85 -33t-86.5 -80.5t-65.5 -90.5l-47 -83l197 -310q41 -63 64 -92z" />
    <glyph glyph-name="Y" unicode="Y" horiz-adv-x="700" 
d="M710 750v-15q-46 0 -96.5 -68.5t-82.5 -149.5l-61 -154v-226q0 -34 14 -61t36 -42.5t45 -15.5v-18h-409v18q23 0 45 15.5t36 42.5t14 61v213l-138 259q-28 52 -45 78t-32.5 37t-35.5 11v15h380v-15q-23 0 -42.5 -14t-19.5 -44q0 -29 21 -68l108 -207h9l48 115
q24 59 24 121q0 42 -12.5 69.5t-36.5 27.5v15h231z" />
    <glyph glyph-name="Z" unicode="Z" horiz-adv-x="734" 
d="M690 396l-15 -396h-635v16l377 718h-45q-89 0 -161 -76t-132 -258h-14l12 350h600v-16l-376 -718h42q103 0 184 91t145 289h18z" />
    <glyph glyph-name="bracketleft" unicode="[" horiz-adv-x="429" 
d="M391 734h-164v-933h164v-16h-349v965h349v-16z" />
    <glyph glyph-name="backslash" unicode="\" horiz-adv-x="446" 
d="M438 -108h-49l-389 833h49z" />
    <glyph glyph-name="bracketright" unicode="]" horiz-adv-x="429" 
d="M202 -199v933h-164v16h349v-965h-349v16h164z" />
    <glyph glyph-name="underscore" unicode="_" horiz-adv-x="500" 
d="M492 -143h-492v40h492v-40z" />
    <glyph glyph-name="grave" unicode="`" horiz-adv-x="364" 
d="M59 848h201l54 -209h-20l-244 193z" />
    <glyph glyph-name="a" unicode="a" horiz-adv-x="664" 
d="M669 119q-23 -72 -69.5 -101.5t-103.5 -29.5q-52 0 -87.5 23t-44.5 69q-80 -92 -188 -92q-66 0 -110 34.5t-44 110.5q0 59 33.5 96.5t104 63t201.5 52.5v182q0 44 -31 44q-17 0 -29.5 -12.5t-23.5 -35.5l-15 -36q-16 -39 -29.5 -64t-38 -43t-60.5 -18q-40 0 -66.5 22
t-26.5 58q0 49 48 83.5t121 51t147 16.5q89 0 152 -35t63 -139v-269q0 -44 38 -44q15 0 27 5.5t25 14.5zM362 96q-1 5 -1 15v218q-63 -18 -86 -56.5t-23 -93.5q0 -53 16 -76t46 -23q27 0 48 16z" />
    <glyph glyph-name="b" unicode="b" horiz-adv-x="690" 
d="M610.5 517.5q54.5 -74.5 54.5 -186.5q0 -344 -364 -344q-45 0 -115 10t-119 38v630q0 46 -14.5 73t-52.5 41v15l267 58l11 -4v-329q68 73 158 73q120 0 174.5 -74.5zM418 80.5q27 78.5 27 241.5q0 85 -27 139.5t-73 54.5q-20 0 -35 -4.5t-32 -16.5v-442q20 -51 56 -51
q57 0 84 78.5z" />
    <glyph glyph-name="c" unicode="c" horiz-adv-x="575" 
d="M158.5 24.5q-65.5 36.5 -99.5 101.5t-34 149q0 98 42 170t116.5 110t168.5 38q75 0 125 -28t50 -87q0 -44 -28.5 -66t-74.5 -22q-35 0 -55.5 16.5t-30.5 39.5t-19 58q-10 35 -18 50.5t-25 15.5q-29 0 -47 -44t-18 -106q0 -127 49.5 -202t150.5 -75q41 0 70 14t58 40
l15 -6q-28 -100 -90.5 -151.5t-148.5 -51.5q-91 0 -156.5 36.5z" />
    <glyph glyph-name="d" unicode="d" horiz-adv-x="695" 
d="M641 111.5q17 -22.5 61 -24.5v-15l-278 -82l-11 4v73q-30 -36 -71 -58t-92 -22q-81 0 -131.5 41.5t-72 106.5t-21.5 139q0 78 28 149.5t97.5 120t185.5 48.5q43 0 77 -14v87q0 46 -14.5 73t-52.5 41v15l267 58l11 -4v-668q0 -46 17 -68.5zM413 92v432q-25 51 -68 51
q-37 0 -59 -25t-32 -87.5t-10 -175.5q0 -118 24.5 -173.5t74.5 -55.5q37 0 70 34z" />
    <glyph glyph-name="e" unicode="e" horiz-adv-x="574" 
d="M549 196q-3 -9 -25 -68.5t-79 -99.5t-141 -40q-80 0 -143.5 34t-99.5 99.5t-36 157.5q0 85 32 156.5t98.5 114.5t166.5 43q119 0 169.5 -62.5t50.5 -177.5l-1 -20h-331q21 -188 192 -188q46 0 78.5 14t59.5 42zM207 391q0 -27 1 -39h162q0 81 -6.5 129t-23 71.5
t-46.5 23.5q-87 0 -87 -185z" />
    <glyph glyph-name="f" unicode="f" horiz-adv-x="374" 
d="M542 760q0 -30 -20.5 -53.5t-61.5 -23.5q-43 0 -66 24.5t-44 67.5q-14 28 -23 40t-23 12q-28 0 -28 -45v-202h105v-15h-105v-461q0 -88 84 -88v-16h-370v16q32 0 53.5 20t21.5 68v461h-63v15h63q3 96 52 159t123.5 92t153.5 29q148 0 148 -100z" />
    <glyph glyph-name="g" unicode="g" horiz-adv-x="619" 
d="M441.5 598q-10.5 -7 -22.5 -25q68 -23 107.5 -70t39.5 -111q0 -61 -35.5 -106.5t-97.5 -70t-140 -24.5q-64 0 -120 16q-23 -18 -34 -30.5t-11 -25.5t8.5 -21t26.5 -8q32 0 63.5 1t58.5 2q100 4 142 4q63 0 102 -10t59.5 -37.5t20.5 -77.5q0 -104 -84.5 -162.5
t-259.5 -58.5q-111 0 -185.5 18t-74.5 58q0 31 33 46t90 28q-45 1 -80.5 24.5t-35.5 80.5q0 33 16 59.5t41 47.5t71 54l18 13q-66 24 -102.5 70.5t-36.5 109.5q0 61 34.5 106.5t96.5 69.5t143 24q62 0 113 -15q33 59 71.5 91.5t87.5 32.5q26 0 43 -13.5t17 -38.5
q0 -63 -59 -63q-12 0 -30 5t-23 6q-34 10 -45 10q-16 -2 -26.5 -9zM341 247.5q16 43.5 16 143.5t-16 144.5t-48 44.5t-48 -45.5t-16 -142.5t16 -142.5t48 -45.5t48 43.5zM451 -75q-26 8 -72 8h-217q-10 -24 -10 -45q0 -89 149 -89q83 0 129.5 25.5t46.5 62.5q0 30 -26 38z
" />
    <glyph glyph-name="h" unicode="h" horiz-adv-x="716" 
d="M659 38.5q18 -22.5 47 -22.5v-16h-318v16q42 0 42 83v306q0 50 -13 74t-45 24q-23 0 -40.5 -10t-43.5 -32v-362q0 -83 43 -83v-16h-320v16q30 0 48 22.5t18 81.5v545q0 46 -14.5 73t-52.5 41v15l267 58l11 -4v-369q38 36 63 57t62 38.5t80 17.5q75 0 111.5 -46t36.5 -108
v-318q0 -59 18 -81.5z" />
    <glyph glyph-name="i" unicode="i" horiz-adv-x="366" 
d="M303.5 37q15.5 -21 52.5 -21v-16h-346v16q33 0 50 22t17 82v283q0 46 -14.5 73t-52.5 41v15l267 58l11 -4v-466q0 -62 15.5 -83zM82 665q-36 29 -36 74q0 47 36 77t89 30q51 0 86.5 -30t35.5 -77q0 -45 -35.5 -74t-86.5 -29q-53 0 -89 29z" />
    <glyph glyph-name="j" unicode="j" horiz-adv-x="364" 
d="M82 665q-36 29 -36 74q0 47 36 77t89 30q51 0 86.5 -30t35.5 -77q0 -45 -35.5 -74t-86.5 -29q-53 0 -89 29zM277 590l11 -4v-453q0 -123 -47.5 -201.5t-118.5 -113t-144 -34.5q-66 0 -99.5 18t-33.5 60q0 26 18.5 46t55.5 20q39 0 59 -18.5t38 -51.5q11 -20 18 -28.5
t18 -8.5q14 0 19.5 8.5t5.5 26.5v547q0 46 -14.5 73t-52.5 41v15z" />
    <glyph glyph-name="k" unicode="k" horiz-adv-x="718" 
d="M710 0h-252q-27 38 -45 83.5t-44 138.5q-14 47 -34.5 65t-46.5 20v-187q0 -61 11 -82.5t36 -21.5v-16h-325v16q33 0 50 22t17 82v545q0 46 -14.5 73t-52.5 41v15l267 58l11 -4v-520l82 72q35 32 57.5 68t22.5 62q0 15 -9 24.5t-26 10.5v15h261v-15q-152 -57 -284 -173
l-75 -66q34 10 61 10q59 0 98 -11t68.5 -40t51.5 -84l44 -110q17 -43 32 -57.5t37 -17.5z" />
    <glyph glyph-name="l" unicode="l" horiz-adv-x="366" 
d="M303.5 37q15.5 -21 52.5 -21v-16h-346v16q33 0 50 22t17 82v545q0 46 -14.5 73t-52.5 41v15l267 58l11 -4v-728q0 -62 15.5 -83z" />
    <glyph glyph-name="m" unicode="m" horiz-adv-x="1069" 
d="M1012 38.5q18 -22.5 47 -22.5v-16h-318v16q42 0 42 83v306q0 50 -13 74t-45 24q-24 0 -41 -10t-44 -33q1 -8 1 -22v-339q0 -46 11 -64.5t32 -18.5v-16h-296v16q42 0 42 83v306q0 50 -13 74t-45 24q-23 0 -40.5 -10t-43.5 -32v-362q0 -83 43 -83v-16h-320v16q30 0 48 22.5
t18 81.5v283q0 46 -14.5 73t-52.5 41v15l267 58l11 -4v-107q38 36 63 57t62 38.5t80 17.5q63 0 98.5 -33t45.5 -83q6 6 41.5 39.5t80 55t87.5 21.5q75 0 111.5 -46t36.5 -108v-318q0 -59 18 -81.5z" />
    <glyph glyph-name="n" unicode="n" horiz-adv-x="716" 
d="M659 38.5q18 -22.5 47 -22.5v-16h-318v16q42 0 42 83v306q0 50 -13 74t-45 24q-23 0 -40.5 -10t-43.5 -32v-362q0 -83 43 -83v-16h-320v16q30 0 48 22.5t18 81.5v283q0 46 -14.5 73t-52.5 41v15l267 58l11 -4v-107q39 38 63.5 58t61.5 38t80 18q75 0 111.5 -46.5
t36.5 -108.5v-318q0 -59 18 -81.5z" />
    <glyph glyph-name="o" unicode="o" horiz-adv-x="665" 
d="M170.5 27q-69.5 39 -107.5 108t-38 155t38 155t107.5 108.5t161.5 39.5q93 0 163 -39.5t107.5 -108t37.5 -155.5t-37.5 -155.5t-107.5 -107.5t-163 -39q-92 0 -161.5 39zM384.5 32.5q17.5 28.5 24.5 89t7 168.5t-7 169t-25 90t-53 29t-52.5 -28t-24 -88.5t-6.5 -171.5
q0 -108 7 -169t25.5 -89t52.5 -28t51.5 28.5z" />
    <glyph glyph-name="p" unicode="p" horiz-adv-x="722" 
d="M308 -75q0 -59 15 -85.5t64 -28.5v-16h-361v16q29 0 50 27.5t21 86.5v467q0 41 -19.5 64.5t-57.5 39.5v15l277 79l11 -4v-74q68 81 164 81q81 0 131.5 -41.5t72 -106.5t21.5 -139q0 -78 -28 -149.5t-97.5 -120t-185.5 -48.5q-44 0 -78 14v-77zM308 487v-429
q25 -53 69 -53q37 0 59 25t32 87.5t10 175.5q0 118 -24.5 173.5t-74.5 55.5q-39 0 -71 -35z" />
    <glyph glyph-name="q" unicode="q" horiz-adv-x="703" 
d="M637 -160q12 -27 47 -29v-16h-361v16q43 0 67 26.5t24 87.5v142q-68 -81 -164 -81q-81 0 -131.5 41.5t-72 106.5t-21.5 139q0 78 28 149.5t97.5 120t185.5 48.5q80 0 138 -50l140 41h11v-657q0 -58 12 -85zM414 92v429q-25 53 -69 53q-37 0 -59 -25t-32 -87.5t-10 -175.5
q0 -118 24.5 -173.5t74.5 -55.5q39 0 71 35z" />
    <glyph glyph-name="r" unicode="r" horiz-adv-x="557" 
d="M510.5 566.5q25.5 -26.5 25.5 -70.5q0 -45 -24 -75t-69 -30q-26 0 -43.5 7t-34.5 19q-9 6 -17.5 10.5t-17.5 4.5q-20 0 -31 -19.5t-11 -56.5v-247q0 -49 19 -70.5t63 -22.5v-16h-359v16q30 0 48 22.5t18 81.5v283q0 46 -14.5 73t-52.5 41v15l267 58l11 -4v-163
q9 73 48.5 121.5t103.5 48.5q45 0 70.5 -26.5z" />
    <glyph glyph-name="s" unicode="s" horiz-adv-x="519" 
d="M139 -2q-54 10 -101 31l-1 183l13 2q20 -54 59 -102.5t84.5 -78.5t82.5 -30q36 0 55.5 16.5t19.5 48.5q0 28 -17.5 49.5t-43.5 37.5t-74 41q-59 30 -97 55.5t-64.5 64t-26.5 91.5t27.5 95t80 66.5t124.5 24.5q130 0 209 -36l-19 -141l-10 -1q-57 75 -108 119t-100 44
q-31 0 -49.5 -15.5t-18.5 -38.5q0 -34 31 -55.5t98 -50.5q65 -28 106.5 -52.5t71 -65t29.5 -99.5q0 -99 -64 -156t-170 -57q-73 0 -127 10z" />
    <glyph glyph-name="t" unicode="t" horiz-adv-x="401" 
d="M405 87q-10 -18 -36.5 -41t-64 -40t-79.5 -17q-78 0 -116.5 30.5t-38.5 107.5v438h-78v15h78v117l211 52v-169h97v-15h-97v-446q0 -42 49 -42q37 0 66 20z" />
    <glyph glyph-name="u" unicode="u" horiz-adv-x="690" 
d="M633.5 111q16.5 -22 60.5 -24v-15l-277 -82l-11 4v98q-50 -47 -94.5 -75.5t-101.5 -28.5q-75 0 -111.5 46t-36.5 108v271q0 48 -11.5 73t-44.5 31v15l256 58l11 -4v-411q0 -50 13 -74t45 -24q21 0 38 8.5t37 26.5v301q0 48 -11.5 73t-44.5 31v15l256 58l11 -4v-406
q0 -47 16.5 -69z" />
    <glyph glyph-name="v" unicode="v" horiz-adv-x="583" 
d="M614 580v-16q-12 0 -40.5 -15.5t-56.5 -44.5t-43 -69l-156 -435h-21l-240 476q-25 49 -44.5 68.5t-39.5 19.5v16h345v-16q-22 0 -38 -10.5t-16 -32.5q0 -19 13 -45l112 -220l60 177q11 35 11 55q0 60 -69 76v16h223z" />
    <glyph glyph-name="w" unicode="w" horiz-adv-x="840" 
d="M871 580v-16q-45 -11 -70.5 -31.5t-42 -53.5t-42.5 -103l-138 -376h-16l-173 312l-129 -312h-16l-187 474q-19 47 -41 67.5t-43 20.5v18h348v-18q-24 0 -41.5 -12t-17.5 -38q0 -18 8 -38l75 -198l121 311h13l175 -318l40 107q24 66 24 107q0 36 -17.5 56t-53.5 25v16h224
z" />
    <glyph glyph-name="x" unicode="x" horiz-adv-x="638" 
d="M594.5 34q16.5 -18 34.5 -18v-16h-312v16q12 0 21 7.5t9 21.5q0 22 -24 59l-76 115l-18 -26q-48 -70 -48 -118q0 -47 49 -59v-16h-248v16q58 14 117.5 63.5t108.5 121.5l26 38l-156 237q-35 52 -51.5 70t-34.5 18v16h312v-16q-12 0 -21 -7.5t-9 -21.5q0 -22 24 -59
l74 -112l15 23q46 67 46 115q0 24 -13 40t-39 22v16h243v-16q-110 -28 -216 -185l-23 -35l158 -240q35 -52 51.5 -70z" />
    <glyph glyph-name="y" unicode="y" horiz-adv-x="555" 
d="M612 580v-16q-12 0 -40.5 -15t-57 -44.5t-42.5 -69.5l-158 -449q-34 -98 -94.5 -147t-126.5 -49q-67 0 -97.5 25.5t-30.5 67.5q0 32 21.5 58.5t62.5 26.5q22 0 39 -6t44 -19q22 -11 38 -17t35 -6q21 0 47 13t40 49l8 20l-245 474q-26 49 -45 68.5t-39 19.5v16h355v-16
q-24 0 -43 -11.5t-19 -36.5q0 -18 11 -40l112 -218l60 175q11 35 11 55q0 60 -69 76v16h223z" />
    <glyph glyph-name="z" unicode="z" horiz-adv-x="608" 
d="M557 306l-12 -306h-518v16l295 548h-24q-70 0 -127.5 -58.5t-111.5 -196.5h-12l10 271h490v-16l-295 -548h22q81 0 143.5 68t125.5 222h14z" />
    <glyph glyph-name="braceleft" unicode="{" horiz-adv-x="502" 
d="M238 269q89 -13 89 -98v-303q0 -31 15.5 -48.5t47.5 -17.5h74v-16h-216q-51 0 -78.5 27t-27.5 79v290q0 30 -12.5 46t-35.5 18l-56 3v39l56 3q23 2 35.5 18t12.5 46v289q0 52 27.5 79t78.5 27h216v-16h-76q-31 0 -46 -17.5t-15 -48.5v-299q0 -87 -89 -100z" />
    <glyph glyph-name="bar" unicode="|" horiz-adv-x="128" 
d="M86 -250h-44v1150h44v-1150z" />
    <glyph glyph-name="braceright" unicode="}" horiz-adv-x="502" 
d="M464 287v-39l-56 -3q-23 -2 -35.5 -18t-12.5 -46v-289q0 -52 -27.5 -79t-78.5 -27h-216v16h76q31 0 46 17.5t15 48.5v299q0 87 89 100q-89 13 -89 98v303q0 31 -15.5 48.5t-47.5 17.5h-74v16h216q51 0 78.5 -27t27.5 -79v-290q0 -30 12.5 -46t35.5 -18z" />
    <glyph glyph-name="exclamdown" unicode="&#xa1;" horiz-adv-x="322" 
d="M244.5 565q31.5 -27 31.5 -70q0 -45 -31.5 -73.5t-78.5 -28.5t-78.5 28.5t-31.5 73.5q0 43 31.5 70t78.5 27t78.5 -27zM192.5 192.5q15.5 -51.5 44.5 -120.5q25 -61 36 -96.5t11 -72.5q0 -59 -36 -93t-88 -34q-50 0 -86 35t-36 95q0 36 11.5 72.5t34.5 91.5
q29 66 45 119.5t18 114.5h27q3 -60 18.5 -111.5z" />
    <glyph glyph-name="cent" unicode="&#xa2;" horiz-adv-x="612" 
d="M567 192q-28 -100 -90.5 -151.5t-148.5 -51.5q-29 0 -59 5l-24 -89l-24 8l23 86q-99 24 -152.5 101t-53.5 186q0 91 42.5 161t117 108t167.5 38q12 0 36 -2l23 85l23 -7l-22 -81q52 -10 83.5 -37t31.5 -73q0 -44 -28.5 -66t-74.5 -22q-35 0 -59 19l-34 -125h2l-29 -109
q43 -31 107 -31q41 0 70 14t58 40zM242 285.5q18 -58.5 54 -93.5l16 60h-1l48 180q-9 15 -15 31t-13 42q-9 33 -17 49t-25 16q-29 0 -47 -44t-18 -106q0 -76 18 -134.5z" />
    <glyph glyph-name="sterling" unicode="&#xa3;" horiz-adv-x="665" 
d="M192 188h448v-188h-587v126q75 53 122 95t54 83l-163 -1v17l164 1q-3 16 -19 30.5t-48 36.5q-38 25 -63 47t-43.5 55t-18.5 76q0 95 81.5 145.5t233.5 50.5q82 0 150 -21t108.5 -63.5t40.5 -102.5q0 -54 -34 -84.5t-89 -30.5q-63 0 -100 30.5t-37 86.5q0 19 2 63l1 43
q0 27 -12 43t-34 16q-34 0 -52.5 -33.5t-18.5 -114.5q0 -54 14 -84.5t42 -65.5q24 -29 36 -53.5t12 -64.5v-4l193 2v-17l-196 -2q-19 -71 -187 -117z" />
    <glyph glyph-name="currency" unicode="&#xa4;" horiz-adv-x="629" 
d="M521 87l66 -59l-48 -48l-58 64q-34 -29 -77 -44t-89 -15q-47 0 -89.5 15t-76.5 44l-59 -64l-48 48l67 60q-49 68 -49 164q0 97 49 165l-67 60l48 48l58 -65q34 29 77 44.5t90 15.5q46 0 89 -15t77 -44l58 64l48 -48l-66 -59q50 -69 50 -166q0 -96 -50 -165zM396 84
q37 23 59.5 66t22.5 102q0 60 -22.5 103.5t-59.5 66t-81 22.5t-81 -22.5t-59 -66t-22 -103.5q0 -59 22 -102.5t59 -66t81 -22.5t81 23z" />
    <glyph glyph-name="yen" unicode="&#xa5;" horiz-adv-x="700" 
d="M470 363v-51h179v-22h-179v-105h179v-22h-179v-26q0 -34 14 -61t36 -42.5t45 -15.5v-18h-409v18q23 0 45 15.5t36 42.5t14 61v26h-170v22h170v105h-170v22h170v38l-138 259q-28 52 -45 78t-32.5 37t-35.5 11v15h380v-15q-23 0 -42.5 -14t-19.5 -44q0 -29 21 -68l108 -207
h9l48 115q24 59 24 121q0 42 -12.5 69.5t-36.5 27.5v15h231v-15q-46 0 -96.5 -68.5t-82.5 -149.5z" />
    <glyph glyph-name="section" unicode="&#xa7;" horiz-adv-x="632" 
d="M557 -82q50 -52 50 -143q0 -123 -75 -192t-203 -69q-153 0 -274 49v233h16q54 -125 124 -196.5t145 -71.5q44 0 75.5 26t31.5 80q0 45 -23 76.5t-57 52t-94 47.5q-71 33 -114 60t-73.5 74.5t-30.5 118.5q0 93 52 154t156 73q-66 30 -108.5 58t-71 74.5t-28.5 115.5
q0 105 67 164.5t205 59.5q137 0 244 -48l-20 -170h-16q-48 104 -109 152t-127 48q-48 0 -78.5 -24.5t-30.5 -72.5q0 -36 22.5 -61.5t56.5 -42t92 -38.5q79 -30 127.5 -56.5t83.5 -75t35 -123.5q0 -99 -49.5 -160.5t-139.5 -82.5q89 -37 139 -89zM212.5 110.5
q22.5 -25.5 56.5 -42t93 -38.5q10 -4 18.5 -7.5t16.5 -6.5q50 27 50 93q0 43 -21 74t-53.5 51.5t-85.5 44.5q-42 -4 -69.5 -32.5t-27.5 -74.5q0 -36 22.5 -61.5z" />
    <glyph glyph-name="dieresis" unicode="&#xa8;" horiz-adv-x="532" 
d="M78.5 664q-28.5 25 -28.5 63q0 40 28.5 65.5t69.5 25.5t69 -25.5t28 -65.5q0 -38 -28 -63t-69 -25t-69.5 25zM315.5 664q-28.5 25 -28.5 63q0 40 28.5 65.5t69.5 25.5t69 -25.5t28 -65.5q0 -38 -28 -63t-69 -25t-69.5 25z" />
    <glyph glyph-name="copyright" unicode="&#xa9;" horiz-adv-x="813" 
d="M226.5 29.5q-84.5 44.5 -136.5 129t-52 196.5t52 196.5t136.5 129t179.5 44.5t180 -44.5t137 -129t52 -196.5t-52 -196.5t-137 -129t-180 -44.5t-179.5 44.5zM562 63q74 38 120 112.5t46 179.5t-46 179.5t-120 112.5t-156 38t-155.5 -38t-119.5 -112.5t-46 -179.5
t46 -179.5t119.5 -112.5t155.5 -38t156 38zM315.5 160q-46.5 26 -73.5 77.5t-27 123.5q0 73 27 124.5t73.5 77.5t104.5 26q39 0 67.5 -9.5t55.5 -28.5l-14 -53q-23 17 -46 24.5t-59 7.5q-59 0 -101.5 -42t-42.5 -126t41.5 -126.5t102.5 -42.5q41 0 67.5 11t50.5 34l17 -54
q-28 -24 -60.5 -37t-78.5 -13q-58 0 -104.5 26z" />
    <glyph glyph-name="guillemotleft" unicode="&#xab;" horiz-adv-x="602" 
d="M347 529l-148 -264l148 -265h-22l-287 265l287 264h22zM564 529l-148 -264l148 -265h-22l-287 265l287 264h22z" />
    <glyph glyph-name="registered" unicode="&#xae;" horiz-adv-x="813" 
d="M226.5 29.5q-84.5 44.5 -136.5 129t-52 196.5t52 196.5t136.5 129t179.5 44.5t180 -44.5t137 -129t52 -196.5t-52 -196.5t-137 -129t-180 -44.5t-179.5 44.5zM556 74.5q71 36.5 115.5 108t44.5 172.5t-44.5 172.5t-115.5 108t-150 36.5t-149.5 -36t-115 -108t-44.5 -173
t44.5 -173t115 -108t149.5 -36t150 36.5zM409 565q69 0 110 -29.5t41 -92.5q0 -53 -28 -85t-77 -42l114 -170h-63l-110 166h-61v-166h-52v419h126zM477 375.5q25 21.5 25 63.5q0 41 -25 61.5t-69 20.5h-73v-166h73q44 -1 69 20.5z" />
    <glyph glyph-name="macron" unicode="&#xaf;" horiz-adv-x="426" 
d="M376 763v-80h-326v80h326z" />
    <glyph glyph-name="plusminus" unicode="&#xb1;" horiz-adv-x="513" 
d="M471 362v-25h-200v-187h-29v187h-200v25h200v187h29v-187h200zM42 25h429v-25h-429v25z" />
    <glyph glyph-name="acute" unicode="&#xb4;" horiz-adv-x="364" 
d="M50 639l54 209h201l9 -16l-244 -193h-20z" />
    <glyph glyph-name="paragraph" unicode="&#xb6;" horiz-adv-x="800" 
d="M359 -205v16q27 0 41.5 8.5t21 30.5t6.5 65v293h-8q-181 0 -281.5 71t-100.5 205q0 133 83 199.5t240 66.5h170v-955h-172zM705.5 708q-23.5 -27 -23.5 -77v-716q0 -60 17 -82t50 -22v-16h-170v955h183v-15q-33 0 -56.5 -27z" />
    <glyph glyph-name="periodcentered" unicode="&#xb7;" horiz-adv-x="304" 
d="M73.5 267q-31.5 27 -31.5 70q0 45 31.5 73.5t78.5 28.5t78.5 -28.5t31.5 -73.5q0 -43 -31.5 -70t-78.5 -27t-78.5 27z" />
    <glyph glyph-name="cedilla" unicode="&#xb8;" horiz-adv-x="354" 
d="M166 -53q68 0 103 -16t35 -53q0 -38 -47.5 -60t-113.5 -22q-64 0 -93 9l5 17q12 -3 36 -3q44 0 66 16t22 44q0 45 -63 45h-7l-1 23l40 53h25l-38 -53h31z" />
    <glyph glyph-name="guillemotright" unicode="&#xbb;" horiz-adv-x="602" 
d="M186 264l-148 265h22l287 -265l-287 -264h-22zM403 264l-148 265h22l287 -265l-287 -264h-22z" />
    <glyph glyph-name="onequarter" unicode="&#xbc;" horiz-adv-x="581" 
d="M205.5 445q14.5 -13 51.5 -13v-27h-235v27q36 0 51 13t15 39v195h-56v25q32 7 54.5 17t52.5 26l21 12h31v-275q0 -26 14.5 -39zM621 750l-574 -750h-73l574 750h73zM529 37q12 -10 46 -10v-27h-212v27q33 0 45 10t12 37v34h-147l-12 41l174 202h82v-198h56v-45h-56v-34
q0 -27 12 -37zM420 153v113l-100 -113h100z" />
    <glyph glyph-name="onehalf" unicode="&#xbd;" horiz-adv-x="650" 
d="M205.5 445q14.5 -13 51.5 -13v-27h-235v27q36 0 51 13t15 39v195h-56v25q32 7 54.5 17t52.5 26l21 12h31v-275q0 -26 14.5 -39zM621 750l-574 -750h-73l574 750h73zM631 129l-8 -129h-290v80q72 22 125.5 71t53.5 118q0 25 -11.5 37.5t-25.5 12.5q-16 0 -24.5 -9
t-8.5 -23q0 -3 3 -9t4 -11q-2 -24 -19 -37.5t-44 -13.5q-26 0 -41.5 13.5t-15.5 38.5q0 45 40.5 65.5t102.5 20.5q64 0 106.5 -22.5t42.5 -85.5q0 -60 -52.5 -101.5t-126.5 -61.5h144l24 46h21z" />
    <glyph glyph-name="threequarters" unicode="&#xbe;" horiz-adv-x="655" 
d="M296.5 562.5q32.5 -18.5 32.5 -61.5q0 -61 -45 -81t-126 -20q-65 0 -103.5 19.5t-38.5 55.5q0 29 16.5 44.5t43.5 15.5q25 0 41.5 -13t18.5 -40q0 -3 1.5 -11.5t6.5 -21.5q2 -6 8.5 -10.5t16.5 -4.5q17 0 29.5 14.5t12.5 46.5q0 39 -24.5 54.5t-74.5 15.5h-4v32h4
q48 0 70 17t22 61q0 50 -33 50q-23 0 -29 -21q-2 -7 -4 -25q-3 -22 -17.5 -33.5t-34.5 -11.5q-27 0 -40.5 16t-9.5 43q14 66 136 66q140 0 140 -87q0 -72 -102 -87q54 -4 86.5 -22.5zM695 750l-574 -750h-73l574 750h73zM603 37q12 -10 46 -10v-27h-212v27q33 0 45 10t12 37
v34h-147l-12 41l174 202h82v-198h56v-45h-56v-34q0 -27 12 -37zM494 153v113l-100 -113h100z" />
    <glyph glyph-name="questiondown" unicode="&#xbf;" horiz-adv-x="470" 
d="M235.5 422.5q-31.5 28.5 -31.5 73.5q0 43 31.5 70t78.5 27t78.5 -27t31.5 -70q0 -45 -31.5 -73.5t-78.5 -28.5t-78.5 28.5zM403.5 -38.5q32.5 -29.5 32.5 -73.5q0 -38 -25.5 -53.5t-73.5 -15.5q-98 0 -162.5 36t-94 90.5t-29.5 109.5q0 121 65.5 168.5t189.5 47.5v62h27
v-212q-39 9 -78 9q-54 0 -89 -3t-65.5 -20t-30.5 -55q0 -27 17 -39.5t47.5 -15.5t91.5 -4q20 0 76 -2q69 0 101.5 -29.5z" />
    <glyph glyph-name="Agrave" unicode="&#xc0;" horiz-adv-x="696" 
d="M655 44.5q23 -28.5 46 -28.5v-16h-393v16q25 0 42 14.5t17 46.5q0 24 -12 60l-20 57h-185v-1q-14 -39 -14 -73q0 -47 26 -73.5t62 -30.5v-16h-254v16q102 11 160 175l198 563h24l254 -617q26 -64 49 -92.5zM330 210l-85 244l-89 -244h174zM67 971h201l123 -159l-18 -12
l-315 155z" />
    <glyph glyph-name="Aacute" unicode="&#xc1;" horiz-adv-x="696" 
d="M655 44.5q23 -28.5 46 -28.5v-16h-393v16q25 0 42 14.5t17 46.5q0 24 -12 60l-20 57h-185v-1q-14 -39 -14 -73q0 -47 26 -73.5t62 -30.5v-16h-254v16q102 11 160 175l198 563h24l254 -617q26 -64 49 -92.5zM330 210l-85 244l-89 -244h174zM295 812l123 159h201l9 -16
l-315 -155z" />
    <glyph glyph-name="Acircumflex" unicode="&#xc2;" horiz-adv-x="696" 
d="M655 44.5q23 -28.5 46 -28.5v-16h-393v16q25 0 42 14.5t17 46.5q0 24 -12 60l-20 57h-185v-1q-14 -39 -14 -73q0 -47 26 -73.5t62 -30.5v-16h-254v16q102 11 160 175l198 563h24l254 -617q26 -64 49 -92.5zM330 210l-85 244l-89 -244h174zM500 799l-152 69l-152 -69h-20
l164 199h16l164 -199h-20z" />
    <glyph glyph-name="Atilde" unicode="&#xc3;" horiz-adv-x="696" 
d="M655 44.5q23 -28.5 46 -28.5v-16h-393v16q25 0 42 14.5t17 46.5q0 24 -12 60l-20 57h-185v-1q-14 -39 -14 -73q0 -47 26 -73.5t62 -30.5v-16h-254v16q102 11 160 175l198 563h24l254 -617q26 -64 49 -92.5zM330 210l-85 244l-89 -244h174zM325 818q-90 14 -116 14
q-19 0 -30.5 -10t-11.5 -26h-18q0 78 23.5 118.5t80.5 40.5q24 0 110 -14q81 -15 111 -15q24 0 39 10.5t15 26.5h18q0 -79 -23.5 -119t-80.5 -40q-25 0 -117 14z" />
    <glyph glyph-name="Adieresis" unicode="&#xc4;" horiz-adv-x="696" 
d="M655 44.5q23 -28.5 46 -28.5v-16h-393v16q25 0 42 14.5t17 46.5q0 24 -12 60l-20 57h-185v-1q-14 -39 -14 -73q0 -47 26 -73.5t62 -30.5v-16h-254v16q102 11 160 175l198 563h24l254 -617q26 -64 49 -92.5zM330 210l-85 244l-89 -244h174zM149.5 831q-30.5 25 -30.5 63
q0 40 30.5 65.5t75.5 25.5q44 0 74 -25.5t30 -65.5q0 -38 -30 -63t-74 -25q-45 0 -75.5 25zM396.5 831q-30.5 25 -30.5 63q0 40 30.5 65.5t75.5 25.5q44 0 74 -25.5t30 -65.5q0 -38 -30 -63t-74 -25q-45 0 -75.5 25z" />
    <glyph glyph-name="Aring" unicode="&#xc5;" horiz-adv-x="696" 
d="M655 44.5q23 -28.5 46 -28.5v-16h-393v16q25 0 42 14.5t17 46.5q0 24 -12 60l-20 57h-185v-1q-14 -39 -14 -73q0 -47 26 -73.5t62 -30.5v-16h-254v16q102 11 160 175l188 533q-37 8 -61 37.5t-24 67.5q0 44 31.5 75t75.5 31t75.5 -31t31.5 -75q0 -38 -23.5 -67t-59.5 -37
l242 -588q26 -64 49 -92.5zM286.5 775.5q22.5 -21.5 53.5 -21.5t53.5 21.5t22.5 53.5q0 31 -22.5 52.5t-53.5 21.5t-53.5 -21.5t-22.5 -52.5q0 -32 22.5 -53.5zM330 210l-85 244l-89 -244h174z" />
    <glyph glyph-name="AE" unicode="&#xc6;" horiz-adv-x="990" 
d="M961 270l-15 -270h-578v16q33 0 50 22t17 82v134h-228l-33 -66q-26 -51 -26 -90q0 -38 22 -58.5t54 -23.5v-16h-254v16q52 5 97 45.5t86 124.5l261 530q-9 10 -25.5 14t-41.5 4v16h589l10 -256h-12q-98 240 -219 240h-11q-29 0 -43.5 -22t-14.5 -82v-222q49 0 86.5 37.5
t57.5 97.5h15v-292h-15q-20 63 -57 101.5t-87 38.5v-271q0 -62 13.5 -83t45.5 -21h2q41 0 88 29t88.5 86.5t65.5 138.5h12zM435 270v360q0 44 -8 64l-212 -424h220z" />
    <glyph glyph-name="Ccedilla" unicode="&#xc7;" horiz-adv-x="697" 
d="M401 -11l-30 -42h31q68 0 103 -16t35 -53q0 -38 -47.5 -60t-113.5 -22q-64 0 -93 9l5 17q12 -3 36 -3q44 0 66 16t22 44q0 45 -63 45h-7l-1 23l33 43q-104 7 -180.5 58.5t-117.5 136.5t-41 191q0 111 45 199t129 137.5t198 49.5q150 -3 242 -32l-16 -239l-19 -1
q-36 127 -83.5 190t-109.5 63q-68 0 -105 -83t-37 -284t37 -284.5t105 -83.5q62 0 112 71.5t81 201.5l19 -1l16 -259q-92 -29 -242 -32h-9z" />
    <glyph glyph-name="Egrave" unicode="&#xc8;" horiz-adv-x="682" 
d="M653 270l-15 -270h-595v16q33 0 50 22t17 82v510q0 62 -15.5 83t-52.5 21v16h586l10 -256h-12q-98 240 -219 240h-28q-29 0 -43.5 -22t-14.5 -82v-222h17q49 0 86.5 37.5t57.5 97.5h15v-292h-15q-20 63 -57 101.5t-87 38.5h-17v-271q0 -62 13.5 -83t45.5 -21h19
q41 0 88 29t88.5 86.5t65.5 138.5h12zM94 971h201l123 -159l-18 -12l-315 155z" />
    <glyph glyph-name="Eacute" unicode="&#xc9;" horiz-adv-x="682" 
d="M653 270l-15 -270h-595v16q33 0 50 22t17 82v510q0 62 -15.5 83t-52.5 21v16h586l10 -256h-12q-98 240 -219 240h-28q-29 0 -43.5 -22t-14.5 -82v-222h17q49 0 86.5 37.5t57.5 97.5h15v-292h-15q-20 63 -57 101.5t-87 38.5h-17v-271q0 -62 13.5 -83t45.5 -21h19
q41 0 88 29t88.5 86.5t65.5 138.5h12zM322 812l123 159h201l9 -16l-315 -155z" />
    <glyph glyph-name="Ecircumflex" unicode="&#xca;" horiz-adv-x="682" 
d="M653 270l-15 -270h-595v16q33 0 50 22t17 82v510q0 62 -15.5 83t-52.5 21v16h586l10 -256h-12q-98 240 -219 240h-28q-29 0 -43.5 -22t-14.5 -82v-222h17q49 0 86.5 37.5t57.5 97.5h15v-292h-15q-20 63 -57 101.5t-87 38.5h-17v-271q0 -62 13.5 -83t45.5 -21h19
q41 0 88 29t88.5 86.5t65.5 138.5h12zM527 799l-152 69l-152 -69h-20l164 199h16l164 -199h-20z" />
    <glyph glyph-name="Edieresis" unicode="&#xcb;" horiz-adv-x="682" 
d="M653 270l-15 -270h-595v16q33 0 50 22t17 82v510q0 62 -15.5 83t-52.5 21v16h586l10 -256h-12q-98 240 -219 240h-28q-29 0 -43.5 -22t-14.5 -82v-222h17q49 0 86.5 37.5t57.5 97.5h15v-292h-15q-20 63 -57 101.5t-87 38.5h-17v-271q0 -62 13.5 -83t45.5 -21h19
q41 0 88 29t88.5 86.5t65.5 138.5h12zM176.5 831q-30.5 25 -30.5 63q0 40 30.5 65.5t75.5 25.5q44 0 74 -25.5t30 -65.5q0 -38 -30 -63t-74 -25q-45 0 -75.5 25zM423.5 831q-30.5 25 -30.5 63q0 40 30.5 65.5t75.5 25.5q44 0 74 -25.5t30 -65.5q0 -38 -30 -63t-74 -25
q-45 0 -75.5 25z" />
    <glyph glyph-name="Igrave" unicode="&#xcc;" horiz-adv-x="432" 
d="M327.5 55q6.5 -22 21 -30.5t41.5 -8.5v-16h-347v16q33 0 50 22t17 82v510q0 62 -15.5 83t-52.5 21v16h347v-16q-36 0 -52 -21.5t-16 -82.5v-510q0 -43 6.5 -65zM-65 971h201l123 -159l-18 -12l-315 155z" />
    <glyph glyph-name="Iacute" unicode="&#xcd;" horiz-adv-x="432" 
d="M327.5 55q6.5 -22 21 -30.5t41.5 -8.5v-16h-347v16q33 0 50 22t17 82v510q0 62 -15.5 83t-52.5 21v16h347v-16q-36 0 -52 -21.5t-16 -82.5v-510q0 -43 6.5 -65zM163 812l123 159h201l9 -16l-315 -155z" />
    <glyph glyph-name="Icircumflex" unicode="&#xce;" horiz-adv-x="432" 
d="M327.5 55q6.5 -22 21 -30.5t41.5 -8.5v-16h-347v16q33 0 50 22t17 82v510q0 62 -15.5 83t-52.5 21v16h347v-16q-36 0 -52 -21.5t-16 -82.5v-510q0 -43 6.5 -65zM368 799l-152 69l-152 -69h-20l164 199h16l164 -199h-20z" />
    <glyph glyph-name="Idieresis" unicode="&#xcf;" horiz-adv-x="432" 
d="M327.5 55q6.5 -22 21 -30.5t41.5 -8.5v-16h-347v16q33 0 50 22t17 82v510q0 62 -15.5 83t-52.5 21v16h347v-16q-36 0 -52 -21.5t-16 -82.5v-510q0 -43 6.5 -65zM17.5 831q-30.5 25 -30.5 63q0 40 30.5 65.5t75.5 25.5q44 0 74 -25.5t30 -65.5q0 -38 -30 -63t-74 -25
q-45 0 -75.5 25zM264.5 831q-30.5 25 -30.5 63q0 40 30.5 65.5t75.5 25.5q44 0 74 -25.5t30 -65.5q0 -38 -30 -63t-74 -25q-45 0 -75.5 25z" />
    <glyph glyph-name="Eth" unicode="&#xd0;" horiz-adv-x="806" 
d="M672.5 656q95.5 -94 95.5 -277q0 -184 -95.5 -281.5t-277.5 -97.5h-352v16q33 0 50 22t17 82v261h-68v18h68v231q0 62 -15.5 83t-52.5 21v16h352q183 0 278.5 -94zM473.5 55q27.5 39 38.5 117.5t11 207.5q0 124 -11.5 200.5t-39.5 115t-79 38.5h-14q-29 0 -43.5 -22
t-14.5 -82v-231h106v-18h-106v-261q0 -62 13.5 -83t45.5 -21h16q50 0 77.5 39z" />
    <glyph glyph-name="Ntilde" unicode="&#xd1;" horiz-adv-x="808" 
d="M791 750v-16q-24 0 -50.5 -26.5t-44.5 -76t-18 -112.5v-519h-121l-403 663v-432q0 -64 16 -113t41 -75.5t51 -26.5v-16h-245v16q24 0 50.5 26.5t44.5 76t18 112.5v408q0 49 -18 72t-66 23v16h317l291 -487v256q0 64 -16 113t-41 75.5t-51 26.5v16h245zM381 818
q-90 14 -116 14q-19 0 -30.5 -10t-11.5 -26h-18q0 78 23.5 118.5t80.5 40.5q24 0 110 -14q81 -15 111 -15q24 0 39 10.5t15 26.5h18q0 -79 -23.5 -119t-80.5 -40q-25 0 -117 14z" />
    <glyph glyph-name="Ograve" unicode="&#xd2;" horiz-adv-x="816" 
d="M212.5 39q-83.5 50 -129 137.5t-45.5 198.5t45.5 199t129 138t192.5 50q110 0 195 -50t131.5 -138.5t46.5 -198.5t-46.5 -198t-131.5 -138t-195 -50q-109 0 -192.5 50zM500.5 96.5q33.5 88.5 33.5 278.5q0 368 -130 368q-62 0 -92 -86.5t-30 -281.5q0 -193 32 -280
t92 -87q61 0 94.5 88.5zM127 971h201l123 -159l-18 -12l-315 155z" />
    <glyph glyph-name="Oacute" unicode="&#xd3;" horiz-adv-x="816" 
d="M212.5 39q-83.5 50 -129 137.5t-45.5 198.5t45.5 199t129 138t192.5 50q110 0 195 -50t131.5 -138.5t46.5 -198.5t-46.5 -198t-131.5 -138t-195 -50q-109 0 -192.5 50zM500.5 96.5q33.5 88.5 33.5 278.5q0 368 -130 368q-62 0 -92 -86.5t-30 -281.5q0 -193 32 -280
t92 -87q61 0 94.5 88.5zM355 812l123 159h201l9 -16l-315 -155z" />
    <glyph glyph-name="Ocircumflex" unicode="&#xd4;" horiz-adv-x="816" 
d="M212.5 39q-83.5 50 -129 137.5t-45.5 198.5t45.5 199t129 138t192.5 50q110 0 195 -50t131.5 -138.5t46.5 -198.5t-46.5 -198t-131.5 -138t-195 -50q-109 0 -192.5 50zM500.5 96.5q33.5 88.5 33.5 278.5q0 368 -130 368q-62 0 -92 -86.5t-30 -281.5q0 -193 32 -280
t92 -87q61 0 94.5 88.5zM560 799l-152 69l-152 -69h-20l164 199h16l164 -199h-20z" />
    <glyph glyph-name="Otilde" unicode="&#xd5;" horiz-adv-x="816" 
d="M212.5 39q-83.5 50 -129 137.5t-45.5 198.5t45.5 199t129 138t192.5 50q110 0 195 -50t131.5 -138.5t46.5 -198.5t-46.5 -198t-131.5 -138t-195 -50q-109 0 -192.5 50zM500.5 96.5q33.5 88.5 33.5 278.5q0 368 -130 368q-62 0 -92 -86.5t-30 -281.5q0 -193 32 -280
t92 -87q61 0 94.5 88.5zM385 818q-90 14 -116 14q-19 0 -30.5 -10t-11.5 -26h-18q0 78 23.5 118.5t80.5 40.5q24 0 110 -14q81 -15 111 -15q24 0 39 10.5t15 26.5h18q0 -79 -23.5 -119t-80.5 -40q-25 0 -117 14z" />
    <glyph glyph-name="Odieresis" unicode="&#xd6;" horiz-adv-x="816" 
d="M212.5 39q-83.5 50 -129 137.5t-45.5 198.5t45.5 199t129 138t192.5 50q110 0 195 -50t131.5 -138.5t46.5 -198.5t-46.5 -198t-131.5 -138t-195 -50q-109 0 -192.5 50zM500.5 96.5q33.5 88.5 33.5 278.5q0 368 -130 368q-62 0 -92 -86.5t-30 -281.5q0 -193 32 -280
t92 -87q61 0 94.5 88.5zM209.5 831q-30.5 25 -30.5 63q0 40 30.5 65.5t75.5 25.5q44 0 74 -25.5t30 -65.5q0 -38 -30 -63t-74 -25q-45 0 -75.5 25zM456.5 831q-30.5 25 -30.5 63q0 40 30.5 65.5t75.5 25.5q44 0 74 -25.5t30 -65.5q0 -38 -30 -63t-74 -25q-45 0 -75.5 25z
" />
    <glyph glyph-name="multiply" unicode="&#xd7;" horiz-adv-x="406" 
d="M221 322l143 -143l-18 -18l-143 143l-143 -143l-18 17l144 144l-143 143l17 18l144 -143l142 142l18 -18z" />
    <glyph glyph-name="Oslash" unicode="&#xd8;" horiz-adv-x="816" 
d="M742.5 551q35.5 -80 35.5 -176q0 -110 -46.5 -198t-131.5 -138t-195 -50q-136 0 -232 77l-66 -87l-15 10l68 89q-59 52 -90.5 128.5t-31.5 168.5q0 111 45.5 199t129 138t192.5 50q128 0 223 -68l61 81l15 -10l-62 -82q65 -52 100.5 -132zM312 656.5
q-30 -86.5 -30 -281.5q0 -72 5 -139l235 330q-29 177 -118 177q-62 0 -92 -86.5zM500.5 96.5q33.5 88.5 33.5 278.5q0 96 -9 165l-235 -330q22 -202 116 -202q61 0 94.5 88.5z" />
    <glyph glyph-name="Ugrave" unicode="&#xd9;" horiz-adv-x="728" 
d="M236 12.5q-69 23.5 -102 75.5t-33 138v404q0 62 -15.5 83t-52.5 21v16h337v-16q-29 0 -43.5 -22t-14.5 -82v-460q0 -87 33.5 -122.5t112.5 -35.5q70 0 110 42.5t40 129.5v335q0 64 -16 113t-41 75.5t-51 26.5v16h245v-16q-24 0 -50.5 -26.5t-44.5 -76t-18 -112.5v-312
q0 -79 -20 -126t-66.5 -69.5t-127.5 -22.5q-113 0 -182 23.5zM110 971h201l123 -159l-18 -12l-315 155z" />
    <glyph glyph-name="Uacute" unicode="&#xda;" horiz-adv-x="728" 
d="M236 12.5q-69 23.5 -102 75.5t-33 138v404q0 62 -15.5 83t-52.5 21v16h337v-16q-29 0 -43.5 -22t-14.5 -82v-460q0 -87 33.5 -122.5t112.5 -35.5q70 0 110 42.5t40 129.5v335q0 64 -16 113t-41 75.5t-51 26.5v16h245v-16q-24 0 -50.5 -26.5t-44.5 -76t-18 -112.5v-312
q0 -79 -20 -126t-66.5 -69.5t-127.5 -22.5q-113 0 -182 23.5zM338 812l123 159h201l9 -16l-315 -155z" />
    <glyph glyph-name="Ucircumflex" unicode="&#xdb;" horiz-adv-x="728" 
d="M236 12.5q-69 23.5 -102 75.5t-33 138v404q0 62 -15.5 83t-52.5 21v16h337v-16q-29 0 -43.5 -22t-14.5 -82v-460q0 -87 33.5 -122.5t112.5 -35.5q70 0 110 42.5t40 129.5v335q0 64 -16 113t-41 75.5t-51 26.5v16h245v-16q-24 0 -50.5 -26.5t-44.5 -76t-18 -112.5v-312
q0 -79 -20 -126t-66.5 -69.5t-127.5 -22.5q-113 0 -182 23.5zM543 799l-152 69l-152 -69h-20l164 199h16l164 -199h-20z" />
    <glyph glyph-name="Udieresis" unicode="&#xdc;" horiz-adv-x="728" 
d="M236 12.5q-69 23.5 -102 75.5t-33 138v404q0 62 -15.5 83t-52.5 21v16h337v-16q-29 0 -43.5 -22t-14.5 -82v-460q0 -87 33.5 -122.5t112.5 -35.5q70 0 110 42.5t40 129.5v335q0 64 -16 113t-41 75.5t-51 26.5v16h245v-16q-24 0 -50.5 -26.5t-44.5 -76t-18 -112.5v-312
q0 -79 -20 -126t-66.5 -69.5t-127.5 -22.5q-113 0 -182 23.5zM192.5 831q-30.5 25 -30.5 63q0 40 30.5 65.5t75.5 25.5q44 0 74 -25.5t30 -65.5q0 -38 -30 -63t-74 -25q-45 0 -75.5 25zM439.5 831q-30.5 25 -30.5 63q0 40 30.5 65.5t75.5 25.5q44 0 74 -25.5t30 -65.5
q0 -38 -30 -63t-74 -25q-45 0 -75.5 25z" />
    <glyph glyph-name="Yacute" unicode="&#xdd;" horiz-adv-x="700" 
d="M710 750v-15q-46 0 -96.5 -68.5t-82.5 -149.5l-61 -154v-226q0 -34 14 -61t36 -42.5t45 -15.5v-18h-409v18q23 0 45 15.5t36 42.5t14 61v213l-138 259q-28 52 -45 78t-32.5 37t-35.5 11v15h380v-15q-23 0 -42.5 -14t-19.5 -44q0 -29 21 -68l108 -207h9l48 115
q24 59 24 121q0 42 -12.5 69.5t-36.5 27.5v15h231zM297 812l123 159h201l9 -16l-315 -155z" />
    <glyph glyph-name="Thorn" unicode="&#xde;" horiz-adv-x="732" 
d="M321 149v-29q0 -43 6.5 -65t21 -30.5t41.5 -8.5v-16h-348v16q33 0 50.5 22t17.5 82v510q0 60 -17.5 82t-50.5 22v16h348v-16q-26 0 -41 -8t-21.5 -30t-6.5 -63h8q138 0 221.5 -25t122 -78t38.5 -139t-38.5 -139t-122 -78t-221.5 -25h-8zM332 167q89 0 121.5 62t32.5 162
t-32.5 162t-121.5 62h-11v-448h11z" />
    <glyph glyph-name="germandbls" unicode="&#xdf;" horiz-adv-x="781" 
d="M459.5 508.5q24.5 -18.5 79.5 -49.5q69 -39 114.5 -72t78.5 -82.5t30 -113.5q0 -98 -63.5 -150.5t-170.5 -52.5q-103 0 -188 32l-1 112l13 2q39 -47 95 -89t101 -42q29 0 47 16.5t18 48.5q0 29 -17 54.5t-41.5 45.5t-68.5 50q-48 33 -77 56t-49 54.5t-20 70.5
q0 45 16 77.5t47 73.5q29 39 43 67t14 66q0 40 -19 73t-52.5 52t-74.5 19q-22 0 -30 -11.5t-8 -33.5v-782h-286v16q32 0 53.5 20t21.5 68v461h-63v15h63q3 96 52 159t123.5 92t153.5 29q53 0 105.5 -12.5t87.5 -39.5t35 -68q0 -45 -28 -70t-80 -49q-40 -19 -59.5 -34.5
t-19.5 -39.5q0 -20 24.5 -38.5z" />
    <glyph glyph-name="agrave" unicode="&#xe0;" horiz-adv-x="664" 
d="M669 119q-23 -72 -69.5 -101.5t-103.5 -29.5q-52 0 -87.5 23t-44.5 69q-80 -92 -188 -92q-66 0 -110 34.5t-44 110.5q0 59 33.5 96.5t104 63t201.5 52.5v182q0 44 -31 44q-17 0 -29.5 -12.5t-23.5 -35.5l-15 -36q-16 -39 -29.5 -64t-38 -43t-60.5 -18q-40 0 -66.5 22
t-26.5 58q0 49 48 83.5t121 51t147 16.5q89 0 152 -35t63 -139v-269q0 -44 38 -44q15 0 27 5.5t25 14.5zM362 96q-1 5 -1 15v218q-63 -18 -86 -56.5t-23 -93.5q0 -53 16 -76t46 -23q27 0 48 16zM111 848h201l54 -209h-20l-244 193z" />
    <glyph glyph-name="aacute" unicode="&#xe1;" horiz-adv-x="664" 
d="M669 119q-23 -72 -69.5 -101.5t-103.5 -29.5q-52 0 -87.5 23t-44.5 69q-80 -92 -188 -92q-66 0 -110 34.5t-44 110.5q0 59 33.5 96.5t104 63t201.5 52.5v182q0 44 -31 44q-17 0 -29.5 -12.5t-23.5 -35.5l-15 -36q-16 -39 -29.5 -64t-38 -43t-60.5 -18q-40 0 -66.5 22
t-26.5 58q0 49 48 83.5t121 51t147 16.5q89 0 152 -35t63 -139v-269q0 -44 38 -44q15 0 27 5.5t25 14.5zM362 96q-1 5 -1 15v218q-63 -18 -86 -56.5t-23 -93.5q0 -53 16 -76t46 -23q27 0 48 16zM296 639l54 209h201l9 -16l-244 -193h-20z" />
    <glyph glyph-name="acircumflex" unicode="&#xe2;" horiz-adv-x="664" 
d="M669 119q-23 -72 -69.5 -101.5t-103.5 -29.5q-52 0 -87.5 23t-44.5 69q-80 -92 -188 -92q-66 0 -110 34.5t-44 110.5q0 59 33.5 96.5t104 63t201.5 52.5v182q0 44 -31 44q-17 0 -29.5 -12.5t-23.5 -35.5l-15 -36q-16 -39 -29.5 -64t-38 -43t-60.5 -18q-40 0 -66.5 22
t-26.5 58q0 49 48 83.5t121 51t147 16.5q89 0 152 -35t63 -139v-269q0 -44 38 -44q15 0 27 5.5t25 14.5zM362 96q-1 5 -1 15v218q-63 -18 -86 -56.5t-23 -93.5q0 -53 16 -76t46 -23q27 0 48 16zM464 639l-132 75l-132 -75h-20l144 209h16l144 -209h-20z" />
    <glyph glyph-name="atilde" unicode="&#xe3;" horiz-adv-x="664" 
d="M669 119q-23 -72 -69.5 -101.5t-103.5 -29.5q-52 0 -87.5 23t-44.5 69q-80 -92 -188 -92q-66 0 -110 34.5t-44 110.5q0 59 33.5 96.5t104 63t201.5 52.5v182q0 44 -31 44q-17 0 -29.5 -12.5t-23.5 -35.5l-15 -36q-16 -39 -29.5 -64t-38 -43t-60.5 -18q-40 0 -66.5 22
t-26.5 58q0 49 48 83.5t121 51t147 16.5q89 0 152 -35t63 -139v-269q0 -44 38 -44q15 0 27 5.5t25 14.5zM362 96q-1 5 -1 15v218q-63 -18 -86 -56.5t-23 -93.5q0 -53 16 -76t46 -23q27 0 48 16zM361.5 649.5q-37.5 6.5 -49.5 8.5q-79 15 -106 15q-17 0 -28 -10.5t-11 -27.5
h-16q0 80 21.5 122t73.5 42q28 0 101 -15q10 -2 46 -8.5t55 -6.5q22 0 35.5 10.5t13.5 27.5h16q0 -80 -21.5 -122t-73.5 -42q-19 0 -56.5 6.5z" />
    <glyph glyph-name="adieresis" unicode="&#xe4;" horiz-adv-x="664" 
d="M669 119q-23 -72 -69.5 -101.5t-103.5 -29.5q-52 0 -87.5 23t-44.5 69q-80 -92 -188 -92q-66 0 -110 34.5t-44 110.5q0 59 33.5 96.5t104 63t201.5 52.5v182q0 44 -31 44q-17 0 -29.5 -12.5t-23.5 -35.5l-15 -36q-16 -39 -29.5 -64t-38 -43t-60.5 -18q-40 0 -66.5 22
t-26.5 58q0 49 48 83.5t121 51t147 16.5q89 0 152 -35t63 -139v-269q0 -44 38 -44q15 0 27 5.5t25 14.5zM362 96q-1 5 -1 15v218q-63 -18 -86 -56.5t-23 -93.5q0 -53 16 -76t46 -23q27 0 48 16zM144.5 664q-28.5 25 -28.5 63q0 40 28.5 65.5t69.5 25.5t69 -25.5t28 -65.5
q0 -38 -28 -63t-69 -25t-69.5 25zM381.5 664q-28.5 25 -28.5 63q0 40 28.5 65.5t69.5 25.5t69 -25.5t28 -65.5q0 -38 -28 -63t-69 -25t-69.5 25z" />
    <glyph glyph-name="aring" unicode="&#xe5;" horiz-adv-x="664" 
d="M669 119q-23 -72 -69.5 -101.5t-103.5 -29.5q-52 0 -87.5 23t-44.5 69q-80 -92 -188 -92q-66 0 -110 34.5t-44 110.5q0 59 33.5 96.5t104 63t201.5 52.5v182q0 44 -31 44q-17 0 -29.5 -12.5t-23.5 -35.5l-15 -36q-16 -39 -29.5 -64t-38 -43t-60.5 -18q-40 0 -66.5 22
t-26.5 58q0 49 48 83.5t121 51t147 16.5q89 0 152 -35t63 -139v-269q0 -44 38 -44q15 0 27 5.5t25 14.5zM362 96q-1 5 -1 15v218q-63 -18 -86 -56.5t-23 -93.5q0 -53 16 -76t46 -23q27 0 48 16zM256.5 679.5q-31.5 31.5 -31.5 75.5t31.5 75t75.5 31t75.5 -31t31.5 -75
t-31.5 -75.5t-75.5 -31.5t-75.5 31.5zM380.5 706.5q20.5 19.5 20.5 48.5q0 28 -20.5 47.5t-48.5 19.5t-48.5 -19.5t-20.5 -47.5q0 -29 20.5 -48.5t48.5 -19.5t48.5 19.5z" />
    <glyph glyph-name="ae" unicode="&#xe6;" horiz-adv-x="910" 
d="M885 196q-3 -9 -25 -68.5t-79 -99.5t-141 -40q-80 0 -143.5 34t-98.5 98q-35 -54 -90 -93t-132 -39q-66 0 -110 34.5t-44 110.5q0 59 33.5 96.5t104 63t201.5 52.5v182q0 44 -31 44q-17 0 -29.5 -12.5t-23.5 -35.5l-15 -36q-16 -39 -29.5 -64t-38 -43t-60.5 -18
q-40 0 -66.5 22t-26.5 58q0 49 48 83.5t121 51t147 16.5q91 0 136 -42q69 42 165 42q119 0 169.5 -62.5t50.5 -177.5l-1 -20h-331q21 -188 192 -188q46 0 78.5 14t59.5 42zM543 391q0 -27 1 -39h162q0 81 -6.5 129t-23 71.5t-46.5 23.5q-87 0 -87 -185zM392 131
q-31 64 -31 148v50q-63 -18 -86 -56.5t-23 -93.5q0 -53 16 -76t46 -23q46 0 78 51z" />
    <glyph glyph-name="ccedilla" unicode="&#xe7;" horiz-adv-x="575" 
d="M290 -11l-30 -42h31q68 0 103 -16t35 -53q0 -38 -47.5 -60t-113.5 -22q-64 0 -93 9l5 17q12 -3 36 -3q44 0 66 16t22 44q0 45 -63 45h-7l-1 23l33 44q-115 14 -178 91t-63 193q0 98 42 170t116.5 110t168.5 38q75 0 125 -28t50 -87q0 -44 -28.5 -66t-74.5 -22
q-35 0 -55.5 16.5t-30.5 39.5t-19 58q-10 35 -18 50.5t-25 15.5q-29 0 -47 -44t-18 -106q0 -127 49.5 -202t150.5 -75q41 0 70 14t58 40l15 -6q-28 -100 -90.5 -151.5t-148.5 -51.5q-17 0 -25 1z" />
    <glyph glyph-name="egrave" unicode="&#xe8;" horiz-adv-x="574" 
d="M549 196q-3 -9 -25 -68.5t-79 -99.5t-141 -40q-80 0 -143.5 34t-99.5 99.5t-36 157.5q0 85 32 156.5t98.5 114.5t166.5 43q119 0 169.5 -62.5t50.5 -177.5l-1 -20h-331q21 -188 192 -188q46 0 78.5 14t59.5 42zM207 391q0 -27 1 -39h162q0 81 -6.5 129t-23 71.5
t-46.5 23.5q-87 0 -87 -185zM66 848h201l54 -209h-20l-244 193z" />
    <glyph glyph-name="eacute" unicode="&#xe9;" horiz-adv-x="574" 
d="M549 196q-3 -9 -25 -68.5t-79 -99.5t-141 -40q-80 0 -143.5 34t-99.5 99.5t-36 157.5q0 85 32 156.5t98.5 114.5t166.5 43q119 0 169.5 -62.5t50.5 -177.5l-1 -20h-331q21 -188 192 -188q46 0 78.5 14t59.5 42zM207 391q0 -27 1 -39h162q0 81 -6.5 129t-23 71.5
t-46.5 23.5q-87 0 -87 -185zM251 639l54 209h201l9 -16l-244 -193h-20z" />
    <glyph glyph-name="ecircumflex" unicode="&#xea;" horiz-adv-x="574" 
d="M549 196q-3 -9 -25 -68.5t-79 -99.5t-141 -40q-80 0 -143.5 34t-99.5 99.5t-36 157.5q0 85 32 156.5t98.5 114.5t166.5 43q119 0 169.5 -62.5t50.5 -177.5l-1 -20h-331q21 -188 192 -188q46 0 78.5 14t59.5 42zM207 391q0 -27 1 -39h162q0 81 -6.5 129t-23 71.5
t-46.5 23.5q-87 0 -87 -185zM419 639l-132 75l-132 -75h-20l144 209h16l144 -209h-20z" />
    <glyph glyph-name="edieresis" unicode="&#xeb;" horiz-adv-x="574" 
d="M549 196q-3 -9 -25 -68.5t-79 -99.5t-141 -40q-80 0 -143.5 34t-99.5 99.5t-36 157.5q0 85 32 156.5t98.5 114.5t166.5 43q119 0 169.5 -62.5t50.5 -177.5l-1 -20h-331q21 -188 192 -188q46 0 78.5 14t59.5 42zM207 391q0 -27 1 -39h162q0 81 -6.5 129t-23 71.5
t-46.5 23.5q-87 0 -87 -185zM99.5 664q-28.5 25 -28.5 63q0 40 28.5 65.5t69.5 25.5t69 -25.5t28 -65.5q0 -38 -28 -63t-69 -25t-69.5 25zM336.5 664q-28.5 25 -28.5 63q0 40 28.5 65.5t69.5 25.5t69 -25.5t28 -65.5q0 -38 -28 -63t-69 -25t-69.5 25z" />
    <glyph glyph-name="igrave" unicode="&#xec;" horiz-adv-x="366" 
d="M303.5 37q15.5 -21 52.5 -21v-16h-346v16q33 0 50 22t17 82v283q0 46 -14.5 73t-52.5 41v15l267 58l11 -4v-466q0 -62 15.5 -83zM-51 848h201l54 -209h-20l-244 193z" />
    <glyph glyph-name="iacute" unicode="&#xed;" horiz-adv-x="366" 
d="M303.5 37q15.5 -21 52.5 -21v-16h-346v16q33 0 50 22t17 82v283q0 46 -14.5 73t-52.5 41v15l267 58l11 -4v-466q0 -62 15.5 -83zM134 639l54 209h201l9 -16l-244 -193h-20z" />
    <glyph glyph-name="icircumflex" unicode="&#xee;" horiz-adv-x="366" 
d="M303.5 37q15.5 -21 52.5 -21v-16h-346v16q33 0 50 22t17 82v283q0 46 -14.5 73t-52.5 41v15l267 58l11 -4v-466q0 -62 15.5 -83zM302 639l-132 75l-132 -75h-20l144 209h16l144 -209h-20z" />
    <glyph glyph-name="idieresis" unicode="&#xef;" horiz-adv-x="366" 
d="M303.5 37q15.5 -21 52.5 -21v-16h-346v16q33 0 50 22t17 82v283q0 46 -14.5 73t-52.5 41v15l267 58l11 -4v-466q0 -62 15.5 -83zM-17.5 664q-28.5 25 -28.5 63q0 40 28.5 65.5t69.5 25.5t69 -25.5t28 -65.5q0 -38 -28 -63t-69 -25t-69.5 25zM219.5 664q-28.5 25 -28.5 63
q0 40 28.5 65.5t69.5 25.5t69 -25.5t28 -65.5q0 -38 -28 -63t-69 -25t-69.5 25z" />
    <glyph glyph-name="eth" unicode="&#xf0;" horiz-adv-x="665" 
d="M548 624.5q92 -117.5 92 -264.5q0 -102 -38 -187t-108 -135t-162 -50q-93 0 -164 34.5t-110 98.5t-39 149q0 84 39.5 148t112 99.5t169.5 35.5q24 0 45 -4q-43 140 -139 218l-131 -91l-9 13l126 88q-58 43 -127 57l4 14q89 -10 169 -38l71 49l9 -14l-61 -42
q159 -61 251 -178.5zM398 80q18 76 18 240q0 116 -26 211q-25 7 -50 7q-53 0 -75.5 -70.5t-22.5 -197.5q0 -96 8.5 -154t28.5 -85t54 -27q47 0 65 76z" />
    <glyph glyph-name="ntilde" unicode="&#xf1;" horiz-adv-x="716" 
d="M659 38.5q18 -22.5 47 -22.5v-16h-318v16q42 0 42 83v306q0 50 -13 74t-45 24q-23 0 -40.5 -10t-43.5 -32v-362q0 -83 43 -83v-16h-320v16q30 0 48 22.5t18 81.5v283q0 46 -14.5 73t-52.5 41v15l267 58l11 -4v-107q39 38 63.5 58t61.5 38t80 18q75 0 111.5 -46.5
t36.5 -108.5v-318q0 -59 18 -81.5zM387.5 649.5q-37.5 6.5 -49.5 8.5q-79 15 -106 15q-17 0 -28 -10.5t-11 -27.5h-16q0 80 21.5 122t73.5 42q28 0 101 -15q10 -2 46 -8.5t55 -6.5q22 0 35.5 10.5t13.5 27.5h16q0 -80 -21.5 -122t-73.5 -42q-19 0 -56.5 6.5z" />
    <glyph glyph-name="ograve" unicode="&#xf2;" horiz-adv-x="665" 
d="M170.5 27q-69.5 39 -107.5 108t-38 155t38 155t107.5 108.5t161.5 39.5q93 0 163 -39.5t107.5 -108t37.5 -155.5t-37.5 -155.5t-107.5 -107.5t-163 -39q-92 0 -161.5 39zM384.5 32.5q17.5 28.5 24.5 89t7 168.5t-7 169t-25 90t-53 29t-52.5 -28t-24 -88.5t-6.5 -171.5
q0 -108 7 -169t25.5 -89t52.5 -28t51.5 28.5zM112 848h201l54 -209h-20l-244 193z" />
    <glyph glyph-name="oacute" unicode="&#xf3;" horiz-adv-x="665" 
d="M170.5 27q-69.5 39 -107.5 108t-38 155t38 155t107.5 108.5t161.5 39.5q93 0 163 -39.5t107.5 -108t37.5 -155.5t-37.5 -155.5t-107.5 -107.5t-163 -39q-92 0 -161.5 39zM384.5 32.5q17.5 28.5 24.5 89t7 168.5t-7 169t-25 90t-53 29t-52.5 -28t-24 -88.5t-6.5 -171.5
q0 -108 7 -169t25.5 -89t52.5 -28t51.5 28.5zM297 639l54 209h201l9 -16l-244 -193h-20z" />
    <glyph glyph-name="ocircumflex" unicode="&#xf4;" horiz-adv-x="665" 
d="M170.5 27q-69.5 39 -107.5 108t-38 155t38 155t107.5 108.5t161.5 39.5q93 0 163 -39.5t107.5 -108t37.5 -155.5t-37.5 -155.5t-107.5 -107.5t-163 -39q-92 0 -161.5 39zM384.5 32.5q17.5 28.5 24.5 89t7 168.5t-7 169t-25 90t-53 29t-52.5 -28t-24 -88.5t-6.5 -171.5
q0 -108 7 -169t25.5 -89t52.5 -28t51.5 28.5zM465 639l-132 75l-132 -75h-20l144 209h16l144 -209h-20z" />
    <glyph glyph-name="otilde" unicode="&#xf5;" horiz-adv-x="665" 
d="M170.5 27q-69.5 39 -107.5 108t-38 155t38 155t107.5 108.5t161.5 39.5q93 0 163 -39.5t107.5 -108t37.5 -155.5t-37.5 -155.5t-107.5 -107.5t-163 -39q-92 0 -161.5 39zM384.5 32.5q17.5 28.5 24.5 89t7 168.5t-7 169t-25 90t-53 29t-52.5 -28t-24 -88.5t-6.5 -171.5
q0 -108 7 -169t25.5 -89t52.5 -28t51.5 28.5zM362.5 649.5q-37.5 6.5 -49.5 8.5q-79 15 -106 15q-17 0 -28 -10.5t-11 -27.5h-16q0 80 21.5 122t73.5 42q28 0 101 -15q10 -2 46 -8.5t55 -6.5q22 0 35.5 10.5t13.5 27.5h16q0 -80 -21.5 -122t-73.5 -42q-19 0 -56.5 6.5z" />
    <glyph glyph-name="odieresis" unicode="&#xf6;" horiz-adv-x="665" 
d="M170.5 27q-69.5 39 -107.5 108t-38 155t38 155t107.5 108.5t161.5 39.5q93 0 163 -39.5t107.5 -108t37.5 -155.5t-37.5 -155.5t-107.5 -107.5t-163 -39q-92 0 -161.5 39zM384.5 32.5q17.5 28.5 24.5 89t7 168.5t-7 169t-25 90t-53 29t-52.5 -28t-24 -88.5t-6.5 -171.5
q0 -108 7 -169t25.5 -89t52.5 -28t51.5 28.5zM145.5 664q-28.5 25 -28.5 63q0 40 28.5 65.5t69.5 25.5t69 -25.5t28 -65.5q0 -38 -28 -63t-69 -25t-69.5 25zM382.5 664q-28.5 25 -28.5 63q0 40 28.5 65.5t69.5 25.5t69 -25.5t28 -65.5q0 -38 -28 -63t-69 -25t-69.5 25z" />
    <glyph glyph-name="divide" unicode="&#xf7;" horiz-adv-x="513" 
d="M219.5 436.5q-14.5 13.5 -14.5 35.5t14.5 36t37.5 14q22 0 36.5 -14t14.5 -36t-14.5 -35.5t-36.5 -13.5q-23 0 -37.5 13.5zM471 309h-429v25h429v-25zM219.5 133q-14.5 13 -14.5 35t14.5 36t37.5 14q22 0 36.5 -14t14.5 -36t-14.5 -35t-36.5 -13q-23 0 -37.5 13z" />
    <glyph glyph-name="oslash" unicode="&#xf8;" horiz-adv-x="665" 
d="M614.5 420.5q25.5 -59.5 25.5 -130.5q0 -87 -37.5 -155.5t-107.5 -107.5t-163 -39q-108 0 -186 54l-60 -73l-17 11l61 74q-50 41 -77.5 102t-27.5 134q0 86 38 155t107.5 108.5t161.5 39.5q113 0 193 -59l56 68l16 -12l-56 -68q48 -42 73.5 -101.5zM278.5 550
q-17.5 -28 -24 -88.5t-6.5 -171.5q0 -64 1 -91l165 200q-5 96 -23.5 137.5t-59.5 41.5q-35 0 -52.5 -28zM384.5 32.5q17.5 28.5 24.5 89t7 168.5q0 55 -1 79l-164 -199q5 -90 23.5 -128t58.5 -38q34 0 51.5 28.5z" />
    <glyph glyph-name="ugrave" unicode="&#xf9;" horiz-adv-x="690" 
d="M633.5 111q16.5 -22 60.5 -24v-15l-277 -82l-11 4v98q-50 -47 -94.5 -75.5t-101.5 -28.5q-75 0 -111.5 46t-36.5 108v271q0 48 -11.5 73t-44.5 31v15l256 58l11 -4v-411q0 -50 13 -74t45 -24q21 0 38 8.5t37 26.5v301q0 48 -11.5 73t-44.5 31v15l256 58l11 -4v-406
q0 -47 16.5 -69zM115 848h201l54 -209h-20l-244 193z" />
    <glyph glyph-name="uacute" unicode="&#xfa;" horiz-adv-x="690" 
d="M633.5 111q16.5 -22 60.5 -24v-15l-277 -82l-11 4v98q-50 -47 -94.5 -75.5t-101.5 -28.5q-75 0 -111.5 46t-36.5 108v271q0 48 -11.5 73t-44.5 31v15l256 58l11 -4v-411q0 -50 13 -74t45 -24q21 0 38 8.5t37 26.5v301q0 48 -11.5 73t-44.5 31v15l256 58l11 -4v-406
q0 -47 16.5 -69zM300 639l54 209h201l9 -16l-244 -193h-20z" />
    <glyph glyph-name="ucircumflex" unicode="&#xfb;" horiz-adv-x="690" 
d="M633.5 111q16.5 -22 60.5 -24v-15l-277 -82l-11 4v98q-50 -47 -94.5 -75.5t-101.5 -28.5q-75 0 -111.5 46t-36.5 108v271q0 48 -11.5 73t-44.5 31v15l256 58l11 -4v-411q0 -50 13 -74t45 -24q21 0 38 8.5t37 26.5v301q0 48 -11.5 73t-44.5 31v15l256 58l11 -4v-406
q0 -47 16.5 -69zM468 639l-132 75l-132 -75h-20l144 209h16l144 -209h-20z" />
    <glyph glyph-name="udieresis" unicode="&#xfc;" horiz-adv-x="690" 
d="M633.5 111q16.5 -22 60.5 -24v-15l-277 -82l-11 4v98q-50 -47 -94.5 -75.5t-101.5 -28.5q-75 0 -111.5 46t-36.5 108v271q0 48 -11.5 73t-44.5 31v15l256 58l11 -4v-411q0 -50 13 -74t45 -24q21 0 38 8.5t37 26.5v301q0 48 -11.5 73t-44.5 31v15l256 58l11 -4v-406
q0 -47 16.5 -69zM148.5 664q-28.5 25 -28.5 63q0 40 28.5 65.5t69.5 25.5t69 -25.5t28 -65.5q0 -38 -28 -63t-69 -25t-69.5 25zM385.5 664q-28.5 25 -28.5 63q0 40 28.5 65.5t69.5 25.5t69 -25.5t28 -65.5q0 -38 -28 -63t-69 -25t-69.5 25z" />
    <glyph glyph-name="yacute" unicode="&#xfd;" horiz-adv-x="555" 
d="M612 580v-16q-12 0 -40.5 -15t-57 -44.5t-42.5 -69.5l-158 -449q-34 -98 -94.5 -147t-126.5 -49q-67 0 -97.5 25.5t-30.5 67.5q0 32 21.5 58.5t62.5 26.5q22 0 39 -6t44 -19q22 -11 38 -17t35 -6q21 0 47 13t40 49l8 20l-245 474q-26 49 -45 68.5t-39 19.5v16h355v-16
q-24 0 -43 -11.5t-19 -36.5q0 -18 11 -40l112 -218l60 175q11 35 11 55q0 60 -69 76v16h223zM301 639l54 209h201l9 -16l-244 -193h-20z" />
    <glyph glyph-name="thorn" unicode="&#xfe;" horiz-adv-x="722" 
d="M308 2v-77q0 -59 15 -85.5t64 -28.5v-16h-361v16q29 0 50 27.5t21 86.5v793q0 59 -21 86.5t-50 27.5v16h361v-16q-49 -2 -64 -28.5t-15 -85.5v-206q68 81 164 81q81 0 131.5 -41.5t72 -106.5t21.5 -139q0 -78 -28 -149.5t-97.5 -120t-185.5 -48.5q-44 0 -78 14zM377 5
q37 0 59 25t32 87.5t10 175.5q0 118 -24.5 173.5t-74.5 55.5q-39 0 -71 -35v-429q25 -53 69 -53z" />
    <glyph glyph-name="ydieresis" unicode="&#xff;" horiz-adv-x="555" 
d="M612 580v-16q-12 0 -40.5 -15t-57 -44.5t-42.5 -69.5l-158 -449q-34 -98 -94.5 -147t-126.5 -49q-67 0 -97.5 25.5t-30.5 67.5q0 32 21.5 58.5t62.5 26.5q22 0 39 -6t44 -19q22 -11 38 -17t35 -6q21 0 47 13t40 49l8 20l-245 474q-26 49 -45 68.5t-39 19.5v16h355v-16
q-24 0 -43 -11.5t-19 -36.5q0 -18 11 -40l112 -218l60 175q11 35 11 55q0 60 -69 76v16h223zM149.5 664q-28.5 25 -28.5 63q0 40 28.5 65.5t69.5 25.5t69 -25.5t28 -65.5q0 -38 -28 -63t-69 -25t-69.5 25zM386.5 664q-28.5 25 -28.5 63q0 40 28.5 65.5t69.5 25.5t69 -25.5
t28 -65.5q0 -38 -28 -63t-69 -25t-69.5 25z" />
    <glyph glyph-name="Amacron" unicode="&#x100;" horiz-adv-x="696" 
d="M655 44.5q23 -28.5 46 -28.5v-16h-393v16q25 0 42 14.5t17 46.5q0 24 -12 60l-20 57h-185v-1q-14 -39 -14 -73q0 -47 26 -73.5t62 -30.5v-16h-254v16q102 11 160 175l198 563h24l254 -617q26 -64 49 -92.5zM330 210l-85 244l-89 -244h174zM521 903v-70h-346v70h346z" />
    <glyph glyph-name="amacron" unicode="&#x101;" horiz-adv-x="664" 
d="M669 119q-23 -72 -69.5 -101.5t-103.5 -29.5q-52 0 -87.5 23t-44.5 69q-80 -92 -188 -92q-66 0 -110 34.5t-44 110.5q0 59 33.5 96.5t104 63t201.5 52.5v182q0 44 -31 44q-17 0 -29.5 -12.5t-23.5 -35.5l-15 -36q-16 -39 -29.5 -64t-38 -43t-60.5 -18q-40 0 -66.5 22
t-26.5 58q0 49 48 83.5t121 51t147 16.5q89 0 152 -35t63 -139v-269q0 -44 38 -44q15 0 27 5.5t25 14.5zM362 96q-1 5 -1 15v218q-63 -18 -86 -56.5t-23 -93.5q0 -53 16 -76t46 -23q27 0 48 16zM495 763v-80h-326v80h326z" />
    <glyph glyph-name="Abreve" unicode="&#x102;" horiz-adv-x="696" 
d="M655 44.5q23 -28.5 46 -28.5v-16h-393v16q25 0 42 14.5t17 46.5q0 24 -12 60l-20 57h-185v-1q-14 -39 -14 -73q0 -47 26 -73.5t62 -30.5v-16h-254v16q102 11 160 175l198 563h24l254 -617q26 -64 49 -92.5zM330 210l-85 244l-89 -244h174zM233.5 829q-38.5 42 -38.5 133
h14q6 -34 44.5 -50t94.5 -16t94 16t44 50h14q0 -91 -38 -133t-114 -42t-114.5 42z" />
    <glyph glyph-name="abreve" unicode="&#x103;" horiz-adv-x="664" 
d="M669 119q-23 -72 -69.5 -101.5t-103.5 -29.5q-52 0 -87.5 23t-44.5 69q-80 -92 -188 -92q-66 0 -110 34.5t-44 110.5q0 59 33.5 96.5t104 63t201.5 52.5v182q0 44 -31 44q-17 0 -29.5 -12.5t-23.5 -35.5l-15 -36q-16 -39 -29.5 -64t-38 -43t-60.5 -18q-40 0 -66.5 22
t-26.5 58q0 49 48 83.5t121 51t147 16.5q89 0 152 -35t63 -139v-269q0 -44 38 -44q15 0 27 5.5t25 14.5zM362 96q-1 5 -1 15v218q-63 -18 -86 -56.5t-23 -93.5q0 -53 16 -76t46 -23q27 0 48 16zM223.5 675q-36.5 46 -36.5 148h15q6 -42 42 -61t88 -19t88 19t42 61h15
q0 -102 -36.5 -148t-108.5 -46t-108.5 46z" />
    <glyph glyph-name="Aogonek" unicode="&#x104;" horiz-adv-x="696" 
d="M630 -40.5q-28 -30.5 -28 -63.5q0 -22 11.5 -33t31.5 -11q14 0 27.5 7t20.5 21l8 -9q0 -81 -31 -124.5t-91 -43.5q-55 0 -88.5 32t-33.5 90q0 60 46.5 105t126.5 70h-322v16q25 0 42 14.5t17 46.5q0 24 -12 60l-20 57h-185v-1q-14 -39 -14 -73q0 -47 26 -73.5t62 -30.5
v-16h-254v16q102 11 160 175l198 563h24l254 -617q26 -64 49 -92.5t46 -28.5v-16q-43 -10 -71 -40.5zM330 210l-85 244l-89 -244h174z" />
    <glyph glyph-name="aogonek" unicode="&#x105;" horiz-adv-x="664" 
d="M639.5 -141.5q14.5 7.5 21.5 21.5l8 -9q0 -168 -122 -168q-53 0 -87.5 33t-34.5 83q0 38 14.5 66t36 48t59.5 47l24 18q-30 -10 -63 -10q-52 0 -87.5 23t-44.5 69q-80 -92 -188 -92q-66 0 -110 34.5t-44 110.5q0 59 33.5 96.5t104 63t201.5 52.5v182q0 44 -31 44
q-17 0 -29.5 -12.5t-23.5 -35.5l-15 -36q-16 -39 -29.5 -64t-38 -43t-60.5 -18q-40 0 -66.5 22t-26.5 58q0 49 48 83.5t121 51t147 16.5q89 0 152 -35t63 -139v-269q0 -44 38 -44q15 0 27 5.5t25 14.5l7 -7q-8 -29 -45 -93q-26 -46 -39.5 -76.5t-13.5 -50.5
q0 -23 10.5 -35.5t30.5 -12.5q13 0 27.5 7.5zM362 96q-1 5 -1 15v218q-63 -18 -86 -56.5t-23 -93.5q0 -53 16 -76t46 -23q27 0 48 16z" />
    <glyph glyph-name="Cacute" unicode="&#x106;" horiz-adv-x="697" 
d="M212 39q-84 50 -129 138t-45 199t45 199t129 137.5t198 49.5q150 -3 242 -32l-16 -239l-19 -1q-36 127 -83.5 190t-109.5 63q-68 0 -105 -83t-37 -284t37 -284.5t105 -83.5q62 0 112 71.5t81 201.5l19 -1l16 -259q-92 -29 -242 -32q-114 0 -198 50zM346 812l123 159h201
l9 -16l-315 -155z" />
    <glyph glyph-name="cacute" unicode="&#x107;" horiz-adv-x="575" 
d="M158.5 24.5q-65.5 36.5 -99.5 101.5t-34 149q0 98 42 170t116.5 110t168.5 38q75 0 125 -28t50 -87q0 -44 -28.5 -66t-74.5 -22q-35 0 -55.5 16.5t-30.5 39.5t-19 58q-10 35 -18 50.5t-25 15.5q-29 0 -47 -44t-18 -106q0 -127 49.5 -202t150.5 -75q41 0 70 14t58 40
l15 -6q-28 -100 -90.5 -151.5t-148.5 -51.5q-91 0 -156.5 36.5zM260 639l54 209h201l9 -16l-244 -193h-20z" />
    <glyph glyph-name="Ccircumflex" unicode="&#x108;" horiz-adv-x="697" 
d="M212 39q-84 50 -129 138t-45 199t45 199t129 137.5t198 49.5q150 -3 242 -32l-16 -239l-19 -1q-36 127 -83.5 190t-109.5 63q-68 0 -105 -83t-37 -284t37 -284.5t105 -83.5q62 0 112 71.5t81 201.5l19 -1l16 -259q-92 -29 -242 -32q-114 0 -198 50zM551 799l-152 69
l-152 -69h-20l164 199h16l164 -199h-20z" />
    <glyph glyph-name="ccircumflex" unicode="&#x109;" horiz-adv-x="575" 
d="M158.5 24.5q-65.5 36.5 -99.5 101.5t-34 149q0 98 42 170t116.5 110t168.5 38q75 0 125 -28t50 -87q0 -44 -28.5 -66t-74.5 -22q-35 0 -55.5 16.5t-30.5 39.5t-19 58q-10 35 -18 50.5t-25 15.5q-29 0 -47 -44t-18 -106q0 -127 49.5 -202t150.5 -75q41 0 70 14t58 40
l15 -6q-28 -100 -90.5 -151.5t-148.5 -51.5q-91 0 -156.5 36.5zM428 639l-132 75l-132 -75h-20l144 209h16l144 -209h-20z" />
    <glyph glyph-name="Cdotaccent" unicode="&#x10a;" horiz-adv-x="697" 
d="M212 39q-84 50 -129 138t-45 199t45 199t129 137.5t198 49.5q150 -3 242 -32l-16 -239l-19 -1q-36 127 -83.5 190t-109.5 63q-68 0 -105 -83t-37 -284t37 -284.5t105 -83.5q62 0 112 71.5t81 201.5l19 -1l16 -259q-92 -29 -242 -32q-114 0 -198 50zM311 825
q-36 29 -36 74q0 47 36 77t89 30q51 0 86.5 -30t35.5 -77q0 -45 -35.5 -74t-86.5 -29q-53 0 -89 29z" />
    <glyph glyph-name="cdotaccent" unicode="&#x10b;" horiz-adv-x="575" 
d="M158.5 24.5q-65.5 36.5 -99.5 101.5t-34 149q0 98 42 170t116.5 110t168.5 38q75 0 125 -28t50 -87q0 -44 -28.5 -66t-74.5 -22q-35 0 -55.5 16.5t-30.5 39.5t-19 58q-10 35 -18 50.5t-25 15.5q-29 0 -47 -44t-18 -106q0 -127 49.5 -202t150.5 -75q41 0 70 14t58 40
l15 -6q-28 -100 -90.5 -151.5t-148.5 -51.5q-91 0 -156.5 36.5zM208 665q-36 29 -36 74q0 47 36 77t89 30q51 0 86.5 -30t35.5 -77q0 -45 -35.5 -74t-86.5 -29q-53 0 -89 29z" />
    <glyph glyph-name="Ccaron" unicode="&#x10c;" horiz-adv-x="697" 
d="M212 39q-84 50 -129 138t-45 199t45 199t129 137.5t198 49.5q150 -3 242 -32l-16 -239l-19 -1q-36 127 -83.5 190t-109.5 63q-68 0 -105 -83t-37 -284t37 -284.5t105 -83.5q62 0 112 71.5t81 201.5l19 -1l16 -259q-92 -29 -242 -32q-114 0 -198 50zM571 998l-164 -199
h-16l-164 199h20l152 -69l152 69h20z" />
    <glyph glyph-name="ccaron" unicode="&#x10d;" horiz-adv-x="575" 
d="M158.5 24.5q-65.5 36.5 -99.5 101.5t-34 149q0 98 42 170t116.5 110t168.5 38q75 0 125 -28t50 -87q0 -44 -28.5 -66t-74.5 -22q-35 0 -55.5 16.5t-30.5 39.5t-19 58q-10 35 -18 50.5t-25 15.5q-29 0 -47 -44t-18 -106q0 -127 49.5 -202t150.5 -75q41 0 70 14t58 40
l15 -6q-28 -100 -90.5 -151.5t-148.5 -51.5q-91 0 -156.5 36.5zM448 848l-144 -209h-16l-144 209h20l132 -75l132 75h20z" />
    <glyph glyph-name="Dcaron" unicode="&#x10e;" horiz-adv-x="806" 
d="M672.5 656q95.5 -94 95.5 -277q0 -184 -95.5 -281.5t-277.5 -97.5h-352v16q33 0 50 22t17 82v510q0 62 -15.5 83t-52.5 21v16h352q183 0 278.5 -94zM473.5 55q27.5 39 38.5 117.5t11 207.5q0 124 -11.5 200.5t-39.5 115t-79 38.5h-14q-29 0 -43.5 -22t-14.5 -82v-510
q0 -62 13.5 -83t45.5 -21h16q50 0 77.5 39zM575 998l-164 -199h-16l-164 199h20l152 -69l152 69h20z" />
    <glyph glyph-name="dcaron" unicode="&#x10f;" horiz-adv-x="730" 
d="M641 111.5q17 -22.5 61 -24.5v-15l-278 -82l-11 4v73q-30 -36 -71 -58t-92 -22q-81 0 -131.5 41.5t-72 106.5t-21.5 139q0 78 28 149.5t97.5 120t185.5 48.5q43 0 77 -14v87q0 46 -14.5 73t-52.5 41v15l267 58l11 -4v-668q0 -46 17 -68.5zM413 92v432q-25 51 -68 51
q-37 0 -59 -25t-32 -87.5t-10 -175.5q0 -118 24.5 -173.5t74.5 -55.5q37 0 70 34zM691 692q0 90 -29 156l1 15l136 37l14 -5q1 -7 1 -20q0 -50 -18.5 -102t-44.5 -92t-46 -54l-18 6q4 27 4 59z" />
    <glyph glyph-name="Dcroat" unicode="&#x110;" horiz-adv-x="806" 
d="M672.5 656q95.5 -94 95.5 -277q0 -184 -95.5 -281.5t-277.5 -97.5h-352v16q33 0 50 22t17 82v261h-68v18h68v231q0 62 -15.5 83t-52.5 21v16h352q183 0 278.5 -94zM473.5 55q27.5 39 38.5 117.5t11 207.5q0 124 -11.5 200.5t-39.5 115t-79 38.5h-14q-29 0 -43.5 -22
t-14.5 -82v-231h106v-18h-106v-261q0 -62 13.5 -83t45.5 -21h16q50 0 77.5 39z" />
    <glyph glyph-name="dcroat" unicode="&#x111;" horiz-adv-x="695" 
d="M641 111.5q17 -22.5 61 -24.5v-15l-278 -82l-11 4v73q-30 -36 -71 -58t-92 -22q-81 0 -131.5 41.5t-72 106.5t-21.5 139q0 78 28 149.5t97.5 120t185.5 48.5q43 0 77 -14v79h-128v26h127q-2 37 -17.5 60.5t-48.5 35.5v15l267 58l11 -4v-165h68v-26h-68v-477
q0 -46 17 -68.5zM413 92v432q-25 51 -68 51q-37 0 -59 -25t-32 -87.5t-10 -175.5q0 -118 24.5 -173.5t74.5 -55.5q37 0 70 34z" />
    <glyph glyph-name="Emacron" unicode="&#x112;" horiz-adv-x="682" 
d="M653 270l-15 -270h-595v16q33 0 50 22t17 82v510q0 62 -15.5 83t-52.5 21v16h586l10 -256h-12q-98 240 -219 240h-28q-29 0 -43.5 -22t-14.5 -82v-222h17q49 0 86.5 37.5t57.5 97.5h15v-292h-15q-20 63 -57 101.5t-87 38.5h-17v-271q0 -62 13.5 -83t45.5 -21h19
q41 0 88 29t88.5 86.5t65.5 138.5h12zM548 903v-70h-346v70h346z" />
    <glyph glyph-name="emacron" unicode="&#x113;" horiz-adv-x="574" 
d="M549 196q-3 -9 -25 -68.5t-79 -99.5t-141 -40q-80 0 -143.5 34t-99.5 99.5t-36 157.5q0 85 32 156.5t98.5 114.5t166.5 43q119 0 169.5 -62.5t50.5 -177.5l-1 -20h-331q21 -188 192 -188q46 0 78.5 14t59.5 42zM207 391q0 -27 1 -39h162q0 81 -6.5 129t-23 71.5
t-46.5 23.5q-87 0 -87 -185zM450 763v-80h-326v80h326z" />
    <glyph glyph-name="Ebreve" unicode="&#x114;" horiz-adv-x="682" 
d="M653 270l-15 -270h-595v16q33 0 50 22t17 82v510q0 62 -15.5 83t-52.5 21v16h586l10 -256h-12q-98 240 -219 240h-28q-29 0 -43.5 -22t-14.5 -82v-222h17q49 0 86.5 37.5t57.5 97.5h15v-292h-15q-20 63 -57 101.5t-87 38.5h-17v-271q0 -62 13.5 -83t45.5 -21h19
q41 0 88 29t88.5 86.5t65.5 138.5h12zM260.5 829q-38.5 42 -38.5 133h14q6 -34 44.5 -50t94.5 -16t94 16t44 50h14q0 -91 -38 -133t-114 -42t-114.5 42z" />
    <glyph glyph-name="ebreve" unicode="&#x115;" horiz-adv-x="574" 
d="M549 196q-3 -9 -25 -68.5t-79 -99.5t-141 -40q-80 0 -143.5 34t-99.5 99.5t-36 157.5q0 85 32 156.5t98.5 114.5t166.5 43q119 0 169.5 -62.5t50.5 -177.5l-1 -20h-331q21 -188 192 -188q46 0 78.5 14t59.5 42zM207 391q0 -27 1 -39h162q0 81 -6.5 129t-23 71.5
t-46.5 23.5q-87 0 -87 -185zM178.5 675q-36.5 46 -36.5 148h15q6 -42 42 -61t88 -19t88 19t42 61h15q0 -102 -36.5 -148t-108.5 -46t-108.5 46z" />
    <glyph glyph-name="Edotaccent" unicode="&#x116;" horiz-adv-x="682" 
d="M653 270l-15 -270h-595v16q33 0 50 22t17 82v510q0 62 -15.5 83t-52.5 21v16h586l10 -256h-12q-98 240 -219 240h-28q-29 0 -43.5 -22t-14.5 -82v-222h17q49 0 86.5 37.5t57.5 97.5h15v-292h-15q-20 63 -57 101.5t-87 38.5h-17v-271q0 -62 13.5 -83t45.5 -21h19
q41 0 88 29t88.5 86.5t65.5 138.5h12zM287 825q-36 29 -36 74q0 47 36 77t89 30q51 0 86.5 -30t35.5 -77q0 -45 -35.5 -74t-86.5 -29q-53 0 -89 29z" />
    <glyph glyph-name="edotaccent" unicode="&#x117;" horiz-adv-x="574" 
d="M549 196q-3 -9 -25 -68.5t-79 -99.5t-141 -40q-80 0 -143.5 34t-99.5 99.5t-36 157.5q0 85 32 156.5t98.5 114.5t166.5 43q119 0 169.5 -62.5t50.5 -177.5l-1 -20h-331q21 -188 192 -188q46 0 78.5 14t59.5 42zM207 391q0 -27 1 -39h162q0 81 -6.5 129t-23 71.5
t-46.5 23.5q-87 0 -87 -185zM199 665q-36 29 -36 74q0 47 36 77t89 30q51 0 86.5 -30t35.5 -77q0 -45 -35.5 -74t-86.5 -29q-53 0 -89 29z" />
    <glyph glyph-name="Eogonek" unicode="&#x118;" horiz-adv-x="682" 
d="M567 -40.5q-28 -30.5 -28 -63.5q0 -22 11.5 -33t31.5 -11q14 0 27.5 7t20.5 21l8 -9q0 -81 -31 -124.5t-91 -43.5q-55 0 -88.5 32t-33.5 90q0 60 46.5 105t126.5 70h-524v16q33 0 50 22t17 82v510q0 62 -15.5 83t-52.5 21v16h586l10 -256h-12q-98 240 -219 240h-28
q-29 0 -43.5 -22t-14.5 -82v-222h17q49 0 86.5 37.5t57.5 97.5h15v-292h-15q-20 63 -57 101.5t-87 38.5h-17v-271q0 -62 13.5 -83t45.5 -21h19q41 0 88 29t88.5 86.5t65.5 138.5h12l-15 -270q-43 -10 -71 -40.5z" />
    <glyph glyph-name="eogonek" unicode="&#x119;" horiz-adv-x="574" 
d="M505.5 -141q13.5 7 20.5 21l8 -9q0 -81 -31 -124.5t-91 -43.5q-54 0 -88 32.5t-34 84.5q0 40 16.5 71.5t38 54t68.5 64.5q-46 -22 -109 -22q-80 0 -143.5 34t-99.5 99.5t-36 157.5q0 85 32 156.5t98.5 114.5t166.5 43q119 0 169.5 -62.5t50.5 -177.5l-1 -20h-331
q21 -188 192 -188q46 0 78.5 14t59.5 42l9 -5q-13 -44 -56 -133q-29 -58 -43.5 -96t-14.5 -66q0 -22 11.5 -35.5t31.5 -13.5q14 0 27.5 7zM207 391q0 -27 1 -39h162q0 81 -6.5 129t-23 71.5t-46.5 23.5q-87 0 -87 -185z" />
    <glyph glyph-name="Ecaron" unicode="&#x11a;" horiz-adv-x="682" 
d="M653 270l-15 -270h-595v16q33 0 50 22t17 82v510q0 62 -15.5 83t-52.5 21v16h586l10 -256h-12q-98 240 -219 240h-28q-29 0 -43.5 -22t-14.5 -82v-222h17q49 0 86.5 37.5t57.5 97.5h15v-292h-15q-20 63 -57 101.5t-87 38.5h-17v-271q0 -62 13.5 -83t45.5 -21h19
q41 0 88 29t88.5 86.5t65.5 138.5h12zM547 998l-164 -199h-16l-164 199h20l152 -69l152 69h20z" />
    <glyph glyph-name="ecaron" unicode="&#x11b;" horiz-adv-x="574" 
d="M549 196q-3 -9 -25 -68.5t-79 -99.5t-141 -40q-80 0 -143.5 34t-99.5 99.5t-36 157.5q0 85 32 156.5t98.5 114.5t166.5 43q119 0 169.5 -62.5t50.5 -177.5l-1 -20h-331q21 -188 192 -188q46 0 78.5 14t59.5 42zM207 391q0 -27 1 -39h162q0 81 -6.5 129t-23 71.5
t-46.5 23.5q-87 0 -87 -185zM439 848l-144 -209h-16l-144 209h20l132 -75l132 75h20z" />
    <glyph glyph-name="Gcircumflex" unicode="&#x11c;" horiz-adv-x="762" 
d="M756 337v-21h-4q-49 0 -49 -68v-209q-52 -22 -128.5 -36t-174.5 -14q-113 0 -195 50t-124.5 137.5t-42.5 199.5q0 114 44 201t136 136t231 49q82 0 143 -11.5t95 -26.5l-16 -233l-19 -1q-31 89 -59 143.5t-63 82t-82 27.5q-79 0 -122.5 -83t-43.5 -284q0 -368 138 -368
q60 0 104 51v171q0 40 -15.5 63t-58.5 23h-15v21h321zM564 132l-9 -23q7 13 9 23zM579 799l-152 69l-152 -69h-20l164 199h16l164 -199h-20z" />
    <glyph glyph-name="gcircumflex" unicode="&#x11d;" horiz-adv-x="619" 
d="M441.5 598q-10.5 -7 -22.5 -25q68 -23 107.5 -70t39.5 -111q0 -61 -35.5 -106.5t-97.5 -70t-140 -24.5q-64 0 -120 16q-23 -18 -34 -30.5t-11 -25.5t8.5 -21t26.5 -8q32 0 63.5 1t58.5 2q100 4 142 4q63 0 102 -10t59.5 -37.5t20.5 -77.5q0 -104 -84.5 -162.5
t-259.5 -58.5q-111 0 -185.5 18t-74.5 58q0 31 33 46t90 28q-45 1 -80.5 24.5t-35.5 80.5q0 33 16 59.5t41 47.5t71 54l18 13q-66 24 -102.5 70.5t-36.5 109.5q0 61 34.5 106.5t96.5 69.5t143 24q62 0 113 -15q20 36 42 62h-6l-132 75l-132 -75h-20l144 209h16l138 -200
q50 53 109 53q26 0 43 -13.5t17 -38.5q0 -63 -59 -63q-12 0 -30 5t-23 6q-34 10 -45 10q-16 -2 -26.5 -9zM341 247.5q16 43.5 16 143.5t-16 144.5t-48 44.5t-48 -45.5t-16 -142.5t16 -142.5t48 -45.5t48 43.5zM451 -75q-26 8 -72 8h-217q-10 -24 -10 -45q0 -89 149 -89
q83 0 129.5 25.5t46.5 62.5q0 30 -26 38z" />
    <glyph glyph-name="Gbreve" unicode="&#x11e;" horiz-adv-x="762" 
d="M756 337v-21h-4q-49 0 -49 -68v-209q-52 -22 -128.5 -36t-174.5 -14q-113 0 -195 50t-124.5 137.5t-42.5 199.5q0 114 44 201t136 136t231 49q82 0 143 -11.5t95 -26.5l-16 -233l-19 -1q-31 89 -59 143.5t-63 82t-82 27.5q-79 0 -122.5 -83t-43.5 -284q0 -368 138 -368
q60 0 104 51v171q0 40 -15.5 63t-58.5 23h-15v21h321zM564 132l-9 -23q7 13 9 23zM312.5 829q-38.5 42 -38.5 133h14q6 -34 44.5 -50t94.5 -16t94 16t44 50h14q0 -91 -38 -133t-114 -42t-114.5 42z" />
    <glyph glyph-name="gbreve" unicode="&#x11f;" horiz-adv-x="619" 
d="M441.5 598q-10.5 -7 -22.5 -25q68 -23 107.5 -70t39.5 -111q0 -61 -35.5 -106.5t-97.5 -70t-140 -24.5q-64 0 -120 16q-23 -18 -34 -30.5t-11 -25.5t8.5 -21t26.5 -8q32 0 63.5 1t58.5 2q100 4 142 4q63 0 102 -10t59.5 -37.5t20.5 -77.5q0 -104 -84.5 -162.5
t-259.5 -58.5q-111 0 -185.5 18t-74.5 58q0 31 33 46t90 28q-45 1 -80.5 24.5t-35.5 80.5q0 33 16 59.5t41 47.5t71 54l18 13q-66 24 -102.5 70.5t-36.5 109.5q0 61 34.5 106.5t96.5 69.5t143 24q62 0 113 -15q33 59 71.5 91.5t87.5 32.5q26 0 43 -13.5t17 -38.5
q0 -63 -59 -63q-12 0 -30 5t-23 6q-34 10 -45 10q-16 -2 -26.5 -9zM341 247.5q16 43.5 16 143.5t-16 144.5t-48 44.5t-48 -45.5t-16 -142.5t16 -142.5t48 -45.5t48 43.5zM451 -75q-26 8 -72 8h-217q-10 -24 -10 -45q0 -89 149 -89q83 0 129.5 25.5t46.5 62.5q0 30 -26 38z
M201.5 675q-36.5 46 -36.5 148h15q6 -42 42 -61t88 -19t88 19t42 61h15q0 -102 -36.5 -148t-108.5 -46t-108.5 46z" />
    <glyph glyph-name="Gdotaccent" unicode="&#x120;" horiz-adv-x="762" 
d="M756 337v-21h-4q-49 0 -49 -68v-209q-52 -22 -128.5 -36t-174.5 -14q-113 0 -195 50t-124.5 137.5t-42.5 199.5q0 114 44 201t136 136t231 49q82 0 143 -11.5t95 -26.5l-16 -233l-19 -1q-31 89 -59 143.5t-63 82t-82 27.5q-79 0 -122.5 -83t-43.5 -284q0 -368 138 -368
q60 0 104 51v171q0 40 -15.5 63t-58.5 23h-15v21h321zM564 132l-9 -23q7 13 9 23zM339 825q-36 29 -36 74q0 47 36 77t89 30q51 0 86.5 -30t35.5 -77q0 -45 -35.5 -74t-86.5 -29q-53 0 -89 29z" />
    <glyph glyph-name="gdotaccent" unicode="&#x121;" horiz-adv-x="619" 
d="M441.5 598q-10.5 -7 -22.5 -25q68 -23 107.5 -70t39.5 -111q0 -61 -35.5 -106.5t-97.5 -70t-140 -24.5q-64 0 -120 16q-23 -18 -34 -30.5t-11 -25.5t8.5 -21t26.5 -8q32 0 63.5 1t58.5 2q100 4 142 4q63 0 102 -10t59.5 -37.5t20.5 -77.5q0 -104 -84.5 -162.5
t-259.5 -58.5q-111 0 -185.5 18t-74.5 58q0 31 33 46t90 28q-45 1 -80.5 24.5t-35.5 80.5q0 33 16 59.5t41 47.5t71 54l18 13q-66 24 -102.5 70.5t-36.5 109.5q0 61 34.5 106.5t96.5 69.5t143 24q62 0 113 -15q33 59 71.5 91.5t87.5 32.5q26 0 43 -13.5t17 -38.5
q0 -63 -59 -63q-12 0 -30 5t-23 6q-34 10 -45 10q-16 -2 -26.5 -9zM341 247.5q16 43.5 16 143.5t-16 144.5t-48 44.5t-48 -45.5t-16 -142.5t16 -142.5t48 -45.5t48 43.5zM451 -75q-26 8 -72 8h-217q-10 -24 -10 -45q0 -89 149 -89q83 0 129.5 25.5t46.5 62.5q0 30 -26 38z
M222 665q-36 29 -36 74q0 47 36 77t89 30q51 0 86.5 -30t35.5 -77q0 -45 -35.5 -74t-86.5 -29q-53 0 -89 29z" />
    <glyph glyph-name="uni0122" unicode="&#x122;" horiz-adv-x="762" 
d="M756 337v-21h-4q-49 0 -49 -68v-209q-52 -22 -128.5 -36t-174.5 -14q-113 0 -195 50t-124.5 137.5t-42.5 199.5q0 114 44 201t136 136t231 49q82 0 143 -11.5t95 -26.5l-16 -233l-19 -1q-31 89 -59 143.5t-63 82t-82 27.5q-79 0 -122.5 -83t-43.5 -284q0 -368 138 -368
q60 0 104 51v171q0 40 -15.5 63t-58.5 23h-15v21h321zM564 132l-9 -23q7 13 9 23zM490.5 -72q24.5 -23 24.5 -66q0 -112 -158 -209l-10 13q44 37 67 65.5t35 63.5l-17 -1q-42 0 -67 21.5t-25 58.5q0 36 25.5 56.5t62.5 20.5q38 0 62.5 -23z" />
    <glyph glyph-name="uni0123" unicode="&#x123;" horiz-adv-x="619" 
d="M441.5 598q-10.5 -7 -22.5 -25q68 -23 107.5 -70t39.5 -111q0 -61 -35.5 -106.5t-97.5 -70t-140 -24.5q-64 0 -120 16q-23 -18 -34 -30.5t-11 -25.5t8.5 -21t26.5 -8q32 0 63.5 1t58.5 2q100 4 142 4q63 0 102 -10t59.5 -37.5t20.5 -77.5q0 -104 -84.5 -162.5
t-259.5 -58.5q-111 0 -185.5 18t-74.5 58q0 31 33 46t90 28q-45 1 -80.5 24.5t-35.5 80.5q0 33 16 59.5t41 47.5t71 54l18 13q-66 24 -102.5 70.5t-36.5 109.5q0 61 34.5 106.5t96.5 69.5t143 24q62 0 113 -15q33 59 71.5 91.5t87.5 32.5q26 0 43 -13.5t17 -38.5
q0 -63 -59 -63q-12 0 -30 5t-23 6q-34 10 -45 10q-16 -2 -26.5 -9zM341 247.5q16 43.5 16 143.5t-16 144.5t-48 44.5t-48 -45.5t-16 -142.5t16 -142.5t48 -45.5t48 43.5zM451 -75q-26 8 -72 8h-217q-10 -24 -10 -45q0 -89 149 -89q83 0 129.5 25.5t46.5 62.5q0 30 -26 38z
M372 764.5q25 -21.5 25 -58.5q0 -36 -25.5 -56.5t-62.5 -20.5q-38 0 -62.5 23t-24.5 66q0 112 158 209l10 -13q-44 -37 -67 -65.5t-35 -63.5l17 1q42 0 67 -21.5z" />
    <glyph glyph-name="Hcircumflex" unicode="&#x124;" horiz-adv-x="854" 
d="M761 38q17 -22 50 -22v-16h-337v16q32 0 45.5 21t13.5 83v261h-212v-261q0 -62 13.5 -83t45.5 -21v-16h-337v16q33 0 50 22t17 82v510q0 62 -15.5 83t-52.5 21v16h337v-16q-29 0 -43.5 -22t-14.5 -82v-231h212v231q0 60 -14.5 82t-43.5 22v16h337v-16q-37 0 -52.5 -21
t-15.5 -83v-510q0 -60 17 -82zM579 799l-152 69l-152 -69h-20l164 199h16l164 -199h-20z" />
    <glyph glyph-name="hcircumflex" unicode="&#x125;" horiz-adv-x="716" 
d="M659 38.5q18 -22.5 47 -22.5v-16h-318v16q42 0 42 83v306q0 50 -13 74t-45 24q-23 0 -40.5 -10t-43.5 -32v-362q0 -83 43 -83v-16h-320v16q30 0 48 22.5t18 81.5v545q0 46 -14.5 73t-52.5 41v15l267 58l11 -4v-369q38 36 63 57t62 38.5t80 17.5q75 0 111.5 -46t36.5 -108
v-318q0 -59 18 -81.5zM510 897l-152 69l-152 -69h-20l164 199h16l164 -199h-20z" />
    <glyph glyph-name="Hbar" unicode="&#x126;" horiz-adv-x="854" 
d="M759.5 713q-15.5 -21 -15.5 -83v-45h68v-18h-68v-447q0 -60 17 -82t50 -22v-16h-337v16q32 0 45.5 21t13.5 83v261h-212v-261q0 -62 13.5 -83t45.5 -21v-16h-337v16q33 0 50 22t17 82v447h-68v18h68v45q0 62 -15.5 83t-52.5 21v16h337v-16q-29 0 -43.5 -22t-14.5 -82v-45
h212v45q0 60 -14.5 82t-43.5 22v16h337v-16q-37 0 -52.5 -21zM321 567v-168h212v168h-212z" />
    <glyph glyph-name="hbar" unicode="&#x127;" horiz-adv-x="716" 
d="M659 38.5q18 -22.5 47 -22.5v-16h-318v16q42 0 42 83v306q0 50 -13 74t-45 24q-23 0 -40.5 -10t-43.5 -32v-362q0 -83 43 -83v-16h-320v16q30 0 48 22.5t18 81.5v537h-69v26h68q-2 37 -17.5 60.5t-48.5 35.5v15l267 58l11 -4v-165h127v-26h-127v-178q38 36 63 57t62 38.5
t80 17.5q75 0 111.5 -46t36.5 -108v-318q0 -59 18 -81.5z" />
    <glyph glyph-name="Itilde" unicode="&#x128;" horiz-adv-x="432" 
d="M327.5 55q6.5 -22 21 -30.5t41.5 -8.5v-16h-347v16q33 0 50 22t17 82v510q0 62 -15.5 83t-52.5 21v16h347v-16q-36 0 -52 -21.5t-16 -82.5v-510q0 -43 6.5 -65zM193 818q-90 14 -116 14q-19 0 -30.5 -10t-11.5 -26h-18q0 78 23.5 118.5t80.5 40.5q24 0 110 -14
q81 -15 111 -15q24 0 39 10.5t15 26.5h18q0 -79 -23.5 -119t-80.5 -40q-25 0 -117 14z" />
    <glyph glyph-name="itilde" unicode="&#x129;" horiz-adv-x="366" 
d="M303.5 37q15.5 -21 52.5 -21v-16h-346v16q33 0 50 22t17 82v283q0 46 -14.5 73t-52.5 41v15l267 58l11 -4v-466q0 -62 15.5 -83zM199.5 649.5q-37.5 6.5 -49.5 8.5q-79 15 -106 15q-17 0 -28 -10.5t-11 -27.5h-16q0 80 21.5 122t73.5 42q28 0 101 -15q10 -2 46 -8.5
t55 -6.5q22 0 35.5 10.5t13.5 27.5h16q0 -80 -21.5 -122t-73.5 -42q-19 0 -56.5 6.5z" />
    <glyph glyph-name="Imacron" unicode="&#x12a;" horiz-adv-x="432" 
d="M327.5 55q6.5 -22 21 -30.5t41.5 -8.5v-16h-347v16q33 0 50 22t17 82v510q0 62 -15.5 83t-52.5 21v16h347v-16q-36 0 -52 -21.5t-16 -82.5v-510q0 -43 6.5 -65zM389 903v-70h-346v70h346z" />
    <glyph glyph-name="imacron" unicode="&#x12b;" horiz-adv-x="366" 
d="M303.5 37q15.5 -21 52.5 -21v-16h-346v16q33 0 50 22t17 82v283q0 46 -14.5 73t-52.5 41v15l267 58l11 -4v-466q0 -62 15.5 -83zM333 763v-80h-326v80h326z" />
    <glyph glyph-name="Ibreve" unicode="&#x12c;" horiz-adv-x="432" 
d="M327.5 55q6.5 -22 21 -30.5t41.5 -8.5v-16h-347v16q33 0 50 22t17 82v510q0 62 -15.5 83t-52.5 21v16h347v-16q-36 0 -52 -21.5t-16 -82.5v-510q0 -43 6.5 -65zM101.5 829q-38.5 42 -38.5 133h14q6 -34 44.5 -50t94.5 -16t94 16t44 50h14q0 -91 -38 -133t-114 -42
t-114.5 42z" />
    <glyph glyph-name="ibreve" unicode="&#x12d;" horiz-adv-x="366" 
d="M303.5 37q15.5 -21 52.5 -21v-16h-346v16q33 0 50 22t17 82v283q0 46 -14.5 73t-52.5 41v15l267 58l11 -4v-466q0 -62 15.5 -83zM61.5 675q-36.5 46 -36.5 148h15q6 -42 42 -61t88 -19t88 19t42 61h15q0 -102 -36.5 -148t-108.5 -46t-108.5 46z" />
    <glyph glyph-name="Iogonek" unicode="&#x12e;" horiz-adv-x="432" 
d="M319 -40.5q-28 -30.5 -28 -63.5q0 -22 11.5 -33t31.5 -11q14 0 27.5 7t20.5 21l8 -9q0 -81 -31 -124.5t-91 -43.5q-55 0 -88.5 32t-33.5 90q0 60 46.5 105t126.5 70h-276v16q33 0 50 22t17 82v510q0 62 -15.5 83t-52.5 21v16h347v-16q-36 0 -52 -21.5t-16 -82.5v-510
q0 -43 6.5 -65t21 -30.5t41.5 -8.5v-16q-43 -10 -71 -40.5z" />
    <glyph glyph-name="iogonek" unicode="&#x12f;" horiz-adv-x="366" 
d="M82 665q-36 29 -36 74q0 47 36 77t89 30q51 0 86.5 -30t35.5 -77q0 -45 -35.5 -74t-86.5 -29q-53 0 -89 29zM285 -40.5q-28 -30.5 -28 -63.5q0 -22 11.5 -33t31.5 -11q14 0 27.5 7t20.5 21l8 -9q0 -81 -31 -124.5t-91 -43.5q-55 0 -88.5 32t-33.5 90q0 60 46.5 105
t126.5 70h-275v16q33 0 50 22t17 82v283q0 46 -14.5 73t-52.5 41v15l267 58l11 -4v-466q0 -62 15.5 -83t52.5 -21v-16q-43 -10 -71 -40.5z" />
    <glyph glyph-name="Idotaccent" unicode="&#x130;" horiz-adv-x="432" 
d="M327.5 55q6.5 -22 21 -30.5t41.5 -8.5v-16h-347v16q33 0 50 22t17 82v510q0 62 -15.5 83t-52.5 21v16h347v-16q-36 0 -52 -21.5t-16 -82.5v-510q0 -43 6.5 -65zM128 825q-36 29 -36 74q0 47 36 77t89 30q51 0 86.5 -30t35.5 -77q0 -45 -35.5 -74t-86.5 -29q-53 0 -89 29z
" />
    <glyph glyph-name="dotlessi" unicode="&#x131;" horiz-adv-x="366" 
d="M303.5 37q15.5 -21 52.5 -21v-16h-346v16q33 0 50 22t17 82v283q0 46 -14.5 73t-52.5 41v15l267 58l11 -4v-466q0 -62 15.5 -83z" />
    <glyph glyph-name="IJ" unicode="&#x132;" horiz-adv-x="837" 
d="M327.5 55q6.5 -22 21 -30.5t41.5 -8.5v-16h-347v16q33 0 50 22t17 82v510q0 62 -15.5 83t-52.5 21v16h347v-16q-36 0 -52 -21.5t-16 -82.5v-510q0 -43 6.5 -65zM819 750v-16q-36 0 -52 -21.5t-16 -82.5v-497q0 -123 -47.5 -201.5t-118.5 -113t-144 -34.5q-66 0 -99.5 18
t-33.5 60q0 26 18.5 46t55.5 20q39 0 59 -18.5t38 -51.5q11 -20 18 -28.5t18 -8.5q14 0 19.5 8.5t5.5 26.5v774q0 62 -15.5 83t-52.5 21v16h347z" />
    <glyph glyph-name="ij" unicode="&#x133;" horiz-adv-x="730" 
d="M303.5 37q15.5 -21 52.5 -21v-16h-346v16q33 0 50 22t17 82v283q0 46 -14.5 73t-52.5 41v15l267 58l11 -4v-466q0 -62 15.5 -83zM82 665q-36 29 -36 74q0 47 36 77t89 30q51 0 86.5 -30t35.5 -77q0 -45 -35.5 -74t-86.5 -29q-53 0 -89 29zM448 665q-36 29 -36 74
q0 47 36 77t89 30q51 0 86.5 -30t35.5 -77q0 -45 -35.5 -74t-86.5 -29q-53 0 -89 29zM643 590l11 -4v-453q0 -123 -47.5 -201.5t-118.5 -113t-144 -34.5q-66 0 -99.5 18t-33.5 60q0 26 18.5 46t55.5 20q39 0 59 -18.5t38 -51.5q11 -20 18 -28.5t18 -8.5q14 0 19.5 8.5
t5.5 26.5v547q0 46 -14.5 73t-52.5 41v15z" />
    <glyph glyph-name="Jcircumflex" unicode="&#x134;" horiz-adv-x="405" 
d="M387 750v-16q-36 0 -52 -21.5t-16 -82.5v-497q0 -123 -47.5 -201.5t-118.5 -113t-144 -34.5q-66 0 -99.5 18t-33.5 60q0 26 18.5 46t55.5 20q39 0 59 -18.5t38 -51.5q11 -20 18 -28.5t18 -8.5q14 0 19.5 8.5t5.5 26.5v774q0 62 -15.5 83t-52.5 21v16h347zM364 799
l-152 69l-152 -69h-20l164 199h16l164 -199h-20z" />
    <glyph glyph-name="jcircumflex" unicode="&#x135;" horiz-adv-x="364" 
d="M288 586v-453q0 -123 -47.5 -201.5t-118.5 -113t-144 -34.5q-66 0 -99.5 18t-33.5 60q0 26 18.5 46t55.5 20q39 0 59 -18.5t38 -51.5q11 -20 18 -28.5t18 -8.5q14 0 19.5 8.5t5.5 26.5v547q0 46 -14.5 73t-52.5 41v15l267 58zM314 639l-132 75l-132 -75h-20l144 209h16
l144 -209h-20z" />
    <glyph glyph-name="uni0136" unicode="&#x136;" horiz-adv-x="810" 
d="M825 0h-258q-26 21 -53 75t-71 160q-6 13 -12 28.5t-14 33.5q-17 39 -44.5 60t-51.5 23v-260q0 -43 6.5 -65t21 -30.5t41.5 -8.5v-16h-347v16q33 0 50 22t17 82v510q0 62 -15.5 83t-52.5 21v16h347v-16q-36 0 -52 -21.5t-16 -82.5v-233l165 182q23 25 38.5 58.5
t15.5 58.5q0 38 -35 38v16h265v-16q-19 0 -69 -25.5t-105 -64.5t-92 -79l-147 -159q46 12 82 12q79 0 132 -31t88 -109l81 -180q16 -36 35 -59t49 -23zM502.5 -72q24.5 -23 24.5 -66q0 -112 -158 -209l-10 13q44 37 67 65.5t35 63.5l-17 -1q-42 0 -67 21.5t-25 58.5
q0 36 25.5 56.5t62.5 20.5q38 0 62.5 -23z" />
    <glyph glyph-name="uni0137" unicode="&#x137;" horiz-adv-x="718" 
d="M710 0h-252q-27 38 -45 83.5t-44 138.5q-14 47 -34.5 65t-46.5 20v-187q0 -61 11 -82.5t36 -21.5v-16h-325v16q33 0 50 22t17 82v545q0 46 -14.5 73t-52.5 41v15l267 58l11 -4v-520l82 72q35 32 57.5 68t22.5 62q0 15 -9 24.5t-26 10.5v15h261v-15q-152 -57 -284 -173
l-75 -66q34 10 61 10q59 0 98 -11t68.5 -40t51.5 -84l44 -110q17 -43 32 -57.5t37 -17.5zM422.5 -72q24.5 -23 24.5 -66q0 -112 -158 -209l-10 13q44 37 67 65.5t35 63.5l-17 -1q-42 0 -67 21.5t-25 58.5q0 36 25.5 56.5t62.5 20.5q38 0 62.5 -23z" />
    <glyph glyph-name="kgreenlandic" unicode="&#x138;" horiz-adv-x="718" 
d="M710 0h-252q-27 38 -45 83.5t-44 138.5q-14 47 -34.5 65t-46.5 20v-187q0 -61 11 -82.5t36 -21.5v-16h-325v16q33 0 50 22t17 82v286q0 46 -14.5 73t-52.5 41v15l267 58l11 -4v-261l82 72q35 32 57.5 68t22.5 62q0 15 -9 24.5t-26 10.5v15h261v-15q-152 -57 -284 -173
l-75 -66q34 10 61 10q59 0 98 -11t68.5 -40t51.5 -84l44 -110q17 -43 32 -57.5t37 -17.5z" />
    <glyph glyph-name="Lacute" unicode="&#x139;" horiz-adv-x="642" 
d="M618 300l-15 -300h-560v16q33 0 50 22t17 82v510q0 62 -15.5 83t-52.5 21v16h367v-16q-42 0 -65 -22t-23 -82v-510q0 -62 13.5 -83t45.5 -21h19q59 0 111.5 74.5t90.5 209.5h17zM159 812l123 159h201l9 -16l-315 -155z" />
    <glyph glyph-name="lacute" unicode="&#x13a;" horiz-adv-x="366" 
d="M303.5 37q15.5 -21 52.5 -21v-16h-346v16q33 0 50 22t17 82v545q0 46 -14.5 73t-52.5 41v15l267 58l11 -4v-728q0 -62 15.5 -83zM130 910l123 159h201l9 -16l-315 -155z" />
    <glyph glyph-name="uni013B" unicode="&#x13b;" horiz-adv-x="642" 
d="M618 300l-15 -300h-560v16q33 0 50 22t17 82v510q0 62 -15.5 83t-52.5 21v16h367v-16q-42 0 -65 -22t-23 -82v-510q0 -62 13.5 -83t45.5 -21h19q59 0 111.5 74.5t90.5 209.5h17zM384.5 -72q24.5 -23 24.5 -66q0 -112 -158 -209l-10 13q44 37 67 65.5t35 63.5l-17 -1
q-42 0 -67 21.5t-25 58.5q0 36 25.5 56.5t62.5 20.5q38 0 62.5 -23z" />
    <glyph glyph-name="uni013C" unicode="&#x13c;" horiz-adv-x="366" 
d="M303.5 37q15.5 -21 52.5 -21v-16h-346v16q33 0 50 22t17 82v545q0 46 -14.5 73t-52.5 41v15l267 58l11 -4v-728q0 -62 15.5 -83zM246.5 -72q24.5 -23 24.5 -66q0 -112 -158 -209l-10 13q44 37 67 65.5t35 63.5l-17 -1q-42 0 -67 21.5t-25 58.5q0 36 25.5 56.5t62.5 20.5
q38 0 62.5 -23z" />
    <glyph glyph-name="Lcaron" unicode="&#x13d;" horiz-adv-x="642" 
d="M618 300l-15 -300h-560v16q33 0 50 22t17 82v510q0 62 -15.5 83t-52.5 21v16h367v-16q-42 0 -65 -22t-23 -82v-510q0 -62 13.5 -83t45.5 -21h19q59 0 111.5 74.5t90.5 209.5h17zM476 594q0 90 -29 156l1 15l136 37l14 -5q1 -7 1 -20q0 -50 -18.5 -102t-44.5 -92t-46 -54
l-18 6q4 27 4 59z" />
    <glyph glyph-name="lcaron" unicode="&#x13e;" horiz-adv-x="394" 
d="M303.5 37q15.5 -21 52.5 -21v-16h-346v16q33 0 50 22t17 82v545q0 46 -14.5 73t-52.5 41v15l267 58l11 -4v-728q0 -62 15.5 -83zM355 692q0 90 -29 156l1 15l136 37l14 -5q1 -7 1 -20q0 -50 -18.5 -102t-44.5 -92t-46 -54l-18 6q4 27 4 59z" />
    <glyph glyph-name="Ldot" unicode="&#x13f;" horiz-adv-x="642" 
d="M618 300l-15 -300h-560v16q33 0 50 22t17 82v510q0 62 -15.5 83t-52.5 21v16h367v-16q-42 0 -65 -22t-23 -82v-510q0 -62 13.5 -83t45.5 -21h19q59 0 111.5 74.5t90.5 209.5h17zM449.5 347q-31.5 27 -31.5 70q0 45 31.5 73.5t78.5 28.5t78.5 -28.5t31.5 -73.5
q0 -43 -31.5 -70t-78.5 -27t-78.5 27z" />
    <glyph glyph-name="ldot" unicode="&#x140;" horiz-adv-x="616" 
d="M303.5 37q15.5 -21 52.5 -21v-16h-346v16q33 0 50 22t17 82v545q0 46 -14.5 73t-52.5 41v15l267 58l11 -4v-728q0 -62 15.5 -83zM412.5 362q-31.5 27 -31.5 70q0 45 31.5 73.5t78.5 28.5t78.5 -28.5t31.5 -73.5q0 -43 -31.5 -70t-78.5 -27t-78.5 27z" />
    <glyph glyph-name="Lslash" unicode="&#x141;" horiz-adv-x="642" 
d="M618 300l-15 -300h-560v16q33 0 50 22t17 82v268l-68 -37v19l68 37v223q0 62 -15.5 83t-52.5 21v16h367v-16q-42 0 -65 -22t-23 -82v-109l109 59v-19l-109 -59v-382q0 -62 13.5 -83t45.5 -21h19q59 0 111.5 74.5t90.5 209.5h17z" />
    <glyph glyph-name="lslash" unicode="&#x142;" horiz-adv-x="366" 
d="M303.5 37q15.5 -21 52.5 -21v-16h-346v16q33 0 50 22t17 82v304l-67 -32v19l67 32v222q0 46 -14.5 73t-52.5 41v15l267 58l11 -4v-306l68 32v-19l-68 -32v-403q0 -62 15.5 -83z" />
    <glyph glyph-name="Nacute" unicode="&#x143;" horiz-adv-x="808" 
d="M791 750v-16q-24 0 -50.5 -26.5t-44.5 -76t-18 -112.5v-519h-121l-403 663v-432q0 -64 16 -113t41 -75.5t51 -26.5v-16h-245v16q24 0 50.5 26.5t44.5 76t18 112.5v408q0 49 -18 72t-66 23v16h317l291 -487v256q0 64 -16 113t-41 75.5t-51 26.5v16h245zM351 812l123 159
h201l9 -16l-315 -155z" />
    <glyph glyph-name="nacute" unicode="&#x144;" horiz-adv-x="716" 
d="M659 38.5q18 -22.5 47 -22.5v-16h-318v16q42 0 42 83v306q0 50 -13 74t-45 24q-23 0 -40.5 -10t-43.5 -32v-362q0 -83 43 -83v-16h-320v16q30 0 48 22.5t18 81.5v283q0 46 -14.5 73t-52.5 41v15l267 58l11 -4v-107q39 38 63.5 58t61.5 38t80 18q75 0 111.5 -46.5
t36.5 -108.5v-318q0 -59 18 -81.5zM322 639l54 209h201l9 -16l-244 -193h-20z" />
    <glyph glyph-name="uni0145" unicode="&#x145;" horiz-adv-x="808" 
d="M791 750v-16q-24 0 -50.5 -26.5t-44.5 -76t-18 -112.5v-519h-121l-403 663v-432q0 -64 16 -113t41 -75.5t51 -26.5v-16h-245v16q24 0 50.5 26.5t44.5 76t18 112.5v408q0 49 -18 72t-66 23v16h317l291 -487v256q0 64 -16 113t-41 75.5t-51 26.5v16h245zM467.5 -72
q24.5 -23 24.5 -66q0 -112 -158 -209l-10 13q44 37 67 65.5t35 63.5l-17 -1q-42 0 -67 21.5t-25 58.5q0 36 25.5 56.5t62.5 20.5q38 0 62.5 -23z" />
    <glyph glyph-name="uni0146" unicode="&#x146;" horiz-adv-x="716" 
d="M659 38.5q18 -22.5 47 -22.5v-16h-318v16q42 0 42 83v306q0 50 -13 74t-45 24q-23 0 -40.5 -10t-43.5 -32v-362q0 -83 43 -83v-16h-320v16q30 0 48 22.5t18 81.5v283q0 46 -14.5 73t-52.5 41v15l267 58l11 -4v-107q39 38 63.5 58t61.5 38t80 18q75 0 111.5 -46.5
t36.5 -108.5v-318q0 -59 18 -81.5zM421.5 -72q24.5 -23 24.5 -66q0 -112 -158 -209l-10 13q44 37 67 65.5t35 63.5l-17 -1q-42 0 -67 21.5t-25 58.5q0 36 25.5 56.5t62.5 20.5q38 0 62.5 -23z" />
    <glyph glyph-name="Ncaron" unicode="&#x147;" horiz-adv-x="808" 
d="M791 750v-16q-24 0 -50.5 -26.5t-44.5 -76t-18 -112.5v-519h-121l-403 663v-432q0 -64 16 -113t41 -75.5t51 -26.5v-16h-245v16q24 0 50.5 26.5t44.5 76t18 112.5v408q0 49 -18 72t-66 23v16h317l291 -487v256q0 64 -16 113t-41 75.5t-51 26.5v16h245zM576 998l-164 -199
h-16l-164 199h20l152 -69l152 69h20z" />
    <glyph glyph-name="ncaron" unicode="&#x148;" horiz-adv-x="716" 
d="M659 38.5q18 -22.5 47 -22.5v-16h-318v16q42 0 42 83v306q0 50 -13 74t-45 24q-23 0 -40.5 -10t-43.5 -32v-362q0 -83 43 -83v-16h-320v16q30 0 48 22.5t18 81.5v283q0 46 -14.5 73t-52.5 41v15l267 58l11 -4v-107q39 38 63.5 58t61.5 38t80 18q75 0 111.5 -46.5
t36.5 -108.5v-318q0 -59 18 -81.5zM510 848l-144 -209h-16l-144 209h20l132 -75l132 75h20z" />
    <glyph glyph-name="Eng" unicode="&#x14a;" horiz-adv-x="803" 
d="M672 742.5q31 -30.5 45 -114.5t14 -250q0 -206 -47.5 -328.5t-117 -171.5t-145.5 -49q-66 0 -99.5 18t-33.5 60q0 26 18.5 46t55.5 20q39 0 59 -18.5t38 -51.5q11 -20 18 -28.5t18 -8.5t16 25t7 120.5t2 320.5q0 160 -5.5 232.5t-19.5 95.5t-43 23q-22 0 -53 -19.5
t-78 -64.5v-479q0 -62 13.5 -83t45.5 -21v-16h-337v16q33 0 50 22t17 82v510q0 62 -15.5 83t-52.5 21v16h337v-16q-29 0 -43.5 -22t-14.5 -82v-9q71 72 133.5 112t128.5 40q58 0 89 -30.5z" />
    <glyph glyph-name="eng" unicode="&#x14b;" horiz-adv-x="714" 
d="M604.5 546.5q36.5 -46.5 36.5 -108.5v-294q0 -123 -47.5 -201.5t-118.5 -113t-144 -34.5q-66 0 -99.5 18t-33.5 60q0 26 18.5 46t55.5 20q39 0 59 -18.5t38 -51.5q11 -20 18 -28.5t18 -8.5q14 0 19.5 8.5t5.5 26.5v538q0 50 -13 74t-45 24q-23 0 -40.5 -10t-43.5 -32
v-362q0 -83 43 -83v-16h-320v16q30 0 48 22.5t18 81.5v283q0 46 -14.5 73t-52.5 41v15l267 58l11 -4v-107q39 38 63.5 58t61.5 38t80 18q75 0 111.5 -46.5z" />
    <glyph glyph-name="Omacron" unicode="&#x14c;" horiz-adv-x="816" 
d="M212.5 39q-83.5 50 -129 137.5t-45.5 198.5t45.5 199t129 138t192.5 50q110 0 195 -50t131.5 -138.5t46.5 -198.5t-46.5 -198t-131.5 -138t-195 -50q-109 0 -192.5 50zM500.5 96.5q33.5 88.5 33.5 278.5q0 368 -130 368q-62 0 -92 -86.5t-30 -281.5q0 -193 32 -280
t92 -87q61 0 94.5 88.5zM581 903v-70h-346v70h346z" />
    <glyph glyph-name="omacron" unicode="&#x14d;" horiz-adv-x="665" 
d="M170.5 27q-69.5 39 -107.5 108t-38 155t38 155t107.5 108.5t161.5 39.5q93 0 163 -39.5t107.5 -108t37.5 -155.5t-37.5 -155.5t-107.5 -107.5t-163 -39q-92 0 -161.5 39zM384.5 32.5q17.5 28.5 24.5 89t7 168.5t-7 169t-25 90t-53 29t-52.5 -28t-24 -88.5t-6.5 -171.5
q0 -108 7 -169t25.5 -89t52.5 -28t51.5 28.5zM496 763v-80h-326v80h326z" />
    <glyph glyph-name="Obreve" unicode="&#x14e;" horiz-adv-x="816" 
d="M212.5 39q-83.5 50 -129 137.5t-45.5 198.5t45.5 199t129 138t192.5 50q110 0 195 -50t131.5 -138.5t46.5 -198.5t-46.5 -198t-131.5 -138t-195 -50q-109 0 -192.5 50zM500.5 96.5q33.5 88.5 33.5 278.5q0 368 -130 368q-62 0 -92 -86.5t-30 -281.5q0 -193 32 -280
t92 -87q61 0 94.5 88.5zM293.5 829q-38.5 42 -38.5 133h14q6 -34 44.5 -50t94.5 -16t94 16t44 50h14q0 -91 -38 -133t-114 -42t-114.5 42z" />
    <glyph glyph-name="obreve" unicode="&#x14f;" horiz-adv-x="665" 
d="M170.5 27q-69.5 39 -107.5 108t-38 155t38 155t107.5 108.5t161.5 39.5q93 0 163 -39.5t107.5 -108t37.5 -155.5t-37.5 -155.5t-107.5 -107.5t-163 -39q-92 0 -161.5 39zM384.5 32.5q17.5 28.5 24.5 89t7 168.5t-7 169t-25 90t-53 29t-52.5 -28t-24 -88.5t-6.5 -171.5
q0 -108 7 -169t25.5 -89t52.5 -28t51.5 28.5zM224.5 675q-36.5 46 -36.5 148h15q6 -42 42 -61t88 -19t88 19t42 61h15q0 -102 -36.5 -148t-108.5 -46t-108.5 46z" />
    <glyph glyph-name="Ohungarumlaut" unicode="&#x150;" horiz-adv-x="816" 
d="M212.5 39q-83.5 50 -129 137.5t-45.5 198.5t45.5 199t129 138t192.5 50q110 0 195 -50t131.5 -138.5t46.5 -198.5t-46.5 -198t-131.5 -138t-195 -50q-109 0 -192.5 50zM500.5 96.5q33.5 88.5 33.5 278.5q0 368 -130 368q-62 0 -92 -86.5t-30 -281.5q0 -193 32 -280
t92 -87q61 0 94.5 88.5zM266 812l123 159h201l9 -16l-315 -155zM529 812l123 159h201l9 -16l-315 -155z" />
    <glyph glyph-name="ohungarumlaut" unicode="&#x151;" horiz-adv-x="665" 
d="M170.5 27q-69.5 39 -107.5 108t-38 155t38 155t107.5 108.5t161.5 39.5q93 0 163 -39.5t107.5 -108t37.5 -155.5t-37.5 -155.5t-107.5 -107.5t-163 -39q-92 0 -161.5 39zM384.5 32.5q17.5 28.5 24.5 89t7 168.5t-7 169t-25 90t-53 29t-52.5 -28t-24 -88.5t-6.5 -171.5
q0 -108 7 -169t25.5 -89t52.5 -28t51.5 28.5zM204 639l54 209h201l9 -16l-244 -193h-20zM440 639l54 209h201l9 -16l-244 -193h-20z" />
    <glyph glyph-name="OE" unicode="&#x152;" horiz-adv-x="1096" 
d="M1067 270l-15 -270h-552q-46 -11 -95 -11q-109 0 -192.5 50t-129 137.5t-45.5 198.5t45.5 199t129 138t192.5 50q54 0 99 -12h538l10 -256h-12q-98 240 -219 240h-18q-29 0 -43.5 -22t-14.5 -82v-222h7q49 0 86.5 37.5t57.5 97.5h15v-292h-15q-20 63 -57 101.5t-87 38.5
h-7v-271q0 -62 13.5 -83t45.5 -21h9q41 0 88 29t88.5 86.5t65.5 138.5h12zM500.5 96.5q33.5 88.5 33.5 278.5q0 368 -130 368q-62 0 -92 -86.5t-30 -281.5q0 -193 32 -280t92 -87q61 0 94.5 88.5z" />
    <glyph glyph-name="oe" unicode="&#x153;" horiz-adv-x="1003" 
d="M978 196q-3 -9 -25 -68.5t-79 -99.5t-141 -40q-57 0 -107 18t-87 52q-83 -70 -207 -70q-92 0 -161.5 39t-107.5 108t-38 155t38 155t107.5 108.5t161.5 39.5q65 0 118.5 -19.5t93.5 -54.5q79 74 207 74q119 0 169.5 -62.5t50.5 -177.5l-1 -20h-331q21 -188 192 -188
q46 0 78.5 14t59.5 42zM384.5 32.5q17.5 28.5 24.5 89t7 168.5t-7 169t-25 90t-53 29t-52.5 -28t-24 -88.5t-6.5 -171.5q0 -108 7 -169t25.5 -89t52.5 -28t51.5 28.5zM636 391q0 -27 1 -39h162q0 81 -6.5 129t-23 71.5t-46.5 23.5q-87 0 -87 -185z" />
    <glyph glyph-name="Racute" unicode="&#x154;" horiz-adv-x="793" 
d="M822 0h-260q-35 35 -64.5 96t-66.5 161q-16 43 -43.5 68t-54.5 31v-236q0 -43 6.5 -65t21 -30.5t41.5 -8.5v-16h-347v16q33 0 50 22t17 82v511q0 50 -23.5 77t-56.5 27v15h333q128 0 199.5 -11t110 -47t38.5 -109q0 -98 -66 -148.5t-207 -64.5q76 -5 129.5 -35.5
t91.5 -108.5l65 -135q20 -40 41 -56t44 -19zM333 372q165 21 165 200q0 89 -34.5 126t-78.5 37q-30 0 -41 -16t-11 -52v-295zM344 812l123 159h201l9 -16l-315 -155z" />
    <glyph glyph-name="racute" unicode="&#x155;" horiz-adv-x="557" 
d="M510.5 566.5q25.5 -26.5 25.5 -70.5q0 -45 -24 -75t-69 -30q-26 0 -43.5 7t-34.5 19q-9 6 -17.5 10.5t-17.5 4.5q-20 0 -31 -19.5t-11 -56.5v-247q0 -49 19 -70.5t63 -22.5v-16h-359v16q30 0 48 22.5t18 81.5v283q0 46 -14.5 73t-52.5 41v15l267 58l11 -4v-163
q9 73 48.5 121.5t103.5 48.5q45 0 70.5 -26.5zM243 639l54 209h201l9 -16l-244 -193h-20z" />
    <glyph glyph-name="uni0156" unicode="&#x156;" horiz-adv-x="793" 
d="M822 0h-260q-35 35 -64.5 96t-66.5 161q-16 43 -43.5 68t-54.5 31v-236q0 -43 6.5 -65t21 -30.5t41.5 -8.5v-16h-347v16q33 0 50 22t17 82v511q0 50 -23.5 77t-56.5 27v15h333q128 0 199.5 -11t110 -47t38.5 -109q0 -98 -66 -148.5t-207 -64.5q76 -5 129.5 -35.5
t91.5 -108.5l65 -135q20 -40 41 -56t44 -19zM333 372q165 21 165 200q0 89 -34.5 126t-78.5 37q-30 0 -41 -16t-11 -52v-295zM504.5 -72q24.5 -23 24.5 -66q0 -112 -158 -209l-10 13q44 37 67 65.5t35 63.5l-17 -1q-42 0 -67 21.5t-25 58.5q0 36 25.5 56.5t62.5 20.5
q38 0 62.5 -23z" />
    <glyph glyph-name="uni0157" unicode="&#x157;" horiz-adv-x="557" 
d="M510.5 566.5q25.5 -26.5 25.5 -70.5q0 -45 -24 -75t-69 -30q-26 0 -43.5 7t-34.5 19q-9 6 -17.5 10.5t-17.5 4.5q-20 0 -31 -19.5t-11 -56.5v-247q0 -49 19 -70.5t63 -22.5v-16h-359v16q30 0 48 22.5t18 81.5v283q0 46 -14.5 73t-52.5 41v15l267 58l11 -4v-163
q9 73 48.5 121.5t103.5 48.5q45 0 70.5 -26.5zM342.5 -72q24.5 -23 24.5 -66q0 -112 -158 -209l-10 13q44 37 67 65.5t35 63.5l-17 -1q-42 0 -67 21.5t-25 58.5q0 36 25.5 56.5t62.5 20.5q38 0 62.5 -23z" />
    <glyph glyph-name="Rcaron" unicode="&#x158;" horiz-adv-x="793" 
d="M822 0h-260q-35 35 -64.5 96t-66.5 161q-16 43 -43.5 68t-54.5 31v-236q0 -43 6.5 -65t21 -30.5t41.5 -8.5v-16h-347v16q33 0 50 22t17 82v511q0 50 -23.5 77t-56.5 27v15h333q128 0 199.5 -11t110 -47t38.5 -109q0 -98 -66 -148.5t-207 -64.5q76 -5 129.5 -35.5
t91.5 -108.5l65 -135q20 -40 41 -56t44 -19zM333 372q165 21 165 200q0 89 -34.5 126t-78.5 37q-30 0 -41 -16t-11 -52v-295zM569 998l-164 -199h-16l-164 199h20l152 -69l152 69h20z" />
    <glyph glyph-name="rcaron" unicode="&#x159;" horiz-adv-x="557" 
d="M510.5 566.5q25.5 -26.5 25.5 -70.5q0 -45 -24 -75t-69 -30q-26 0 -43.5 7t-34.5 19q-9 6 -17.5 10.5t-17.5 4.5q-20 0 -31 -19.5t-11 -56.5v-247q0 -49 19 -70.5t63 -22.5v-16h-359v16q30 0 48 22.5t18 81.5v283q0 46 -14.5 73t-52.5 41v15l267 58l11 -4v-163
q9 73 48.5 121.5t103.5 48.5q45 0 70.5 -26.5zM431 848l-144 -209h-16l-144 209h20l132 -75l132 75h20z" />
    <glyph glyph-name="Sacute" unicode="&#x15a;" horiz-adv-x="632" 
d="M55 38v233h16q54 -125 124 -196.5t145 -71.5q44 0 75.5 26t31.5 80q0 45 -23 76.5t-57 52t-94 47.5q-71 33 -114 60t-73.5 74.5t-30.5 118.5q0 105 67 164.5t205 59.5q137 0 244 -48l-20 -170h-16q-48 104 -109 152t-127 48q-48 0 -78.5 -24.5t-30.5 -72.5
q0 -36 22.5 -61.5t56.5 -42t92 -38.5q79 -30 127.5 -56.5t83.5 -75t35 -123.5q0 -123 -75 -192t-203 -69q-153 0 -274 49zM263 812l123 159h201l9 -16l-315 -155z" />
    <glyph glyph-name="sacute" unicode="&#x15b;" horiz-adv-x="519" 
d="M139 -2q-54 10 -101 31l-1 183l13 2q20 -54 59 -102.5t84.5 -78.5t82.5 -30q36 0 55.5 16.5t19.5 48.5q0 28 -17.5 49.5t-43.5 37.5t-74 41q-59 30 -97 55.5t-64.5 64t-26.5 91.5t27.5 95t80 66.5t124.5 24.5q130 0 209 -36l-19 -141l-10 -1q-57 75 -108 119t-100 44
q-31 0 -49.5 -15.5t-18.5 -38.5q0 -34 31 -55.5t98 -50.5q65 -28 106.5 -52.5t71 -65t29.5 -99.5q0 -99 -64 -156t-170 -57q-73 0 -127 10zM224 639l54 209h201l9 -16l-244 -193h-20z" />
    <glyph glyph-name="Scircumflex" unicode="&#x15c;" horiz-adv-x="632" 
d="M55 38v233h16q54 -125 124 -196.5t145 -71.5q44 0 75.5 26t31.5 80q0 45 -23 76.5t-57 52t-94 47.5q-71 33 -114 60t-73.5 74.5t-30.5 118.5q0 105 67 164.5t205 59.5q137 0 244 -48l-20 -170h-16q-48 104 -109 152t-127 48q-48 0 -78.5 -24.5t-30.5 -72.5
q0 -36 22.5 -61.5t56.5 -42t92 -38.5q79 -30 127.5 -56.5t83.5 -75t35 -123.5q0 -123 -75 -192t-203 -69q-153 0 -274 49zM468 799l-152 69l-152 -69h-20l164 199h16l164 -199h-20z" />
    <glyph glyph-name="scircumflex" unicode="&#x15d;" horiz-adv-x="519" 
d="M139 -2q-54 10 -101 31l-1 183l13 2q20 -54 59 -102.5t84.5 -78.5t82.5 -30q36 0 55.5 16.5t19.5 48.5q0 28 -17.5 49.5t-43.5 37.5t-74 41q-59 30 -97 55.5t-64.5 64t-26.5 91.5t27.5 95t80 66.5t124.5 24.5q130 0 209 -36l-19 -141l-10 -1q-57 75 -108 119t-100 44
q-31 0 -49.5 -15.5t-18.5 -38.5q0 -34 31 -55.5t98 -50.5q65 -28 106.5 -52.5t71 -65t29.5 -99.5q0 -99 -64 -156t-170 -57q-73 0 -127 10zM392 639l-132 75l-132 -75h-20l144 209h16l144 -209h-20z" />
    <glyph glyph-name="Scedilla" unicode="&#x15e;" horiz-adv-x="632" 
d="M318 -11l-30 -42h31q68 0 103 -16t35 -53q0 -38 -47.5 -60t-113.5 -22q-64 0 -93 9l5 17q12 -3 36 -3q44 0 66 16t22 44q0 45 -63 45h-7l-1 23l32 43q-133 5 -238 48v233h16q54 -125 124 -196.5t145 -71.5q44 0 75.5 26t31.5 80q0 45 -23 76.5t-57 52t-94 47.5
q-71 33 -114 60t-73.5 74.5t-30.5 118.5q0 105 67 164.5t205 59.5q137 0 244 -48l-20 -170h-16q-48 104 -109 152t-127 48q-48 0 -78.5 -24.5t-30.5 -72.5q0 -36 22.5 -61.5t56.5 -42t92 -38.5q79 -30 127.5 -56.5t83.5 -75t35 -123.5q0 -123 -75 -192t-203 -69h-11z" />
    <glyph glyph-name="scedilla" unicode="&#x15f;" horiz-adv-x="519" 
d="M261 -12l-29 -41h31q68 0 103 -16t35 -53q0 -38 -47.5 -60t-113.5 -22q-64 0 -93 9l5 17q12 -3 36 -3q44 0 66 16t22 44q0 45 -63 45h-7l-1 23l31 41q-61 2 -108.5 12t-89.5 29l-1 183l13 2q20 -54 59 -102.5t84.5 -78.5t82.5 -30q36 0 55.5 16.5t19.5 48.5
q0 28 -17.5 49.5t-43.5 37.5t-74 41q-59 30 -97 55.5t-64.5 64t-26.5 91.5t27.5 95t80 66.5t124.5 24.5q130 0 209 -36l-19 -141l-10 -1q-57 75 -108 119t-100 44q-31 0 -49.5 -15.5t-18.5 -38.5q0 -34 31 -55.5t98 -50.5q65 -28 106.5 -52.5t71 -65t29.5 -99.5
q0 -99 -64 -156t-170 -57h-5z" />
    <glyph glyph-name="Scaron" unicode="&#x160;" horiz-adv-x="632" 
d="M55 38v233h16q54 -125 124 -196.5t145 -71.5q44 0 75.5 26t31.5 80q0 45 -23 76.5t-57 52t-94 47.5q-71 33 -114 60t-73.5 74.5t-30.5 118.5q0 105 67 164.5t205 59.5q137 0 244 -48l-20 -170h-16q-48 104 -109 152t-127 48q-48 0 -78.5 -24.5t-30.5 -72.5
q0 -36 22.5 -61.5t56.5 -42t92 -38.5q79 -30 127.5 -56.5t83.5 -75t35 -123.5q0 -123 -75 -192t-203 -69q-153 0 -274 49zM488 998l-164 -199h-16l-164 199h20l152 -69l152 69h20z" />
    <glyph glyph-name="scaron" unicode="&#x161;" horiz-adv-x="519" 
d="M139 -2q-54 10 -101 31l-1 183l13 2q20 -54 59 -102.5t84.5 -78.5t82.5 -30q36 0 55.5 16.5t19.5 48.5q0 28 -17.5 49.5t-43.5 37.5t-74 41q-59 30 -97 55.5t-64.5 64t-26.5 91.5t27.5 95t80 66.5t124.5 24.5q130 0 209 -36l-19 -141l-10 -1q-57 75 -108 119t-100 44
q-31 0 -49.5 -15.5t-18.5 -38.5q0 -34 31 -55.5t98 -50.5q65 -28 106.5 -52.5t71 -65t29.5 -99.5q0 -99 -64 -156t-170 -57q-73 0 -127 10zM412 848l-144 -209h-16l-144 209h20l132 -75l132 75h20z" />
    <glyph glyph-name="uni0162" unicode="&#x162;" horiz-adv-x="744" 
d="M477 254v-129q0 -59 29.5 -84t74.5 -25v-16h-418v16q45 0 74 25t29 84v588q0 21 -16 21h-3q-48 0 -97 -81t-93 -234h-12l4 331h650l4 -331h-17q-44 154 -92.5 234.5t-96.5 80.5h-3q-16 0 -16 -21v-459h-1zM375 -53q68 0 103 -16t35 -53q0 -38 -47.5 -60t-113.5 -22
q-64 0 -93 9l5 17q12 -3 36 -3q44 0 66 16t22 44q0 45 -63 45h-7l-1 23l40 53h25l-38 -53h31z" />
    <glyph glyph-name="uni0163" unicode="&#x163;" horiz-adv-x="401" 
d="M204 -10l-31 -43h31q68 0 103 -16t35 -53q0 -38 -47.5 -60t-113.5 -22q-64 0 -93 9l5 17q12 -3 36 -3q44 0 66 16t22 44q0 45 -63 45h-7l-1 23l34 45q-55 7 -82.5 38.5t-27.5 96.5v438h-78v15h78v117l211 52v-169h97v-15h-97v-446q0 -42 49 -42q37 0 66 20l9 -10
q-10 -18 -36.5 -41t-64 -40t-79.5 -17q-15 0 -21 1z" />
    <glyph glyph-name="Tcaron" unicode="&#x164;" horiz-adv-x="744" 
d="M477 254v-129q0 -59 29.5 -84t74.5 -25v-16h-418v16q45 0 74 25t29 84v588q0 21 -16 21h-3q-48 0 -97 -81t-93 -234h-12l4 331h650l4 -331h-17q-44 154 -92.5 234.5t-96.5 80.5h-3q-16 0 -16 -21v-459h-1zM544 998l-164 -199h-16l-164 199h20l152 -69l152 69h20z" />
    <glyph glyph-name="tcaron" unicode="&#x165;" horiz-adv-x="401" 
d="M405 87q-10 -18 -36.5 -41t-64 -40t-79.5 -17q-78 0 -116.5 30.5t-38.5 107.5v438h-78v15h78v117l211 52v-169h97v-15h-97v-446q0 -42 49 -42q37 0 66 20zM335 692q0 90 -29 156l1 15l136 37l14 -5q1 -7 1 -20q0 -50 -18.5 -102t-44.5 -92t-46 -54l-18 6q4 27 4 59z" />
    <glyph glyph-name="Tbar" unicode="&#x166;" horiz-adv-x="744" 
d="M478 713v-314h122v-18h-122v-127h-1v-129q0 -59 29.5 -84t74.5 -25v-16h-418v16q45 0 74 25t29 84v256h-122v18h122v314q0 21 -16 21h-3q-48 0 -97 -81t-93 -234h-12l4 331h650l4 -331h-17q-44 154 -92.5 234.5t-96.5 80.5h-3q-16 0 -16 -21z" />
    <glyph glyph-name="tbar" unicode="&#x167;" horiz-adv-x="401" 
d="M405 87q-10 -18 -36.5 -41t-64 -40t-79.5 -17q-78 0 -116.5 30.5t-38.5 107.5v188h-78v15h78v235h-78v15h78v117l211 52v-169h97v-15h-97v-235h97v-15h-97v-196q0 -42 49 -42q37 0 66 20z" />
    <glyph glyph-name="Utilde" unicode="&#x168;" horiz-adv-x="728" 
d="M236 12.5q-69 23.5 -102 75.5t-33 138v404q0 62 -15.5 83t-52.5 21v16h337v-16q-29 0 -43.5 -22t-14.5 -82v-460q0 -87 33.5 -122.5t112.5 -35.5q70 0 110 42.5t40 129.5v335q0 64 -16 113t-41 75.5t-51 26.5v16h245v-16q-24 0 -50.5 -26.5t-44.5 -76t-18 -112.5v-312
q0 -79 -20 -126t-66.5 -69.5t-127.5 -22.5q-113 0 -182 23.5zM368 818q-90 14 -116 14q-19 0 -30.5 -10t-11.5 -26h-18q0 78 23.5 118.5t80.5 40.5q24 0 110 -14q81 -15 111 -15q24 0 39 10.5t15 26.5h18q0 -79 -23.5 -119t-80.5 -40q-25 0 -117 14z" />
    <glyph glyph-name="utilde" unicode="&#x169;" horiz-adv-x="690" 
d="M633.5 111q16.5 -22 60.5 -24v-15l-277 -82l-11 4v98q-50 -47 -94.5 -75.5t-101.5 -28.5q-75 0 -111.5 46t-36.5 108v271q0 48 -11.5 73t-44.5 31v15l256 58l11 -4v-411q0 -50 13 -74t45 -24q21 0 38 8.5t37 26.5v301q0 48 -11.5 73t-44.5 31v15l256 58l11 -4v-406
q0 -47 16.5 -69zM365.5 649.5q-37.5 6.5 -49.5 8.5q-79 15 -106 15q-17 0 -28 -10.5t-11 -27.5h-16q0 80 21.5 122t73.5 42q28 0 101 -15q10 -2 46 -8.5t55 -6.5q22 0 35.5 10.5t13.5 27.5h16q0 -80 -21.5 -122t-73.5 -42q-19 0 -56.5 6.5z" />
    <glyph glyph-name="Umacron" unicode="&#x16a;" horiz-adv-x="728" 
d="M236 12.5q-69 23.5 -102 75.5t-33 138v404q0 62 -15.5 83t-52.5 21v16h337v-16q-29 0 -43.5 -22t-14.5 -82v-460q0 -87 33.5 -122.5t112.5 -35.5q70 0 110 42.5t40 129.5v335q0 64 -16 113t-41 75.5t-51 26.5v16h245v-16q-24 0 -50.5 -26.5t-44.5 -76t-18 -112.5v-312
q0 -79 -20 -126t-66.5 -69.5t-127.5 -22.5q-113 0 -182 23.5zM564 903v-70h-346v70h346z" />
    <glyph glyph-name="umacron" unicode="&#x16b;" horiz-adv-x="690" 
d="M633.5 111q16.5 -22 60.5 -24v-15l-277 -82l-11 4v98q-50 -47 -94.5 -75.5t-101.5 -28.5q-75 0 -111.5 46t-36.5 108v271q0 48 -11.5 73t-44.5 31v15l256 58l11 -4v-411q0 -50 13 -74t45 -24q21 0 38 8.5t37 26.5v301q0 48 -11.5 73t-44.5 31v15l256 58l11 -4v-406
q0 -47 16.5 -69zM499 763v-80h-326v80h326z" />
    <glyph glyph-name="Ubreve" unicode="&#x16c;" horiz-adv-x="728" 
d="M236 12.5q-69 23.5 -102 75.5t-33 138v404q0 62 -15.5 83t-52.5 21v16h337v-16q-29 0 -43.5 -22t-14.5 -82v-460q0 -87 33.5 -122.5t112.5 -35.5q70 0 110 42.5t40 129.5v335q0 64 -16 113t-41 75.5t-51 26.5v16h245v-16q-24 0 -50.5 -26.5t-44.5 -76t-18 -112.5v-312
q0 -79 -20 -126t-66.5 -69.5t-127.5 -22.5q-113 0 -182 23.5zM276.5 829q-38.5 42 -38.5 133h14q6 -34 44.5 -50t94.5 -16t94 16t44 50h14q0 -91 -38 -133t-114 -42t-114.5 42z" />
    <glyph glyph-name="ubreve" unicode="&#x16d;" horiz-adv-x="690" 
d="M633.5 111q16.5 -22 60.5 -24v-15l-277 -82l-11 4v98q-50 -47 -94.5 -75.5t-101.5 -28.5q-75 0 -111.5 46t-36.5 108v271q0 48 -11.5 73t-44.5 31v15l256 58l11 -4v-411q0 -50 13 -74t45 -24q21 0 38 8.5t37 26.5v301q0 48 -11.5 73t-44.5 31v15l256 58l11 -4v-406
q0 -47 16.5 -69zM227.5 675q-36.5 46 -36.5 148h15q6 -42 42 -61t88 -19t88 19t42 61h15q0 -102 -36.5 -148t-108.5 -46t-108.5 46z" />
    <glyph glyph-name="Uring" unicode="&#x16e;" horiz-adv-x="728" 
d="M236 12.5q-69 23.5 -102 75.5t-33 138v404q0 62 -15.5 83t-52.5 21v16h337v-16q-29 0 -43.5 -22t-14.5 -82v-460q0 -87 33.5 -122.5t112.5 -35.5q70 0 110 42.5t40 129.5v335q0 64 -16 113t-41 75.5t-51 26.5v16h245v-16q-24 0 -50.5 -26.5t-44.5 -76t-18 -112.5v-312
q0 -79 -20 -126t-66.5 -69.5t-127.5 -22.5q-113 0 -182 23.5zM315.5 823.5q-31.5 31.5 -31.5 75.5t31.5 75t75.5 31t75.5 -31t31.5 -75t-31.5 -75.5t-75.5 -31.5t-75.5 31.5zM444.5 845.5q22.5 21.5 22.5 53.5q0 31 -22.5 52.5t-53.5 21.5t-53.5 -21.5t-22.5 -52.5
q0 -32 22.5 -53.5t53.5 -21.5t53.5 21.5z" />
    <glyph glyph-name="uring" unicode="&#x16f;" horiz-adv-x="690" 
d="M633.5 111q16.5 -22 60.5 -24v-15l-277 -82l-11 4v98q-50 -47 -94.5 -75.5t-101.5 -28.5q-75 0 -111.5 46t-36.5 108v271q0 48 -11.5 73t-44.5 31v15l256 58l11 -4v-411q0 -50 13 -74t45 -24q21 0 38 8.5t37 26.5v301q0 48 -11.5 73t-44.5 31v15l256 58l11 -4v-406
q0 -47 16.5 -69zM260.5 679.5q-31.5 31.5 -31.5 75.5t31.5 75t75.5 31t75.5 -31t31.5 -75t-31.5 -75.5t-75.5 -31.5t-75.5 31.5zM384.5 706.5q20.5 19.5 20.5 48.5q0 28 -20.5 47.5t-48.5 19.5t-48.5 -19.5t-20.5 -47.5q0 -29 20.5 -48.5t48.5 -19.5t48.5 19.5z" />
    <glyph glyph-name="Uhungarumlaut" unicode="&#x170;" horiz-adv-x="728" 
d="M236 12.5q-69 23.5 -102 75.5t-33 138v404q0 62 -15.5 83t-52.5 21v16h337v-16q-29 0 -43.5 -22t-14.5 -82v-460q0 -87 33.5 -122.5t112.5 -35.5q70 0 110 42.5t40 129.5v335q0 64 -16 113t-41 75.5t-51 26.5v16h245v-16q-24 0 -50.5 -26.5t-44.5 -76t-18 -112.5v-312
q0 -79 -20 -126t-66.5 -69.5t-127.5 -22.5q-113 0 -182 23.5zM249 812l123 159h201l9 -16l-315 -155zM512 812l123 159h201l9 -16l-315 -155z" />
    <glyph glyph-name="uhungarumlaut" unicode="&#x171;" horiz-adv-x="690" 
d="M633.5 111q16.5 -22 60.5 -24v-15l-277 -82l-11 4v98q-50 -47 -94.5 -75.5t-101.5 -28.5q-75 0 -111.5 46t-36.5 108v271q0 48 -11.5 73t-44.5 31v15l256 58l11 -4v-411q0 -50 13 -74t45 -24q21 0 38 8.5t37 26.5v301q0 48 -11.5 73t-44.5 31v15l256 58l11 -4v-406
q0 -47 16.5 -69zM207 639l54 209h201l9 -16l-244 -193h-20zM443 639l54 209h201l9 -16l-244 -193h-20z" />
    <glyph glyph-name="Uogonek" unicode="&#x172;" horiz-adv-x="728" 
d="M745 750v-16q-24 0 -50.5 -26.5t-44.5 -76t-18 -112.5v-312q0 -94 -29 -144t-99 -66q-39 -12 -64 -41t-25 -60q0 -22 11.5 -33t31.5 -11q14 0 27.5 7t20.5 21l8 -9q0 -81 -31 -124.5t-91 -43.5q-55 0 -88.5 32t-33.5 90q0 53 37.5 95.5t103.5 68.5q-110 1 -178 24.5
t-100 75.5t-32 137v404q0 62 -15.5 83t-52.5 21v16h337v-16q-29 0 -43.5 -22t-14.5 -82v-460q0 -87 33.5 -122.5t112.5 -35.5q70 0 110 42.5t40 129.5v335q0 64 -16 113t-41 75.5t-51 26.5v16h245z" />
    <glyph glyph-name="uogonek" unicode="&#x173;" horiz-adv-x="690" 
d="M650.5 35.5q-23.5 -27.5 -39.5 -64t-16 -70.5q0 -22 11.5 -35.5t31.5 -13.5q14 0 27.5 7t20.5 21l8 -9q0 -81 -31 -124.5t-91 -43.5q-54 0 -88 34t-34 93q0 64 44 119.5t116 97.5l-193 -57l-11 4v98q-50 -47 -94.5 -75.5t-101.5 -28.5q-75 0 -111.5 46t-36.5 108v271
q0 48 -11.5 73t-44.5 31v15l256 58l11 -4v-411q0 -50 13 -74t45 -24q21 0 38 8.5t37 26.5v301q0 48 -11.5 73t-44.5 31v15l256 58l11 -4v-406q0 -47 16.5 -69t60.5 -24v-15q-20 -9 -43.5 -36.5z" />
    <glyph glyph-name="Wcircumflex" unicode="&#x174;" horiz-adv-x="1071" 
d="M1081 750v-16q-51 -9 -93.5 -51t-73.5 -147l-159 -536h-16l-213 450l-162 -450h-12l-250 620q-46 114 -102 114v16h408v-16q-29 0 -48 -14t-19 -46q0 -19 11 -54l102 -298l161 437h2l204 -455l64 232q15 57 15 94q0 52 -23.5 74.5t-61.5 29.5v16h266zM688 799l-152 69
l-152 -69h-20l164 199h16l164 -199h-20z" />
    <glyph glyph-name="wcircumflex" unicode="&#x175;" horiz-adv-x="840" 
d="M871 580v-16q-45 -11 -70.5 -31.5t-42 -53.5t-42.5 -103l-138 -376h-16l-173 312l-129 -312h-16l-187 474q-19 47 -41 67.5t-43 20.5v18h348v-18q-24 0 -41.5 -12t-17.5 -38q0 -18 8 -38l75 -198l121 311h13l175 -318l40 107q24 66 24 107q0 36 -17.5 56t-53.5 25v16h224
zM608 639l-132 75l-132 -75h-20l144 209h16l144 -209h-20z" />
    <glyph glyph-name="Ycircumflex" unicode="&#x176;" horiz-adv-x="700" 
d="M710 750v-15q-46 0 -96.5 -68.5t-82.5 -149.5l-61 -154v-226q0 -34 14 -61t36 -42.5t45 -15.5v-18h-409v18q23 0 45 15.5t36 42.5t14 61v213l-138 259q-28 52 -45 78t-32.5 37t-35.5 11v15h380v-15q-23 0 -42.5 -14t-19.5 -44q0 -29 21 -68l108 -207h9l48 115
q24 59 24 121q0 42 -12.5 69.5t-36.5 27.5v15h231zM502 799l-152 69l-152 -69h-20l164 199h16l164 -199h-20z" />
    <glyph glyph-name="ycircumflex" unicode="&#x177;" horiz-adv-x="555" 
d="M612 580v-16q-12 0 -40.5 -15t-57 -44.5t-42.5 -69.5l-158 -449q-34 -98 -94.5 -147t-126.5 -49q-67 0 -97.5 25.5t-30.5 67.5q0 32 21.5 58.5t62.5 26.5q22 0 39 -6t44 -19q22 -11 38 -17t35 -6q21 0 47 13t40 49l8 20l-245 474q-26 49 -45 68.5t-39 19.5v16h355v-16
q-24 0 -43 -11.5t-19 -36.5q0 -18 11 -40l112 -218l60 175q11 35 11 55q0 60 -69 76v16h223zM469 639l-132 75l-132 -75h-20l144 209h16l144 -209h-20z" />
    <glyph glyph-name="Ydieresis" unicode="&#x178;" horiz-adv-x="700" 
d="M710 750v-15q-46 0 -96.5 -68.5t-82.5 -149.5l-61 -154v-226q0 -34 14 -61t36 -42.5t45 -15.5v-18h-409v18q23 0 45 15.5t36 42.5t14 61v213l-138 259q-28 52 -45 78t-32.5 37t-35.5 11v15h380v-15q-23 0 -42.5 -14t-19.5 -44q0 -29 21 -68l108 -207h9l48 115
q24 59 24 121q0 42 -12.5 69.5t-36.5 27.5v15h231zM151.5 831q-30.5 25 -30.5 63q0 40 30.5 65.5t75.5 25.5q44 0 74 -25.5t30 -65.5q0 -38 -30 -63t-74 -25q-45 0 -75.5 25zM398.5 831q-30.5 25 -30.5 63q0 40 30.5 65.5t75.5 25.5q44 0 74 -25.5t30 -65.5q0 -38 -30 -63
t-74 -25q-45 0 -75.5 25z" />
    <glyph glyph-name="Zacute" unicode="&#x179;" horiz-adv-x="734" 
d="M690 396l-15 -396h-635v16l377 718h-45q-89 0 -161 -76t-132 -258h-14l12 350h600v-16l-376 -718h42q103 0 184 91t145 289h18zM314 812l123 159h201l9 -16l-315 -155z" />
    <glyph glyph-name="zacute" unicode="&#x17a;" horiz-adv-x="608" 
d="M557 306l-12 -306h-518v16l295 548h-24q-70 0 -127.5 -58.5t-111.5 -196.5h-12l10 271h490v-16l-295 -548h22q81 0 143.5 68t125.5 222h14zM268 639l54 209h201l9 -16l-244 -193h-20z" />
    <glyph glyph-name="Zdotaccent" unicode="&#x17b;" horiz-adv-x="734" 
d="M690 396l-15 -396h-635v16l377 718h-45q-89 0 -161 -76t-132 -258h-14l12 350h600v-16l-376 -718h42q103 0 184 91t145 289h18zM279 825q-36 29 -36 74q0 47 36 77t89 30q51 0 86.5 -30t35.5 -77q0 -45 -35.5 -74t-86.5 -29q-53 0 -89 29z" />
    <glyph glyph-name="zdotaccent" unicode="&#x17c;" horiz-adv-x="608" 
d="M557 306l-12 -306h-518v16l295 548h-24q-70 0 -127.5 -58.5t-111.5 -196.5h-12l10 271h490v-16l-295 -548h22q81 0 143.5 68t125.5 222h14zM216 665q-36 29 -36 74q0 47 36 77t89 30q51 0 86.5 -30t35.5 -77q0 -45 -35.5 -74t-86.5 -29q-53 0 -89 29z" />
    <glyph glyph-name="Zcaron" unicode="&#x17d;" horiz-adv-x="734" 
d="M690 396l-15 -396h-635v16l377 718h-45q-89 0 -161 -76t-132 -258h-14l12 350h600v-16l-376 -718h42q103 0 184 91t145 289h18zM539 998l-164 -199h-16l-164 199h20l152 -69l152 69h20z" />
    <glyph glyph-name="zcaron" unicode="&#x17e;" horiz-adv-x="608" 
d="M557 306l-12 -306h-518v16l295 548h-24q-70 0 -127.5 -58.5t-111.5 -196.5h-12l10 271h490v-16l-295 -548h22q81 0 143.5 68t125.5 222h14zM456 848l-144 -209h-16l-144 209h20l132 -75l132 75h20z" />
    <glyph glyph-name="AEacute" unicode="&#x1fc;" horiz-adv-x="990" 
d="M961 270l-15 -270h-578v16q33 0 50 22t17 82v134h-228l-33 -66q-26 -51 -26 -90q0 -38 22 -58.5t54 -23.5v-16h-254v16q52 5 97 45.5t86 124.5l261 530q-9 10 -25.5 14t-41.5 4v16h589l10 -256h-12q-98 240 -219 240h-11q-29 0 -43.5 -22t-14.5 -82v-222q49 0 86.5 37.5
t57.5 97.5h15v-292h-15q-20 63 -57 101.5t-87 38.5v-271q0 -62 13.5 -83t45.5 -21h2q41 0 88 29t88.5 86.5t65.5 138.5h12zM435 270v360q0 44 -8 64l-212 -424h220zM482 812l123 159h201l9 -16l-315 -155z" />
    <glyph glyph-name="aeacute" unicode="&#x1fd;" horiz-adv-x="910" 
d="M885 196q-3 -9 -25 -68.5t-79 -99.5t-141 -40q-80 0 -143.5 34t-98.5 98q-35 -54 -90 -93t-132 -39q-66 0 -110 34.5t-44 110.5q0 59 33.5 96.5t104 63t201.5 52.5v182q0 44 -31 44q-17 0 -29.5 -12.5t-23.5 -35.5l-15 -36q-16 -39 -29.5 -64t-38 -43t-60.5 -18
q-40 0 -66.5 22t-26.5 58q0 49 48 83.5t121 51t147 16.5q91 0 136 -42q69 42 165 42q119 0 169.5 -62.5t50.5 -177.5l-1 -20h-331q21 -188 192 -188q46 0 78.5 14t59.5 42zM543 391q0 -27 1 -39h162q0 81 -6.5 129t-23 71.5t-46.5 23.5q-87 0 -87 -185zM392 131
q-31 64 -31 148v50q-63 -18 -86 -56.5t-23 -93.5q0 -53 16 -76t46 -23q46 0 78 51zM419 639l54 209h201l9 -16l-244 -193h-20z" />
    <glyph glyph-name="Oslashacute" unicode="&#x1fe;" horiz-adv-x="816" 
d="M742.5 551q35.5 -80 35.5 -176q0 -110 -46.5 -198t-131.5 -138t-195 -50q-136 0 -232 77l-66 -87l-15 10l68 89q-59 52 -90.5 128.5t-31.5 168.5q0 111 45.5 199t129 138t192.5 50q128 0 223 -68l61 81l15 -10l-62 -82q65 -52 100.5 -132zM312 656.5
q-30 -86.5 -30 -281.5q0 -72 5 -139l235 330q-29 177 -118 177q-62 0 -92 -86.5zM500.5 96.5q33.5 88.5 33.5 278.5q0 96 -9 165l-235 -330q22 -202 116 -202q61 0 94.5 88.5zM355 812l123 159h201l9 -16l-315 -155z" />
    <glyph glyph-name="oslashacute" unicode="&#x1ff;" horiz-adv-x="665" 
d="M614.5 420.5q25.5 -59.5 25.5 -130.5q0 -87 -37.5 -155.5t-107.5 -107.5t-163 -39q-108 0 -186 54l-60 -73l-17 11l61 74q-50 41 -77.5 102t-27.5 134q0 86 38 155t107.5 108.5t161.5 39.5q113 0 193 -59l56 68l16 -12l-56 -68q48 -42 73.5 -101.5zM278.5 550
q-17.5 -28 -24 -88.5t-6.5 -171.5q0 -64 1 -91l165 200q-5 96 -23.5 137.5t-59.5 41.5q-35 0 -52.5 -28zM384.5 32.5q17.5 28.5 24.5 89t7 168.5q0 55 -1 79l-164 -199q5 -90 23.5 -128t58.5 -38q34 0 51.5 28.5zM297 639l54 209h201l9 -16l-244 -193h-20z" />
    <glyph glyph-name="uni0218" unicode="&#x218;" horiz-adv-x="632" 
d="M55 38v233h16q54 -125 124 -196.5t145 -71.5q44 0 75.5 26t31.5 80q0 45 -23 76.5t-57 52t-94 47.5q-71 33 -114 60t-73.5 74.5t-30.5 118.5q0 105 67 164.5t205 59.5q137 0 244 -48l-20 -170h-16q-48 104 -109 152t-127 48q-48 0 -78.5 -24.5t-30.5 -72.5
q0 -36 22.5 -61.5t56.5 -42t92 -38.5q79 -30 127.5 -56.5t83.5 -75t35 -123.5q0 -123 -75 -192t-203 -69q-153 0 -274 49zM379.5 -72q24.5 -23 24.5 -66q0 -112 -158 -209l-10 13q44 37 67 65.5t35 63.5l-17 -1q-42 0 -67 21.5t-25 58.5q0 36 25.5 56.5t62.5 20.5
q38 0 62.5 -23z" />
    <glyph glyph-name="uni0219" unicode="&#x219;" horiz-adv-x="519" 
d="M139 -2q-54 10 -101 31l-1 183l13 2q20 -54 59 -102.5t84.5 -78.5t82.5 -30q36 0 55.5 16.5t19.5 48.5q0 28 -17.5 49.5t-43.5 37.5t-74 41q-59 30 -97 55.5t-64.5 64t-26.5 91.5t27.5 95t80 66.5t124.5 24.5q130 0 209 -36l-19 -141l-10 -1q-57 75 -108 119t-100 44
q-31 0 -49.5 -15.5t-18.5 -38.5q0 -34 31 -55.5t98 -50.5q65 -28 106.5 -52.5t71 -65t29.5 -99.5q0 -99 -64 -156t-170 -57q-73 0 -127 10zM323.5 -72q24.5 -23 24.5 -66q0 -112 -158 -209l-10 13q44 37 67 65.5t35 63.5l-17 -1q-42 0 -67 21.5t-25 58.5q0 36 25.5 56.5
t62.5 20.5q38 0 62.5 -23z" />
    <glyph glyph-name="uni021A" unicode="&#x21a;" horiz-adv-x="744" 
d="M477 254v-129q0 -59 29.5 -84t74.5 -25v-16h-418v16q45 0 74 25t29 84v588q0 21 -16 21h-3q-48 0 -97 -81t-93 -234h-12l4 331h650l4 -331h-17q-44 154 -92.5 234.5t-96.5 80.5h-3q-16 0 -16 -21v-459h-1zM435.5 -72q24.5 -23 24.5 -66q0 -112 -158 -209l-10 13
q44 37 67 65.5t35 63.5l-17 -1q-42 0 -67 21.5t-25 58.5q0 36 25.5 56.5t62.5 20.5q38 0 62.5 -23z" />
    <glyph glyph-name="uni021B" unicode="&#x21b;" horiz-adv-x="401" 
d="M405 87q-10 -18 -36.5 -41t-64 -40t-79.5 -17q-78 0 -116.5 30.5t-38.5 107.5v438h-78v15h78v117l211 52v-169h97v-15h-97v-446q0 -42 49 -42q37 0 66 20zM264.5 -72q24.5 -23 24.5 -66q0 -112 -158 -209l-10 13q44 37 67 65.5t35 63.5l-17 -1q-42 0 -67 21.5t-25 58.5
q0 36 25.5 56.5t62.5 20.5q38 0 62.5 -23z" />
    <glyph glyph-name="uni0237" unicode="&#x237;" horiz-adv-x="364" 
d="M288 586v-453q0 -123 -47.5 -201.5t-118.5 -113t-144 -34.5q-66 0 -99.5 18t-33.5 60q0 26 18.5 46t55.5 20q39 0 59 -18.5t38 -51.5q11 -20 18 -28.5t18 -8.5q14 0 19.5 8.5t5.5 26.5v547q0 46 -14.5 73t-52.5 41v15l267 58z" />
    <glyph glyph-name="circumflex" unicode="&#x2c6;" horiz-adv-x="404" 
d="M334 639l-132 75l-132 -75h-20l144 209h16l144 -209h-20z" />
    <glyph glyph-name="caron" unicode="&#x2c7;" horiz-adv-x="404" 
d="M354 848l-144 -209h-16l-144 209h20l132 -75l132 75h20z" />
    <glyph glyph-name="breve" unicode="&#x2d8;" horiz-adv-x="390" 
d="M86.5 675q-36.5 46 -36.5 148h15q6 -42 42 -61t88 -19t88 19t42 61h15q0 -102 -36.5 -148t-108.5 -46t-108.5 46z" />
    <glyph glyph-name="dotaccent" unicode="&#x2d9;" horiz-adv-x="347" 
d="M86 665q-36 29 -36 74q0 47 36 77t89 30q51 0 86.5 -30t35.5 -77q0 -45 -35.5 -74t-86.5 -29q-53 0 -89 29z" />
    <glyph glyph-name="ring" unicode="&#x2da;" horiz-adv-x="314" 
d="M81.5 679.5q-31.5 31.5 -31.5 75.5t31.5 75t75.5 31t75.5 -31t31.5 -75t-31.5 -75.5t-75.5 -31.5t-75.5 31.5zM205.5 706.5q20.5 19.5 20.5 48.5q0 28 -20.5 47.5t-48.5 19.5t-48.5 -19.5t-20.5 -47.5q0 -29 20.5 -48.5t48.5 -19.5t48.5 19.5z" />
    <glyph glyph-name="ogonek" unicode="&#x2db;" horiz-adv-x="344" 
d="M83.5 -265q-33.5 32 -33.5 90q0 73 67 123.5t177 67.5v-16q-43 -10 -71 -40.5t-28 -63.5q0 -22 11.5 -33t31.5 -11q14 0 27.5 7t20.5 21l8 -9q0 -81 -31 -124.5t-91 -43.5q-55 0 -88.5 32z" />
    <glyph glyph-name="tilde" unicode="&#x2dc;" horiz-adv-x="462" 
d="M260.5 649.5q-37.5 6.5 -49.5 8.5q-79 15 -106 15q-17 0 -28 -10.5t-11 -27.5h-16q0 80 21.5 122t73.5 42q28 0 101 -15q10 -2 46 -8.5t55 -6.5q22 0 35.5 10.5t13.5 27.5h16q0 -80 -21.5 -122t-73.5 -42q-19 0 -56.5 6.5z" />
    <glyph glyph-name="hungarumlaut" unicode="&#x2dd;" horiz-adv-x="600" 
d="M50 639l54 209h201l9 -16l-244 -193h-20zM286 639l54 209h201l9 -16l-244 -193h-20z" />
    <glyph glyph-name="gravecomb" unicode="&#x300;" 
d="M-305 848h201l54 -209h-20l-244 193z" />
    <glyph glyph-name="acutecomb" unicode="&#x301;" 
d="M-314 639l54 209h201l9 -16l-244 -193h-20z" />
    <glyph glyph-name="uni0302" unicode="&#x302;" 
d="M-70 639l-132 75l-132 -75h-20l144 209h16l144 -209h-20z" />
    <glyph glyph-name="tildecomb" unicode="&#x303;" 
d="M-201.5 649.5q-37.5 6.5 -49.5 8.5q-79 15 -106 15q-17 0 -28 -10.5t-11 -27.5h-16q0 80 21.5 122t73.5 42q28 0 101 -15q10 -2 46 -8.5t55 -6.5q22 0 35.5 10.5t13.5 27.5h16q0 -80 -21.5 -122t-73.5 -42q-19 0 -56.5 6.5z" />
    <glyph glyph-name="uni0304" unicode="&#x304;" 
d="M-50 763v-80h-326v80h326z" />
    <glyph glyph-name="uni0306" unicode="&#x306;" 
d="M-303.5 675q-36.5 46 -36.5 148h15q6 -42 42 -61t88 -19t88 19t42 61h15q0 -102 -36.5 -148t-108.5 -46t-108.5 46z" />
    <glyph glyph-name="uni0307" unicode="&#x307;" 
d="M-261 665q-36 29 -36 74q0 47 36 77t89 30q51 0 86.5 -30t35.5 -77q0 -45 -35.5 -74t-86.5 -29q-53 0 -89 29z" />
    <glyph glyph-name="uni0308" unicode="&#x308;" 
d="M-453.5 664q-28.5 25 -28.5 63q0 40 28.5 65.5t69.5 25.5t69 -25.5t28 -65.5q0 -38 -28 -63t-69 -25t-69.5 25zM-216.5 664q-28.5 25 -28.5 63q0 40 28.5 65.5t69.5 25.5t69 -25.5t28 -65.5q0 -38 -28 -63t-69 -25t-69.5 25z" />
    <glyph glyph-name="uni030A" unicode="&#x30a;" 
d="M-232.5 679.5q-31.5 31.5 -31.5 75.5t31.5 75t75.5 31t75.5 -31t31.5 -75t-31.5 -75.5t-75.5 -31.5t-75.5 31.5zM-108.5 706.5q20.5 19.5 20.5 48.5q0 28 -20.5 47.5t-48.5 19.5t-48.5 -19.5t-20.5 -47.5q0 -29 20.5 -48.5t48.5 -19.5t48.5 19.5z" />
    <glyph glyph-name="uni030B" unicode="&#x30b;" 
d="M-550 639l54 209h201l9 -16l-244 -193h-20zM-314 639l54 209h201l9 -16l-244 -193h-20z" />
    <glyph glyph-name="uni030C" unicode="&#x30c;" 
d="M-50 848l-144 -209h-16l-144 209h20l132 -75l132 75h20z" />
    <glyph glyph-name="uni0312" unicode="&#x312;" 
d="M-75 764.5q25 -21.5 25 -58.5q0 -36 -25.5 -56.5t-62.5 -20.5q-38 0 -62.5 23t-24.5 66q0 112 158 209l10 -13q-44 -37 -67 -65.5t-35 -63.5l17 1q42 0 67 -21.5z" />
    <glyph glyph-name="uni0326" unicode="&#x326;" 
d="M-74.5 -72q24.5 -23 24.5 -66q0 -112 -158 -209l-10 13q44 37 67 65.5t35 63.5l-17 -1q-42 0 -67 21.5t-25 58.5q0 36 25.5 56.5t62.5 20.5q38 0 62.5 -23z" />
    <glyph glyph-name="uni0327" unicode="&#x327;" 
d="M-188 -53q68 0 103 -16t35 -53q0 -38 -47.5 -60t-113.5 -22q-64 0 -93 9l5 17q12 -3 36 -3q44 0 66 16t22 44q0 45 -63 45h-7l-1 23l40 53h25l-38 -53h31z" />
    <glyph glyph-name="uni0328" unicode="&#x328;" 
d="M-260.5 -265q-33.5 32 -33.5 90q0 73 67 123.5t177 67.5v-16q-43 -10 -71 -40.5t-28 -63.5q0 -22 11.5 -33t31.5 -11q14 0 27.5 7t20.5 21l8 -9q0 -81 -31 -124.5t-91 -43.5q-55 0 -88.5 32z" />
    <glyph glyph-name="Wgrave" unicode="&#x1e80;" horiz-adv-x="1071" 
d="M1081 750v-16q-51 -9 -93.5 -51t-73.5 -147l-159 -536h-16l-213 450l-162 -450h-12l-250 620q-46 114 -102 114v16h408v-16q-29 0 -48 -14t-19 -46q0 -19 11 -54l102 -298l161 437h2l204 -455l64 232q15 57 15 94q0 52 -23.5 74.5t-61.5 29.5v16h266zM255 971h201
l123 -159l-18 -12l-315 155z" />
    <glyph glyph-name="wgrave" unicode="&#x1e81;" horiz-adv-x="840" 
d="M871 580v-16q-45 -11 -70.5 -31.5t-42 -53.5t-42.5 -103l-138 -376h-16l-173 312l-129 -312h-16l-187 474q-19 47 -41 67.5t-43 20.5v18h348v-18q-24 0 -41.5 -12t-17.5 -38q0 -18 8 -38l75 -198l121 311h13l175 -318l40 107q24 66 24 107q0 36 -17.5 56t-53.5 25v16h224
zM255 848h201l54 -209h-20l-244 193z" />
    <glyph glyph-name="Wacute" unicode="&#x1e82;" horiz-adv-x="1071" 
d="M1081 750v-16q-51 -9 -93.5 -51t-73.5 -147l-159 -536h-16l-213 450l-162 -450h-12l-250 620q-46 114 -102 114v16h408v-16q-29 0 -48 -14t-19 -46q0 -19 11 -54l102 -298l161 437h2l204 -455l64 232q15 57 15 94q0 52 -23.5 74.5t-61.5 29.5v16h266zM483 812l123 159
h201l9 -16l-315 -155z" />
    <glyph glyph-name="wacute" unicode="&#x1e83;" horiz-adv-x="840" 
d="M871 580v-16q-45 -11 -70.5 -31.5t-42 -53.5t-42.5 -103l-138 -376h-16l-173 312l-129 -312h-16l-187 474q-19 47 -41 67.5t-43 20.5v18h348v-18q-24 0 -41.5 -12t-17.5 -38q0 -18 8 -38l75 -198l121 311h13l175 -318l40 107q24 66 24 107q0 36 -17.5 56t-53.5 25v16h224
zM440 639l54 209h201l9 -16l-244 -193h-20z" />
    <glyph glyph-name="Wdieresis" unicode="&#x1e84;" horiz-adv-x="1071" 
d="M1081 750v-16q-51 -9 -93.5 -51t-73.5 -147l-159 -536h-16l-213 450l-162 -450h-12l-250 620q-46 114 -102 114v16h408v-16q-29 0 -48 -14t-19 -46q0 -19 11 -54l102 -298l161 437h2l204 -455l64 232q15 57 15 94q0 52 -23.5 74.5t-61.5 29.5v16h266zM337.5 831
q-30.5 25 -30.5 63q0 40 30.5 65.5t75.5 25.5q44 0 74 -25.5t30 -65.5q0 -38 -30 -63t-74 -25q-45 0 -75.5 25zM584.5 831q-30.5 25 -30.5 63q0 40 30.5 65.5t75.5 25.5q44 0 74 -25.5t30 -65.5q0 -38 -30 -63t-74 -25q-45 0 -75.5 25z" />
    <glyph glyph-name="wdieresis" unicode="&#x1e85;" horiz-adv-x="840" 
d="M871 580v-16q-45 -11 -70.5 -31.5t-42 -53.5t-42.5 -103l-138 -376h-16l-173 312l-129 -312h-16l-187 474q-19 47 -41 67.5t-43 20.5v18h348v-18q-24 0 -41.5 -12t-17.5 -38q0 -18 8 -38l75 -198l121 311h13l175 -318l40 107q24 66 24 107q0 36 -17.5 56t-53.5 25v16h224
zM288.5 664q-28.5 25 -28.5 63q0 40 28.5 65.5t69.5 25.5t69 -25.5t28 -65.5q0 -38 -28 -63t-69 -25t-69.5 25zM525.5 664q-28.5 25 -28.5 63q0 40 28.5 65.5t69.5 25.5t69 -25.5t28 -65.5q0 -38 -28 -63t-69 -25t-69.5 25z" />
    <glyph glyph-name="uni1E9E" unicode="&#x1e9e;" horiz-adv-x="772" 
d="M693.5 374.5q53.5 -51.5 53.5 -143.5q0 -116 -95.5 -173.5t-255.5 -57.5h-33v15q71 0 112.5 54.5t41.5 165.5q0 71 -19.5 114t-53.5 65.5t-87 37.5v16l141 267h-95q-36 0 -59 -23.5t-23 -80.5v-631h-277v16q33 0 49.5 22t16.5 82v511q0 59 -15 81.5t-53 22.5v15h649v-16
l-158 -285q107 -23 160.5 -74.5z" />
    <glyph glyph-name="Ygrave" unicode="&#x1ef2;" horiz-adv-x="700" 
d="M710 750v-15q-46 0 -96.5 -68.5t-82.5 -149.5l-61 -154v-226q0 -34 14 -61t36 -42.5t45 -15.5v-18h-409v18q23 0 45 15.5t36 42.5t14 61v213l-138 259q-28 52 -45 78t-32.5 37t-35.5 11v15h380v-15q-23 0 -42.5 -14t-19.5 -44q0 -29 21 -68l108 -207h9l48 115
q24 59 24 121q0 42 -12.5 69.5t-36.5 27.5v15h231zM69 971h201l123 -159l-18 -12l-315 155z" />
    <glyph glyph-name="ygrave" unicode="&#x1ef3;" horiz-adv-x="555" 
d="M612 580v-16q-12 0 -40.5 -15t-57 -44.5t-42.5 -69.5l-158 -449q-34 -98 -94.5 -147t-126.5 -49q-67 0 -97.5 25.5t-30.5 67.5q0 32 21.5 58.5t62.5 26.5q22 0 39 -6t44 -19q22 -11 38 -17t35 -6q21 0 47 13t40 49l8 20l-245 474q-26 49 -45 68.5t-39 19.5v16h355v-16
q-24 0 -43 -11.5t-19 -36.5q0 -18 11 -40l112 -218l60 175q11 35 11 55q0 60 -69 76v16h223zM116 848h201l54 -209h-20l-244 193z" />
    <glyph glyph-name="uni2009" unicode="&#x2009;" horiz-adv-x="112" 
 />
    <glyph glyph-name="endash" unicode="&#x2013;" horiz-adv-x="577" 
d="M535 261h-493v40h493v-40z" />
    <glyph glyph-name="emdash" unicode="&#x2014;" horiz-adv-x="739" 
d="M697 261h-655v40h655v-40z" />
    <glyph glyph-name="quoteleft" unicode="&#x2018;" horiz-adv-x="281" 
d="M214 572.5q29 -25.5 29 -68.5q0 -42 -29.5 -66t-73.5 -24q-45 0 -73.5 26.5t-28.5 77.5q0 74 52.5 135.5t132.5 110.5l12 -15q-52 -44 -78.5 -77.5t-41.5 -75.5q12 2 20 2q50 0 79 -25.5z" />
    <glyph glyph-name="quoteright" unicode="&#x2019;" horiz-adv-x="281" 
d="M214.5 735.5q28.5 -26.5 28.5 -77.5q0 -74 -52.5 -135.5t-132.5 -110.5l-12 15q52 44 78.5 77.5t41.5 75.5q-12 -2 -20 -2q-50 0 -79 25.5t-29 68.5q0 42 29.5 66t73.5 24q45 0 73.5 -26.5z" />
    <glyph glyph-name="quotesinglbase" unicode="&#x201a;" horiz-adv-x="281" 
d="M214.5 136.5q28.5 -26.5 28.5 -77.5q0 -74 -52.5 -135.5t-132.5 -110.5l-12 15q52 44 78.5 77.5t41.5 75.5q-12 -2 -20 -2q-50 0 -79 25.5t-29 68.5q0 42 29.5 66t73.5 24q45 0 73.5 -26.5z" />
    <glyph glyph-name="quotedblleft" unicode="&#x201c;" horiz-adv-x="528" 
d="M214 571.5q29 -25.5 29 -68.5q0 -42 -29.5 -66t-73.5 -24q-45 0 -73.5 26.5t-28.5 77.5q0 74 52.5 135.5t132.5 110.5l12 -15q-52 -44 -78.5 -77.5t-41.5 -75.5q12 2 20 2q50 0 79 -25.5zM461 571.5q29 -25.5 29 -68.5q0 -42 -29.5 -66t-73.5 -24q-45 0 -73.5 26.5
t-28.5 77.5q0 74 52.5 135.5t132.5 110.5l12 -15q-52 -44 -78.5 -77.5t-41.5 -75.5q12 2 20 2q50 0 79 -25.5z" />
    <glyph glyph-name="quotedblright" unicode="&#x201d;" horiz-adv-x="528" 
d="M214.5 735.5q28.5 -26.5 28.5 -77.5q0 -74 -52.5 -135.5t-132.5 -110.5l-12 15q52 44 78.5 77.5t41.5 75.5q-12 -2 -20 -2q-50 0 -79 25.5t-29 68.5q0 42 29.5 66t73.5 24q45 0 73.5 -26.5zM461.5 735.5q28.5 -26.5 28.5 -77.5q0 -74 -52.5 -135.5t-132.5 -110.5l-12 15
q52 44 78.5 77.5t41.5 75.5q-12 -2 -20 -2q-50 0 -79 25.5t-29 68.5q0 42 29.5 66t73.5 24q45 0 73.5 -26.5z" />
    <glyph glyph-name="quotedblbase" unicode="&#x201e;" horiz-adv-x="528" 
d="M214.5 131.5q28.5 -26.5 28.5 -77.5q0 -74 -52.5 -135.5t-132.5 -110.5l-12 15q52 44 78.5 77.5t41.5 75.5q-12 -2 -20 -2q-50 0 -79 25.5t-29 68.5q0 42 29.5 66t73.5 24q45 0 73.5 -26.5zM461.5 131.5q28.5 -26.5 28.5 -77.5q0 -74 -52.5 -135.5t-132.5 -110.5l-12 15
q52 44 78.5 77.5t41.5 75.5q-12 -2 -20 -2q-50 0 -79 25.5t-29 68.5q0 42 29.5 66t73.5 24q45 0 73.5 -26.5z" />
    <glyph glyph-name="dagger" unicode="&#x2020;" horiz-adv-x="543" 
d="M501 509h-132v-317l-95 -302h-10l-89 302v317h-133v20h133v221h194v-221h132v-20z" />
    <glyph glyph-name="daggerdbl" unicode="&#x2021;" horiz-adv-x="537" 
d="M273 300l114 -194h108v-20h-107l-113 -240h-20l-112 240h-101v20h102l115 194l-114 189h-103v20h100l113 241h20l114 -241h106v-20h-109z" />
    <glyph glyph-name="bullet" unicode="&#x2022;" horiz-adv-x="348" 
d="M79.5 248q-37.5 32 -37.5 84q0 54 37.5 88t94.5 34q56 0 94 -34t38 -88q0 -51 -38 -83.5t-94 -32.5q-57 0 -94.5 32z" />
    <glyph glyph-name="ellipsis" unicode="&#x2026;" horiz-adv-x="868" 
d="M69.5 15q-31.5 27 -31.5 70q0 45 31.5 73.5t78.5 28.5t78.5 -28.5t31.5 -73.5q0 -43 -31.5 -70t-78.5 -27t-78.5 27zM355.5 15q-31.5 27 -31.5 70q0 45 31.5 73.5t78.5 28.5t78.5 -28.5t31.5 -73.5q0 -43 -31.5 -70t-78.5 -27t-78.5 27zM641.5 15q-31.5 27 -31.5 70
q0 45 31.5 73.5t78.5 28.5t78.5 -28.5t31.5 -73.5q0 -43 -31.5 -70t-78.5 -27t-78.5 27z" />
    <glyph glyph-name="guilsinglleft" unicode="&#x2039;" horiz-adv-x="385" 
d="M347 529l-148 -264l148 -265h-22l-287 265l287 264h22z" />
    <glyph glyph-name="guilsinglright" unicode="&#x203a;" horiz-adv-x="385" 
d="M186 264l-148 265h22l287 -265l-287 -264h-22z" />
    <glyph glyph-name="fraction" unicode="&#x2044;" horiz-adv-x="50" 
d="M348 750l-574 -750h-73l574 750h73z" />
    <glyph glyph-name="colonmonetary" unicode="&#x20a1;" horiz-adv-x="697" 
d="M636 280l16 -259q-92 -29 -242 -32h-1l-15 -101h-26l15 102q-48 3 -92 15l-17 -117h-26l19 125q-108 40 -168.5 136.5t-60.5 226.5q0 106 41 190.5t117.5 136t180.5 58.5l13 90h26l-13 -89h7q57 -2 86 -4l14 93h26l-14 -95q69 -7 130 -26l-16 -239l-19 -1
q-42 152 -103 213l-102 -694q4 -1 12 -1q62 0 112 71.5t81 201.5zM309 119q27 -85 78 -104l104 707q-32 21 -67 21q-68 0 -105 -83t-37 -284q0 -172 27 -257z" />
    <glyph glyph-name="Euro" unicode="&#x20ac;" horiz-adv-x="697" 
d="M636 280l16 -259q-92 -29 -242 -32q-97 0 -173.5 37t-125 104t-65.5 155h-89l8 23h78q-5 37 -5 68q0 33 5 71h-76l8 23h72q17 87 65.5 153t124.5 102.5t173 36.5q150 -3 242 -32l-16 -239l-19 -1q-36 127 -83.5 190t-109.5 63q-60 0 -95.5 -62.5t-44.5 -210.5h206l-7 -23
h-200q-1 -22 -1 -71q0 -47 1 -68h195l-8 -23h-186q9 -150 44.5 -213.5t95.5 -63.5q62 0 112 71.5t81 201.5z" />
    <glyph glyph-name="uni2116" unicode="&#x2116;" horiz-adv-x="1392" 
d="M953.5 155.5q-69.5 43.5 -107.5 118t-38 165.5t38 164.5t107.5 116t161.5 42.5q93 0 163 -42.5t107.5 -116t37.5 -164.5t-38 -165.5t-107.5 -118t-162.5 -43.5q-92 0 -161.5 43.5zM546 750h245v-16q-24 0 -50.5 -26.5t-44.5 -76t-18 -112.5v-519h-121l-403 663v-432
q0 -64 16 -113t41 -75.5t51 -26.5v-16h-245v16q24 0 50.5 26.5t44.5 76t18 112.5v408q0 49 -18 72t-66 23v16h317l291 -487v256q0 64 -16 113t-41 75.5t-51 26.5v16zM1062 714q-18 -33 -24.5 -98t-6.5 -177q0 -110 7.5 -177t26 -100.5t51.5 -33.5t51 34t25 101t7 176
q0 110 -7 175.5t-25.5 99t-52.5 33.5t-52 -33zM848 21h535v-21h-535v21z" />
    <glyph glyph-name="uni2153" unicode="&#x2153;" horiz-adv-x="660" 
d="M205.5 445q14.5 -13 51.5 -13v-27h-235v27q36 0 51 13t15 39v195h-56v25q32 7 54.5 17t52.5 26l21 12h31v-275q0 -26 14.5 -39zM621 750l-574 -750h-73l574 750h73zM609.5 157.5q32.5 -18.5 32.5 -61.5q0 -61 -45 -81t-126 -20q-65 0 -103.5 19.5t-38.5 55.5
q0 29 16.5 44.5t43.5 15.5q25 0 41.5 -13t18.5 -40q0 -3 1.5 -11.5t6.5 -21.5q2 -6 8.5 -10.5t16.5 -4.5q17 0 29.5 14.5t12.5 46.5q0 39 -24.5 54.5t-74.5 15.5h-4v32h4q48 0 70 17t22 61q0 50 -33 50q-23 0 -29 -21q-2 -7 -4 -25q-3 -22 -17.5 -33.5t-34.5 -11.5
q-27 0 -40.5 16t-9.5 43q14 66 136 66q140 0 140 -87q0 -72 -102 -87q54 -4 86.5 -22.5z" />
    <glyph glyph-name="uni2154" unicode="&#x2154;" horiz-adv-x="724" 
d="M318 534l-8 -129h-290v80q72 22 125.5 71t53.5 118q0 25 -11.5 37.5t-25.5 12.5q-16 0 -24.5 -9t-8.5 -23q0 -3 3 -9t4 -11q-2 -24 -19 -37.5t-44 -13.5q-26 0 -41.5 13.5t-15.5 38.5q0 45 40.5 65.5t102.5 20.5q64 0 106.5 -22.5t42.5 -85.5q0 -60 -52.5 -101.5
t-126.5 -61.5h144l24 46h21zM685 750l-574 -750h-73l574 750h73zM673.5 157.5q32.5 -18.5 32.5 -61.5q0 -61 -45 -81t-126 -20q-65 0 -103.5 19.5t-38.5 55.5q0 29 16.5 44.5t43.5 15.5q25 0 41.5 -13t18.5 -40q0 -3 1.5 -11.5t6.5 -21.5q2 -6 8.5 -10.5t16.5 -4.5
q17 0 29.5 14.5t12.5 46.5q0 39 -24.5 54.5t-74.5 15.5h-4v32h4q48 0 70 17t22 61q0 50 -33 50q-23 0 -29 -21q-2 -7 -4 -25q-3 -22 -17.5 -33.5t-34.5 -11.5q-27 0 -40.5 16t-9.5 43q14 66 136 66q140 0 140 -87q0 -72 -102 -87q54 -4 86.5 -22.5z" />
    <glyph glyph-name="oneeighth" unicode="&#x215b;" horiz-adv-x="671" 
d="M205.5 445q14.5 -13 51.5 -13v-27h-235v27q36 0 51 13t15 39v195h-56v25q32 7 54.5 17t52.5 26l21 12h31v-275q0 -26 14.5 -39zM621 750l-574 -750h-73l574 750h73zM631 165.5q25 -21.5 25 -60.5q0 -51 -42.5 -81t-120.5 -30q-76 0 -119 22.5t-43 70.5q0 60 88 78
q-32 15 -50.5 35.5t-18.5 54.5q0 48 39 73.5t102 25.5q67 0 100.5 -21.5t33.5 -56.5q0 -30 -17.5 -48t-45.5 -25q44 -16 69 -37.5zM460.5 307.5q-11.5 -11.5 -11.5 -25.5q0 -23 17.5 -37t50.5 -26q16 25 16 51q0 19 -11 34t-31 15q-19 0 -30.5 -11.5zM534 45q10 15 10 29
q0 28 -20.5 43t-61.5 30q-10 -8 -16 -24t-6 -33q0 -60 57 -60q27 0 37 15z" />
    <glyph glyph-name="threeeighths" unicode="&#x215c;" horiz-adv-x="745" 
d="M296.5 562.5q32.5 -18.5 32.5 -61.5q0 -61 -45 -81t-126 -20q-65 0 -103.5 19.5t-38.5 55.5q0 29 16.5 44.5t43.5 15.5q25 0 41.5 -13t18.5 -40q0 -3 1.5 -11.5t6.5 -21.5q2 -6 8.5 -10.5t16.5 -4.5q17 0 29.5 14.5t12.5 46.5q0 39 -24.5 54.5t-74.5 15.5h-4v32h4
q48 0 70 17t22 61q0 50 -33 50q-23 0 -29 -21q-2 -7 -4 -25q-3 -22 -17.5 -33.5t-34.5 -11.5q-27 0 -40.5 16t-9.5 43q14 66 136 66q140 0 140 -87q0 -72 -102 -87q54 -4 86.5 -22.5zM695 750l-574 -750h-73l574 750h73zM705 165.5q25 -21.5 25 -60.5q0 -51 -42.5 -81
t-120.5 -30q-76 0 -119 22.5t-43 70.5q0 60 88 78q-32 15 -50.5 35.5t-18.5 54.5q0 48 39 73.5t102 25.5q67 0 100.5 -21.5t33.5 -56.5q0 -30 -17.5 -48t-45.5 -25q44 -16 69 -37.5zM534.5 307.5q-11.5 -11.5 -11.5 -25.5q0 -23 17.5 -37t50.5 -26q16 25 16 51q0 19 -11 34
t-31 15q-19 0 -30.5 -11.5zM608 45q10 15 10 29q0 28 -20.5 43t-61.5 30q-10 -8 -16 -24t-6 -33q0 -60 57 -60q27 0 37 15z" />
    <glyph glyph-name="fiveeighths" unicode="&#x215d;" horiz-adv-x="719" 
d="M203 619.5q45 -10.5 71 -35t26 -70.5q0 -55 -44 -84.5t-116 -29.5q-50 0 -89 18t-39 53q0 47 57 47q27 0 43 -13.5t18 -40.5q-1 -13 8 -21.5t26 -8.5q21 0 33.5 11t12.5 28q0 41 -45.5 58t-141.5 24l35 198h194l9 17h24l-12 -99h-187l-7 -34q79 -7 124 -17.5zM669 750
l-574 -750h-73l574 750h73zM679 165.5q25 -21.5 25 -60.5q0 -51 -42.5 -81t-120.5 -30q-76 0 -119 22.5t-43 70.5q0 60 88 78q-32 15 -50.5 35.5t-18.5 54.5q0 48 39 73.5t102 25.5q67 0 100.5 -21.5t33.5 -56.5q0 -30 -17.5 -48t-45.5 -25q44 -16 69 -37.5zM508.5 307.5
q-11.5 -11.5 -11.5 -25.5q0 -23 17.5 -37t50.5 -26q16 25 16 51q0 19 -11 34t-31 15q-19 0 -30.5 -11.5zM582 45q10 15 10 29q0 28 -20.5 43t-61.5 30q-10 -8 -16 -24t-6 -33q0 -60 57 -60q27 0 37 15z" />
    <glyph glyph-name="seveneighths" unicode="&#x215e;" horiz-adv-x="664" 
d="M297 743l-16 -32q-38 -72 -63.5 -143t-29.5 -163h-142q8 62 38.5 113t62 82.5t71.5 63.5h-161l-16 -35h-24l2 124h272zM614 750l-574 -750h-73l574 750h73zM624 165.5q25 -21.5 25 -60.5q0 -51 -42.5 -81t-120.5 -30q-76 0 -119 22.5t-43 70.5q0 60 88 78
q-32 15 -50.5 35.5t-18.5 54.5q0 48 39 73.5t102 25.5q67 0 100.5 -21.5t33.5 -56.5q0 -30 -17.5 -48t-45.5 -25q44 -16 69 -37.5zM453.5 307.5q-11.5 -11.5 -11.5 -25.5q0 -23 17.5 -37t50.5 -26q16 25 16 51q0 19 -11 34t-31 15q-19 0 -30.5 -11.5zM527 45q10 15 10 29
q0 28 -20.5 43t-61.5 30q-10 -8 -16 -24t-6 -33q0 -60 57 -60q27 0 37 15z" />
    <glyph glyph-name="minus" unicode="&#x2212;" horiz-adv-x="513" 
d="M471 309h-429v25h429v-25z" />
    <glyph glyph-name="fi" unicode="&#xfb01;" horiz-adv-x="725" 
d="M662.5 37q15.5 -21 52.5 -21v-16h-335v16q26 0 41 22.5t15 81.5v364q0 46 -13.5 63.5t-53.5 17.5h-93v-461q0 -88 59 -88v-16h-345v16q32 0 53.5 20t21.5 68v461h-63v15h63q3 91 56.5 154.5t137.5 94.5t179 31t139.5 -29t44.5 -86q0 -41 -31 -67t-87 -26q-52 0 -83.5 30
t-62.5 81q-18 30 -29.5 43t-24.5 13q-28 0 -28 -45v-194h371v-460q0 -62 15.5 -83z" />
    <glyph glyph-name="fl" unicode="&#xfb02;" horiz-adv-x="740" 
d="M677.5 37q15.5 -21 52.5 -21v-16h-346v16q33 0 50 22t17 82v575q-17 18 -33 39q-39 46 -64.5 69.5t-49.5 23.5q-28 0 -28 -45v-202h105v-15h-105v-461q0 -88 84 -88v-16h-370v16q32 0 53.5 20t21.5 68v461h-63v15h63q3 96 53.5 159t129.5 92t171 29q96 0 139 -31l93 23
l11 -4v-728q0 -62 15.5 -83z" />
    <glyph glyph-name="u1F16A" unicode="&#x1f16a;" horiz-adv-x="799" 
d="M415 586h27l-75 -323h-26zM719 325q8 0 20 7l7 -22q-13 -13 -36 -10q-36 -1 -54.5 36.5t-18.5 105.5t18 106t55 38q22 0 36 -10l-7 -22q-2 1 -9.5 3.5t-16.5 2.5q-49 0 -49 -117q0 -120 49 -117zM143 556h-35v-251h-24v251h-36v24h95v-24zM305 580l17 -275h-26l-12 196
l-37 -196h-16l-37 193l-12 -193h-23l16 275h27l38 -196l38 196h27zM603 580l15 -275h-24l-13 193l-36 -193h-16l-38 196l-11 -196h-25l17 275h27l38 -196l38 196h28z" />
    <glyph glyph-name="zero.osf" horiz-adv-x="756" 
d="M194 32q-77 43 -116.5 116t-39.5 162t39.5 162t116.5 116.5t184 43.5q108 0 185 -43.5t116 -116.5t39 -162t-39 -162t-116 -116t-185 -43q-107 0 -184 43zM436.5 39.5q20.5 31.5 28 96t7.5 174.5q0 112 -7 175.5t-27.5 95.5t-59.5 32t-60.5 -31.5t-29.5 -96t-8 -175.5
q0 -109 8.5 -174t30 -96.5t59.5 -31.5t58.5 31.5z" />
    <glyph glyph-name="one.osf" horiz-adv-x="495" 
d="M389.5 41q29.5 -25 74.5 -25v-16h-418v16q45 0 74 25t29 84v359h-107v16q83 19 153 50.5t150 81.5h15v-507q0 -59 29.5 -84z" />
    <glyph glyph-name="two.osf" horiz-adv-x="681" 
d="M645 246l-14 -246h-587v133l41 19q106 50 165.5 87t98.5 98.5t39 155.5q0 119 -59 119q-27 0 -42.5 -22t-15.5 -55q0 -28 1 -41l1 -46q0 -48 -35 -78.5t-91 -30.5q-50 0 -81 29.5t-31 81.5q0 58 38 99t102.5 62t141.5 21q148 0 225 -45.5t77 -143.5q0 -74 -41.5 -119.5
t-100.5 -68.5t-155 -47q-68 -17 -102 -28h375l34 66h16z" />
    <glyph glyph-name="three.osf" horiz-adv-x="693" 
d="M501.5 243q66.5 -13 112 -53t45.5 -117q0 -121 -91 -167.5t-266 -46.5q-131 0 -201.5 45.5t-70.5 127.5q0 54 34 84.5t84 30.5q119 0 119 -113q0 -17 -4 -45q-1 -7 -2 -16t-1 -19q0 -33 18 -54t48 -21q79 0 79 180q0 96 -37.5 143t-132.5 47h-18v15h18q64 0 99 24.5
t47.5 69.5t12.5 115t-16.5 104.5t-50.5 34.5q-51 0 -51 -75l1 -35q2 -26 2 -39q0 -52 -33 -79.5t-81 -27.5q-51 0 -80 31t-29 80q0 77 74.5 121t194.5 44q147 0 222.5 -42.5t75.5 -137.5q0 -93 -76.5 -139.5t-198.5 -55.5q87 -1 153.5 -14z" />
    <glyph glyph-name="four.osf" horiz-adv-x="625" 
d="M538.5 -82q29.5 -25 74.5 -25v-16h-418v16q45 0 74 25t29 84v131h-259l-23 45l336 454h157v-449h101v-50h-101v-131q0 -59 29.5 -84zM298 183v336l-248 -336h248z" />
    <glyph glyph-name="five.osf" horiz-adv-x="644" 
d="M380.5 341.5q100.5 -20.5 162 -74t61.5 -154.5q0 -127 -87 -190.5t-233 -63.5q-121 0 -191.5 39.5t-70.5 111.5q0 49 29.5 76t79.5 27q57 0 90 -33t33 -87q0 -50 19 -82.5t59 -32.5q43 0 68.5 35.5t25.5 87.5q0 67 -47.5 107t-127.5 60t-198 31l72 421h401l13 28h21
l-23 -209h-415l-11 -66q169 -11 269.5 -31.5z" />
    <glyph glyph-name="six.osf" horiz-adv-x="713" 
d="M626.5 421q63.5 -59 63.5 -174q0 -122 -82.5 -190t-241.5 -68q-99 0 -173 41.5t-114.5 122.5t-40.5 197q0 186 94 299t295 113q214 0 214 -95q0 -30 -23 -49.5t-58 -19.5q-43 0 -67 21.5t-47 61.5q-18 29 -30.5 42.5t-32.5 13.5q-49 0 -73 -81t-27 -246q58 70 177 70
q103 0 166.5 -59zM412.5 31q18.5 18 27.5 65.5t9 134.5q0 90 -20 140.5t-70 50.5q-49 0 -76 -58v-10v-110q0 -88 7.5 -138t25 -71.5t47.5 -21.5q31 0 49.5 18z" />
    <glyph glyph-name="seven.osf" horiz-adv-x="636" 
d="M601 606l-39 -84q-49 -106 -80.5 -187t-57 -198.5t-31.5 -266.5h-307q16 141 80.5 247.5t136.5 170t161 124.5q15 9 27 18h-401l-38 -84h-20l17 274h543z" />
    <glyph glyph-name="eight.osf" horiz-adv-x="697" 
d="M461 451q69 -35 109.5 -62t69.5 -70.5t29 -105.5q0 -75 -42.5 -125.5t-114 -74.5t-158.5 -24q-142 0 -231 43.5t-89 144.5q0 84 61.5 119.5t144.5 41.5q-51 30 -85 58t-56 68.5t-22 95.5q0 108 82.5 155t198.5 47q123 0 189 -38t66 -112q0 -65 -46 -101.5t-126 -49.5z
M300.5 712q-19.5 -29 -19.5 -72q0 -55 33 -92t94 -70q28 53 28 134q0 62 -19.5 95.5t-58.5 33.5q-38 0 -57.5 -29zM422 44.5q18 35.5 18 77.5q0 45 -20.5 79t-52 58.5t-80.5 52.5q-24 -47 -24 -149q0 -154 92 -154q49 0 67 35.5z" />
    <glyph glyph-name="nine.osf" horiz-adv-x="713" 
d="M520 589.5q74 -41.5 114.5 -122.5t40.5 -197q0 -186 -94 -299t-295 -113q-214 0 -214 95q0 30 23 49.5t58 19.5q43 0 67 -21.5t47 -61.5q18 -29 30.5 -42.5t32.5 -13.5q49 0 73 81t27 246q-58 -70 -177 -70q-103 0 -166.5 59t-63.5 174q0 122 82.5 190t241.5 68
q99 0 173 -41.5zM430 256v10v110q0 88 -7.5 138t-25 71.5t-47.5 21.5q-31 0 -49.5 -18t-27.5 -65.5t-9 -134.5q0 -90 20 -140.5t70 -50.5q49 0 76 58z" />
    <glyph glyph-name="zero.tf" horiz-adv-x="640" 
d="M85 87q-80 98 -80 288q0 191 80 289t235 98t235 -98t80 -289q0 -190 -80 -288t-235 -98t-235 98zM380.5 93q18.5 85 18.5 282q0 134 -7.5 214t-25 117t-46.5 37q-30 0 -48 -37t-26.5 -117t-8.5 -214q0 -197 20 -282t63 -85q42 0 60.5 85z" />
    <glyph glyph-name="one.tf" horiz-adv-x="640" 
d="M472.5 41q29.5 -25 74.5 -25v-16h-418v16q45 0 74 25t29 84v494h-107v16q83 19 153 50.5t150 81.5l15 -1v-641q0 -59 29.5 -84z" />
    <glyph glyph-name="two.tf" horiz-adv-x="640" 
d="M622 246l-14 -246h-587v123q153 81 251 206.5t98 293.5q0 119 -59 119q-27 0 -42.5 -22t-15.5 -55q0 -28 1 -41l1 -46q0 -48 -35 -78.5t-91 -30.5q-50 0 -81 29.5t-31 81.5q0 58 38 99t102.5 62t141.5 21q150 0 226 -50t76 -165q0 -133 -118.5 -219t-286.5 -148h376
l34 66h16z" />
    <glyph glyph-name="three.tf" horiz-adv-x="640" 
d="M476.5 373q66.5 -13 112 -53t45.5 -117q0 -121 -91 -167.5t-266 -46.5q-131 0 -201.5 45.5t-70.5 127.5q0 54 34 84.5t84 30.5q119 0 119 -113q0 -17 -4 -45q-1 -7 -2 -16t-1 -19q0 -33 18 -54t48 -21q79 0 79 180q0 96 -37.5 143t-132.5 47h-18v15h18q64 0 99 24.5
t47.5 69.5t12.5 115t-16.5 104.5t-50.5 34.5q-51 0 -51 -75l1 -35q2 -26 2 -39q0 -52 -33 -79.5t-81 -27.5q-51 0 -80 31t-29 80q0 77 74.5 121t194.5 44q147 0 222.5 -42.5t75.5 -137.5q0 -93 -76.5 -139.5t-198.5 -55.5q87 -1 153.5 -14z" />
    <glyph glyph-name="four.tf" horiz-adv-x="640" 
d="M547.5 41q29.5 -25 74.5 -25v-16h-418v16q45 0 74 25t29 84v131h-259l-23 45l336 454h157v-449h101v-50h-101v-131q0 -59 29.5 -84zM307 306v336l-248 -336h248z" />
    <glyph glyph-name="five.tf" horiz-adv-x="640" 
d="M379.5 471.5q100.5 -20.5 162 -74t61.5 -154.5q0 -127 -87 -190.5t-233 -63.5q-121 0 -191.5 39.5t-70.5 111.5q0 49 29.5 76t79.5 27q57 0 90 -33t33 -87q0 -50 19 -82.5t59 -32.5q43 0 68.5 35.5t25.5 87.5q0 67 -47.5 107t-127.5 60t-198 31l72 421h401l13 28h21
l-23 -209h-415l-11 -66q169 -11 269.5 -31.5z" />
    <glyph glyph-name="six.tf" horiz-adv-x="640" 
d="M574.5 421q60.5 -59 60.5 -174q0 -122 -80 -190t-234 -68q-96 0 -167.5 41.5t-111 122.5t-39.5 197q0 187 91.5 299.5t287.5 112.5q214 0 214 -95q0 -30 -23 -49.5t-58 -19.5q-43 0 -67 21.5t-47 61.5q-18 29 -30.5 42.5t-32.5 13.5q-44 0 -65 -78t-24 -237q56 58 166 58
q99 0 159.5 -59zM361.5 31q16.5 18 24.5 65.5t8 134.5q0 90 -18 140.5t-62 50.5q-42 0 -66 -39v-29v-110q0 -89 6.5 -138.5t21.5 -71t42 -21.5t43.5 18z" />
    <glyph glyph-name="seven.tf" horiz-adv-x="640" 
d="M603 736l-39 -84q-49 -106 -80.5 -187t-57 -198.5t-31.5 -266.5h-307q16 141 80.5 247.5t136.5 170t161 124.5q15 9 27 18h-401l-38 -84h-20l17 274h543z" />
    <glyph glyph-name="eight.tf" horiz-adv-x="640" 
d="M429 451q69 -35 109.5 -62t69.5 -70.5t29 -105.5q0 -75 -42.5 -125.5t-114 -74.5t-158.5 -24q-142 0 -231 43.5t-89 144.5q0 84 61.5 119.5t144.5 41.5q-51 30 -85 58t-56 68.5t-22 95.5q0 108 82.5 155t198.5 47q123 0 189 -38t66 -112q0 -65 -46 -101.5t-126 -49.5z
M268.5 712q-19.5 -29 -19.5 -72q0 -55 33 -92t94 -70q28 53 28 134q0 62 -19.5 95.5t-58.5 33.5q-38 0 -57.5 -29zM390 44.5q18 35.5 18 77.5q0 45 -20.5 79t-52 58.5t-80.5 52.5q-24 -47 -24 -149q0 -154 92 -154q49 0 67 35.5z" />
    <glyph glyph-name="nine.tf" horiz-adv-x="640" 
d="M486.5 719.5q71.5 -41.5 111 -122.5t39.5 -197q0 -187 -91.5 -299.5t-287.5 -112.5q-214 0 -214 95q0 30 23 49.5t58 19.5q43 0 67 -21.5t47 -61.5q18 -29 30.5 -42.5t32.5 -13.5q44 0 65 78t24 237q-56 -58 -166 -58q-99 0 -159.5 59t-60.5 174q0 122 80 190t234 68
q96 0 167.5 -41.5zM392 367v29v110q0 89 -6.5 138.5t-21.5 71t-42 21.5t-43.5 -18t-24.5 -65.5t-8 -134.5q0 -90 18 -140.5t62 -50.5q42 0 66 39z" />
    <glyph glyph-name="zero.dnom" horiz-adv-x="401" 
d="M105 18.5q-41 24.5 -63 66t-22 89.5q0 49 22 90t63 65.5t96 24.5t95.5 -24.5t62.5 -65.5t22 -90q0 -48 -22 -89.5t-62.5 -66t-95.5 -24.5t-96 24.5zM266 174q0 76 -17 108.5t-49 32.5q-33 0 -49.5 -34t-16.5 -107q0 -72 16.5 -106t50.5 -34q65 0 65 140z" />
    <glyph glyph-name="one.dnom" horiz-adv-x="273" 
d="M205.5 40q14.5 -13 51.5 -13v-27h-235v27q36 0 51 13t15 39v195h-56v25q32 7 54.5 17t52.5 26l21 12h31v-275q0 -26 14.5 -39z" />
    <glyph glyph-name="two.dnom" horiz-adv-x="337" 
d="M318 129l-8 -129h-290v80q72 22 125.5 71t53.5 118q0 25 -11.5 37.5t-25.5 12.5q-16 0 -24.5 -9t-8.5 -23q0 -3 3 -9t4 -11q-2 -24 -19 -37.5t-44 -13.5q-26 0 -41.5 13.5t-15.5 38.5q0 45 40.5 65.5t102.5 20.5q64 0 106.5 -22.5t42.5 -85.5q0 -60 -52.5 -101.5
t-126.5 -61.5h144l24 46h21z" />
    <glyph glyph-name="three.dnom" horiz-adv-x="347" 
d="M296.5 157.5q32.5 -18.5 32.5 -61.5q0 -61 -45 -81t-126 -20q-65 0 -103.5 19.5t-38.5 55.5q0 29 16.5 44.5t43.5 15.5q25 0 41.5 -13t18.5 -40q0 -3 1.5 -11.5t6.5 -21.5q2 -6 8.5 -10.5t16.5 -4.5q17 0 29.5 14.5t12.5 46.5q0 39 -24.5 54.5t-74.5 15.5h-4v32h4
q48 0 70 17t22 61q0 50 -33 50q-23 0 -29 -21q-2 -7 -4 -25q-3 -22 -17.5 -33.5t-34.5 -11.5q-27 0 -40.5 16t-9.5 43q14 66 136 66q140 0 140 -87q0 -72 -102 -87q54 -4 86.5 -22.5z" />
    <glyph glyph-name="four.dnom" horiz-adv-x="328" 
d="M276 37q12 -10 46 -10v-27h-212v27q33 0 45 10t12 37v34h-147l-12 41l174 202h82v-198h56v-45h-56v-34q0 -27 12 -37zM167 153v113l-100 -113h100z" />
    <glyph glyph-name="five.dnom" horiz-adv-x="321" 
d="M203 214.5q45 -10.5 71 -35t26 -70.5q0 -55 -44 -84.5t-116 -29.5q-50 0 -89 18t-39 53q0 47 57 47q27 0 43 -13.5t18 -40.5q-1 -13 8 -21.5t26 -8.5q21 0 33.5 11t12.5 28q0 41 -45.5 58t-141.5 24l35 198h194l9 17h24l-12 -99h-187l-7 -34q79 -7 124 -17.5z" />
    <glyph glyph-name="six.dnom" horiz-adv-x="357" 
d="M311.5 203.5q33.5 -28.5 33.5 -85.5q0 -59 -44 -91.5t-120 -32.5q-75 0 -118 42.5t-43 123.5q0 89 49.5 141.5t147.5 52.5q46 0 74.5 -12.5t28.5 -38.5q0 -17 -13 -26t-28 -9q-22 0 -34.5 7t-25.5 20q-9 10 -15.5 14.5t-17.5 4.5q-18 0 -33 -27.5t-18 -90.5q36 36 91 36
q52 0 85.5 -28.5zM221 50q12 20 12 62q0 68 -52 68q-16 0 -27 -7.5t-20 -22.5v-29q0 -48 9 -69.5t38 -21.5q28 0 40 20z" />
    <glyph glyph-name="seven.dnom" horiz-adv-x="316" 
d="M297 338l-16 -32q-38 -72 -63.5 -143t-29.5 -163h-142q8 62 38.5 113t62 82.5t71.5 63.5h-161l-16 -35h-24l2 124h272z" />
    <glyph glyph-name="eight.dnom" horiz-adv-x="358" 
d="M318 165.5q25 -21.5 25 -60.5q0 -51 -42.5 -81t-120.5 -30q-76 0 -119 22.5t-43 70.5q0 60 88 78q-32 15 -50.5 35.5t-18.5 54.5q0 48 39 73.5t102 25.5q67 0 100.5 -21.5t33.5 -56.5q0 -30 -17.5 -48t-45.5 -25q44 -16 69 -37.5zM147.5 307.5q-11.5 -11.5 -11.5 -25.5
q0 -23 17.5 -37t50.5 -26q16 25 16 51q0 19 -11 34t-31 15q-19 0 -30.5 -11.5zM221 45q10 15 10 29q0 28 -20.5 43t-61.5 30q-10 -8 -16 -24t-6 -33q0 -60 57 -60q27 0 37 15z" />
    <glyph glyph-name="nine.dnom" horiz-adv-x="357" 
d="M294 312q43 -42 43 -124q0 -89 -49.5 -141.5t-147.5 -52.5q-46 0 -74.5 12.5t-28.5 38.5q0 17 13 26t28 9q22 0 34.5 -7t25.5 -20q9 -10 15.5 -14.5t17.5 -4.5q18 0 33 27.5t18 90.5q-36 -36 -91 -36q-52 0 -85.5 28.5t-33.5 85.5q0 59 44 91.5t119 32.5q76 0 119 -42z
M203 175.5q11 7.5 20 22.5v29q0 48 -9 69.5t-39 21.5q-28 0 -39.5 -20t-11.5 -62q0 -68 52 -68q16 0 27 7.5z" />
    <glyph glyph-name="zero.numr" horiz-adv-x="401" 
d="M105 423.5q-41 24.5 -63 66t-22 89.5q0 49 22 90t63 65.5t96 24.5t95.5 -24.5t62.5 -65.5t22 -90q0 -48 -22 -89.5t-62.5 -66t-95.5 -24.5t-96 24.5zM266 579q0 76 -17 108.5t-49 32.5q-33 0 -49.5 -34t-16.5 -107q0 -72 16.5 -106t50.5 -34q65 0 65 140z" />
    <glyph glyph-name="one.numr" horiz-adv-x="273" 
d="M205.5 445q14.5 -13 51.5 -13v-27h-235v27q36 0 51 13t15 39v195h-56v25q32 7 54.5 17t52.5 26l21 12h31v-275q0 -26 14.5 -39z" />
    <glyph glyph-name="two.numr" horiz-adv-x="337" 
d="M318 534l-8 -129h-290v80q72 22 125.5 71t53.5 118q0 25 -11.5 37.5t-25.5 12.5q-16 0 -24.5 -9t-8.5 -23q0 -3 3 -9t4 -11q-2 -24 -19 -37.5t-44 -13.5q-26 0 -41.5 13.5t-15.5 38.5q0 45 40.5 65.5t102.5 20.5q64 0 106.5 -22.5t42.5 -85.5q0 -60 -52.5 -101.5
t-126.5 -61.5h144l24 46h21z" />
    <glyph glyph-name="three.numr" horiz-adv-x="347" 
d="M296.5 562.5q32.5 -18.5 32.5 -61.5q0 -61 -45 -81t-126 -20q-65 0 -103.5 19.5t-38.5 55.5q0 29 16.5 44.5t43.5 15.5q25 0 41.5 -13t18.5 -40q0 -3 1.5 -11.5t6.5 -21.5q2 -6 8.5 -10.5t16.5 -4.5q17 0 29.5 14.5t12.5 46.5q0 39 -24.5 54.5t-74.5 15.5h-4v32h4
q48 0 70 17t22 61q0 50 -33 50q-23 0 -29 -21q-2 -7 -4 -25q-3 -22 -17.5 -33.5t-34.5 -11.5q-27 0 -40.5 16t-9.5 43q14 66 136 66q140 0 140 -87q0 -72 -102 -87q54 -4 86.5 -22.5z" />
    <glyph glyph-name="four.numr" horiz-adv-x="328" 
d="M276 442q12 -10 46 -10v-27h-212v27q33 0 45 10t12 37v34h-147l-12 41l174 202h82v-198h56v-45h-56v-34q0 -27 12 -37zM167 558v113l-100 -113h100z" />
    <glyph glyph-name="five.numr" horiz-adv-x="321" 
d="M203 619.5q45 -10.5 71 -35t26 -70.5q0 -55 -44 -84.5t-116 -29.5q-50 0 -89 18t-39 53q0 47 57 47q27 0 43 -13.5t18 -40.5q-1 -13 8 -21.5t26 -8.5q21 0 33.5 11t12.5 28q0 41 -45.5 58t-141.5 24l35 198h194l9 17h24l-12 -99h-187l-7 -34q79 -7 124 -17.5z" />
    <glyph glyph-name="six.numr" horiz-adv-x="357" 
d="M311.5 608.5q33.5 -28.5 33.5 -85.5q0 -59 -44 -91.5t-120 -32.5q-75 0 -118 42.5t-43 123.5q0 89 49.5 141.5t147.5 52.5q46 0 74.5 -12.5t28.5 -38.5q0 -17 -13 -26t-28 -9q-22 0 -34.5 7t-25.5 20q-9 10 -15.5 14.5t-17.5 4.5q-18 0 -33 -27.5t-18 -90.5q36 36 91 36
q52 0 85.5 -28.5zM221 455q12 20 12 62q0 68 -52 68q-16 0 -27 -7.5t-20 -22.5v-29q0 -48 9 -69.5t38 -21.5q28 0 40 20z" />
    <glyph glyph-name="seven.numr" horiz-adv-x="316" 
d="M297 743l-16 -32q-38 -72 -63.5 -143t-29.5 -163h-142q8 62 38.5 113t62 82.5t71.5 63.5h-161l-16 -35h-24l2 124h272z" />
    <glyph glyph-name="eight.numr" horiz-adv-x="358" 
d="M318 570.5q25 -21.5 25 -60.5q0 -51 -42.5 -81t-120.5 -30q-76 0 -119 22.5t-43 70.5q0 60 88 78q-32 15 -50.5 35.5t-18.5 54.5q0 48 39 73.5t102 25.5q67 0 100.5 -21.5t33.5 -56.5q0 -30 -17.5 -48t-45.5 -25q44 -16 69 -37.5zM147.5 712.5q-11.5 -11.5 -11.5 -25.5
q0 -23 17.5 -37t50.5 -26q16 25 16 51q0 19 -11 34t-31 15q-19 0 -30.5 -11.5zM221 450q10 15 10 29q0 28 -20.5 43t-61.5 30q-10 -8 -16 -24t-6 -33q0 -60 57 -60q27 0 37 15z" />
    <glyph glyph-name="nine.numr" horiz-adv-x="357" 
d="M294 717q43 -42 43 -124q0 -89 -49.5 -141.5t-147.5 -52.5q-46 0 -74.5 12.5t-28.5 38.5q0 17 13 26t28 9q22 0 34.5 -7t25.5 -20q9 -10 15.5 -14.5t17.5 -4.5q18 0 33 27.5t18 90.5q-36 -36 -91 -36q-52 0 -85.5 28.5t-33.5 85.5q0 59 44 91.5t119 32.5q76 0 119 -42z
M203 580.5q11 7.5 20 22.5v29q0 48 -9 69.5t-39 21.5q-28 0 -39.5 -20t-11.5 -62q0 -68 52 -68q16 0 27 7.5z" />
    <glyph glyph-name="copyright.cap" horiz-adv-x="360" 
d="M117.5 503.5q-31.5 16.5 -50.5 48t-19 72.5q0 42 19 73.5t50.5 48t66.5 16.5q36 0 67.5 -16.5t51 -48t19.5 -73.5q0 -41 -19.5 -72.5t-51 -48t-67.5 -16.5q-35 0 -66.5 16.5zM264 537.5q34 30.5 34 86.5q0 57 -34 87.5t-80 30.5q-45 0 -78.5 -30.5t-33.5 -87.5
q0 -56 33.5 -86.5t78.5 -30.5q46 0 80 30.5zM141 573.5q-18 18.5 -18 51.5t18 52t45 19q21 0 38 -12l-9 -21q-11 8 -27 8q-18 0 -28.5 -11t-10.5 -35q0 -46 39 -46q18 0 32 11l9 -20q-16 -15 -43 -15t-45 18.5z" />
    <glyph glyph-name="registered.cap" horiz-adv-x="360" 
d="M251.5 745.5q31.5 -16.5 51 -48t19.5 -73.5q0 -41 -19.5 -72.5t-51 -48t-67.5 -16.5q-35 0 -66.5 16.5t-50.5 48t-19 72.5q0 42 19 73.5t50.5 48t66.5 16.5q36 0 67.5 -16.5zM264 537.5q34 30.5 34 86.5q0 57 -34 87.5t-80 30.5q-45 0 -78.5 -30.5t-33.5 -87.5
q0 -56 33.5 -86.5t78.5 -30.5q46 0 80 30.5zM229 625q-8 -10 -21 -15l33 -49h-31l-27 46h-16v-46h-26v128h48q22 0 35 -9.5t13 -29.5q0 -15 -8 -25zM167 624h17q11 0 18 6t7 18q0 20 -25 20h-17v-44z" />
    <glyph glyph-name="copyright.star" horiz-adv-x="753" 
d="M198.5 29.5q-84.5 44.5 -136.5 129t-52 196.5t52 196.5t136.5 129t179.5 44.5t180 -44.5t137 -129t52 -196.5t-52 -196.5t-137 -129t-180 -44.5t-179.5 44.5zM534 63q74 38 120 112.5t46 179.5t-46 179.5t-120 112.5t-156 38t-155.5 -38t-119.5 -112.5t-46 -179.5
t46 -179.5t119.5 -112.5t155.5 -38t156 38zM287.5 160q-46.5 26 -73.5 77.5t-27 123.5q0 73 27 124.5t73.5 77.5t104.5 26q39 0 67.5 -9.5t55.5 -28.5l-14 -53q-23 17 -46 24.5t-59 7.5q-59 0 -101.5 -42t-42.5 -126t41.5 -126.5t102.5 -42.5q41 0 67.5 11t50.5 34l17 -54
q-28 -24 -60.5 -37t-78.5 -13q-58 0 -104.5 26zM316 398l49 -41l-17 -62l52 37l53 -37l-17 62l50 41l-64 1l-22 62l-21 -62z" />
    <glyph glyph-name="copyright.x" horiz-adv-x="360" 
d="M117.5 334.5q-31.5 16.5 -50.5 48t-19 72.5q0 42 19 73.5t50.5 48t66.5 16.5q36 0 67.5 -16.5t51 -48t19.5 -73.5q0 -41 -19.5 -72.5t-51 -48t-67.5 -16.5q-35 0 -66.5 16.5zM264 368.5q34 30.5 34 86.5q0 57 -34 87.5t-80 30.5q-45 0 -78.5 -30.5t-33.5 -87.5
q0 -56 33.5 -86.5t78.5 -30.5q46 0 80 30.5zM141 404.5q-18 18.5 -18 51.5t18 52t45 19q21 0 38 -12l-9 -21q-11 8 -27 8q-18 0 -28.5 -11t-10.5 -35q0 -46 39 -46q18 0 32 11l9 -20q-16 -15 -43 -15t-45 18.5z" />
    <glyph glyph-name="registered.x" horiz-adv-x="360" 
d="M251.5 576.5q31.5 -16.5 51 -48t19.5 -73.5q0 -41 -19.5 -72.5t-51 -48t-67.5 -16.5q-35 0 -66.5 16.5t-50.5 48t-19 72.5q0 42 19 73.5t50.5 48t66.5 16.5q36 0 67.5 -16.5zM264 368.5q34 30.5 34 86.5q0 57 -34 87.5t-80 30.5q-45 0 -78.5 -30.5t-33.5 -87.5
q0 -56 33.5 -86.5t78.5 -30.5q46 0 80 30.5zM229 456q-8 -10 -21 -15l33 -49h-31l-27 46h-16v-46h-26v128h48q22 0 35 -9.5t13 -29.5q0 -15 -8 -25zM167 455h17q11 0 18 6t7 18q0 20 -25 20h-17v-44z" />
    <glyph glyph-name="i.loclTRK" horiz-adv-x="366" 
d="M303.5 37q15.5 -21 52.5 -21v-16h-346v16q33 0 50 22t17 82v283q0 46 -14.5 73t-52.5 41v15l267 58l11 -4v-466q0 -62 15.5 -83zM82 665q-36 29 -36 74q0 47 36 77t89 30q51 0 86.5 -30t35.5 -77q0 -45 -35.5 -74t-86.5 -29q-53 0 -89 29z" />
    <glyph glyph-name="uni030C.alt" 
d="M-173 692q0 90 -29 156l1 15l136 37l14 -5q1 -7 1 -20q0 -50 -18.5 -102t-44.5 -92t-46 -54l-18 6q4 27 4 59z" />
    <glyph glyph-name="uni0308.case" 
d="M-476.5 661q-30.5 25 -30.5 63q0 40 30.5 65.5t75.5 25.5q44 0 74 -25.5t30 -65.5q0 -38 -30 -63t-74 -25q-45 0 -75.5 25zM-229.5 661q-30.5 25 -30.5 63q0 40 30.5 65.5t75.5 25.5q44 0 74 -25.5t30 -65.5q0 -38 -30 -63t-74 -25q-45 0 -75.5 25z" />
    <glyph glyph-name="uni0307.case" 
d="M-261 825q-36 29 -36 74q0 47 36 77t89 30q51 0 86.5 -30t35.5 -77q0 -45 -35.5 -74t-86.5 -29q-53 0 -89 29z" />
    <glyph glyph-name="gravecomb.case" 
d="M-374 971h201l123 -159l-18 -12l-315 155z" />
    <glyph glyph-name="acutecomb.case" 
d="M-383 812l123 159h201l9 -16l-315 -155z" />
    <glyph glyph-name="uni030B.case" 
d="M-646 812l123 159h201l9 -16l-315 -155zM-383 812l123 159h201l9 -16l-315 -155z" />
    <glyph glyph-name="uni0302.case" 
d="M-70 799l-152 69l-152 -69h-20l164 199h16l164 -199h-20z" />
    <glyph glyph-name="uni030C.case" 
d="M-50 998l-164 -199h-16l-164 199h20l152 -69l152 69h20z" />
    <glyph glyph-name="uni0306.case" 
d="M-316.5 829q-38.5 42 -38.5 133h14q6 -34 44.5 -50t94.5 -16t94 16t44 50h14q0 -91 -38 -133t-114 -42t-114.5 42z" />
    <glyph glyph-name="uni030A.case" 
d="M-232.5 823.5q-31.5 31.5 -31.5 75.5t31.5 75t75.5 31t75.5 -31t31.5 -75t-31.5 -75.5t-75.5 -31.5t-75.5 31.5zM-103.5 845.5q22.5 21.5 22.5 53.5q0 31 -22.5 52.5t-53.5 21.5t-53.5 -21.5t-22.5 -52.5q0 -32 22.5 -53.5t53.5 -21.5t53.5 21.5z" />
    <glyph glyph-name="tildecomb.case" 
d="M-271 818q-90 14 -116 14q-19 0 -30.5 -10t-11.5 -26h-18q0 78 23.5 118.5t80.5 40.5q24 0 110 -14q81 -15 111 -15q24 0 39 10.5t15 26.5h18q0 -79 -23.5 -119t-80.5 -40q-25 0 -117 14z" />
    <glyph glyph-name="uni0304.case" 
d="M-50 903v-70h-346v70h346z" />
    <glyph glyph-name="uni0328.case" 
d="M-260.5 -265q-33.5 32 -33.5 90q0 73 67 123.5t177 67.5v-16q-43 -10 -71 -40.5t-28 -63.5q0 -22 11.5 -33t31.5 -11q14 0 27.5 7t20.5 21l8 -9q0 -81 -31 -124.5t-91 -43.5q-55 0 -88.5 32z" />
    </font>
</defs>
</svg>
