<svg width="149" height="124" viewBox="0 0 149 124" fill="none" xmlns="http://www.w3.org/2000/svg">
<g filter="url(#filter0_d_251_832)">
<path d="M38.573 79.094L28 27H120.807L111.017 79.094L73.2287 96L38.573 79.094Z" fill="url(#paint0_radial_251_832)"/>
<path d="M37.5929 79.2929L37.6911 79.7765L38.1345 79.9928L72.7903 96.8988L73.2104 97.1037L73.6371 96.9128L111.426 80.0068L111.903 79.7931L112 79.2787L121.79 27.1847L122.012 26H120.807H28H26.7767L27.02 27.1989L37.5929 79.2929Z" stroke="url(#paint1_linear_251_832)" stroke-width="2"/>
</g>
<path d="M43.5588 76.4128L43.6573 76.8966L44.1014 77.1126L73.1821 91.2503L73.6011 91.454L74.0266 91.2643L105.736 77.1265L106.214 76.9132L106.312 76.3985L114.526 32.8345L114.75 31.6492H113.544H35.6666H34.4424L34.6867 32.8488L43.5588 76.4128Z" fill="url(#paint2_radial_251_832)" stroke="url(#paint3_linear_251_832)" stroke-width="2"/>
<g filter="url(#filter1_d_251_832)">
<path d="M90.1317 51.2433C91.155 51.5894 92.1995 51.9346 93.2653 52.2807C94.3302 52.6268 95.2783 52.959 96.1079 53.2774C98.1144 54.052 99.6396 55.1212 100.684 56.4835C101.729 57.8459 102.251 59.5371 102.251 61.5573C102.251 62.8298 101.953 64.0615 101.358 65.2516C100.763 66.4409 99.9608 67.4301 98.9514 68.2186C97.8439 69.0904 96.5648 69.7613 95.1124 70.2315C93.6592 70.7016 91.9649 70.9375 90.0279 70.9375C88.229 70.9375 86.5518 70.7131 84.9956 70.2641C83.4386 69.8152 82.1211 69.2863 81.0423 68.6782L79.6103 70.1295H77.8465L77.5768 59.4971H79.361C79.7623 60.5084 80.274 61.5744 80.8968 62.696C81.5196 63.8175 82.2388 64.8214 83.0553 65.7079C83.8988 66.6359 84.8428 67.3902 85.8873 67.9721C86.9319 68.5533 88.1529 68.8439 89.5506 68.8439C91.432 68.8439 92.8738 68.3851 93.8775 67.4652C94.8803 66.5453 95.3821 65.3871 95.3821 63.9905C95.3821 62.8429 94.9563 61.8781 94.1055 61.0969C93.2547 60.3158 91.9371 59.6408 90.1521 59.0718C88.9899 58.6972 87.9216 58.3503 86.9458 58.0311C85.9707 57.712 85.0537 57.3855 84.1963 57.0525C82.2176 56.264 80.748 55.1368 79.7869 53.67C78.8249 52.204 78.3443 50.565 78.3443 48.7521C78.3443 47.6037 78.5936 46.5009 79.0913 45.4423C79.5891 44.3844 80.3157 43.4327 81.2703 42.5895C82.1832 41.801 83.352 41.1578 84.7774 40.6591C86.202 40.1612 87.7516 39.9122 89.4263 39.9122C91.0585 39.9122 92.5869 40.14 94.0123 40.5962C95.4369 41.0525 96.5574 41.508 97.3739 41.9643L98.64 40.7203H100.445L100.611 50.7511H98.8271C98.4119 49.6712 97.924 48.5668 97.3633 47.438C96.8035 46.3091 96.2117 45.3712 95.5897 44.6228C94.9114 43.8196 94.13 43.1796 93.244 42.7013C92.3589 42.2238 91.3209 41.9847 90.1317 41.9847C88.6376 41.9847 87.4165 42.4075 86.4684 43.2515C85.5212 44.0955 85.0471 45.1403 85.0471 46.3858C85.0471 47.562 85.4591 48.5236 86.2821 49.2712C87.1051 50.0189 88.3883 50.676 90.1317 51.2433ZM74.5053 43.2074C73.9103 43.5535 73.4502 43.9224 73.1249 44.3167C72.7996 44.7101 72.4784 45.2529 72.1604 45.9434C71.7314 46.8968 71.129 48.2885 70.355 50.1193C69.5794 51.9501 68.6942 54.0332 67.6987 56.3676C66.8127 58.4678 65.8548 60.7688 64.8242 63.269C63.7935 65.7699 62.8079 68.1672 61.8671 70.4609H57.6955C55.7585 65.7218 53.7871 60.9068 51.7814 56.0158C49.7749 51.1241 48.3642 47.7253 47.5477 45.8185C47.2297 45.128 46.9216 44.6064 46.6241 44.2538C46.3266 43.902 45.8534 43.5396 45.2028 43.1658C44.732 42.9038 44.3176 42.7209 43.958 42.6173C43.5984 42.5136 43.1211 42.4197 42.5261 42.3373V40.7203H58.4842V42.2957C56.991 42.4752 55.9783 42.6654 55.4463 42.8654C54.9134 43.0662 54.6477 43.3184 54.6477 43.622C54.6477 43.7747 54.6714 43.9363 54.7205 44.1093C54.7687 44.2824 54.8414 44.5134 54.9387 44.8031C55.3809 46.0177 56.1827 48.002 57.3449 50.756C58.5063 53.5092 60.2284 57.7087 62.5104 63.3538C63.9072 59.9175 65.0694 57.0125 65.9954 54.6388C66.9222 52.2652 67.7379 50.1675 68.4441 48.3456C68.7898 47.4625 69.0767 46.6372 69.3047 45.8708C69.5336 45.1043 69.6472 44.5273 69.6472 44.1404C69.6472 43.698 69.3292 43.329 68.6934 43.0311C68.0567 42.7348 66.8814 42.5169 65.1666 42.3789V40.7203H77.0995V42.3789C76.6426 42.4197 76.207 42.503 75.7918 42.627C75.3766 42.7519 74.9475 42.9454 74.5053 43.2074Z" fill="url(#paint4_linear_251_832)"/>
<path d="M98.6421 67.8258L98.6436 67.8246C99.5922 67.0836 100.348 66.1534 100.911 65.028C101.473 63.9041 101.751 62.7487 101.751 61.5573C101.751 59.6269 101.254 58.048 100.287 56.7878C99.3112 55.5148 97.8701 54.4937 95.9282 53.7439C95.1087 53.4295 94.1693 53.1002 93.1107 52.7562C92.0443 52.41 90.9988 52.0644 89.9742 51.7179C88.2033 51.1413 86.8441 50.4573 85.9459 49.6413C85.0121 48.793 84.5471 47.694 84.5471 46.3858C84.5471 44.9945 85.0844 43.8149 86.1358 42.8782L86.136 42.878C87.1913 41.9386 88.5378 41.4847 90.1317 41.4847C91.3887 41.4847 92.5111 41.7379 93.4814 42.2613L93.4816 42.2613C94.425 42.7707 95.2548 43.4513 95.9717 44.3001L95.9743 44.3032C96.627 45.0886 97.2387 46.0614 97.8113 47.2158C98.3231 48.2463 98.7757 49.258 99.1688 50.2511H100.103L99.9536 41.2203H98.8445L97.7244 42.3209L97.4571 42.5835L97.13 42.4007C96.3547 41.9675 95.2693 41.5239 93.8598 41.0724C92.488 40.6333 91.0115 40.4122 89.4263 40.4122C87.8018 40.4122 86.3086 40.6536 84.9425 41.131L98.6421 67.8258ZM98.6421 67.8258C97.5848 68.658 96.3592 69.3023 94.9585 69.7558L98.6421 67.8258ZM85.1342 69.7837L85.1342 69.7837C86.6407 70.2183 88.2707 70.4375 90.0279 70.4375C91.9258 70.4375 93.5661 70.2062 94.9584 69.7558L85.1342 69.7837ZM85.1342 69.7837C83.6039 69.3425 82.3244 68.8269 81.2878 68.2426L80.9548 68.0549M85.1342 69.7837L80.9548 68.0549M80.9548 68.0549L80.6863 68.327M80.9548 68.0549L80.6863 68.327M80.6863 68.327L79.4012 69.6295H78.334L78.0897 59.9971H79.0243L80.6863 68.327ZM85.6442 68.4091L85.644 68.4089C84.5505 67.7996 83.5646 67.0113 82.6866 66.0456C82.6862 66.0451 82.6857 66.0446 82.6853 66.0442L83.0553 65.7079C82.2388 64.8214 81.5196 63.8175 80.8968 62.696L85.6442 68.4091ZM85.6442 68.4091C86.7748 69.0381 88.0823 69.3439 89.5506 69.3439C91.5088 69.3439 93.0891 68.8661 94.2153 67.8338L94.2154 67.8337M85.6442 68.4091L94.2154 67.8337M94.2154 67.8337C95.3245 66.8164 95.8821 65.5231 95.8821 63.9905C95.8821 62.7018 95.3968 61.6037 94.4436 60.7286C93.5163 59.8772 92.1207 59.1746 90.3048 58.5957C89.1435 58.2214 88.0762 57.8748 87.1013 57.5559C86.1347 57.2396 85.2269 56.9163 84.3794 56.5872C82.4763 55.8285 81.0985 54.7593 80.2051 53.3959L80.2049 53.3956M94.2154 67.8337L80.2049 53.3956M80.2049 53.3956C79.2983 52.0141 78.8443 50.4711 78.8443 48.7521M80.2049 53.3956L78.8443 48.7521M71.7045 45.7382L71.7063 45.7343C72.0342 45.0221 72.3766 44.4371 72.7395 43.9981C73.113 43.5456 73.6242 43.1417 74.2523 42.7762C74.7225 42.4977 75.1881 42.2865 75.6478 42.1482L75.6486 42.148C75.9561 42.0561 76.273 41.9852 76.5995 41.9356V41.2203H65.6666V41.9206C67.1459 42.0599 68.2441 42.2705 68.9043 42.5778L68.9055 42.5783C69.6026 42.9049 70.1472 43.4034 70.1472 44.1404C70.1472 44.6035 70.0153 45.2385 69.784 46.0134C69.7839 46.0135 69.7839 46.0137 69.7838 46.0138L69.3047 45.8708L71.7045 45.7382ZM71.7045 45.7382C71.2731 46.6967 70.6691 48.0924 69.8946 49.9243C69.1191 51.7547 68.2341 53.8374 67.2388 56.1715L67.238 56.1733M71.7045 45.7382L67.238 56.1733M67.238 56.1733C66.3514 58.275 65.3929 60.5773 64.3619 63.0784L64.3619 63.0784M67.238 56.1733L64.3619 63.0784M64.3619 63.0784C63.3775 65.4671 62.4342 67.7612 61.5318 69.9609H58.0313C56.135 65.3219 54.2059 60.6103 52.244 55.8261L52.244 55.8261M64.3619 63.0784L52.244 55.8261M52.244 55.8261C50.2376 50.9346 48.8255 47.5324 48.0073 45.6217L48.0075 45.6217M52.244 55.8261L48.0075 45.6217M48.0075 45.6217L48.0018 45.6094M48.0075 45.6217L48.0018 45.6094M48.0018 45.6094C47.6755 44.9006 47.3453 44.3332 47.0063 43.9314L47.0059 43.931M48.0018 45.6094L47.0059 43.931M47.0059 43.931C46.6548 43.5158 46.1254 43.1192 45.4519 42.7322L45.4519 42.7322M47.0059 43.931L45.4519 42.7322M45.4519 42.7322L45.4459 42.7289M45.4519 42.7322L45.4459 42.7289M45.4459 42.7289C44.9554 42.4559 44.5048 42.2545 44.0965 42.1368C43.8018 42.0519 43.4439 41.9754 43.0261 41.907V41.2203H57.9842V41.8543C56.7235 42.0182 55.8058 42.1961 55.2703 42.3974L55.27 42.3975M45.4459 42.7289L55.27 42.3975M55.27 42.3975C54.7215 42.6042 54.1477 42.9688 54.1477 43.622C54.1477 43.8266 54.1795 44.0339 54.2391 44.2446M55.27 42.3975L54.4645 44.9623M54.4645 44.9623L54.4647 44.9622C54.3665 44.6698 54.2908 44.4298 54.2391 44.2446M54.4645 44.9623L54.4689 44.9742M54.4645 44.9623L54.4689 44.9742M54.2391 44.2446C54.239 44.2443 54.2389 44.2439 54.2388 44.2436L54.7205 44.1093M54.2391 44.2446C54.2392 44.245 54.2393 44.2453 54.2394 44.2457L54.7205 44.1093M54.7205 44.1093C54.6714 43.9363 54.6477 43.7747 54.6477 43.622C54.6477 43.3184 54.9134 43.0662 55.4463 42.8654L54.9387 44.8031C54.8414 44.5134 54.7687 44.2824 54.7205 44.1093ZM54.4689 44.9742C54.9157 46.2016 55.7218 48.1959 56.8842 50.9503L54.4689 44.9742ZM78.8443 48.7521C78.8443 47.6788 79.0767 46.6486 79.5438 45.655M78.8443 48.7521L79.5438 45.655M79.5438 45.655C80.0097 44.6649 80.6921 43.7677 81.599 42.9662M79.5438 45.655L81.599 42.9662M81.599 42.9662C82.4538 42.2285 83.563 41.6137 84.9424 41.1311L81.599 42.9662ZM66.4612 54.8206C67.388 52.447 68.2038 50.3491 68.91 48.5271L56.8842 50.9504C58.0441 53.7 59.7651 57.8966 62.0468 63.5412L62.5091 64.6848L62.9735 63.5421C64.3708 60.1045 65.534 57.1972 66.4612 54.8206Z" stroke="url(#paint5_linear_251_832)"/>
</g>
<defs>
<filter id="filter0_d_251_832" x="0.553314" y="0" width="147.665" height="123.207" filterUnits="userSpaceOnUse" color-interpolation-filters="sRGB">
<feFlood flood-opacity="0" result="BackgroundImageFix"/>
<feColorMatrix in="SourceAlpha" type="matrix" values="0 0 0 0 0 0 0 0 0 0 0 0 0 0 0 0 0 0 127 0" result="hardAlpha"/>
<feOffset/>
<feGaussianBlur stdDeviation="12.5"/>
<feComposite in2="hardAlpha" operator="out"/>
<feColorMatrix type="matrix" values="0 0 0 0 0.979167 0 0 0 0 0.792375 0 0 0 0 0.350868 0 0 0 1 0"/>
<feBlend mode="normal" in2="BackgroundImageFix" result="effect1_dropShadow_251_832"/>
<feBlend mode="normal" in="SourceGraphic" in2="effect1_dropShadow_251_832" result="shape"/>
</filter>
<filter id="filter1_d_251_832" x="40.5261" y="39.9122" width="63.7249" height="37.0253" filterUnits="userSpaceOnUse" color-interpolation-filters="sRGB">
<feFlood flood-opacity="0" result="BackgroundImageFix"/>
<feColorMatrix in="SourceAlpha" type="matrix" values="0 0 0 0 0 0 0 0 0 0 0 0 0 0 0 0 0 0 127 0" result="hardAlpha"/>
<feOffset dy="4"/>
<feGaussianBlur stdDeviation="1"/>
<feComposite in2="hardAlpha" operator="out"/>
<feColorMatrix type="matrix" values="0 0 0 0 0 0 0 0 0 0 0 0 0 0 0 0 0 0 0.5 0"/>
<feBlend mode="normal" in2="BackgroundImageFix" result="effect1_dropShadow_251_832"/>
<feBlend mode="normal" in="SourceGraphic" in2="effect1_dropShadow_251_832" result="shape"/>
</filter>
<radialGradient id="paint0_radial_251_832" cx="0" cy="0" r="1" gradientUnits="userSpaceOnUse" gradientTransform="translate(33.2456 45.9649) rotate(9.60304) scale(81.0302 109)">
<stop offset="0.102161" stop-color="#B37D16"/>
<stop offset="0.80694" stop-color="#F8F497"/>
<stop offset="1" stop-color="#C4963D"/>
</radialGradient>
<linearGradient id="paint1_linear_251_832" x1="28" y1="27" x2="100.228" y2="83.0877" gradientUnits="userSpaceOnUse">
<stop stop-color="#F8F497"/>
<stop offset="1" stop-color="#B7851F"/>
</linearGradient>
<radialGradient id="paint2_radial_251_832" cx="0" cy="0" r="1" gradientUnits="userSpaceOnUse" gradientTransform="translate(78.842 32.6492) rotate(95.6824) scale(40.7529 55.0084)">
<stop stop-color="#AF4190"/>
<stop offset="0.472281" stop-color="#610547"/>
<stop offset="1" stop-color="#220119"/>
</radialGradient>
<linearGradient id="paint3_linear_251_832" x1="43.1315" y1="32.6492" x2="103.254" y2="76.8334" gradientUnits="userSpaceOnUse">
<stop stop-color="#F2E586"/>
<stop offset="0.54684" stop-color="#B37D16"/>
<stop offset="0.990875" stop-color="#F7F395"/>
</linearGradient>
<linearGradient id="paint4_linear_251_832" x1="42.5261" y1="74.8157" x2="42.5261" y2="39.9122" gradientUnits="userSpaceOnUse">
<stop offset="0.276042" stop-color="#B37D16"/>
<stop offset="0.67" stop-color="#F8F497"/>
<stop offset="1" stop-color="#DDB149"/>
</linearGradient>
<linearGradient id="paint5_linear_251_832" x1="72.3885" y1="39.9122" x2="72.3857" y2="73.807" gradientUnits="userSpaceOnUse">
<stop stop-color="#DDB149"/>
<stop offset="1" stop-color="#F8F497"/>
</linearGradient>
</defs>
</svg>
