<svg width="26" height="29" viewBox="0 0 26 29" fill="none" xmlns="http://www.w3.org/2000/svg">
<path d="M6.5 16.875C6.5 16.1846 7.05965 15.625 7.75 15.625C8.44036 15.625 9 16.1846 9 16.875C9 17.5654 8.44036 18.125 7.75 18.125C7.05965 18.125 6.5 17.5654 6.5 16.875Z" fill="white"/>
<path d="M7.75 20.625C7.05965 20.625 6.5 21.1846 6.5 21.875C6.5 22.5654 7.05965 23.125 7.75 23.125C8.44036 23.125 9 22.5654 9 21.875C9 21.1846 8.44036 20.625 7.75 20.625Z" fill="white"/>
<path d="M11.5 16.875C11.5 16.1846 12.0596 15.625 12.75 15.625C13.4404 15.625 14 16.1846 14 16.875C14 17.5654 13.4404 18.125 12.75 18.125C12.0596 18.125 11.5 17.5654 11.5 16.875Z" fill="white"/>
<path d="M12.75 20.625C12.0596 20.625 11.5 21.1846 11.5 21.875C11.5 22.5654 12.0596 23.125 12.75 23.125C13.4404 23.125 14 22.5654 14 21.875C14 21.1846 13.4404 20.625 12.75 20.625Z" fill="white"/>
<path d="M16.5 16.875C16.5 16.1846 17.0596 15.625 17.75 15.625C18.4404 15.625 19 16.1846 19 16.875C19 17.5654 18.4404 18.125 17.75 18.125C17.0596 18.125 16.5 17.5654 16.5 16.875Z" fill="white"/>
<path d="M17.75 20.625C17.0596 20.625 16.5 21.1846 16.5 21.875C16.5 22.5654 17.0596 23.125 17.75 23.125C18.4404 23.125 19 22.5654 19 21.875C19 21.1846 18.4404 20.625 17.75 20.625Z" fill="white"/>
<path fill-rule="evenodd" clip-rule="evenodd" d="M5.25 1.875C5.25 1.18465 5.80965 0.625 6.5 0.625C7.19035 0.625 7.75 1.18465 7.75 1.875V3.125H17.75V1.875C17.75 1.18465 18.3096 0.625 19 0.625C19.6904 0.625 20.25 1.18465 20.25 1.875V3.125H21.5C23.5711 3.125 25.25 4.80394 25.25 6.875V24.375C25.25 26.4461 23.5711 28.125 21.5 28.125H4C1.92894 28.125 0.25 26.4461 0.25 24.375V6.875C0.25 4.80394 1.92894 3.125 4 3.125H5.25V1.875ZM17.75 5.625V6.875C17.75 7.56535 18.3096 8.125 19 8.125C19.6904 8.125 20.25 7.56535 20.25 6.875V5.625H21.5C22.1904 5.625 22.75 6.18465 22.75 6.875V10.625H2.75V6.875C2.75 6.18465 3.30965 5.625 4 5.625H5.25V6.875C5.25 7.56535 5.80965 8.125 6.5 8.125C7.19035 8.125 7.75 7.56535 7.75 6.875V5.625H17.75ZM2.75 13.125V24.375C2.75 25.0654 3.30965 25.625 4 25.625H21.5C22.1904 25.625 22.75 25.0654 22.75 24.375V13.125H2.75Z" fill="white"/>
</svg>
