<svg width="69" height="79" viewBox="0 0 69 79" fill="none" xmlns="http://www.w3.org/2000/svg">
<path d="M62.457 36.0512L62.4571 36.0512C62.5583 36.3172 62.6594 36.5821 62.7601 36.8461C64.1841 40.5784 65.5334 44.1149 66.2605 47.5529C67.0324 51.2031 67.0685 54.6031 65.7888 57.8296C63.2402 64.2558 55.1542 70.7227 34.5529 76.5773C13.9517 70.7227 5.8658 64.2558 3.31718 57.8297C2.03753 54.6031 2.07363 51.2031 2.84561 47.5529C3.57269 44.115 4.92194 40.5786 6.34591 36.8463C6.44665 36.5823 6.54777 36.3172 6.64907 36.0512L6.64909 36.0512C8.89631 30.1486 7.47871 23.7206 5.65953 18.9578C4.73881 16.5472 3.68764 14.4911 2.86737 13.0377C2.50016 12.387 2.17776 11.8546 1.93187 11.4623L6.94605 1.91538C14.8077 5.06077 21.7055 5.02364 26.7281 4.14103C29.3712 3.67658 31.492 2.97891 32.9618 2.39189C33.6292 2.12538 34.1635 1.8812 34.553 1.69117C34.9424 1.8812 35.4767 2.12538 36.1441 2.3919C37.614 2.97891 39.7348 3.67659 42.3779 4.14103C47.4006 5.02364 54.2986 5.06077 62.1602 1.91531L67.1761 11.4624C66.9301 11.8546 66.6077 12.387 66.2405 13.0375C65.42 14.491 64.3686 16.5471 63.4476 18.9577C61.6279 23.7205 60.2098 30.1485 62.457 36.0512Z" stroke="#83ECFF" stroke-width="3" stroke-linecap="round" stroke-linejoin="round"/>
<path d="M11.4928 12.4935C11.5042 12.5204 11.5159 12.548 11.5279 12.5764C11.7315 13.058 12.0167 13.7526 12.3468 14.6138C13.0062 16.3341 13.8493 18.7299 14.5808 21.4281C15.311 24.1215 15.9391 27.149 16.1526 30.1257C16.3651 33.0877 16.1753 36.1021 15.1826 38.7092L15.1826 38.7093C14.9482 39.3247 14.7163 39.9256 14.4895 40.5135C13.4238 43.2753 12.4695 45.7484 11.8885 48.0836C11.1922 50.8817 11.0928 53.2705 11.9179 55.4558C12.7402 57.6339 14.5707 59.844 18.2109 62.0936C21.7972 64.3097 27.044 66.5036 34.5529 68.7117C42.0619 66.5036 47.3087 64.3097 50.895 62.0936C54.5354 59.844 56.366 57.6339 57.1885 55.4557C58.0137 53.2704 57.9145 50.8816 57.2185 48.0834C56.6378 45.7486 55.684 43.2758 54.6189 40.5144C54.392 39.9262 54.1601 39.325 53.9256 38.7092L11.4928 12.4935ZM11.4928 12.4935L12.345 10.8579C15.8211 12.071 19.5139 12.6367 23.2208 12.5206C27.1456 12.3978 31.0019 11.5134 34.5531 9.92253C38.1047 11.5129 41.9613 12.3969 45.8862 12.5197C49.5932 12.6357 53.286 12.0704 56.7624 10.8579L57.6135 12.4932C57.6021 12.5202 57.5903 12.548 57.5782 12.5765C57.3747 13.0581 57.0896 13.7527 56.7596 14.614C56.1004 16.3342 55.2576 18.7301 54.5264 21.4283C53.7964 24.1217 53.1686 27.1492 52.9553 30.1258C52.743 33.0877 52.933 36.1021 53.9256 38.7091L11.4928 12.4935Z" stroke="#83ECFF" stroke-width="3" stroke-linecap="round" stroke-linejoin="round"/>
<path d="M35.1017 26.6928L35.1035 26.6964L37.3623 31.0391L37.3631 31.0407C37.6291 31.5506 38.017 31.9834 38.4869 32.3076L39.3386 31.0728L38.4869 32.3076C38.9562 32.6313 39.4955 32.8387 40.0578 32.9173L40.0611 32.9177L45.1131 33.6127C45.1133 33.6127 45.1135 33.6127 45.1137 33.6128C45.2376 33.6301 45.3459 33.6789 45.4282 33.7448C45.5101 33.8104 45.561 33.888 45.5865 33.9626C45.6119 34.0367 45.6145 34.1129 45.5954 34.1863C45.5762 34.2602 45.5328 34.3384 45.4584 34.4073L41.8031 37.7855L41.8026 37.786C41.3818 38.1752 41.0602 38.6621 40.873 39.2085C40.6857 39.7551 40.6405 40.3396 40.7434 40.9094L40.7435 40.9099L41.6067 45.6813L41.6069 45.6825C41.6201 45.7555 41.6123 45.8318 41.5806 45.9057C41.5487 45.9802 41.4902 46.0567 41.4006 46.1184L42.2515 47.3537L41.4006 46.1184C41.3106 46.1803 41.1967 46.2219 41.0711 46.2304C40.9454 46.239 40.823 46.2134 40.7196 46.1618L40.7185 46.1612L36.1978 43.9081C36.1977 43.908 36.1975 43.9079 36.1973 43.9078C35.6871 43.6533 35.1238 43.5224 34.5552 43.5224C33.9866 43.5224 33.4233 43.6533 32.913 43.9078C32.9128 43.9079 32.9126 43.908 32.9125 43.9081L28.3916 46.1612L28.3905 46.1618C28.287 46.2134 28.1646 46.239 28.0389 46.2304C27.9134 46.2219 27.7994 46.1803 27.7095 46.1184L26.8586 47.3537L27.7095 46.1184C27.6203 46.057 27.5618 45.9807 27.5297 45.9057C27.498 45.8318 27.4902 45.7555 27.5034 45.6825L27.5037 45.6813L28.3666 40.9098L28.3666 40.9094C28.4695 40.3396 28.4243 39.7551 28.2371 39.2085C28.0499 38.6621 27.7283 38.1752 27.3075 37.786L27.307 37.7855L23.6517 34.4073C23.6516 34.4072 23.6515 34.4071 23.6514 34.407C23.5776 34.3386 23.5342 34.2606 23.5149 34.1863C23.4958 34.1129 23.4984 34.0367 23.5238 33.9626C23.5495 33.8875 23.6004 33.8101 23.6819 33.7448C23.7642 33.6789 23.8725 33.6301 23.9964 33.6128C23.9966 33.6127 23.9968 33.6127 23.997 33.6127L29.0489 32.9178L29.0515 32.9174C29.6141 32.839 30.1538 32.6317 30.6234 32.3078C31.0937 31.9834 31.4815 31.5501 31.7473 31.0401L31.7475 31.0396L34.0082 26.6968L34.0082 26.6968L34.0103 26.6928C34.0493 26.6174 34.1159 26.5424 34.2126 26.4851C34.3099 26.4276 34.4292 26.3936 34.5561 26.3936C34.6828 26.3936 34.8019 26.4275 34.8993 26.4851L35.6628 25.194L34.8993 26.4851C34.9961 26.5424 35.0627 26.6174 35.1017 26.6928Z" stroke="#83ECFF" stroke-width="3" stroke-linecap="round" stroke-linejoin="round"/>
</svg>
