<svg width="15" height="21" viewBox="0 0 15 21" fill="none" xmlns="http://www.w3.org/2000/svg">
<path fill-rule="evenodd" clip-rule="evenodd" d="M7.5 6.18957C6.46437 6.18957 5.625 7.0466 5.625 8.104C5.625 9.1614 6.46437 10.0184 7.5 10.0184C8.53562 10.0184 9.375 9.1614 9.375 8.104C9.375 7.0466 8.53562 6.18957 7.5 6.18957ZM7.5 11.2947C5.77437 11.2947 4.375 9.86655 4.375 8.104C4.375 6.34145 5.77437 4.91329 7.5 4.91329C9.22562 4.91329 10.625 6.34145 10.625 8.104C10.625 9.86655 9.22562 11.2947 7.5 11.2947ZM7.5 0.446289C3.35812 0.446289 0 3.87503 0 8.104C0 11.3062 6.25312 20.8739 7.5 20.8668C8.7275 20.8739 15 11.2628 15 8.104C15 3.87503 11.6419 0.446289 7.5 0.446289Z" fill="white"/>
</svg>
