<svg width="51" height="48" viewBox="0 0 51 48" fill="none" xmlns="http://www.w3.org/2000/svg">
<g clip-path="url(#clip0_165_1546)" filter="url(#filter0_d_165_1546)">
<path d="M39.8697 0H10.3299C6.83401 0 4 2.68629 4 6V34C4 37.3137 6.83401 40 10.3299 40H39.8697C43.3656 40 46.1996 37.3137 46.1996 34V6C46.1996 2.68629 43.3656 0 39.8697 0Z" fill="#C80A0A"/>
<path d="M38.04 23.5938C37.2982 22.8125 35.6497 22.4219 33.4244 22.4219C32.1056 22.4219 30.7045 22.5781 29.0561 22.8125C27.3107 21.2629 25.8607 19.4392 24.7702 17.4219C25.5944 15.0781 26.1713 12.8125 26.1713 11.0938C26.1713 9.76562 25.6768 7.65625 23.6987 7.65625C23.1217 7.65625 22.6272 7.96875 22.2975 8.4375C21.4733 9.84375 21.803 12.9688 23.369 16.25C22.2251 19.3854 20.8479 22.4399 19.248 25.3906C14.8796 27.1094 11.9949 28.9844 11.7476 30.4688C11.5828 31.1719 12.0773 32.3438 13.8082 32.3438C16.3632 32.3438 19.1655 28.8281 21.3085 25.2344C23.7823 24.4281 26.3172 23.8013 28.8912 23.3594C32.0232 25.9375 34.7431 26.3281 36.0619 26.3281C38.6993 26.3281 38.9466 24.5312 38.04 23.5938ZM22.7096 8.67188C23.369 7.73438 24.8526 8.04688 24.8526 9.92188C24.8526 11.1719 24.4405 13.2031 23.6163 15.5469C22.1327 12.2656 22.1327 9.6875 22.7096 8.67188ZM12.2422 30.5469C12.4894 29.2969 14.9621 27.5781 18.8359 26.0938C16.6929 29.5312 14.55 31.7188 13.2312 31.7188C12.407 31.7188 12.1597 31.0156 12.2422 30.5469ZM28.4791 22.8906C26.1567 23.3008 23.87 23.8754 21.6382 24.6094C22.8581 22.5223 23.8522 20.3236 24.6053 18.0469C25.6886 19.8018 26.9891 21.4279 28.4791 22.8906ZM29.5506 23.2031C32.1881 22.8125 34.4134 22.8906 35.4025 23.0469C37.7927 23.5156 36.9685 26.25 34.331 25.625C32.4353 25.2344 30.8693 24.2188 29.5506 23.2031Z" fill="white"/>
</g>
<defs>
<filter id="filter0_d_165_1546" x="0" y="0" width="50.1997" height="48" filterUnits="userSpaceOnUse" color-interpolation-filters="sRGB">
<feFlood flood-opacity="0" result="BackgroundImageFix"/>
<feColorMatrix in="SourceAlpha" type="matrix" values="0 0 0 0 0 0 0 0 0 0 0 0 0 0 0 0 0 0 127 0" result="hardAlpha"/>
<feOffset dy="4"/>
<feGaussianBlur stdDeviation="2"/>
<feComposite in2="hardAlpha" operator="out"/>
<feColorMatrix type="matrix" values="0 0 0 0 0 0 0 0 0 0 0 0 0 0 0 0 0 0 0.25 0"/>
<feBlend mode="normal" in2="BackgroundImageFix" result="effect1_dropShadow_165_1546"/>
<feBlend mode="normal" in="SourceGraphic" in2="effect1_dropShadow_165_1546" result="shape"/>
</filter>
<clipPath id="clip0_165_1546">
<rect width="42.1996" height="40" fill="white" transform="translate(4)"/>
</clipPath>
</defs>
</svg>
