<svg width="90" height="90" viewBox="0 0 90 90" fill="none" xmlns="http://www.w3.org/2000/svg">
<g clip-path="url(#clip0_112_66)">
<path d="M34.5 21H55.5C56.331 21 57 21.669 57 22.5C57 23.331 56.331 24 55.5 24H34.5C33.669 24 33 23.331 33 22.5C33 21.669 33.669 21 34.5 21ZM13.5 21C11.028 21 9.23401 23.082 9.00601 25.35L3.00601 85.35C2.74201 87.99 5.02801 90 7.50001 90H82.5C84.972 90 87.258 87.984 86.994 85.35L80.994 25.35C80.766 23.085 78.972 21 76.5 21H67.5C65.49 21 65.55 24 67.5 24H76.5C77.352 24 77.901 24.612 78.006 25.65L84.006 85.65C84.075 86.325 83.352 87 82.5 87H7.50001C6.64801 87 5.92501 86.325 5.99401 85.65L11.994 25.65C12.099 24.612 12.648 24 13.5 24H22.5C24.51 24 24.462 21 22.5 21H13.5ZM45 0C35.076 0 27 8.076 27 18V31.5C27 33.495 30 33.495 30 31.5V18C30 9.699 36.699 3 45 3C53.301 3 60 9.699 60 18V31.5C60 33.495 63 33.471 63 31.5V18C63 8.076 54.924 0 45 0Z" fill="white"/>
</g>
<defs>
<clipPath id="clip0_112_66">
<rect width="90" height="90" fill="white"/>
</clipPath>
</defs>
</svg>
