<svg width="30" height="30" viewBox="0 0 30 30" fill="none" xmlns="http://www.w3.org/2000/svg">
<path d="M30 15.0001C30 23.2845 23.2842 30.0002 15.0001 30.0002C6.71577 30.0002 0 23.2846 0 15.0001C0 6.71583 6.71577 0 15.0001 0C23.2843 0 30 6.71583 30 15.0001Z" fill="#0A221D"/>
<path d="M14.8747 5.3328C15.4028 5.63561 15.9629 6.02531 16.3893 6.43829L16.2218 6.60575C15.3804 6.51675 14.4942 6.62782 13.6966 6.64007C13.6076 6.55077 13.4284 6.41652 13.5953 6.30434L14.8747 5.3328ZM29.7521 15.7312C29.7633 16.1091 29.799 16.4336 29.6509 16.8203C28.1137 17.2552 27.104 15.636 25.6126 15.8802L25.7812 16.7195C27.161 16.7647 28.0229 18.0811 29.4484 18.0245C29.2459 18.4269 29.5387 19.4872 28.6415 19.0634C27.7101 18.8407 27.0368 18.0245 26.0162 18.0245C25.893 18.2494 25.971 18.5609 25.9494 18.827C27.0261 18.995 27.8004 19.9004 28.8768 20.0675C28.7755 20.4355 28.6752 20.8476 28.372 21.0721C27.4963 20.8601 26.8124 20.0776 25.8801 20.1L25.7141 20.8707C26.6001 20.8934 27.1725 21.6732 27.9687 21.9073C27.9906 22.2323 27.6985 22.5228 27.5303 22.813C26.8235 22.6018 26.2844 21.9977 25.4768 22.0422C25.4656 21.7395 25.6462 21.3958 25.5781 21.0721C24.671 21.3405 24.0628 20.502 23.3905 19.999C23.3712 18.353 21.6295 17.2732 21.5375 15.7312C21.5199 15.4238 21.567 15.0956 21.7078 14.7429C22.2802 13.4261 22.1004 11.7165 21.4727 10.4888C21.282 10.1657 20.944 9.91069 20.6291 9.72076C21.0899 10.6923 21.6514 11.8402 21.3711 13.0344C21.3387 13.9566 20.7918 14.8423 20.7855 15.7312C20.7834 16.0482 20.8514 16.3651 21.0346 16.6852C21.7643 17.9928 23.0772 19.2305 22.5835 20.8704C22.4478 21.3741 22.0436 21.7636 21.9427 22.2762C22.7964 22.9796 23.6036 23.7723 24.7364 23.8169C25.14 23.5605 24.9158 22.4232 25.7461 22.9477L26.9584 23.5511C26.8701 23.8739 26.5984 24.1633 26.3523 24.3856C25.8923 24.1629 25.4436 23.8959 24.8701 23.9177C24.701 24.0962 24.5555 24.2965 24.5684 24.5527C24.972 24.6188 25.3422 24.7883 25.6793 25.0231C25.5228 25.3585 25.2177 25.5687 24.9373 25.8255L23.9968 25.491C23.8398 25.7146 23.5137 25.9495 23.6281 26.1948C23.8403 26.2852 24.0757 26.4074 24.2319 26.564C23.8168 27.0104 23.2907 27.2976 22.7844 27.6006C22.3484 26.1825 20.9116 25.1883 21.0349 23.5484L20.9681 23.4821C20.6304 23.8599 20.7432 24.464 20.765 24.9542C21.1692 25.9814 22.1334 26.7747 22.2796 27.9011C22.1108 28.1909 21.7302 28.2487 21.4382 28.3715C21.4721 26.3407 18.3759 24.8004 20.3614 22.7463C21.0236 21.7404 22.1331 20.7805 21.7399 19.3957C21.3363 18.0586 19.9088 17.2301 19.9214 15.7312L19.9236 15.6143C20.2488 14.0512 21.2365 12.388 20.4285 10.7251C20.2033 10.0563 19.7002 9.29624 19.0158 9.0167C20.0361 10.1786 20.4406 12.0743 19.8569 13.6377C19.5627 14.2596 19.1577 15.0005 19.117 15.7315H19.1146C19.0929 16.1133 19.1713 16.493 19.4189 16.853C20.1936 18.1036 21.5391 19.4772 20.7651 21.107C19.8902 22.4123 18.3644 23.7402 19.2165 25.4595C19.8335 26.4864 20.7879 27.511 20.5305 28.7733L19.5207 29.1078C20.1939 26.7533 16.8951 25.3699 18.2761 23.0147C19.1286 21.7534 20.6535 20.5701 19.7903 18.8962C19.2743 17.859 18.208 17.2452 18.2417 15.9491L18.2784 15.7314C18.6258 13.8932 20.0303 12.1532 19.0483 10.1888C18.7902 9.60878 18.2744 9.01741 17.702 8.68229L17.6674 8.7167C18.8124 9.82169 19.1607 11.6398 18.5434 13.1012C18.2554 13.9587 17.6233 14.8129 17.4948 15.7317C17.4337 16.165 17.4852 16.614 17.7368 17.087C18.466 18.2357 19.7446 19.4543 18.9467 20.9394C18.1064 22.1661 16.7036 23.3597 17.2639 24.9549C17.8811 26.3506 19.1699 27.6801 18.474 29.4107L17.4322 29.6448C18.262 27.9583 17.0177 26.2848 16.2887 24.8221C15.402 22.7236 18.194 21.7187 18.2387 19.8001C18.2282 18.5618 16.9049 17.8586 16.6253 16.7202C16.0525 16.2395 15.4589 16.9114 14.7743 16.7867C14.2688 16.8877 13.4925 16.0944 13.1907 16.9543C12.8314 18.2149 11.1944 19.1417 11.9139 20.6369C12.5984 21.9657 14.2459 22.9373 13.6956 24.6568C13.2028 26.263 11.5751 27.7923 12.5846 29.6448C12.1699 29.5112 11.3955 29.767 11.4067 29.1079C10.7675 26.8645 13.4933 25.5576 12.6514 23.3154C12.2596 21.942 10.4744 21.1832 10.8675 19.5314C11.158 18.1717 12.6916 17.2211 12.4765 15.7316C12.4591 15.6069 12.4282 15.4793 12.3841 15.3462C11.8117 13.739 10.6439 12.1313 11.3399 10.2554C11.531 9.71965 11.9128 9.26212 12.2482 8.78322C11.1374 9.3746 10.5771 10.6251 10.6001 11.8972C10.5517 13.2806 11.5788 14.4657 11.725 15.7316C11.7825 16.2425 11.6984 16.7657 11.3399 17.3206C10.6113 18.3043 9.65837 19.3415 10.0953 20.6367C10.5106 21.9432 12.1484 22.7346 12.0475 24.2532C12.0364 26.0495 9.93843 27.1679 10.533 29.1768L9.48884 28.8398C9.07425 27.0547 10.9811 26.1413 11.003 24.4896C11.2729 22.5901 8.83786 21.8854 8.98399 20.0338C8.9735 18.627 10.2182 17.736 10.7679 16.5527C10.8622 16.2647 10.8936 15.9926 10.881 15.7317C10.8136 14.4234 9.62862 13.4004 9.82528 11.9294C9.89143 10.8468 10.2617 9.89785 10.9687 9.08363C9.99319 9.47353 9.5902 10.5908 9.32073 11.5285C8.85309 13.0321 9.96939 14.3846 10.0813 15.7318C10.131 16.3267 9.98482 16.9182 9.42218 17.5229C8.61397 18.4705 7.79437 19.6661 8.37788 20.9396C8.99579 22.3448 10.937 23.4386 10.095 25.1912C9.63568 26.2964 8.53571 27.133 8.58089 28.4385C8.28944 28.3157 7.98709 28.1933 7.73941 27.9706C7.73941 26.3079 10.1168 25.2693 8.98409 23.5169C8.88375 23.8627 8.86216 24.3326 8.7836 24.7232C8.39049 25.7394 7.54941 26.5528 7.23465 27.6033C6.70832 27.4012 6.15799 26.9766 5.7202 26.5302L6.32661 26.161C6.25924 25.9373 6.08003 25.7478 5.92331 25.5581C5.52949 25.503 5.27091 25.76 4.94628 25.8608C4.66582 25.6147 4.39514 25.3914 4.17155 25.0901C4.37285 24.5197 5.9457 24.9914 5.14889 24.0535C4.61095 23.7189 4.07101 24.1969 3.59994 24.4201L2.96136 23.6176C3.51109 23.2831 4.05941 22.8132 4.74317 22.9479C4.91169 23.2498 4.92339 23.6938 5.24802 23.8515C6.40376 23.8291 7.22265 22.9594 8.10862 22.2783C7.49112 21.3641 6.98848 20.1021 7.537 18.9966C7.9765 17.8888 9.12165 16.9558 9.17359 15.7311C9.18529 15.4524 9.14162 15.1591 9.01909 14.8435C8.41359 13.2918 8.19989 11.1947 9.35562 9.82129C8.72723 9.98925 8.35671 10.7685 8.14321 11.3601C7.44846 12.8753 8.32716 14.279 8.35751 15.731C8.36165 15.9922 8.34037 16.254 8.27673 16.5177C7.68192 17.7118 6.7182 18.7596 6.56169 20.1338C5.87712 20.5683 5.31509 21.328 4.33967 21.0717C4.30538 21.3281 4.38394 21.719 4.4734 22.0095C3.69988 21.9772 3.17244 22.5444 2.52115 22.8123C2.17423 22.7015 2.08397 22.2553 1.94964 21.9431C2.71196 21.6869 3.26189 20.9266 4.13716 20.9386C4.23862 20.6582 4.08028 20.4012 4.03561 20.1336C2.94684 19.6528 1.221 22.5104 1.07588 20.0329C2.16384 19.9659 2.8591 18.9611 3.93657 18.861L3.96874 18.0585C2.74594 17.9356 1.95932 19.1863 0.737023 19.063L0.467452 17.9921C1.88136 18.08 2.72376 16.8194 4.0703 16.7515C4.24921 16.5175 4.27079 16.1714 4.30528 15.848C2.8355 15.6575 1.8269 17.278 0.266964 16.7859C0.266964 16.7859 0.213211 16.1114 0.184065 15.7311H0.186183C0.175594 15.5824 0.165509 15.4788 0.165509 15.4788C1.55653 16.0158 2.77872 15.0218 3.96874 14.5086C4.27139 14.4185 4.74337 14.5748 4.87911 14.2403C4.86731 13.9835 5.33798 13.6833 4.94618 13.5041C3.20642 13.2692 2.05069 15.3569 0.266762 14.4076L0.132935 14.1392C0.504061 9.09486 3.36355 4.21798 8.10862 1.81806C10.0304 0.72541 12.4179 0.16845 14.8257 0.148684C17.7315 0.124704 20.6676 0.883036 22.8518 2.42127C24.9729 3.7157 27.0018 5.84892 28.1028 8.01446C29.1559 9.91179 29.6406 12.0408 29.7853 14.3074C27.945 15.6908 26.7104 13.004 24.8364 13.6053C24.9374 13.8961 24.9932 14.1969 25.2074 14.4424C26.8683 14.4308 28.0121 16.161 29.7506 15.4791L29.7521 15.7312ZM8.61286 9.51868C7.44593 8.75944 5.96647 9.47433 4.87891 9.88781C4.77796 8.87162 4.36317 7.94583 3.49828 7.27619C3.41438 7.23465 3.2984 7.14726 3.19392 7.14084C3.13139 7.13692 3.07189 7.16201 3.0257 7.24157C3.4177 9.64089 1.85 11.3151 0.73904 13.1352C1.10896 13.436 1.70326 13.391 2.15194 13.3026C3.32966 12.8341 4.45151 12.0185 5.85382 12.2981C6.26852 11.5949 6.96529 10.9138 7.5366 10.3558C7.88564 10.0553 8.36518 9.86444 8.61286 9.51868ZM12.1811 11.0255C12.1587 11.17 12.1923 11.4276 12.4162 11.328C12.7645 10.8481 13.3812 11.2278 13.7624 11.2616V11.1265C13.5533 10.7998 13.123 10.6356 12.686 10.652C12.5851 10.6555 12.4827 10.6701 12.384 10.6929C12.2378 10.7252 12.136 10.8584 12.1811 11.0255ZM17.6669 9.58761C17.3537 8.8954 16.6356 8.61526 15.9841 8.4479C15.6647 8.40877 15.3332 8.38228 15.0044 8.37917C14.9428 8.37857 14.8813 8.37777 14.8199 8.37917C13.9003 8.39764 13.0216 8.63252 12.4848 9.38564C12.4077 9.59825 12.069 9.89684 12.3835 10.0874C13.0904 10.0424 13.897 9.95423 14.3681 10.5578C14.3681 11.094 14.7162 11.8075 14.1331 12.0643C13.6499 11.6192 13.0777 12.2537 12.5519 11.8965C12.3048 11.7512 12.1483 11.9208 12.0471 12.1328C11.901 13.5165 12.6292 15.0436 13.9304 15.8135C14.4577 16.0027 15.1666 16.1827 15.7169 15.9142C17.0407 15.301 17.589 13.8955 17.8354 12.6006C17.8024 12.3542 17.8142 11.8739 17.4666 11.8623C17.0742 12.1092 16.5019 11.9633 16.086 11.8623C15.8401 11.9413 15.8288 12.2992 15.549 12.367L15.3785 12.2316C15.2324 11.6187 15.1424 10.7478 15.7151 10.3237C16.3551 10.0669 17.1067 9.95474 17.7686 10.1562C17.8921 9.9443 17.7014 9.77744 17.6669 9.58761ZM16.9915 10.6882C16.9471 10.6893 16.9038 10.6915 16.86 10.6929C16.625 10.8489 15.9399 10.7367 16.1872 11.2616C16.6138 10.9259 17.2084 11.1612 17.6347 11.328C17.7923 11.2502 17.7581 11.0938 17.7685 10.9591C17.6316 10.7057 17.3046 10.682 16.9915 10.6882ZM21.8761 5.96902C21.0457 5.92518 20.3503 6.39414 19.5873 6.60635C19.5208 5.9604 20.0141 5.27822 20.1266 4.62975C18.893 4.70871 17.9158 5.44748 16.8952 6.03765C16.659 5.46986 16.4221 4.89915 16.1876 4.32925L17.5338 3.0565L17.5683 2.88884L15.7499 2.7881C15.4366 2.24208 15.3132 1.58438 14.943 1.0821C14.64 1.6513 14.4365 2.25371 14.1339 2.82241L12.3176 2.92345V3.0565L13.6961 4.29483C13.5276 4.93136 13.3709 5.62297 12.9563 6.10408C12.1485 5.62277 11.3523 5.09892 10.4668 4.7647C10.2537 4.69627 9.94993 4.585 9.75922 4.73039C10.0393 5.34444 10.4315 6.00494 10.3655 6.67518C9.99511 6.60736 9.70396 6.37107 9.35592 6.27174C8.93972 6.15876 8.44586 5.93802 8.04206 6.07227C8.71533 7.0093 9.26486 7.98997 9.45496 9.11764C11.6885 8.04516 14.2932 7.45529 16.997 7.91362C18.2644 8.11429 19.4298 8.6279 20.563 9.05102C20.6073 7.86857 21.3589 6.9184 21.8761 5.96902ZM25.7116 12.3989C26.855 12.7 28.0021 13.9394 29.2129 13.1353C28.1584 11.3943 26.5889 9.78667 27.0254 7.51007C27.071 7.35465 26.9701 7.19733 26.8249 7.17525C26.1408 7.45338 25.611 8.12392 25.3404 8.78302C25.229 9.17282 25.1631 9.58721 25.0063 9.95464C24.1867 9.53032 23.3123 9.11925 22.3139 9.21858C21.9538 9.26323 21.4377 9.28671 21.3712 9.65443C22.5043 10.2568 23.436 11.2622 24.1304 12.3328C24.6138 12.2543 25.2067 12.3213 25.7116 12.3989ZM13.7301 13.9723L13.7623 14.174C14.2007 14.4646 14.3356 14.957 14.9425 14.9123C15.4807 14.9441 15.8845 14.4424 16.1527 14.0409C15.4243 13.9409 14.5381 14.0957 13.7301 13.9723ZM14.3362 13.0687C14.3581 13.1581 14.2806 13.2921 14.4029 13.3372C14.762 13.2597 15.4123 13.5273 15.6128 13.1032C15.4728 12.9471 15.2443 12.8763 15.0045 12.8763C14.7648 12.8763 14.516 12.9458 14.3362 13.0687Z" fill="#3EFF5E"/>
<path opacity="0.99" d="M13.731 12.6815H16.1909V13.6869H13.731V12.6815Z" fill="white"/>
<path d="M14.1854 13.2191C14.5032 13.2939 14.5819 13.4061 14.8331 13.4374C15.1002 13.4327 15.0616 13.3787 15.5275 13.2188C15.558 13.208 15.6001 13.1409 15.5479 13.0894C15.2587 12.8038 15.0588 13.0079 14.8775 13.0133C14.637 13.0159 14.4114 12.8084 14.1764 13.0781C14.1363 13.1329 14.1155 13.1867 14.1854 13.2191Z" fill="#3EFF5E"/>
</svg>
