<svg width="84" height="84" viewBox="0 0 84 84" fill="none" xmlns="http://www.w3.org/2000/svg">
<g clip-path="url(#clip0_241_294)">
<path d="M42 84C65.196 84 84 65.196 84 42C84 18.804 65.196 0 42 0C18.804 0 0 18.804 0 42C0 65.196 18.804 84 42 84Z" fill="#B3D3C3"/>
<path d="M42 63.0123C37.1098 63.0123 32.673 60.9138 29.3995 57.5222C29.397 59.5548 29.3232 62.4885 28.7842 64.6291C29.1377 64.8452 29.4121 65.1999 29.4656 65.6413C30.1642 71.326 35.5523 75.6123 42 75.6123C48.4463 75.6123 53.8344 71.3255 54.5344 65.6413C54.5886 65.1994 54.8571 64.8452 55.216 64.6298C54.677 62.489 54.603 59.555 54.6005 57.5222C51.327 60.9138 46.8902 63.0123 42 63.0123Z" fill="white"/>
<path d="M54.327 57.7805C51.0809 61.0139 46.7597 63.0123 42 63.0123C37.1098 63.0123 32.673 60.9138 29.3995 57.5222C29.397 59.5548 29.3232 62.4885 28.7842 64.6291C29.1377 64.8452 29.4121 65.1999 29.4656 65.6413C29.7745 68.1541 31.0018 70.3915 32.8297 72.1082C41.2591 70.9214 50.8265 62.5979 54.327 57.7805Z" fill="#C2E6A3"/>
<path d="M54.6 28.0123H30.8C26.9404 28.0123 23.8 31.1526 23.8 35.0123V43.4123C23.8 54.2199 31.9648 63.0122 42 63.0122C52.0352 63.0122 60.2 54.2199 60.2 43.4123V33.6123C60.2 30.5246 57.6884 28.0123 54.6 28.0123Z" fill="white"/>
<path d="M51.8 12.6122H33.6C30.9668 12.6122 28.7534 14.4389 28.1572 16.8908C23.3378 17.5035 19.6 21.6296 19.6 26.6122V33.6122C19.6 37.2202 21.1316 40.5862 23.8 42.9782V35.0122C23.8 31.1526 26.9404 28.0122 30.8 28.0122H54.6C57.6884 28.0122 60.2 30.5244 60.2 33.6122V42.9767C62.8689 40.5849 64.4 37.2193 64.4 33.6122V25.2122C64.4 18.2649 58.748 12.6122 51.8 12.6122Z" fill="#0C5833"/>
<path d="M10.7856 70.0952C18.4734 78.6308 29.6084 84 42 84C54.3916 84 65.5267 78.6308 73.2144 70.0952C71.8739 68.2829 69.9836 66.8105 67.5528 66.1299C67.4968 66.1141 67.4406 66.1019 67.3832 66.0937L56.2079 64.4168C56.1395 64.4065 55.9932 64.4011 55.9235 64.4011C55.2167 64.4011 54.6207 64.9281 54.5344 65.6301C53.8344 71.3141 48.4463 75.6011 42 75.6011C35.5523 75.6011 30.1642 71.3149 29.4656 65.6301C29.3781 64.9075 28.7273 64.3641 28.041 64.4016C27.9589 64.3968 27.8782 64.4037 27.7921 64.4166L16.6168 66.0935C16.5594 66.1017 16.5034 66.1139 16.4472 66.1297C14.0165 66.8106 12.1261 68.2829 10.7856 70.0952Z" fill="#0C5833"/>
</g>
<defs>
<clipPath id="clip0_241_294">
<rect width="84" height="84" fill="white"/>
</clipPath>
</defs>
</svg>
