<svg width="35" height="35" viewBox="0 0 35 35" fill="none" xmlns="http://www.w3.org/2000/svg">
<path d="M17.354 6.22161C17.9701 6.57489 18.6235 7.02954 19.121 7.51135L18.9256 7.70671C17.9439 7.60288 16.9101 7.73247 15.9795 7.74675C15.8758 7.64257 15.6667 7.48594 15.8614 7.35507L17.354 6.22161ZM34.711 18.3531C34.7241 18.7939 34.7657 19.1725 34.5929 19.6236C32.7995 20.1311 31.6215 18.242 29.8815 18.5269L30.0782 19.5061C31.688 19.5588 32.6935 21.0946 34.3566 21.0285C34.1204 21.498 34.462 22.735 33.4152 22.2405C32.3287 21.9808 31.5431 21.0285 30.3524 21.0285C30.2087 21.291 30.2997 21.6543 30.2745 21.9648C31.5306 22.1608 32.434 23.217 33.6897 23.4121C33.5716 23.8414 33.4545 24.3222 33.1009 24.584C32.0792 24.3367 31.2813 23.4239 30.1936 23.45L30 24.3491C31.0336 24.3755 31.7014 25.2853 32.6303 25.5584C32.6559 25.9377 32.3151 26.2766 32.1189 26.6151C31.2942 26.3687 30.6653 25.6639 29.7231 25.7159C29.7101 25.3627 29.9208 24.9617 29.8413 24.584C28.783 24.8972 28.0735 23.9189 27.2892 23.3321C27.2666 21.4118 25.2346 20.152 25.1273 18.3531C25.1067 17.9944 25.1617 17.6115 25.3259 17.2001C25.9937 15.6638 25.784 13.6693 25.0517 12.2369C24.8292 11.86 24.4349 11.5625 24.0674 11.3409C24.605 12.4743 25.2601 13.8136 24.9332 15.2068C24.8953 16.2827 24.2572 17.3159 24.2499 18.3531C24.2475 18.7229 24.3268 19.0926 24.5405 19.4661C25.3919 20.9915 26.9236 22.4356 26.3477 24.3487C26.1893 24.9364 25.7177 25.3908 25.6001 25.9888C26.596 26.8095 27.5378 27.7343 28.8593 27.7864C29.3302 27.4872 29.0686 26.1603 30.0373 26.7723L31.4516 27.4762C31.3486 27.8529 31.0316 28.1904 30.7445 28.4498C30.2079 28.19 29.6844 27.8785 29.0153 27.9039C28.818 28.1121 28.6482 28.3459 28.6633 28.6447C29.1341 28.7219 29.5661 28.9196 29.9594 29.1935C29.7768 29.5848 29.4209 29.8301 29.0937 30.1297L27.9965 29.7395C27.8133 30.0003 27.4328 30.2743 27.5663 30.5605C27.8139 30.666 28.0885 30.8085 28.2708 30.9913C27.7865 31.5121 27.1727 31.8471 26.582 32.2006C26.0733 30.5462 24.397 29.3863 24.5409 27.4731L24.463 27.3957C24.069 27.8365 24.2006 28.5413 24.226 29.1132C24.6976 30.3115 25.8224 31.2371 25.993 32.5512C25.7961 32.8894 25.352 32.9568 25.0114 33.0999C25.0509 30.7307 21.4387 28.9338 23.7552 26.5372C24.5277 25.3637 25.8221 24.2439 25.3634 22.6282C24.8926 21.0683 23.2271 20.1018 23.2418 18.3531L23.2444 18.2167C23.6238 16.3931 24.7761 14.4526 23.8334 12.5126C23.5707 11.7323 22.9837 10.8456 22.1853 10.5195C23.3756 11.875 23.8475 14.0867 23.1665 15.9107C22.8233 16.6362 22.3508 17.5005 22.3034 18.3534H22.3006C22.2753 18.7988 22.3667 19.2418 22.6556 19.6618C23.5594 21.1208 25.1292 22.7234 24.2262 24.6248C23.2054 26.1477 21.4253 27.6968 22.4194 29.7027C23.1392 30.9007 24.2528 32.0961 23.9524 33.5688L22.7744 33.959C23.5598 31.2122 19.7112 29.5982 21.3223 26.8504C22.3169 25.379 24.0959 23.9984 23.0889 22.0455C22.4868 20.8355 21.2428 20.1193 21.2821 18.6072L21.325 18.3533C21.7303 16.2087 23.3689 14.1787 22.2232 11.8869C21.9221 11.2102 21.3204 10.5203 20.6525 10.1293L20.6122 10.1695C21.948 11.4586 22.3543 13.5797 21.6342 15.2848C21.2981 16.2851 20.5607 17.2816 20.4108 18.3537C20.3395 18.8591 20.3996 19.3829 20.6931 19.9347C21.5438 21.2749 23.0356 22.6966 22.1047 24.4293C21.1244 25.8604 19.4877 27.2529 20.1414 29.114C20.8615 30.7423 22.3651 32.2934 21.5532 34.3124L20.3377 34.5855C21.3059 32.6179 19.8541 30.6655 19.0037 28.959C17.9691 26.5108 21.2265 25.3385 21.2787 23.1001C21.2664 21.6554 19.7226 20.835 19.3963 19.5069C18.7281 18.9461 18.0356 19.7299 17.2368 19.5844C16.6471 19.7023 15.7414 18.7768 15.3894 19.78C14.9701 21.2507 13.0603 22.332 13.8997 24.0764C14.6984 25.6265 16.6204 26.7601 15.9784 28.7662C15.4035 30.6401 13.5045 32.4243 14.6822 34.5855C14.1984 34.4296 13.2949 34.7281 13.308 33.9591C12.5623 31.3419 15.7423 29.8171 14.7601 27.2012C14.303 25.5989 12.2204 24.7137 12.6789 22.7866C13.0179 21.2003 14.8071 20.0913 14.5561 18.3535C14.5358 18.208 14.4998 18.0591 14.4483 17.9039C13.7805 16.0288 12.418 14.1532 13.2301 11.9647C13.4531 11.3396 13.8984 10.8058 14.2897 10.2471C12.9939 10.937 12.3401 12.3959 12.367 13.8801C12.3105 15.4941 13.5088 16.8766 13.6793 18.3535C13.7464 18.9496 13.6483 19.5599 13.2301 20.2074C12.38 21.355 11.2683 22.565 11.778 24.0761C12.2626 25.6003 14.1734 26.5237 14.0556 28.2953C14.0427 30.391 11.595 31.6958 12.2887 34.0396L11.0705 33.6464C10.5868 31.5637 12.8115 30.4981 12.837 28.5711C13.1519 26.3551 10.311 25.5329 10.4815 23.3727C10.4693 21.7315 11.9214 20.692 12.5628 19.3114C12.6728 18.9755 12.7094 18.658 12.6946 18.3537C12.6161 16.8272 11.2336 15.6338 11.463 13.9177C11.5402 12.6546 11.9721 11.5475 12.797 10.5976C11.6589 11.0524 11.1887 12.3559 10.8744 13.4499C10.3288 15.2041 11.6311 16.782 11.7617 18.3538C11.8196 19.0478 11.6491 19.7379 10.9927 20.4434C10.0498 21.5489 9.09361 22.9437 9.77438 24.4295C10.4953 26.0689 12.7601 27.3449 11.7777 29.3897C11.2418 30.6791 9.95852 31.6551 10.0112 33.1781C9.6712 33.0349 9.31846 32.8921 9.02949 32.6323C9.02949 30.6924 11.8032 29.4808 10.4816 27.4364C10.3646 27.8397 10.3394 28.3879 10.2477 28.8436C9.78909 30.0292 8.80782 30.9782 8.44061 32.2038C7.82656 31.968 7.1845 31.4726 6.67375 30.9518L7.38122 30.5211C7.30263 30.2601 7.09355 30.039 6.91071 29.8177C6.45126 29.7534 6.14958 30.0533 5.77084 30.1708C5.44364 29.8838 5.12784 29.6232 4.867 29.2717C5.10184 28.6062 6.93683 29.1565 6.00722 28.0624C5.37963 27.672 4.74969 28.2297 4.20011 28.49L3.4551 27.5538C4.09645 27.1635 4.73616 26.6153 5.53388 26.7725C5.73049 27.1248 5.74413 27.6427 6.12287 27.8266C7.47123 27.8005 8.42661 26.7859 9.46024 25.9913C8.73982 24.9248 8.15341 23.4524 8.79335 22.1627C9.3061 20.8703 10.6421 19.7818 10.7027 18.353C10.7163 18.0278 10.6654 17.6856 10.5225 17.3173C9.81603 15.5071 9.56672 13.0604 10.9151 11.4582C10.1819 11.6541 9.74967 12.5632 9.50059 13.2535C8.69005 15.0212 9.7152 16.6588 9.75062 18.3528C9.75544 18.6575 9.73061 18.9629 9.65637 19.2706C8.96243 20.6638 7.83809 21.8862 7.65548 23.4894C6.85682 23.9963 6.20112 24.8826 5.06313 24.5836C5.02313 24.8828 5.11478 25.3388 5.21914 25.6777C4.31671 25.64 3.70136 26.3017 2.94153 26.6143C2.53678 26.485 2.43148 25.9645 2.27476 25.6002C3.16413 25.3014 3.80572 24.4143 4.82687 24.4283C4.94524 24.1012 4.76051 23.8014 4.70839 23.4892C3.43816 22.9283 1.42468 26.262 1.25537 23.3717C2.52467 23.2935 3.3358 22.1213 4.59285 22.0044L4.63039 21.0682C3.20379 20.9248 2.28606 22.3839 0.860043 22.2401L0.545544 20.9907C2.19511 21.0933 3.1779 19.6226 4.74887 19.5434C4.95759 19.2703 4.98277 18.8666 5.02301 18.4893C3.30827 18.267 2.13157 20.1576 0.311641 19.5835C0.311641 19.5835 0.248929 18.7966 0.214926 18.353H0.217397C0.205043 18.1795 0.193277 18.0586 0.193277 18.0586C1.81613 18.685 3.24202 17.5254 4.63039 16.9267C4.98348 16.8216 5.53411 17.0039 5.69248 16.6136C5.67872 16.3141 6.22782 15.9638 5.77072 15.7548C3.74101 15.4807 2.39265 17.9163 0.311405 16.8089L0.155273 16.4957C0.588254 10.6107 3.92432 4.92099 9.46024 2.12109C11.7023 0.84634 14.4878 0.196555 17.2968 0.173495C20.6869 0.145518 24.1124 1.03024 26.6606 2.82484C29.1352 4.335 31.5022 6.82375 32.7868 9.3502C34.0154 11.5637 34.5809 14.0476 34.7497 16.6919C32.6027 18.3059 31.1623 15.1713 28.976 15.8729C29.0938 16.2121 29.159 16.563 29.4089 16.8495C31.3466 16.8359 32.6809 18.8544 34.7092 18.0589L34.711 18.3531ZM10.0485 11.1051C8.68711 10.2193 6.96107 11.0534 5.69225 11.5358C5.57447 10.3502 5.09055 9.27013 4.08151 8.48889C3.98362 8.44043 3.84831 8.33847 3.72642 8.33098C3.65347 8.32641 3.58406 8.35568 3.53017 8.44851C3.9875 11.2477 2.15851 13.2009 0.862396 15.3243C1.29397 15.6753 1.98732 15.6228 2.51078 15.5197C3.88479 14.973 5.19361 14.0216 6.82964 14.3477C7.31345 13.5274 8.12635 12.7328 8.79288 12.0817C9.2001 11.7311 9.75956 11.5085 10.0485 11.1051ZM14.2115 12.8631C14.1854 13.0316 14.2246 13.3321 14.4858 13.216C14.8921 12.6561 15.6116 13.0991 16.0564 13.1385V12.981C15.8123 12.5997 15.3103 12.4082 14.8005 12.4273C14.6828 12.4314 14.5633 12.4485 14.4482 12.475C14.2776 12.5127 14.1589 12.6681 14.2115 12.8631ZM20.6116 11.1855C20.2462 10.378 19.4084 10.0511 18.6482 9.85588C18.2756 9.81023 17.8889 9.77933 17.5053 9.7757C17.4334 9.775 17.3617 9.77406 17.2901 9.7757C16.2172 9.79724 15.192 10.0713 14.5658 10.9499C14.4759 11.1979 14.0807 11.5463 14.4476 11.7686C15.2723 11.7162 16.2133 11.6133 16.763 12.3174C16.763 12.943 17.1691 13.7754 16.4888 14.075C15.9251 13.5557 15.2575 14.296 14.6441 13.8793C14.3557 13.7098 14.1733 13.9076 14.0551 14.1549C13.8846 15.7693 14.7342 17.5509 16.2523 18.4491C16.8675 18.6698 17.6945 18.8798 18.3366 18.5666C19.8809 17.8511 20.5207 16.2114 20.8082 14.7007C20.7696 14.4132 20.7834 13.8529 20.3779 13.8393C19.9201 14.1274 19.2524 13.9572 18.7672 13.8393C18.4803 13.9315 18.4672 14.349 18.1407 14.4281L17.9417 14.2702C17.7713 13.5551 17.6663 12.5391 18.3345 12.0443C19.0811 11.7447 19.958 11.6139 20.7302 11.8489C20.8743 11.6017 20.6518 11.407 20.6116 11.1855ZM19.8236 12.4695C19.7718 12.4708 19.7213 12.4734 19.6702 12.475C19.396 12.6571 18.5967 12.5262 18.8852 13.1385C19.3829 12.7468 20.0766 13.0213 20.574 13.216C20.7579 13.1252 20.718 12.9428 20.7301 12.7856C20.5704 12.49 20.1889 12.4623 19.8236 12.4695ZM25.5223 6.96387C24.5535 6.91271 23.7422 7.45984 22.852 7.70742C22.7745 6.9538 23.35 6.15793 23.4813 5.40139C22.042 5.49351 20.902 6.3554 19.7113 7.04394C19.4357 6.38151 19.1594 5.71569 18.8857 5.0508L20.4563 3.56593L20.4965 3.37033L18.375 3.2528C18.0096 2.61578 17.8656 1.84847 17.4337 1.26248C17.0802 1.92654 16.8428 2.62936 16.4897 3.29284L14.3707 3.41071V3.56593L15.9789 5.01065C15.7823 5.75326 15.5996 6.56014 15.1158 7.12143C14.1735 6.5599 13.2446 5.94875 12.2114 5.55883C11.9628 5.479 11.6084 5.34918 11.3859 5.5188C11.7127 6.23519 12.1702 7.00577 12.0933 7.78772C11.6611 7.70859 11.3215 7.43292 10.9154 7.31703C10.4299 7.18522 9.85368 6.9277 9.38258 7.08432C10.1681 8.17752 10.8092 9.32164 11.031 10.6372C13.6367 9.38602 16.6756 8.69784 19.83 9.23256C21.3086 9.46667 22.6683 10.0659 23.9904 10.5595C24.042 9.18 24.9189 8.07146 25.5223 6.96387ZM29.997 14.4654C31.331 14.8167 32.6693 16.2627 34.0819 15.3244C32.8517 13.2934 31.0205 11.4178 31.5298 8.76175C31.5831 8.58043 31.4653 8.39688 31.2959 8.37113C30.4978 8.69561 29.8797 9.47791 29.5639 10.2469C29.434 10.7016 29.3571 11.1851 29.1741 11.6137C28.2181 11.1187 27.1978 10.6391 26.033 10.755C25.613 10.8071 25.0108 10.8345 24.9333 11.2635C26.2552 11.9663 27.3422 13.1392 28.1523 14.3882C28.7163 14.2967 29.408 14.3749 29.997 14.4654ZM16.0186 16.3009L16.0562 16.5363C16.5677 16.8753 16.725 17.4499 17.4331 17.3976C18.061 17.4348 18.5321 16.8495 18.845 16.381C17.9952 16.2643 16.9613 16.4449 16.0186 16.3009ZM16.7257 15.2468C16.7513 15.3511 16.6609 15.5074 16.8036 15.5601C17.2225 15.4696 17.9812 15.7818 18.2151 15.287C18.0518 15.105 17.7852 15.0223 17.5054 15.0223C17.2258 15.0223 16.9355 15.1034 16.7257 15.2468Z" fill="#3EFF5E"/>
</svg>
