<svg width="196" height="102" viewBox="0 0 196 102" fill="none" xmlns="http://www.w3.org/2000/svg">
<path d="M125.861 39.0989C126.317 41.0554 128.169 42.5563 130.37 42.5563C132.92 42.5563 135 40.4792 135 37.933C135 35.3868 132.92 33.3097 130.37 33.3097C128.169 33.3097 126.438 34.8106 125.861 36.7671H120.654C120.533 35.2662 120.305 33.7653 119.956 32.2644H126.545C127.243 32.2644 127.699 31.8088 127.699 31.1119V24.7599C129.659 24.3042 131.162 22.4549 131.162 20.2572C131.162 17.711 129.082 15.6338 126.532 15.6338C123.982 15.6338 121.929 17.7378 121.929 20.284C121.929 22.4817 123.432 24.2104 125.391 24.7867V29.9862H119.258C116.95 23.862 112.091 19.0243 105.958 16.7059V10.4745H111.165C111.622 12.431 113.474 13.9319 115.675 13.9319C118.225 13.9319 120.305 11.8548 120.305 9.30858C120.305 6.7624 118.225 4.68526 115.675 4.68526C113.474 4.68526 111.742 6.18616 111.165 8.1427H104.804C104.106 8.1427 103.65 8.59833 103.65 9.29518V15.875C102.147 15.5266 100.644 15.2988 99.1407 15.1782V10.0992C101.1 9.64361 102.603 7.79428 102.603 5.59652C102.603 3.05034 100.523 0.973198 97.9732 0.973198C95.4233 0.973198 93.3431 3.05034 93.3431 5.59652C93.3431 7.79428 94.8462 9.523 96.8056 10.0992V15.2988C95.3025 15.4194 93.7994 15.6472 92.2963 15.9957V9.29518C92.2963 8.59833 91.8401 8.1427 91.1422 8.1427H84.9017C84.4454 6.18616 82.5934 4.68526 80.3925 4.68526C77.8426 4.68526 75.7624 6.7624 75.7624 9.30858C75.7624 11.8548 77.8426 13.9319 80.3925 13.9319C82.5934 13.9319 84.3246 12.431 84.9017 10.4745H89.988V16.5987C83.8549 18.9037 78.8894 23.8754 76.5811 29.9862H70.2467V24.7867C72.206 24.331 73.7091 22.4817 73.7091 20.284C73.7091 17.7378 71.629 15.6606 69.0791 15.6606C66.5292 15.6606 64.449 17.7378 64.449 20.284C64.449 22.4817 65.9521 24.2104 67.9115 24.7867V31.1387C67.9115 31.8356 68.3678 32.2912 69.0657 32.2912H75.8832C75.5343 33.7921 75.3061 35.1724 75.1854 36.7939H70.099C69.6427 34.8374 67.7907 33.3365 65.5898 33.3365C63.0399 33.3365 60.9597 35.4136 60.9597 37.9598C60.9597 40.506 63.0399 42.5831 65.5898 42.5831C67.7907 42.5831 69.522 41.0822 70.099 39.1257H75.2256C75.3464 40.7472 75.5745 42.2481 75.9235 43.6284H69.1059C68.4081 43.6284 67.9518 44.084 67.9518 44.7809V51.1329C65.9924 51.5886 64.4893 53.4379 64.4893 55.6356C64.4893 58.1818 66.5695 60.259 69.1193 60.259C71.6692 60.259 73.7494 58.1818 73.7494 55.6356C73.7494 53.4379 72.2463 51.7092 70.2869 51.1329V45.9334H76.6482C78.9565 52.0576 83.8147 57.0159 90.0551 59.3209V65.673H84.9688C84.5125 63.7164 82.6605 62.2155 80.4596 62.2155C77.9097 62.2155 75.8295 64.2926 75.8295 66.8388C75.8295 69.385 77.9097 71.4622 80.4596 71.4622C82.6605 71.4622 84.3917 69.9613 84.9688 68.0047H91.2093C91.9072 68.0047 92.3634 67.5491 92.3634 66.8522V60.0446C93.8665 60.393 95.2488 60.6208 96.8727 60.7414V65.941C94.9133 66.3966 93.4102 68.2459 93.4102 70.4437C93.4102 72.9899 95.4904 75.067 98.0403 75.067C100.59 75.067 102.67 72.9899 102.67 70.4437C102.67 68.2459 101.167 66.5172 99.2078 65.941V60.7414C100.832 60.6208 102.335 60.393 103.717 60.0446V66.8522C103.717 67.5491 104.173 68.0047 104.871 68.0047H111.233C111.689 69.9613 113.541 71.4622 115.742 71.4622C118.292 71.4622 120.372 69.385 120.372 66.8388C120.372 64.2926 118.292 62.2155 115.742 62.2155C113.541 62.2155 111.81 63.7164 111.233 65.673H106.025V59.2137C112.159 56.9087 117.003 52.0576 119.325 45.9334H125.458V51.1329C123.499 51.5886 121.996 53.4379 121.996 55.6356C121.996 58.1818 124.076 60.259 126.626 60.259C129.176 60.259 131.256 58.1818 131.256 55.6356C131.256 53.4379 129.753 51.7092 127.793 51.1329V44.7809C127.793 44.084 127.337 43.6284 126.639 43.6284H120.05C120.399 42.1275 120.627 40.6266 120.748 39.1257L125.861 39.0989ZM124.358 20.3912C124.358 19.1181 125.404 18.0862 126.666 18.0862C127.941 18.0862 128.974 19.1315 128.974 20.3912C128.974 21.6509 127.927 22.6961 126.666 22.6961C125.404 22.7095 124.358 21.6643 124.358 20.3912ZM115.567 7.00362C116.842 7.00362 117.876 8.0489 117.876 9.30858C117.876 10.5817 116.829 11.6135 115.567 11.6135C114.306 11.6135 113.259 10.5683 113.259 9.30858C113.259 8.0489 114.306 7.00362 115.567 7.00362ZM80.4193 11.6269C79.1444 11.6269 78.111 10.5817 78.111 9.32198C78.111 8.0489 79.1578 7.01702 80.4193 7.01702C81.6808 7.01702 82.741 8.0489 82.741 9.30858C82.741 10.5817 81.6942 11.6269 80.4193 11.6269ZM66.7842 20.3912C66.7842 19.1181 67.831 18.0862 69.0925 18.0862C70.3674 18.0862 71.4008 19.1315 71.4008 20.3912C71.4008 21.6509 70.3674 22.7095 69.0925 22.7095C67.8176 22.7095 66.7842 21.6643 66.7842 20.3912ZM71.4008 55.4882C71.4008 56.7613 70.354 57.7932 69.0925 57.7932C67.8176 57.7932 66.7842 56.7479 66.7842 55.4882C66.7842 54.2285 67.831 53.1833 69.0925 53.1833C70.3674 53.1833 71.4008 54.2285 71.4008 55.4882ZM80.4193 69.117C79.1444 69.117 78.111 68.0717 78.111 66.812C78.111 65.5389 79.1578 64.5071 80.4193 64.5071C81.6808 64.5071 82.7276 65.5523 82.7276 66.812C82.741 68.0851 81.6942 69.117 80.4193 69.117ZM115.567 64.4937C116.842 64.4937 117.876 65.5389 117.876 66.7986C117.876 68.0717 116.829 69.1036 115.567 69.1036C114.306 69.1036 113.259 68.0583 113.259 66.7986C113.259 65.5389 114.306 64.4937 115.567 64.4937ZM128.988 55.4882C128.988 56.7613 127.941 57.7932 126.679 57.7932C125.404 57.7932 124.371 56.7479 124.371 55.4882C124.371 54.2285 125.418 53.1833 126.679 53.1833C127.941 53.1833 128.988 54.2285 128.988 55.4882ZM130.37 35.6414C131.645 35.6414 132.678 36.6867 132.678 37.9464C132.678 39.2061 131.631 40.2514 130.37 40.2514C129.095 40.2514 128.062 39.2061 128.062 37.9464C128.062 36.6867 129.108 35.6414 130.37 35.6414ZM95.6917 5.62332C95.6917 4.35024 96.7385 3.31836 98 3.31836C99.2615 3.31836 100.308 4.36364 100.308 5.62332C100.308 6.89641 99.2615 7.92829 98 7.92829C96.7385 7.92829 95.6917 6.88301 95.6917 5.62332ZM65.63 40.2514C64.3551 40.2514 63.3217 39.2061 63.3217 37.9464C63.3217 36.6867 64.3685 35.6414 65.63 35.6414C66.905 35.6414 67.9383 36.6867 67.9383 37.9464C67.9383 39.2061 66.8916 40.2514 65.63 40.2514ZM100.308 70.2695C100.308 71.5426 99.2615 72.5744 98 72.5744C96.7385 72.5744 95.6917 71.5292 95.6917 70.2695C95.6917 68.9964 96.7385 67.9645 98 67.9645C99.2615 67.9645 100.308 68.9964 100.308 70.2695ZM98 58.3828C86.6732 58.3828 77.5339 49.1496 77.5339 37.8258C77.5339 26.8638 86.5524 17.3894 98 17.3894C109.448 17.3894 118.466 26.7432 118.466 37.8258C118.466 49.2568 109.219 58.3828 98 58.3828Z" fill="url(#paint0_linear_256_1199)"/>
<path d="M96.9257 35.4238C97.3699 35.5287 97.4798 35.6859 97.8308 35.7297C98.204 35.7231 98.1501 35.6475 98.801 35.4234C98.8437 35.4083 98.9025 35.3143 98.8296 35.2421C98.4255 34.8418 98.1462 35.1278 97.8928 35.1354C97.5568 35.1391 97.2415 34.8483 96.9132 35.2262C96.8572 35.303 96.8281 35.3784 96.9257 35.4238Z" fill="url(#paint1_linear_256_1199)"/>
<path d="M97.8551 24.4936C98.5936 24.9187 99.3769 25.4658 99.9732 26.0456L99.7389 26.2807C98.5623 26.1557 97.323 26.3117 96.2075 26.3288C96.0831 26.2035 95.8325 26.015 96.0659 25.8575L97.8551 24.4936ZM118.661 39.0915C118.677 39.6219 118.727 40.0775 118.52 40.6203C116.37 41.2309 114.958 38.9578 112.872 39.3006L113.108 40.4789C115.038 40.5423 116.243 42.3903 118.236 42.3109C117.953 42.8758 118.363 44.3643 117.108 43.7693C115.805 43.4567 114.864 42.3109 113.436 42.3109C113.264 42.6267 113.373 43.0639 113.343 43.4374C114.849 43.6734 115.932 44.9443 117.437 45.179C117.295 45.6956 117.155 46.2741 116.731 46.5892C115.506 46.2916 114.55 45.1932 113.246 45.2246L113.014 46.3065C114.253 46.3384 115.054 47.4331 116.167 47.7617C116.198 48.2181 115.789 48.6258 115.554 49.0332C114.565 48.7367 113.812 47.8886 112.682 47.9511C112.667 47.5262 112.919 47.0436 112.824 46.5892C111.555 46.966 110.705 45.7889 109.765 45.0828C109.737 42.772 107.302 41.2561 107.173 39.0915C107.148 38.6599 107.214 38.1992 107.411 37.7041C108.212 35.8555 107.96 33.4554 107.082 31.7319C106.816 31.2784 106.343 30.9203 105.903 30.6537C106.547 32.0176 107.332 33.6291 106.94 35.3056C106.895 36.6002 106.13 37.8435 106.121 39.0915C106.118 39.5364 106.213 39.9814 106.47 40.4307C107.49 42.2664 109.326 44.004 108.636 46.3061C108.446 47.0132 107.881 47.56 107.74 48.2796C108.934 49.2672 110.063 50.3799 111.647 50.4426C112.211 50.0826 111.898 48.486 113.059 49.2224L114.754 50.0693C114.631 50.5226 114.251 50.9288 113.907 51.241C113.263 50.9283 112.636 50.5535 111.834 50.584C111.597 50.8346 111.394 51.1159 111.412 51.4755C111.976 51.5683 112.494 51.8062 112.965 52.1358C112.746 52.6067 112.32 52.9018 111.928 53.2624L110.612 52.7928C110.393 53.1066 109.937 53.4363 110.097 53.7807C110.394 53.9076 110.723 54.0792 110.941 54.2991C110.361 54.9257 109.625 55.3289 108.917 55.7543C108.307 53.7635 106.298 52.3678 106.47 50.0657L106.377 49.9726C105.904 50.5029 106.062 51.351 106.093 52.0392C106.658 53.4811 108.006 54.5949 108.211 56.1761C107.975 56.5831 107.442 56.6642 107.034 56.8365C107.082 53.9855 102.752 51.8233 105.528 48.9395C106.454 47.5275 108.006 46.1799 107.456 44.2358C106.892 42.3588 104.895 41.1957 104.913 39.0915L104.916 38.9274C105.371 36.733 106.752 34.398 105.622 32.0636C105.307 31.1247 104.604 30.0577 103.646 29.6653C105.073 31.2964 105.639 33.9577 104.823 36.1525C104.411 37.0256 103.845 38.0656 103.788 39.0919H103.785C103.754 39.6279 103.864 40.1609 104.21 40.6662C105.294 42.4219 107.175 44.3503 106.093 46.6382C104.869 48.4708 102.735 50.3348 103.927 52.7485C104.79 54.1901 106.125 55.6285 105.765 57.4006L104.353 57.8702C105.294 54.5649 100.681 52.6228 102.612 49.3163C103.804 47.5458 105.937 45.8845 104.73 43.5346C104.008 42.0786 102.517 41.2168 102.564 39.3973L102.615 39.0918C103.101 36.5111 105.065 34.0684 103.692 31.3108C103.331 30.4965 102.61 29.6663 101.809 29.1958L101.761 29.2441C103.362 30.7954 103.849 33.3477 102.986 35.3994C102.583 36.6031 101.699 37.8022 101.519 39.0922C101.434 39.7004 101.506 40.3307 101.858 40.9947C102.877 42.6074 104.666 44.3181 103.55 46.403C102.375 48.1251 100.413 49.8007 101.196 52.0402C102.06 53.9995 103.862 55.866 102.889 58.2954L101.432 58.6241C102.592 56.2564 100.852 53.9071 99.8326 51.8537C98.5924 48.9077 102.497 47.497 102.56 44.8036C102.545 43.0652 100.694 42.078 100.303 40.4799C99.5023 39.8051 98.6721 40.7482 97.7146 40.5731C97.0077 40.715 95.922 39.6014 95.5 40.8085C94.9975 42.5782 92.7082 43.8793 93.7143 45.9783C94.6717 47.8437 96.9757 49.2077 96.2061 51.6217C95.517 53.8765 93.2406 56.0234 94.6524 58.6241C94.0724 58.4364 92.9894 58.7956 93.0051 57.8703C92.1112 54.7209 95.9231 52.8862 94.7458 49.7385C94.1978 47.8104 91.7013 46.7453 92.2509 44.4264C92.6573 42.5175 94.802 41.183 94.5012 39.092C94.4768 38.917 94.4336 38.7378 94.372 38.551C93.5715 36.2947 91.9382 34.0377 92.9117 31.4043C93.179 30.6521 93.7128 30.0098 94.1819 29.3375C92.6285 30.1677 91.8449 31.9232 91.877 33.7091C91.8093 35.6512 93.2458 37.3149 93.4502 39.092C93.5306 39.8093 93.4129 40.5437 92.9117 41.3228C91.8927 42.7037 90.56 44.1597 91.171 45.978C91.7519 47.8121 94.0424 48.9232 93.9012 51.055C93.8857 53.5768 90.9517 55.1469 91.7832 57.9671L90.3229 57.494C89.7431 54.9879 92.4099 53.7057 92.4405 51.3869C92.8179 48.7204 89.4125 47.731 89.6169 45.1316C89.6022 43.1567 91.3429 41.9059 92.1117 40.2447C92.2436 39.8404 92.2875 39.4584 92.2698 39.0922C92.1756 37.2554 90.5184 35.8194 90.7934 33.7543C90.886 32.2345 91.4037 30.9023 92.3925 29.7592C91.0283 30.3066 90.4647 31.875 90.0878 33.1915C89.4338 35.3023 90.995 37.2011 91.1515 39.0923C91.2209 39.9275 91.0166 40.7578 90.2297 41.6067C89.0994 42.937 87.9532 44.6154 88.7692 46.4033C89.6334 48.376 92.3482 49.9114 91.1707 52.3719C90.5283 53.9234 88.99 55.0979 89.0532 56.9305C88.6456 56.7581 88.2227 56.5863 87.8763 56.2737C87.8763 53.9395 91.2012 52.4815 89.617 50.0214C89.4767 50.5068 89.4465 51.1665 89.3366 51.7148C88.7869 53.1414 87.6106 54.2833 87.1704 55.7581C86.4344 55.4744 85.6647 54.8783 85.0525 54.2516L85.9005 53.7333C85.8063 53.4193 85.5557 53.1532 85.3365 52.8869C84.7858 52.8095 84.4241 53.1704 83.9701 53.3118C83.5779 52.9664 83.1994 52.6529 82.8867 52.2299C83.1682 51.4292 85.3678 52.0913 84.2535 50.7747C83.5012 50.305 82.7461 50.976 82.0873 51.2893L81.1942 50.1627C81.963 49.6931 82.7298 49.0335 83.6861 49.2226C83.9218 49.6465 83.9381 50.2698 84.3921 50.4911C86.0084 50.4596 87.1537 49.2387 88.3927 48.2826C87.5291 46.9992 86.8262 45.2276 87.5933 43.6756C88.2079 42.1204 89.8094 40.8106 89.882 39.0913C89.8984 38.7 89.8373 38.2883 89.666 37.8452C88.8192 35.6669 88.5203 32.7228 90.1366 30.7948C89.2578 31.0306 88.7396 32.1245 88.4411 32.9551C87.4694 35.0822 88.6983 37.0527 88.7408 39.0912C88.7465 39.4578 88.7168 39.8253 88.6278 40.1955C87.7959 41.872 86.4482 43.3429 86.2293 45.2721C85.2719 45.882 84.4859 46.9485 83.1218 46.5887C83.0738 46.9487 83.1837 47.4975 83.3088 47.9052C82.227 47.8599 81.4894 48.6561 80.5786 49.0322C80.0934 48.8767 79.9672 48.2503 79.7793 47.812C80.8454 47.4524 81.6145 46.385 82.8386 46.4019C82.9805 46.0082 82.759 45.6475 82.6966 45.2718C81.1739 44.5968 78.7603 48.6084 78.5574 45.1304C80.0789 45.0363 81.0512 43.6258 82.5581 43.4852L82.603 42.3586C80.893 42.1861 79.7929 43.9418 78.0835 43.7687L77.7065 42.2654C79.6838 42.3888 80.8619 40.6191 82.7451 40.5238C82.9953 40.1952 83.0255 39.7094 83.0737 39.2554C81.0182 38.9879 79.6077 41.2629 77.4261 40.572C77.4261 40.572 77.3509 39.6252 77.3102 39.0913H77.3131C77.2983 38.8826 77.2842 38.7371 77.2842 38.7371C79.2295 39.4909 80.9388 38.0955 82.603 37.3752C83.0263 37.2487 83.6864 37.468 83.8762 36.9984C83.8597 36.6379 84.5179 36.2165 83.97 35.9649C81.5369 35.6352 79.9206 38.5659 77.4258 37.2333L77.2386 36.8565C77.7577 29.775 81.7567 22.9286 88.3927 19.5595C91.0803 18.0256 94.4193 17.2437 97.7865 17.2159C101.85 17.1823 105.956 18.2468 109.011 20.4063C111.977 22.2235 114.815 25.2182 116.355 28.2583C117.827 30.9219 118.505 33.9107 118.708 37.0926C116.134 39.0347 114.407 35.2629 111.787 36.107C111.928 36.5152 112.006 36.9375 112.305 37.2822C114.628 37.2659 116.228 39.6948 118.659 38.7375L118.661 39.0915ZM89.0979 30.37C87.4659 29.3041 85.3969 30.3077 83.8759 30.8882C83.7347 29.4616 83.1546 28.1619 81.9451 27.2219C81.8278 27.1636 81.6656 27.0409 81.5194 27.0319C81.432 27.0264 81.3488 27.0616 81.2842 27.1733C81.8324 30.5415 79.64 32.8919 78.0863 35.447C78.6036 35.8693 79.4348 35.8062 80.0622 35.6821C81.7093 35.0243 83.2782 33.8794 85.2393 34.2718C85.8193 33.2847 86.7937 32.3286 87.5927 31.5451C88.0808 31.1233 88.7515 30.8554 89.0979 30.37ZM94.0881 32.4854C94.0568 32.6882 94.1037 33.0498 94.4169 32.91C94.904 32.2363 95.7665 32.7693 96.2996 32.8168V32.6272C96.0071 32.1684 95.4053 31.938 94.7941 31.9609C94.6531 31.9659 94.5098 31.9864 94.3719 32.0184C94.1674 32.0638 94.025 32.2507 94.0881 32.4854ZM101.76 30.4668C101.322 29.495 100.318 29.1017 99.4065 28.8668C98.9598 28.8118 98.4963 28.7747 98.0365 28.7703C97.9503 28.7694 97.8643 28.7683 97.7785 28.7703C96.4924 28.7962 95.2635 29.126 94.5128 30.1832C94.405 30.4817 93.9313 30.9009 94.3712 31.1684C95.3597 31.1053 96.4877 30.9814 97.1467 31.8287C97.1467 32.5816 97.6334 33.5832 96.8179 33.9436C96.1422 33.3188 95.3419 34.2096 94.6067 33.7081C94.261 33.5042 94.0423 33.7422 93.9007 34.0398C93.6963 35.9824 94.7147 38.1262 96.5344 39.207C97.2719 39.4726 98.2633 39.7253 99.0329 39.3484C100.884 38.4875 101.651 36.5144 101.996 34.6965C101.949 34.3506 101.966 33.6764 101.48 33.6601C100.931 34.0067 100.131 33.8019 99.5491 33.6601C99.2053 33.7709 99.1895 34.2734 98.7981 34.3686L98.5596 34.1786C98.3554 33.3181 98.2294 32.0955 99.0304 31.5001C99.9254 31.1396 100.977 30.9821 101.902 31.265C102.075 30.9675 101.808 30.7333 101.76 30.4668ZM100.815 32.0118C100.753 32.0133 100.693 32.0164 100.632 32.0184C100.303 32.2374 99.3447 32.08 99.6906 32.8168C100.287 32.3455 101.119 32.6758 101.715 32.91C101.935 32.8007 101.888 32.5813 101.902 32.3921C101.711 32.0364 101.253 32.0031 100.815 32.0118ZM107.647 25.3868C106.485 25.3252 105.513 25.9836 104.446 26.2815C104.353 25.3747 105.043 24.417 105.2 23.5067C103.475 23.6175 102.108 24.6546 100.681 25.4831C100.35 24.686 100.019 23.8849 99.6911 23.0848L101.574 21.298L101.622 21.0627L99.079 20.9213C98.641 20.1547 98.4683 19.2314 97.9506 18.5263C97.5269 19.3254 97.2423 20.1711 96.819 20.9694L94.2789 21.1113V21.298L96.2068 23.0365C95.9711 23.9301 95.7521 24.901 95.1721 25.5764C94.0425 24.9007 92.929 24.1653 91.6906 23.6961C91.3926 23.6 90.9678 23.4438 90.7011 23.6479C91.0927 24.51 91.6412 25.4372 91.549 26.3781C91.0309 26.2829 90.6238 25.9512 90.137 25.8118C89.555 25.6532 88.8643 25.3433 88.2996 25.5317C89.2412 26.8472 90.0097 28.2239 90.2755 29.807C93.3991 28.3014 97.0419 27.4733 100.823 28.1167C102.596 28.3984 104.225 29.1195 105.81 29.7135C105.872 28.0535 106.923 26.7196 107.647 25.3868ZM113.011 34.4134C114.61 34.8361 116.214 36.5761 117.907 35.4471C116.432 33.0031 114.237 30.7462 114.848 27.5502C114.912 27.332 114.771 27.1112 114.567 27.0802C113.611 27.4706 112.87 28.412 112.491 29.3372C112.336 29.8845 112.243 30.4662 112.024 30.982C110.878 30.3863 109.655 29.8092 108.259 29.9487C107.755 30.0114 107.033 30.0443 106.941 30.5606C108.525 31.4063 109.828 32.8176 110.799 34.3206C111.475 34.2104 112.304 34.3045 113.011 34.4134ZM96.2543 36.6221L96.2994 36.9054C96.9125 37.3133 97.1011 38.0046 97.9499 37.9418C98.7026 37.9865 99.2673 37.2822 99.6423 36.7185C98.6237 36.5781 97.3843 36.7954 96.2543 36.6221ZM97.1019 35.3537C97.1325 35.4792 97.0242 35.6673 97.1953 35.7307C97.6974 35.6218 98.607 35.9974 98.8874 35.4021C98.6916 35.183 98.372 35.0836 98.0366 35.0836C97.7014 35.0836 97.3534 35.1812 97.1019 35.3537Z" fill="url(#paint2_linear_256_1199)"/>
<path d="M4.384 101.936C2.752 101.936 1.29066 101.675 0 101.152V97.424H0.256C0.832 98.7573 1.49333 99.808 2.24 100.576C2.98666 101.333 3.76 101.712 4.56 101.712C5.02933 101.712 5.42933 101.573 5.76 101.296C6.10132 101.019 6.27202 100.592 6.27202 100.016C6.27202 99.536 6.14932 99.1307 5.90402 98.8C5.65866 98.4587 5.35466 98.1813 4.992 97.968C4.62933 97.744 4.128 97.488 3.488 97.2C2.73066 96.848 2.12266 96.528 1.664 96.24C1.20533 95.952 0.81066 95.5573 0.48 95.056C0.16 94.544 0 93.9093 0 93.152C0 92.032 0.35733 91.1573 1.072 90.528C1.78666 89.888 2.88 89.568 4.352 89.568C5.81333 89.568 7.11462 89.824 8.25602 90.336L7.93602 93.056H7.68002C7.16802 91.9467 6.58662 91.136 5.93602 90.624C5.28533 90.112 4.608 89.856 3.904 89.856C3.392 89.856 2.97066 89.9893 2.64 90.256C2.32 90.512 2.16 90.896 2.16 91.408C2.16 91.792 2.27733 92.1227 2.512 92.4C2.75733 92.6667 3.06133 92.8907 3.424 93.072C3.78666 93.2427 4.27733 93.4453 4.896 93.68C5.73866 94 6.41602 94.304 6.92802 94.592C7.45062 94.8693 7.89862 95.2693 8.27202 95.792C8.64532 96.304 8.83202 96.96 8.83202 97.76C8.83202 99.072 8.43202 100.096 7.63202 100.832C6.83202 101.568 5.74933 101.936 4.384 101.936ZM15.7094 100.368C15.6027 100.56 15.4054 100.779 15.1174 101.024C14.84 101.269 14.4987 101.483 14.0934 101.664C13.6987 101.845 13.2774 101.936 12.8294 101.936C11.9974 101.936 11.3734 101.776 10.9574 101.456C10.552 101.125 10.3494 100.549 10.3494 99.728V92.72H9.10132V92.48H10.3494V90.608L13.7254 89.776V92.48H15.2774V92.72H13.7254V99.856C13.7254 100.304 13.9867 100.528 14.5094 100.528C14.904 100.528 15.256 100.421 15.5654 100.208L15.7094 100.368ZM26.3552 99.856C26.1099 100.624 25.7366 101.168 25.2352 101.488C24.7446 101.797 24.1952 101.952 23.5872 101.952C23.0326 101.952 22.5632 101.829 22.1792 101.584C21.8059 101.339 21.5712 100.971 21.4752 100.48C20.6219 101.461 19.6192 101.952 18.4672 101.952C17.7632 101.952 17.1766 101.771 16.7072 101.408C16.2379 101.035 16.0032 100.443 16.0032 99.632C16.0032 99.0027 16.1792 98.4907 16.5312 98.096C16.8939 97.6907 17.4486 97.3547 18.1952 97.088C18.9526 96.8107 20.0299 96.528 21.4272 96.24V93.328C21.4272 92.8587 21.2619 92.624 20.9312 92.624C20.7499 92.624 20.5899 92.6933 20.4512 92.832C20.3232 92.96 20.2006 93.1467 20.0832 93.392L19.8432 93.968C19.6726 94.384 19.5126 94.7253 19.3632 94.992C19.2246 95.2587 19.0219 95.488 18.7552 95.68C18.4992 95.872 18.1792 95.968 17.7952 95.968C17.3686 95.968 17.0112 95.8507 16.7232 95.616C16.4459 95.3813 16.3072 95.072 16.3072 94.688C16.3072 94.1653 16.5632 93.7227 17.0752 93.36C17.5872 92.9867 18.2326 92.7147 19.0112 92.544C19.7899 92.3627 20.5739 92.272 21.3632 92.272C22.3126 92.272 23.1232 92.4587 23.7952 92.832C24.4672 93.2053 24.8032 93.9467 24.8032 95.056V99.36C24.8032 99.8293 25.0059 100.064 25.4112 100.064C25.5712 100.064 25.7152 100.037 25.8432 99.984C25.9712 99.92 26.1046 99.84 26.2432 99.744L26.3552 99.856ZM20.6752 100.48C20.9632 100.48 21.2192 100.395 21.4432 100.224C21.4326 100.171 21.4272 100.091 21.4272 99.984V96.496C20.7552 96.688 20.2966 96.992 20.0512 97.408C19.8059 97.8133 19.6832 98.3093 19.6832 98.896C19.6832 99.4613 19.7686 99.8667 19.9392 100.112C20.1099 100.357 20.3552 100.48 20.6752 100.48ZM33.3162 92.272C33.7962 92.272 34.1696 92.416 34.4362 92.704C34.7136 92.9813 34.8522 93.3547 34.8522 93.824C34.8522 94.304 34.7242 94.704 34.4682 95.024C34.2122 95.344 33.8442 95.504 33.3642 95.504C33.0869 95.504 32.8522 95.4667 32.6602 95.392C32.4789 95.3173 32.2976 95.216 32.1162 95.088C32.0202 95.024 31.9242 94.9707 31.8282 94.928C31.7429 94.8747 31.6522 94.848 31.5562 94.848C31.3429 94.848 31.1776 94.9547 31.0602 95.168C30.9429 95.3707 30.8842 95.6693 30.8842 96.064V100.016C30.8842 100.539 30.9856 100.917 31.1882 101.152C31.3909 101.376 31.7269 101.493 32.1962 101.504V101.76H26.4522V101.504C26.7722 101.504 27.0282 101.387 27.2202 101.152C27.4122 100.907 27.5082 100.469 27.5082 99.84V95.312C27.5082 94.8213 27.4282 94.432 27.2682 94.144C27.1189 93.856 26.8416 93.6373 26.4362 93.488V93.248L30.7082 92.32L30.8842 92.384V94.992C30.9802 94.2133 31.2362 93.568 31.6522 93.056C32.0789 92.5333 32.6336 92.272 33.3162 92.272ZM41.846 92.288C43.126 92.288 44.054 92.688 44.63 93.488C45.2166 94.2773 45.51 95.2693 45.51 96.464C45.51 100.133 43.5686 101.968 39.686 101.968C39.206 101.968 38.5926 101.915 37.846 101.808C37.0993 101.701 36.4646 101.499 35.942 101.2V91.12C35.942 90.6293 35.862 90.24 35.702 89.952C35.5526 89.664 35.2753 89.4453 34.87 89.296V89.056L39.142 88.128L39.318 88.192V93.456C40.0433 92.6773 40.886 92.288 41.846 92.288ZM40.214 101.728C40.822 101.728 41.27 101.312 41.558 100.48C41.846 99.6373 41.99 98.3467 41.99 96.608C41.99 95.7013 41.846 94.96 41.558 94.384C41.27 93.7973 40.8806 93.504 40.39 93.504C40.1766 93.504 39.99 93.5307 39.83 93.584C39.67 93.6267 39.4993 93.712 39.318 93.84V100.912C39.5313 101.456 39.83 101.728 40.214 101.728ZM55.7889 98.88C55.7889 99.3813 55.8742 99.7493 56.0449 99.984C56.2262 100.219 56.5515 100.347 57.0209 100.368V100.608L52.5889 101.92L52.4129 101.856V100.288C51.8795 100.789 51.3729 101.195 50.8929 101.504C50.4235 101.803 49.8849 101.952 49.2769 101.952C48.4769 101.952 47.8795 101.707 47.4849 101.216C47.1009 100.725 46.9089 100.149 46.9089 99.488V95.152C46.9089 94.64 46.8449 94.2507 46.7169 93.984C46.5995 93.7173 46.3649 93.552 46.0129 93.488V93.248L50.1089 92.32L50.2849 92.384V98.96C50.2849 99.4933 50.3542 99.888 50.4929 100.144C50.6315 100.4 50.8715 100.528 51.2129 100.528C51.4369 100.528 51.6395 100.485 51.8209 100.4C52.0022 100.304 52.1995 100.16 52.4129 99.968V95.152C52.4129 94.64 52.3489 94.2507 52.2209 93.984C52.1035 93.7173 51.8689 93.552 51.5169 93.488V93.248L55.6129 92.32L55.7889 92.384V98.88ZM62.0037 101.952C61.0331 101.952 60.1957 101.76 59.4917 101.376C58.7984 100.981 58.2704 100.437 57.9077 99.744C57.5451 99.0507 57.3637 98.256 57.3637 97.36C57.3637 96.3147 57.5877 95.408 58.0357 94.64C58.4837 93.872 59.1024 93.2853 59.8917 92.88C60.6917 92.4747 61.5931 92.272 62.5957 92.272C63.3957 92.272 64.0624 92.4213 64.5957 92.72C65.1291 93.0187 65.3957 93.4827 65.3957 94.112C65.3957 94.5813 65.2411 94.9333 64.9317 95.168C64.6331 95.4027 64.2384 95.52 63.7477 95.52C63.3744 95.52 63.0757 95.4347 62.8517 95.264C62.6384 95.0827 62.4784 94.8693 62.3717 94.624C62.2651 94.3787 62.1637 94.0693 62.0677 93.696C61.9611 93.3227 61.8651 93.056 61.7797 92.896C61.6944 92.7253 61.5611 92.64 61.3797 92.64C61.0704 92.64 60.8197 92.8747 60.6277 93.344C60.4357 93.8133 60.3397 94.3787 60.3397 95.04C60.3397 96.3947 60.6011 97.472 61.1237 98.272C61.6571 99.072 62.4624 99.472 63.5397 99.472C63.9771 99.472 64.3504 99.3973 64.6597 99.248C64.9691 99.0987 65.2784 98.8853 65.5877 98.608L65.8277 98.704C65.5291 99.7707 65.0437 100.581 64.3717 101.136C63.7104 101.68 62.9211 101.952 62.0037 101.952ZM77.1206 101.76H73.0886C72.8006 101.355 72.5606 100.912 72.3686 100.432C72.1766 99.9413 71.9419 99.2 71.6646 98.208C71.5153 97.7067 71.3286 97.36 71.1046 97.168C70.8913 96.976 70.6459 96.8693 70.3686 96.848V99.84C70.3686 100.491 70.4273 100.933 70.5446 101.168C70.6619 101.392 70.8539 101.504 71.1206 101.504V101.76H65.9206V101.504C66.2726 101.504 66.5393 101.387 66.7206 101.152C66.9019 100.917 66.9926 100.48 66.9926 99.84V91.12C66.9926 90.6293 66.9126 90.24 66.7526 89.952C66.6033 89.664 66.3259 89.4453 65.9206 89.296V89.056L70.1926 88.128L70.3686 88.192V96.512L71.6806 95.36C72.0539 95.0187 72.3579 94.656 72.5926 94.272C72.8379 93.888 72.9606 93.5573 72.9606 93.28C72.9606 93.12 72.9126 92.992 72.8166 92.896C72.7206 92.7893 72.5819 92.7307 72.4006 92.72V92.48H76.5766V92.72C74.9553 93.328 73.4406 94.2507 72.0326 95.488L70.8326 96.544C71.1953 96.4373 71.5206 96.384 71.8086 96.384C72.4379 96.384 72.9606 96.4427 73.3766 96.56C73.7926 96.6773 74.1553 96.8907 74.4646 97.2C74.7846 97.5093 75.0619 97.9573 75.2966 98.544L76.0006 100.304C76.1819 100.763 76.3526 101.072 76.5126 101.232C76.6726 101.381 76.8699 101.472 77.1046 101.504L77.1206 101.76ZM81.0166 101.952C80.2379 101.952 79.5606 101.899 78.9846 101.792C78.4086 101.685 77.8699 101.52 77.3686 101.296L77.3526 98.368L77.5606 98.336C77.7739 98.912 78.0886 99.4613 78.5046 99.984C78.9206 100.496 79.3686 100.912 79.8486 101.232C80.3393 101.552 80.7819 101.712 81.1766 101.712C81.5606 101.712 81.8539 101.627 82.0566 101.456C82.2699 101.275 82.3766 101.013 82.3766 100.672C82.3766 100.373 82.2806 100.112 82.0886 99.888C81.9073 99.6533 81.6779 99.4507 81.4006 99.28C81.1233 99.1093 80.7286 98.8907 80.2166 98.624C79.5873 98.304 79.0699 98.0107 78.6646 97.744C78.2593 97.4667 77.9126 97.1253 77.6246 96.72C77.3473 96.304 77.2086 95.8133 77.2086 95.248C77.2086 94.6827 77.3526 94.176 77.6406 93.728C77.9393 93.28 78.3659 92.928 78.9206 92.672C79.4859 92.4053 80.1526 92.272 80.9206 92.272C82.3073 92.272 83.4219 92.464 84.2646 92.848L83.9606 95.104L83.8006 95.12C83.1926 94.32 82.6166 93.6853 82.0726 93.216C81.5286 92.7467 80.9953 92.512 80.4726 92.512C80.1419 92.512 79.8753 92.5973 79.6726 92.768C79.4806 92.928 79.3846 93.1307 79.3846 93.376C79.3846 93.7387 79.5499 94.0373 79.8806 94.272C80.2113 94.496 80.7339 94.7627 81.4486 95.072C82.1419 95.3707 82.7073 95.6533 83.1446 95.92C83.5926 96.176 83.9713 96.5227 84.2806 96.96C84.6006 97.3867 84.7606 97.9147 84.7606 98.544C84.7606 99.6 84.4193 100.432 83.7366 101.04C83.0539 101.648 82.1473 101.952 81.0166 101.952ZM94.3206 101.936C93.1046 101.936 92.0486 101.669 91.1526 101.136C90.2566 100.603 89.5686 99.8667 89.0886 98.928C88.6086 97.9893 88.3686 96.928 88.3686 95.744C88.3686 94.56 88.6086 93.4987 89.0886 92.56C89.5686 91.6213 90.2566 90.8907 91.1526 90.368C92.0486 89.8347 93.1046 89.568 94.3206 89.568C95.9211 89.6 97.2111 89.7707 98.1931 90.08L97.9371 93.904L97.6331 93.92C97.2491 92.5653 96.8011 91.552 96.2891 90.88C95.7873 90.208 95.2059 89.872 94.5446 89.872C93.8193 89.872 93.2593 90.3147 92.8646 91.2C92.4699 92.0853 92.2726 93.6 92.2726 95.744C92.2726 97.888 92.4699 99.408 92.8646 100.304C93.2593 101.189 93.8193 101.632 94.5446 101.632C95.2059 101.632 95.8033 101.253 96.3371 100.496C96.8701 99.728 97.3021 98.6507 97.6331 97.264L97.9371 97.28L98.1931 101.424C97.2111 101.733 95.9211 101.904 94.3206 101.936ZM104.151 101.952C103.169 101.952 102.305 101.744 101.559 101.328C100.823 100.912 100.252 100.336 99.8471 99.6C99.4411 98.864 99.2391 98.0373 99.2391 97.12C99.2391 96.2027 99.4411 95.376 99.8471 94.64C100.252 93.904 100.823 93.328 101.559 92.912C102.305 92.4853 103.169 92.272 104.151 92.272C105.143 92.272 106.012 92.4853 106.759 92.912C107.505 93.328 108.076 93.904 108.471 94.64C108.876 95.3653 109.079 96.192 109.079 97.12C109.079 98.048 108.876 98.88 108.471 99.616C108.076 100.341 107.505 100.912 106.759 101.328C106.012 101.744 105.143 101.952 104.151 101.952ZM104.167 101.696C104.529 101.696 104.801 101.547 104.983 101.248C105.175 100.939 105.308 100.464 105.383 99.824C105.457 99.1733 105.495 98.272 105.495 97.12C105.495 95.968 105.457 95.0667 105.383 94.416C105.308 93.7653 105.175 93.2853 104.983 92.976C104.791 92.6667 104.508 92.512 104.135 92.512C103.761 92.512 103.479 92.6613 103.287 92.96C103.105 93.2587 102.977 93.7333 102.903 94.384C102.839 95.024 102.807 95.936 102.807 97.12C102.807 98.272 102.844 99.1733 102.919 99.824C102.993 100.475 103.127 100.949 103.319 101.248C103.521 101.547 103.804 101.696 104.167 101.696ZM115.783 88C117.362 88 118.151 88.5333 118.151 89.6C118.151 89.92 118.039 90.208 117.815 90.464C117.602 90.7093 117.277 90.832 116.839 90.832C116.381 90.832 116.029 90.704 115.783 90.448C115.538 90.1813 115.303 89.8187 115.079 89.36C114.93 89.0613 114.807 88.848 114.711 88.72C114.615 88.592 114.493 88.528 114.343 88.528C114.045 88.528 113.895 88.768 113.895 89.248V92.48H115.575V92.72H113.895V100.096C113.895 101.035 114.343 101.504 115.239 101.504V101.76H109.319V101.504C109.661 101.504 109.943 101.397 110.167 101.184C110.402 100.971 110.519 100.608 110.519 100.096V92.72H109.511V92.48H110.519C110.551 91.456 110.829 90.608 111.351 89.936C111.874 89.264 112.53 88.7733 113.319 88.464C114.119 88.1547 114.941 88 115.783 88ZM121.768 88C123.346 88 124.136 88.5333 124.136 89.6C124.136 89.92 124.024 90.208 123.8 90.464C123.586 90.7093 123.261 90.832 122.824 90.832C122.365 90.832 122.013 90.704 121.768 90.448C121.522 90.1813 121.288 89.8187 121.064 89.36C120.914 89.0613 120.792 88.848 120.696 88.72C120.6 88.592 120.477 88.528 120.328 88.528C120.029 88.528 119.88 88.768 119.88 89.248V92.48H121.56V92.72H119.88V100.096C119.88 101.035 120.328 101.504 121.224 101.504V101.76H115.304V101.504C115.645 101.504 115.928 101.397 116.152 101.184C116.386 100.971 116.504 100.608 116.504 100.096V92.72H115.496V92.48H116.504C116.536 91.456 116.813 90.608 117.336 89.936C117.858 89.264 118.514 88.7733 119.304 88.464C120.104 88.1547 120.925 88 121.768 88ZM130.076 98.624C130.044 98.72 129.91 99.088 129.676 99.728C129.441 100.357 129.02 100.885 128.412 101.312C127.804 101.739 127.052 101.952 126.156 101.952C125.302 101.952 124.534 101.771 123.852 101.408C123.18 101.045 122.652 100.517 122.268 99.824C121.884 99.12 121.692 98.2773 121.692 97.296C121.692 96.3893 121.862 95.5573 122.204 94.8C122.545 94.032 123.068 93.4187 123.772 92.96C124.486 92.5013 125.377 92.272 126.444 92.272C127.713 92.272 128.614 92.608 129.148 93.28C129.692 93.9413 129.964 94.8853 129.964 96.112L129.948 96.432H124.652C124.876 98.4373 125.9 99.44 127.724 99.44C128.214 99.44 128.63 99.3653 128.972 99.216C129.324 99.0667 129.644 98.8427 129.932 98.544L130.076 98.624ZM125.996 92.544C125.068 92.544 124.604 93.5307 124.604 95.504C124.604 95.792 124.609 96 124.62 96.128H127.212C127.212 95.264 127.174 94.576 127.1 94.064C127.036 93.552 126.913 93.1733 126.732 92.928C126.561 92.672 126.316 92.544 125.996 92.544ZM139.263 98.624C139.231 98.72 139.098 99.088 138.863 99.728C138.629 100.357 138.207 100.885 137.599 101.312C136.991 101.739 136.239 101.952 135.343 101.952C134.49 101.952 133.722 101.771 133.039 101.408C132.367 101.045 131.839 100.517 131.455 99.824C131.071 99.12 130.879 98.2773 130.879 97.296C130.879 96.3893 131.05 95.5573 131.391 94.8C131.733 94.032 132.255 93.4187 132.959 92.96C133.674 92.5013 134.565 92.272 135.631 92.272C136.901 92.272 137.802 92.608 138.335 93.28C138.879 93.9413 139.151 94.8853 139.151 96.112L139.135 96.432H133.839C134.063 98.4373 135.087 99.44 136.911 99.44C137.402 99.44 137.818 99.3653 138.159 99.216C138.511 99.0667 138.831 98.8427 139.119 98.544L139.263 98.624ZM135.183 92.544C134.255 92.544 133.791 93.5307 133.791 95.504C133.791 95.792 133.797 96 133.807 96.128H136.399C136.399 95.264 136.362 94.576 136.287 94.064C136.223 93.552 136.101 93.1733 135.919 92.928C135.749 92.672 135.503 92.544 135.183 92.544ZM150.002 97.696V99.76C150.002 100.389 150.157 100.837 150.466 101.104C150.786 101.371 151.186 101.504 151.666 101.504V101.76H144.978V101.504C145.458 101.504 145.853 101.371 146.162 101.104C146.471 100.837 146.626 100.389 146.626 99.76V90.352C146.626 90.128 146.541 90.016 146.37 90.016H146.322C145.81 90.016 145.293 90.448 144.77 91.312C144.247 92.176 143.751 93.424 143.282 95.056H143.09L143.154 89.76H153.554L153.618 95.056H153.346C152.877 93.4133 152.381 92.1653 151.858 91.312C151.346 90.448 150.834 90.016 150.322 90.016H150.274C150.103 90.016 150.018 90.128 150.018 90.352V97.696H150.002ZM158.713 101.952C157.732 101.952 156.868 101.744 156.121 101.328C155.385 100.912 154.814 100.336 154.409 99.6C154.004 98.864 153.801 98.0373 153.801 97.12C153.801 96.2027 154.004 95.376 154.409 94.64C154.814 93.904 155.385 93.328 156.121 92.912C156.868 92.4853 157.732 92.272 158.713 92.272C159.705 92.272 160.574 92.4853 161.321 92.912C162.068 93.328 162.638 93.904 163.033 94.64C163.438 95.3653 163.641 96.192 163.641 97.12C163.641 98.048 163.438 98.88 163.033 99.616C162.638 100.341 162.068 100.912 161.321 101.328C160.574 101.744 159.705 101.952 158.713 101.952ZM158.729 101.696C159.092 101.696 159.364 101.547 159.545 101.248C159.737 100.939 159.87 100.464 159.945 99.824C160.02 99.1733 160.057 98.272 160.057 97.12C160.057 95.968 160.02 95.0667 159.945 94.416C159.87 93.7653 159.737 93.2853 159.545 92.976C159.353 92.6667 159.07 92.512 158.697 92.512C158.324 92.512 158.041 92.6613 157.849 92.96C157.668 93.2587 157.54 93.7333 157.465 94.384C157.401 95.024 157.369 95.936 157.369 97.12C157.369 98.272 157.406 99.1733 157.481 99.824C157.556 100.475 157.689 100.949 157.881 101.248C158.084 101.547 158.366 101.696 158.729 101.696ZM175.324 101.76H171.292C171.004 101.355 170.764 100.912 170.572 100.432C170.38 99.9413 170.145 99.2 169.868 98.208C169.718 97.7067 169.532 97.36 169.308 97.168C169.094 96.976 168.849 96.8693 168.572 96.848V99.84C168.572 100.491 168.63 100.933 168.748 101.168C168.865 101.392 169.057 101.504 169.324 101.504V101.76H164.124V101.504C164.476 101.504 164.742 101.387 164.924 101.152C165.105 100.917 165.196 100.48 165.196 99.84V91.12C165.196 90.6293 165.116 90.24 164.956 89.952C164.806 89.664 164.529 89.4453 164.124 89.296V89.056L168.396 88.128L168.572 88.192V96.512L169.884 95.36C170.257 95.0187 170.561 94.656 170.796 94.272C171.041 93.888 171.164 93.5573 171.164 93.28C171.164 93.12 171.116 92.992 171.02 92.896C170.924 92.7893 170.785 92.7307 170.604 92.72V92.48H174.78V92.72C173.158 93.328 171.644 94.2507 170.236 95.488L169.036 96.544C169.398 96.4373 169.724 96.384 170.012 96.384C170.641 96.384 171.164 96.4427 171.58 96.56C171.996 96.6773 172.358 96.8907 172.668 97.2C172.988 97.5093 173.265 97.9573 173.5 98.544L174.204 100.304C174.385 100.763 174.556 101.072 174.716 101.232C174.876 101.381 175.073 101.472 175.308 101.504L175.324 101.76ZM183.67 98.624C183.638 98.72 183.504 99.088 183.27 99.728C183.035 100.357 182.614 100.885 182.006 101.312C181.398 101.739 180.646 101.952 179.75 101.952C178.896 101.952 178.128 101.771 177.446 101.408C176.774 101.045 176.246 100.517 175.862 99.824C175.478 99.12 175.286 98.2773 175.286 97.296C175.286 96.3893 175.456 95.5573 175.798 94.8C176.139 94.032 176.662 93.4187 177.366 92.96C178.08 92.5013 178.971 92.272 180.038 92.272C181.307 92.272 182.208 92.608 182.742 93.28C183.286 93.9413 183.558 94.8853 183.558 96.112L183.542 96.432H178.246C178.47 98.4373 179.494 99.44 181.318 99.44C181.808 99.44 182.224 99.3653 182.566 99.216C182.918 99.0667 183.238 98.8427 183.526 98.544L183.67 98.624ZM179.589 92.544C178.662 92.544 178.198 93.5307 178.198 95.504C178.198 95.792 178.203 96 178.214 96.128H180.806C180.806 95.264 180.768 94.576 180.694 94.064C180.63 93.552 180.507 93.1733 180.326 92.928C180.155 92.672 179.91 92.544 179.589 92.544ZM194.329 99.84C194.329 100.469 194.425 100.907 194.617 101.152C194.809 101.387 195.06 101.504 195.369 101.504V101.76H190.281V101.504C190.729 101.504 190.953 101.061 190.953 100.176V95.28C190.953 94.7467 190.884 94.352 190.745 94.096C190.606 93.84 190.366 93.712 190.025 93.712C189.78 93.712 189.561 93.7653 189.369 93.872C189.188 93.9787 188.958 94.1493 188.681 94.384V100.176C188.681 101.061 188.91 101.504 189.369 101.504V101.76H184.249V101.504C184.569 101.504 184.825 101.387 185.017 101.152C185.209 100.907 185.305 100.469 185.305 99.84V95.312C185.305 94.8213 185.225 94.432 185.065 94.144C184.916 93.856 184.638 93.6373 184.233 93.488V93.248L188.505 92.32L188.681 92.384V94.096C189.097 93.6907 189.433 93.3813 189.689 93.168C189.956 92.9547 190.286 92.752 190.681 92.56C191.076 92.368 191.502 92.272 191.961 92.272C192.761 92.272 193.353 92.5227 193.737 93.024C194.132 93.5147 194.329 94.0907 194.329 94.752V99.84Z" fill="#BBFBDB"/>
<defs>
<linearGradient id="paint0_linear_256_1199" x1="97.9799" y1="0.973198" x2="97.9799" y2="75.067" gradientUnits="userSpaceOnUse">
<stop stop-color="#00FFA3"/>
<stop offset="1" stop-color="white"/>
</linearGradient>
<linearGradient id="paint1_linear_256_1199" x1="97.8629" y1="35.0294" x2="97.8629" y2="35.7297" gradientUnits="userSpaceOnUse">
<stop stop-color="#2CFFA8"/>
<stop offset="1" stop-color="white"/>
</linearGradient>
<linearGradient id="paint2_linear_256_1199" x1="97.9731" y1="17.2151" x2="97.9731" y2="58.6241" gradientUnits="userSpaceOnUse">
<stop stop-color="#2CFFA8"/>
<stop offset="1" stop-color="white"/>
</linearGradient>
</defs>
</svg>
