<svg width="161" height="31" viewBox="0 0 161 31" fill="none" xmlns="http://www.w3.org/2000/svg">
<g clip-path="url(#clip0_264_355)">
<path d="M4.49912 31C9.35112 31 12.9975 26.8686 15.1734 23.6039C14.9088 24.3261 14.7618 25.0484 14.7618 25.7419C14.7618 27.6487 15.8792 29.0066 18.0847 29.0066C21.1135 29.0066 24.3482 26.4063 26.0243 23.6039C25.9067 24.0084 25.8479 24.384 25.8479 24.7307C25.8479 26.0597 26.6125 26.8975 28.1709 26.8975C33.0818 26.8975 38.022 18.3747 38.022 10.9208C38.022 5.1137 35.0225 0 27.4947 0C14.2619 0 0 15.8323 0 26.0597C0 30.0755 2.20545 31 4.49912 31ZM22.9366 10.2852C22.9366 8.84063 23.76 7.82945 24.9657 7.82945C26.1419 7.82945 26.9653 8.84063 26.9653 10.2852C26.9653 11.7297 26.1419 12.7698 24.9657 12.7698C23.76 12.7698 22.9366 11.7297 22.9366 10.2852ZM29.2296 10.2852C29.2296 8.84063 30.053 7.82945 31.2586 7.82945C32.4348 7.82945 33.2582 8.84063 33.2582 10.2852C33.2582 11.7297 32.4348 12.7698 31.2586 12.7698C30.053 12.7698 29.2296 11.7297 29.2296 10.2852Z" fill="#AB9FF2"/>
<path d="M43.9023 27.8509H48.3132V23.6039C48.3132 21.6105 48.1368 20.8593 47.1076 18.8369L47.6663 18.548C49.166 21.9861 51.2833 23.2283 53.4593 23.2283C56.9586 23.2283 59.7521 20.2236 59.7521 15.5722C59.7521 11.123 57.1938 7.85834 53.5181 7.85834C51.3421 7.85834 49.166 9.07177 47.6663 12.5387L47.1076 12.2498C47.8134 10.863 48.3132 9.56291 48.3132 8.3206H43.9023V27.8509ZM48.3132 15.5433C48.3132 13.6365 49.7836 11.5275 51.9595 11.5275C53.7239 11.5275 55.1649 12.9432 55.1649 15.5144C55.1649 18.0568 53.7827 19.5592 51.9302 19.5592C49.8718 19.5592 48.3132 17.5079 48.3132 15.5433Z" fill="#AB9FF2"/>
<path d="M61.3618 22.766H65.7727V17.6812C65.7727 14.0988 67.0666 11.5564 69.4778 11.5564C71.007 11.5564 71.4775 12.5676 71.4775 15.0811V22.766H75.8884V14.3877C75.8884 9.82293 74.2123 7.85833 71.007 7.85833C67.7135 7.85833 66.6255 10.0252 65.3611 12.6542L64.8023 12.3653C65.5669 10.7474 65.7727 9.76515 65.7727 8.32059V3.32246H61.3618V22.766Z" fill="#AB9FF2"/>
<path d="M82.3349 23.2283C85.1872 23.2283 86.8634 21.3793 88.1278 19.0102L88.6571 19.2702C88.0984 20.397 87.5692 21.6971 87.5692 22.766H91.8919V14.9077C91.8919 10.2274 89.8921 7.85834 85.2166 7.85834C80.6293 7.85834 78.365 10.1118 77.924 12.4809L82.1585 13.2032C82.3055 11.9609 83.3347 11.123 84.9814 11.123C86.6282 11.123 87.5692 11.932 87.5692 12.9143C87.5692 13.8966 86.5988 14.3588 84.0111 14.3877C80.1882 14.4454 77.3652 15.8034 77.3652 18.6924C77.3652 21.0615 79.2766 23.2283 82.3349 23.2283ZM81.7467 18.4035C81.7467 16.1211 85.4518 17.7101 87.481 15.9478V16.4678C87.481 18.519 85.6284 20.0214 83.7757 20.0214C82.8053 20.0214 81.7467 19.6169 81.7467 18.4035Z" fill="#AB9FF2"/>
<path d="M93.6396 22.766H98.0505V17.6812C98.0505 14.0988 99.3443 11.5564 101.756 11.5564C103.285 11.5564 103.755 12.5676 103.755 15.0811V22.766H108.166V14.3877C108.166 9.82293 106.49 7.85834 103.285 7.85834C99.9913 7.85834 98.9033 10.0252 97.6388 12.6542L97.0802 12.3653C97.8447 10.7474 98.0505 9.76516 98.0505 8.3206H93.6396V22.766Z" fill="#AB9FF2"/>
<path d="M119.915 22.8239V19.2413C118.974 19.5592 116.357 20.1081 116.357 17.9991V11.7875H119.886V8.32059H116.357V4.4492L111.917 5.74929V8.32059H109.27V11.7875H111.917L111.946 18.3458C111.946 23.1706 116.327 23.8639 119.915 22.8239Z" fill="#AB9FF2"/>
<path d="M128.875 23.2283C133.344 23.2283 136.755 19.877 136.755 15.5144C136.755 11.1808 133.344 7.85834 128.875 7.85834C124.405 7.85834 120.964 11.1808 120.964 15.5144C120.964 19.877 124.405 23.2283 128.875 23.2283ZM125.522 15.5433C125.522 13.1454 126.904 11.4697 128.875 11.4697C130.845 11.4697 132.197 13.1454 132.197 15.5433C132.197 17.9413 130.845 19.6169 128.875 19.6169C126.904 19.6169 125.522 17.9413 125.522 15.5433Z" fill="#AB9FF2"/>
<path d="M138.122 22.766H142.532V17.6812C142.532 13.9543 143.738 11.5564 145.679 11.5564C146.944 11.5564 147.355 12.5387 147.355 15.0811V22.766H151.767V17.6812C151.767 14.1854 153.06 11.5564 154.913 11.5564C156.147 11.5564 156.588 12.6831 156.588 15.0811V22.766H161V14.3877C161 9.79404 159.47 7.85834 156.471 7.85834C153.354 7.85834 152.237 10.0252 151.149 12.6831L150.619 12.4231C151.649 9.38957 149.413 7.85834 147.208 7.85834C144.298 7.85834 143.239 10.0252 142.063 12.6542L141.533 12.3653C142.268 10.7474 142.532 9.76516 142.532 8.3206H138.122V22.766Z" fill="#AB9FF2"/>
</g>
<defs>
<clipPath id="clip0_264_355">
<rect width="161" height="31" fill="white"/>
</clipPath>
</defs>
</svg>
