<svg width="45" height="45" viewBox="0 0 45 45" fill="none" xmlns="http://www.w3.org/2000/svg">
<g clip-path="url(#clip0_88_101)">
<path d="M39.4424 23.1682C39.7199 24.358 40.8461 25.2707 42.1845 25.2707C43.7351 25.2707 45.0001 24.0075 45.0001 22.4592C45.0001 20.9108 43.7351 19.6477 42.1845 19.6477C40.8461 19.6477 39.7933 20.5604 39.4424 21.7502H36.2759C36.2025 20.8375 36.0637 19.9248 35.8515 19.0121H39.8586C40.283 19.0121 40.5605 18.735 40.5605 18.3112V14.4485C41.752 14.1714 42.666 13.0468 42.666 11.7104C42.666 10.162 41.401 8.89889 39.8504 8.89889C38.2998 8.89889 37.0512 10.1783 37.0512 11.7267C37.0512 13.0631 37.9652 14.1144 39.1568 14.4648V17.6267H35.4272C34.0235 13.9025 31.0692 10.9606 27.3396 9.55083V5.76144H30.5061C30.7835 6.95123 31.9097 7.86394 33.2482 7.86394C34.7988 7.86394 36.0637 6.60081 36.0637 5.05246C36.0637 3.50411 34.7988 2.24098 33.2482 2.24098C31.9097 2.24098 30.857 3.15369 30.5061 4.34348H26.6377C26.2133 4.34348 25.9359 4.62055 25.9359 5.04431V9.04558C25.0218 8.8337 24.1078 8.69516 23.1938 8.62182V5.53326C24.3853 5.25619 25.2993 4.1316 25.2993 2.79512C25.2993 1.24677 24.0343 -0.0163574 22.4837 -0.0163574C20.9331 -0.0163574 19.6682 1.24677 19.6682 2.79512C19.6682 4.1316 20.5822 5.18285 21.7737 5.53326V8.69516C20.8597 8.7685 19.9457 8.90704 19.0316 9.11892V5.04431C19.0316 4.62055 18.7541 4.34348 18.3298 4.34348H14.5349C14.2574 3.15369 13.1312 2.24098 11.7928 2.24098C10.2422 2.24098 8.97722 3.50411 8.97722 5.05246C8.97722 6.60081 10.2422 7.86394 11.7928 7.86394C13.1312 7.86394 14.184 6.95123 14.5349 5.76144H17.6279V9.48563C13.8983 10.8873 10.8787 13.9107 9.47504 17.6267H5.62303V14.4648C6.81454 14.1877 7.72858 13.0631 7.72858 11.7267C7.72858 10.1783 6.46362 8.91519 4.91302 8.91519C3.36242 8.91519 2.09746 10.1783 2.09746 11.7267C2.09746 13.0631 3.01149 14.1144 4.20301 14.4648V18.3275C4.20301 18.7513 4.48048 19.0284 4.90486 19.0284H9.05067C8.83848 19.9411 8.69974 20.7805 8.62629 21.7665H5.53326C5.25578 20.5767 4.12956 19.664 2.79115 19.664C1.24055 19.664 -0.0244141 20.9271 -0.0244141 22.4755C-0.0244141 24.0238 1.24055 25.287 2.79115 25.287C4.12956 25.287 5.18233 24.3743 5.53326 23.1845H8.65078C8.72423 24.1705 8.86296 25.0832 9.07515 25.9226H4.92934C4.50497 25.9226 4.22749 26.1997 4.22749 26.6234V30.4862C3.03598 30.7633 2.12194 31.8878 2.12194 33.2243C2.12194 34.7727 3.3869 36.0358 4.9375 36.0358C6.4881 36.0358 7.75306 34.7727 7.75306 33.2243C7.75306 31.8878 6.83902 30.8366 5.64751 30.4862V27.3243H9.51585C10.9195 31.0485 13.8738 34.0637 17.6687 35.4654V39.3281H14.5757C14.2982 38.1383 13.172 37.2256 11.8336 37.2256C10.283 37.2256 9.01802 38.4887 9.01802 40.0371C9.01802 41.5854 10.283 42.8485 11.8336 42.8485C13.172 42.8485 14.2248 41.9358 14.5757 40.746H18.3706C18.795 40.746 19.0724 40.469 19.0724 40.0452V35.9054C19.9865 36.1173 20.8271 36.2558 21.8145 36.3292V39.4911C20.623 39.7681 19.709 40.8927 19.709 42.2292C19.709 43.7776 20.974 45.0407 22.5245 45.0407C24.0751 45.0407 25.3401 43.7776 25.3401 42.2292C25.3401 40.8927 24.4261 39.8415 23.2346 39.4911V36.3292C24.222 36.2558 25.1361 36.1173 25.9767 35.9054V40.0452C25.9767 40.469 26.2541 40.746 26.6785 40.746H30.5469C30.8243 41.9358 31.9506 42.8485 33.289 42.8485C34.8396 42.8485 36.1045 41.5854 36.1045 40.0371C36.1045 38.4887 34.8396 37.2256 33.289 37.2256C31.9506 37.2256 30.8978 38.1383 30.5469 39.3281H27.3804V35.4002C31.11 33.9985 34.0561 31.0485 35.468 27.3243H39.1976V30.4862C38.0061 30.7633 37.092 31.8878 37.092 33.2243C37.092 34.7727 38.357 36.0358 39.9076 36.0358C41.4582 36.0358 42.7231 34.7727 42.7231 33.2243C42.7231 31.8878 41.8091 30.8366 40.6176 30.4862V26.6234C40.6176 26.1997 40.3401 25.9226 39.9157 25.9226H35.9087C36.1208 25.0099 36.2596 24.0972 36.333 23.1845L39.4424 23.1682ZM38.5284 11.7919C38.5284 11.0177 39.1649 10.3902 39.9321 10.3902C40.7074 10.3902 41.3358 11.0258 41.3358 11.7919C41.3358 12.5579 40.6992 13.1935 39.9321 13.1935C39.1649 13.2017 38.5284 12.566 38.5284 11.7919ZM33.1829 3.65079C33.9582 3.65079 34.5866 4.28643 34.5866 5.05246C34.5866 5.82663 33.95 6.45412 33.1829 6.45412C32.4157 6.45412 31.7792 5.81849 31.7792 5.05246C31.7792 4.28643 32.4157 3.65079 33.1829 3.65079ZM11.8091 6.46227C11.0338 6.46227 10.4054 5.82663 10.4054 5.06061C10.4054 4.28643 11.042 3.65894 11.8091 3.65894C12.5762 3.65894 13.221 4.28643 13.221 5.05246C13.221 5.82663 12.5844 6.46227 11.8091 6.46227ZM3.51748 11.7919C3.51748 11.0177 4.15404 10.3902 4.92118 10.3902C5.69648 10.3902 6.32488 11.0258 6.32488 11.7919C6.32488 12.5579 5.69648 13.2017 4.92118 13.2017C4.14588 13.2017 3.51748 12.566 3.51748 11.7919ZM6.32488 33.1347C6.32488 33.9089 5.68832 34.5363 4.92118 34.5363C4.14588 34.5363 3.51748 33.9007 3.51748 33.1347C3.51748 32.3687 4.15404 31.733 4.92118 31.733C5.69648 31.733 6.32488 32.3687 6.32488 33.1347ZM11.8091 41.4224C11.0338 41.4224 10.4054 40.7868 10.4054 40.0208C10.4054 39.2466 11.042 38.6191 11.8091 38.6191C12.5762 38.6191 13.2128 39.2547 13.2128 40.0208C13.221 40.7949 12.5844 41.4224 11.8091 41.4224ZM33.1829 38.611C33.9582 38.611 34.5866 39.2466 34.5866 40.0126C34.5866 40.7868 33.95 41.4143 33.1829 41.4143C32.4157 41.4143 31.7792 40.7786 31.7792 40.0126C31.7792 39.2466 32.4157 38.611 33.1829 38.611ZM41.3439 33.1347C41.3439 33.9089 40.7074 34.5363 39.9402 34.5363C39.1649 34.5363 38.5365 33.9007 38.5365 33.1347C38.5365 32.3687 39.1731 31.733 39.9402 31.733C40.7074 31.733 41.3439 32.3687 41.3439 33.1347ZM42.1845 21.0657C42.9598 21.0657 43.5882 21.7013 43.5882 22.4673C43.5882 23.2334 42.9516 23.869 42.1845 23.869C41.4092 23.869 40.7808 23.2334 40.7808 22.4673C40.7808 21.7013 41.4174 21.0657 42.1845 21.0657ZM21.0964 2.81142C21.0964 2.03725 21.7329 1.40976 22.5001 1.40976C23.2672 1.40976 23.9038 2.0454 23.9038 2.81142C23.9038 3.5856 23.2672 4.21309 22.5001 4.21309C21.7329 4.21309 21.0964 3.57745 21.0964 2.81142ZM2.81563 23.869C2.04033 23.869 1.41193 23.2334 1.41193 22.4673C1.41193 21.7013 2.04849 21.0657 2.81563 21.0657C3.59093 21.0657 4.21933 21.7013 4.21933 22.4673C4.21933 23.2334 3.58277 23.869 2.81563 23.869ZM23.9038 42.1233C23.9038 42.8974 23.2672 43.5249 22.5001 43.5249C21.7329 43.5249 21.0964 42.8893 21.0964 42.1233C21.0964 41.3491 21.7329 40.7216 22.5001 40.7216C23.2672 40.7216 23.9038 41.3491 23.9038 42.1233ZM22.5001 34.8949C15.6121 34.8949 10.0545 29.2801 10.0545 22.394C10.0545 15.7279 15.5387 9.96644 22.5001 9.96644C29.4614 9.96644 34.9457 15.6546 34.9457 22.394C34.9457 29.3453 29.3227 34.8949 22.5001 34.8949Z" fill="#046A38"/>
<path d="M21.8466 20.9334C22.1167 20.9972 22.1835 21.0928 22.397 21.1195C22.6239 21.1155 22.5911 21.0695 22.9869 20.9332C23.0129 20.924 23.0486 20.8668 23.0043 20.823C22.7586 20.5796 22.5887 20.7535 22.4347 20.7581C22.2303 20.7603 22.0386 20.5835 21.8389 20.8133C21.8049 20.86 21.7872 20.9058 21.8466 20.9334Z" fill="#046A38"/>
<path d="M22.412 14.2867C22.8611 14.5452 23.3374 14.8779 23.7001 15.2305L23.5576 15.3734C22.8421 15.2974 22.0884 15.3923 21.4101 15.4027C21.3345 15.3265 21.182 15.2119 21.324 15.1161L22.412 14.2867ZM35.0644 23.1638C35.0739 23.4864 35.1043 23.7634 34.9783 24.0935C33.671 24.4648 32.8123 23.0825 31.5439 23.291L31.6873 24.0075C32.8608 24.046 33.5938 25.1698 34.8061 25.1215C34.6339 25.4651 34.8829 26.3702 34.1199 26.0084C33.3278 25.8183 32.7551 25.1215 31.8872 25.1215C31.7825 25.3136 31.8488 25.5794 31.8304 25.8066C32.746 25.9501 33.4046 26.7229 34.32 26.8656C34.2338 27.1798 34.1485 27.5316 33.8907 27.7232C33.146 27.5422 32.5643 26.8743 31.7715 26.8934L31.6303 27.5513C32.3838 27.5707 32.8706 28.2364 33.5477 28.4362C33.5663 28.7137 33.3179 28.9617 33.1749 29.2094C32.5737 29.0291 32.1153 28.5134 31.4285 28.5514C31.419 28.293 31.5726 27.9995 31.5146 27.7232C30.7432 27.9523 30.226 27.2365 29.6542 26.8071C29.6378 25.4019 28.1566 24.4801 28.0784 23.1638C28.0634 22.9013 28.1034 22.6211 28.2231 22.3201C28.71 21.1959 28.557 19.7364 28.0232 18.6884C27.861 18.4126 27.5736 18.1948 27.3058 18.0327C27.6977 18.8621 28.1752 19.8421 27.9369 20.8615C27.9092 21.6488 27.4441 22.4049 27.4388 23.1638C27.437 23.4344 27.4948 23.7049 27.6507 23.9782C28.2713 25.0944 29.3878 26.1511 28.9679 27.551C28.8525 27.981 28.5087 28.3135 28.423 28.7512C29.149 29.3517 29.8355 30.0284 30.7988 30.0665C31.142 29.8475 30.9514 28.8766 31.6575 29.3244L32.6885 29.8395C32.6134 30.1151 32.3823 30.3622 32.173 30.552C31.7819 30.3618 31.4003 30.1339 30.9125 30.1525C30.7687 30.3049 30.6449 30.4759 30.6559 30.6946C30.9992 30.751 31.314 30.8957 31.6007 31.0961C31.4676 31.3825 31.2082 31.5619 30.9697 31.7812L30.1699 31.4956C30.0363 31.6865 29.759 31.887 29.8563 32.0964C30.0368 32.1736 30.2369 32.2779 30.3698 32.4116C30.0168 32.7927 29.5693 33.0379 29.1388 33.2965C28.7679 32.086 27.546 31.2372 27.6509 29.8373L27.5941 29.7806C27.3069 30.1031 27.4029 30.6189 27.4214 31.0374C27.7652 31.9142 28.5851 32.5915 28.7094 33.5531C28.5659 33.8005 28.2422 33.8499 27.9939 33.9546C28.0227 32.221 25.3896 30.9061 27.0782 29.1525C27.6413 28.2938 28.5848 27.4743 28.2505 26.2921C27.9073 25.1506 26.6932 24.4434 26.704 23.1638L26.7058 23.064C26.9824 21.7296 27.8224 20.3096 27.1352 18.8901C26.9437 18.3191 26.5158 17.6703 25.9338 17.4316C26.8015 18.4235 27.1455 20.0419 26.6491 21.3766C26.3989 21.9075 26.0545 22.5399 26.0199 23.164H26.0178C25.9994 23.4899 26.066 23.8141 26.2766 24.1214C26.9354 25.189 28.0797 26.3617 27.4215 27.753C26.6774 28.8674 25.3798 30.001 26.1045 31.4687C26.6292 32.3453 27.4409 33.2201 27.2219 34.2977L26.3632 34.5833C26.9357 32.5733 24.1303 31.3923 25.3047 29.3816C26.0297 28.3049 27.3265 27.2947 26.5925 25.8657C26.1536 24.9803 25.2468 24.4562 25.2754 23.3497L25.3067 23.1639C25.6021 21.5947 26.7966 20.1092 25.9614 18.4323C25.7419 17.9371 25.3033 17.4322 24.8165 17.1461L24.7871 17.1755C25.7608 18.1188 26.057 19.6709 25.532 20.9186C25.2871 21.6506 24.7495 22.3798 24.6402 23.1642C24.5883 23.5341 24.6321 23.9174 24.8461 24.3211C25.4662 25.3018 26.5536 26.3421 25.875 27.61C25.1604 28.6572 23.9674 29.6761 24.4439 31.038C24.9688 32.2295 26.0648 33.3645 25.473 34.8419L24.587 35.0417C25.2928 33.6019 24.2345 32.1733 23.6146 30.9246C22.8604 29.1331 25.2349 28.2753 25.2729 26.6374C25.2639 25.5802 24.1386 24.9799 23.9008 24.0081C23.4137 23.5977 22.9089 24.1713 22.3266 24.0648C21.8967 24.151 21.2365 23.4738 20.9799 24.2079C20.6743 25.2841 19.2821 26.0753 19.894 27.3517C20.4762 28.4861 21.8773 29.3155 21.4092 30.7835C20.9902 32.1547 19.6059 33.4602 20.4644 35.0417C20.1118 34.9276 19.4532 35.146 19.4627 34.5833C18.9191 32.6682 21.2372 31.5524 20.5212 29.6383C20.188 28.4658 18.6699 27.8181 19.0041 26.408C19.2512 25.2472 20.5554 24.4357 20.3725 23.1641C20.3577 23.0576 20.3314 22.9487 20.2939 22.8351C19.8071 21.463 18.8139 20.0905 19.4059 18.4891C19.5684 18.0317 19.8931 17.6411 20.1783 17.2323C19.2337 17.7372 18.7572 18.8047 18.7767 19.8907C18.7356 21.0717 19.6091 22.0834 19.7334 23.1641C19.7822 23.6003 19.7107 24.0469 19.4059 24.5206C18.7862 25.3604 17.9758 26.2458 18.3474 27.3515C18.7006 28.4669 20.0935 29.1425 20.0076 30.4389C19.9982 31.9724 18.214 32.9272 18.7197 34.6422L17.8317 34.3545C17.4791 32.8305 19.1007 32.0508 19.1194 30.6407C19.3489 29.0192 17.278 28.4175 17.4023 26.8368C17.3934 25.6359 18.4519 24.8753 18.9194 23.865C18.9996 23.6192 19.0263 23.3869 19.0156 23.1642C18.9583 22.0473 17.9505 21.174 18.1178 19.9182C18.174 18.994 18.4889 18.1839 19.0902 17.4888C18.2606 17.8216 17.9179 18.7754 17.6887 19.5759C17.291 20.8596 18.2403 22.0142 18.3355 23.1643C18.3777 23.6721 18.2535 24.1771 17.775 24.6933C17.0876 25.5022 16.3906 26.5229 16.8869 27.6101C17.4123 28.8097 19.0633 29.7435 18.3472 31.2397C17.9565 32.1832 17.0211 32.8974 17.0595 34.0119C16.8116 33.907 16.5545 33.8025 16.3439 33.6124C16.3439 32.193 18.3657 31.3063 17.4024 29.8104C17.3171 30.1055 17.2987 30.5067 17.2319 30.8401C16.8976 31.7076 16.1823 32.402 15.9146 33.2989C15.467 33.1263 14.999 32.7639 14.6266 32.3828L15.1424 32.0676C15.0851 31.8766 14.9327 31.7148 14.7994 31.5529C14.4645 31.5058 14.2446 31.7253 13.9685 31.8113C13.73 31.6013 13.4998 31.4106 13.3096 31.1534C13.4808 30.6664 14.8184 31.0691 14.1408 30.2685C13.6833 29.9828 13.2241 30.3909 12.8235 30.5814L12.2804 29.8963C12.7479 29.6107 13.2142 29.2096 13.7957 29.3246C13.9391 29.5824 13.949 29.9614 14.2251 30.0959C15.208 30.0768 15.9044 29.3344 16.6579 28.753C16.1327 27.9725 15.7052 26.8952 16.1717 25.9514C16.5455 25.0057 17.5194 24.2092 17.5636 23.1637C17.5735 22.9257 17.5364 22.6754 17.4322 22.4059C16.9172 21.0812 16.7355 19.291 17.7184 18.1185C17.1839 18.2619 16.8688 18.9271 16.6873 19.4322C16.0964 20.7257 16.8437 21.924 16.8695 23.1636C16.873 23.3866 16.8549 23.61 16.8008 23.8351C16.295 24.8546 15.4754 25.7491 15.3423 26.9222C14.7601 27.2931 14.2821 27.9417 13.4526 27.7229C13.4234 27.9418 13.4902 28.2755 13.5663 28.5235C12.9085 28.4959 12.4599 28.9801 11.906 29.2088C11.611 29.1143 11.5342 28.7333 11.42 28.4668C12.0683 28.2481 12.536 27.599 13.2804 27.6093C13.3666 27.3699 13.232 27.1505 13.194 26.9221C12.2681 26.5116 10.8003 28.9511 10.6769 26.8361C11.6022 26.7789 12.1934 25.9211 13.1098 25.8356L13.1371 25.1505C12.0972 25.0456 11.4282 26.1133 10.3887 26.008L10.1595 25.0938C11.3619 25.1689 12.0783 24.0927 13.2235 24.0348C13.3757 23.835 13.394 23.5395 13.4233 23.2635C12.1734 23.1008 11.3156 24.4842 9.98898 24.0641C9.98898 24.0641 9.94327 23.4883 9.91848 23.1637H9.92028C9.91128 23.0367 9.9027 22.9483 9.9027 22.9483C11.0857 23.4067 12.1251 22.5581 13.1371 22.1201C13.3945 22.0431 13.7959 22.1765 13.9114 21.8909C13.9013 21.6717 14.3016 21.4155 13.9684 21.2625C12.4888 21.062 11.5059 22.8442 9.98881 22.0338L9.875 21.8047C10.1906 17.4984 12.6224 13.335 16.6579 11.2862C18.2922 10.3534 20.3227 9.87794 22.3703 9.86107C24.8415 9.84059 27.3385 10.488 29.1961 11.8012C30.9999 12.9062 32.7254 14.7273 33.6618 16.576C34.5574 18.1958 34.9696 20.0133 35.0926 21.9482C33.5276 23.1293 32.4776 20.8356 30.8839 21.3489C30.9697 21.5971 31.0173 21.8539 31.1994 22.0635C32.6119 22.0536 33.5846 23.5306 35.0631 22.9485L35.0644 23.1638ZM17.0867 17.8602C16.0943 17.212 14.8361 17.8223 13.9112 18.1753C13.8253 17.3078 13.4726 16.5174 12.737 15.9458C12.6657 15.9103 12.567 15.8357 12.4782 15.8302C12.425 15.8269 12.3744 15.8483 12.3351 15.9162C12.6685 17.9645 11.3353 19.3937 10.3905 20.9475C10.705 21.2043 11.2105 21.1659 11.592 21.0905C12.5936 20.6905 13.5477 19.9943 14.7403 20.2329C15.093 19.6326 15.6855 19.0512 16.1714 18.5748C16.4682 18.3182 16.876 18.1553 17.0867 17.8602ZM20.1213 19.1465C20.1022 19.2699 20.1308 19.4898 20.3212 19.4048C20.6174 18.9951 21.1419 19.3192 21.4661 19.3481V19.2328C21.2882 18.9538 20.9223 18.8137 20.5506 18.8276C20.4649 18.8306 20.3777 18.8431 20.2938 18.8626C20.1695 18.8902 20.0829 19.0038 20.1213 19.1465ZM24.7866 17.919C24.5203 17.3281 23.9096 17.0889 23.3555 16.946C23.0838 16.9126 22.8019 16.89 22.5223 16.8874C22.4699 16.8869 22.4176 16.8862 22.3655 16.8874C21.5833 16.9031 20.8361 17.1037 20.3795 17.7466C20.314 17.9281 20.0259 18.183 20.2934 18.3457C20.8946 18.3073 21.5805 18.232 21.9812 18.7472C21.9812 19.205 22.2772 19.8141 21.7813 20.0333C21.3704 19.6534 20.8837 20.195 20.4366 19.8901C20.2264 19.7661 20.0934 19.9108 20.0073 20.0918C19.883 21.2731 20.5023 22.5768 21.6089 23.234C22.0574 23.3956 22.6602 23.5492 23.1283 23.32C24.254 22.7965 24.7203 21.5966 24.93 20.4912C24.9018 20.2808 24.9119 19.8708 24.6163 19.8609C24.2826 20.0717 23.7959 19.9472 23.4422 19.8609C23.2331 19.9283 23.2235 20.2338 22.9855 20.2917L22.8404 20.1762C22.7162 19.6529 22.6397 18.9094 23.1267 18.5474C23.671 18.3282 24.3102 18.2324 24.8731 18.4044C24.9782 18.2235 24.816 18.0811 24.7866 17.919ZM24.2123 18.8586C24.1744 18.8595 24.1377 18.8614 24.1004 18.8626C23.9005 18.9958 23.3179 18.9 23.5282 19.3481C23.891 19.0615 24.3967 19.2623 24.7592 19.4048C24.8933 19.3383 24.8642 19.2049 24.873 19.0898C24.7566 18.8736 24.4785 18.8533 24.2123 18.8586ZM28.3663 14.8298C27.6601 14.7924 27.0687 15.1928 26.4198 15.3739C26.3633 14.8225 26.7828 14.2401 26.8785 13.6865C25.8293 13.7539 24.9983 14.3846 24.1304 14.8884C23.9295 14.4037 23.728 13.9165 23.5285 13.43L24.6734 12.3434L24.7028 12.2003L23.1563 12.1143C22.8899 11.6482 22.7849 11.0867 22.4701 10.6579C22.2124 11.1438 22.0394 11.6581 21.782 12.1436L20.2373 12.2299V12.3434L21.4097 13.4006C21.2664 13.944 21.1332 14.5344 20.7805 14.9451C20.0936 14.5343 19.4165 14.087 18.6633 13.8017C18.4821 13.7433 18.2238 13.6483 18.0616 13.7724C18.2998 14.2966 18.6333 14.8605 18.5772 15.4327C18.2622 15.3748 18.0146 15.1731 17.7186 15.0883C17.3647 14.9918 16.9447 14.8034 16.6012 14.918C17.1738 15.7179 17.6412 16.5551 17.8028 17.5178C19.7023 16.6022 21.9175 16.0987 24.2169 16.4899C25.2947 16.6612 26.2858 17.0997 27.2496 17.4609C27.2873 16.4515 27.9265 15.6403 28.3663 14.8298ZM31.6282 20.319C32.6006 20.576 33.5761 21.6341 34.6058 20.9476C33.709 19.4614 32.3743 18.0889 32.7454 16.1454C32.7843 16.0127 32.6984 15.8784 32.5749 15.8596C31.9932 16.097 31.5427 16.6695 31.3125 17.2321C31.2178 17.5649 31.1617 17.9187 31.0283 18.2323C30.3314 17.8701 29.5877 17.5192 28.7386 17.604C28.4324 17.6421 27.9935 17.6621 27.9369 17.9761C28.9005 18.4903 29.6929 19.3486 30.2834 20.2625C30.6946 20.1956 31.1988 20.2528 31.6282 20.319ZM21.4386 21.6621L21.466 21.8344C21.8388 22.0825 21.9535 22.5029 22.4697 22.4647C22.9274 22.4918 23.2708 22.0635 23.4989 21.7207C22.8795 21.6353 22.1257 21.7675 21.4386 21.6621ZM21.954 20.8908C21.9726 20.9671 21.9068 21.0815 22.0108 21.12C22.3161 21.0538 22.8692 21.2823 23.0398 20.9202C22.9207 20.787 22.7264 20.7265 22.5224 20.7265C22.3185 20.7265 22.107 20.7859 21.954 20.8908Z" fill="#046A38"/>
</g>
<defs>
<clipPath id="clip0_88_101">
<rect width="45" height="45" fill="white"/>
</clipPath>
</defs>
</svg>
