<svg width="113" height="31" viewBox="0 0 113 31" fill="none" xmlns="http://www.w3.org/2000/svg">
<path d="M50.9561 7.21803H56.3376V10.2318C58.1013 7.52227 60.1296 7.21803 63.0993 7.21803V12.5445H61.7478C58.1895 12.5445 56.4853 14.22 56.4853 17.5358V23.1974H50.9583V7.21803H50.9561Z" fill="#0500FF"/>
<path d="M81.0499 23.1974H75.5251V21.674C74.3191 23.0739 72.6745 23.6824 70.6462 23.6824C66.7946 23.6824 64.6187 21.3984 64.6187 17.2007V7.21803H70.1457V15.9529C70.1457 17.9305 71.1158 19.0857 72.7604 19.0857C74.4051 19.0857 75.5251 17.9591 75.5251 16.0433V7.21803H81.0521L81.0499 23.1974Z" fill="#0500FF"/>
<path d="M82.3992 18.2634H87.5757C87.8116 19.4186 88.6053 19.9059 90.5145 19.9059C92.0732 19.9059 92.9837 19.5421 92.9837 18.8719C92.9837 18.3538 92.5428 18.0187 91.2795 17.7453L87.1061 16.8017C84.3128 16.1646 82.9018 14.5508 82.9018 11.9625C82.9018 8.5519 85.3997 6.78818 90.25 6.78818C95.1002 6.78818 97.4812 8.50781 97.8935 12.1918H92.75C92.6618 11.2195 91.6609 10.6243 90.0163 10.6243C88.6935 10.6243 87.8425 11.0498 87.8425 11.6891C87.8425 12.2359 88.4003 12.6614 89.518 12.9392L93.8965 14.004C96.7757 14.7029 98.1603 16.1646 98.1603 18.539C98.1603 21.8261 95.3074 23.775 90.4594 23.775C85.6114 23.775 82.4036 21.674 82.4036 18.2656H82.397H82.3992V18.2634Z" fill="#0500FF"/>
<path d="M112.878 12.1873V7.21803H99.2378V12.1917H103.308V23.1974H108.806V12.1895H112.878V12.1873Z" fill="#0500FF"/>
<path d="M49.4173 12.1873V7.21803H35.7793V12.1917H39.8491V23.1974H45.3475V12.1895H49.4173V12.1873Z" fill="#0500FF"/>
<path d="M0 4.40934L13.5652 3.05176e-05V30.5235C3.87578 26.4537 0 18.6536 0 14.2465V4.40934Z" fill="#0500FF"/>
<path d="M27.1326 4.40931L13.5674 0V30.5234C23.2568 26.4536 27.1326 18.6536 27.1326 14.2443V4.40931Z" fill="url(#paint0_linear_264_366)"/>
<path d="M27.1326 4.40931L13.5674 0V30.5234C23.2568 26.4536 27.1326 18.6536 27.1326 14.2443V4.40931Z" fill="url(#paint1_linear_264_366)"/>
<defs>
<linearGradient id="paint0_linear_264_366" x1="12.994" y1="34.3612" x2="24.0984" y2="-5.80122" gradientUnits="userSpaceOnUse">
<stop offset="0.26" stop-color="#48FF91"/>
<stop offset="0.66" stop-color="#0094FF"/>
<stop offset="0.8" stop-color="#0038FF"/>
<stop offset="0.89" stop-color="#0500FF"/>
</linearGradient>
<linearGradient id="paint1_linear_264_366" x1="23.3986" y1="-1.72439" x2="13.1516" y2="30.5201" gradientUnits="userSpaceOnUse">
<stop offset="0.02" stop-color="#0000FF"/>
<stop offset="0.08" stop-color="#0094FF"/>
<stop offset="0.16" stop-color="#48FF91"/>
<stop offset="0.42" stop-color="#0094FF"/>
<stop offset="0.68" stop-color="#0038FF"/>
<stop offset="0.9" stop-color="#0500FF"/>
</linearGradient>
</defs>
</svg>
