<svg width="80" height="75" viewBox="0 0 80 75" fill="none" xmlns="http://www.w3.org/2000/svg">
<path fill-rule="evenodd" clip-rule="evenodd" d="M35.8004 74.9997C35.5898 74.9997 34.7918 74.8216 34.027 74.6102C33.2622 74.3987 30.7241 73.7532 28.3854 73.1634C26.0467 72.5846 23.3312 71.9391 22.3448 71.7277C21.3694 71.5162 19.5628 71.1156 18.3436 70.8373C17.1244 70.5591 14.5862 69.9804 12.6909 69.5464C10.7955 69.1235 8.0357 68.4891 6.5394 68.1552C5.04309 67.8213 3.52462 67.4652 3.15886 67.3762C2.7931 67.276 2.42734 67.1536 2.36083 67.0868C2.28325 67.02 2.21674 66.8642 2.21674 66.7418C2.21674 66.5415 2.26108 66.5303 2.8596 66.586C3.2032 66.6194 4.54433 66.8865 5.81895 67.1647C7.10467 67.4429 8.88914 67.8436 9.80909 68.0551C10.729 68.2665 12.5135 68.6672 13.7992 68.9565C15.0849 69.2347 16.548 69.5575 17.0468 69.6799C17.5566 69.8023 19.6847 70.2698 21.7573 70.7261C23.8411 71.1712 27.2327 71.928 29.2943 72.3843C31.3559 72.8517 33.1625 73.2301 33.2955 73.2301C33.4396 73.2301 33.9384 73.13 34.426 73.0075C34.9026 72.874 36.7204 72.529 38.4605 72.2174C40.2007 71.9169 43.1933 71.3604 45.1108 70.9932C47.0282 70.6259 52.4371 69.5464 57.1366 68.6115C61.8361 67.6767 67.7215 66.497 70.2154 66.0073C72.7092 65.5065 75.1476 65.0502 75.6132 64.9834C76.2338 64.9055 76.7326 64.9055 77.3866 64.9945C77.8964 65.0613 78.4284 65.1837 78.5836 65.2505C78.7388 65.3284 78.8607 65.4842 78.8607 65.6066C78.8607 65.7847 78.6944 65.8849 78.0848 66.0963C77.6526 66.2299 75.9678 66.6639 74.3164 67.0534C72.6649 67.4429 70.0048 68.0439 68.3866 68.3889C66.7683 68.7339 63.676 69.3905 61.5147 69.8468C59.3533 70.3143 56.0615 71.0043 54.1994 71.3938C52.3373 71.7833 49.777 72.3064 48.4913 72.5513C47.2056 72.7961 45.2105 73.1745 44.0356 73.3971C42.8718 73.6197 40.6218 74.0648 39.048 74.3987C37.4741 74.7326 36.011 75.0108 35.8004 74.9997ZM40.4556 69.7578C40.245 69.7467 39.8903 69.7244 39.6797 69.7022C39.4691 69.6799 38.2278 69.4907 36.931 69.2681C35.6342 69.0567 34.4482 68.8341 34.3041 68.7785C34.1489 68.7228 34.027 68.5781 34.027 68.4668C34.027 68.3667 34.1046 68.1552 34.2044 68.0217C34.293 67.8881 34.5812 67.6655 34.8361 67.532C35.0911 67.4096 35.4457 67.187 35.612 67.0423C35.7893 66.8976 35.9888 66.7752 36.0664 66.7752C36.1329 66.7752 36.2549 66.931 36.3214 67.1091C36.3879 67.2871 36.5209 67.4429 36.6095 67.4429C36.6982 67.4429 36.8423 67.3539 36.9199 67.2537C37.0085 67.1536 37.2967 66.931 37.5627 66.7529C37.8398 66.586 38.1723 66.4413 38.3164 66.4413C38.4605 66.4413 38.5714 66.4747 38.5714 66.5303C38.5603 66.5749 38.4938 66.7307 38.4051 66.8865C38.3164 67.0423 38.2499 67.276 38.2388 67.4207C38.2388 67.5542 38.3053 67.6655 38.3829 67.6655C38.4605 67.6655 38.7265 67.5097 38.9815 67.3317C39.2253 67.1425 39.6465 66.9199 39.9014 66.8308C40.1563 66.7418 40.3891 66.6639 40.4223 66.6639C40.4445 66.6639 40.3891 66.8086 40.2893 66.9978C40.2007 67.1758 40.1231 67.3984 40.1231 67.4986C40.1231 67.5876 40.2117 67.6655 40.3226 67.6655C40.4223 67.6655 40.7327 67.5097 40.9987 67.3317C41.2647 67.1425 41.6083 66.9978 41.7524 66.9978C41.8965 66.9978 42.0406 67.0757 42.0738 67.1647C42.1181 67.276 42.2955 67.3317 42.6169 67.3317C42.9273 67.3317 43.1157 67.3873 43.1489 67.4875C43.1933 67.5988 43.3374 67.6321 43.6477 67.5876C43.8805 67.5542 44.1908 67.5876 44.3238 67.6544C44.4568 67.7323 44.5566 67.8881 44.5566 68.0551C44.5566 68.1997 44.6563 68.3889 44.7893 68.4891C44.9112 68.5781 44.9999 68.7339 44.9777 68.8452C44.9556 68.9788 44.7561 69.0901 44.3903 69.1902C44.08 69.2681 43.16 69.4351 42.3398 69.5575C41.5196 69.6799 40.6662 69.769 40.4556 69.7578ZM28.1859 68.0996C27.8977 68.0884 26.1798 67.8213 24.3842 67.4875C22.5886 67.1647 20.915 66.842 20.6601 66.7863C20.4051 66.7196 18.7426 66.4413 16.947 66.1742C15.1514 65.896 12.4914 65.462 11.0283 65.206C9.56525 64.95 7.6256 64.6273 6.70565 64.4826C5.7857 64.349 5.03201 64.2266 5.00984 64.2266C4.98767 64.2155 4.89901 64.0374 4.81034 63.826C4.72167 63.6034 4.42241 63.2584 4.10098 63.0247C3.79063 62.8021 3.54679 62.5461 3.54679 62.4682C3.54679 62.3903 3.7463 62.2901 3.99014 62.2567C4.31157 62.2011 4.43349 62.1343 4.43349 61.9896C4.43349 61.8783 4.3559 61.7337 4.26723 61.6558C4.17856 61.5779 4.10098 61.4443 4.10098 61.3664C4.10098 61.2774 4.21181 61.2106 4.36699 61.2106C4.51108 61.2106 4.79925 61.2774 4.99876 61.3664C5.20935 61.4443 5.5862 61.5445 5.85221 61.5779C6.10713 61.6112 6.31772 61.6001 6.31772 61.5667C6.31772 61.5333 6.14038 61.3108 5.91871 61.0882C5.51969 60.6764 5.51969 60.6764 5.7192 60.3982C5.89654 60.1644 5.97413 60.1422 6.29555 60.2312C6.50615 60.2869 6.7389 60.3091 6.82757 60.2757C6.91624 60.2424 6.98274 60.0643 6.98274 59.8751C6.98274 59.6636 7.03816 59.5412 7.13792 59.5412C7.22659 59.5412 7.53693 59.7415 7.81402 59.9864C8.09112 60.2312 8.36821 60.4315 8.42363 60.4315C8.47905 60.4315 8.5788 60.3314 8.6453 60.2201C8.70072 60.0977 8.75614 59.4522 8.75614 58.7844C8.75614 57.5602 8.75614 57.5602 7.94703 57.4823C7.51476 57.4378 6.82757 57.3376 6.42856 57.2486C6.02954 57.1596 5.09851 56.7812 4.3559 56.4139C3.2697 55.8797 2.90394 55.6349 2.48275 55.1674C2.19458 54.8558 1.85098 54.3995 1.70689 54.1769C1.5628 53.9432 1.44088 53.6984 1.44088 53.6316C1.44088 53.5537 1.57389 53.5314 1.80665 53.5537C1.99507 53.5871 2.70443 53.7206 3.35837 53.8653C4.01231 53.9989 4.58866 54.0768 4.633 54.0434C4.66625 53.9989 4.47782 53.7763 4.21181 53.5426C3.93472 53.2977 3.7463 53.0752 3.80172 53.0195C3.84605 52.975 4.16748 52.9972 4.52216 53.064C4.86575 53.1308 5.27585 53.2198 5.41994 53.2643C5.64161 53.3311 5.66378 53.3089 5.60836 53.1085C5.55294 52.9416 5.5862 52.8637 5.76354 52.808C5.89654 52.7635 6.17363 52.7635 6.37314 52.7969C6.57265 52.8414 6.77215 52.8303 6.80541 52.7747C6.82757 52.7301 6.51723 52.5298 6.08496 52.3295C5.66378 52.1292 5.19827 51.9177 5.03201 51.8621C4.87684 51.7953 4.766 51.684 4.79925 51.6061C4.82142 51.5393 5.00984 51.4725 5.22043 51.4725C5.53078 51.4725 5.5862 51.5059 5.56403 51.684C5.53078 51.8621 5.57511 51.8843 5.89654 51.8287C6.09605 51.7953 6.50615 51.7285 6.79432 51.684C7.0825 51.6506 7.40393 51.5393 7.4926 51.4392C7.59235 51.3501 7.94703 51.2166 8.29062 51.1498C8.65639 51.0719 8.9224 50.9606 8.9224 50.8827C8.9224 50.8048 8.52338 50.56 8.0357 50.3485C7.54802 50.137 6.93841 49.8588 6.6724 49.7475C6.41748 49.6251 6.14038 49.5249 6.05171 49.5249C5.97413 49.5249 5.74137 49.6696 5.53078 49.8588C5.32019 50.0369 4.73275 50.5711 4.21181 51.0274C3.69088 51.4837 3.15886 51.8955 3.01477 51.9288C2.87068 51.9734 2.64901 51.94 2.51601 51.8732C2.383 51.7953 1.95073 51.4837 1.5628 51.1609C1.10837 50.7937 0.698274 50.3262 0.432265 49.8699C0.188423 49.4693 0 49.0019 0 48.8349C0 48.579 0.0443348 48.5233 0.199507 48.5678C0.29926 48.6012 0.997535 48.7793 1.74014 48.9685C2.48275 49.1465 3.14778 49.3024 3.2032 49.3024C3.2697 49.3024 3.18103 49.0686 2.99261 48.7682C2.69334 48.2785 2.68226 48.2451 2.88177 48.2117C3.00369 48.1894 3.49137 48.3452 3.95689 48.5678C4.43349 48.7793 4.95442 48.9907 5.12068 49.0241C5.32019 49.0798 5.43102 49.0575 5.43102 48.9796C5.43102 48.9017 5.3091 48.6012 5.15393 48.3007C4.88792 47.7777 4.88792 47.7443 5.07635 47.7443C5.19827 47.7443 5.70812 47.9446 6.21797 48.1783C6.96058 48.5344 7.32634 48.6346 8.0357 48.6902C8.67855 48.7459 8.87806 48.7348 8.75614 48.6457C8.66747 48.579 8.36821 48.5233 8.1022 48.5233C7.79186 48.5233 7.42609 48.412 7.07141 48.2228C6.77215 48.0559 6.47289 47.8333 6.40639 47.7109C6.35097 47.5996 6.31772 47.4883 6.33989 47.4772C6.36206 47.4549 6.6724 47.3993 7.03816 47.3436C7.40393 47.288 7.70319 47.1989 7.70319 47.1322C7.70319 47.0654 7.45934 46.8984 7.16008 46.7426C6.86082 46.5868 6.59482 46.3976 6.57265 46.3309C6.55048 46.2641 6.63915 46.175 6.78324 46.1305C6.92733 46.086 7.2155 45.9191 7.42609 45.7521C7.75861 45.5073 7.90269 45.4739 8.43471 45.4962C8.83373 45.5184 9.08865 45.485 9.14407 45.4071C9.18841 45.3404 9.11082 45.1623 8.96673 45.0065C8.83373 44.8618 8.74506 44.706 8.78939 44.6726C8.82264 44.6392 9.04432 44.5391 9.26599 44.4612C9.49875 44.3832 9.70934 44.2608 9.73151 44.2052C9.75368 44.1384 9.55417 44.0271 9.28816 43.9492C9.02215 43.8713 8.32388 43.8045 7.73644 43.7934C6.89408 43.7823 6.61698 43.7378 6.45073 43.5931C6.32881 43.4818 6.10713 43.159 5.95196 42.8697C5.79679 42.5803 5.5862 42.0016 5.49753 41.5898C5.39777 41.1669 5.32019 40.7885 5.32019 40.7217C5.32019 40.6661 5.37561 40.6216 5.44211 40.6216C5.50861 40.6216 5.88546 40.8553 6.29555 41.1446C6.79432 41.5119 7.149 41.6789 7.41501 41.69C7.63668 41.7011 8.08003 41.8124 8.41255 41.9348C8.73397 42.0572 9.08865 42.124 9.21057 42.1018C9.36575 42.0572 9.38791 42.0016 9.32141 41.8569C9.26599 41.7568 9.03323 41.4785 8.82264 41.2337C8.60097 41 8.42363 40.7551 8.42363 40.6995C8.42363 40.655 8.67855 40.5103 8.97782 40.3767C9.28816 40.2543 9.532 40.0762 9.532 39.9872C9.532 39.8982 9.35466 39.7535 9.14407 39.6756C8.83373 39.542 8.66747 39.5309 8.21304 39.6422C7.6921 39.7646 7.63668 39.7535 7.28201 39.4753C7.07141 39.3083 6.79432 38.9633 6.66132 38.6962C6.51723 38.3957 6.42856 37.9951 6.42856 37.639C6.42856 37.3162 6.47289 37.0602 6.52831 37.0602C6.58373 37.0602 6.89408 37.3162 7.20442 37.6167C7.52585 37.9283 7.88053 38.2288 8.00245 38.2956C8.21304 38.4069 8.22412 38.3846 8.14654 37.9617C8.06895 37.5054 8.06895 37.5054 8.68964 37.5722C9.21057 37.639 9.31033 37.6167 9.31033 37.472C9.31033 37.383 9.17732 37.1938 8.99998 37.0602C8.83373 36.9267 8.45688 36.6707 8.15762 36.4926C7.61452 36.1588 7.61452 36.1588 7.6921 35.6357C7.72535 35.3463 7.82511 35.0458 7.91378 34.9679C8.0357 34.8344 8.13545 34.89 8.49013 35.3352C8.73397 35.6134 9.07757 35.9473 9.26599 36.0697C9.45442 36.181 9.65392 36.2812 9.69826 36.2812C9.74259 36.2812 9.74259 36.1588 9.70934 36.0141C9.67609 35.8694 9.60959 35.6691 9.57634 35.5689C9.52092 35.4354 9.58742 35.3909 9.84235 35.3909C10.0197 35.3909 10.197 35.3241 10.2192 35.2573C10.2414 35.1794 10.2524 32.3303 10.2303 28.9359C10.2081 25.5415 10.1749 21.9245 10.1416 20.8895C10.0862 19.0309 10.0862 19.0309 10.4409 18.8083C10.6404 18.6859 12.5246 17.7066 14.6305 16.6493C16.7364 15.5809 21.3251 13.2994 24.8275 11.5744C28.33 9.84934 32.8965 7.61237 34.9691 6.58849C37.0418 5.5646 40.8546 3.67264 43.4371 2.37052C46.0196 1.0684 48.2364 0 48.3472 0C48.458 0 48.713 0.0779042 48.9125 0.178067C49.112 0.27823 49.6107 0.612106 50.043 0.923724C50.4753 1.23534 51.3398 1.90309 51.9827 2.40391C52.6255 2.90472 54.3213 4.2291 55.7511 5.34202C57.1809 6.45494 58.4112 7.43431 58.4777 7.52334C58.5442 7.60124 58.6329 8.43593 58.6772 9.35966C58.7216 10.2945 58.777 11.0958 58.8102 11.1515C58.8435 11.2071 59.3533 11.5632 59.9408 11.9416C60.5282 12.3312 62.49 13.6555 64.2856 14.902C66.0812 16.1373 67.6661 17.2725 67.8102 17.4283C68.0319 17.6843 68.0541 17.8178 68.0541 18.8306C68.0541 19.9547 68.0541 19.9547 67.6218 20.4332C67.1784 20.9006 67.1784 20.9006 67.2449 23.7275C67.3004 26.4318 67.3114 26.5543 67.5442 26.7435C67.6661 26.8548 67.8656 27.0217 67.9654 27.0996C68.1316 27.2332 68.1649 27.4557 68.1649 28.4351C68.1649 29.5035 68.1427 29.6259 67.9211 29.804C67.788 29.9042 67.5553 30.1045 67.4112 30.2492C67.1784 30.4829 67.1452 30.5719 67.2117 31.0171C67.2449 31.2953 67.2782 32.8757 67.2782 34.5116C67.2782 37.5054 67.2782 37.5054 67.7215 37.7836C68.1649 38.0619 68.1649 38.0619 68.1649 39.1748C68.1649 39.9204 68.1206 40.3211 68.0319 40.399C67.9543 40.4546 67.7659 40.5993 67.6218 40.7217C67.3558 40.9221 67.3558 40.9221 67.4666 44.1718C67.5331 46.2084 67.6218 47.466 67.6994 47.5439C67.788 47.633 67.9765 47.4215 68.3866 46.7872C68.6969 46.3086 69.1735 45.4516 69.4617 44.8841C69.7388 44.3165 70.0048 43.849 70.0602 43.849C70.1156 43.849 70.2265 43.9937 70.3151 44.1718C70.4149 44.3499 70.5701 44.5168 70.6698 44.5613C70.7696 44.6058 71.0245 44.6058 71.224 44.5613C71.5122 44.5057 71.6008 44.5279 71.6008 44.6503C71.6008 44.7394 71.4457 45.0287 71.2573 45.2847C71.0799 45.5518 70.7474 45.83 70.5479 45.9191C70.3373 46.0081 70.038 46.2641 69.8829 46.4867C69.7277 46.7204 69.6058 46.943 69.6058 46.9875C69.6058 47.0209 69.8829 47.0988 70.2154 47.1322C70.5479 47.1767 70.825 47.2657 70.825 47.3214C70.825 47.377 70.7252 47.5551 70.6033 47.7109C70.4814 47.8667 70.3816 48.0448 70.3816 48.0893C70.3816 48.1449 70.4925 48.1894 70.6255 48.1894C70.7696 48.1894 71.0799 48.0893 71.3238 47.978C71.5676 47.8667 72.1661 47.3993 72.6538 46.9318C73.5405 46.086 73.5405 46.086 72.687 46.0749C72.2104 46.0749 71.8225 46.0304 71.8225 45.9747C71.8225 45.9302 71.9444 45.7076 72.0885 45.485C72.2437 45.2625 72.5651 44.8284 72.809 44.5168C73.0639 44.194 73.2634 43.8936 73.2634 43.8379C73.2634 43.7823 73.1304 43.7378 72.9531 43.7378C72.7868 43.7378 72.5319 43.7044 72.3989 43.6598C72.1772 43.6042 72.144 43.5374 72.1994 43.3037C72.2326 43.1479 72.288 42.9031 72.3324 42.7584C72.3767 42.5803 72.3545 42.5135 72.2437 42.5135C72.1439 42.5135 71.8336 42.725 71.5343 42.981C71.2462 43.2481 71.0356 43.3816 71.0688 43.2703C71.1132 43.1702 71.5011 42.6137 71.9334 42.0239C72.3656 41.434 72.7646 40.9555 72.8201 40.9555C72.8755 40.9555 73.1304 41.3672 73.3853 41.868C73.6292 42.38 73.8952 42.8585 73.9617 42.9364C74.0282 43.0255 74.1833 43.07 74.3053 43.0366C74.4383 43.0144 74.6378 42.9476 74.7486 42.9031C74.9481 42.814 74.9592 42.8474 74.8816 43.3037C74.8373 43.5708 74.7708 43.9492 74.7375 44.1384C74.7043 44.361 74.7597 44.6392 74.9038 44.9286C75.0257 45.1734 75.2031 45.4294 75.3028 45.5073C75.3915 45.5852 75.5688 45.6186 75.7018 45.5741C75.8792 45.5184 75.9235 45.5518 75.9235 45.741C75.9235 45.8634 75.8459 46.1305 75.7462 46.3309C75.6464 46.5312 75.4137 46.8984 75.2474 47.1544C75.0701 47.4104 74.926 47.6664 74.926 47.7331C74.926 47.7999 75.0479 47.8556 75.1809 47.8556C75.325 47.8556 75.7351 47.7554 76.0898 47.633C76.4444 47.5106 76.7548 47.4326 76.788 47.4549C76.8102 47.4883 76.7769 47.6886 76.6994 47.9112C76.6329 48.1338 76.389 48.5456 76.1784 48.8349C75.9567 49.1243 75.5799 49.5806 75.325 49.8477C74.8705 50.3262 74.8706 50.3262 75.6132 50.2595C76.0233 50.2149 76.5553 50.1148 76.788 50.0369C77.0319 49.9478 77.2646 49.9033 77.2979 49.9367C77.3311 49.9812 77.3644 50.1148 77.3644 50.2483C77.3644 50.3819 77.2203 50.7046 77.043 50.9829C76.8545 51.25 76.3114 51.8732 75.8237 52.3629C75.325 52.8526 74.926 53.2866 74.926 53.3311C74.926 53.3868 75.2141 53.4202 75.5688 53.409C75.9124 53.409 76.5331 53.3756 76.9543 53.32C77.3644 53.2755 77.7523 53.2755 77.8299 53.32C77.9297 53.3868 77.9296 53.5203 77.8188 53.8876C77.7412 54.1547 77.5196 54.6666 77.3311 55.0339C77.1316 55.4012 76.6883 55.991 76.3447 56.336C75.99 56.6921 75.3915 57.1373 75.0146 57.3376C74.3607 57.6715 74.2277 57.6938 72.9531 57.7383C71.9001 57.7717 71.5676 57.8162 71.5233 57.9386C71.49 58.0276 71.5011 58.7177 71.5454 59.4744C71.623 60.8433 71.623 60.8433 73.0196 60.9769C73.7954 61.0548 74.6489 61.1216 74.926 61.1327C75.2031 61.1549 75.7351 61.1772 76.123 61.1883C76.6994 61.2106 76.8102 61.244 76.8102 61.4109C76.8102 61.5222 76.7326 61.7225 76.6329 61.8561C76.5331 62.0008 76.4888 62.1788 76.522 62.2679C76.5553 62.3792 76.7326 62.4348 76.9986 62.4348C77.2314 62.4348 77.9518 62.5127 78.5947 62.6129C79.2486 62.713 79.8361 62.8355 79.9136 62.88C79.9912 62.9245 80.0245 63.0247 79.9801 63.0914C79.9358 63.1582 79.6698 63.314 79.3927 63.4364C79.1045 63.5589 78.4727 63.7703 77.9851 63.8927C77.4863 64.0263 76.7437 64.1264 76.3114 64.1264C75.8792 64.1376 73.8287 63.9818 71.7339 63.7814C69.6501 63.5922 67.6772 63.4364 67.3558 63.4364C67.0454 63.4364 64.8065 63.6813 62.4014 63.9929C59.9962 64.2934 57.4248 64.5939 56.6932 64.6606C55.9617 64.7274 54.1551 64.9611 52.6809 65.1726C51.1957 65.384 49.8435 65.551 49.6551 65.551C49.4777 65.551 49.3226 65.5399 49.3115 65.5287C49.3115 65.5065 49.2782 62.4905 49.245 58.8178C49.2006 53.2643 49.1563 52.0847 49.0233 51.8287C48.9346 51.6506 48.8903 51.428 48.9346 51.339C48.9901 51.1832 49.2561 51.1721 51.1846 51.2388C52.3817 51.2722 56.1612 51.3835 59.575 51.4725C62.9888 51.5727 66.3361 51.6506 67.0011 51.6729C68.2203 51.6951 68.2203 51.6951 68.2536 51.1498C68.2757 50.8493 68.2646 50.482 68.2314 50.3485C68.1871 50.2038 68.0762 50.0703 67.9654 50.0369C67.8656 50.0035 67.1784 49.9256 66.4469 49.8588C65.7154 49.8032 63.4432 49.6696 61.4038 49.5806C59.3644 49.4915 55.8287 49.2801 53.5455 49.1354C51.2622 48.9796 49.3558 48.8238 49.3004 48.7904C49.2561 48.757 49.2117 45.9636 49.2117 42.5692C49.2117 38.5849 49.1674 36.3034 49.1009 36.1031C49.0233 35.9028 49.0233 35.7581 49.0898 35.6913C49.1674 35.6134 49.4445 35.6134 49.9543 35.7136C50.3755 35.7915 51.8607 36.1254 53.2573 36.4593C54.6538 36.7931 57.0257 37.3719 58.5221 37.728C60.0184 38.0952 62.6009 38.7185 64.2745 39.1191C65.9371 39.5198 67.4112 39.8425 67.5442 39.8203C67.7437 39.7869 67.777 39.6979 67.8102 39.1637C67.8324 38.6962 67.7991 38.4848 67.644 38.3178C67.4999 38.1509 66.7018 37.8727 64.7844 37.3385C63.3213 36.9267 61.027 36.2923 59.6858 35.9251C58.3447 35.5689 55.474 34.8233 53.3127 34.2668C51.1514 33.7103 49.3447 33.2318 49.3004 33.2095C49.2561 33.1761 49.2117 30.583 49.2117 27.4557C49.2117 23.9167 49.1674 21.5906 49.0898 21.3124C49.0344 21.0676 48.9679 20.7893 48.9568 20.7003C48.9457 20.5779 49.0233 20.5445 49.2339 20.5556C49.4112 20.5668 50.0319 20.8005 50.6194 21.0676C51.2179 21.3458 53.0799 22.2361 54.7536 23.0374C56.4272 23.8499 58.2782 24.718 58.8546 24.9851C59.4309 25.241 61.5147 26.2427 63.4876 27.1998C65.4605 28.1569 67.2228 28.9693 67.4001 29.0138C67.7326 29.0806 67.7326 29.0806 67.6994 28.2014C67.6661 27.3222 67.6661 27.3222 60.1292 23.5383C55.9839 21.4571 51.8275 19.3759 50.8965 18.9308C49.2117 18.1072 49.2117 18.1072 49.2117 15.1357C49.2117 13.4997 49.1785 10.8065 49.1341 9.12594C49.0676 6.0988 49.0676 6.0988 48.724 5.87622C48.4802 5.73154 48.2474 5.67589 47.9371 5.70928C47.6933 5.73154 46.6403 6.15445 45.6095 6.633C44.5676 7.11156 43.6366 7.56786 43.5258 7.63463C43.3374 7.74592 43.3263 8.04641 43.3374 12.5092C43.3484 17.2614 43.3484 17.2614 42.7499 17.5174C42.4285 17.662 41.6083 17.9625 40.9433 18.174C40.2782 18.3854 39.5246 18.5969 39.2807 18.6303C38.8263 18.7082 38.8263 18.7082 38.7598 16.7828C38.7154 15.7256 38.6822 13.7668 38.6822 12.4424C38.6822 10.7731 38.6489 10.0163 38.5603 10.0163C38.4938 10.0163 38.0837 10.161 37.6514 10.339C37.2081 10.5171 36.0332 11.0513 35.0246 11.5187C34.0159 11.9861 32.6194 12.6316 31.9211 12.9321C31.2228 13.2437 30.3029 13.6667 29.8928 13.8781C29.1391 14.2565 29.1391 14.2565 29.1502 17.7845C29.1613 19.7209 29.1613 21.4015 29.1613 21.5016C29.1502 21.6129 28.9618 21.7576 28.6403 21.88C28.2081 22.0469 28.1194 22.0469 28.0307 21.9134C27.9753 21.8244 27.931 20.244 27.931 18.3966C27.931 16.4712 27.8866 15.0133 27.8312 14.9688C27.7758 14.9354 26.6674 15.3917 25.3596 15.9815C24.0628 16.5714 22.9101 17.1278 22.7881 17.228C22.5886 17.4061 22.5886 17.573 22.6551 20.5668C22.6995 22.7147 22.6884 23.7831 22.6108 23.9278C22.5443 24.0502 22.378 24.1504 22.2339 24.1504C22.0012 24.1504 21.9679 24.0836 21.9014 23.5716C21.8682 23.2489 21.8349 21.8132 21.8349 20.3887C21.8349 18.3854 21.8017 17.7845 21.6908 17.7399C21.6133 17.7177 20.9593 17.9625 20.2278 18.2853C19.4963 18.6192 18.4433 19.12 17.9002 19.3871C17.3571 19.6653 16.7808 19.9992 16.6256 20.1216C16.3707 20.333 16.3596 20.3553 16.5258 20.5556C16.681 20.7226 16.7143 21.2123 16.7697 23.7163C16.8029 25.3412 16.7918 26.7212 16.7475 26.7991C16.7143 26.8659 16.4261 27.0217 16.1268 27.1552C15.8276 27.2888 15.229 27.4891 14.8079 27.6004C14.1982 27.7785 14.0098 27.7896 13.9433 27.6783C13.899 27.6115 13.8547 26.1759 13.8547 24.5065C13.8547 21.8355 13.8325 21.4794 13.6773 21.4794C13.5886 21.4794 12.979 21.7131 12.3251 21.9913C11.6712 22.2695 11.0505 22.5811 10.9286 22.6813C10.729 22.8594 10.718 23.0486 10.7955 28.1012C10.8288 30.9837 10.9286 35.5912 11.0172 38.3401C11.1059 41.089 11.2167 47.5885 11.2611 52.7635C11.3386 62.1788 11.3386 62.1788 10.8177 62.2345C10.5074 62.279 10.1194 62.4237 9.84235 62.6129C9.58742 62.7909 9.24382 63.1359 9.06649 63.3697C8.90023 63.6034 8.75614 63.8705 8.75614 63.9595C8.75614 64.0374 8.86698 64.1042 9.02215 64.1042C9.16624 64.1042 9.49875 63.9261 9.76476 63.7147C10.0308 63.5032 10.4298 63.2695 10.6404 63.2139C10.851 63.1582 11.1391 63.1026 11.2832 63.1026C11.5049 63.1026 11.5271 63.1471 11.4606 63.3474C11.4162 63.4921 11.3608 63.6701 11.3386 63.7481C11.3054 63.8148 11.3386 63.8816 11.4162 63.8816C11.4827 63.8816 11.7709 63.7035 12.048 63.4921C12.3251 63.2806 12.6465 63.1026 12.7684 63.1026C12.8793 63.1026 13.0677 63.1693 13.1896 63.2361C13.367 63.3474 13.4667 63.3363 13.7438 63.1805C14.032 63.0024 14.165 62.9913 14.7081 63.0914C15.0517 63.1582 15.351 63.2139 15.3731 63.2139C15.3953 63.2139 15.4064 63.2584 15.4064 63.314C15.4064 63.3808 15.2069 63.659 14.963 63.9372C14.7192 64.2155 14.5197 64.5271 14.5197 64.605C14.5197 64.694 14.6416 64.8053 14.8079 64.8387C15.0074 64.8944 15.1625 64.8498 15.3288 64.6829C15.4618 64.5605 15.6835 64.4047 15.8165 64.3379C15.9495 64.2711 16.1046 64.2155 16.1712 64.2155C16.2377 64.2155 16.2931 64.3379 16.2931 64.4937C16.2931 64.6495 16.3263 64.7719 16.3596 64.7719C16.4039 64.7719 16.7364 64.5827 17.1133 64.349C17.4901 64.1153 17.9556 63.8593 18.1662 63.7926C18.5431 63.659 18.5431 63.659 18.4655 64.1042C18.4322 64.349 18.4322 64.5494 18.4766 64.5494C18.532 64.5494 18.8423 64.3713 19.1748 64.1598C19.5074 63.9484 19.862 63.7703 19.9729 63.7703C20.1502 63.7703 20.1724 63.826 20.1059 64.1598C20.0726 64.3713 20.0726 64.5494 20.1059 64.5494C20.1502 64.5494 20.4273 64.4269 20.7266 64.2711C21.0258 64.1153 21.3694 63.9929 21.5024 63.9929C21.6243 63.9929 21.7241 64.0485 21.7241 64.1042C21.7241 64.1598 21.8349 64.2155 21.9679 64.2155C22.112 64.2155 22.3337 64.2489 22.4778 64.2934C22.7216 64.349 22.6884 64.4047 22.0123 65.0502C21.6133 65.4397 21.2807 65.8292 21.2807 65.9294C21.2807 66.0407 21.3805 66.1074 21.5357 66.1074C21.6687 66.1074 22.0344 65.9405 22.3337 65.7402C22.644 65.5399 23.032 65.3173 23.2204 65.2505C23.4088 65.1837 23.7302 65.0947 23.9519 65.0724C24.1625 65.039 24.5172 65.0502 24.7167 65.0947C25.0935 65.1726 25.0935 65.1726 24.7389 65.4286C24.5394 65.5621 24.3842 65.7513 24.3842 65.8403C24.3842 65.9294 24.4507 65.9961 24.5172 65.9961C24.5948 65.9961 25.0381 65.9405 25.4926 65.8849C25.947 65.8181 26.4568 65.7958 26.6231 65.8403C26.8004 65.8737 26.9334 65.9405 26.9334 65.9961C26.9334 66.0518 26.7229 66.2076 26.4679 66.3523C26.213 66.497 25.9913 66.6639 25.9692 66.7418C25.9359 66.8197 26.0357 66.9087 26.1798 66.9421C26.3238 66.9755 26.9113 67.0089 27.4876 67.02C28.064 67.0423 29.3386 67.0089 30.3251 66.9533C31.3004 66.8976 32.2425 66.8865 32.3977 66.931C32.564 66.9644 32.697 67.0534 32.697 67.1091C32.697 67.1647 32.3756 67.3094 31.9876 67.4318C31.5997 67.5542 30.713 67.7546 30.0036 67.877C29.2943 68.0105 28.4741 68.0996 28.1859 68.0996ZM33.6723 66.0963C33.3509 66.0963 32.2093 65.9405 31.1453 65.7736C30.0812 65.5955 29.0061 65.384 28.7623 65.3061C28.3189 65.1615 28.3189 65.1615 28.2302 60.8211C28.1859 58.4283 28.1083 55.7795 28.064 54.9226C27.9864 53.3645 27.9864 53.3645 25.4371 53.2866C23.697 53.231 22.8546 53.2421 22.7549 53.3311C22.644 53.4202 22.6108 54.3773 22.6108 57.716C22.6108 61.9896 22.6108 61.9896 22.3337 61.9896C22.1785 61.9896 22.0455 61.9785 22.0344 61.9674C22.0234 61.9451 21.9901 59.8973 21.9569 57.4044C21.8904 52.9082 21.8904 52.8748 21.6354 52.6189C21.5024 52.463 21.3916 52.2516 21.3916 52.1403C21.3916 51.94 21.7352 51.94 32.2315 52.0067C38.1834 52.0513 43.1711 52.118 43.3041 52.1514C43.4371 52.1848 43.5701 52.285 43.6034 52.374C43.6366 52.463 43.6144 52.6634 43.5479 52.8414C43.4704 53.0306 43.4371 55.0116 43.4482 58.4394C43.4593 63.1693 43.4371 63.7703 43.2819 63.9261C43.1822 64.0263 42.9827 64.1042 42.8386 64.1042C42.6945 64.1042 41.7856 64.004 40.8214 63.8816C39.8571 63.7592 39.0258 63.6034 38.9593 63.5366C38.8928 63.4698 38.8263 61.6112 38.793 58.3949C38.7598 55.6237 38.6933 53.2977 38.6489 53.2198C38.5824 53.1197 38.0504 53.0863 36.6428 53.0863C34.9137 53.0863 34.6921 53.1085 34.4593 53.2977C34.1933 53.5092 34.1933 53.5092 34.2265 59.8083C34.2709 66.1074 34.2709 66.1074 33.6723 66.0963ZM32.8965 65.5399C33.2512 65.551 33.2512 65.551 33.2512 61.1883C33.2512 58.7844 33.2179 56.4028 33.1847 55.9131C33.1071 55.0116 33.1071 55.0116 32.165 54.9449C31.6108 54.9003 31.1563 54.9226 31.0898 54.9782C31.0012 55.0561 30.9347 55.7016 30.9014 56.8034C30.8682 57.7383 30.7906 58.5952 30.7241 58.7065C30.6465 58.8623 30.6022 58.7065 30.5467 58.0276C30.5135 57.5491 30.4581 56.6365 30.4137 56.0021C30.3805 55.3789 30.3029 54.8336 30.2364 54.8002C30.181 54.7668 30.0147 54.7668 29.8595 54.8002C29.5935 54.867 29.5935 54.867 29.5935 59.8751C29.5935 63.7481 29.6268 64.8944 29.7265 64.9611C29.8041 65.0057 30.4692 65.1615 31.2007 65.2839C31.9322 65.4174 32.697 65.5287 32.8965 65.5399ZM57.8459 63.8148C58.1895 63.7703 58.5553 63.6924 58.6551 63.6368C58.8435 63.5477 58.8546 63.2361 58.8546 59.5078C58.8546 57.2931 58.8213 55.0005 58.7881 54.4107C58.7105 53.3311 58.7105 53.3311 58.1785 53.2643C57.8792 53.2198 57.5134 53.2198 57.3583 53.2643C57.0812 53.3311 57.0812 53.3311 57.0812 58.4283C57.0812 61.2329 57.1144 63.6034 57.1477 63.7035C57.2031 63.8482 57.325 63.8705 57.8459 63.8148ZM42.5393 63.0914C42.6502 63.1026 42.6612 62.2567 42.6058 58.7844C42.5615 56.4139 42.495 54.4329 42.4507 54.3884C42.4063 54.3439 41.8411 54.266 41.1982 54.2326C40.3226 54.1881 39.979 54.1992 39.846 54.3105C39.7019 54.4218 39.6797 54.8336 39.6797 56.8813C39.6797 59.3186 39.6797 59.3186 39.9679 59.4299C40.1231 59.4967 40.5553 59.5412 40.9322 59.5412C41.309 59.5412 41.8078 59.5746 42.0295 59.608C42.4396 59.6748 42.4396 59.6748 42.3731 60.8099C42.3398 61.4221 42.2622 62.0008 42.1957 62.0787C42.1181 62.1788 41.7746 62.2122 40.9654 62.19C39.846 62.1566 39.846 62.1566 39.8127 62.4571C39.7795 62.7464 39.7906 62.7464 40.5332 62.8243C40.9433 62.8688 41.5418 62.9356 41.8411 62.9913C42.1403 63.0358 42.4617 63.0803 42.5393 63.0914ZM61.9358 62.0453C62.5344 62.0008 63.0553 61.934 63.1107 61.9006C63.1661 61.8672 63.1883 60.0532 63.144 57.6381C63.1218 55.3344 63.0553 53.3868 63.011 53.32C62.9666 53.2421 62.5344 53.1976 61.9137 53.1976C61.3484 53.1976 60.8386 53.2532 60.772 53.32C60.6945 53.3979 60.6723 54.6444 60.7055 57.1818C60.7277 59.2407 60.772 61.1995 60.8053 61.5333C60.8718 62.1232 60.8718 62.1232 61.9358 62.0453ZM53.357 61.0993C53.9112 61.0993 54.1883 61.0548 54.2105 60.9658C54.2327 60.8878 54.2437 60.2869 54.2216 59.6302C54.1883 58.4283 54.1883 58.4283 53.357 58.4283C52.5368 58.4283 52.5368 58.4283 52.5368 59.7638C52.5368 61.0993 52.5368 61.0993 53.357 61.0993ZM69.9383 60.9435C70.3262 60.9324 70.3262 60.9324 70.3262 59.3186C70.3262 57.7049 70.3262 57.7049 69.6169 57.627C69.2289 57.5825 68.6858 57.4712 68.4087 57.371C68.1316 57.282 67.8656 57.2041 67.8102 57.2041C67.7548 57.2041 67.7326 58.0165 67.7437 59.007C67.777 60.8211 67.777 60.8211 68.6637 60.8878C69.1513 60.9212 69.7277 60.9435 69.9383 60.9435ZM10.2857 59.9641C10.4298 59.9419 10.4963 59.7527 10.5517 59.2073C10.596 58.8067 10.6071 58.2947 10.5739 58.0722C10.5185 57.716 10.463 57.6493 10.2524 57.6493C10.0862 57.6493 9.96427 57.7383 9.91993 57.883C9.8756 58.0165 9.8756 58.406 9.90885 58.751C9.95318 59.0961 10.0086 59.519 10.0419 59.6859C10.0862 59.8974 10.1638 59.9864 10.2857 59.9641ZM64.6181 59.9864C65.0725 59.9864 65.0725 59.9864 65.0393 59.1183C65.006 58.2614 65.006 58.2614 64.5627 58.2614C64.1193 58.2614 64.1193 58.2614 64.0861 58.9736C64.0639 59.3632 64.075 59.7527 64.1083 59.8306C64.1415 59.9307 64.341 59.9864 64.6181 59.9864ZM15.9384 59.7415C15.4285 59.7415 14.8411 59.7082 14.6305 59.6859C14.4199 59.6525 14.1761 59.5857 14.1096 59.519C13.9987 59.4299 13.9655 58.6286 13.9655 56.1802C13.9655 52.9639 13.9655 52.9639 15.3842 52.9972C16.7918 53.0306 16.7918 53.0306 16.8251 56.4028C16.8473 59.7638 16.8473 59.7638 15.9384 59.7415ZM15.628 58.9514C16.0603 58.9291 16.1268 58.8957 16.1601 58.662C16.1822 58.5173 16.1379 58.3504 16.0492 58.3059C15.9716 58.2502 15.6724 58.2057 15.3842 58.2057C14.8744 58.2057 14.8522 58.2168 14.8522 58.5285C14.8522 58.7065 14.9187 58.8846 14.9852 58.918C15.0628 58.9514 15.351 58.9625 15.628 58.9514ZM53.3127 57.7605C54.1994 57.7605 54.1994 57.7605 54.1772 55.735C54.144 53.6984 54.144 53.6984 53.2905 53.665C52.426 53.6316 52.426 53.6316 52.426 55.7016C52.426 57.7605 52.426 57.7605 53.3127 57.7605ZM15.7611 57.6381C15.9827 57.6493 16.2044 57.5936 16.2377 57.5268C16.282 57.4712 16.282 56.6254 16.2377 55.646C16.1601 53.8876 16.1601 53.8876 15.8719 53.8319C15.7278 53.7985 15.4064 53.8097 15.1625 53.8319C14.7414 53.8987 14.7414 53.8987 14.7635 55.6794C14.7968 57.4712 14.7968 57.4712 15.0739 57.5491C15.229 57.5936 15.5394 57.627 15.7611 57.6381ZM64.4962 57.6493C64.9174 57.6493 64.9395 57.627 65.0171 57.2597C65.0504 57.0483 65.0393 56.6921 64.9839 56.4584C64.8952 56.0689 64.8509 56.0355 64.5073 56.0355C64.1193 56.0355 64.1193 56.0355 64.0861 56.8479C64.0528 57.6493 64.0528 57.6493 64.4962 57.6493ZM64.4962 55.7573C64.873 55.7573 64.9617 55.7128 65.006 55.5013C65.0393 55.3678 65.0615 54.9226 65.0393 54.5331C65.006 53.8097 65.006 53.8097 64.5073 53.8097C64.0085 53.8097 64.0085 53.8097 63.9752 54.6332C63.9531 55.0895 63.9642 55.5236 63.9974 55.6126C64.0307 55.7016 64.2302 55.7573 64.4962 55.7573ZM62.9001 49.0575C62.9555 49.0686 63.0775 49.0353 63.155 48.9907C63.2659 48.9128 63.277 48.0893 63.2216 45.0287C63.144 41.2448 63.1329 41.1558 62.9112 41.0667C62.7782 41.0111 62.1353 40.8887 61.4703 40.7885C60.6723 40.6661 60.24 40.6327 60.1624 40.7106C60.0849 40.7885 60.0627 42.2353 60.0849 44.7728C60.107 46.9541 60.1624 48.757 60.2068 48.8015C60.24 48.8461 60.8386 48.9128 61.5368 48.9573C62.224 49.013 62.8447 49.0575 62.9001 49.0575ZM15.4507 48.9462C14.7192 48.9573 14.0874 48.9351 14.0431 48.9017C13.9987 48.8572 13.9655 47.2546 13.9655 45.3404C13.9655 43.4261 14.0098 41.8347 14.0542 41.8013C14.1096 41.7679 14.7081 41.6789 15.3953 41.6121C16.4593 41.4897 16.6588 41.5008 16.7475 41.6343C16.8029 41.7234 16.8362 43.3594 16.814 45.3515C16.7918 48.9128 16.7918 48.9128 15.4507 48.9462ZM58.389 48.8461C58.9654 48.8572 58.9654 48.8572 58.9654 46.3754C58.9654 45.0065 58.9321 43.0477 58.8878 42.035C58.8213 40.1764 58.8213 40.1764 58.389 40.054C58.1452 39.9983 57.7684 39.9538 57.5467 39.9761C57.1366 40.0095 57.1366 40.0095 57.1033 40.8998C57.0812 41.3895 57.0923 43.3482 57.1366 45.2625C57.2142 48.7348 57.2142 48.7348 57.5134 48.7793C57.6686 48.8015 58.0676 48.8349 58.389 48.8461ZM22.3559 48.7236C22.1785 48.7459 22.0344 48.7014 22.0123 48.6123C21.979 48.5344 21.9458 46.5646 21.9236 44.2497C21.8793 40.054 21.8793 40.0317 21.6354 39.8648C21.5024 39.7758 21.3916 39.6422 21.3916 39.5532C21.3916 39.4753 21.4359 39.3751 21.5024 39.3417C21.5578 39.3083 22.2339 39.1525 22.9876 39.0078C23.7413 38.852 26.1022 38.4848 28.2302 38.1843C30.3694 37.8727 32.7302 37.5499 33.4839 37.4498C34.2376 37.3607 35.0689 37.2828 35.3238 37.2828C35.6785 37.2828 35.8337 37.3385 35.9334 37.5054C36.0332 37.6612 36.1994 37.728 36.4654 37.728C36.676 37.728 37.8287 37.6056 39.0147 37.4498C40.2007 37.3051 41.6415 37.1493 42.2068 37.1047C43.0381 37.038 43.2709 37.0602 43.3484 37.1827C43.4039 37.2717 43.4482 39.7312 43.4482 42.6582C43.4482 47.4994 43.4371 47.978 43.2598 48.0448C43.16 48.0781 42.1514 48.1227 41.0209 48.1227C38.9593 48.1338 38.9593 48.1338 38.8928 47.3547C38.8484 46.9207 38.8152 44.7394 38.8041 42.5024C38.793 39.0412 38.7709 38.4069 38.6268 38.2844C38.4938 38.1731 38.2388 38.1843 37.3854 38.3178C36.7869 38.4069 35.5787 38.6406 34.6921 38.8298C33.8054 39.019 32.2315 39.2972 31.2007 39.453C30.1699 39.6088 29.2943 39.7646 29.2389 39.8203C29.1945 39.8648 29.1391 41.8569 29.128 44.2386C29.0948 48.579 29.0948 48.579 28.6625 48.6123C28.3965 48.6346 28.197 48.5901 28.1416 48.501C28.0862 48.4231 28.0418 46.4644 28.0418 44.1384C28.0418 39.9204 28.0418 39.9204 27.5098 39.9872C27.2216 40.0095 26.0689 40.1764 24.9384 40.3433C23.8078 40.5103 22.8436 40.6995 22.7771 40.7551C22.7105 40.8219 22.6662 42.3021 22.6662 44.7728C22.6662 48.6902 22.6662 48.6902 22.3559 48.7236ZM15.5283 48.2896C15.6835 48.2896 15.8941 48.2339 16.0049 48.156C16.1157 48.0781 16.1822 47.9112 16.1601 47.7888C16.1268 47.6107 16.0271 47.5773 15.5172 47.5773C14.9409 47.5773 14.9076 47.5885 14.8744 47.8778C14.8522 48.0893 14.8965 48.1894 15.0406 48.2228C15.1514 48.2562 15.3731 48.2785 15.5283 48.2896ZM65.006 48.3007C65.4715 48.3007 65.6046 48.2562 65.6378 48.1004C65.66 48.0002 65.66 47.4549 65.6378 46.8873C65.5935 45.9636 65.5713 45.8634 65.3607 45.8078C65.2277 45.7744 64.9617 45.741 64.7733 45.741C64.5516 45.741 64.3964 45.8078 64.3521 45.9191C64.3188 46.0192 64.2856 46.431 64.2856 46.8539C64.2856 47.2657 64.3188 47.7665 64.3521 47.9557C64.4186 48.2896 64.4408 48.3007 65.006 48.3007ZM4.37807 47.1878C4.30048 47.1878 3.97906 46.9875 3.6798 46.7426C3.36945 46.5089 2.93719 46.0749 2.69334 45.7967C2.46059 45.5184 2.08374 44.9842 1.85098 44.6058C1.61822 44.2163 1.45197 43.8379 1.47414 43.7378C1.4963 43.6487 1.55172 43.5819 1.61822 43.5819C1.67364 43.5931 1.88423 43.6376 2.09482 43.6821C2.4495 43.76 2.47167 43.7489 2.39408 43.504C2.33867 43.3594 2.28325 43.1034 2.25 42.9364C2.21674 42.7361 2.23891 42.6248 2.3165 42.6248C2.39408 42.6248 2.69334 42.7473 2.99261 42.9031C3.29187 43.0589 3.59113 43.1813 3.65763 43.1813C3.71305 43.1813 3.76847 43.0589 3.76847 42.9031C3.76847 42.725 3.83497 42.6248 3.94581 42.6248C4.04556 42.6248 4.48891 42.981 4.94334 43.4261C5.53078 43.9937 5.73028 44.2497 5.63053 44.3165C5.55295 44.361 5.29802 44.4612 5.07635 44.5168C4.77708 44.6058 4.65516 44.6949 4.65516 44.8507C4.65516 44.9731 4.78817 45.14 4.96551 45.2291C5.13176 45.3181 5.45319 45.4183 5.68595 45.4628C5.90762 45.5073 6.09605 45.5852 6.09605 45.6297C6.09605 45.6854 5.74137 46.0526 5.3091 46.4533C4.87684 46.8539 4.45566 47.1878 4.37807 47.1878ZM40.2339 47.1433C40.4334 47.1099 41.0652 47.0765 41.6305 47.0765C42.6723 47.0765 42.6723 47.0765 42.6723 46.3531C42.6723 45.6297 42.6723 45.6297 42.2068 45.6408C41.9408 45.6408 41.6415 45.6854 41.5196 45.7299C41.4088 45.7744 41.2536 45.9302 41.176 46.0749C41.0874 46.2529 40.8435 46.4088 40.4888 46.5201C40.0677 46.6536 39.9457 46.7426 39.9236 46.9541C39.8903 47.1989 39.9125 47.2101 40.2339 47.1433ZM15.5615 46.9096C15.8608 46.8873 16.1268 46.8317 16.1712 46.7872C16.2044 46.7538 16.2155 45.8189 16.1933 44.706C16.1822 43.5931 16.1379 42.6471 16.1046 42.6026C16.0825 42.5469 15.8608 42.5135 15.617 42.5135C15.3731 42.5135 15.0739 42.5692 14.9519 42.6248C14.7524 42.7361 14.7414 42.8808 14.7414 44.795C14.7414 46.3197 14.7746 46.8539 14.8744 46.8984C14.9519 46.9318 15.2623 46.943 15.5615 46.9096ZM53.7006 46.8094C54.144 46.7983 54.144 46.7983 54.1107 45.5184C54.0886 44.8173 54.0442 44.2163 54.011 44.1829C53.9888 44.1607 53.623 44.1161 53.1908 44.0939C52.426 44.0494 52.426 44.0494 52.426 45.3849C52.426 46.7315 52.426 46.7315 52.8472 46.776C53.0689 46.7983 53.4568 46.8205 53.7006 46.8094ZM35.7228 46.3865C35.3127 46.4199 35.2462 46.3865 35.1908 46.1639C35.1576 46.0192 35.1465 44.5836 35.1576 42.9587C35.1908 40.0095 35.1908 40.0095 35.6342 40.0095C36.0775 40.0095 36.0775 40.0095 36.1662 41.9571C36.2105 43.0255 36.2327 44.45 36.2216 45.1289C36.1884 46.3531 36.1884 46.3531 35.7228 46.3865ZM65.006 45.2736C65.5602 45.2402 65.5602 45.2402 65.5935 43.671C65.6156 42.3689 65.5935 42.0795 65.4494 41.9571C65.3607 41.8792 65.0614 41.7901 64.7844 41.7568C64.2856 41.7011 64.2856 41.7011 64.2856 43.4261C64.2856 44.3721 64.3188 45.1845 64.3632 45.2291C64.4075 45.2736 64.6957 45.2958 65.006 45.2736ZM40.3337 45.0733C40.6108 45.0733 41.2536 45.0399 41.7635 44.9953C42.6723 44.9286 42.6723 44.9286 42.6723 42.0795C42.6723 40.5103 42.628 39.1637 42.5726 39.0746C42.495 38.9522 42.2733 38.9411 41.1649 39.0635C40.4334 39.1414 39.8127 39.2638 39.7684 39.3306C39.7241 39.3974 39.6797 40.4101 39.6797 41.5787C39.6797 42.7473 39.713 44.016 39.7462 44.3944C39.8238 45.0733 39.8238 45.0733 40.3337 45.0733ZM53.8115 43.4707C54.144 43.4595 54.144 43.4595 54.1107 41.4563C54.0997 40.3656 54.0553 39.4308 53.9999 39.3862C53.9556 39.3528 53.612 39.2527 53.2351 39.1748C52.8694 39.0969 52.5036 39.0746 52.4371 39.108C52.3595 39.1637 52.3152 39.8537 52.3152 41.1558C52.3152 42.2353 52.3595 43.1813 52.4038 43.2592C52.4482 43.326 52.7142 43.4039 52.9802 43.4373C53.2573 43.4595 53.6341 43.4818 53.8115 43.4707ZM14.1982 37.9506C14.0209 37.9506 13.9987 37.6723 13.9322 34.6452C13.8879 32.8311 13.8879 31.3064 13.9322 31.2619C13.9877 31.2174 14.5086 31.0282 15.1071 30.839C15.6946 30.6498 16.3042 30.494 16.4482 30.494C16.6921 30.494 16.7032 30.5385 16.7697 31.5847C16.814 32.1745 16.8473 33.6992 16.8473 34.9568C16.8473 36.7486 16.814 37.2828 16.7032 37.383C16.6145 37.4498 16.0603 37.6056 15.4618 37.728C14.8744 37.8504 14.298 37.9506 14.1982 37.9506ZM15.2734 36.8822C15.495 36.8376 15.7943 36.7597 15.9384 36.7152C16.1268 36.6373 16.1822 36.5372 16.1822 36.2033C16.1822 35.9696 16.1379 35.7136 16.0825 35.6246C16.016 35.5244 15.883 35.491 15.6724 35.5467C15.495 35.5912 15.2401 35.7025 15.1071 35.7915C14.9741 35.8805 14.83 36.1143 14.7857 36.3257C14.7524 36.5372 14.7524 36.7709 14.7968 36.8377C14.8411 36.9044 15.0184 36.9267 15.2734 36.8822ZM62.9555 36.2478C63.0996 36.2255 63.1218 35.7692 63.0996 32.7866C63.0885 30.0934 63.0442 29.3254 62.9334 29.2587C62.8558 29.203 62.2684 28.9582 61.6477 28.7133C61.0159 28.4685 60.4285 28.2682 60.3398 28.2682C60.2068 28.2682 60.1846 28.8358 60.1846 31.8184C60.1846 34.545 60.2179 35.402 60.3176 35.4688C60.3952 35.5133 60.9826 35.7136 61.6255 35.9028C62.2684 36.1031 62.8669 36.2589 62.9555 36.2478ZM22.2561 36.0586C22.1453 36.0586 22.0344 35.9918 22.0012 35.9251C21.979 35.8471 21.9347 34.0776 21.8904 31.9964C21.8238 28.3349 21.8128 28.2014 21.58 27.9565C21.3472 27.7117 21.3472 27.7117 21.5689 27.478C21.6908 27.3556 22.2339 27.0885 22.7881 26.8881C23.3312 26.6878 25.0714 26.0868 26.6564 25.5638C28.2413 25.0407 30.8792 24.206 32.5307 23.7052C34.1822 23.2044 36.3657 22.5589 37.4076 22.2584C38.4494 21.969 40.1674 21.4682 41.2314 21.1566C42.2955 20.845 43.2487 20.6224 43.3595 20.6558C43.4593 20.6892 43.5812 20.8116 43.6144 20.9229C43.6477 21.0453 43.6034 21.3235 43.4925 21.535C43.3263 21.9023 43.3152 22.4253 43.3484 27.2109C43.3817 31.0393 43.3595 32.5195 43.2709 32.6086C43.1933 32.6865 42.4396 32.8534 41.5861 32.9981C40.7327 33.1428 39.7573 33.2763 39.4359 33.2986C38.8484 33.332 38.8484 33.332 38.7487 28.602C38.7044 25.9978 38.6379 23.8499 38.6157 23.8276C38.5824 23.7942 38.3275 23.8276 38.0393 23.9055C37.7512 23.9834 36.2216 24.462 34.6366 24.9851C33.0517 25.497 31.1563 26.1091 30.4248 26.3428C29.0948 26.7657 29.0948 26.7657 29.0948 30.7166C29.0948 32.8868 29.0504 34.7342 29.0061 34.8121C28.9507 34.8789 28.7179 34.9457 28.4741 34.9457C28.0418 34.9457 28.0418 34.9457 28.0196 32.5195C27.9975 31.1951 27.9864 29.5258 27.9753 28.8246C27.9753 28.1235 27.9531 27.4557 27.9531 27.3556C27.9421 27.2443 27.8534 27.1552 27.7536 27.1552C27.6539 27.1552 26.6674 27.4557 25.5591 27.823C24.4507 28.1903 23.4088 28.4907 23.2537 28.4907C23.0874 28.4907 22.8768 28.5798 22.766 28.6799C22.5997 28.858 22.5886 29.1585 22.633 32.3415C22.6773 34.7787 22.6662 35.8471 22.5775 35.9362C22.511 36.003 22.367 36.0586 22.2561 36.0586ZM65.2831 35.9139C65.527 35.8917 65.5602 35.836 65.5935 35.3909C65.6156 35.1015 65.5602 34.801 65.4826 34.6897C65.394 34.5784 65.139 34.4449 64.9174 34.3892C64.607 34.3224 64.474 34.3336 64.4408 34.4449C64.4075 34.5228 64.3964 34.8455 64.4186 35.1794C64.4518 35.7025 64.4851 35.7804 64.7289 35.8471C64.8841 35.8917 65.128 35.9251 65.2831 35.9139ZM14.9187 35.2796C14.9409 35.2796 15.2069 35.2239 15.5172 35.1571C15.9384 35.0681 16.0825 34.9791 16.1268 34.801C16.1601 34.6675 16.1712 33.8995 16.1601 33.1094C16.1268 31.6626 16.1268 31.6626 15.7389 31.6737C15.5283 31.6848 15.218 31.7516 15.0517 31.8184C14.7414 31.9408 14.7414 31.9408 14.7414 33.5323C14.7414 34.4115 14.7746 35.1683 14.8189 35.2017C14.8522 35.2462 14.9076 35.2796 14.9187 35.2796ZM58.7326 35.0236C58.9876 35.0013 58.9876 35.0013 58.9654 31.7739C58.9543 30.0043 58.91 28.3016 58.8656 28.0122C58.7991 27.478 58.7991 27.478 58.1009 27.1886C57.7129 27.044 57.325 26.9438 57.2253 26.9772C57.059 27.044 57.059 27.4112 57.1255 30.8056C57.1698 33.0315 57.2474 34.6007 57.3139 34.6675C57.3693 34.7342 57.6575 34.8344 57.9457 34.9123C58.2339 34.9791 58.5886 35.0236 58.7326 35.0236ZM65.1834 34.0553C65.3496 34.0553 65.5048 33.9886 65.538 33.9218C65.5602 33.8439 65.5602 33.1094 65.527 32.2858C65.4715 30.8056 65.4715 30.8056 65.1058 30.6498C64.9063 30.5608 64.6292 30.494 64.5073 30.494C64.2856 30.494 64.2856 30.5385 64.3078 32.13C64.341 33.7549 64.341 33.7771 64.6181 33.9107C64.7733 33.9886 65.0282 34.0553 65.1834 34.0553ZM54.0996 32.6197C54.1329 32.5863 54.144 32.0632 54.1107 31.4734C54.0664 30.3938 54.0664 30.3938 53.6563 30.2269C53.4235 30.1379 53.0578 30.0266 52.825 29.9932C52.4149 29.9153 52.4149 29.9153 52.4482 31.1172C52.4814 32.3303 52.4814 32.3303 53.2573 32.5084C53.6896 32.6086 54.0664 32.6642 54.0996 32.6197ZM35.6674 32.219C35.3571 32.2747 35.2352 32.2635 35.1908 32.1411C35.1576 32.0632 35.1465 30.6164 35.1576 28.9359C35.1908 25.8754 35.1908 25.8754 35.5898 25.842C35.9334 25.8086 35.9999 25.842 36.0553 26.0646C36.0886 26.2093 36.1329 27.6115 36.144 29.1919C36.1551 30.7611 36.144 32.0744 36.1218 32.0966C36.0997 32.1189 35.8891 32.1745 35.6674 32.219ZM40.378 32.2302C40.6883 32.1968 41.2869 32.1189 41.708 32.0744C42.1181 32.0298 42.5061 31.9297 42.5726 31.8629C42.6391 31.7961 42.6723 31.529 42.6502 31.2619C42.628 30.8613 42.5726 30.7611 42.3731 30.7388C42.2401 30.7166 41.7413 30.8724 41.2647 31.095C40.7881 31.3064 40.2561 31.5068 40.0898 31.5513C39.9236 31.5847 39.7573 31.6848 39.7241 31.7739C39.6797 31.8629 39.6908 32.0187 39.7241 32.1189C39.7795 32.2747 39.9014 32.2969 40.378 32.2302ZM39.979 30.5608C40.0898 30.5385 40.6551 30.4272 41.2314 30.3271C41.8078 30.2269 42.3509 30.1156 42.4285 30.0934C42.5282 30.06 42.5615 29.3477 42.5615 26.9772C42.5615 23.8944 42.5615 23.8944 42.096 23.9612C41.83 23.9946 41.1982 24.1726 40.6773 24.3396C39.7351 24.6512 39.7351 24.6512 39.7019 27.4891C39.6908 29.0472 39.7019 30.3938 39.7351 30.4717C39.7684 30.5496 39.8792 30.5942 39.979 30.5608ZM53.9556 29.7038C54.0553 29.715 54.0886 29.2475 54.0886 27.734C54.0886 25.7418 54.0886 25.7418 53.4014 25.4413C53.0134 25.2855 52.6144 25.152 52.5036 25.152C52.3263 25.152 52.3152 25.2967 52.3373 27.1775C52.3706 29.2141 52.3706 29.2141 53.091 29.459C53.49 29.5925 53.878 29.7038 53.9556 29.7038ZM15.096 26.7546C15.2401 26.7212 15.5172 26.621 15.7167 26.532C15.9051 26.4541 16.0714 26.3317 16.0714 26.276C16.0714 26.2093 15.9606 26.1536 15.8276 26.1536C15.6835 26.1536 15.4064 26.2538 15.2069 26.3762C15.0184 26.4986 14.8522 26.6544 14.8522 26.7212C14.8522 26.788 14.9519 26.8102 15.096 26.7546ZM14.963 25.8197C15.1404 25.8197 15.495 25.7418 15.7389 25.6417C16.1822 25.4636 16.1822 25.4636 16.1601 23.605C16.1268 21.8021 16.1157 21.7576 15.883 21.7242C15.75 21.7019 15.4507 21.791 15.2069 21.9134C14.963 22.0358 14.7414 22.2139 14.697 22.314C14.6638 22.4142 14.6305 23.2489 14.6305 24.1615C14.6305 25.8197 14.6305 25.8197 14.963 25.8197ZM65.3053 25.152C65.4715 25.152 65.5048 25.0407 65.5048 24.3841C65.5048 23.9612 65.4605 23.4826 65.394 23.3268C65.3275 23.1376 65.1501 23.0041 64.8398 22.915C64.5959 22.8371 64.3632 22.8149 64.3299 22.8482C64.2856 22.8928 64.2634 23.2823 64.2745 23.7163C64.2856 24.1615 64.3188 24.5621 64.3521 24.6178C64.3964 24.6734 64.5738 24.8181 64.7733 24.9405C64.9617 25.0518 65.2055 25.152 65.3053 25.152ZM62.9999 24.2617C63.1883 24.2617 63.1994 24.1504 63.1218 21.4571C63.0775 19.9101 62.9888 18.5858 62.9334 18.5079C62.878 18.4411 62.3349 18.0961 61.7363 17.7622C61.1378 17.4172 60.5393 17.1278 60.3952 17.1167C60.1292 17.0833 60.1292 17.0833 60.1735 19.9213C60.1957 22.0136 60.2511 22.8037 60.3509 22.9039C60.4285 22.9929 61.0048 23.3268 61.6366 23.6607C62.2683 23.9834 62.878 24.2505 62.9999 24.2617ZM65.1945 22.5923C65.2942 22.5923 65.405 22.5478 65.4494 22.4921C65.4826 22.4253 65.4715 21.9023 65.4383 21.3124C65.3607 20.244 65.3607 20.244 64.9395 20.0214C64.7068 19.9101 64.474 19.81 64.4075 19.81C64.3521 19.81 64.2745 20.2551 64.2302 20.8005C64.1858 21.3458 64.1858 21.8911 64.2191 22.0136C64.2634 22.136 64.4518 22.314 64.6514 22.4142C64.8509 22.5032 65.0947 22.5923 65.1945 22.5923ZM58.7216 20.8895C58.7437 20.2106 58.7216 18.7304 58.6883 17.6064C58.6107 15.5586 58.6107 15.5586 58.2782 15.2247C58.0344 14.9688 57.9679 14.813 57.99 14.5459C58.0122 14.2676 58.0676 14.2009 58.2228 14.2231C58.3336 14.2454 58.8546 14.5236 59.3866 14.8464C59.9186 15.1691 61.0935 15.9259 62.0134 16.5157C62.9223 17.1167 64.4518 18.1072 65.4161 18.7193C66.7573 19.5763 67.2228 19.81 67.4001 19.7543C67.6218 19.6764 67.6329 19.6319 67.5664 18.8306C67.522 18.3632 67.4334 17.918 67.378 17.8512C67.3225 17.7733 66.6575 17.3282 65.9149 16.8496C65.1723 16.3711 63.4432 15.2247 62.0688 14.301C60.6945 13.3884 59.2425 12.4202 58.8324 12.1642C58.0898 11.6968 58.0898 11.6968 58.0565 10.7174C58.0233 9.73805 58.0233 9.73805 57.1366 9.13707C56.6489 8.8032 54.9309 7.61237 53.3238 6.47719C51.7277 5.34202 50.2868 4.31813 50.1317 4.18458C49.8767 3.96199 49.8435 3.83957 49.7992 2.89359C49.7659 2.31487 49.6772 1.76954 49.6107 1.68051C49.5442 1.59148 49.2893 1.38002 49.0566 1.20195C48.8238 1.03502 48.4913 0.890336 48.3361 0.890336C48.1809 0.890336 47.3718 1.24647 46.5516 1.66938C45.7314 2.10342 44.2573 2.84908 43.2819 3.32763C42.3066 3.80619 39.3361 5.26411 36.6871 6.56623C34.0381 7.86834 30.4692 9.6045 28.7623 10.4281C27.0554 11.2627 22.2561 13.6333 18.0997 15.6922C11.6822 18.8862 10.5295 19.4984 10.4852 19.7098C10.452 19.8545 10.4076 20.3998 10.3744 20.9006C10.33 21.8355 10.33 21.8355 10.7069 21.7687C10.9064 21.7242 12.5024 21.0231 14.2426 20.1995C15.9827 19.3759 17.4236 18.6971 17.4458 18.6971C17.4679 18.6971 18.6317 18.1629 20.0172 17.5174C21.4138 16.8607 23.4532 15.9148 24.5504 15.4139C25.6477 14.9131 27.3657 14.1118 28.3743 13.6333C29.3829 13.1658 31.4002 12.2199 32.8632 11.5521C34.3263 10.8732 36.3657 9.93837 37.4076 9.45982C38.4494 8.98126 39.8349 8.33577 40.511 8.01302C41.1871 7.69028 43.1046 6.81107 44.7782 6.04316C46.4519 5.28637 47.9593 4.62975 48.1144 4.59636C48.3361 4.55184 48.6354 4.71878 49.5553 5.38653C50.1871 5.85396 52.16 7.26737 53.9223 8.52497C55.6957 9.7937 57.2696 10.9623 57.4358 11.1069C57.6132 11.2627 57.7462 11.4519 57.7462 11.5299C57.7462 11.6078 57.6354 11.6857 57.5023 11.7079C57.3472 11.7302 57.2363 11.8526 57.1698 12.0752C57.1144 12.2644 57.1144 14.3901 57.1477 16.8051C57.2142 20.6335 57.2474 21.2234 57.4026 21.4126C57.5024 21.5239 57.8349 21.7353 58.1341 21.88C58.6883 22.1471 58.6883 22.1471 58.7216 20.8895ZM35.4347 19.2535C35.1576 19.2535 35.1576 19.2535 35.08 16.4156C35.0356 14.8464 35.0246 13.3773 35.0689 13.1547C35.1021 12.9321 35.213 12.6762 35.3238 12.6094C35.4236 12.5315 35.6231 12.4647 35.745 12.4647C35.9667 12.4647 35.9999 12.5426 36.0664 13.1436C36.0997 13.522 36.1329 15.0022 36.1329 16.4267C36.1329 18.8751 36.1218 19.0309 35.9223 19.1422C35.8004 19.1979 35.5788 19.2535 35.4347 19.2535ZM54.011 18.352C54.0553 18.3632 54.0775 17.8067 54.0664 17.1167C54.0331 15.8702 54.0331 15.8702 53.3127 15.4473C52.9137 15.2136 52.559 15.0244 52.5258 15.0244C52.4814 15.0244 52.4149 15.1135 52.3706 15.2247C52.3373 15.3249 52.3373 15.9481 52.3817 16.6048C52.4482 17.7845 52.4482 17.7845 53.1908 18.0627C53.5898 18.2185 53.9666 18.352 54.011 18.352ZM39.7351 17.4728C39.7573 17.4728 39.979 17.3949 40.2007 17.317C40.4334 17.228 41.0541 17.0165 41.5861 16.8607C42.5615 16.5714 42.5615 16.5714 42.5615 13.1213C42.5615 10.3835 42.5282 9.66014 42.4174 9.61563C42.3398 9.59337 41.6859 9.83821 40.9765 10.1721C39.6797 10.7842 39.6797 10.7842 39.6797 14.1341C39.6797 15.9704 39.7019 17.4728 39.7351 17.4728ZM54.0442 15.1357C54.0664 15.1357 54.0886 14.2899 54.0886 13.2549C54.0886 11.374 54.0886 11.374 53.357 10.9177C52.958 10.6729 52.559 10.4614 52.4703 10.4614C52.3373 10.4614 52.3152 10.7508 52.3373 12.3757C52.3706 14.301 52.3706 14.301 53.1908 14.7128C53.6341 14.9465 54.0221 15.1357 54.0442 15.1357Z" fill="white"/>
</svg>
