<svg width="274" height="153" viewBox="0 0 274 153" fill="none" xmlns="http://www.w3.org/2000/svg">
<rect width="274" height="153" fill="#242424"/>
<path d="M172 49H159.07L150.535 40.465C149.597 39.5275 148.327 39 147 39H127C125.673 39 124.403 39.5275 123.465 40.465L114.93 49H102C99.2362 49 97 51.2362 97 54V109C97 111.764 99.2362 114 102 114H172C174.764 114 177 111.764 177 109V54C177 51.2362 174.764 49 172 49ZM137 99C125.955 99 117 90.045 117 79C117 67.955 125.955 59 137 59C148.045 59 157 67.955 157 79C157 90.045 148.045 99 137 99Z" fill="#3A4446"/>
<path d="M137 89C142.523 89 147 84.5228 147 79C147 73.4772 142.523 69 137 69C131.477 69 127 73.4772 127 79C127 84.5228 131.477 89 137 89Z" fill="#3A4446"/>
</svg>
