<svg width="1151" height="634" viewBox="0 0 1151 634" fill="none" xmlns="http://www.w3.org/2000/svg">
<g clip-path="url(#clip0_232_303)">
<g opacity="0.4">
<path d="M1150.16 69.5C1150.16 380.837 892.87 633.25 575.455 633.25C258.041 633.25 0.75 380.837 0.75 69.5C0.75 -241.837 258.041 -494.25 575.455 -494.25C892.87 -494.25 1150.16 -241.837 1150.16 69.5Z" stroke="#7AC231" stroke-width="1.5"/>
<path d="M964.627 49.5C964.627 260.321 790.402 431.25 575.454 431.25C360.506 431.25 186.281 260.321 186.281 49.5C186.281 -161.321 360.506 -332.25 575.454 -332.25C790.402 -332.25 964.627 -161.321 964.627 49.5Z" stroke="white" stroke-width="1.5"/>
<path d="M843.317 49.5C843.317 195.152 722.948 313.25 574.434 313.25C425.92 313.25 305.551 195.152 305.551 49.5C305.551 -96.152 425.92 -214.25 574.434 -214.25C722.948 -214.25 843.317 -96.152 843.317 49.5Z" stroke="#7AC231" stroke-width="1.5"/>
<path d="M747.493 49.5C747.493 142.685 670.482 218.25 575.453 218.25C480.425 218.25 403.414 142.685 403.414 49.5C403.414 -43.685 480.425 -119.25 575.453 -119.25C670.482 -119.25 747.493 -43.685 747.493 49.5Z" stroke="#7AC231" stroke-width="1.5"/>
<path d="M1061.47 49.5C1061.47 313.341 843.431 527.25 574.435 527.25C305.438 527.25 87.3984 313.341 87.3984 49.5C87.3984 -214.341 305.438 -428.25 574.435 -428.25C843.431 -428.25 1061.47 -214.341 1061.47 49.5Z" stroke="#7AC231" stroke-width="1.5"/>
</g>
</g>
<defs>
<clipPath id="clip0_232_303">
<rect width="1151" height="1129" fill="white" transform="translate(0 -495)"/>
</clipPath>
</defs>
</svg>
