<svg width="20" height="21" viewBox="0 0 20 21" fill="none" xmlns="http://www.w3.org/2000/svg">
<path d="M18.7287 8.38721C19.1768 10.1252 18.998 11.9495 18.2191 13.5863C17.4403 15.2231 16.1034 16.584 14.4092 17.4646C12.7151 18.3453 10.7551 18.6981 8.82372 18.4701C6.8923 18.2421 5.09365 17.4457 3.69788 16.2004" stroke="white" stroke-linecap="round"/>
<path d="M1.17299 12.0497C1.03791 11.4732 0.969946 10.8852 0.970233 10.2956C0.966675 8.67555 1.4834 7.09044 2.45593 5.73802C3.42846 4.38561 4.81373 3.32579 6.43888 2.69079C8.06404 2.0558 9.85711 1.87375 11.5944 2.16737C13.3316 2.46099 14.9361 3.21728 16.2077 4.34185" stroke="white" stroke-linecap="round"/>
<path d="M12.1639 4.70687L16.33 4.4262L16.0049 0.847656" stroke="white" stroke-linecap="round"/>
<path d="M7.64213 15.7651L3.47986 16.0458L3.80504 19.6243" stroke="white" stroke-linecap="round"/>
</svg>
