<svg width="29" height="29" viewBox="0 0 29 29" fill="none" xmlns="http://www.w3.org/2000/svg">
<path d="M14.5 27.2841C21.5604 27.2841 27.2841 21.5604 27.2841 14.5C27.2841 7.43951 21.5604 1.71588 14.5 1.71588C7.43957 1.71588 1.71594 7.43951 1.71594 14.5C1.71594 16.545 2.19614 18.4779 3.04991 20.1921C3.2768 20.6476 3.35232 21.1683 3.22078 21.6598L2.45935 24.5057C2.1288 25.741 3.25899 26.8711 4.49437 26.5407L7.34016 25.7792C7.83176 25.6477 8.35243 25.7233 8.80796 25.95C10.5221 26.8039 12.455 27.2841 14.5 27.2841Z" stroke="#BBFBDB" stroke-width="2"/>
<path d="M19.6137 14.5C19.6137 13.4204 18.4288 12.6923 16.059 11.2361C13.657 9.76008 12.456 9.02206 11.5604 9.56394C10.6648 10.1058 10.6648 11.5706 10.6648 14.5C10.6648 17.4295 10.6648 18.8941 11.5604 19.4361C12.456 19.978 13.657 19.2399 16.059 17.7639C18.4288 16.3077 19.6137 15.5796 19.6137 14.5Z" stroke="#BBFBDB" stroke-width="2" stroke-linecap="round"/>
</svg>
