<svg width="49" height="56" viewBox="0 0 49 56" fill="none" xmlns="http://www.w3.org/2000/svg">
<path d="M46.6443 12.4927L26.52 0.873602C25.2048 0.113951 23.5712 0.113951 22.2566 0.873602L2.13167 12.4927C0.816488 13.2517 0 14.6665 0 16.1846V39.4233C0 40.9414 0.816488 42.3562 2.13167 43.1146L22.2572 54.7349C22.9148 55.1138 23.6512 55.3039 24.3883 55.3039C25.1253 55.3039 25.8624 55.1138 26.5193 54.7343L46.6443 43.1152C47.9589 42.3568 48.776 40.9414 48.776 39.4233V16.1846C48.776 14.6659 47.9589 13.2511 46.6443 12.4927ZM18.3514 34.1968C18.3514 35.0157 17.8081 35.7357 17.021 35.96C16.8541 36.0076 16.6854 36.0302 16.518 36.0302C15.8952 36.0302 15.3006 35.7118 14.9602 35.1636L10.4145 27.8409V34.1968C10.4145 35.2095 9.59373 36.0302 8.58106 36.0302C7.5684 36.0302 6.74763 35.2095 6.74763 34.1968V21.4105C6.74763 20.5915 7.29094 19.8716 8.07809 19.6473C8.86769 19.4242 9.7074 19.7482 10.1389 20.4436L14.6846 27.7664V21.4105C14.6846 20.3978 15.5053 19.577 16.518 19.577C17.5306 19.577 18.3514 20.3978 18.3514 21.4105V34.1968ZM27.7838 25.9702C28.7965 25.9702 29.6172 26.791 29.6172 27.8036C29.6172 28.8163 28.7965 29.6371 27.7838 29.6371H24.5319V34.1968C24.5319 35.2095 23.7111 36.0302 22.6985 36.0302C21.6858 36.0302 20.865 35.2095 20.865 34.1968V21.4105C20.865 20.3978 21.6858 19.577 22.6985 19.577H27.7838C28.7965 19.577 29.6172 20.3978 29.6172 21.4105C29.6172 22.4231 28.7965 23.2439 27.7838 23.2439H24.5319V25.9702H27.7838ZM40.1943 23.2439H38.3945V34.1968C38.3945 35.2095 37.5737 36.0302 36.561 36.0302C35.5484 36.0302 34.7276 35.2095 34.7276 34.1968V23.2439H32.9278C31.9151 23.2439 31.0944 22.4231 31.0944 21.4105C31.0944 20.3978 31.9151 19.577 32.9278 19.577H40.1949C41.2076 19.577 42.0283 20.3978 42.0283 21.4105C42.0283 22.4231 41.2069 23.2439 40.1943 23.2439Z" fill="#BBFBDB"/>
</svg>
