<svg width="221" height="43" viewBox="0 0 221 43" fill="none" xmlns="http://www.w3.org/2000/svg">
<g clip-path="url(#clip0_119_215)">
<path d="M6.17582 43C12.836 43 17.8412 37.2693 20.8281 32.7409C20.4649 33.7427 20.2631 34.7446 20.2631 35.7065C20.2631 38.3514 21.7969 40.2349 24.8244 40.2349C28.9819 40.2349 33.422 36.6281 35.7228 32.7409C35.5614 33.302 35.4807 33.823 35.4807 34.3038C35.4807 36.1473 36.5302 37.3094 38.6694 37.3094C45.4104 37.3094 52.1917 25.4875 52.1917 15.1482C52.1917 7.0932 48.0744 0 37.7411 0C19.5768 0 0 21.9609 0 36.1473C0 41.7177 3.02735 43 6.17582 43ZM31.4844 14.2665C31.4844 12.2628 32.6147 10.8602 34.2697 10.8602C35.8843 10.8602 37.0145 12.2628 37.0145 14.2665C37.0145 16.2703 35.8843 17.7129 34.2697 17.7129C32.6147 17.7129 31.4844 16.2703 31.4844 14.2665ZM40.1227 14.2665C40.1227 12.2628 41.2529 10.8602 42.9078 10.8602C44.5223 10.8602 45.6525 12.2628 45.6525 14.2665C45.6525 16.2703 44.5223 17.7129 42.9078 17.7129C41.2529 17.7129 40.1227 16.2703 40.1227 14.2665Z" fill="#AB9FF2"/>
<path d="M60.2637 38.632H66.3184V32.741C66.3184 29.9759 66.0762 28.9339 64.6635 26.1288L65.4303 25.7279C67.489 30.4969 70.3953 32.22 73.3822 32.22C78.1856 32.22 82.0202 28.0522 82.0202 21.6003C82.0202 15.4288 78.5085 10.9004 73.4629 10.9004C70.476 10.9004 67.489 12.5835 65.4303 17.3925L64.6635 16.9917C65.6323 15.0681 66.3184 13.2648 66.3184 11.5416H60.2637V38.632ZM66.3184 21.5602C66.3184 18.9153 68.3367 15.9899 71.3236 15.9899C73.7454 15.9899 75.7234 17.9535 75.7234 21.5201C75.7234 25.0467 73.8262 27.1306 71.2832 27.1306C68.4577 27.1306 66.3184 24.2853 66.3184 21.5602Z" fill="#AB9FF2"/>
<path d="M84.2295 31.5788H90.2842V24.5256C90.2842 19.5564 92.0603 16.0299 95.3701 16.0299C97.4691 16.0299 98.115 17.4325 98.115 20.919V31.5788H104.17V19.9572C104.17 13.6254 101.869 10.9003 97.4691 10.9003C92.9482 10.9003 91.4548 13.9059 89.7192 17.5527L88.9522 17.152C90.0017 14.9078 90.2842 13.5453 90.2842 11.5415V4.60864H84.2295V31.5788Z" fill="#AB9FF2"/>
<path d="M113.019 32.22C116.934 32.22 119.235 29.6553 120.971 26.3691L121.697 26.7298C120.93 28.2928 120.204 30.0961 120.204 31.5788H126.138V20.6785C126.138 14.1865 123.393 10.9004 116.975 10.9004C110.678 10.9004 107.57 14.0262 106.964 17.3123L112.777 18.3142C112.979 16.591 114.391 15.4288 116.652 15.4288C118.912 15.4288 120.204 16.5509 120.204 17.9134C120.204 19.276 118.872 19.9172 115.32 19.9573C110.072 20.0374 106.197 21.9209 106.197 25.9284C106.197 29.2144 108.821 32.22 113.019 32.22ZM112.212 25.5275C112.212 22.3617 117.298 24.5658 120.083 22.1213V22.8425C120.083 25.6878 117.54 27.7718 114.997 27.7718C113.665 27.7718 112.212 27.2107 112.212 25.5275Z" fill="#AB9FF2"/>
<path d="M128.537 31.5788H134.592V24.5257C134.592 19.5565 136.368 16.0299 139.678 16.0299C141.777 16.0299 142.422 17.4326 142.422 20.919V31.5788H148.477V19.9573C148.477 13.6255 146.177 10.9004 141.777 10.9004C137.256 10.9004 135.762 13.906 134.027 17.5528L133.26 17.152C134.309 14.9079 134.592 13.5453 134.592 11.5416H128.537V31.5788Z" fill="#AB9FF2"/>
<path d="M164.603 31.6589V26.6895C163.312 27.1304 159.719 27.8917 159.719 24.9664V16.3503H164.563V11.5414H159.719V6.17139L153.624 7.97474V11.5414H149.991V16.3503H153.624L153.664 25.4473C153.664 32.1397 159.679 33.1015 164.603 31.6589Z" fill="#AB9FF2"/>
<path d="M176.902 32.22C183.037 32.22 187.72 27.5714 187.72 21.5201C187.72 15.509 183.037 10.9004 176.902 10.9004C170.767 10.9004 166.044 15.509 166.044 21.5201C166.044 27.5714 170.767 32.22 176.902 32.22ZM172.3 21.5602C172.3 18.234 174.198 15.9097 176.902 15.9097C179.606 15.9097 181.463 18.234 181.463 21.5602C181.463 24.8864 179.606 27.2107 176.902 27.2107C174.198 27.2107 172.3 24.8864 172.3 21.5602Z" fill="#AB9FF2"/>
<path d="M189.597 31.5788H195.65V24.5257C195.65 19.3561 197.305 16.0299 199.97 16.0299C201.706 16.0299 202.271 17.3925 202.271 20.919V31.5788H208.326V24.5257C208.326 19.6767 210.102 16.0299 212.645 16.0299C214.339 16.0299 214.945 17.5929 214.945 20.919V31.5788H221V19.9573C221 13.5854 218.901 10.9004 214.784 10.9004C210.505 10.9004 208.973 13.906 207.478 17.5929L206.751 17.2322C208.165 13.0244 205.096 10.9004 202.069 10.9004C198.074 10.9004 196.621 13.906 195.006 17.5528L194.279 17.152C195.288 14.9079 195.65 13.5453 195.65 11.5416H189.597V31.5788Z" fill="#AB9FF2"/>
</g>
<defs>
<clipPath id="clip0_119_215">
<rect width="221" height="43" fill="white"/>
</clipPath>
</defs>
</svg>
