<svg width="169" height="46" viewBox="0 0 169 46" fill="none" xmlns="http://www.w3.org/2000/svg">
<path d="M76.291 10.8066H84.3482V15.3188C86.9888 11.2621 90.0256 10.8066 94.4717 10.8066V18.7813H92.4483C87.1209 18.7813 84.5694 21.2899 84.5694 26.2543V34.7307H76.2943V10.8066H76.291Z" fill="#0500FF"/>
<path d="M121.347 34.7307H113.075V32.4499C111.27 34.5459 108.807 35.4569 105.77 35.4569C100.004 35.4569 96.7461 32.0373 96.7461 25.7526V10.8066H105.021V23.8843C105.021 26.8451 106.473 28.5747 108.936 28.5747C111.398 28.5747 113.075 26.8881 113.075 24.0197V10.8066H121.35L121.347 34.7307Z" fill="#0500FF"/>
<path d="M123.368 27.3437H131.118C131.471 29.0733 132.659 29.8027 135.518 29.8027C137.851 29.8027 139.215 29.2581 139.215 28.2547C139.215 27.479 138.554 26.9773 136.663 26.568L130.415 25.1552C126.233 24.2013 124.12 21.7851 124.12 17.91C124.12 12.8037 127.86 10.1631 135.122 10.1631C142.383 10.1631 145.948 12.7377 146.565 18.2533H138.865C138.733 16.7977 137.234 15.9064 134.772 15.9064C132.791 15.9064 131.517 16.5435 131.517 17.5007C131.517 18.3193 132.352 18.9564 134.026 19.3723L140.581 20.9665C144.892 22.0129 146.965 24.2013 146.965 27.7562C146.965 32.6777 142.694 35.5956 135.435 35.5956C128.177 35.5956 123.374 32.45 123.374 27.347H123.364H123.368V27.3437Z" fill="#0500FF"/>
<path d="M169 18.2466V10.8066H148.578V18.2532H154.671V34.7307H162.904V18.2499H169V18.2466Z" fill="#0500FF"/>
<path d="M73.987 18.2466V10.8066H53.5684V18.2532H59.6616V34.7307H67.8938V18.2499H73.987V18.2466Z" fill="#0500FF"/>
<path d="M0 6.60156L20.3097 0V45.6993C5.80277 39.6061 0 27.9279 0 21.3297V6.60156Z" fill="#0500FF"/>
<path d="M40.6232 6.60156L20.3135 0V45.6993C34.8204 39.6061 40.6232 27.9279 40.6232 21.3264V6.60156Z" fill="url(#paint0_linear_119_225)"/>
<path d="M40.6232 6.60156L20.3135 0V45.6993C34.8204 39.6061 40.6232 27.9279 40.6232 21.3264V6.60156Z" fill="url(#paint1_linear_119_225)"/>
<defs>
<linearGradient id="paint0_linear_119_225" x1="19.455" y1="51.4452" x2="36.0804" y2="-8.68551" gradientUnits="userSpaceOnUse">
<stop offset="0.26" stop-color="#48FF91"/>
<stop offset="0.66" stop-color="#0094FF"/>
<stop offset="0.8" stop-color="#0038FF"/>
<stop offset="0.89" stop-color="#0500FF"/>
</linearGradient>
<linearGradient id="paint1_linear_119_225" x1="35.0326" y1="-2.58174" x2="19.6909" y2="45.6943" gradientUnits="userSpaceOnUse">
<stop offset="0.02" stop-color="#0000FF"/>
<stop offset="0.08" stop-color="#0094FF"/>
<stop offset="0.16" stop-color="#48FF91"/>
<stop offset="0.42" stop-color="#0094FF"/>
<stop offset="0.68" stop-color="#0038FF"/>
<stop offset="0.9" stop-color="#0500FF"/>
</linearGradient>
</defs>
</svg>
