<svg width="82" height="82" viewBox="0 0 82 82" fill="none" xmlns="http://www.w3.org/2000/svg">
<path d="M41 80.9999C63.0913 80.9999 80.9999 63.0913 80.9999 41C80.9999 18.9086 63.0913 1 41 1C18.9086 1 1 18.9086 1 41C1 63.0913 18.9086 80.9999 41 80.9999Z" fill="#698A92" stroke="white" stroke-width="2" stroke-linecap="round" stroke-linejoin="round"/>
<path d="M41 49.6933C47.7231 49.6933 53.1733 44.2431 53.1733 37.52C53.1733 30.7968 47.7231 25.3467 41 25.3467C34.2768 25.3467 28.8267 30.7968 28.8267 37.52C28.8267 44.2431 34.2768 49.6933 41 49.6933Z" fill="white"/>
<path d="M41 81C50.1241 81.0062 58.9736 77.8778 66.0667 72.1386C64.5219 66.6778 61.2368 61.8704 56.7106 58.447C52.1843 55.0235 46.6643 53.171 40.9892 53.171C35.3141 53.171 29.7941 55.0235 25.2679 58.447C20.7416 61.8704 17.4568 66.6778 15.9121 72.1386C23.0109 77.8824 31.8685 81.0111 41 81Z" fill="white"/>
</svg>
