<svg width="27" height="27" viewBox="0 0 27 27" fill="none" xmlns="http://www.w3.org/2000/svg">
<path d="M13.5 19.0556H14.8889C15.8149 19.0556 17.6667 18.5 17.6667 16.2778C17.6667 14.0556 15.8149 13.5 14.8889 13.5H12.1111C11.1851 13.5 9.33333 12.9444 9.33333 10.7222C9.33333 8.5 11.1851 7.94444 12.1111 7.94444H13.5M13.5 19.0556H9.33333M13.5 19.0556V21.8333M13.5 7.94444H17.6667M13.5 7.94444V5.16667M26 13.5C26 20.4036 20.4036 26 13.5 26C6.59644 26 1 20.4036 1 13.5C1 6.59644 6.59644 1 13.5 1C20.4036 1 26 6.59644 26 13.5Z" stroke="#83ECFF" stroke-width="2" stroke-linecap="round" stroke-linejoin="round"/>
</svg>
