<svg width="19" height="15" viewBox="0 0 19 15" fill="none" xmlns="http://www.w3.org/2000/svg">
<path fill-rule="evenodd" clip-rule="evenodd" d="M9.30201 4.18628C7.56809 4.18628 6.16248 5.5919 6.16248 7.32581C6.16248 9.05976 7.56809 10.4653 9.30201 10.4653C11.036 10.4653 12.4415 9.05976 12.4415 7.32581C12.4415 5.5919 11.036 4.18628 9.30201 4.18628ZM7.41829 7.32581C7.41829 6.2855 8.26169 5.44209 9.30201 5.44209C10.3423 5.44209 11.1857 6.2855 11.1857 7.32581C11.1857 8.36613 10.3423 9.20954 9.30201 9.20954C8.26169 9.20954 7.41829 8.36613 7.41829 7.32581Z" fill="white"/>
<path fill-rule="evenodd" clip-rule="evenodd" d="M9.302 0C5.52273 0 2.97713 2.26398 1.49969 4.18342L1.47304 4.21803C1.13891 4.65198 0.831168 5.05165 0.622394 5.52424C0.398817 6.03034 0.302002 6.58189 0.302002 7.32558C0.302002 8.06927 0.398817 8.62083 0.622394 9.12692C0.831168 9.59953 1.13891 9.99921 1.47305 10.4331L1.49969 10.4677C2.97713 12.3872 5.52273 14.6512 9.302 14.6512C13.0812 14.6512 15.6269 12.3872 17.1043 10.4677L17.1309 10.4331C17.4651 9.99921 17.7728 9.59953 17.9816 9.12692C18.2052 8.62083 18.302 8.06927 18.302 7.32558C18.302 6.58189 18.2052 6.03034 17.9816 5.52424C17.7728 5.05165 17.4651 4.65197 17.1309 4.21801L17.1043 4.18342C15.6269 2.26398 13.0812 0 9.302 0ZM2.49484 4.94941C3.859 3.17714 6.07905 1.25581 9.302 1.25581C12.5249 1.25581 14.745 3.17714 16.1092 4.94941C16.4764 5.42645 16.6915 5.71153 16.8329 6.03167C16.9651 6.33098 17.0462 6.69675 17.0462 7.32558C17.0462 7.95441 16.9651 8.32019 16.8329 8.61949C16.6915 8.93964 16.4764 9.22471 16.1092 9.70175C14.745 11.474 12.5249 13.3953 9.302 13.3953C6.07905 13.3953 3.859 11.474 2.49484 9.70175C2.12765 9.22471 1.91258 8.93964 1.7711 8.61949C1.63889 8.32019 1.55782 7.95441 1.55782 7.32558C1.55782 6.69675 1.63889 6.33098 1.7711 6.03167C1.91258 5.71153 2.12765 5.42645 2.49484 4.94941Z" fill="white"/>
</svg>
