<svg width="25" height="26" viewBox="0 0 25 26" fill="none" xmlns="http://www.w3.org/2000/svg">
<path fill-rule="evenodd" clip-rule="evenodd" d="M12.7259 8.2529C10.2841 8.2529 8.30468 10.2323 8.30468 12.6741C8.30468 15.1159 10.2841 17.0953 12.7259 17.0953C15.1677 17.0953 17.1471 15.1159 17.1471 12.6741C17.1471 10.2323 15.1677 8.2529 12.7259 8.2529ZM10.0732 12.6741C10.0732 11.2091 11.2609 10.0214 12.7259 10.0214C14.1909 10.0214 15.3786 11.2091 15.3786 12.6741C15.3786 14.1391 14.1909 15.3268 12.7259 15.3268C11.2609 15.3268 10.0732 14.1391 10.0732 12.6741Z" fill="white"/>
<path fill-rule="evenodd" clip-rule="evenodd" d="M12.6961 5.00808e-07C12.1721 -1.12891e-05 11.7346 -1.13447e-05 11.3755 0.024488C11.0016 0.0500013 10.6485 0.104989 10.3061 0.246798C9.51172 0.575865 8.88054 1.20704 8.55147 2.00147C8.38016 2.41506 8.33377 2.85093 8.31605 3.3247C8.30181 3.70555 8.10961 4.02331 7.82596 4.18707C7.54232 4.35083 7.17103 4.3584 6.83409 4.18031C6.41493 3.95877 6.01425 3.781 5.57041 3.72257C4.71789 3.61033 3.85568 3.84136 3.17348 4.36483C2.87949 4.59042 2.6553 4.86875 2.44629 5.17976C2.24549 5.47853 2.02678 5.85738 1.76477 6.3112L1.735 6.36277C1.47298 6.81657 1.25426 7.19541 1.09591 7.51867C0.931075 7.8552 0.802129 8.18853 0.753755 8.55592C0.641516 9.40846 0.87255 10.2707 1.39601 10.9529C1.6685 11.3079 2.02272 11.5661 2.4241 11.8183C2.74688 12.0211 2.926 12.3465 2.92598 12.6741C2.92597 13.0016 2.74684 13.327 2.4241 13.5298C2.02268 13.782 1.66841 14.0402 1.3959 14.3953C0.872432 15.0775 0.64141 15.9397 0.753637 16.7922C0.802011 17.1596 0.930957 17.493 1.09579 17.8295C1.25414 18.1527 1.47287 18.5316 1.73487 18.9853L1.76465 19.037C2.02666 19.4908 2.24537 19.8696 2.44617 20.1683C2.65518 20.4794 2.87937 20.7577 3.17337 20.9833C3.85556 21.5067 4.71777 21.7378 5.57029 21.6256C6.01411 21.5671 6.41477 21.3894 6.8339 21.1679C7.17089 20.9897 7.54222 20.9973 7.8259 21.1612C8.10959 21.3249 8.30181 21.6427 8.31605 22.0236C8.33377 22.4973 8.38017 22.9332 8.55147 23.3468C8.88054 24.1412 9.51172 24.7724 10.3061 25.1015C10.6485 25.2433 11.0016 25.2982 11.3755 25.3237C11.7346 25.3482 12.1721 25.3482 12.6961 25.3482H12.7556C13.2797 25.3482 13.7171 25.3482 14.0763 25.3237C14.4502 25.2982 14.8033 25.2433 15.1456 25.1015C15.94 24.7724 16.5713 24.1412 16.9003 23.3468C17.0716 22.9332 17.118 22.4973 17.1357 22.0235C17.1499 21.6427 17.3421 21.3249 17.6258 21.161C17.9094 20.9973 18.2808 20.9897 18.6178 21.1678C19.0369 21.3893 19.4375 21.5671 19.8814 21.6255C20.7339 21.7377 21.5961 21.5067 22.2783 20.9833C22.5723 20.7576 22.7964 20.4794 23.0055 20.1683C23.2063 19.8696 23.425 19.4908 23.6869 19.037L23.7168 18.9853C23.9787 18.5316 24.1975 18.1526 24.3559 17.8293C24.5207 17.4929 24.6496 17.1596 24.698 16.7922C24.8103 15.9396 24.5792 15.0774 24.0557 14.3952C23.7833 14.0401 23.429 13.782 23.0276 13.5298C22.7048 13.327 22.5257 13.0016 22.5257 12.674C22.5257 12.3465 22.7048 12.0212 23.0275 11.8184C23.4291 11.5662 23.7834 11.3081 24.0558 10.9529C24.5793 10.2707 24.8104 9.40854 24.6981 8.556C24.6497 8.18861 24.5208 7.85528 24.356 7.51875C24.1977 7.19551 23.979 6.8167 23.7169 6.36293L23.6872 6.31133C23.4251 5.8575 23.2064 5.47861 23.0056 5.17984C22.7966 4.86883 22.5724 4.5905 22.2784 4.36491C21.5962 3.84145 20.734 3.61041 19.8814 3.72265C19.4376 3.78108 19.037 3.95883 18.6179 4.18036C18.2809 4.35847 17.9095 4.35089 17.6259 4.1871C17.3422 4.02333 17.1499 3.70552 17.1357 3.32464C17.118 2.85089 17.0716 2.41504 16.9003 2.00147C16.5713 1.20704 15.94 0.575865 15.1456 0.246798C14.8033 0.104989 14.4502 0.0500013 14.0763 0.024488C13.7171 -1.13447e-05 13.2797 -1.12891e-05 12.7556 5.00808e-07H12.6961ZM10.9829 1.88066C11.0739 1.84298 11.2121 1.80824 11.4958 1.78887C11.7876 1.76896 12.1645 1.76848 12.7259 1.76848C13.2873 1.76848 13.6641 1.76896 13.9558 1.78887C14.2397 1.80824 14.3779 1.84298 14.4688 1.88066C14.8299 2.03024 15.1169 2.31713 15.2664 2.67825C15.3136 2.79215 15.3527 2.96972 15.3685 3.39073C15.4034 4.32494 15.8856 5.22443 16.7416 5.71865C17.5976 6.21288 18.6178 6.18072 19.4442 5.74388C19.8167 5.54702 19.9901 5.4921 20.1122 5.47601C20.4998 5.42499 20.8917 5.53 21.2017 5.76794C21.2799 5.82788 21.3791 5.93018 21.5378 6.16629C21.7009 6.40901 21.8897 6.73508 22.1704 7.2213C22.4511 7.70752 22.6392 8.03407 22.7678 8.29669C22.8929 8.55216 22.9319 8.68922 22.9448 8.78684C22.9958 9.17435 22.8908 9.56627 22.6528 9.87635C22.5777 9.97417 22.4436 10.0968 22.0867 10.321C21.2952 10.8184 20.7574 11.6856 20.7573 12.674C20.7573 13.6625 21.2951 14.5298 22.0867 15.0273C22.4434 15.2514 22.5776 15.374 22.6527 15.4718C22.8906 15.7819 22.9957 16.1738 22.9446 16.5613C22.9318 16.659 22.8928 16.796 22.7677 17.0515C22.639 17.314 22.451 17.6406 22.1703 18.1268C21.8896 18.613 21.7008 18.9391 21.5376 19.1819C21.3789 19.4179 21.2798 19.5203 21.2016 19.5801C20.8915 19.8182 20.4997 19.9231 20.1121 19.8722C19.99 19.856 19.8165 19.8011 19.4441 19.6043C18.6176 19.1674 17.5975 19.1353 16.7414 19.6295C15.8856 20.1238 15.4034 21.0232 15.3685 21.9575C15.3527 22.3785 15.3136 22.556 15.2664 22.67C15.1169 23.031 14.8299 23.318 14.4688 23.4676C14.3779 23.5052 14.2397 23.54 13.9558 23.5593C13.6641 23.5793 13.2873 23.5797 12.7259 23.5797C12.1645 23.5797 11.7876 23.5793 11.4958 23.5593C11.2121 23.54 11.0739 23.5052 10.9829 23.4676C10.6219 23.318 10.3349 23.031 10.1853 22.67C10.1382 22.556 10.099 22.3785 10.0833 21.9575C10.0484 21.0233 9.56616 20.1238 8.71014 19.6295C7.85412 19.1353 6.83404 19.1675 6.00752 19.6043C5.63504 19.8012 5.46171 19.8561 5.33947 19.8722C4.95195 19.9232 4.56004 19.8182 4.24996 19.5803C4.17184 19.5204 4.07265 19.418 3.91397 19.1819C3.75086 18.9392 3.56204 18.6131 3.28133 18.1269C3.0006 17.6407 2.81262 17.3141 2.68398 17.0516C2.55884 16.7961 2.51984 16.659 2.50699 16.5613C2.45598 16.1738 2.56099 15.7819 2.79893 15.4718C2.87399 15.3741 3.00821 15.2514 3.36496 15.0273C4.15651 14.53 4.69441 13.6626 4.69446 12.6742C4.69452 11.6856 4.1566 10.8183 3.36498 10.3209C3.00831 10.0967 2.87409 9.97408 2.79904 9.87627C2.56111 9.56618 2.45609 9.17428 2.50711 8.78675C2.51996 8.68915 2.55896 8.55208 2.6841 8.29661C2.81274 8.03398 3.00072 7.70744 3.28143 7.22121C3.56216 6.735 3.75096 6.40893 3.91409 6.16621C4.07277 5.93011 4.17196 5.82779 4.25006 5.76786C4.56016 5.52992 4.95207 5.42491 5.33958 5.47592C5.46183 5.49202 5.63517 5.54693 6.0077 5.74384C6.83417 6.18066 7.8542 6.21281 8.71018 5.71862C9.56618 5.22442 10.0484 4.32496 10.0833 3.39079C10.099 2.96974 10.1382 2.79216 10.1853 2.67825C10.3349 2.31713 10.6219 2.03024 10.9829 1.88066Z" fill="white"/>
</svg>
