<svg width="23" height="25" viewBox="0 0 23 25" fill="none" xmlns="http://www.w3.org/2000/svg">
<path d="M22.2108 12.539C22.2108 7.46884 18.7847 3.04711 13.8728 1.78595C13.403 1.66341 12.9231 1.94934 12.8056 2.41908C12.6831 2.88883 12.969 3.36878 13.4388 3.48622C17.5695 4.54315 20.4543 8.27047 20.4543 12.539C20.4543 16.3021 18.2128 19.6362 14.8582 21.1016L15.6701 19.2125C15.859 18.7682 15.6548 18.2525 15.2105 18.0585C14.7663 17.8696 14.2506 18.0738 14.0566 18.518L12.4738 22.2045C12.2848 22.6487 12.4891 23.1644 12.9333 23.3585L16.6198 24.9413C17.1712 25.1353 17.6307 24.8136 17.7737 24.4818C17.9626 24.0375 17.7584 23.5218 17.3142 23.3278L15.7109 22.6385C19.6169 20.8719 22.2108 16.9505 22.2108 12.539Z" fill="white"/>
<path d="M8.77197 21.5918C4.64128 20.5298 1.75644 16.8076 1.75644 12.539C1.75644 8.82703 3.93666 5.53371 7.21466 4.03767L6.45388 5.80432C6.26496 6.24854 6.45899 6.78466 6.91342 6.95826C7.44443 7.15739 7.89375 6.91741 8.06735 6.49873L9.65019 2.80715C9.80337 2.44973 9.79826 1.91361 9.19066 1.65321L5.50418 0.0703737C5.05997 -0.118545 4.54427 0.0856915 4.35024 0.529907C4.16132 0.974122 4.36556 1.48982 4.80978 1.68384L6.52537 2.4191C2.60402 4.19085 0 8.1173 0 12.539C0 17.6092 3.43118 22.0258 8.33797 23.2921C8.93025 23.4453 9.30299 23.0572 9.40511 22.659C9.52254 22.1892 9.24171 21.7144 8.77197 21.5918Z" fill="white"/>
</svg>
