<svg width="14" height="17" viewBox="0 0 14 17" fill="none" xmlns="http://www.w3.org/2000/svg">
<path fill-rule="evenodd" clip-rule="evenodd" d="M6.5725 16.6499C6.63583 16.6716 6.6975 16.6724 6.76083 16.6499C7.57 16.3749 13.3333 14.1816 13.3333 7.71078V1.91995C13.3335 1.84547 13.3087 1.77309 13.263 1.71433C13.2172 1.65558 13.1531 1.61384 13.0808 1.59578L6.7475 0.00994953C6.69443 -0.00331651 6.63891 -0.00331651 6.58583 0.00994953L0.252501 1.59578C0.180249 1.61384 0.116126 1.65558 0.0703614 1.71433C0.0245965 1.77309 -0.00017394 1.84547 9.19456e-07 1.91995V7.70995C9.19456e-07 14.1158 5.765 16.3658 6.5725 16.6499ZM7.50667 4.16662C7.50667 4.38763 7.41887 4.59959 7.26259 4.75587C7.10631 4.91215 6.89435 4.99995 6.67333 4.99995H6.66667C6.44565 4.99995 6.23369 4.91215 6.07741 4.75587C5.92113 4.59959 5.83333 4.38763 5.83333 4.16662C5.83333 3.9456 5.92113 3.73364 6.07741 3.57736C6.23369 3.42108 6.44565 3.33328 6.66667 3.33328H6.67333C6.89435 3.33328 7.10631 3.42108 7.26259 3.57736C7.41887 3.73364 7.50667 3.9456 7.50667 4.16662ZM6.67333 11.6666C6.45232 11.6666 6.24036 11.5788 6.08408 11.4225C5.9278 11.2663 5.84 11.0543 5.84 10.8333V6.66662C5.84 6.4456 5.9278 6.23364 6.08408 6.07736C6.24036 5.92108 6.45232 5.83328 6.67333 5.83328C6.89435 5.83328 7.10631 5.92108 7.26259 6.07736C7.41887 6.23364 7.50667 6.4456 7.50667 6.66662V10.8333C7.50667 11.0543 7.41887 11.2663 7.26259 11.4225C7.10631 11.5788 6.89435 11.6666 6.67333 11.6666Z" fill="#FF2857"/>
</svg>
