<svg width="26" height="21" viewBox="0 0 26 21" fill="none" xmlns="http://www.w3.org/2000/svg">
<path d="M21.3061 10.1744C21.3061 10.8166 20.7855 11.3372 20.1433 11.3372C19.5011 11.3372 18.9805 10.8166 18.9805 10.1744C18.9805 9.53221 19.5011 9.01163 20.1433 9.01163C20.7855 9.01163 21.3061 9.53221 21.3061 10.1744Z" fill="#83ECFF"/>
<path fill-rule="evenodd" clip-rule="evenodd" d="M10.7753 5.26926e-07H14.3949C16.5319 -2.27289e-05 18.2244 -3.429e-05 19.5491 0.17807C20.9123 0.361349 22.0158 0.747536 22.886 1.61772C23.9608 2.69259 24.3034 4.13213 24.4278 6.00009C25.0989 6.29547 25.6058 6.92012 25.6616 7.71138C25.6666 7.78138 25.6665 7.85686 25.6665 7.92674C25.6665 7.93314 25.6665 7.93942 25.6665 7.9457V12.4031C25.6665 12.4094 25.6665 12.4157 25.6665 12.4221C25.6665 12.492 25.6666 12.5674 25.6616 12.6374C25.6058 13.4287 25.0989 14.0534 24.4278 14.3487C24.3034 16.2167 23.9608 17.6563 22.886 18.7312C22.0158 19.6013 20.9123 19.9874 19.5491 20.1708C18.2244 20.3488 16.5319 20.3488 14.3949 20.3488H10.7753C8.6384 20.3488 6.9458 20.3488 5.62113 20.1708C4.25785 19.9874 3.15442 19.6013 2.28423 18.7312C1.41404 17.8609 1.02785 16.7574 0.844574 15.3942C0.666469 14.0695 0.666481 12.377 0.666504 10.24V10.1088C0.666481 7.97186 0.666469 6.27929 0.844574 4.95463C1.02785 3.59135 1.41404 2.48792 2.28423 1.61772C3.15442 0.747536 4.25785 0.361349 5.62113 0.17807C6.9458 -3.429e-05 8.63839 -2.27289e-05 10.7753 5.26926e-07ZM22.6641 14.5349H20.4116C17.9172 14.5349 15.7828 12.6423 15.7828 10.1744C15.7828 7.70646 17.9172 5.81395 20.4116 5.81395H22.6641C22.5317 4.25413 22.2323 3.43073 21.6527 2.85105C21.1606 2.35894 20.4865 2.06398 19.3167 1.9067C18.1217 1.74604 16.5465 1.74419 14.3293 1.74419H10.8409C8.62369 1.74419 7.04849 1.74604 5.85354 1.9067C4.68367 2.06398 4.00966 2.35894 3.51755 2.85105C3.02545 3.34315 2.73048 4.01716 2.5732 5.18704C2.41254 6.38199 2.41069 7.95721 2.41069 10.1744C2.41069 12.3916 2.41254 13.9669 2.5732 15.1619C2.73048 16.3316 3.02545 17.0057 3.51755 17.4978C4.00966 17.9899 4.68367 18.2849 5.85354 18.4421C7.04849 18.6028 8.62369 18.6047 10.8409 18.6047H14.3293C16.5465 18.6047 18.1217 18.6028 19.3167 18.4421C20.4865 18.2849 21.1606 17.9899 21.6527 17.4978C22.2323 16.9181 22.5317 16.0948 22.6641 14.5349ZM23.5427 7.55841C23.5191 7.55815 23.4881 7.55814 23.4378 7.55814H20.4116C18.7565 7.55814 17.527 8.78919 17.527 10.1744C17.527 11.5597 18.7565 12.7907 20.4116 12.7907H23.4378C23.4881 12.7907 23.5191 12.7907 23.5427 12.7905C23.5572 12.7902 23.5649 12.7901 23.5685 12.7899L23.571 12.7898C23.8108 12.7752 23.9138 12.6135 23.9217 12.5162C23.9217 12.5162 23.922 12.5088 23.9221 12.4984C23.9223 12.4777 23.9223 12.4502 23.9223 12.4031V7.9457C23.9223 7.8986 23.9223 7.87116 23.9221 7.85047C23.922 7.83998 23.9217 7.83266 23.9217 7.83266C23.9138 7.73537 23.8108 7.57361 23.571 7.55902C23.571 7.55902 23.5653 7.55864 23.5427 7.55841ZM7.35255 5.81395C7.83419 5.81395 8.22464 6.20441 8.22464 6.68605V13.6628C8.22464 14.1444 7.83419 14.5349 7.35255 14.5349C6.87091 14.5349 6.48046 14.1444 6.48046 13.6628V6.68605C6.48046 6.20441 6.87091 5.81395 7.35255 5.81395Z" fill="#83ECFF"/>
</svg>
